G04 #@! TF.GenerationSoftware,KiCad,Pcbnew,6.0.4+dfsg-1+b1*
G04 #@! TF.CreationDate,2022-04-23T23:39:37+03:00*
G04 #@! TF.ProjectId,yatabaza-bus,79617461-6261-47a6-912d-6275732e6b69,rev?*
G04 #@! TF.SameCoordinates,Original*
G04 #@! TF.FileFunction,Copper,L2,Bot*
G04 #@! TF.FilePolarity,Positive*
%FSLAX46Y46*%
G04 Gerber Fmt 4.6, Leading zero omitted, Abs format (unit mm)*
G04 Created by KiCad (PCBNEW 6.0.4+dfsg-1+b1) date 2022-04-23 23:39:37*
%MOMM*%
%LPD*%
G01*
G04 APERTURE LIST*
G04 #@! TA.AperFunction,ComponentPad*
%ADD10R,1.700000X1.700000*%
G04 #@! TD*
G04 #@! TA.AperFunction,ComponentPad*
%ADD11O,1.700000X1.700000*%
G04 #@! TD*
G04 #@! TA.AperFunction,ConnectorPad*
%ADD12R,1.700000X1.700000*%
G04 #@! TD*
G04 #@! TA.AperFunction,ComponentPad*
%ADD13C,4.500000*%
G04 #@! TD*
G04 #@! TA.AperFunction,ViaPad*
%ADD14C,0.600000*%
G04 #@! TD*
G04 #@! TA.AperFunction,Conductor*
%ADD15C,0.375000*%
G04 #@! TD*
G04 #@! TA.AperFunction,Conductor*
%ADD16C,1.500000*%
G04 #@! TD*
G04 #@! TA.AperFunction,Conductor*
%ADD17C,2.000000*%
G04 #@! TD*
G04 APERTURE END LIST*
D10*
X49530000Y-78740000D03*
D11*
X49530000Y-81280000D03*
X52070000Y-78740000D03*
X52070000Y-81280000D03*
X54610000Y-78740000D03*
X54610000Y-81280000D03*
X57150000Y-78740000D03*
X57150000Y-81280000D03*
X59690000Y-78740000D03*
X59690000Y-81280000D03*
D10*
X97155000Y-78740000D03*
D11*
X97155000Y-81280000D03*
X99695000Y-78740000D03*
X99695000Y-81280000D03*
X102235000Y-78740000D03*
X102235000Y-81280000D03*
X104775000Y-78740000D03*
X104775000Y-81280000D03*
X107315000Y-78740000D03*
X107315000Y-81280000D03*
D10*
X72390000Y-81280000D03*
D11*
X74930000Y-81280000D03*
D10*
X72385000Y-78740000D03*
D11*
X74925000Y-78740000D03*
D10*
X64770000Y-78740000D03*
D11*
X64770000Y-81280000D03*
X67310000Y-78740000D03*
X67310000Y-81280000D03*
D10*
X112390000Y-78740000D03*
D11*
X112390000Y-81280000D03*
X114930000Y-78740000D03*
X114930000Y-81280000D03*
D10*
X120010000Y-81280000D03*
D11*
X122550000Y-81280000D03*
D10*
X120010000Y-78740000D03*
D11*
X122550000Y-78740000D03*
D10*
X36830000Y-78740000D03*
D11*
X36830000Y-81280000D03*
X39370000Y-78740000D03*
X39370000Y-81280000D03*
X41910000Y-78740000D03*
X41910000Y-81280000D03*
D10*
X84455000Y-78800000D03*
D11*
X84455000Y-81340000D03*
X86995000Y-78800000D03*
X86995000Y-81340000D03*
X89535000Y-78800000D03*
X89535000Y-81340000D03*
D10*
X54610000Y-38100000D03*
D11*
X57150000Y-38100000D03*
D10*
X102230000Y-38100000D03*
D11*
X104770000Y-38100000D03*
D12*
X45720000Y-34290000D03*
X43180000Y-34290000D03*
X40640000Y-34290000D03*
X38100000Y-34290000D03*
X86995000Y-34290000D03*
X84455000Y-34290000D03*
X81915000Y-34290000D03*
X79375000Y-34290000D03*
X76835000Y-34290000D03*
X74295000Y-34290000D03*
X71755000Y-34290000D03*
X121920000Y-34290000D03*
X119380000Y-34290000D03*
X116840000Y-34290000D03*
D10*
X54605000Y-31750000D03*
D11*
X57145000Y-31750000D03*
D10*
X102235000Y-31750000D03*
D11*
X104775000Y-31750000D03*
D12*
X45720000Y-86995000D03*
X43180000Y-86995000D03*
X40640000Y-86995000D03*
X38100000Y-86995000D03*
X86995000Y-86995000D03*
X84455000Y-86995000D03*
X81915000Y-86995000D03*
X79375000Y-86995000D03*
X76835000Y-86995000D03*
X74295000Y-86995000D03*
X71755000Y-86995000D03*
X121920000Y-86995000D03*
X119380000Y-86995000D03*
X116840000Y-86995000D03*
D13*
X50800000Y-72390000D03*
X38100000Y-42545000D03*
X66675000Y-42545000D03*
X121920000Y-42545000D03*
X98425000Y-72390000D03*
X92075000Y-42545000D03*
D14*
X43815000Y-85090000D03*
X43815000Y-59690000D03*
X43815000Y-36195000D03*
X69850000Y-60960000D03*
X87630000Y-48260000D03*
X86995000Y-86995000D03*
X87630000Y-55880000D03*
X86995000Y-34290000D03*
X88900000Y-48260000D03*
X88900000Y-55880000D03*
X84455000Y-50165000D03*
X85725000Y-53975000D03*
X84455000Y-53975000D03*
X84455000Y-86995000D03*
X84455000Y-34290000D03*
X85725000Y-50165000D03*
X81915000Y-86995000D03*
X81915000Y-34290000D03*
X74295000Y-34290000D03*
X74295000Y-86995000D03*
X71755000Y-86995000D03*
X71755000Y-34290000D03*
X40640000Y-86995000D03*
X40640000Y-34290000D03*
X119380000Y-34290000D03*
X119380000Y-86995000D03*
X45085000Y-74295000D03*
X45085000Y-62865000D03*
X69850000Y-64770000D03*
X46355000Y-85090000D03*
X46355000Y-36195000D03*
X46355000Y-61595000D03*
X46355000Y-75565000D03*
X69850000Y-63500000D03*
X47625000Y-78740000D03*
X69850000Y-62230000D03*
X47625000Y-60960000D03*
X86995000Y-68580000D03*
X118745000Y-67945000D03*
X86995000Y-67310000D03*
X116205000Y-75565000D03*
X116205000Y-66675000D03*
X109855000Y-56515000D03*
X79375000Y-34290000D03*
X78105000Y-58420000D03*
X109855000Y-58420000D03*
X76200000Y-58420000D03*
X76835000Y-34290000D03*
X99695000Y-56515000D03*
X76835000Y-86995000D03*
X79375000Y-86995000D03*
X78105000Y-49530000D03*
X76200000Y-49530000D03*
X99695000Y-58420000D03*
X34925000Y-38100000D03*
X76200000Y-38100000D03*
D15*
X43815000Y-36195000D02*
X43180000Y-35560000D01*
X43815000Y-85090000D02*
X43180000Y-85725000D01*
X43180000Y-85725000D02*
X43180000Y-86995000D01*
X69850000Y-60960000D02*
X49530000Y-60960000D01*
X48260000Y-59690000D02*
X43815000Y-59690000D01*
X48260000Y-59690000D02*
X49530000Y-60960000D01*
X43180000Y-34290000D02*
X43180000Y-35560000D01*
D16*
X87630000Y-55880000D02*
X87630000Y-48260000D01*
X88900000Y-55880000D02*
X88900000Y-48260000D01*
X85725000Y-53975000D02*
X85725000Y-50165000D01*
X84455000Y-53975000D02*
X84455000Y-50165000D01*
D15*
X35560000Y-81280000D02*
X34925000Y-80645000D01*
X34925000Y-80645000D02*
X34925000Y-75565000D01*
X34925000Y-75565000D02*
X35500002Y-74989998D01*
X35500002Y-74989998D02*
X44390002Y-74989998D01*
X44390002Y-74989998D02*
X45085000Y-74295000D01*
X36830000Y-81280000D02*
X35560000Y-81280000D01*
X67945000Y-62865000D02*
X69850000Y-64770000D01*
X45085000Y-62865000D02*
X67945000Y-62865000D01*
X45720000Y-35560000D02*
X46355000Y-36195000D01*
X46355000Y-85090000D02*
X45720000Y-85725000D01*
X45720000Y-85725000D02*
X45720000Y-86995000D01*
X36830000Y-78740000D02*
X36830000Y-76200000D01*
X36830000Y-76200000D02*
X37465000Y-75565000D01*
X37465000Y-75565000D02*
X46355000Y-75565000D01*
X69850000Y-63500000D02*
X68580000Y-62230000D01*
X46990000Y-62230000D02*
X46355000Y-61595000D01*
X46990000Y-62230000D02*
X68580000Y-62230000D01*
X45720000Y-34290000D02*
X45720000Y-35560000D01*
X69850000Y-62230000D02*
X69215000Y-61595000D01*
X69215000Y-61595000D02*
X48260000Y-61595000D01*
X47625000Y-60960000D02*
X48260000Y-61595000D01*
X41910000Y-78740000D02*
X47625000Y-78740000D01*
X87630000Y-67945000D02*
X118745000Y-67945000D01*
X86995000Y-68580000D02*
X87630000Y-67945000D01*
X122555000Y-76200000D02*
X121920000Y-75565000D01*
X121920000Y-75565000D02*
X116205000Y-75565000D01*
X86995000Y-67310000D02*
X115570000Y-67310000D01*
X122555000Y-76200000D02*
X122555000Y-78740000D01*
X116205000Y-66675000D02*
X115570000Y-67310000D01*
D17*
X78105000Y-49530000D02*
X78105000Y-58420000D01*
X76200000Y-58420000D02*
X76200000Y-49530000D01*
X99695000Y-56515000D02*
X109855000Y-56515000D01*
X99695000Y-58420000D02*
X109855000Y-58420000D01*
D15*
X98425000Y-38100000D02*
X100330000Y-40005000D01*
X100330000Y-40005000D02*
X104140000Y-40005000D01*
X104140000Y-40005000D02*
X104775000Y-39370000D01*
X104775000Y-39370000D02*
X104775000Y-38100000D01*
X50800000Y-38100000D02*
X34925000Y-38100000D01*
X50800000Y-38100000D02*
X52705000Y-40005000D01*
X52705000Y-40005000D02*
X56515000Y-40005000D01*
X56515000Y-40005000D02*
X57150000Y-39370000D01*
X57150000Y-38100000D02*
X57150000Y-39370000D01*
X76200000Y-38100000D02*
X98425000Y-38100000D01*
G04 #@! TA.AperFunction,Conductor*
G36*
X66366621Y-24400502D02*
G01*
X66413114Y-24454158D01*
X66424500Y-24506500D01*
X66424500Y-32982915D01*
X66422079Y-33007496D01*
X66419592Y-33020000D01*
X66424500Y-33044674D01*
X66439034Y-33117740D01*
X66494399Y-33200601D01*
X66577260Y-33255966D01*
X66675000Y-33275408D01*
X66687171Y-33272987D01*
X66687172Y-33272987D01*
X66687504Y-33272921D01*
X66712085Y-33270500D01*
X75610354Y-33270500D01*
X75678475Y-33290502D01*
X75724968Y-33344158D01*
X75735747Y-33408849D01*
X75735706Y-33409261D01*
X75734500Y-33415326D01*
X75734500Y-35164674D01*
X75749034Y-35237740D01*
X75804399Y-35320601D01*
X75887260Y-35375966D01*
X75960326Y-35390500D01*
X77709674Y-35390500D01*
X77782740Y-35375966D01*
X77865601Y-35320601D01*
X77920966Y-35237740D01*
X77935500Y-35164674D01*
X77935500Y-33415326D01*
X77934294Y-33409261D01*
X77934253Y-33408849D01*
X77947482Y-33339096D01*
X77996323Y-33287568D01*
X78059646Y-33270500D01*
X78150354Y-33270500D01*
X78218475Y-33290502D01*
X78264968Y-33344158D01*
X78275747Y-33408849D01*
X78275706Y-33409261D01*
X78274500Y-33415326D01*
X78274500Y-35164674D01*
X78289034Y-35237740D01*
X78344399Y-35320601D01*
X78427260Y-35375966D01*
X78500326Y-35390500D01*
X80249674Y-35390500D01*
X80322740Y-35375966D01*
X80405601Y-35320601D01*
X80460966Y-35237740D01*
X80475500Y-35164674D01*
X80475500Y-33415326D01*
X80474294Y-33409261D01*
X80474253Y-33408849D01*
X80487482Y-33339096D01*
X80536323Y-33287568D01*
X80599646Y-33270500D01*
X80690354Y-33270500D01*
X80758475Y-33290502D01*
X80804968Y-33344158D01*
X80815747Y-33408849D01*
X80815706Y-33409261D01*
X80814500Y-33415326D01*
X80814500Y-35164674D01*
X80829034Y-35237740D01*
X80884399Y-35320601D01*
X80967260Y-35375966D01*
X81040326Y-35390500D01*
X82789674Y-35390500D01*
X82862740Y-35375966D01*
X82945601Y-35320601D01*
X83000966Y-35237740D01*
X83015500Y-35164674D01*
X83015500Y-33415326D01*
X83014294Y-33409261D01*
X83014253Y-33408849D01*
X83027482Y-33339096D01*
X83076323Y-33287568D01*
X83139646Y-33270500D01*
X83230354Y-33270500D01*
X83298475Y-33290502D01*
X83344968Y-33344158D01*
X83355747Y-33408849D01*
X83355706Y-33409261D01*
X83354500Y-33415326D01*
X83354500Y-35164674D01*
X83369034Y-35237740D01*
X83424399Y-35320601D01*
X83507260Y-35375966D01*
X83580326Y-35390500D01*
X85329674Y-35390500D01*
X85402740Y-35375966D01*
X85485601Y-35320601D01*
X85540966Y-35237740D01*
X85555500Y-35164674D01*
X85555500Y-33415326D01*
X85554294Y-33409261D01*
X85554253Y-33408849D01*
X85567482Y-33339096D01*
X85616323Y-33287568D01*
X85679646Y-33270500D01*
X85770354Y-33270500D01*
X85838475Y-33290502D01*
X85884968Y-33344158D01*
X85895747Y-33408849D01*
X85895706Y-33409261D01*
X85894500Y-33415326D01*
X85894500Y-35164674D01*
X85909034Y-35237740D01*
X85964399Y-35320601D01*
X86047260Y-35375966D01*
X86120326Y-35390500D01*
X87869674Y-35390500D01*
X87942740Y-35375966D01*
X88025601Y-35320601D01*
X88080966Y-35237740D01*
X88095500Y-35164674D01*
X88095500Y-33415326D01*
X88094294Y-33409261D01*
X88094253Y-33408849D01*
X88107482Y-33339096D01*
X88156323Y-33287568D01*
X88219646Y-33270500D01*
X92037915Y-33270500D01*
X92062496Y-33272921D01*
X92062828Y-33272987D01*
X92062829Y-33272987D01*
X92075000Y-33275408D01*
X92172740Y-33255966D01*
X92255601Y-33200601D01*
X92310966Y-33117740D01*
X92325500Y-33044674D01*
X92330408Y-33020000D01*
X92327921Y-33007496D01*
X92325500Y-32982915D01*
X92325500Y-32624674D01*
X101134500Y-32624674D01*
X101149034Y-32697740D01*
X101204399Y-32780601D01*
X101287260Y-32835966D01*
X101360326Y-32850500D01*
X103109674Y-32850500D01*
X103182740Y-32835966D01*
X103265601Y-32780601D01*
X103320966Y-32697740D01*
X103335500Y-32624674D01*
X103335500Y-31721069D01*
X103670164Y-31721069D01*
X103683392Y-31922894D01*
X103733178Y-32118928D01*
X103817856Y-32302607D01*
X103934588Y-32467780D01*
X104079466Y-32608913D01*
X104247637Y-32721282D01*
X104252940Y-32723560D01*
X104252943Y-32723562D01*
X104428163Y-32798842D01*
X104433470Y-32801122D01*
X104630740Y-32845760D01*
X104636509Y-32845987D01*
X104636512Y-32845987D01*
X104712683Y-32848979D01*
X104832842Y-32853700D01*
X104919132Y-32841189D01*
X105027286Y-32825508D01*
X105027291Y-32825507D01*
X105033007Y-32824678D01*
X105038479Y-32822820D01*
X105038481Y-32822820D01*
X105219067Y-32761519D01*
X105219069Y-32761518D01*
X105224531Y-32759664D01*
X105401001Y-32660837D01*
X105463433Y-32608913D01*
X105552073Y-32535191D01*
X105556505Y-32531505D01*
X105685837Y-32376001D01*
X105784664Y-32199531D01*
X105849678Y-32008007D01*
X105850507Y-32002291D01*
X105850508Y-32002286D01*
X105878167Y-31811516D01*
X105878700Y-31807842D01*
X105880215Y-31750000D01*
X105861708Y-31548591D01*
X105806807Y-31353926D01*
X105717351Y-31172527D01*
X105699079Y-31148057D01*
X105599788Y-31015091D01*
X105599787Y-31015090D01*
X105596335Y-31010467D01*
X105573350Y-30989220D01*
X105452053Y-30877094D01*
X105452051Y-30877092D01*
X105447812Y-30873174D01*
X105420374Y-30855862D01*
X105281637Y-30768325D01*
X105276757Y-30765246D01*
X105088898Y-30690298D01*
X104890526Y-30650839D01*
X104884752Y-30650763D01*
X104884748Y-30650763D01*
X104782257Y-30649422D01*
X104688286Y-30648192D01*
X104682589Y-30649171D01*
X104682588Y-30649171D01*
X104494646Y-30681465D01*
X104494645Y-30681465D01*
X104488949Y-30682444D01*
X104299193Y-30752449D01*
X104125371Y-30855862D01*
X103973305Y-30989220D01*
X103848089Y-31148057D01*
X103753914Y-31327053D01*
X103693937Y-31520213D01*
X103670164Y-31721069D01*
X103335500Y-31721069D01*
X103335500Y-30875326D01*
X103320966Y-30802260D01*
X103265601Y-30719399D01*
X103182740Y-30664034D01*
X103109674Y-30649500D01*
X101360326Y-30649500D01*
X101287260Y-30664034D01*
X101204399Y-30719399D01*
X101149034Y-30802260D01*
X101134500Y-30875326D01*
X101134500Y-32624674D01*
X92325500Y-32624674D01*
X92325500Y-24506500D01*
X92345502Y-24438379D01*
X92399158Y-24391886D01*
X92451500Y-24380500D01*
X111383500Y-24380500D01*
X111451621Y-24400502D01*
X111498114Y-24454158D01*
X111509500Y-24506500D01*
X111509500Y-32982915D01*
X111507079Y-33007496D01*
X111504592Y-33020000D01*
X111509500Y-33044674D01*
X111524034Y-33117740D01*
X111579399Y-33200601D01*
X111662260Y-33255966D01*
X111760000Y-33275408D01*
X111772171Y-33272987D01*
X111772172Y-33272987D01*
X111772504Y-33272921D01*
X111797085Y-33270500D01*
X126623500Y-33270500D01*
X126691621Y-33290502D01*
X126738114Y-33344158D01*
X126749500Y-33396500D01*
X126749500Y-87888500D01*
X126729498Y-87956621D01*
X126675842Y-88003114D01*
X126623500Y-88014500D01*
X111797085Y-88014500D01*
X111772504Y-88012079D01*
X111772172Y-88012013D01*
X111772171Y-88012013D01*
X111760000Y-88009592D01*
X111735326Y-88014500D01*
X111662260Y-88029034D01*
X111579399Y-88084399D01*
X111524034Y-88167260D01*
X111504592Y-88265000D01*
X111507013Y-88277171D01*
X111507013Y-88277172D01*
X111507079Y-88277504D01*
X111509500Y-88302085D01*
X111509500Y-89158500D01*
X111489498Y-89226621D01*
X111435842Y-89273114D01*
X111383500Y-89284500D01*
X92451500Y-89284500D01*
X92383379Y-89264498D01*
X92336886Y-89210842D01*
X92325500Y-89158500D01*
X92325500Y-88302085D01*
X92327921Y-88277504D01*
X92327987Y-88277172D01*
X92327987Y-88277171D01*
X92330408Y-88265000D01*
X92310966Y-88167260D01*
X92255601Y-88084399D01*
X92172740Y-88029034D01*
X92099674Y-88014500D01*
X92075000Y-88009592D01*
X92062829Y-88012013D01*
X92062828Y-88012013D01*
X92062496Y-88012079D01*
X92037915Y-88014500D01*
X88219646Y-88014500D01*
X88151525Y-87994498D01*
X88105032Y-87940842D01*
X88094253Y-87876151D01*
X88094294Y-87875739D01*
X88095500Y-87869674D01*
X88095500Y-86120326D01*
X88080966Y-86047260D01*
X88025601Y-85964399D01*
X87942740Y-85909034D01*
X87869674Y-85894500D01*
X86120326Y-85894500D01*
X86047260Y-85909034D01*
X85964399Y-85964399D01*
X85909034Y-86047260D01*
X85894500Y-86120326D01*
X85894500Y-87869674D01*
X85895706Y-87875739D01*
X85895747Y-87876151D01*
X85882518Y-87945904D01*
X85833677Y-87997432D01*
X85770354Y-88014500D01*
X85679646Y-88014500D01*
X85611525Y-87994498D01*
X85565032Y-87940842D01*
X85554253Y-87876151D01*
X85554294Y-87875739D01*
X85555500Y-87869674D01*
X85555500Y-86120326D01*
X85540966Y-86047260D01*
X85485601Y-85964399D01*
X85402740Y-85909034D01*
X85329674Y-85894500D01*
X83580326Y-85894500D01*
X83507260Y-85909034D01*
X83424399Y-85964399D01*
X83369034Y-86047260D01*
X83354500Y-86120326D01*
X83354500Y-87869674D01*
X83355706Y-87875739D01*
X83355747Y-87876151D01*
X83342518Y-87945904D01*
X83293677Y-87997432D01*
X83230354Y-88014500D01*
X83139646Y-88014500D01*
X83071525Y-87994498D01*
X83025032Y-87940842D01*
X83014253Y-87876151D01*
X83014294Y-87875739D01*
X83015500Y-87869674D01*
X83015500Y-86120326D01*
X83000966Y-86047260D01*
X82945601Y-85964399D01*
X82862740Y-85909034D01*
X82789674Y-85894500D01*
X81040326Y-85894500D01*
X80967260Y-85909034D01*
X80884399Y-85964399D01*
X80829034Y-86047260D01*
X80814500Y-86120326D01*
X80814500Y-87869674D01*
X80815706Y-87875739D01*
X80815747Y-87876151D01*
X80802518Y-87945904D01*
X80753677Y-87997432D01*
X80690354Y-88014500D01*
X80599646Y-88014500D01*
X80531525Y-87994498D01*
X80485032Y-87940842D01*
X80474253Y-87876151D01*
X80474294Y-87875739D01*
X80475500Y-87869674D01*
X80475500Y-86120326D01*
X80460966Y-86047260D01*
X80405601Y-85964399D01*
X80322740Y-85909034D01*
X80249674Y-85894500D01*
X78500326Y-85894500D01*
X78427260Y-85909034D01*
X78344399Y-85964399D01*
X78289034Y-86047260D01*
X78274500Y-86120326D01*
X78274500Y-87869674D01*
X78275706Y-87875739D01*
X78275747Y-87876151D01*
X78262518Y-87945904D01*
X78213677Y-87997432D01*
X78150354Y-88014500D01*
X78059646Y-88014500D01*
X77991525Y-87994498D01*
X77945032Y-87940842D01*
X77934253Y-87876151D01*
X77934294Y-87875739D01*
X77935500Y-87869674D01*
X77935500Y-86120326D01*
X77920966Y-86047260D01*
X77865601Y-85964399D01*
X77782740Y-85909034D01*
X77709674Y-85894500D01*
X75960326Y-85894500D01*
X75887260Y-85909034D01*
X75804399Y-85964399D01*
X75749034Y-86047260D01*
X75734500Y-86120326D01*
X75734500Y-87869674D01*
X75735706Y-87875739D01*
X75735747Y-87876151D01*
X75722518Y-87945904D01*
X75673677Y-87997432D01*
X75610354Y-88014500D01*
X66712085Y-88014500D01*
X66687504Y-88012079D01*
X66687172Y-88012013D01*
X66687171Y-88012013D01*
X66675000Y-88009592D01*
X66650326Y-88014500D01*
X66577260Y-88029034D01*
X66494399Y-88084399D01*
X66439034Y-88167260D01*
X66419592Y-88265000D01*
X66422013Y-88277171D01*
X66422013Y-88277172D01*
X66422079Y-88277504D01*
X66424500Y-88302085D01*
X66424500Y-89158500D01*
X66404498Y-89226621D01*
X66350842Y-89273114D01*
X66298500Y-89284500D01*
X51176500Y-89284500D01*
X51108379Y-89264498D01*
X51061886Y-89210842D01*
X51050500Y-89158500D01*
X51050500Y-88302085D01*
X51052921Y-88277504D01*
X51052987Y-88277172D01*
X51052987Y-88277171D01*
X51055408Y-88265000D01*
X51035966Y-88167260D01*
X50980601Y-88084399D01*
X50897740Y-88029034D01*
X50824674Y-88014500D01*
X50800000Y-88009592D01*
X50787829Y-88012013D01*
X50787828Y-88012013D01*
X50787496Y-88012079D01*
X50762915Y-88014500D01*
X46944646Y-88014500D01*
X46876525Y-87994498D01*
X46830032Y-87940842D01*
X46819253Y-87876151D01*
X46819294Y-87875739D01*
X46820500Y-87869674D01*
X46820500Y-86120326D01*
X46805966Y-86047260D01*
X46750601Y-85964399D01*
X46667740Y-85909034D01*
X46594674Y-85894500D01*
X46474116Y-85894500D01*
X46405995Y-85874498D01*
X46359502Y-85820842D01*
X46349398Y-85750568D01*
X46378892Y-85685988D01*
X46385021Y-85679405D01*
X46398662Y-85665764D01*
X46460974Y-85631738D01*
X46471311Y-85629937D01*
X46498709Y-85626330D01*
X46632625Y-85570861D01*
X46747621Y-85482621D01*
X46835861Y-85367625D01*
X46891330Y-85233709D01*
X46910250Y-85090000D01*
X46891330Y-84946291D01*
X46835861Y-84812375D01*
X46747621Y-84697379D01*
X46632625Y-84609139D01*
X46498709Y-84553670D01*
X46355000Y-84534750D01*
X46211291Y-84553670D01*
X46077375Y-84609139D01*
X45962379Y-84697379D01*
X45874139Y-84812375D01*
X45818670Y-84946291D01*
X45817592Y-84954480D01*
X45817592Y-84954481D01*
X45815063Y-84973689D01*
X45786341Y-85038617D01*
X45779236Y-85046339D01*
X45433954Y-85391621D01*
X45422865Y-85401475D01*
X45397106Y-85421782D01*
X45364681Y-85468697D01*
X45362413Y-85471870D01*
X45328539Y-85517731D01*
X45326213Y-85524354D01*
X45322221Y-85530130D01*
X45305009Y-85584556D01*
X45303791Y-85588203D01*
X45284899Y-85642000D01*
X45284623Y-85649013D01*
X45282506Y-85655708D01*
X45282000Y-85662138D01*
X45282000Y-85713304D01*
X45281903Y-85718252D01*
X45279734Y-85773448D01*
X45257072Y-85840730D01*
X45201633Y-85885081D01*
X45153831Y-85894500D01*
X44845326Y-85894500D01*
X44772260Y-85909034D01*
X44689399Y-85964399D01*
X44634034Y-86047260D01*
X44619500Y-86120326D01*
X44619500Y-87869674D01*
X44620706Y-87875739D01*
X44620747Y-87876151D01*
X44607518Y-87945904D01*
X44558677Y-87997432D01*
X44495354Y-88014500D01*
X44404646Y-88014500D01*
X44336525Y-87994498D01*
X44290032Y-87940842D01*
X44279253Y-87876151D01*
X44279294Y-87875739D01*
X44280500Y-87869674D01*
X44280500Y-86120326D01*
X44265966Y-86047260D01*
X44210601Y-85964399D01*
X44127740Y-85909034D01*
X44054674Y-85894500D01*
X43934116Y-85894500D01*
X43865995Y-85874498D01*
X43819502Y-85820842D01*
X43809398Y-85750568D01*
X43838892Y-85685988D01*
X43845021Y-85679405D01*
X43858662Y-85665764D01*
X43920974Y-85631738D01*
X43931311Y-85629937D01*
X43958709Y-85626330D01*
X44092625Y-85570861D01*
X44207621Y-85482621D01*
X44295861Y-85367625D01*
X44351330Y-85233709D01*
X44370250Y-85090000D01*
X44351330Y-84946291D01*
X44295861Y-84812375D01*
X44207621Y-84697379D01*
X44092625Y-84609139D01*
X43958709Y-84553670D01*
X43815000Y-84534750D01*
X43671291Y-84553670D01*
X43537375Y-84609139D01*
X43422379Y-84697379D01*
X43334139Y-84812375D01*
X43278670Y-84946291D01*
X43277592Y-84954480D01*
X43277592Y-84954481D01*
X43275063Y-84973689D01*
X43246341Y-85038617D01*
X43239236Y-85046339D01*
X42893954Y-85391621D01*
X42882865Y-85401475D01*
X42857106Y-85421782D01*
X42824681Y-85468697D01*
X42822413Y-85471870D01*
X42788539Y-85517731D01*
X42786213Y-85524354D01*
X42782221Y-85530130D01*
X42765009Y-85584556D01*
X42763791Y-85588203D01*
X42744899Y-85642000D01*
X42744623Y-85649013D01*
X42742506Y-85655708D01*
X42742000Y-85662138D01*
X42742000Y-85713304D01*
X42741903Y-85718252D01*
X42739734Y-85773448D01*
X42717072Y-85840730D01*
X42661633Y-85885081D01*
X42613831Y-85894500D01*
X42305326Y-85894500D01*
X42232260Y-85909034D01*
X42149399Y-85964399D01*
X42094034Y-86047260D01*
X42079500Y-86120326D01*
X42079500Y-87869674D01*
X42080706Y-87875739D01*
X42080747Y-87876151D01*
X42067518Y-87945904D01*
X42018677Y-87997432D01*
X41955354Y-88014500D01*
X33396500Y-88014500D01*
X33328379Y-87994498D01*
X33281886Y-87940842D01*
X33270500Y-87888500D01*
X33270500Y-80658913D01*
X34482272Y-80658913D01*
X34483964Y-80668177D01*
X34483964Y-80668181D01*
X34492507Y-80714961D01*
X34493157Y-80718862D01*
X34501634Y-80775244D01*
X34504673Y-80781572D01*
X34505934Y-80788478D01*
X34510277Y-80796838D01*
X34510277Y-80796839D01*
X34532214Y-80839069D01*
X34533983Y-80842610D01*
X34553823Y-80883926D01*
X34558647Y-80893973D01*
X34563411Y-80899127D01*
X34566648Y-80905358D01*
X34570837Y-80910263D01*
X34607023Y-80946449D01*
X34610452Y-80950015D01*
X34648051Y-80990689D01*
X34654266Y-80994299D01*
X34660085Y-80999510D01*
X35226624Y-81566050D01*
X35236475Y-81577136D01*
X35256782Y-81602894D01*
X35264527Y-81608247D01*
X35264528Y-81608248D01*
X35303649Y-81635286D01*
X35306870Y-81637588D01*
X35345150Y-81665863D01*
X35345156Y-81665866D01*
X35352732Y-81671462D01*
X35359356Y-81673788D01*
X35365130Y-81677779D01*
X35409173Y-81691708D01*
X35419477Y-81694967D01*
X35423229Y-81696219D01*
X35459421Y-81708928D01*
X35477000Y-81715101D01*
X35484013Y-81715377D01*
X35490708Y-81717494D01*
X35497138Y-81718000D01*
X35548304Y-81718000D01*
X35553251Y-81718097D01*
X35608607Y-81720272D01*
X35615555Y-81718430D01*
X35623362Y-81718000D01*
X35739364Y-81718000D01*
X35807485Y-81738002D01*
X35853790Y-81791250D01*
X35872856Y-81832607D01*
X35989588Y-81997780D01*
X36134466Y-82138913D01*
X36302637Y-82251282D01*
X36307940Y-82253560D01*
X36307943Y-82253562D01*
X36442291Y-82311282D01*
X36488470Y-82331122D01*
X36685740Y-82375760D01*
X36691509Y-82375987D01*
X36691512Y-82375987D01*
X36767683Y-82378979D01*
X36887842Y-82383700D01*
X36974132Y-82371189D01*
X37082286Y-82355508D01*
X37082291Y-82355507D01*
X37088007Y-82354678D01*
X37093479Y-82352820D01*
X37093481Y-82352820D01*
X37274067Y-82291519D01*
X37274069Y-82291518D01*
X37279531Y-82289664D01*
X37456001Y-82190837D01*
X37518433Y-82138913D01*
X37607073Y-82065191D01*
X37611505Y-82061505D01*
X37740837Y-81906001D01*
X37839664Y-81729531D01*
X37843546Y-81718097D01*
X37902820Y-81543481D01*
X37902820Y-81543479D01*
X37904678Y-81538007D01*
X37905507Y-81532291D01*
X37905508Y-81532286D01*
X37933167Y-81341516D01*
X37933700Y-81337842D01*
X37935215Y-81280000D01*
X37932557Y-81251069D01*
X40805164Y-81251069D01*
X40818392Y-81452894D01*
X40819815Y-81458496D01*
X40857847Y-81608248D01*
X40868178Y-81648928D01*
X40952856Y-81832607D01*
X41069588Y-81997780D01*
X41214466Y-82138913D01*
X41382637Y-82251282D01*
X41387940Y-82253560D01*
X41387943Y-82253562D01*
X41522291Y-82311282D01*
X41568470Y-82331122D01*
X41765740Y-82375760D01*
X41771509Y-82375987D01*
X41771512Y-82375987D01*
X41847683Y-82378979D01*
X41967842Y-82383700D01*
X42054132Y-82371189D01*
X42162286Y-82355508D01*
X42162291Y-82355507D01*
X42168007Y-82354678D01*
X42173479Y-82352820D01*
X42173481Y-82352820D01*
X42354067Y-82291519D01*
X42354069Y-82291518D01*
X42359531Y-82289664D01*
X42536001Y-82190837D01*
X42598433Y-82138913D01*
X42687073Y-82065191D01*
X42691505Y-82061505D01*
X42820837Y-81906001D01*
X42919664Y-81729531D01*
X42923546Y-81718097D01*
X42982820Y-81543481D01*
X42982820Y-81543479D01*
X42984678Y-81538007D01*
X42985507Y-81532291D01*
X42985508Y-81532286D01*
X43013167Y-81341516D01*
X43013700Y-81337842D01*
X43015215Y-81280000D01*
X43012557Y-81251069D01*
X53505164Y-81251069D01*
X53518392Y-81452894D01*
X53519815Y-81458496D01*
X53557847Y-81608248D01*
X53568178Y-81648928D01*
X53652856Y-81832607D01*
X53769588Y-81997780D01*
X53914466Y-82138913D01*
X54082637Y-82251282D01*
X54087940Y-82253560D01*
X54087943Y-82253562D01*
X54222291Y-82311282D01*
X54268470Y-82331122D01*
X54465740Y-82375760D01*
X54471509Y-82375987D01*
X54471512Y-82375987D01*
X54547683Y-82378979D01*
X54667842Y-82383700D01*
X54754132Y-82371189D01*
X54862286Y-82355508D01*
X54862291Y-82355507D01*
X54868007Y-82354678D01*
X54873479Y-82352820D01*
X54873481Y-82352820D01*
X55054067Y-82291519D01*
X55054069Y-82291518D01*
X55059531Y-82289664D01*
X55236001Y-82190837D01*
X55298433Y-82138913D01*
X55387073Y-82065191D01*
X55391505Y-82061505D01*
X55520837Y-81906001D01*
X55619664Y-81729531D01*
X55623546Y-81718097D01*
X55682820Y-81543481D01*
X55682820Y-81543479D01*
X55684678Y-81538007D01*
X55685507Y-81532291D01*
X55685508Y-81532286D01*
X55713167Y-81341516D01*
X55713700Y-81337842D01*
X55715215Y-81280000D01*
X55712557Y-81251069D01*
X56045164Y-81251069D01*
X56058392Y-81452894D01*
X56059815Y-81458496D01*
X56097847Y-81608248D01*
X56108178Y-81648928D01*
X56192856Y-81832607D01*
X56309588Y-81997780D01*
X56454466Y-82138913D01*
X56622637Y-82251282D01*
X56627940Y-82253560D01*
X56627943Y-82253562D01*
X56762291Y-82311282D01*
X56808470Y-82331122D01*
X57005740Y-82375760D01*
X57011509Y-82375987D01*
X57011512Y-82375987D01*
X57087683Y-82378979D01*
X57207842Y-82383700D01*
X57294132Y-82371189D01*
X57402286Y-82355508D01*
X57402291Y-82355507D01*
X57408007Y-82354678D01*
X57413479Y-82352820D01*
X57413481Y-82352820D01*
X57594067Y-82291519D01*
X57594069Y-82291518D01*
X57599531Y-82289664D01*
X57776001Y-82190837D01*
X57838433Y-82138913D01*
X57927073Y-82065191D01*
X57931505Y-82061505D01*
X58060837Y-81906001D01*
X58159664Y-81729531D01*
X58163546Y-81718097D01*
X58222820Y-81543481D01*
X58222820Y-81543479D01*
X58224678Y-81538007D01*
X58225507Y-81532291D01*
X58225508Y-81532286D01*
X58253167Y-81341516D01*
X58253700Y-81337842D01*
X58255215Y-81280000D01*
X58252557Y-81251069D01*
X58585164Y-81251069D01*
X58598392Y-81452894D01*
X58599815Y-81458496D01*
X58637847Y-81608248D01*
X58648178Y-81648928D01*
X58732856Y-81832607D01*
X58849588Y-81997780D01*
X58994466Y-82138913D01*
X59162637Y-82251282D01*
X59167940Y-82253560D01*
X59167943Y-82253562D01*
X59302291Y-82311282D01*
X59348470Y-82331122D01*
X59545740Y-82375760D01*
X59551509Y-82375987D01*
X59551512Y-82375987D01*
X59627683Y-82378979D01*
X59747842Y-82383700D01*
X59834132Y-82371189D01*
X59942286Y-82355508D01*
X59942291Y-82355507D01*
X59948007Y-82354678D01*
X59953479Y-82352820D01*
X59953481Y-82352820D01*
X60134067Y-82291519D01*
X60134069Y-82291518D01*
X60139531Y-82289664D01*
X60316001Y-82190837D01*
X60378433Y-82138913D01*
X60467073Y-82065191D01*
X60471505Y-82061505D01*
X60600837Y-81906001D01*
X60699664Y-81729531D01*
X60703546Y-81718097D01*
X60762820Y-81543481D01*
X60762820Y-81543479D01*
X60764678Y-81538007D01*
X60765507Y-81532291D01*
X60765508Y-81532286D01*
X60793167Y-81341516D01*
X60793700Y-81337842D01*
X60795215Y-81280000D01*
X60792557Y-81251069D01*
X63665164Y-81251069D01*
X63678392Y-81452894D01*
X63679815Y-81458496D01*
X63717847Y-81608248D01*
X63728178Y-81648928D01*
X63812856Y-81832607D01*
X63929588Y-81997780D01*
X64074466Y-82138913D01*
X64242637Y-82251282D01*
X64247940Y-82253560D01*
X64247943Y-82253562D01*
X64382291Y-82311282D01*
X64428470Y-82331122D01*
X64625740Y-82375760D01*
X64631509Y-82375987D01*
X64631512Y-82375987D01*
X64707683Y-82378979D01*
X64827842Y-82383700D01*
X64914132Y-82371189D01*
X65022286Y-82355508D01*
X65022291Y-82355507D01*
X65028007Y-82354678D01*
X65033479Y-82352820D01*
X65033481Y-82352820D01*
X65214067Y-82291519D01*
X65214069Y-82291518D01*
X65219531Y-82289664D01*
X65396001Y-82190837D01*
X65458433Y-82138913D01*
X65547073Y-82065191D01*
X65551505Y-82061505D01*
X65680837Y-81906001D01*
X65779664Y-81729531D01*
X65783546Y-81718097D01*
X65842820Y-81543481D01*
X65842820Y-81543479D01*
X65844678Y-81538007D01*
X65845507Y-81532291D01*
X65845508Y-81532286D01*
X65873167Y-81341516D01*
X65873700Y-81337842D01*
X65875215Y-81280000D01*
X65872557Y-81251069D01*
X66205164Y-81251069D01*
X66218392Y-81452894D01*
X66219815Y-81458496D01*
X66257847Y-81608248D01*
X66268178Y-81648928D01*
X66352856Y-81832607D01*
X66469588Y-81997780D01*
X66614466Y-82138913D01*
X66782637Y-82251282D01*
X66787940Y-82253560D01*
X66787943Y-82253562D01*
X66922291Y-82311282D01*
X66968470Y-82331122D01*
X67165740Y-82375760D01*
X67171509Y-82375987D01*
X67171512Y-82375987D01*
X67247683Y-82378979D01*
X67367842Y-82383700D01*
X67454132Y-82371189D01*
X67562286Y-82355508D01*
X67562291Y-82355507D01*
X67568007Y-82354678D01*
X67573479Y-82352820D01*
X67573481Y-82352820D01*
X67754067Y-82291519D01*
X67754069Y-82291518D01*
X67759531Y-82289664D01*
X67936001Y-82190837D01*
X67998433Y-82138913D01*
X68087073Y-82065191D01*
X68091505Y-82061505D01*
X68220837Y-81906001D01*
X68319664Y-81729531D01*
X68323546Y-81718097D01*
X68382820Y-81543481D01*
X68382820Y-81543479D01*
X68384678Y-81538007D01*
X68385507Y-81532291D01*
X68385508Y-81532286D01*
X68413167Y-81341516D01*
X68413700Y-81337842D01*
X68415215Y-81280000D01*
X68412557Y-81251069D01*
X73825164Y-81251069D01*
X73838392Y-81452894D01*
X73839815Y-81458496D01*
X73877847Y-81608248D01*
X73888178Y-81648928D01*
X73972856Y-81832607D01*
X74089588Y-81997780D01*
X74234466Y-82138913D01*
X74402637Y-82251282D01*
X74407940Y-82253560D01*
X74407943Y-82253562D01*
X74542291Y-82311282D01*
X74588470Y-82331122D01*
X74785740Y-82375760D01*
X74791509Y-82375987D01*
X74791512Y-82375987D01*
X74867683Y-82378979D01*
X74987842Y-82383700D01*
X75074132Y-82371189D01*
X75182286Y-82355508D01*
X75182291Y-82355507D01*
X75188007Y-82354678D01*
X75193479Y-82352820D01*
X75193481Y-82352820D01*
X75374067Y-82291519D01*
X75374069Y-82291518D01*
X75379531Y-82289664D01*
X75556001Y-82190837D01*
X75618433Y-82138913D01*
X75707073Y-82065191D01*
X75711505Y-82061505D01*
X75840837Y-81906001D01*
X75939664Y-81729531D01*
X75943546Y-81718097D01*
X76002820Y-81543481D01*
X76002820Y-81543479D01*
X76004678Y-81538007D01*
X76005507Y-81532291D01*
X76005508Y-81532286D01*
X76033167Y-81341516D01*
X76033700Y-81337842D01*
X76034401Y-81311069D01*
X83350164Y-81311069D01*
X83363392Y-81512894D01*
X83379708Y-81577137D01*
X83405340Y-81678064D01*
X83413178Y-81708928D01*
X83497856Y-81892607D01*
X83614588Y-82057780D01*
X83759466Y-82198913D01*
X83927637Y-82311282D01*
X83932940Y-82313560D01*
X83932943Y-82313562D01*
X84028644Y-82354678D01*
X84113470Y-82391122D01*
X84310740Y-82435760D01*
X84316509Y-82435987D01*
X84316512Y-82435987D01*
X84392683Y-82438979D01*
X84512842Y-82443700D01*
X84599132Y-82431189D01*
X84707286Y-82415508D01*
X84707291Y-82415507D01*
X84713007Y-82414678D01*
X84718479Y-82412820D01*
X84718481Y-82412820D01*
X84899067Y-82351519D01*
X84899069Y-82351518D01*
X84904531Y-82349664D01*
X85081001Y-82250837D01*
X85143433Y-82198913D01*
X85232073Y-82125191D01*
X85236505Y-82121505D01*
X85365837Y-81966001D01*
X85464664Y-81789531D01*
X85485032Y-81729531D01*
X85527820Y-81603481D01*
X85527820Y-81603479D01*
X85529678Y-81598007D01*
X85530507Y-81592291D01*
X85530508Y-81592286D01*
X85558167Y-81401516D01*
X85558700Y-81397842D01*
X85560215Y-81340000D01*
X85557557Y-81311069D01*
X88430164Y-81311069D01*
X88443392Y-81512894D01*
X88459708Y-81577137D01*
X88485340Y-81678064D01*
X88493178Y-81708928D01*
X88577856Y-81892607D01*
X88694588Y-82057780D01*
X88839466Y-82198913D01*
X89007637Y-82311282D01*
X89012940Y-82313560D01*
X89012943Y-82313562D01*
X89108644Y-82354678D01*
X89193470Y-82391122D01*
X89390740Y-82435760D01*
X89396509Y-82435987D01*
X89396512Y-82435987D01*
X89472683Y-82438979D01*
X89592842Y-82443700D01*
X89679132Y-82431189D01*
X89787286Y-82415508D01*
X89787291Y-82415507D01*
X89793007Y-82414678D01*
X89798479Y-82412820D01*
X89798481Y-82412820D01*
X89979067Y-82351519D01*
X89979069Y-82351518D01*
X89984531Y-82349664D01*
X90161001Y-82250837D01*
X90223433Y-82198913D01*
X90312073Y-82125191D01*
X90316505Y-82121505D01*
X90445837Y-81966001D01*
X90544664Y-81789531D01*
X90565032Y-81729531D01*
X90607820Y-81603481D01*
X90607820Y-81603479D01*
X90609678Y-81598007D01*
X90610507Y-81592291D01*
X90610508Y-81592286D01*
X90638167Y-81401516D01*
X90638700Y-81397842D01*
X90640215Y-81340000D01*
X90632043Y-81251069D01*
X101130164Y-81251069D01*
X101143392Y-81452894D01*
X101144815Y-81458496D01*
X101182847Y-81608248D01*
X101193178Y-81648928D01*
X101277856Y-81832607D01*
X101394588Y-81997780D01*
X101539466Y-82138913D01*
X101707637Y-82251282D01*
X101712940Y-82253560D01*
X101712943Y-82253562D01*
X101847291Y-82311282D01*
X101893470Y-82331122D01*
X102090740Y-82375760D01*
X102096509Y-82375987D01*
X102096512Y-82375987D01*
X102172683Y-82378979D01*
X102292842Y-82383700D01*
X102379132Y-82371189D01*
X102487286Y-82355508D01*
X102487291Y-82355507D01*
X102493007Y-82354678D01*
X102498479Y-82352820D01*
X102498481Y-82352820D01*
X102679067Y-82291519D01*
X102679069Y-82291518D01*
X102684531Y-82289664D01*
X102861001Y-82190837D01*
X102923433Y-82138913D01*
X103012073Y-82065191D01*
X103016505Y-82061505D01*
X103145837Y-81906001D01*
X103244664Y-81729531D01*
X103248546Y-81718097D01*
X103307820Y-81543481D01*
X103307820Y-81543479D01*
X103309678Y-81538007D01*
X103310507Y-81532291D01*
X103310508Y-81532286D01*
X103338167Y-81341516D01*
X103338700Y-81337842D01*
X103340215Y-81280000D01*
X103337557Y-81251069D01*
X103670164Y-81251069D01*
X103683392Y-81452894D01*
X103684815Y-81458496D01*
X103722847Y-81608248D01*
X103733178Y-81648928D01*
X103817856Y-81832607D01*
X103934588Y-81997780D01*
X104079466Y-82138913D01*
X104247637Y-82251282D01*
X104252940Y-82253560D01*
X104252943Y-82253562D01*
X104387291Y-82311282D01*
X104433470Y-82331122D01*
X104630740Y-82375760D01*
X104636509Y-82375987D01*
X104636512Y-82375987D01*
X104712683Y-82378979D01*
X104832842Y-82383700D01*
X104919132Y-82371189D01*
X105027286Y-82355508D01*
X105027291Y-82355507D01*
X105033007Y-82354678D01*
X105038479Y-82352820D01*
X105038481Y-82352820D01*
X105219067Y-82291519D01*
X105219069Y-82291518D01*
X105224531Y-82289664D01*
X105401001Y-82190837D01*
X105463433Y-82138913D01*
X105552073Y-82065191D01*
X105556505Y-82061505D01*
X105685837Y-81906001D01*
X105784664Y-81729531D01*
X105788546Y-81718097D01*
X105847820Y-81543481D01*
X105847820Y-81543479D01*
X105849678Y-81538007D01*
X105850507Y-81532291D01*
X105850508Y-81532286D01*
X105878167Y-81341516D01*
X105878700Y-81337842D01*
X105880215Y-81280000D01*
X105877557Y-81251069D01*
X106210164Y-81251069D01*
X106223392Y-81452894D01*
X106224815Y-81458496D01*
X106262847Y-81608248D01*
X106273178Y-81648928D01*
X106357856Y-81832607D01*
X106474588Y-81997780D01*
X106619466Y-82138913D01*
X106787637Y-82251282D01*
X106792940Y-82253560D01*
X106792943Y-82253562D01*
X106927291Y-82311282D01*
X106973470Y-82331122D01*
X107170740Y-82375760D01*
X107176509Y-82375987D01*
X107176512Y-82375987D01*
X107252683Y-82378979D01*
X107372842Y-82383700D01*
X107459132Y-82371189D01*
X107567286Y-82355508D01*
X107567291Y-82355507D01*
X107573007Y-82354678D01*
X107578479Y-82352820D01*
X107578481Y-82352820D01*
X107759067Y-82291519D01*
X107759069Y-82291518D01*
X107764531Y-82289664D01*
X107941001Y-82190837D01*
X108003433Y-82138913D01*
X108092073Y-82065191D01*
X108096505Y-82061505D01*
X108225837Y-81906001D01*
X108324664Y-81729531D01*
X108328546Y-81718097D01*
X108387820Y-81543481D01*
X108387820Y-81543479D01*
X108389678Y-81538007D01*
X108390507Y-81532291D01*
X108390508Y-81532286D01*
X108418167Y-81341516D01*
X108418700Y-81337842D01*
X108420215Y-81280000D01*
X108417557Y-81251069D01*
X111285164Y-81251069D01*
X111298392Y-81452894D01*
X111299815Y-81458496D01*
X111337847Y-81608248D01*
X111348178Y-81648928D01*
X111432856Y-81832607D01*
X111549588Y-81997780D01*
X111694466Y-82138913D01*
X111862637Y-82251282D01*
X111867940Y-82253560D01*
X111867943Y-82253562D01*
X112002291Y-82311282D01*
X112048470Y-82331122D01*
X112245740Y-82375760D01*
X112251509Y-82375987D01*
X112251512Y-82375987D01*
X112327683Y-82378979D01*
X112447842Y-82383700D01*
X112534132Y-82371189D01*
X112642286Y-82355508D01*
X112642291Y-82355507D01*
X112648007Y-82354678D01*
X112653479Y-82352820D01*
X112653481Y-82352820D01*
X112834067Y-82291519D01*
X112834069Y-82291518D01*
X112839531Y-82289664D01*
X113016001Y-82190837D01*
X113078433Y-82138913D01*
X113167073Y-82065191D01*
X113171505Y-82061505D01*
X113300837Y-81906001D01*
X113399664Y-81729531D01*
X113403546Y-81718097D01*
X113462820Y-81543481D01*
X113462820Y-81543479D01*
X113464678Y-81538007D01*
X113465507Y-81532291D01*
X113465508Y-81532286D01*
X113493167Y-81341516D01*
X113493700Y-81337842D01*
X113495215Y-81280000D01*
X113492557Y-81251069D01*
X113825164Y-81251069D01*
X113838392Y-81452894D01*
X113839815Y-81458496D01*
X113877847Y-81608248D01*
X113888178Y-81648928D01*
X113972856Y-81832607D01*
X114089588Y-81997780D01*
X114234466Y-82138913D01*
X114402637Y-82251282D01*
X114407940Y-82253560D01*
X114407943Y-82253562D01*
X114542291Y-82311282D01*
X114588470Y-82331122D01*
X114785740Y-82375760D01*
X114791509Y-82375987D01*
X114791512Y-82375987D01*
X114867683Y-82378979D01*
X114987842Y-82383700D01*
X115074132Y-82371189D01*
X115182286Y-82355508D01*
X115182291Y-82355507D01*
X115188007Y-82354678D01*
X115193479Y-82352820D01*
X115193481Y-82352820D01*
X115374067Y-82291519D01*
X115374069Y-82291518D01*
X115379531Y-82289664D01*
X115556001Y-82190837D01*
X115618433Y-82138913D01*
X115707073Y-82065191D01*
X115711505Y-82061505D01*
X115840837Y-81906001D01*
X115939664Y-81729531D01*
X115943546Y-81718097D01*
X116002820Y-81543481D01*
X116002820Y-81543479D01*
X116004678Y-81538007D01*
X116005507Y-81532291D01*
X116005508Y-81532286D01*
X116033167Y-81341516D01*
X116033700Y-81337842D01*
X116035215Y-81280000D01*
X116032557Y-81251069D01*
X121445164Y-81251069D01*
X121458392Y-81452894D01*
X121459815Y-81458496D01*
X121497847Y-81608248D01*
X121508178Y-81648928D01*
X121592856Y-81832607D01*
X121709588Y-81997780D01*
X121854466Y-82138913D01*
X122022637Y-82251282D01*
X122027940Y-82253560D01*
X122027943Y-82253562D01*
X122162291Y-82311282D01*
X122208470Y-82331122D01*
X122405740Y-82375760D01*
X122411509Y-82375987D01*
X122411512Y-82375987D01*
X122487683Y-82378979D01*
X122607842Y-82383700D01*
X122694132Y-82371189D01*
X122802286Y-82355508D01*
X122802291Y-82355507D01*
X122808007Y-82354678D01*
X122813479Y-82352820D01*
X122813481Y-82352820D01*
X122994067Y-82291519D01*
X122994069Y-82291518D01*
X122999531Y-82289664D01*
X123176001Y-82190837D01*
X123238433Y-82138913D01*
X123327073Y-82065191D01*
X123331505Y-82061505D01*
X123460837Y-81906001D01*
X123559664Y-81729531D01*
X123563546Y-81718097D01*
X123622820Y-81543481D01*
X123622820Y-81543479D01*
X123624678Y-81538007D01*
X123625507Y-81532291D01*
X123625508Y-81532286D01*
X123653167Y-81341516D01*
X123653700Y-81337842D01*
X123655215Y-81280000D01*
X123636708Y-81078591D01*
X123613173Y-80995140D01*
X123584916Y-80894951D01*
X123581807Y-80883926D01*
X123492351Y-80702527D01*
X123474079Y-80678057D01*
X123374788Y-80545091D01*
X123374787Y-80545090D01*
X123371335Y-80540467D01*
X123348350Y-80519220D01*
X123227053Y-80407094D01*
X123227051Y-80407092D01*
X123222812Y-80403174D01*
X123195374Y-80385862D01*
X123056637Y-80298325D01*
X123051757Y-80295246D01*
X122863898Y-80220298D01*
X122665526Y-80180839D01*
X122659752Y-80180763D01*
X122659748Y-80180763D01*
X122557257Y-80179422D01*
X122463286Y-80178192D01*
X122457589Y-80179171D01*
X122457588Y-80179171D01*
X122269646Y-80211465D01*
X122269645Y-80211465D01*
X122263949Y-80212444D01*
X122074193Y-80282449D01*
X122069232Y-80285401D01*
X122069231Y-80285401D01*
X121946657Y-80358325D01*
X121900371Y-80385862D01*
X121748305Y-80519220D01*
X121623089Y-80678057D01*
X121528914Y-80857053D01*
X121468937Y-81050213D01*
X121445164Y-81251069D01*
X116032557Y-81251069D01*
X116016708Y-81078591D01*
X115993173Y-80995140D01*
X115964916Y-80894951D01*
X115961807Y-80883926D01*
X115872351Y-80702527D01*
X115854079Y-80678057D01*
X115754788Y-80545091D01*
X115754787Y-80545090D01*
X115751335Y-80540467D01*
X115728350Y-80519220D01*
X115607053Y-80407094D01*
X115607051Y-80407092D01*
X115602812Y-80403174D01*
X115575374Y-80385862D01*
X115436637Y-80298325D01*
X115431757Y-80295246D01*
X115243898Y-80220298D01*
X115045526Y-80180839D01*
X115039752Y-80180763D01*
X115039748Y-80180763D01*
X114937257Y-80179422D01*
X114843286Y-80178192D01*
X114837589Y-80179171D01*
X114837588Y-80179171D01*
X114649646Y-80211465D01*
X114649645Y-80211465D01*
X114643949Y-80212444D01*
X114454193Y-80282449D01*
X114449232Y-80285401D01*
X114449231Y-80285401D01*
X114326657Y-80358325D01*
X114280371Y-80385862D01*
X114128305Y-80519220D01*
X114003089Y-80678057D01*
X113908914Y-80857053D01*
X113848937Y-81050213D01*
X113825164Y-81251069D01*
X113492557Y-81251069D01*
X113476708Y-81078591D01*
X113453173Y-80995140D01*
X113424916Y-80894951D01*
X113421807Y-80883926D01*
X113332351Y-80702527D01*
X113314079Y-80678057D01*
X113214788Y-80545091D01*
X113214787Y-80545090D01*
X113211335Y-80540467D01*
X113188350Y-80519220D01*
X113067053Y-80407094D01*
X113067051Y-80407092D01*
X113062812Y-80403174D01*
X113035374Y-80385862D01*
X112896637Y-80298325D01*
X112891757Y-80295246D01*
X112703898Y-80220298D01*
X112505526Y-80180839D01*
X112499752Y-80180763D01*
X112499748Y-80180763D01*
X112397257Y-80179422D01*
X112303286Y-80178192D01*
X112297589Y-80179171D01*
X112297588Y-80179171D01*
X112109646Y-80211465D01*
X112109645Y-80211465D01*
X112103949Y-80212444D01*
X111914193Y-80282449D01*
X111909232Y-80285401D01*
X111909231Y-80285401D01*
X111786657Y-80358325D01*
X111740371Y-80385862D01*
X111588305Y-80519220D01*
X111463089Y-80678057D01*
X111368914Y-80857053D01*
X111308937Y-81050213D01*
X111285164Y-81251069D01*
X108417557Y-81251069D01*
X108401708Y-81078591D01*
X108378173Y-80995140D01*
X108349916Y-80894951D01*
X108346807Y-80883926D01*
X108257351Y-80702527D01*
X108239079Y-80678057D01*
X108139788Y-80545091D01*
X108139787Y-80545090D01*
X108136335Y-80540467D01*
X108113350Y-80519220D01*
X107992053Y-80407094D01*
X107992051Y-80407092D01*
X107987812Y-80403174D01*
X107960374Y-80385862D01*
X107821637Y-80298325D01*
X107816757Y-80295246D01*
X107628898Y-80220298D01*
X107430526Y-80180839D01*
X107424752Y-80180763D01*
X107424748Y-80180763D01*
X107322257Y-80179422D01*
X107228286Y-80178192D01*
X107222589Y-80179171D01*
X107222588Y-80179171D01*
X107034646Y-80211465D01*
X107034645Y-80211465D01*
X107028949Y-80212444D01*
X106839193Y-80282449D01*
X106834232Y-80285401D01*
X106834231Y-80285401D01*
X106711657Y-80358325D01*
X106665371Y-80385862D01*
X106513305Y-80519220D01*
X106388089Y-80678057D01*
X106293914Y-80857053D01*
X106233937Y-81050213D01*
X106210164Y-81251069D01*
X105877557Y-81251069D01*
X105861708Y-81078591D01*
X105838173Y-80995140D01*
X105809916Y-80894951D01*
X105806807Y-80883926D01*
X105717351Y-80702527D01*
X105699079Y-80678057D01*
X105599788Y-80545091D01*
X105599787Y-80545090D01*
X105596335Y-80540467D01*
X105573350Y-80519220D01*
X105452053Y-80407094D01*
X105452051Y-80407092D01*
X105447812Y-80403174D01*
X105420374Y-80385862D01*
X105281637Y-80298325D01*
X105276757Y-80295246D01*
X105088898Y-80220298D01*
X104890526Y-80180839D01*
X104884752Y-80180763D01*
X104884748Y-80180763D01*
X104782257Y-80179422D01*
X104688286Y-80178192D01*
X104682589Y-80179171D01*
X104682588Y-80179171D01*
X104494646Y-80211465D01*
X104494645Y-80211465D01*
X104488949Y-80212444D01*
X104299193Y-80282449D01*
X104294232Y-80285401D01*
X104294231Y-80285401D01*
X104171657Y-80358325D01*
X104125371Y-80385862D01*
X103973305Y-80519220D01*
X103848089Y-80678057D01*
X103753914Y-80857053D01*
X103693937Y-81050213D01*
X103670164Y-81251069D01*
X103337557Y-81251069D01*
X103321708Y-81078591D01*
X103298173Y-80995140D01*
X103269916Y-80894951D01*
X103266807Y-80883926D01*
X103177351Y-80702527D01*
X103159079Y-80678057D01*
X103059788Y-80545091D01*
X103059787Y-80545090D01*
X103056335Y-80540467D01*
X103033350Y-80519220D01*
X102912053Y-80407094D01*
X102912051Y-80407092D01*
X102907812Y-80403174D01*
X102880374Y-80385862D01*
X102741637Y-80298325D01*
X102736757Y-80295246D01*
X102548898Y-80220298D01*
X102350526Y-80180839D01*
X102344752Y-80180763D01*
X102344748Y-80180763D01*
X102242257Y-80179422D01*
X102148286Y-80178192D01*
X102142589Y-80179171D01*
X102142588Y-80179171D01*
X101954646Y-80211465D01*
X101954645Y-80211465D01*
X101948949Y-80212444D01*
X101759193Y-80282449D01*
X101754232Y-80285401D01*
X101754231Y-80285401D01*
X101631657Y-80358325D01*
X101585371Y-80385862D01*
X101433305Y-80519220D01*
X101308089Y-80678057D01*
X101213914Y-80857053D01*
X101153937Y-81050213D01*
X101130164Y-81251069D01*
X90632043Y-81251069D01*
X90621708Y-81138591D01*
X90566807Y-80943926D01*
X90477351Y-80762527D01*
X90459079Y-80738057D01*
X90359788Y-80605091D01*
X90359787Y-80605090D01*
X90356335Y-80600467D01*
X90333350Y-80579220D01*
X90212053Y-80467094D01*
X90212051Y-80467092D01*
X90207812Y-80463174D01*
X90180374Y-80445862D01*
X90041637Y-80358325D01*
X90036757Y-80355246D01*
X89848898Y-80280298D01*
X89650526Y-80240839D01*
X89644752Y-80240763D01*
X89644748Y-80240763D01*
X89542257Y-80239422D01*
X89448286Y-80238192D01*
X89442589Y-80239171D01*
X89442588Y-80239171D01*
X89254646Y-80271465D01*
X89254645Y-80271465D01*
X89248949Y-80272444D01*
X89059193Y-80342449D01*
X88885371Y-80445862D01*
X88733305Y-80579220D01*
X88608089Y-80738057D01*
X88513914Y-80917053D01*
X88453937Y-81110213D01*
X88430164Y-81311069D01*
X85557557Y-81311069D01*
X85541708Y-81138591D01*
X85486807Y-80943926D01*
X85397351Y-80762527D01*
X85379079Y-80738057D01*
X85279788Y-80605091D01*
X85279787Y-80605090D01*
X85276335Y-80600467D01*
X85253350Y-80579220D01*
X85132053Y-80467094D01*
X85132051Y-80467092D01*
X85127812Y-80463174D01*
X85100374Y-80445862D01*
X84961637Y-80358325D01*
X84956757Y-80355246D01*
X84768898Y-80280298D01*
X84570526Y-80240839D01*
X84564752Y-80240763D01*
X84564748Y-80240763D01*
X84462257Y-80239422D01*
X84368286Y-80238192D01*
X84362589Y-80239171D01*
X84362588Y-80239171D01*
X84174646Y-80271465D01*
X84174645Y-80271465D01*
X84168949Y-80272444D01*
X83979193Y-80342449D01*
X83805371Y-80445862D01*
X83653305Y-80579220D01*
X83528089Y-80738057D01*
X83433914Y-80917053D01*
X83373937Y-81110213D01*
X83350164Y-81311069D01*
X76034401Y-81311069D01*
X76035215Y-81280000D01*
X76016708Y-81078591D01*
X75993173Y-80995140D01*
X75964916Y-80894951D01*
X75961807Y-80883926D01*
X75872351Y-80702527D01*
X75854079Y-80678057D01*
X75754788Y-80545091D01*
X75754787Y-80545090D01*
X75751335Y-80540467D01*
X75728350Y-80519220D01*
X75607053Y-80407094D01*
X75607051Y-80407092D01*
X75602812Y-80403174D01*
X75575374Y-80385862D01*
X75436637Y-80298325D01*
X75431757Y-80295246D01*
X75243898Y-80220298D01*
X75045526Y-80180839D01*
X75039752Y-80180763D01*
X75039748Y-80180763D01*
X74937257Y-80179422D01*
X74843286Y-80178192D01*
X74837589Y-80179171D01*
X74837588Y-80179171D01*
X74649646Y-80211465D01*
X74649645Y-80211465D01*
X74643949Y-80212444D01*
X74454193Y-80282449D01*
X74449232Y-80285401D01*
X74449231Y-80285401D01*
X74326657Y-80358325D01*
X74280371Y-80385862D01*
X74128305Y-80519220D01*
X74003089Y-80678057D01*
X73908914Y-80857053D01*
X73848937Y-81050213D01*
X73825164Y-81251069D01*
X68412557Y-81251069D01*
X68396708Y-81078591D01*
X68373173Y-80995140D01*
X68344916Y-80894951D01*
X68341807Y-80883926D01*
X68252351Y-80702527D01*
X68234079Y-80678057D01*
X68134788Y-80545091D01*
X68134787Y-80545090D01*
X68131335Y-80540467D01*
X68108350Y-80519220D01*
X67987053Y-80407094D01*
X67987051Y-80407092D01*
X67982812Y-80403174D01*
X67955374Y-80385862D01*
X67816637Y-80298325D01*
X67811757Y-80295246D01*
X67623898Y-80220298D01*
X67425526Y-80180839D01*
X67419752Y-80180763D01*
X67419748Y-80180763D01*
X67317257Y-80179422D01*
X67223286Y-80178192D01*
X67217589Y-80179171D01*
X67217588Y-80179171D01*
X67029646Y-80211465D01*
X67029645Y-80211465D01*
X67023949Y-80212444D01*
X66834193Y-80282449D01*
X66829232Y-80285401D01*
X66829231Y-80285401D01*
X66706657Y-80358325D01*
X66660371Y-80385862D01*
X66508305Y-80519220D01*
X66383089Y-80678057D01*
X66288914Y-80857053D01*
X66228937Y-81050213D01*
X66205164Y-81251069D01*
X65872557Y-81251069D01*
X65856708Y-81078591D01*
X65833173Y-80995140D01*
X65804916Y-80894951D01*
X65801807Y-80883926D01*
X65712351Y-80702527D01*
X65694079Y-80678057D01*
X65594788Y-80545091D01*
X65594787Y-80545090D01*
X65591335Y-80540467D01*
X65568350Y-80519220D01*
X65447053Y-80407094D01*
X65447051Y-80407092D01*
X65442812Y-80403174D01*
X65415374Y-80385862D01*
X65276637Y-80298325D01*
X65271757Y-80295246D01*
X65083898Y-80220298D01*
X64885526Y-80180839D01*
X64879752Y-80180763D01*
X64879748Y-80180763D01*
X64777257Y-80179422D01*
X64683286Y-80178192D01*
X64677589Y-80179171D01*
X64677588Y-80179171D01*
X64489646Y-80211465D01*
X64489645Y-80211465D01*
X64483949Y-80212444D01*
X64294193Y-80282449D01*
X64289232Y-80285401D01*
X64289231Y-80285401D01*
X64166657Y-80358325D01*
X64120371Y-80385862D01*
X63968305Y-80519220D01*
X63843089Y-80678057D01*
X63748914Y-80857053D01*
X63688937Y-81050213D01*
X63665164Y-81251069D01*
X60792557Y-81251069D01*
X60776708Y-81078591D01*
X60753173Y-80995140D01*
X60724916Y-80894951D01*
X60721807Y-80883926D01*
X60632351Y-80702527D01*
X60614079Y-80678057D01*
X60514788Y-80545091D01*
X60514787Y-80545090D01*
X60511335Y-80540467D01*
X60488350Y-80519220D01*
X60367053Y-80407094D01*
X60367051Y-80407092D01*
X60362812Y-80403174D01*
X60335374Y-80385862D01*
X60196637Y-80298325D01*
X60191757Y-80295246D01*
X60003898Y-80220298D01*
X59805526Y-80180839D01*
X59799752Y-80180763D01*
X59799748Y-80180763D01*
X59697257Y-80179422D01*
X59603286Y-80178192D01*
X59597589Y-80179171D01*
X59597588Y-80179171D01*
X59409646Y-80211465D01*
X59409645Y-80211465D01*
X59403949Y-80212444D01*
X59214193Y-80282449D01*
X59209232Y-80285401D01*
X59209231Y-80285401D01*
X59086657Y-80358325D01*
X59040371Y-80385862D01*
X58888305Y-80519220D01*
X58763089Y-80678057D01*
X58668914Y-80857053D01*
X58608937Y-81050213D01*
X58585164Y-81251069D01*
X58252557Y-81251069D01*
X58236708Y-81078591D01*
X58213173Y-80995140D01*
X58184916Y-80894951D01*
X58181807Y-80883926D01*
X58092351Y-80702527D01*
X58074079Y-80678057D01*
X57974788Y-80545091D01*
X57974787Y-80545090D01*
X57971335Y-80540467D01*
X57948350Y-80519220D01*
X57827053Y-80407094D01*
X57827051Y-80407092D01*
X57822812Y-80403174D01*
X57795374Y-80385862D01*
X57656637Y-80298325D01*
X57651757Y-80295246D01*
X57463898Y-80220298D01*
X57265526Y-80180839D01*
X57259752Y-80180763D01*
X57259748Y-80180763D01*
X57157257Y-80179422D01*
X57063286Y-80178192D01*
X57057589Y-80179171D01*
X57057588Y-80179171D01*
X56869646Y-80211465D01*
X56869645Y-80211465D01*
X56863949Y-80212444D01*
X56674193Y-80282449D01*
X56669232Y-80285401D01*
X56669231Y-80285401D01*
X56546657Y-80358325D01*
X56500371Y-80385862D01*
X56348305Y-80519220D01*
X56223089Y-80678057D01*
X56128914Y-80857053D01*
X56068937Y-81050213D01*
X56045164Y-81251069D01*
X55712557Y-81251069D01*
X55696708Y-81078591D01*
X55673173Y-80995140D01*
X55644916Y-80894951D01*
X55641807Y-80883926D01*
X55552351Y-80702527D01*
X55534079Y-80678057D01*
X55434788Y-80545091D01*
X55434787Y-80545090D01*
X55431335Y-80540467D01*
X55408350Y-80519220D01*
X55287053Y-80407094D01*
X55287051Y-80407092D01*
X55282812Y-80403174D01*
X55255374Y-80385862D01*
X55116637Y-80298325D01*
X55111757Y-80295246D01*
X54923898Y-80220298D01*
X54725526Y-80180839D01*
X54719752Y-80180763D01*
X54719748Y-80180763D01*
X54617257Y-80179422D01*
X54523286Y-80178192D01*
X54517589Y-80179171D01*
X54517588Y-80179171D01*
X54329646Y-80211465D01*
X54329645Y-80211465D01*
X54323949Y-80212444D01*
X54134193Y-80282449D01*
X54129232Y-80285401D01*
X54129231Y-80285401D01*
X54006657Y-80358325D01*
X53960371Y-80385862D01*
X53808305Y-80519220D01*
X53683089Y-80678057D01*
X53588914Y-80857053D01*
X53528937Y-81050213D01*
X53505164Y-81251069D01*
X43012557Y-81251069D01*
X42996708Y-81078591D01*
X42973173Y-80995140D01*
X42944916Y-80894951D01*
X42941807Y-80883926D01*
X42852351Y-80702527D01*
X42834079Y-80678057D01*
X42734788Y-80545091D01*
X42734787Y-80545090D01*
X42731335Y-80540467D01*
X42708350Y-80519220D01*
X42587053Y-80407094D01*
X42587051Y-80407092D01*
X42582812Y-80403174D01*
X42555374Y-80385862D01*
X42416637Y-80298325D01*
X42411757Y-80295246D01*
X42223898Y-80220298D01*
X42025526Y-80180839D01*
X42019752Y-80180763D01*
X42019748Y-80180763D01*
X41917257Y-80179422D01*
X41823286Y-80178192D01*
X41817589Y-80179171D01*
X41817588Y-80179171D01*
X41629646Y-80211465D01*
X41629645Y-80211465D01*
X41623949Y-80212444D01*
X41434193Y-80282449D01*
X41429232Y-80285401D01*
X41429231Y-80285401D01*
X41306657Y-80358325D01*
X41260371Y-80385862D01*
X41108305Y-80519220D01*
X40983089Y-80678057D01*
X40888914Y-80857053D01*
X40828937Y-81050213D01*
X40805164Y-81251069D01*
X37932557Y-81251069D01*
X37916708Y-81078591D01*
X37893173Y-80995140D01*
X37864916Y-80894951D01*
X37861807Y-80883926D01*
X37772351Y-80702527D01*
X37754079Y-80678057D01*
X37654788Y-80545091D01*
X37654787Y-80545090D01*
X37651335Y-80540467D01*
X37628350Y-80519220D01*
X37507053Y-80407094D01*
X37507051Y-80407092D01*
X37502812Y-80403174D01*
X37475374Y-80385862D01*
X37336637Y-80298325D01*
X37331757Y-80295246D01*
X37143898Y-80220298D01*
X36945526Y-80180839D01*
X36939752Y-80180763D01*
X36939748Y-80180763D01*
X36837257Y-80179422D01*
X36743286Y-80178192D01*
X36737589Y-80179171D01*
X36737588Y-80179171D01*
X36549646Y-80211465D01*
X36549645Y-80211465D01*
X36543949Y-80212444D01*
X36354193Y-80282449D01*
X36349232Y-80285401D01*
X36349231Y-80285401D01*
X36226657Y-80358325D01*
X36180371Y-80385862D01*
X36028305Y-80519220D01*
X35903089Y-80678057D01*
X35900400Y-80683168D01*
X35900398Y-80683171D01*
X35870484Y-80740028D01*
X35821065Y-80791001D01*
X35751933Y-80807164D01*
X35685036Y-80783385D01*
X35669881Y-80770456D01*
X35399905Y-80500480D01*
X35365879Y-80438168D01*
X35363000Y-80411385D01*
X35363000Y-75798617D01*
X35383002Y-75730496D01*
X35399904Y-75709522D01*
X35644522Y-75464903D01*
X35706835Y-75430878D01*
X35733618Y-75427998D01*
X36678387Y-75427998D01*
X36746508Y-75448000D01*
X36793001Y-75501656D01*
X36803105Y-75571930D01*
X36773611Y-75636510D01*
X36767482Y-75643093D01*
X36543954Y-75866621D01*
X36532865Y-75876475D01*
X36507106Y-75896782D01*
X36474681Y-75943697D01*
X36472413Y-75946870D01*
X36438539Y-75992731D01*
X36436213Y-75999354D01*
X36432221Y-76005130D01*
X36415009Y-76059556D01*
X36413791Y-76063203D01*
X36394899Y-76117000D01*
X36394623Y-76124013D01*
X36392506Y-76130708D01*
X36392000Y-76137138D01*
X36392000Y-76188304D01*
X36391903Y-76193251D01*
X36389728Y-76248607D01*
X36391570Y-76255555D01*
X36392000Y-76263362D01*
X36392000Y-77513500D01*
X36371998Y-77581621D01*
X36318342Y-77628114D01*
X36266000Y-77639500D01*
X35955326Y-77639500D01*
X35882260Y-77654034D01*
X35799399Y-77709399D01*
X35744034Y-77792260D01*
X35729500Y-77865326D01*
X35729500Y-79614674D01*
X35744034Y-79687740D01*
X35750928Y-79698057D01*
X35750928Y-79698058D01*
X35772037Y-79729650D01*
X35799399Y-79770601D01*
X35882260Y-79825966D01*
X35955326Y-79840500D01*
X37704674Y-79840500D01*
X37777740Y-79825966D01*
X37860601Y-79770601D01*
X37887963Y-79729650D01*
X37909072Y-79698058D01*
X37909072Y-79698057D01*
X37915966Y-79687740D01*
X37930500Y-79614674D01*
X37930500Y-78711069D01*
X40805164Y-78711069D01*
X40818392Y-78912894D01*
X40868178Y-79108928D01*
X40952856Y-79292607D01*
X41069588Y-79457780D01*
X41214466Y-79598913D01*
X41382637Y-79711282D01*
X41387940Y-79713560D01*
X41387943Y-79713562D01*
X41563163Y-79788842D01*
X41568470Y-79791122D01*
X41721443Y-79825737D01*
X41742941Y-79830601D01*
X41765740Y-79835760D01*
X41771509Y-79835987D01*
X41771512Y-79835987D01*
X41847683Y-79838979D01*
X41967842Y-79843700D01*
X42058186Y-79830601D01*
X42162286Y-79815508D01*
X42162291Y-79815507D01*
X42168007Y-79814678D01*
X42173479Y-79812820D01*
X42173481Y-79812820D01*
X42354067Y-79751519D01*
X42354069Y-79751518D01*
X42359531Y-79749664D01*
X42536001Y-79650837D01*
X42598433Y-79598913D01*
X42687073Y-79525191D01*
X42691505Y-79521505D01*
X42820837Y-79366001D01*
X42890037Y-79242434D01*
X42940774Y-79192772D01*
X42999972Y-79178000D01*
X47248747Y-79178000D01*
X47316868Y-79198002D01*
X47325452Y-79204038D01*
X47347375Y-79220861D01*
X47481291Y-79276330D01*
X47625000Y-79295250D01*
X47768709Y-79276330D01*
X47902625Y-79220861D01*
X48017621Y-79132621D01*
X48105861Y-79017625D01*
X48161330Y-78883709D01*
X48180250Y-78740000D01*
X48176441Y-78711069D01*
X53505164Y-78711069D01*
X53518392Y-78912894D01*
X53568178Y-79108928D01*
X53652856Y-79292607D01*
X53769588Y-79457780D01*
X53914466Y-79598913D01*
X54082637Y-79711282D01*
X54087940Y-79713560D01*
X54087943Y-79713562D01*
X54263163Y-79788842D01*
X54268470Y-79791122D01*
X54421443Y-79825737D01*
X54442941Y-79830601D01*
X54465740Y-79835760D01*
X54471509Y-79835987D01*
X54471512Y-79835987D01*
X54547683Y-79838979D01*
X54667842Y-79843700D01*
X54758186Y-79830601D01*
X54862286Y-79815508D01*
X54862291Y-79815507D01*
X54868007Y-79814678D01*
X54873479Y-79812820D01*
X54873481Y-79812820D01*
X55054067Y-79751519D01*
X55054069Y-79751518D01*
X55059531Y-79749664D01*
X55236001Y-79650837D01*
X55298433Y-79598913D01*
X55387073Y-79525191D01*
X55391505Y-79521505D01*
X55520837Y-79366001D01*
X55619664Y-79189531D01*
X55628560Y-79163326D01*
X55682820Y-79003481D01*
X55682820Y-79003479D01*
X55684678Y-78998007D01*
X55685507Y-78992291D01*
X55685508Y-78992286D01*
X55713167Y-78801516D01*
X55713700Y-78797842D01*
X55715215Y-78740000D01*
X55712557Y-78711069D01*
X56045164Y-78711069D01*
X56058392Y-78912894D01*
X56108178Y-79108928D01*
X56192856Y-79292607D01*
X56309588Y-79457780D01*
X56454466Y-79598913D01*
X56622637Y-79711282D01*
X56627940Y-79713560D01*
X56627943Y-79713562D01*
X56803163Y-79788842D01*
X56808470Y-79791122D01*
X56961443Y-79825737D01*
X56982941Y-79830601D01*
X57005740Y-79835760D01*
X57011509Y-79835987D01*
X57011512Y-79835987D01*
X57087683Y-79838979D01*
X57207842Y-79843700D01*
X57298186Y-79830601D01*
X57402286Y-79815508D01*
X57402291Y-79815507D01*
X57408007Y-79814678D01*
X57413479Y-79812820D01*
X57413481Y-79812820D01*
X57594067Y-79751519D01*
X57594069Y-79751518D01*
X57599531Y-79749664D01*
X57776001Y-79650837D01*
X57838433Y-79598913D01*
X57927073Y-79525191D01*
X57931505Y-79521505D01*
X58060837Y-79366001D01*
X58159664Y-79189531D01*
X58168560Y-79163326D01*
X58222820Y-79003481D01*
X58222820Y-79003479D01*
X58224678Y-78998007D01*
X58225507Y-78992291D01*
X58225508Y-78992286D01*
X58253167Y-78801516D01*
X58253700Y-78797842D01*
X58255215Y-78740000D01*
X58252557Y-78711069D01*
X58585164Y-78711069D01*
X58598392Y-78912894D01*
X58648178Y-79108928D01*
X58732856Y-79292607D01*
X58849588Y-79457780D01*
X58994466Y-79598913D01*
X59162637Y-79711282D01*
X59167940Y-79713560D01*
X59167943Y-79713562D01*
X59343163Y-79788842D01*
X59348470Y-79791122D01*
X59501443Y-79825737D01*
X59522941Y-79830601D01*
X59545740Y-79835760D01*
X59551509Y-79835987D01*
X59551512Y-79835987D01*
X59627683Y-79838979D01*
X59747842Y-79843700D01*
X59838186Y-79830601D01*
X59942286Y-79815508D01*
X59942291Y-79815507D01*
X59948007Y-79814678D01*
X59953479Y-79812820D01*
X59953481Y-79812820D01*
X60134067Y-79751519D01*
X60134069Y-79751518D01*
X60139531Y-79749664D01*
X60316001Y-79650837D01*
X60359482Y-79614674D01*
X63669500Y-79614674D01*
X63684034Y-79687740D01*
X63690928Y-79698057D01*
X63690928Y-79698058D01*
X63712037Y-79729650D01*
X63739399Y-79770601D01*
X63822260Y-79825966D01*
X63895326Y-79840500D01*
X65644674Y-79840500D01*
X65717740Y-79825966D01*
X65800601Y-79770601D01*
X65827963Y-79729650D01*
X65849072Y-79698058D01*
X65849072Y-79698057D01*
X65855966Y-79687740D01*
X65870500Y-79614674D01*
X65870500Y-78711069D01*
X66205164Y-78711069D01*
X66218392Y-78912894D01*
X66268178Y-79108928D01*
X66352856Y-79292607D01*
X66469588Y-79457780D01*
X66614466Y-79598913D01*
X66782637Y-79711282D01*
X66787940Y-79713560D01*
X66787943Y-79713562D01*
X66963163Y-79788842D01*
X66968470Y-79791122D01*
X67121443Y-79825737D01*
X67142941Y-79830601D01*
X67165740Y-79835760D01*
X67171509Y-79835987D01*
X67171512Y-79835987D01*
X67247683Y-79838979D01*
X67367842Y-79843700D01*
X67458186Y-79830601D01*
X67562286Y-79815508D01*
X67562291Y-79815507D01*
X67568007Y-79814678D01*
X67573479Y-79812820D01*
X67573481Y-79812820D01*
X67754067Y-79751519D01*
X67754069Y-79751518D01*
X67759531Y-79749664D01*
X67936001Y-79650837D01*
X67998433Y-79598913D01*
X68087073Y-79525191D01*
X68091505Y-79521505D01*
X68220837Y-79366001D01*
X68319664Y-79189531D01*
X68328560Y-79163326D01*
X68382820Y-79003481D01*
X68382820Y-79003479D01*
X68384678Y-78998007D01*
X68385507Y-78992291D01*
X68385508Y-78992286D01*
X68413167Y-78801516D01*
X68413700Y-78797842D01*
X68415215Y-78740000D01*
X68412557Y-78711069D01*
X73820164Y-78711069D01*
X73833392Y-78912894D01*
X73883178Y-79108928D01*
X73967856Y-79292607D01*
X74084588Y-79457780D01*
X74229466Y-79598913D01*
X74397637Y-79711282D01*
X74402940Y-79713560D01*
X74402943Y-79713562D01*
X74578163Y-79788842D01*
X74583470Y-79791122D01*
X74736443Y-79825737D01*
X74757941Y-79830601D01*
X74780740Y-79835760D01*
X74786509Y-79835987D01*
X74786512Y-79835987D01*
X74862683Y-79838979D01*
X74982842Y-79843700D01*
X75073186Y-79830601D01*
X75177286Y-79815508D01*
X75177291Y-79815507D01*
X75183007Y-79814678D01*
X75188479Y-79812820D01*
X75188481Y-79812820D01*
X75369067Y-79751519D01*
X75369069Y-79751518D01*
X75374531Y-79749664D01*
X75508437Y-79674674D01*
X83354500Y-79674674D01*
X83369034Y-79747740D01*
X83424399Y-79830601D01*
X83507260Y-79885966D01*
X83580326Y-79900500D01*
X85329674Y-79900500D01*
X85402740Y-79885966D01*
X85485601Y-79830601D01*
X85540966Y-79747740D01*
X85555500Y-79674674D01*
X85555500Y-78771069D01*
X88430164Y-78771069D01*
X88443392Y-78972894D01*
X88463555Y-79052286D01*
X88485234Y-79137647D01*
X88493178Y-79168928D01*
X88577856Y-79352607D01*
X88694588Y-79517780D01*
X88839466Y-79658913D01*
X89007637Y-79771282D01*
X89012940Y-79773560D01*
X89012943Y-79773562D01*
X89174265Y-79842871D01*
X89193470Y-79851122D01*
X89390740Y-79895760D01*
X89396509Y-79895987D01*
X89396512Y-79895987D01*
X89472683Y-79898979D01*
X89592842Y-79903700D01*
X89679132Y-79891189D01*
X89787286Y-79875508D01*
X89787291Y-79875507D01*
X89793007Y-79874678D01*
X89798479Y-79872820D01*
X89798481Y-79872820D01*
X89979067Y-79811519D01*
X89979069Y-79811518D01*
X89984531Y-79809664D01*
X90161001Y-79710837D01*
X90223433Y-79658913D01*
X90312073Y-79585191D01*
X90316505Y-79581505D01*
X90445837Y-79426001D01*
X90544664Y-79249531D01*
X90556104Y-79215832D01*
X90607820Y-79063481D01*
X90607820Y-79063479D01*
X90609678Y-79058007D01*
X90610507Y-79052291D01*
X90610508Y-79052286D01*
X90633843Y-78891340D01*
X90638700Y-78857842D01*
X90640215Y-78800000D01*
X90632043Y-78711069D01*
X101130164Y-78711069D01*
X101143392Y-78912894D01*
X101193178Y-79108928D01*
X101277856Y-79292607D01*
X101394588Y-79457780D01*
X101539466Y-79598913D01*
X101707637Y-79711282D01*
X101712940Y-79713560D01*
X101712943Y-79713562D01*
X101888163Y-79788842D01*
X101893470Y-79791122D01*
X102046443Y-79825737D01*
X102067941Y-79830601D01*
X102090740Y-79835760D01*
X102096509Y-79835987D01*
X102096512Y-79835987D01*
X102172683Y-79838979D01*
X102292842Y-79843700D01*
X102383186Y-79830601D01*
X102487286Y-79815508D01*
X102487291Y-79815507D01*
X102493007Y-79814678D01*
X102498479Y-79812820D01*
X102498481Y-79812820D01*
X102679067Y-79751519D01*
X102679069Y-79751518D01*
X102684531Y-79749664D01*
X102861001Y-79650837D01*
X102923433Y-79598913D01*
X103012073Y-79525191D01*
X103016505Y-79521505D01*
X103145837Y-79366001D01*
X103244664Y-79189531D01*
X103253560Y-79163326D01*
X103307820Y-79003481D01*
X103307820Y-79003479D01*
X103309678Y-78998007D01*
X103310507Y-78992291D01*
X103310508Y-78992286D01*
X103338167Y-78801516D01*
X103338700Y-78797842D01*
X103340215Y-78740000D01*
X103337557Y-78711069D01*
X103670164Y-78711069D01*
X103683392Y-78912894D01*
X103733178Y-79108928D01*
X103817856Y-79292607D01*
X103934588Y-79457780D01*
X104079466Y-79598913D01*
X104247637Y-79711282D01*
X104252940Y-79713560D01*
X104252943Y-79713562D01*
X104428163Y-79788842D01*
X104433470Y-79791122D01*
X104586443Y-79825737D01*
X104607941Y-79830601D01*
X104630740Y-79835760D01*
X104636509Y-79835987D01*
X104636512Y-79835987D01*
X104712683Y-79838979D01*
X104832842Y-79843700D01*
X104923186Y-79830601D01*
X105027286Y-79815508D01*
X105027291Y-79815507D01*
X105033007Y-79814678D01*
X105038479Y-79812820D01*
X105038481Y-79812820D01*
X105219067Y-79751519D01*
X105219069Y-79751518D01*
X105224531Y-79749664D01*
X105401001Y-79650837D01*
X105463433Y-79598913D01*
X105552073Y-79525191D01*
X105556505Y-79521505D01*
X105685837Y-79366001D01*
X105784664Y-79189531D01*
X105793560Y-79163326D01*
X105847820Y-79003481D01*
X105847820Y-79003479D01*
X105849678Y-78998007D01*
X105850507Y-78992291D01*
X105850508Y-78992286D01*
X105878167Y-78801516D01*
X105878700Y-78797842D01*
X105880215Y-78740000D01*
X105877557Y-78711069D01*
X106210164Y-78711069D01*
X106223392Y-78912894D01*
X106273178Y-79108928D01*
X106357856Y-79292607D01*
X106474588Y-79457780D01*
X106619466Y-79598913D01*
X106787637Y-79711282D01*
X106792940Y-79713560D01*
X106792943Y-79713562D01*
X106968163Y-79788842D01*
X106973470Y-79791122D01*
X107126443Y-79825737D01*
X107147941Y-79830601D01*
X107170740Y-79835760D01*
X107176509Y-79835987D01*
X107176512Y-79835987D01*
X107252683Y-79838979D01*
X107372842Y-79843700D01*
X107463186Y-79830601D01*
X107567286Y-79815508D01*
X107567291Y-79815507D01*
X107573007Y-79814678D01*
X107578479Y-79812820D01*
X107578481Y-79812820D01*
X107759067Y-79751519D01*
X107759069Y-79751518D01*
X107764531Y-79749664D01*
X107941001Y-79650837D01*
X107984482Y-79614674D01*
X111289500Y-79614674D01*
X111304034Y-79687740D01*
X111310928Y-79698057D01*
X111310928Y-79698058D01*
X111332037Y-79729650D01*
X111359399Y-79770601D01*
X111442260Y-79825966D01*
X111515326Y-79840500D01*
X113264674Y-79840500D01*
X113337740Y-79825966D01*
X113420601Y-79770601D01*
X113447963Y-79729650D01*
X113469072Y-79698058D01*
X113469072Y-79698057D01*
X113475966Y-79687740D01*
X113490500Y-79614674D01*
X113490500Y-78711069D01*
X113825164Y-78711069D01*
X113838392Y-78912894D01*
X113888178Y-79108928D01*
X113972856Y-79292607D01*
X114089588Y-79457780D01*
X114234466Y-79598913D01*
X114402637Y-79711282D01*
X114407940Y-79713560D01*
X114407943Y-79713562D01*
X114583163Y-79788842D01*
X114588470Y-79791122D01*
X114741443Y-79825737D01*
X114762941Y-79830601D01*
X114785740Y-79835760D01*
X114791509Y-79835987D01*
X114791512Y-79835987D01*
X114867683Y-79838979D01*
X114987842Y-79843700D01*
X115078186Y-79830601D01*
X115182286Y-79815508D01*
X115182291Y-79815507D01*
X115188007Y-79814678D01*
X115193479Y-79812820D01*
X115193481Y-79812820D01*
X115374067Y-79751519D01*
X115374069Y-79751518D01*
X115379531Y-79749664D01*
X115556001Y-79650837D01*
X115618433Y-79598913D01*
X115707073Y-79525191D01*
X115711505Y-79521505D01*
X115840837Y-79366001D01*
X115939664Y-79189531D01*
X115948560Y-79163326D01*
X116002820Y-79003481D01*
X116002820Y-79003479D01*
X116004678Y-78998007D01*
X116005507Y-78992291D01*
X116005508Y-78992286D01*
X116033167Y-78801516D01*
X116033700Y-78797842D01*
X116035215Y-78740000D01*
X116016708Y-78538591D01*
X115961807Y-78343926D01*
X115872351Y-78162527D01*
X115854079Y-78138057D01*
X115754788Y-78005091D01*
X115754787Y-78005090D01*
X115751335Y-78000467D01*
X115728350Y-77979220D01*
X115607053Y-77867094D01*
X115607051Y-77867092D01*
X115602812Y-77863174D01*
X115575374Y-77845862D01*
X115436637Y-77758325D01*
X115431757Y-77755246D01*
X115243898Y-77680298D01*
X115045526Y-77640839D01*
X115039752Y-77640763D01*
X115039748Y-77640763D01*
X114937257Y-77639422D01*
X114843286Y-77638192D01*
X114837589Y-77639171D01*
X114837588Y-77639171D01*
X114649646Y-77671465D01*
X114649645Y-77671465D01*
X114643949Y-77672444D01*
X114454193Y-77742449D01*
X114449232Y-77745401D01*
X114449231Y-77745401D01*
X114326657Y-77818325D01*
X114280371Y-77845862D01*
X114128305Y-77979220D01*
X114003089Y-78138057D01*
X113908914Y-78317053D01*
X113848937Y-78510213D01*
X113825164Y-78711069D01*
X113490500Y-78711069D01*
X113490500Y-77865326D01*
X113475966Y-77792260D01*
X113420601Y-77709399D01*
X113337740Y-77654034D01*
X113264674Y-77639500D01*
X111515326Y-77639500D01*
X111442260Y-77654034D01*
X111359399Y-77709399D01*
X111304034Y-77792260D01*
X111289500Y-77865326D01*
X111289500Y-79614674D01*
X107984482Y-79614674D01*
X108003433Y-79598913D01*
X108092073Y-79525191D01*
X108096505Y-79521505D01*
X108225837Y-79366001D01*
X108324664Y-79189531D01*
X108333560Y-79163326D01*
X108387820Y-79003481D01*
X108387820Y-79003479D01*
X108389678Y-78998007D01*
X108390507Y-78992291D01*
X108390508Y-78992286D01*
X108418167Y-78801516D01*
X108418700Y-78797842D01*
X108420215Y-78740000D01*
X108401708Y-78538591D01*
X108346807Y-78343926D01*
X108257351Y-78162527D01*
X108239079Y-78138057D01*
X108139788Y-78005091D01*
X108139787Y-78005090D01*
X108136335Y-78000467D01*
X108113350Y-77979220D01*
X107992053Y-77867094D01*
X107992051Y-77867092D01*
X107987812Y-77863174D01*
X107960374Y-77845862D01*
X107821637Y-77758325D01*
X107816757Y-77755246D01*
X107628898Y-77680298D01*
X107430526Y-77640839D01*
X107424752Y-77640763D01*
X107424748Y-77640763D01*
X107322257Y-77639422D01*
X107228286Y-77638192D01*
X107222589Y-77639171D01*
X107222588Y-77639171D01*
X107034646Y-77671465D01*
X107034645Y-77671465D01*
X107028949Y-77672444D01*
X106839193Y-77742449D01*
X106834232Y-77745401D01*
X106834231Y-77745401D01*
X106711657Y-77818325D01*
X106665371Y-77845862D01*
X106513305Y-77979220D01*
X106388089Y-78138057D01*
X106293914Y-78317053D01*
X106233937Y-78510213D01*
X106210164Y-78711069D01*
X105877557Y-78711069D01*
X105861708Y-78538591D01*
X105806807Y-78343926D01*
X105717351Y-78162527D01*
X105699079Y-78138057D01*
X105599788Y-78005091D01*
X105599787Y-78005090D01*
X105596335Y-78000467D01*
X105573350Y-77979220D01*
X105452053Y-77867094D01*
X105452051Y-77867092D01*
X105447812Y-77863174D01*
X105420374Y-77845862D01*
X105281637Y-77758325D01*
X105276757Y-77755246D01*
X105088898Y-77680298D01*
X104890526Y-77640839D01*
X104884752Y-77640763D01*
X104884748Y-77640763D01*
X104782257Y-77639422D01*
X104688286Y-77638192D01*
X104682589Y-77639171D01*
X104682588Y-77639171D01*
X104494646Y-77671465D01*
X104494645Y-77671465D01*
X104488949Y-77672444D01*
X104299193Y-77742449D01*
X104294232Y-77745401D01*
X104294231Y-77745401D01*
X104171657Y-77818325D01*
X104125371Y-77845862D01*
X103973305Y-77979220D01*
X103848089Y-78138057D01*
X103753914Y-78317053D01*
X103693937Y-78510213D01*
X103670164Y-78711069D01*
X103337557Y-78711069D01*
X103321708Y-78538591D01*
X103266807Y-78343926D01*
X103177351Y-78162527D01*
X103159079Y-78138057D01*
X103059788Y-78005091D01*
X103059787Y-78005090D01*
X103056335Y-78000467D01*
X103033350Y-77979220D01*
X102912053Y-77867094D01*
X102912051Y-77867092D01*
X102907812Y-77863174D01*
X102880374Y-77845862D01*
X102741637Y-77758325D01*
X102736757Y-77755246D01*
X102548898Y-77680298D01*
X102350526Y-77640839D01*
X102344752Y-77640763D01*
X102344748Y-77640763D01*
X102242257Y-77639422D01*
X102148286Y-77638192D01*
X102142589Y-77639171D01*
X102142588Y-77639171D01*
X101954646Y-77671465D01*
X101954645Y-77671465D01*
X101948949Y-77672444D01*
X101759193Y-77742449D01*
X101754232Y-77745401D01*
X101754231Y-77745401D01*
X101631657Y-77818325D01*
X101585371Y-77845862D01*
X101433305Y-77979220D01*
X101308089Y-78138057D01*
X101213914Y-78317053D01*
X101153937Y-78510213D01*
X101130164Y-78711069D01*
X90632043Y-78711069D01*
X90621708Y-78598591D01*
X90566807Y-78403926D01*
X90477351Y-78222527D01*
X90459079Y-78198057D01*
X90359788Y-78065091D01*
X90359787Y-78065090D01*
X90356335Y-78060467D01*
X90333350Y-78039220D01*
X90212053Y-77927094D01*
X90212051Y-77927092D01*
X90207812Y-77923174D01*
X90180374Y-77905862D01*
X90041637Y-77818325D01*
X90036757Y-77815246D01*
X89848898Y-77740298D01*
X89650526Y-77700839D01*
X89644752Y-77700763D01*
X89644748Y-77700763D01*
X89542257Y-77699422D01*
X89448286Y-77698192D01*
X89442589Y-77699171D01*
X89442588Y-77699171D01*
X89254646Y-77731465D01*
X89254645Y-77731465D01*
X89248949Y-77732444D01*
X89059193Y-77802449D01*
X89054232Y-77805401D01*
X89054231Y-77805401D01*
X88943107Y-77871513D01*
X88885371Y-77905862D01*
X88733305Y-78039220D01*
X88608089Y-78198057D01*
X88513914Y-78377053D01*
X88453937Y-78570213D01*
X88430164Y-78771069D01*
X85555500Y-78771069D01*
X85555500Y-77925326D01*
X85540966Y-77852260D01*
X85485601Y-77769399D01*
X85402740Y-77714034D01*
X85329674Y-77699500D01*
X83580326Y-77699500D01*
X83507260Y-77714034D01*
X83424399Y-77769399D01*
X83369034Y-77852260D01*
X83354500Y-77925326D01*
X83354500Y-79674674D01*
X75508437Y-79674674D01*
X75551001Y-79650837D01*
X75613433Y-79598913D01*
X75702073Y-79525191D01*
X75706505Y-79521505D01*
X75835837Y-79366001D01*
X75934664Y-79189531D01*
X75943560Y-79163326D01*
X75997820Y-79003481D01*
X75997820Y-79003479D01*
X75999678Y-78998007D01*
X76000507Y-78992291D01*
X76000508Y-78992286D01*
X76028167Y-78801516D01*
X76028700Y-78797842D01*
X76030215Y-78740000D01*
X76011708Y-78538591D01*
X75956807Y-78343926D01*
X75867351Y-78162527D01*
X75849079Y-78138057D01*
X75749788Y-78005091D01*
X75749787Y-78005090D01*
X75746335Y-78000467D01*
X75723350Y-77979220D01*
X75602053Y-77867094D01*
X75602051Y-77867092D01*
X75597812Y-77863174D01*
X75570374Y-77845862D01*
X75431637Y-77758325D01*
X75426757Y-77755246D01*
X75238898Y-77680298D01*
X75040526Y-77640839D01*
X75034752Y-77640763D01*
X75034748Y-77640763D01*
X74932257Y-77639422D01*
X74838286Y-77638192D01*
X74832589Y-77639171D01*
X74832588Y-77639171D01*
X74644646Y-77671465D01*
X74644645Y-77671465D01*
X74638949Y-77672444D01*
X74449193Y-77742449D01*
X74444232Y-77745401D01*
X74444231Y-77745401D01*
X74321657Y-77818325D01*
X74275371Y-77845862D01*
X74123305Y-77979220D01*
X73998089Y-78138057D01*
X73903914Y-78317053D01*
X73843937Y-78510213D01*
X73820164Y-78711069D01*
X68412557Y-78711069D01*
X68396708Y-78538591D01*
X68341807Y-78343926D01*
X68252351Y-78162527D01*
X68234079Y-78138057D01*
X68134788Y-78005091D01*
X68134787Y-78005090D01*
X68131335Y-78000467D01*
X68108350Y-77979220D01*
X67987053Y-77867094D01*
X67987051Y-77867092D01*
X67982812Y-77863174D01*
X67955374Y-77845862D01*
X67816637Y-77758325D01*
X67811757Y-77755246D01*
X67623898Y-77680298D01*
X67425526Y-77640839D01*
X67419752Y-77640763D01*
X67419748Y-77640763D01*
X67317257Y-77639422D01*
X67223286Y-77638192D01*
X67217589Y-77639171D01*
X67217588Y-77639171D01*
X67029646Y-77671465D01*
X67029645Y-77671465D01*
X67023949Y-77672444D01*
X66834193Y-77742449D01*
X66829232Y-77745401D01*
X66829231Y-77745401D01*
X66706657Y-77818325D01*
X66660371Y-77845862D01*
X66508305Y-77979220D01*
X66383089Y-78138057D01*
X66288914Y-78317053D01*
X66228937Y-78510213D01*
X66205164Y-78711069D01*
X65870500Y-78711069D01*
X65870500Y-77865326D01*
X65855966Y-77792260D01*
X65800601Y-77709399D01*
X65717740Y-77654034D01*
X65644674Y-77639500D01*
X63895326Y-77639500D01*
X63822260Y-77654034D01*
X63739399Y-77709399D01*
X63684034Y-77792260D01*
X63669500Y-77865326D01*
X63669500Y-79614674D01*
X60359482Y-79614674D01*
X60378433Y-79598913D01*
X60467073Y-79525191D01*
X60471505Y-79521505D01*
X60600837Y-79366001D01*
X60699664Y-79189531D01*
X60708560Y-79163326D01*
X60762820Y-79003481D01*
X60762820Y-79003479D01*
X60764678Y-78998007D01*
X60765507Y-78992291D01*
X60765508Y-78992286D01*
X60793167Y-78801516D01*
X60793700Y-78797842D01*
X60795215Y-78740000D01*
X60776708Y-78538591D01*
X60721807Y-78343926D01*
X60632351Y-78162527D01*
X60614079Y-78138057D01*
X60514788Y-78005091D01*
X60514787Y-78005090D01*
X60511335Y-78000467D01*
X60488350Y-77979220D01*
X60367053Y-77867094D01*
X60367051Y-77867092D01*
X60362812Y-77863174D01*
X60335374Y-77845862D01*
X60196637Y-77758325D01*
X60191757Y-77755246D01*
X60003898Y-77680298D01*
X59805526Y-77640839D01*
X59799752Y-77640763D01*
X59799748Y-77640763D01*
X59697257Y-77639422D01*
X59603286Y-77638192D01*
X59597589Y-77639171D01*
X59597588Y-77639171D01*
X59409646Y-77671465D01*
X59409645Y-77671465D01*
X59403949Y-77672444D01*
X59214193Y-77742449D01*
X59209232Y-77745401D01*
X59209231Y-77745401D01*
X59086657Y-77818325D01*
X59040371Y-77845862D01*
X58888305Y-77979220D01*
X58763089Y-78138057D01*
X58668914Y-78317053D01*
X58608937Y-78510213D01*
X58585164Y-78711069D01*
X58252557Y-78711069D01*
X58236708Y-78538591D01*
X58181807Y-78343926D01*
X58092351Y-78162527D01*
X58074079Y-78138057D01*
X57974788Y-78005091D01*
X57974787Y-78005090D01*
X57971335Y-78000467D01*
X57948350Y-77979220D01*
X57827053Y-77867094D01*
X57827051Y-77867092D01*
X57822812Y-77863174D01*
X57795374Y-77845862D01*
X57656637Y-77758325D01*
X57651757Y-77755246D01*
X57463898Y-77680298D01*
X57265526Y-77640839D01*
X57259752Y-77640763D01*
X57259748Y-77640763D01*
X57157257Y-77639422D01*
X57063286Y-77638192D01*
X57057589Y-77639171D01*
X57057588Y-77639171D01*
X56869646Y-77671465D01*
X56869645Y-77671465D01*
X56863949Y-77672444D01*
X56674193Y-77742449D01*
X56669232Y-77745401D01*
X56669231Y-77745401D01*
X56546657Y-77818325D01*
X56500371Y-77845862D01*
X56348305Y-77979220D01*
X56223089Y-78138057D01*
X56128914Y-78317053D01*
X56068937Y-78510213D01*
X56045164Y-78711069D01*
X55712557Y-78711069D01*
X55696708Y-78538591D01*
X55641807Y-78343926D01*
X55552351Y-78162527D01*
X55534079Y-78138057D01*
X55434788Y-78005091D01*
X55434787Y-78005090D01*
X55431335Y-78000467D01*
X55408350Y-77979220D01*
X55287053Y-77867094D01*
X55287051Y-77867092D01*
X55282812Y-77863174D01*
X55255374Y-77845862D01*
X55116637Y-77758325D01*
X55111757Y-77755246D01*
X54923898Y-77680298D01*
X54725526Y-77640839D01*
X54719752Y-77640763D01*
X54719748Y-77640763D01*
X54617257Y-77639422D01*
X54523286Y-77638192D01*
X54517589Y-77639171D01*
X54517588Y-77639171D01*
X54329646Y-77671465D01*
X54329645Y-77671465D01*
X54323949Y-77672444D01*
X54134193Y-77742449D01*
X54129232Y-77745401D01*
X54129231Y-77745401D01*
X54006657Y-77818325D01*
X53960371Y-77845862D01*
X53808305Y-77979220D01*
X53683089Y-78138057D01*
X53588914Y-78317053D01*
X53528937Y-78510213D01*
X53505164Y-78711069D01*
X48176441Y-78711069D01*
X48161330Y-78596291D01*
X48105861Y-78462375D01*
X48017621Y-78347379D01*
X47902625Y-78259139D01*
X47768709Y-78203670D01*
X47625000Y-78184750D01*
X47481291Y-78203670D01*
X47347375Y-78259139D01*
X47340824Y-78264166D01*
X47340822Y-78264167D01*
X47325451Y-78275962D01*
X47259231Y-78301563D01*
X47248747Y-78302000D01*
X42999483Y-78302000D01*
X42931362Y-78281998D01*
X42886477Y-78231728D01*
X42854906Y-78167708D01*
X42852351Y-78162527D01*
X42834079Y-78138057D01*
X42734788Y-78005091D01*
X42734787Y-78005090D01*
X42731335Y-78000467D01*
X42708350Y-77979220D01*
X42587053Y-77867094D01*
X42587051Y-77867092D01*
X42582812Y-77863174D01*
X42555374Y-77845862D01*
X42416637Y-77758325D01*
X42411757Y-77755246D01*
X42223898Y-77680298D01*
X42025526Y-77640839D01*
X42019752Y-77640763D01*
X42019748Y-77640763D01*
X41917257Y-77639422D01*
X41823286Y-77638192D01*
X41817589Y-77639171D01*
X41817588Y-77639171D01*
X41629646Y-77671465D01*
X41629645Y-77671465D01*
X41623949Y-77672444D01*
X41434193Y-77742449D01*
X41429232Y-77745401D01*
X41429231Y-77745401D01*
X41306657Y-77818325D01*
X41260371Y-77845862D01*
X41108305Y-77979220D01*
X40983089Y-78138057D01*
X40888914Y-78317053D01*
X40828937Y-78510213D01*
X40805164Y-78711069D01*
X37930500Y-78711069D01*
X37930500Y-77865326D01*
X37915966Y-77792260D01*
X37860601Y-77709399D01*
X37777740Y-77654034D01*
X37704674Y-77639500D01*
X37394000Y-77639500D01*
X37325879Y-77619498D01*
X37279386Y-77565842D01*
X37268000Y-77513500D01*
X37268000Y-76433617D01*
X37288002Y-76365496D01*
X37304904Y-76344522D01*
X37609520Y-76039905D01*
X37671833Y-76005880D01*
X37698616Y-76003000D01*
X45978747Y-76003000D01*
X46046868Y-76023002D01*
X46055451Y-76029038D01*
X46069612Y-76039904D01*
X46077375Y-76045861D01*
X46211291Y-76101330D01*
X46355000Y-76120250D01*
X46498709Y-76101330D01*
X46632625Y-76045861D01*
X46747621Y-75957621D01*
X46835861Y-75842625D01*
X46891330Y-75708709D01*
X46910250Y-75565000D01*
X115649750Y-75565000D01*
X115668670Y-75708709D01*
X115724139Y-75842625D01*
X115812379Y-75957621D01*
X115927375Y-76045861D01*
X116061291Y-76101330D01*
X116205000Y-76120250D01*
X116348709Y-76101330D01*
X116482625Y-76045861D01*
X116490389Y-76039904D01*
X116504549Y-76029038D01*
X116570769Y-76003437D01*
X116581253Y-76003000D01*
X121686383Y-76003000D01*
X121754504Y-76023002D01*
X121775478Y-76039904D01*
X122080095Y-76344520D01*
X122114120Y-76406833D01*
X122117000Y-76433616D01*
X122117000Y-77645331D01*
X122096998Y-77713452D01*
X122055423Y-77753616D01*
X122028894Y-77769399D01*
X121946657Y-77818325D01*
X121900371Y-77845862D01*
X121748305Y-77979220D01*
X121623089Y-78138057D01*
X121528914Y-78317053D01*
X121468937Y-78510213D01*
X121445164Y-78711069D01*
X121458392Y-78912894D01*
X121508178Y-79108928D01*
X121592856Y-79292607D01*
X121709588Y-79457780D01*
X121854466Y-79598913D01*
X122022637Y-79711282D01*
X122027940Y-79713560D01*
X122027943Y-79713562D01*
X122203163Y-79788842D01*
X122208470Y-79791122D01*
X122361443Y-79825737D01*
X122382941Y-79830601D01*
X122405740Y-79835760D01*
X122411509Y-79835987D01*
X122411512Y-79835987D01*
X122487683Y-79838979D01*
X122607842Y-79843700D01*
X122698186Y-79830601D01*
X122802286Y-79815508D01*
X122802291Y-79815507D01*
X122808007Y-79814678D01*
X122813479Y-79812820D01*
X122813481Y-79812820D01*
X122994067Y-79751519D01*
X122994069Y-79751518D01*
X122999531Y-79749664D01*
X123176001Y-79650837D01*
X123238433Y-79598913D01*
X123327073Y-79525191D01*
X123331505Y-79521505D01*
X123460837Y-79366001D01*
X123559664Y-79189531D01*
X123568560Y-79163326D01*
X123622820Y-79003481D01*
X123622820Y-79003479D01*
X123624678Y-78998007D01*
X123625507Y-78992291D01*
X123625508Y-78992286D01*
X123653167Y-78801516D01*
X123653700Y-78797842D01*
X123655215Y-78740000D01*
X123636708Y-78538591D01*
X123581807Y-78343926D01*
X123492351Y-78162527D01*
X123474079Y-78138057D01*
X123374788Y-78005091D01*
X123374787Y-78005090D01*
X123371335Y-78000467D01*
X123348350Y-77979220D01*
X123227053Y-77867094D01*
X123227051Y-77867092D01*
X123222812Y-77863174D01*
X123217934Y-77860096D01*
X123217922Y-77860087D01*
X123051764Y-77755249D01*
X123004826Y-77701983D01*
X122993000Y-77648688D01*
X122993000Y-76233468D01*
X122993873Y-76218659D01*
X122996621Y-76195440D01*
X122997728Y-76186087D01*
X122996036Y-76176823D01*
X122996036Y-76176819D01*
X122987493Y-76130039D01*
X122986843Y-76126138D01*
X122979767Y-76079073D01*
X122979767Y-76079071D01*
X122978366Y-76069756D01*
X122975327Y-76063428D01*
X122974066Y-76056522D01*
X122947786Y-76005930D01*
X122946017Y-76002390D01*
X122925430Y-75959517D01*
X122925429Y-75959516D01*
X122921353Y-75951027D01*
X122916589Y-75945873D01*
X122913352Y-75939642D01*
X122909163Y-75934738D01*
X122872988Y-75898563D01*
X122869559Y-75894997D01*
X122838344Y-75861229D01*
X122831949Y-75854311D01*
X122825731Y-75850699D01*
X122819908Y-75845483D01*
X122253379Y-75278954D01*
X122243525Y-75267865D01*
X122234131Y-75255949D01*
X122223218Y-75242106D01*
X122176303Y-75209681D01*
X122173127Y-75207411D01*
X122134843Y-75179133D01*
X122134841Y-75179132D01*
X122127269Y-75173539D01*
X122120646Y-75171213D01*
X122114870Y-75167221D01*
X122060444Y-75150009D01*
X122056797Y-75148791D01*
X122003000Y-75129899D01*
X121995987Y-75129623D01*
X121989292Y-75127506D01*
X121982862Y-75127000D01*
X121931696Y-75127000D01*
X121926749Y-75126903D01*
X121871393Y-75124728D01*
X121864445Y-75126570D01*
X121856638Y-75127000D01*
X116581253Y-75127000D01*
X116513132Y-75106998D01*
X116504549Y-75100962D01*
X116489178Y-75089167D01*
X116489176Y-75089166D01*
X116482625Y-75084139D01*
X116348709Y-75028670D01*
X116205000Y-75009750D01*
X116061291Y-75028670D01*
X115927375Y-75084139D01*
X115812379Y-75172379D01*
X115724139Y-75287375D01*
X115668670Y-75421291D01*
X115649750Y-75565000D01*
X46910250Y-75565000D01*
X46891330Y-75421291D01*
X46835861Y-75287375D01*
X46747621Y-75172379D01*
X46632625Y-75084139D01*
X46498709Y-75028670D01*
X46355000Y-75009750D01*
X46211291Y-75028670D01*
X46077375Y-75084139D01*
X46070824Y-75089166D01*
X46070822Y-75089167D01*
X46055451Y-75100962D01*
X45989231Y-75126563D01*
X45978747Y-75127000D01*
X45176616Y-75127000D01*
X45108495Y-75106998D01*
X45062002Y-75053342D01*
X45051898Y-74983068D01*
X45081392Y-74918488D01*
X45087521Y-74911905D01*
X45128662Y-74870764D01*
X45190974Y-74836738D01*
X45201311Y-74834937D01*
X45228709Y-74831330D01*
X45362625Y-74775861D01*
X45477621Y-74687621D01*
X45565861Y-74572625D01*
X45621330Y-74438709D01*
X45640250Y-74295000D01*
X45621330Y-74151291D01*
X45565861Y-74017375D01*
X45477621Y-73902379D01*
X45362625Y-73814139D01*
X45228709Y-73758670D01*
X45085000Y-73739750D01*
X44941291Y-73758670D01*
X44807375Y-73814139D01*
X44692379Y-73902379D01*
X44604139Y-74017375D01*
X44548670Y-74151291D01*
X44547592Y-74159480D01*
X44547592Y-74159481D01*
X44545063Y-74178689D01*
X44516341Y-74243617D01*
X44509236Y-74251339D01*
X44245482Y-74515093D01*
X44183170Y-74549119D01*
X44156387Y-74551998D01*
X35533470Y-74551998D01*
X35518661Y-74551125D01*
X35509924Y-74550091D01*
X35486089Y-74547270D01*
X35476825Y-74548962D01*
X35476821Y-74548962D01*
X35430041Y-74557505D01*
X35426140Y-74558155D01*
X35379075Y-74565231D01*
X35379073Y-74565231D01*
X35369758Y-74566632D01*
X35363430Y-74569671D01*
X35356524Y-74570932D01*
X35348164Y-74575275D01*
X35348163Y-74575275D01*
X35305933Y-74597212D01*
X35302393Y-74598981D01*
X35251029Y-74623645D01*
X35245875Y-74628409D01*
X35239644Y-74631646D01*
X35234740Y-74635835D01*
X35198565Y-74672010D01*
X35194999Y-74675439D01*
X35154313Y-74713049D01*
X35150701Y-74719267D01*
X35145485Y-74725090D01*
X34638954Y-75231621D01*
X34627865Y-75241475D01*
X34602106Y-75261782D01*
X34569681Y-75308697D01*
X34567413Y-75311870D01*
X34533539Y-75357731D01*
X34531213Y-75364354D01*
X34527221Y-75370130D01*
X34510009Y-75424556D01*
X34508791Y-75428203D01*
X34489899Y-75482000D01*
X34489623Y-75489013D01*
X34487506Y-75495708D01*
X34487000Y-75502138D01*
X34487000Y-75553304D01*
X34486903Y-75558251D01*
X34484728Y-75613607D01*
X34486570Y-75620555D01*
X34487000Y-75628362D01*
X34487000Y-80611532D01*
X34486127Y-80626341D01*
X34482272Y-80658913D01*
X33270500Y-80658913D01*
X33270500Y-72390000D01*
X48294556Y-72390000D01*
X48314312Y-72704015D01*
X48373269Y-73013079D01*
X48470497Y-73312315D01*
X48472184Y-73315901D01*
X48472186Y-73315905D01*
X48602775Y-73593421D01*
X48602779Y-73593428D01*
X48604463Y-73597007D01*
X48773053Y-73862663D01*
X48973610Y-74105094D01*
X49202970Y-74320478D01*
X49206172Y-74322805D01*
X49206174Y-74322806D01*
X49454307Y-74503085D01*
X49454312Y-74503088D01*
X49457516Y-74505416D01*
X49591688Y-74579178D01*
X49697948Y-74637595D01*
X49733234Y-74656994D01*
X49858661Y-74706654D01*
X50022092Y-74771361D01*
X50022095Y-74771362D01*
X50025775Y-74772819D01*
X50029609Y-74773803D01*
X50029617Y-74773806D01*
X50218074Y-74822193D01*
X50330527Y-74851066D01*
X50334455Y-74851562D01*
X50334459Y-74851563D01*
X50458375Y-74867217D01*
X50642682Y-74890500D01*
X50957318Y-74890500D01*
X51141625Y-74867217D01*
X51265541Y-74851563D01*
X51265545Y-74851562D01*
X51269473Y-74851066D01*
X51381926Y-74822193D01*
X51570383Y-74773806D01*
X51570391Y-74773803D01*
X51574225Y-74772819D01*
X51577905Y-74771362D01*
X51577908Y-74771361D01*
X51741339Y-74706654D01*
X51866766Y-74656994D01*
X51902053Y-74637595D01*
X52008312Y-74579178D01*
X52142484Y-74505416D01*
X52145688Y-74503088D01*
X52145693Y-74503085D01*
X52393826Y-74322806D01*
X52393828Y-74322805D01*
X52397030Y-74320478D01*
X52626390Y-74105094D01*
X52826947Y-73862663D01*
X52995537Y-73597007D01*
X52997221Y-73593428D01*
X52997225Y-73593421D01*
X53127814Y-73315905D01*
X53127816Y-73315901D01*
X53129503Y-73312315D01*
X53226731Y-73013079D01*
X53285688Y-72704015D01*
X53305444Y-72390000D01*
X95919556Y-72390000D01*
X95939312Y-72704015D01*
X95998269Y-73013079D01*
X96095497Y-73312315D01*
X96097184Y-73315901D01*
X96097186Y-73315905D01*
X96227775Y-73593421D01*
X96227779Y-73593428D01*
X96229463Y-73597007D01*
X96398053Y-73862663D01*
X96598610Y-74105094D01*
X96827970Y-74320478D01*
X96831172Y-74322805D01*
X96831174Y-74322806D01*
X97079307Y-74503085D01*
X97079312Y-74503088D01*
X97082516Y-74505416D01*
X97216688Y-74579178D01*
X97322948Y-74637595D01*
X97358234Y-74656994D01*
X97483661Y-74706654D01*
X97647092Y-74771361D01*
X97647095Y-74771362D01*
X97650775Y-74772819D01*
X97654609Y-74773803D01*
X97654617Y-74773806D01*
X97843074Y-74822193D01*
X97955527Y-74851066D01*
X97959455Y-74851562D01*
X97959459Y-74851563D01*
X98083375Y-74867217D01*
X98267682Y-74890500D01*
X98582318Y-74890500D01*
X98766625Y-74867217D01*
X98890541Y-74851563D01*
X98890545Y-74851562D01*
X98894473Y-74851066D01*
X99006926Y-74822193D01*
X99195383Y-74773806D01*
X99195391Y-74773803D01*
X99199225Y-74772819D01*
X99202905Y-74771362D01*
X99202908Y-74771361D01*
X99366339Y-74706654D01*
X99491766Y-74656994D01*
X99527053Y-74637595D01*
X99633312Y-74579178D01*
X99767484Y-74505416D01*
X99770688Y-74503088D01*
X99770693Y-74503085D01*
X100018826Y-74322806D01*
X100018828Y-74322805D01*
X100022030Y-74320478D01*
X100251390Y-74105094D01*
X100451947Y-73862663D01*
X100620537Y-73597007D01*
X100622221Y-73593428D01*
X100622225Y-73593421D01*
X100752814Y-73315905D01*
X100752816Y-73315901D01*
X100754503Y-73312315D01*
X100851731Y-73013079D01*
X100910688Y-72704015D01*
X100930444Y-72390000D01*
X100910688Y-72075985D01*
X100851731Y-71766921D01*
X100754503Y-71467685D01*
X100752814Y-71464095D01*
X100622225Y-71186579D01*
X100622221Y-71186572D01*
X100620537Y-71182993D01*
X100451947Y-70917337D01*
X100251390Y-70674906D01*
X100022030Y-70459522D01*
X100018826Y-70457194D01*
X99770693Y-70276915D01*
X99770688Y-70276912D01*
X99767484Y-70274584D01*
X99491766Y-70123006D01*
X99332363Y-70059894D01*
X99202908Y-70008639D01*
X99202905Y-70008638D01*
X99199225Y-70007181D01*
X99195391Y-70006197D01*
X99195383Y-70006194D01*
X99006926Y-69957807D01*
X98894473Y-69928934D01*
X98890545Y-69928438D01*
X98890541Y-69928437D01*
X98766625Y-69912783D01*
X98582318Y-69889500D01*
X98267682Y-69889500D01*
X98083375Y-69912783D01*
X97959459Y-69928437D01*
X97959455Y-69928438D01*
X97955527Y-69928934D01*
X97843074Y-69957807D01*
X97654617Y-70006194D01*
X97654609Y-70006197D01*
X97650775Y-70007181D01*
X97647095Y-70008638D01*
X97647092Y-70008639D01*
X97517638Y-70059894D01*
X97358234Y-70123006D01*
X97082516Y-70274584D01*
X97079312Y-70276912D01*
X97079307Y-70276915D01*
X96831174Y-70457194D01*
X96827970Y-70459522D01*
X96598610Y-70674906D01*
X96398053Y-70917337D01*
X96229463Y-71182993D01*
X96227779Y-71186572D01*
X96227775Y-71186579D01*
X96097186Y-71464095D01*
X96095497Y-71467685D01*
X95998269Y-71766921D01*
X95939312Y-72075985D01*
X95919556Y-72390000D01*
X53305444Y-72390000D01*
X53285688Y-72075985D01*
X53226731Y-71766921D01*
X53129503Y-71467685D01*
X53127814Y-71464095D01*
X52997225Y-71186579D01*
X52997221Y-71186572D01*
X52995537Y-71182993D01*
X52826947Y-70917337D01*
X52626390Y-70674906D01*
X52397030Y-70459522D01*
X52393826Y-70457194D01*
X52145693Y-70276915D01*
X52145688Y-70276912D01*
X52142484Y-70274584D01*
X51866766Y-70123006D01*
X51707363Y-70059894D01*
X51577908Y-70008639D01*
X51577905Y-70008638D01*
X51574225Y-70007181D01*
X51570391Y-70006197D01*
X51570383Y-70006194D01*
X51381926Y-69957807D01*
X51269473Y-69928934D01*
X51265545Y-69928438D01*
X51265541Y-69928437D01*
X51141625Y-69912783D01*
X50957318Y-69889500D01*
X50642682Y-69889500D01*
X50458375Y-69912783D01*
X50334459Y-69928437D01*
X50334455Y-69928438D01*
X50330527Y-69928934D01*
X50218074Y-69957807D01*
X50029617Y-70006194D01*
X50029609Y-70006197D01*
X50025775Y-70007181D01*
X50022095Y-70008638D01*
X50022092Y-70008639D01*
X49892637Y-70059894D01*
X49733234Y-70123006D01*
X49457516Y-70274584D01*
X49454312Y-70276912D01*
X49454307Y-70276915D01*
X49206174Y-70457194D01*
X49202970Y-70459522D01*
X48973610Y-70674906D01*
X48773053Y-70917337D01*
X48604463Y-71182993D01*
X48602779Y-71186572D01*
X48602775Y-71186579D01*
X48472186Y-71464095D01*
X48470497Y-71467685D01*
X48373269Y-71766921D01*
X48314312Y-72075985D01*
X48294556Y-72390000D01*
X33270500Y-72390000D01*
X33270500Y-68580000D01*
X86439750Y-68580000D01*
X86458670Y-68723709D01*
X86514139Y-68857625D01*
X86602379Y-68972621D01*
X86717375Y-69060861D01*
X86851291Y-69116330D01*
X86995000Y-69135250D01*
X87138709Y-69116330D01*
X87272625Y-69060861D01*
X87387621Y-68972621D01*
X87475861Y-68857625D01*
X87531330Y-68723709D01*
X87534937Y-68696312D01*
X87563659Y-68631385D01*
X87570763Y-68623663D01*
X87774520Y-68419905D01*
X87836832Y-68385880D01*
X87863616Y-68383000D01*
X118368747Y-68383000D01*
X118436868Y-68403002D01*
X118445452Y-68409038D01*
X118467375Y-68425861D01*
X118601291Y-68481330D01*
X118745000Y-68500250D01*
X118888709Y-68481330D01*
X119022625Y-68425861D01*
X119137621Y-68337621D01*
X119225861Y-68222625D01*
X119281330Y-68088709D01*
X119300250Y-67945000D01*
X119281330Y-67801291D01*
X119225861Y-67667375D01*
X119137621Y-67552379D01*
X119022625Y-67464139D01*
X118888709Y-67408670D01*
X118745000Y-67389750D01*
X118601291Y-67408670D01*
X118467375Y-67464139D01*
X118460824Y-67469166D01*
X118460822Y-67469167D01*
X118445451Y-67480962D01*
X118379231Y-67506563D01*
X118368747Y-67507000D01*
X116296616Y-67507000D01*
X116228495Y-67486998D01*
X116182002Y-67433342D01*
X116171898Y-67363068D01*
X116201392Y-67298488D01*
X116207521Y-67291905D01*
X116248662Y-67250764D01*
X116310974Y-67216738D01*
X116321311Y-67214937D01*
X116348709Y-67211330D01*
X116482625Y-67155861D01*
X116597621Y-67067621D01*
X116685861Y-66952625D01*
X116741330Y-66818709D01*
X116760250Y-66675000D01*
X116741330Y-66531291D01*
X116685861Y-66397375D01*
X116597621Y-66282379D01*
X116482625Y-66194139D01*
X116348709Y-66138670D01*
X116205000Y-66119750D01*
X116061291Y-66138670D01*
X115927375Y-66194139D01*
X115812379Y-66282379D01*
X115724139Y-66397375D01*
X115668670Y-66531291D01*
X115667592Y-66539480D01*
X115667592Y-66539481D01*
X115665063Y-66558689D01*
X115636341Y-66623617D01*
X115629236Y-66631339D01*
X115425480Y-66835095D01*
X115363168Y-66869121D01*
X115336385Y-66872000D01*
X87371253Y-66872000D01*
X87303132Y-66851998D01*
X87294549Y-66845962D01*
X87279178Y-66834167D01*
X87279176Y-66834166D01*
X87272625Y-66829139D01*
X87138709Y-66773670D01*
X86995000Y-66754750D01*
X86851291Y-66773670D01*
X86717375Y-66829139D01*
X86602379Y-66917379D01*
X86514139Y-67032375D01*
X86458670Y-67166291D01*
X86439750Y-67310000D01*
X86458670Y-67453709D01*
X86514139Y-67587625D01*
X86602379Y-67702621D01*
X86717375Y-67790861D01*
X86725002Y-67794020D01*
X86725007Y-67794023D01*
X86808464Y-67828591D01*
X86863746Y-67873139D01*
X86886167Y-67940502D01*
X86868609Y-68009293D01*
X86816648Y-68057672D01*
X86808464Y-68061409D01*
X86725007Y-68095977D01*
X86725002Y-68095980D01*
X86717375Y-68099139D01*
X86602379Y-68187379D01*
X86514139Y-68302375D01*
X86458670Y-68436291D01*
X86439750Y-68580000D01*
X33270500Y-68580000D01*
X33270500Y-59690000D01*
X43259750Y-59690000D01*
X43278670Y-59833709D01*
X43334139Y-59967625D01*
X43422379Y-60082621D01*
X43537375Y-60170861D01*
X43671291Y-60226330D01*
X43815000Y-60245250D01*
X43958709Y-60226330D01*
X44092625Y-60170861D01*
X44114549Y-60154038D01*
X44180769Y-60128437D01*
X44191253Y-60128000D01*
X48026384Y-60128000D01*
X48094505Y-60148002D01*
X48115479Y-60164905D01*
X48892479Y-60941905D01*
X48926505Y-61004217D01*
X48921440Y-61075032D01*
X48878893Y-61131868D01*
X48812373Y-61156679D01*
X48803384Y-61157000D01*
X48493615Y-61157000D01*
X48425494Y-61136998D01*
X48404520Y-61120095D01*
X48200764Y-60916339D01*
X48166738Y-60854027D01*
X48164937Y-60843689D01*
X48162408Y-60824481D01*
X48162408Y-60824480D01*
X48161330Y-60816291D01*
X48105861Y-60682375D01*
X48017621Y-60567379D01*
X47902625Y-60479139D01*
X47768709Y-60423670D01*
X47625000Y-60404750D01*
X47481291Y-60423670D01*
X47347375Y-60479139D01*
X47232379Y-60567379D01*
X47144139Y-60682375D01*
X47088670Y-60816291D01*
X47069750Y-60960000D01*
X47088670Y-61103709D01*
X47144139Y-61237625D01*
X47232379Y-61352621D01*
X47347375Y-61440861D01*
X47481291Y-61496330D01*
X47507710Y-61499808D01*
X47508688Y-61499937D01*
X47573615Y-61528659D01*
X47581337Y-61535764D01*
X47622478Y-61576905D01*
X47656504Y-61639217D01*
X47651439Y-61710032D01*
X47608892Y-61766868D01*
X47542372Y-61791679D01*
X47533383Y-61792000D01*
X47223615Y-61792000D01*
X47155494Y-61771998D01*
X47134520Y-61755095D01*
X46930764Y-61551339D01*
X46896738Y-61489027D01*
X46894937Y-61478689D01*
X46892408Y-61459481D01*
X46892408Y-61459480D01*
X46891330Y-61451291D01*
X46835861Y-61317375D01*
X46747621Y-61202379D01*
X46632625Y-61114139D01*
X46498709Y-61058670D01*
X46355000Y-61039750D01*
X46211291Y-61058670D01*
X46077375Y-61114139D01*
X45962379Y-61202379D01*
X45874139Y-61317375D01*
X45818670Y-61451291D01*
X45799750Y-61595000D01*
X45818670Y-61738709D01*
X45874139Y-61872625D01*
X45962379Y-61987621D01*
X46077375Y-62075861D01*
X46211291Y-62131330D01*
X46237710Y-62134808D01*
X46238688Y-62134937D01*
X46303615Y-62163659D01*
X46311337Y-62170764D01*
X46352478Y-62211905D01*
X46386504Y-62274217D01*
X46381439Y-62345032D01*
X46338892Y-62401868D01*
X46272372Y-62426679D01*
X46263383Y-62427000D01*
X45461253Y-62427000D01*
X45393132Y-62406998D01*
X45384549Y-62400962D01*
X45369178Y-62389167D01*
X45369176Y-62389166D01*
X45362625Y-62384139D01*
X45228709Y-62328670D01*
X45085000Y-62309750D01*
X44941291Y-62328670D01*
X44807375Y-62384139D01*
X44692379Y-62472379D01*
X44604139Y-62587375D01*
X44548670Y-62721291D01*
X44529750Y-62865000D01*
X44548670Y-63008709D01*
X44604139Y-63142625D01*
X44692379Y-63257621D01*
X44807375Y-63345861D01*
X44941291Y-63401330D01*
X45085000Y-63420250D01*
X45228709Y-63401330D01*
X45362625Y-63345861D01*
X45384549Y-63329038D01*
X45450769Y-63303437D01*
X45461253Y-63303000D01*
X67711384Y-63303000D01*
X67779505Y-63323002D01*
X67800479Y-63339905D01*
X69274236Y-64813661D01*
X69308261Y-64875973D01*
X69310063Y-64886309D01*
X69313670Y-64913709D01*
X69369139Y-65047625D01*
X69457379Y-65162621D01*
X69572375Y-65250861D01*
X69706291Y-65306330D01*
X69850000Y-65325250D01*
X69993709Y-65306330D01*
X70127625Y-65250861D01*
X70242621Y-65162621D01*
X70330861Y-65047625D01*
X70386330Y-64913709D01*
X70405250Y-64770000D01*
X70386330Y-64626291D01*
X70330861Y-64492375D01*
X70242621Y-64377379D01*
X70127625Y-64289139D01*
X70119998Y-64285980D01*
X70119993Y-64285977D01*
X70036536Y-64251409D01*
X69981254Y-64206861D01*
X69958833Y-64139498D01*
X69976391Y-64070707D01*
X70028352Y-64022328D01*
X70036536Y-64018591D01*
X70119993Y-63984023D01*
X70119998Y-63984020D01*
X70127625Y-63980861D01*
X70242621Y-63892621D01*
X70330861Y-63777625D01*
X70386330Y-63643709D01*
X70405250Y-63500000D01*
X70386330Y-63356291D01*
X70330861Y-63222375D01*
X70242621Y-63107379D01*
X70127625Y-63019139D01*
X70119998Y-63015980D01*
X70119993Y-63015977D01*
X70036536Y-62981409D01*
X69981254Y-62936861D01*
X69958833Y-62869498D01*
X69976391Y-62800707D01*
X70028352Y-62752328D01*
X70036536Y-62748591D01*
X70119993Y-62714023D01*
X70119998Y-62714020D01*
X70127625Y-62710861D01*
X70242621Y-62622621D01*
X70330861Y-62507625D01*
X70386330Y-62373709D01*
X70405250Y-62230000D01*
X70386330Y-62086291D01*
X70330861Y-61952375D01*
X70242621Y-61837379D01*
X70127625Y-61749139D01*
X70119998Y-61745980D01*
X70119993Y-61745977D01*
X70036536Y-61711409D01*
X69981254Y-61666861D01*
X69958833Y-61599498D01*
X69976391Y-61530707D01*
X70028352Y-61482328D01*
X70036536Y-61478591D01*
X70119993Y-61444023D01*
X70119998Y-61444020D01*
X70127625Y-61440861D01*
X70242621Y-61352621D01*
X70330861Y-61237625D01*
X70386330Y-61103709D01*
X70405250Y-60960000D01*
X70386330Y-60816291D01*
X70330861Y-60682375D01*
X70242621Y-60567379D01*
X70127625Y-60479139D01*
X69993709Y-60423670D01*
X69850000Y-60404750D01*
X69706291Y-60423670D01*
X69572375Y-60479139D01*
X69565824Y-60484166D01*
X69565822Y-60484167D01*
X69550451Y-60495962D01*
X69484231Y-60521563D01*
X69473747Y-60522000D01*
X49763616Y-60522000D01*
X49695495Y-60501998D01*
X49674521Y-60485095D01*
X48593379Y-59403954D01*
X48583525Y-59392865D01*
X48582718Y-59391841D01*
X48563218Y-59367106D01*
X48516303Y-59334681D01*
X48513127Y-59332411D01*
X48474843Y-59304133D01*
X48474841Y-59304132D01*
X48467269Y-59298539D01*
X48460646Y-59296213D01*
X48454870Y-59292221D01*
X48400444Y-59275009D01*
X48396797Y-59273791D01*
X48343000Y-59254899D01*
X48335987Y-59254623D01*
X48329292Y-59252506D01*
X48322862Y-59252000D01*
X48271696Y-59252000D01*
X48266749Y-59251903D01*
X48211393Y-59249728D01*
X48204445Y-59251570D01*
X48196638Y-59252000D01*
X44191253Y-59252000D01*
X44123132Y-59231998D01*
X44114549Y-59225962D01*
X44099178Y-59214167D01*
X44099176Y-59214166D01*
X44092625Y-59209139D01*
X43958709Y-59153670D01*
X43815000Y-59134750D01*
X43671291Y-59153670D01*
X43537375Y-59209139D01*
X43422379Y-59297379D01*
X43334139Y-59412375D01*
X43278670Y-59546291D01*
X43259750Y-59690000D01*
X33270500Y-59690000D01*
X33270500Y-58476630D01*
X74949500Y-58476630D01*
X74949749Y-58479417D01*
X74949749Y-58479423D01*
X74952431Y-58509474D01*
X74964289Y-58642339D01*
X74965770Y-58647753D01*
X74965771Y-58647758D01*
X74976344Y-58686406D01*
X75023192Y-58857651D01*
X75119292Y-59059129D01*
X75249552Y-59240405D01*
X75267727Y-59258018D01*
X75379585Y-59366416D01*
X75409854Y-59395749D01*
X75595132Y-59520250D01*
X75799529Y-59609974D01*
X75804977Y-59611282D01*
X75804983Y-59611284D01*
X76011128Y-59660775D01*
X76011129Y-59660775D01*
X76016585Y-59662085D01*
X76089621Y-59666296D01*
X76233831Y-59674611D01*
X76233834Y-59674611D01*
X76239438Y-59674934D01*
X76461044Y-59648117D01*
X76674400Y-59582481D01*
X76755155Y-59540800D01*
X76867774Y-59482672D01*
X76872759Y-59480099D01*
X76877201Y-59476690D01*
X76877205Y-59476688D01*
X77045410Y-59347620D01*
X77049854Y-59344210D01*
X77061602Y-59331299D01*
X77122242Y-59294376D01*
X77193218Y-59296099D01*
X77242481Y-59325615D01*
X77310820Y-59391841D01*
X77310826Y-59391846D01*
X77314854Y-59395749D01*
X77500132Y-59520250D01*
X77704529Y-59609974D01*
X77709977Y-59611282D01*
X77709983Y-59611284D01*
X77916128Y-59660775D01*
X77916129Y-59660775D01*
X77921585Y-59662085D01*
X77994621Y-59666296D01*
X78138831Y-59674611D01*
X78138834Y-59674611D01*
X78144438Y-59674934D01*
X78366044Y-59648117D01*
X78579400Y-59582481D01*
X78660155Y-59540800D01*
X78772774Y-59482672D01*
X78777759Y-59480099D01*
X78782201Y-59476690D01*
X78782205Y-59476688D01*
X78950410Y-59347620D01*
X78954854Y-59344210D01*
X79105086Y-59179107D01*
X79223707Y-58990010D01*
X79306966Y-58782895D01*
X79328059Y-58681044D01*
X79351296Y-58568834D01*
X79352233Y-58564310D01*
X79355500Y-58507651D01*
X79355500Y-58459438D01*
X98440066Y-58459438D01*
X98466883Y-58681044D01*
X98532519Y-58894400D01*
X98535095Y-58899390D01*
X98535095Y-58899391D01*
X98581868Y-58990010D01*
X98634901Y-59092759D01*
X98638310Y-59097201D01*
X98638312Y-59097205D01*
X98721777Y-59205979D01*
X98770790Y-59269854D01*
X98935893Y-59420086D01*
X99124990Y-59538707D01*
X99332105Y-59621966D01*
X99337593Y-59623103D01*
X99337598Y-59623104D01*
X99461637Y-59648791D01*
X99550690Y-59667233D01*
X99555303Y-59667499D01*
X99605526Y-59670395D01*
X99605530Y-59670395D01*
X99607349Y-59670500D01*
X109911630Y-59670500D01*
X109914417Y-59670251D01*
X109914423Y-59670251D01*
X109983997Y-59664041D01*
X110077339Y-59655711D01*
X110082753Y-59654230D01*
X110082758Y-59654229D01*
X110244524Y-59609974D01*
X110292651Y-59596808D01*
X110297709Y-59594396D01*
X110297713Y-59594394D01*
X110414561Y-59538660D01*
X110494129Y-59500708D01*
X110675405Y-59370448D01*
X110767869Y-59275033D01*
X110826846Y-59214174D01*
X110826852Y-59214167D01*
X110830749Y-59210146D01*
X110955250Y-59024868D01*
X111044974Y-58820471D01*
X111046282Y-58815023D01*
X111046284Y-58815017D01*
X111095775Y-58608872D01*
X111095775Y-58608871D01*
X111097085Y-58603415D01*
X111109934Y-58380562D01*
X111083117Y-58158956D01*
X111017481Y-57945600D01*
X110915099Y-57747241D01*
X110911690Y-57742799D01*
X110911688Y-57742795D01*
X110782620Y-57574590D01*
X110779210Y-57570146D01*
X110766299Y-57558398D01*
X110729376Y-57497758D01*
X110731099Y-57426782D01*
X110760615Y-57377519D01*
X110826841Y-57309180D01*
X110826847Y-57309172D01*
X110830749Y-57305146D01*
X110955250Y-57119868D01*
X111044974Y-56915471D01*
X111046282Y-56910023D01*
X111046284Y-56910017D01*
X111095775Y-56703872D01*
X111095775Y-56703871D01*
X111097085Y-56698415D01*
X111106385Y-56537119D01*
X111109611Y-56481169D01*
X111109611Y-56481166D01*
X111109934Y-56475562D01*
X111083117Y-56253956D01*
X111017481Y-56040600D01*
X110915099Y-55842241D01*
X110911690Y-55837799D01*
X110911688Y-55837795D01*
X110782620Y-55669590D01*
X110779210Y-55665146D01*
X110614107Y-55514914D01*
X110425010Y-55396293D01*
X110217895Y-55313034D01*
X110212407Y-55311897D01*
X110212402Y-55311896D01*
X110047845Y-55277818D01*
X109999310Y-55267767D01*
X109994697Y-55267501D01*
X109944474Y-55264605D01*
X109944470Y-55264605D01*
X109942651Y-55264500D01*
X99638370Y-55264500D01*
X99635583Y-55264749D01*
X99635577Y-55264749D01*
X99566003Y-55270959D01*
X99472661Y-55279289D01*
X99467247Y-55280770D01*
X99467242Y-55280771D01*
X99353470Y-55311896D01*
X99257349Y-55338192D01*
X99252291Y-55340604D01*
X99252287Y-55340606D01*
X99156610Y-55386242D01*
X99055871Y-55434292D01*
X98874595Y-55564552D01*
X98719251Y-55724854D01*
X98594750Y-55910132D01*
X98505026Y-56114529D01*
X98503718Y-56119977D01*
X98503716Y-56119983D01*
X98464877Y-56281761D01*
X98452915Y-56331585D01*
X98452592Y-56337190D01*
X98440812Y-56541508D01*
X98440066Y-56554438D01*
X98466883Y-56776044D01*
X98532519Y-56989400D01*
X98634901Y-57187759D01*
X98638310Y-57192201D01*
X98638312Y-57192205D01*
X98724975Y-57305146D01*
X98770790Y-57364854D01*
X98774933Y-57368624D01*
X98774935Y-57368626D01*
X98783701Y-57376602D01*
X98820624Y-57437242D01*
X98818901Y-57508218D01*
X98789385Y-57557481D01*
X98723159Y-57625820D01*
X98723153Y-57625828D01*
X98719251Y-57629854D01*
X98594750Y-57815132D01*
X98505026Y-58019529D01*
X98503718Y-58024977D01*
X98503716Y-58024983D01*
X98454225Y-58231128D01*
X98452915Y-58236585D01*
X98440066Y-58459438D01*
X79355500Y-58459438D01*
X79355500Y-54025800D01*
X83454500Y-54025800D01*
X83469880Y-54177216D01*
X83530662Y-54371172D01*
X83629203Y-54548944D01*
X83761477Y-54703271D01*
X83922081Y-54827848D01*
X84104455Y-54917587D01*
X84110633Y-54919196D01*
X84110635Y-54919197D01*
X84294966Y-54967212D01*
X84294969Y-54967212D01*
X84301148Y-54968822D01*
X84382328Y-54973076D01*
X84497744Y-54979125D01*
X84497748Y-54979125D01*
X84504126Y-54979459D01*
X84705097Y-54949065D01*
X84895852Y-54878881D01*
X85022623Y-54800280D01*
X85091058Y-54781384D01*
X85158846Y-54802485D01*
X85166227Y-54807794D01*
X85192081Y-54827848D01*
X85374455Y-54917587D01*
X85380633Y-54919196D01*
X85380635Y-54919197D01*
X85564966Y-54967212D01*
X85564969Y-54967212D01*
X85571148Y-54968822D01*
X85652328Y-54973076D01*
X85767744Y-54979125D01*
X85767748Y-54979125D01*
X85774126Y-54979459D01*
X85975097Y-54949065D01*
X86165852Y-54878881D01*
X86171273Y-54875520D01*
X86333176Y-54775137D01*
X86333180Y-54775134D01*
X86338599Y-54771774D01*
X86416927Y-54697703D01*
X86480165Y-54665431D01*
X86550812Y-54672471D01*
X86606437Y-54716588D01*
X86629500Y-54789251D01*
X86629500Y-55930800D01*
X86644880Y-56082216D01*
X86705662Y-56276172D01*
X86804203Y-56453944D01*
X86936477Y-56608271D01*
X87097081Y-56732848D01*
X87279455Y-56822587D01*
X87285633Y-56824196D01*
X87285635Y-56824197D01*
X87469966Y-56872212D01*
X87469969Y-56872212D01*
X87476148Y-56873822D01*
X87557328Y-56878076D01*
X87672744Y-56884125D01*
X87672748Y-56884125D01*
X87679126Y-56884459D01*
X87880097Y-56854065D01*
X88070852Y-56783881D01*
X88197623Y-56705280D01*
X88266058Y-56686384D01*
X88333846Y-56707485D01*
X88341227Y-56712794D01*
X88367081Y-56732848D01*
X88549455Y-56822587D01*
X88555633Y-56824196D01*
X88555635Y-56824197D01*
X88739966Y-56872212D01*
X88739969Y-56872212D01*
X88746148Y-56873822D01*
X88827328Y-56878076D01*
X88942744Y-56884125D01*
X88942748Y-56884125D01*
X88949126Y-56884459D01*
X89150097Y-56854065D01*
X89340852Y-56783881D01*
X89362479Y-56770472D01*
X89508176Y-56680137D01*
X89508180Y-56680134D01*
X89513599Y-56676774D01*
X89661280Y-56537119D01*
X89777863Y-56370621D01*
X89858586Y-56184081D01*
X89888561Y-56040600D01*
X89899162Y-55989856D01*
X89899163Y-55989851D01*
X89900151Y-55985120D01*
X89900500Y-55978461D01*
X89900500Y-48209200D01*
X89885120Y-48057784D01*
X89824338Y-47863828D01*
X89725797Y-47686056D01*
X89593523Y-47531729D01*
X89432919Y-47407152D01*
X89250545Y-47317413D01*
X89244367Y-47315804D01*
X89244365Y-47315803D01*
X89060034Y-47267788D01*
X89060031Y-47267788D01*
X89053852Y-47266178D01*
X88972672Y-47261924D01*
X88857256Y-47255875D01*
X88857252Y-47255875D01*
X88850874Y-47255541D01*
X88649903Y-47285935D01*
X88459148Y-47356119D01*
X88453728Y-47359479D01*
X88453727Y-47359480D01*
X88332377Y-47434720D01*
X88263942Y-47453616D01*
X88196154Y-47432515D01*
X88188773Y-47427206D01*
X88162919Y-47407152D01*
X87980545Y-47317413D01*
X87974367Y-47315804D01*
X87974365Y-47315803D01*
X87790034Y-47267788D01*
X87790031Y-47267788D01*
X87783852Y-47266178D01*
X87702672Y-47261924D01*
X87587256Y-47255875D01*
X87587252Y-47255875D01*
X87580874Y-47255541D01*
X87379903Y-47285935D01*
X87189148Y-47356119D01*
X87183728Y-47359479D01*
X87183727Y-47359480D01*
X87021824Y-47459863D01*
X87021820Y-47459866D01*
X87016401Y-47463226D01*
X86868720Y-47602881D01*
X86752137Y-47769379D01*
X86671414Y-47955919D01*
X86629849Y-48154880D01*
X86629500Y-48161539D01*
X86629500Y-49344551D01*
X86609498Y-49412672D01*
X86555842Y-49459165D01*
X86485568Y-49469269D01*
X86418526Y-49436725D01*
X86418523Y-49436729D01*
X86418506Y-49436716D01*
X86418507Y-49436716D01*
X86413482Y-49432819D01*
X86413478Y-49432815D01*
X86313712Y-49355429D01*
X86257919Y-49312152D01*
X86075545Y-49222413D01*
X86069367Y-49220804D01*
X86069365Y-49220803D01*
X85885034Y-49172788D01*
X85885031Y-49172788D01*
X85878852Y-49171178D01*
X85797672Y-49166924D01*
X85682256Y-49160875D01*
X85682252Y-49160875D01*
X85675874Y-49160541D01*
X85474903Y-49190935D01*
X85284148Y-49261119D01*
X85278728Y-49264479D01*
X85278727Y-49264480D01*
X85157377Y-49339720D01*
X85088942Y-49358616D01*
X85021154Y-49337515D01*
X85013773Y-49332206D01*
X84987919Y-49312152D01*
X84805545Y-49222413D01*
X84799367Y-49220804D01*
X84799365Y-49220803D01*
X84615034Y-49172788D01*
X84615031Y-49172788D01*
X84608852Y-49171178D01*
X84527672Y-49166924D01*
X84412256Y-49160875D01*
X84412252Y-49160875D01*
X84405874Y-49160541D01*
X84204903Y-49190935D01*
X84014148Y-49261119D01*
X84008728Y-49264479D01*
X84008727Y-49264480D01*
X83846824Y-49364863D01*
X83846820Y-49364866D01*
X83841401Y-49368226D01*
X83693720Y-49507881D01*
X83577137Y-49674379D01*
X83496414Y-49860919D01*
X83454849Y-50059880D01*
X83454500Y-50066539D01*
X83454500Y-54025800D01*
X79355500Y-54025800D01*
X79355500Y-49473370D01*
X79352732Y-49442349D01*
X79349041Y-49401003D01*
X79340711Y-49307661D01*
X79327979Y-49261119D01*
X79283288Y-49097760D01*
X79281808Y-49092349D01*
X79185708Y-48890871D01*
X79055448Y-48709595D01*
X78988535Y-48644752D01*
X78899174Y-48558154D01*
X78899171Y-48558152D01*
X78895146Y-48554251D01*
X78709868Y-48429750D01*
X78505471Y-48340026D01*
X78500023Y-48338718D01*
X78500017Y-48338716D01*
X78293872Y-48289225D01*
X78293871Y-48289225D01*
X78288415Y-48287915D01*
X78204197Y-48283059D01*
X78071169Y-48275389D01*
X78071166Y-48275389D01*
X78065562Y-48275066D01*
X77843956Y-48301883D01*
X77630600Y-48367519D01*
X77432241Y-48469901D01*
X77427799Y-48473310D01*
X77427795Y-48473312D01*
X77322313Y-48554251D01*
X77255146Y-48605790D01*
X77251376Y-48609933D01*
X77251374Y-48609935D01*
X77243398Y-48618701D01*
X77182758Y-48655624D01*
X77111782Y-48653901D01*
X77062519Y-48624385D01*
X76994180Y-48558159D01*
X76994172Y-48558153D01*
X76990146Y-48554251D01*
X76804868Y-48429750D01*
X76600471Y-48340026D01*
X76595023Y-48338718D01*
X76595017Y-48338716D01*
X76388872Y-48289225D01*
X76388871Y-48289225D01*
X76383415Y-48287915D01*
X76299197Y-48283059D01*
X76166169Y-48275389D01*
X76166166Y-48275389D01*
X76160562Y-48275066D01*
X75938956Y-48301883D01*
X75725600Y-48367519D01*
X75527241Y-48469901D01*
X75522799Y-48473310D01*
X75522795Y-48473312D01*
X75417313Y-48554251D01*
X75350146Y-48605790D01*
X75199914Y-48770893D01*
X75081293Y-48959990D01*
X74998034Y-49167105D01*
X74996897Y-49172593D01*
X74996896Y-49172598D01*
X74963846Y-49332192D01*
X74952767Y-49385690D01*
X74949500Y-49442349D01*
X74949500Y-58476630D01*
X33270500Y-58476630D01*
X33270500Y-42545000D01*
X35594556Y-42545000D01*
X35614312Y-42859015D01*
X35673269Y-43168079D01*
X35770497Y-43467315D01*
X35772184Y-43470901D01*
X35772186Y-43470905D01*
X35902775Y-43748421D01*
X35902779Y-43748428D01*
X35904463Y-43752007D01*
X36073053Y-44017663D01*
X36273610Y-44260094D01*
X36502970Y-44475478D01*
X36506172Y-44477805D01*
X36506174Y-44477806D01*
X36754307Y-44658085D01*
X36754312Y-44658088D01*
X36757516Y-44660416D01*
X37033234Y-44811994D01*
X37192637Y-44875106D01*
X37322092Y-44926361D01*
X37322095Y-44926362D01*
X37325775Y-44927819D01*
X37329609Y-44928803D01*
X37329617Y-44928806D01*
X37518074Y-44977193D01*
X37630527Y-45006066D01*
X37634455Y-45006562D01*
X37634459Y-45006563D01*
X37758375Y-45022217D01*
X37942682Y-45045500D01*
X38257318Y-45045500D01*
X38441625Y-45022217D01*
X38565541Y-45006563D01*
X38565545Y-45006562D01*
X38569473Y-45006066D01*
X38681926Y-44977193D01*
X38870383Y-44928806D01*
X38870391Y-44928803D01*
X38874225Y-44927819D01*
X38877905Y-44926362D01*
X38877908Y-44926361D01*
X39007363Y-44875106D01*
X39166766Y-44811994D01*
X39442484Y-44660416D01*
X39445688Y-44658088D01*
X39445693Y-44658085D01*
X39693826Y-44477806D01*
X39693828Y-44477805D01*
X39697030Y-44475478D01*
X39926390Y-44260094D01*
X40126947Y-44017663D01*
X40295537Y-43752007D01*
X40297221Y-43748428D01*
X40297225Y-43748421D01*
X40427814Y-43470905D01*
X40427816Y-43470901D01*
X40429503Y-43467315D01*
X40526731Y-43168079D01*
X40585688Y-42859015D01*
X40605444Y-42545000D01*
X64169556Y-42545000D01*
X64189312Y-42859015D01*
X64248269Y-43168079D01*
X64345497Y-43467315D01*
X64347184Y-43470901D01*
X64347186Y-43470905D01*
X64477775Y-43748421D01*
X64477779Y-43748428D01*
X64479463Y-43752007D01*
X64648053Y-44017663D01*
X64848610Y-44260094D01*
X65077970Y-44475478D01*
X65081172Y-44477805D01*
X65081174Y-44477806D01*
X65329307Y-44658085D01*
X65329312Y-44658088D01*
X65332516Y-44660416D01*
X65608234Y-44811994D01*
X65767637Y-44875106D01*
X65897092Y-44926361D01*
X65897095Y-44926362D01*
X65900775Y-44927819D01*
X65904609Y-44928803D01*
X65904617Y-44928806D01*
X66093074Y-44977193D01*
X66205527Y-45006066D01*
X66209455Y-45006562D01*
X66209459Y-45006563D01*
X66333375Y-45022217D01*
X66517682Y-45045500D01*
X66832318Y-45045500D01*
X67016625Y-45022217D01*
X67140541Y-45006563D01*
X67140545Y-45006562D01*
X67144473Y-45006066D01*
X67256926Y-44977193D01*
X67445383Y-44928806D01*
X67445391Y-44928803D01*
X67449225Y-44927819D01*
X67452905Y-44926362D01*
X67452908Y-44926361D01*
X67582363Y-44875106D01*
X67741766Y-44811994D01*
X68017484Y-44660416D01*
X68020688Y-44658088D01*
X68020693Y-44658085D01*
X68268826Y-44477806D01*
X68268828Y-44477805D01*
X68272030Y-44475478D01*
X68501390Y-44260094D01*
X68701947Y-44017663D01*
X68870537Y-43752007D01*
X68872221Y-43748428D01*
X68872225Y-43748421D01*
X69002814Y-43470905D01*
X69002816Y-43470901D01*
X69004503Y-43467315D01*
X69101731Y-43168079D01*
X69160688Y-42859015D01*
X69180444Y-42545000D01*
X89569556Y-42545000D01*
X89589312Y-42859015D01*
X89648269Y-43168079D01*
X89745497Y-43467315D01*
X89747184Y-43470901D01*
X89747186Y-43470905D01*
X89877775Y-43748421D01*
X89877779Y-43748428D01*
X89879463Y-43752007D01*
X90048053Y-44017663D01*
X90248610Y-44260094D01*
X90477970Y-44475478D01*
X90481172Y-44477805D01*
X90481174Y-44477806D01*
X90729307Y-44658085D01*
X90729312Y-44658088D01*
X90732516Y-44660416D01*
X91008234Y-44811994D01*
X91167637Y-44875106D01*
X91297092Y-44926361D01*
X91297095Y-44926362D01*
X91300775Y-44927819D01*
X91304609Y-44928803D01*
X91304617Y-44928806D01*
X91493074Y-44977193D01*
X91605527Y-45006066D01*
X91609455Y-45006562D01*
X91609459Y-45006563D01*
X91733375Y-45022217D01*
X91917682Y-45045500D01*
X92232318Y-45045500D01*
X92416625Y-45022217D01*
X92540541Y-45006563D01*
X92540545Y-45006562D01*
X92544473Y-45006066D01*
X92656926Y-44977193D01*
X92845383Y-44928806D01*
X92845391Y-44928803D01*
X92849225Y-44927819D01*
X92852905Y-44926362D01*
X92852908Y-44926361D01*
X92982363Y-44875106D01*
X93141766Y-44811994D01*
X93417484Y-44660416D01*
X93420688Y-44658088D01*
X93420693Y-44658085D01*
X93668826Y-44477806D01*
X93668828Y-44477805D01*
X93672030Y-44475478D01*
X93901390Y-44260094D01*
X94101947Y-44017663D01*
X94270537Y-43752007D01*
X94272221Y-43748428D01*
X94272225Y-43748421D01*
X94402814Y-43470905D01*
X94402816Y-43470901D01*
X94404503Y-43467315D01*
X94501731Y-43168079D01*
X94560688Y-42859015D01*
X94580444Y-42545000D01*
X119414556Y-42545000D01*
X119434312Y-42859015D01*
X119493269Y-43168079D01*
X119590497Y-43467315D01*
X119592184Y-43470901D01*
X119592186Y-43470905D01*
X119722775Y-43748421D01*
X119722779Y-43748428D01*
X119724463Y-43752007D01*
X119893053Y-44017663D01*
X120093610Y-44260094D01*
X120322970Y-44475478D01*
X120326172Y-44477805D01*
X120326174Y-44477806D01*
X120574307Y-44658085D01*
X120574312Y-44658088D01*
X120577516Y-44660416D01*
X120853234Y-44811994D01*
X121012637Y-44875106D01*
X121142092Y-44926361D01*
X121142095Y-44926362D01*
X121145775Y-44927819D01*
X121149609Y-44928803D01*
X121149617Y-44928806D01*
X121338074Y-44977193D01*
X121450527Y-45006066D01*
X121454455Y-45006562D01*
X121454459Y-45006563D01*
X121578375Y-45022217D01*
X121762682Y-45045500D01*
X122077318Y-45045500D01*
X122261625Y-45022217D01*
X122385541Y-45006563D01*
X122385545Y-45006562D01*
X122389473Y-45006066D01*
X122501926Y-44977193D01*
X122690383Y-44928806D01*
X122690391Y-44928803D01*
X122694225Y-44927819D01*
X122697905Y-44926362D01*
X122697908Y-44926361D01*
X122827363Y-44875106D01*
X122986766Y-44811994D01*
X123262484Y-44660416D01*
X123265688Y-44658088D01*
X123265693Y-44658085D01*
X123513826Y-44477806D01*
X123513828Y-44477805D01*
X123517030Y-44475478D01*
X123746390Y-44260094D01*
X123946947Y-44017663D01*
X124115537Y-43752007D01*
X124117221Y-43748428D01*
X124117225Y-43748421D01*
X124247814Y-43470905D01*
X124247816Y-43470901D01*
X124249503Y-43467315D01*
X124346731Y-43168079D01*
X124405688Y-42859015D01*
X124425444Y-42545000D01*
X124405688Y-42230985D01*
X124346731Y-41921921D01*
X124249503Y-41622685D01*
X124247814Y-41619095D01*
X124117225Y-41341579D01*
X124117221Y-41341572D01*
X124115537Y-41337993D01*
X123946947Y-41072337D01*
X123746390Y-40829906D01*
X123517030Y-40614522D01*
X123513826Y-40612194D01*
X123265693Y-40431915D01*
X123265688Y-40431912D01*
X123262484Y-40429584D01*
X123087256Y-40333251D01*
X122990228Y-40279909D01*
X122990225Y-40279907D01*
X122986766Y-40278006D01*
X122827363Y-40214894D01*
X122697908Y-40163639D01*
X122697905Y-40163638D01*
X122694225Y-40162181D01*
X122690391Y-40161197D01*
X122690383Y-40161194D01*
X122501926Y-40112807D01*
X122389473Y-40083934D01*
X122385545Y-40083438D01*
X122385541Y-40083437D01*
X122261625Y-40067783D01*
X122077318Y-40044500D01*
X121762682Y-40044500D01*
X121578375Y-40067783D01*
X121454459Y-40083437D01*
X121454455Y-40083438D01*
X121450527Y-40083934D01*
X121338074Y-40112807D01*
X121149617Y-40161194D01*
X121149609Y-40161197D01*
X121145775Y-40162181D01*
X121142095Y-40163638D01*
X121142092Y-40163639D01*
X121012637Y-40214894D01*
X120853234Y-40278006D01*
X120849775Y-40279907D01*
X120849772Y-40279909D01*
X120752744Y-40333251D01*
X120577516Y-40429584D01*
X120574312Y-40431912D01*
X120574307Y-40431915D01*
X120326174Y-40612194D01*
X120322970Y-40614522D01*
X120093610Y-40829906D01*
X119893053Y-41072337D01*
X119724463Y-41337993D01*
X119722779Y-41341572D01*
X119722775Y-41341579D01*
X119592186Y-41619095D01*
X119590497Y-41622685D01*
X119493269Y-41921921D01*
X119434312Y-42230985D01*
X119414556Y-42545000D01*
X94580444Y-42545000D01*
X94560688Y-42230985D01*
X94501731Y-41921921D01*
X94404503Y-41622685D01*
X94402814Y-41619095D01*
X94272225Y-41341579D01*
X94272221Y-41341572D01*
X94270537Y-41337993D01*
X94101947Y-41072337D01*
X93901390Y-40829906D01*
X93672030Y-40614522D01*
X93668826Y-40612194D01*
X93420693Y-40431915D01*
X93420688Y-40431912D01*
X93417484Y-40429584D01*
X93242256Y-40333251D01*
X93145228Y-40279909D01*
X93145225Y-40279907D01*
X93141766Y-40278006D01*
X92982363Y-40214894D01*
X92852908Y-40163639D01*
X92852905Y-40163638D01*
X92849225Y-40162181D01*
X92845391Y-40161197D01*
X92845383Y-40161194D01*
X92656926Y-40112807D01*
X92544473Y-40083934D01*
X92540545Y-40083438D01*
X92540541Y-40083437D01*
X92416625Y-40067783D01*
X92232318Y-40044500D01*
X91917682Y-40044500D01*
X91733375Y-40067783D01*
X91609459Y-40083437D01*
X91609455Y-40083438D01*
X91605527Y-40083934D01*
X91493074Y-40112807D01*
X91304617Y-40161194D01*
X91304609Y-40161197D01*
X91300775Y-40162181D01*
X91297095Y-40163638D01*
X91297092Y-40163639D01*
X91167637Y-40214894D01*
X91008234Y-40278006D01*
X91004775Y-40279907D01*
X91004772Y-40279909D01*
X90907744Y-40333251D01*
X90732516Y-40429584D01*
X90729312Y-40431912D01*
X90729307Y-40431915D01*
X90481174Y-40612194D01*
X90477970Y-40614522D01*
X90248610Y-40829906D01*
X90048053Y-41072337D01*
X89879463Y-41337993D01*
X89877779Y-41341572D01*
X89877775Y-41341579D01*
X89747186Y-41619095D01*
X89745497Y-41622685D01*
X89648269Y-41921921D01*
X89589312Y-42230985D01*
X89569556Y-42545000D01*
X69180444Y-42545000D01*
X69160688Y-42230985D01*
X69101731Y-41921921D01*
X69004503Y-41622685D01*
X69002814Y-41619095D01*
X68872225Y-41341579D01*
X68872221Y-41341572D01*
X68870537Y-41337993D01*
X68701947Y-41072337D01*
X68501390Y-40829906D01*
X68272030Y-40614522D01*
X68268826Y-40612194D01*
X68020693Y-40431915D01*
X68020688Y-40431912D01*
X68017484Y-40429584D01*
X67842256Y-40333251D01*
X67745228Y-40279909D01*
X67745225Y-40279907D01*
X67741766Y-40278006D01*
X67582363Y-40214894D01*
X67452908Y-40163639D01*
X67452905Y-40163638D01*
X67449225Y-40162181D01*
X67445391Y-40161197D01*
X67445383Y-40161194D01*
X67256926Y-40112807D01*
X67144473Y-40083934D01*
X67140545Y-40083438D01*
X67140541Y-40083437D01*
X67016625Y-40067783D01*
X66832318Y-40044500D01*
X66517682Y-40044500D01*
X66333375Y-40067783D01*
X66209459Y-40083437D01*
X66209455Y-40083438D01*
X66205527Y-40083934D01*
X66093074Y-40112807D01*
X65904617Y-40161194D01*
X65904609Y-40161197D01*
X65900775Y-40162181D01*
X65897095Y-40163638D01*
X65897092Y-40163639D01*
X65767637Y-40214894D01*
X65608234Y-40278006D01*
X65604775Y-40279907D01*
X65604772Y-40279909D01*
X65507744Y-40333251D01*
X65332516Y-40429584D01*
X65329312Y-40431912D01*
X65329307Y-40431915D01*
X65081174Y-40612194D01*
X65077970Y-40614522D01*
X64848610Y-40829906D01*
X64648053Y-41072337D01*
X64479463Y-41337993D01*
X64477779Y-41341572D01*
X64477775Y-41341579D01*
X64347186Y-41619095D01*
X64345497Y-41622685D01*
X64248269Y-41921921D01*
X64189312Y-42230985D01*
X64169556Y-42545000D01*
X40605444Y-42545000D01*
X40585688Y-42230985D01*
X40526731Y-41921921D01*
X40429503Y-41622685D01*
X40427814Y-41619095D01*
X40297225Y-41341579D01*
X40297221Y-41341572D01*
X40295537Y-41337993D01*
X40126947Y-41072337D01*
X39926390Y-40829906D01*
X39697030Y-40614522D01*
X39693826Y-40612194D01*
X39445693Y-40431915D01*
X39445688Y-40431912D01*
X39442484Y-40429584D01*
X39267256Y-40333251D01*
X39170228Y-40279909D01*
X39170225Y-40279907D01*
X39166766Y-40278006D01*
X39007363Y-40214894D01*
X38877908Y-40163639D01*
X38877905Y-40163638D01*
X38874225Y-40162181D01*
X38870391Y-40161197D01*
X38870383Y-40161194D01*
X38681926Y-40112807D01*
X38569473Y-40083934D01*
X38565545Y-40083438D01*
X38565541Y-40083437D01*
X38441625Y-40067783D01*
X38257318Y-40044500D01*
X37942682Y-40044500D01*
X37758375Y-40067783D01*
X37634459Y-40083437D01*
X37634455Y-40083438D01*
X37630527Y-40083934D01*
X37518074Y-40112807D01*
X37329617Y-40161194D01*
X37329609Y-40161197D01*
X37325775Y-40162181D01*
X37322095Y-40163638D01*
X37322092Y-40163639D01*
X37192637Y-40214894D01*
X37033234Y-40278006D01*
X37029775Y-40279907D01*
X37029772Y-40279909D01*
X36932744Y-40333251D01*
X36757516Y-40429584D01*
X36754312Y-40431912D01*
X36754307Y-40431915D01*
X36506174Y-40612194D01*
X36502970Y-40614522D01*
X36273610Y-40829906D01*
X36073053Y-41072337D01*
X35904463Y-41337993D01*
X35902779Y-41341572D01*
X35902775Y-41341579D01*
X35772186Y-41619095D01*
X35770497Y-41622685D01*
X35673269Y-41921921D01*
X35614312Y-42230985D01*
X35594556Y-42545000D01*
X33270500Y-42545000D01*
X33270500Y-38100000D01*
X34369750Y-38100000D01*
X34388670Y-38243709D01*
X34444139Y-38377625D01*
X34532379Y-38492621D01*
X34647375Y-38580861D01*
X34781291Y-38636330D01*
X34925000Y-38655250D01*
X35068709Y-38636330D01*
X35202625Y-38580861D01*
X35224549Y-38564038D01*
X35290769Y-38538437D01*
X35301253Y-38538000D01*
X50566384Y-38538000D01*
X50634505Y-38558002D01*
X50655479Y-38574905D01*
X52371621Y-40291046D01*
X52381475Y-40302135D01*
X52401782Y-40327894D01*
X52409533Y-40333251D01*
X52448649Y-40360286D01*
X52451870Y-40362588D01*
X52490150Y-40390863D01*
X52490156Y-40390866D01*
X52497732Y-40396462D01*
X52504356Y-40398788D01*
X52510130Y-40402779D01*
X52554173Y-40416708D01*
X52564477Y-40419967D01*
X52568229Y-40421219D01*
X52612722Y-40436843D01*
X52622000Y-40440101D01*
X52629013Y-40440377D01*
X52635708Y-40442494D01*
X52642138Y-40443000D01*
X52693304Y-40443000D01*
X52698251Y-40443097D01*
X52753607Y-40445272D01*
X52760555Y-40443430D01*
X52768362Y-40443000D01*
X56481532Y-40443000D01*
X56496341Y-40443873D01*
X56528913Y-40447728D01*
X56538177Y-40446036D01*
X56538181Y-40446036D01*
X56584961Y-40437493D01*
X56588862Y-40436843D01*
X56635927Y-40429767D01*
X56635929Y-40429767D01*
X56645244Y-40428366D01*
X56651572Y-40425327D01*
X56658478Y-40424066D01*
X56698909Y-40403064D01*
X56709069Y-40397786D01*
X56712610Y-40396017D01*
X56755483Y-40375430D01*
X56755484Y-40375429D01*
X56763973Y-40371353D01*
X56769127Y-40366589D01*
X56775358Y-40363352D01*
X56780263Y-40359163D01*
X56816449Y-40322977D01*
X56820015Y-40319548D01*
X56853772Y-40288343D01*
X56860689Y-40281949D01*
X56864299Y-40275734D01*
X56869510Y-40269915D01*
X57436050Y-39703376D01*
X57447137Y-39693524D01*
X57465500Y-39679047D01*
X57472894Y-39673218D01*
X57505288Y-39626348D01*
X57507588Y-39623130D01*
X57535863Y-39584850D01*
X57535866Y-39584844D01*
X57541462Y-39577268D01*
X57543788Y-39570644D01*
X57547779Y-39564870D01*
X57564967Y-39510523D01*
X57566219Y-39506771D01*
X57581981Y-39461885D01*
X57581981Y-39461884D01*
X57585101Y-39453000D01*
X57585377Y-39445987D01*
X57587494Y-39439292D01*
X57588000Y-39432862D01*
X57588000Y-39381696D01*
X57588097Y-39376749D01*
X57589902Y-39330802D01*
X57590272Y-39321393D01*
X57588430Y-39314445D01*
X57588000Y-39306638D01*
X57588000Y-39189972D01*
X57608002Y-39121851D01*
X57652434Y-39080037D01*
X57668068Y-39071282D01*
X57776001Y-39010837D01*
X57838433Y-38958913D01*
X57927073Y-38885191D01*
X57931505Y-38881505D01*
X58060837Y-38726001D01*
X58159664Y-38549531D01*
X58177277Y-38497647D01*
X58222820Y-38363481D01*
X58222820Y-38363479D01*
X58224678Y-38358007D01*
X58225507Y-38352291D01*
X58225508Y-38352286D01*
X58253167Y-38161516D01*
X58253700Y-38157842D01*
X58255215Y-38100000D01*
X75644750Y-38100000D01*
X75663670Y-38243709D01*
X75719139Y-38377625D01*
X75807379Y-38492621D01*
X75922375Y-38580861D01*
X76056291Y-38636330D01*
X76200000Y-38655250D01*
X76343709Y-38636330D01*
X76477625Y-38580861D01*
X76499549Y-38564038D01*
X76565769Y-38538437D01*
X76576253Y-38538000D01*
X98191384Y-38538000D01*
X98259505Y-38558002D01*
X98280479Y-38574905D01*
X99996621Y-40291046D01*
X100006475Y-40302135D01*
X100026782Y-40327894D01*
X100034533Y-40333251D01*
X100073649Y-40360286D01*
X100076870Y-40362588D01*
X100115150Y-40390863D01*
X100115156Y-40390866D01*
X100122732Y-40396462D01*
X100129356Y-40398788D01*
X100135130Y-40402779D01*
X100179173Y-40416708D01*
X100189477Y-40419967D01*
X100193229Y-40421219D01*
X100237722Y-40436843D01*
X100247000Y-40440101D01*
X100254013Y-40440377D01*
X100260708Y-40442494D01*
X100267138Y-40443000D01*
X100318304Y-40443000D01*
X100323251Y-40443097D01*
X100378607Y-40445272D01*
X100385555Y-40443430D01*
X100393362Y-40443000D01*
X104106532Y-40443000D01*
X104121341Y-40443873D01*
X104153913Y-40447728D01*
X104163177Y-40446036D01*
X104163181Y-40446036D01*
X104209961Y-40437493D01*
X104213862Y-40436843D01*
X104260927Y-40429767D01*
X104260929Y-40429767D01*
X104270244Y-40428366D01*
X104276572Y-40425327D01*
X104283478Y-40424066D01*
X104323909Y-40403064D01*
X104334069Y-40397786D01*
X104337610Y-40396017D01*
X104380483Y-40375430D01*
X104380484Y-40375429D01*
X104388973Y-40371353D01*
X104394127Y-40366589D01*
X104400358Y-40363352D01*
X104405263Y-40359163D01*
X104441449Y-40322977D01*
X104445015Y-40319548D01*
X104478772Y-40288343D01*
X104485689Y-40281949D01*
X104489299Y-40275734D01*
X104494510Y-40269915D01*
X105061050Y-39703376D01*
X105072137Y-39693524D01*
X105090500Y-39679047D01*
X105097894Y-39673218D01*
X105130288Y-39626348D01*
X105132588Y-39623130D01*
X105160863Y-39584850D01*
X105160866Y-39584844D01*
X105166462Y-39577268D01*
X105168788Y-39570644D01*
X105172779Y-39564870D01*
X105189967Y-39510523D01*
X105191219Y-39506771D01*
X105206981Y-39461885D01*
X105206981Y-39461884D01*
X105210101Y-39453000D01*
X105210377Y-39445987D01*
X105212494Y-39439292D01*
X105213000Y-39432862D01*
X105213000Y-39381696D01*
X105213097Y-39376749D01*
X105214902Y-39330802D01*
X105215272Y-39321393D01*
X105213430Y-39314445D01*
X105213000Y-39306638D01*
X105213000Y-39187172D01*
X105233002Y-39119051D01*
X105277434Y-39077237D01*
X105390964Y-39013658D01*
X105390965Y-39013657D01*
X105396001Y-39010837D01*
X105458433Y-38958913D01*
X105547073Y-38885191D01*
X105551505Y-38881505D01*
X105680837Y-38726001D01*
X105779664Y-38549531D01*
X105797277Y-38497647D01*
X105842820Y-38363481D01*
X105842820Y-38363479D01*
X105844678Y-38358007D01*
X105845507Y-38352291D01*
X105845508Y-38352286D01*
X105873167Y-38161516D01*
X105873700Y-38157842D01*
X105875215Y-38100000D01*
X105856708Y-37898591D01*
X105801807Y-37703926D01*
X105712351Y-37522527D01*
X105694079Y-37498057D01*
X105594788Y-37365091D01*
X105594787Y-37365090D01*
X105591335Y-37360467D01*
X105568350Y-37339220D01*
X105447053Y-37227094D01*
X105447051Y-37227092D01*
X105442812Y-37223174D01*
X105415374Y-37205862D01*
X105276637Y-37118325D01*
X105271757Y-37115246D01*
X105083898Y-37040298D01*
X104885526Y-37000839D01*
X104879752Y-37000763D01*
X104879748Y-37000763D01*
X104777257Y-36999422D01*
X104683286Y-36998192D01*
X104677589Y-36999171D01*
X104677588Y-36999171D01*
X104489646Y-37031465D01*
X104489645Y-37031465D01*
X104483949Y-37032444D01*
X104294193Y-37102449D01*
X104120371Y-37205862D01*
X103968305Y-37339220D01*
X103843089Y-37498057D01*
X103748914Y-37677053D01*
X103688937Y-37870213D01*
X103665164Y-38071069D01*
X103678392Y-38272894D01*
X103728178Y-38468928D01*
X103812856Y-38652607D01*
X103929588Y-38817780D01*
X104074466Y-38958913D01*
X104241862Y-39070764D01*
X104287388Y-39125239D01*
X104296236Y-39195682D01*
X104260953Y-39264622D01*
X103995480Y-39530095D01*
X103933168Y-39564121D01*
X103906385Y-39567000D01*
X100563616Y-39567000D01*
X100495495Y-39546998D01*
X100474521Y-39530095D01*
X98758379Y-37813954D01*
X98748525Y-37802865D01*
X98728218Y-37777106D01*
X98681303Y-37744681D01*
X98678127Y-37742411D01*
X98639843Y-37714133D01*
X98639841Y-37714132D01*
X98632269Y-37708539D01*
X98625646Y-37706213D01*
X98619870Y-37702221D01*
X98565444Y-37685009D01*
X98561797Y-37683791D01*
X98508000Y-37664899D01*
X98500987Y-37664623D01*
X98494292Y-37662506D01*
X98487862Y-37662000D01*
X98436696Y-37662000D01*
X98431749Y-37661903D01*
X98376393Y-37659728D01*
X98369445Y-37661570D01*
X98361638Y-37662000D01*
X76576253Y-37662000D01*
X76508132Y-37641998D01*
X76499549Y-37635962D01*
X76484178Y-37624167D01*
X76484176Y-37624166D01*
X76477625Y-37619139D01*
X76343709Y-37563670D01*
X76200000Y-37544750D01*
X76056291Y-37563670D01*
X75922375Y-37619139D01*
X75807379Y-37707379D01*
X75719139Y-37822375D01*
X75663670Y-37956291D01*
X75644750Y-38100000D01*
X58255215Y-38100000D01*
X58236708Y-37898591D01*
X58181807Y-37703926D01*
X58092351Y-37522527D01*
X58074079Y-37498057D01*
X57974788Y-37365091D01*
X57974787Y-37365090D01*
X57971335Y-37360467D01*
X57948350Y-37339220D01*
X57827053Y-37227094D01*
X57827051Y-37227092D01*
X57822812Y-37223174D01*
X57795374Y-37205862D01*
X57656637Y-37118325D01*
X57651757Y-37115246D01*
X57463898Y-37040298D01*
X57265526Y-37000839D01*
X57259752Y-37000763D01*
X57259748Y-37000763D01*
X57157257Y-36999422D01*
X57063286Y-36998192D01*
X57057589Y-36999171D01*
X57057588Y-36999171D01*
X56869646Y-37031465D01*
X56869645Y-37031465D01*
X56863949Y-37032444D01*
X56674193Y-37102449D01*
X56500371Y-37205862D01*
X56348305Y-37339220D01*
X56223089Y-37498057D01*
X56128914Y-37677053D01*
X56068937Y-37870213D01*
X56045164Y-38071069D01*
X56058392Y-38272894D01*
X56108178Y-38468928D01*
X56192856Y-38652607D01*
X56309588Y-38817780D01*
X56454466Y-38958913D01*
X56459270Y-38962123D01*
X56618862Y-39068760D01*
X56664390Y-39123237D01*
X56673237Y-39193680D01*
X56637955Y-39262620D01*
X56370480Y-39530095D01*
X56308168Y-39564121D01*
X56281385Y-39567000D01*
X52938616Y-39567000D01*
X52870495Y-39546998D01*
X52849521Y-39530095D01*
X51133379Y-37813954D01*
X51123525Y-37802865D01*
X51103218Y-37777106D01*
X51056303Y-37744681D01*
X51053127Y-37742411D01*
X51014843Y-37714133D01*
X51014841Y-37714132D01*
X51007269Y-37708539D01*
X51000646Y-37706213D01*
X50994870Y-37702221D01*
X50940444Y-37685009D01*
X50936797Y-37683791D01*
X50883000Y-37664899D01*
X50875987Y-37664623D01*
X50869292Y-37662506D01*
X50862862Y-37662000D01*
X50811696Y-37662000D01*
X50806749Y-37661903D01*
X50751393Y-37659728D01*
X50744445Y-37661570D01*
X50736638Y-37662000D01*
X35301253Y-37662000D01*
X35233132Y-37641998D01*
X35224549Y-37635962D01*
X35209178Y-37624167D01*
X35209176Y-37624166D01*
X35202625Y-37619139D01*
X35068709Y-37563670D01*
X34925000Y-37544750D01*
X34781291Y-37563670D01*
X34647375Y-37619139D01*
X34532379Y-37707379D01*
X34444139Y-37822375D01*
X34388670Y-37956291D01*
X34369750Y-38100000D01*
X33270500Y-38100000D01*
X33270500Y-33396500D01*
X33290502Y-33328379D01*
X33344158Y-33281886D01*
X33396500Y-33270500D01*
X41955354Y-33270500D01*
X42023475Y-33290502D01*
X42069968Y-33344158D01*
X42080747Y-33408849D01*
X42080706Y-33409261D01*
X42079500Y-33415326D01*
X42079500Y-35164674D01*
X42094034Y-35237740D01*
X42149399Y-35320601D01*
X42232260Y-35375966D01*
X42305326Y-35390500D01*
X42616000Y-35390500D01*
X42684121Y-35410502D01*
X42730614Y-35464158D01*
X42742000Y-35516500D01*
X42742000Y-35526532D01*
X42741127Y-35541341D01*
X42737272Y-35573913D01*
X42738964Y-35583177D01*
X42738964Y-35583181D01*
X42747507Y-35629961D01*
X42748157Y-35633862D01*
X42751725Y-35657592D01*
X42756634Y-35690244D01*
X42759673Y-35696572D01*
X42760934Y-35703478D01*
X42765277Y-35711838D01*
X42765277Y-35711839D01*
X42787214Y-35754069D01*
X42788983Y-35757609D01*
X42813647Y-35808973D01*
X42818411Y-35814127D01*
X42821648Y-35820358D01*
X42825837Y-35825263D01*
X42862023Y-35861449D01*
X42865452Y-35865015D01*
X42903051Y-35905689D01*
X42909266Y-35909299D01*
X42915089Y-35914514D01*
X43239236Y-36238661D01*
X43273262Y-36300973D01*
X43275063Y-36311309D01*
X43278670Y-36338709D01*
X43334139Y-36472625D01*
X43422379Y-36587621D01*
X43537375Y-36675861D01*
X43671291Y-36731330D01*
X43815000Y-36750250D01*
X43958709Y-36731330D01*
X44092625Y-36675861D01*
X44207621Y-36587621D01*
X44295861Y-36472625D01*
X44351330Y-36338709D01*
X44370250Y-36195000D01*
X44351330Y-36051291D01*
X44295861Y-35917375D01*
X44207621Y-35802379D01*
X44092625Y-35714139D01*
X43958709Y-35658670D01*
X43931311Y-35655063D01*
X43866383Y-35626341D01*
X43858661Y-35619236D01*
X43845020Y-35605595D01*
X43810994Y-35543283D01*
X43816059Y-35472468D01*
X43858606Y-35415632D01*
X43925126Y-35390821D01*
X43934115Y-35390500D01*
X44054674Y-35390500D01*
X44127740Y-35375966D01*
X44210601Y-35320601D01*
X44265966Y-35237740D01*
X44280500Y-35164674D01*
X44280500Y-33415326D01*
X44279294Y-33409261D01*
X44279253Y-33408849D01*
X44292482Y-33339096D01*
X44341323Y-33287568D01*
X44404646Y-33270500D01*
X44495354Y-33270500D01*
X44563475Y-33290502D01*
X44609968Y-33344158D01*
X44620747Y-33408849D01*
X44620706Y-33409261D01*
X44619500Y-33415326D01*
X44619500Y-35164674D01*
X44634034Y-35237740D01*
X44689399Y-35320601D01*
X44772260Y-35375966D01*
X44845326Y-35390500D01*
X45156000Y-35390500D01*
X45224121Y-35410502D01*
X45270614Y-35464158D01*
X45282000Y-35516500D01*
X45282000Y-35526532D01*
X45281127Y-35541341D01*
X45277272Y-35573913D01*
X45278964Y-35583177D01*
X45278964Y-35583181D01*
X45287507Y-35629961D01*
X45288157Y-35633862D01*
X45291725Y-35657592D01*
X45296634Y-35690244D01*
X45299673Y-35696572D01*
X45300934Y-35703478D01*
X45305277Y-35711838D01*
X45305277Y-35711839D01*
X45327214Y-35754069D01*
X45328983Y-35757609D01*
X45353647Y-35808973D01*
X45358411Y-35814127D01*
X45361648Y-35820358D01*
X45365837Y-35825263D01*
X45402023Y-35861449D01*
X45405452Y-35865015D01*
X45443051Y-35905689D01*
X45449266Y-35909299D01*
X45455089Y-35914514D01*
X45779236Y-36238661D01*
X45813262Y-36300973D01*
X45815063Y-36311309D01*
X45818670Y-36338709D01*
X45874139Y-36472625D01*
X45962379Y-36587621D01*
X46077375Y-36675861D01*
X46211291Y-36731330D01*
X46355000Y-36750250D01*
X46498709Y-36731330D01*
X46632625Y-36675861D01*
X46747621Y-36587621D01*
X46835861Y-36472625D01*
X46891330Y-36338709D01*
X46910250Y-36195000D01*
X46891330Y-36051291D01*
X46835861Y-35917375D01*
X46747621Y-35802379D01*
X46632625Y-35714139D01*
X46498709Y-35658670D01*
X46471311Y-35655063D01*
X46406383Y-35626341D01*
X46398661Y-35619236D01*
X46385020Y-35605595D01*
X46350994Y-35543283D01*
X46356059Y-35472468D01*
X46398606Y-35415632D01*
X46465126Y-35390821D01*
X46474115Y-35390500D01*
X46594674Y-35390500D01*
X46667740Y-35375966D01*
X46750601Y-35320601D01*
X46805966Y-35237740D01*
X46820500Y-35164674D01*
X46820500Y-33415326D01*
X46819294Y-33409261D01*
X46819253Y-33408849D01*
X46832482Y-33339096D01*
X46881323Y-33287568D01*
X46944646Y-33270500D01*
X50762915Y-33270500D01*
X50787496Y-33272921D01*
X50787828Y-33272987D01*
X50787829Y-33272987D01*
X50800000Y-33275408D01*
X50897740Y-33255966D01*
X50980601Y-33200601D01*
X51035966Y-33117740D01*
X51050500Y-33044674D01*
X51055408Y-33020000D01*
X51052921Y-33007496D01*
X51050500Y-32982915D01*
X51050500Y-32624674D01*
X53504500Y-32624674D01*
X53519034Y-32697740D01*
X53574399Y-32780601D01*
X53657260Y-32835966D01*
X53730326Y-32850500D01*
X55479674Y-32850500D01*
X55552740Y-32835966D01*
X55635601Y-32780601D01*
X55690966Y-32697740D01*
X55705500Y-32624674D01*
X55705500Y-31721069D01*
X56040164Y-31721069D01*
X56053392Y-31922894D01*
X56103178Y-32118928D01*
X56187856Y-32302607D01*
X56304588Y-32467780D01*
X56449466Y-32608913D01*
X56617637Y-32721282D01*
X56622940Y-32723560D01*
X56622943Y-32723562D01*
X56798163Y-32798842D01*
X56803470Y-32801122D01*
X57000740Y-32845760D01*
X57006509Y-32845987D01*
X57006512Y-32845987D01*
X57082683Y-32848979D01*
X57202842Y-32853700D01*
X57289132Y-32841189D01*
X57397286Y-32825508D01*
X57397291Y-32825507D01*
X57403007Y-32824678D01*
X57408479Y-32822820D01*
X57408481Y-32822820D01*
X57589067Y-32761519D01*
X57589069Y-32761518D01*
X57594531Y-32759664D01*
X57771001Y-32660837D01*
X57833433Y-32608913D01*
X57922073Y-32535191D01*
X57926505Y-32531505D01*
X58055837Y-32376001D01*
X58154664Y-32199531D01*
X58219678Y-32008007D01*
X58220507Y-32002291D01*
X58220508Y-32002286D01*
X58248167Y-31811516D01*
X58248700Y-31807842D01*
X58250215Y-31750000D01*
X58231708Y-31548591D01*
X58176807Y-31353926D01*
X58087351Y-31172527D01*
X58069079Y-31148057D01*
X57969788Y-31015091D01*
X57969787Y-31015090D01*
X57966335Y-31010467D01*
X57943350Y-30989220D01*
X57822053Y-30877094D01*
X57822051Y-30877092D01*
X57817812Y-30873174D01*
X57790374Y-30855862D01*
X57651637Y-30768325D01*
X57646757Y-30765246D01*
X57458898Y-30690298D01*
X57260526Y-30650839D01*
X57254752Y-30650763D01*
X57254748Y-30650763D01*
X57152257Y-30649422D01*
X57058286Y-30648192D01*
X57052589Y-30649171D01*
X57052588Y-30649171D01*
X56864646Y-30681465D01*
X56864645Y-30681465D01*
X56858949Y-30682444D01*
X56669193Y-30752449D01*
X56495371Y-30855862D01*
X56343305Y-30989220D01*
X56218089Y-31148057D01*
X56123914Y-31327053D01*
X56063937Y-31520213D01*
X56040164Y-31721069D01*
X55705500Y-31721069D01*
X55705500Y-30875326D01*
X55690966Y-30802260D01*
X55635601Y-30719399D01*
X55552740Y-30664034D01*
X55479674Y-30649500D01*
X53730326Y-30649500D01*
X53657260Y-30664034D01*
X53574399Y-30719399D01*
X53519034Y-30802260D01*
X53504500Y-30875326D01*
X53504500Y-32624674D01*
X51050500Y-32624674D01*
X51050500Y-24506500D01*
X51070502Y-24438379D01*
X51124158Y-24391886D01*
X51176500Y-24380500D01*
X66298500Y-24380500D01*
X66366621Y-24400502D01*
G37*
G04 #@! TD.AperFunction*
M02*
