G04 #@! TF.GenerationSoftware,KiCad,Pcbnew,6.0.4+dfsg-1+b1*
G04 #@! TF.CreationDate,2022-04-23T23:39:37+03:00*
G04 #@! TF.ProjectId,yatabaza-bus,79617461-6261-47a6-912d-6275732e6b69,rev?*
G04 #@! TF.SameCoordinates,Original*
G04 #@! TF.FileFunction,Profile,NP*
%FSLAX46Y46*%
G04 Gerber Fmt 4.6, Leading zero omitted, Abs format (unit mm)*
G04 Created by KiCad (PCBNEW 6.0.4+dfsg-1+b1) date 2022-04-23 23:39:37*
%MOMM*%
%LPD*%
G01*
G04 APERTURE LIST*
G04 #@! TA.AperFunction,Profile*
%ADD10C,0.150000*%
G04 #@! TD*
G04 APERTURE END LIST*
D10*
X92075000Y-24130000D02*
X111760000Y-24130000D01*
X127000000Y-88265000D02*
X111760000Y-88265000D01*
X111760000Y-89535000D02*
X92075000Y-89535000D01*
X50800000Y-88265000D02*
X33020000Y-88265000D01*
X92075000Y-88265000D02*
X66675000Y-88265000D01*
X66675000Y-88265000D02*
X66675000Y-89535000D01*
X50800000Y-33020000D02*
X50800000Y-24130000D01*
X33020000Y-88265000D02*
X33020000Y-33020000D01*
X33020000Y-33020000D02*
X50800000Y-33020000D01*
X111760000Y-24130000D02*
X111760000Y-33020000D01*
X66675000Y-24130000D02*
X66675000Y-33020000D01*
X92075000Y-33020000D02*
X92075000Y-24130000D01*
X127000000Y-33020000D02*
X127000000Y-88265000D01*
X92075000Y-89535000D02*
X92075000Y-88265000D01*
X50800000Y-89535000D02*
X50800000Y-88265000D01*
X50800000Y-24130000D02*
X66675000Y-24130000D01*
X111760000Y-33020000D02*
X127000000Y-33020000D01*
X66675000Y-33020000D02*
X92075000Y-33020000D01*
X66675000Y-89535000D02*
X50800000Y-89535000D01*
X111760000Y-88265000D02*
X111760000Y-89535000D01*
M02*
