M48
; DRILL file {KiCad 6.0.4+dfsg-1+b1} date Sat 23 Apr 2022 11:39:43 PM EEST
; FORMAT={-:-/ absolute / metric / decimal}
; #@! TF.CreationDate,2022-04-23T23:39:43+03:00
; #@! TF.GenerationSoftware,Kicad,Pcbnew,6.0.4+dfsg-1+b1
; #@! TF.FileFunction,Plated,1,2,PTH
FMAT,2
METRIC
; #@! TA.AperFunction,Plated,PTH,ViaDrill
T1C0.400
; #@! TA.AperFunction,Plated,PTH,ComponentDrill
T2C1.000
; #@! TA.AperFunction,Plated,PTH,ComponentDrill
T3C2.700
%
G90
G05
T1
X34.925Y-38.1
X40.64Y-34.29
X40.64Y-86.995
X43.815Y-36.195
X43.815Y-59.69
X43.815Y-85.09
X45.085Y-62.865
X45.085Y-74.295
X46.355Y-36.195
X46.355Y-61.595
X46.355Y-75.565
X46.355Y-85.09
X47.625Y-60.96
X47.625Y-78.74
X69.85Y-60.96
X69.85Y-62.23
X69.85Y-63.5
X69.85Y-64.77
X71.755Y-34.29
X71.755Y-86.995
X74.295Y-34.29
X74.295Y-86.995
X76.2Y-38.1
X76.2Y-49.53
X76.2Y-58.42
X76.835Y-34.29
X76.835Y-86.995
X78.105Y-49.53
X78.105Y-58.42
X79.375Y-34.29
X79.375Y-86.995
X81.915Y-34.29
X81.915Y-86.995
X84.455Y-34.29
X84.455Y-50.165
X84.455Y-53.975
X84.455Y-86.995
X85.725Y-50.165
X85.725Y-53.975
X86.995Y-34.29
X86.995Y-67.31
X86.995Y-68.58
X86.995Y-86.995
X87.63Y-48.26
X87.63Y-55.88
X88.9Y-48.26
X88.9Y-55.88
X99.695Y-56.515
X99.695Y-58.42
X109.855Y-56.515
X109.855Y-58.42
X116.205Y-66.675
X116.205Y-75.565
X118.745Y-67.945
X119.38Y-34.29
X119.38Y-86.995
T2
X36.83Y-78.74
X36.83Y-81.28
X39.37Y-78.74
X39.37Y-81.28
X41.91Y-78.74
X41.91Y-81.28
X49.53Y-78.74
X49.53Y-81.28
X52.07Y-78.74
X52.07Y-81.28
X54.605Y-31.75
X54.61Y-38.1
X54.61Y-78.74
X54.61Y-81.28
X57.145Y-31.75
X57.15Y-38.1
X57.15Y-78.74
X57.15Y-81.28
X59.69Y-78.74
X59.69Y-81.28
X64.77Y-78.74
X64.77Y-81.28
X67.31Y-78.74
X67.31Y-81.28
X72.385Y-78.74
X72.39Y-81.28
X74.925Y-78.74
X74.93Y-81.28
X84.455Y-78.8
X84.455Y-81.34
X86.995Y-78.8
X86.995Y-81.34
X89.535Y-78.8
X89.535Y-81.34
X97.155Y-78.74
X97.155Y-81.28
X99.695Y-78.74
X99.695Y-81.28
X102.23Y-38.1
X102.235Y-31.75
X102.235Y-78.74
X102.235Y-81.28
X104.77Y-38.1
X104.775Y-31.75
X104.775Y-78.74
X104.775Y-81.28
X107.315Y-78.74
X107.315Y-81.28
X112.39Y-78.74
X112.39Y-81.28
X114.93Y-78.74
X114.93Y-81.28
X120.01Y-78.74
X120.01Y-81.28
X122.55Y-78.74
X122.55Y-81.28
T3
X38.1Y-42.545
X50.8Y-72.39
X66.675Y-42.545
X92.075Y-42.545
X98.425Y-72.39
X121.92Y-42.545
T0
M30
