G04 #@! TF.GenerationSoftware,KiCad,Pcbnew,6.0.4+dfsg-1+b1*
G04 #@! TF.CreationDate,2022-04-23T23:39:37+03:00*
G04 #@! TF.ProjectId,yatabaza-bus,79617461-6261-47a6-912d-6275732e6b69,rev?*
G04 #@! TF.SameCoordinates,Original*
G04 #@! TF.FileFunction,Copper,L1,Top*
G04 #@! TF.FilePolarity,Positive*
%FSLAX46Y46*%
G04 Gerber Fmt 4.6, Leading zero omitted, Abs format (unit mm)*
G04 Created by KiCad (PCBNEW 6.0.4+dfsg-1+b1) date 2022-04-23 23:39:37*
%MOMM*%
%LPD*%
G01*
G04 APERTURE LIST*
G04 #@! TA.AperFunction,ComponentPad*
%ADD10R,1.700000X1.700000*%
G04 #@! TD*
G04 #@! TA.AperFunction,ComponentPad*
%ADD11O,1.700000X1.700000*%
G04 #@! TD*
G04 #@! TA.AperFunction,ConnectorPad*
%ADD12R,1.700000X1.700000*%
G04 #@! TD*
G04 #@! TA.AperFunction,ComponentPad*
%ADD13C,4.500000*%
G04 #@! TD*
G04 #@! TA.AperFunction,ViaPad*
%ADD14C,0.600000*%
G04 #@! TD*
G04 #@! TA.AperFunction,Conductor*
%ADD15C,0.375000*%
G04 #@! TD*
G04 #@! TA.AperFunction,Conductor*
%ADD16C,1.500000*%
G04 #@! TD*
G04 #@! TA.AperFunction,Conductor*
%ADD17C,1.000000*%
G04 #@! TD*
G04 #@! TA.AperFunction,Conductor*
%ADD18C,0.750000*%
G04 #@! TD*
G04 #@! TA.AperFunction,Conductor*
%ADD19C,2.000000*%
G04 #@! TD*
G04 APERTURE END LIST*
D10*
X49530000Y-78740000D03*
D11*
X49530000Y-81280000D03*
X52070000Y-78740000D03*
X52070000Y-81280000D03*
X54610000Y-78740000D03*
X54610000Y-81280000D03*
X57150000Y-78740000D03*
X57150000Y-81280000D03*
X59690000Y-78740000D03*
X59690000Y-81280000D03*
D10*
X97155000Y-78740000D03*
D11*
X97155000Y-81280000D03*
X99695000Y-78740000D03*
X99695000Y-81280000D03*
X102235000Y-78740000D03*
X102235000Y-81280000D03*
X104775000Y-78740000D03*
X104775000Y-81280000D03*
X107315000Y-78740000D03*
X107315000Y-81280000D03*
D10*
X72390000Y-81280000D03*
D11*
X74930000Y-81280000D03*
D10*
X72385000Y-78740000D03*
D11*
X74925000Y-78740000D03*
D10*
X64770000Y-78740000D03*
D11*
X64770000Y-81280000D03*
X67310000Y-78740000D03*
X67310000Y-81280000D03*
D10*
X112390000Y-78740000D03*
D11*
X112390000Y-81280000D03*
X114930000Y-78740000D03*
X114930000Y-81280000D03*
D10*
X120010000Y-81280000D03*
D11*
X122550000Y-81280000D03*
D10*
X120010000Y-78740000D03*
D11*
X122550000Y-78740000D03*
D10*
X36830000Y-78740000D03*
D11*
X36830000Y-81280000D03*
X39370000Y-78740000D03*
X39370000Y-81280000D03*
X41910000Y-78740000D03*
X41910000Y-81280000D03*
D10*
X84455000Y-78800000D03*
D11*
X84455000Y-81340000D03*
X86995000Y-78800000D03*
X86995000Y-81340000D03*
X89535000Y-78800000D03*
X89535000Y-81340000D03*
D10*
X54610000Y-38100000D03*
D11*
X57150000Y-38100000D03*
D10*
X102230000Y-38100000D03*
D11*
X104770000Y-38100000D03*
D12*
X45720000Y-34290000D03*
X43180000Y-34290000D03*
X40640000Y-34290000D03*
X38100000Y-34290000D03*
X86995000Y-34290000D03*
X84455000Y-34290000D03*
X81915000Y-34290000D03*
X79375000Y-34290000D03*
X76835000Y-34290000D03*
X74295000Y-34290000D03*
X71755000Y-34290000D03*
X121920000Y-34290000D03*
X119380000Y-34290000D03*
X116840000Y-34290000D03*
D10*
X54605000Y-31750000D03*
D11*
X57145000Y-31750000D03*
D10*
X102235000Y-31750000D03*
D11*
X104775000Y-31750000D03*
D12*
X45720000Y-86995000D03*
X43180000Y-86995000D03*
X40640000Y-86995000D03*
X38100000Y-86995000D03*
X86995000Y-86995000D03*
X84455000Y-86995000D03*
X81915000Y-86995000D03*
X79375000Y-86995000D03*
X76835000Y-86995000D03*
X74295000Y-86995000D03*
X71755000Y-86995000D03*
X121920000Y-86995000D03*
X119380000Y-86995000D03*
X116840000Y-86995000D03*
D13*
X50800000Y-72390000D03*
X38100000Y-42545000D03*
X66675000Y-42545000D03*
X121920000Y-42545000D03*
X98425000Y-72390000D03*
X92075000Y-42545000D03*
D14*
X43815000Y-85090000D03*
X43815000Y-59690000D03*
X43815000Y-36195000D03*
X69850000Y-60960000D03*
X87630000Y-48260000D03*
X86995000Y-86995000D03*
X87630000Y-55880000D03*
X86995000Y-34290000D03*
X88900000Y-48260000D03*
X88900000Y-55880000D03*
X84455000Y-50165000D03*
X85725000Y-53975000D03*
X84455000Y-53975000D03*
X84455000Y-86995000D03*
X84455000Y-34290000D03*
X85725000Y-50165000D03*
X81915000Y-86995000D03*
X81915000Y-34290000D03*
X74295000Y-34290000D03*
X74295000Y-86995000D03*
X71755000Y-86995000D03*
X71755000Y-34290000D03*
X40640000Y-86995000D03*
X40640000Y-34290000D03*
X119380000Y-34290000D03*
X119380000Y-86995000D03*
X45085000Y-74295000D03*
X45085000Y-62865000D03*
X69850000Y-64770000D03*
X46355000Y-85090000D03*
X46355000Y-36195000D03*
X46355000Y-61595000D03*
X46355000Y-75565000D03*
X69850000Y-63500000D03*
X47625000Y-78740000D03*
X69850000Y-62230000D03*
X47625000Y-60960000D03*
X86995000Y-68580000D03*
X118745000Y-67945000D03*
X86995000Y-67310000D03*
X116205000Y-75565000D03*
X116205000Y-66675000D03*
X109855000Y-56515000D03*
X79375000Y-34290000D03*
X78105000Y-58420000D03*
X109855000Y-58420000D03*
X76200000Y-58420000D03*
X76835000Y-34290000D03*
X99695000Y-56515000D03*
X76835000Y-86995000D03*
X79375000Y-86995000D03*
X78105000Y-49530000D03*
X76200000Y-49530000D03*
X99695000Y-58420000D03*
X34925000Y-38100000D03*
X76200000Y-38100000D03*
D15*
X90805000Y-80010000D02*
X90805000Y-63500000D01*
X90805000Y-63500000D02*
X90289996Y-62984996D01*
X90289996Y-62984996D02*
X71874996Y-62984996D01*
X71874996Y-62984996D02*
X69850000Y-60960000D01*
X89535000Y-81280000D02*
X90805000Y-80010000D01*
X43815000Y-59690000D02*
X43815000Y-36195000D01*
X41910000Y-81280000D02*
X43815000Y-81280000D01*
X43815000Y-85090000D02*
X43815000Y-81280000D01*
X43815000Y-81280000D02*
X43815000Y-59690000D01*
D16*
X106680000Y-86995000D02*
X107315000Y-86360000D01*
X107315000Y-86360000D02*
X107315000Y-81280000D01*
X87630000Y-55880000D02*
X88900000Y-55880000D01*
X87630000Y-48260000D02*
X86995000Y-48260000D01*
X88900000Y-48260000D02*
X106045000Y-48260000D01*
X59690000Y-57150000D02*
X59690000Y-78740000D01*
X86995000Y-48260000D02*
X88900000Y-48260000D01*
X107315000Y-78740000D02*
X107315000Y-49530000D01*
X107315000Y-81280000D02*
X107315000Y-78740000D01*
X59690000Y-81280000D02*
X59690000Y-78740000D01*
X86995000Y-34290000D02*
X86995000Y-48260000D01*
X60960000Y-55880000D02*
X87630000Y-55880000D01*
X60960000Y-55880000D02*
X59690000Y-57150000D01*
X86995000Y-86995000D02*
X106680000Y-86995000D01*
X106045000Y-48260000D02*
X107315000Y-49530000D01*
X84455000Y-85090000D02*
X84455000Y-86995000D01*
X103505000Y-85090000D02*
X84455000Y-85090000D01*
X58420000Y-53975000D02*
X84455000Y-53975000D01*
X85725000Y-50165000D02*
X85090000Y-50165000D01*
X84455000Y-50165000D02*
X85090000Y-50165000D01*
X104775000Y-51435000D02*
X104775000Y-78740000D01*
X84455000Y-50165000D02*
X103505000Y-50165000D01*
X57150000Y-55245000D02*
X57150000Y-78740000D01*
X104775000Y-81280000D02*
X104775000Y-83820000D01*
X104775000Y-78740000D02*
X104775000Y-81280000D01*
X57150000Y-81280000D02*
X57150000Y-78740000D01*
X84455000Y-34290000D02*
X84455000Y-50165000D01*
X103505000Y-85090000D02*
X104775000Y-83820000D01*
X58420000Y-53975000D02*
X57150000Y-55245000D01*
X85725000Y-53975000D02*
X84455000Y-53975000D01*
X103505000Y-50165000D02*
X104775000Y-51435000D01*
X81915000Y-52070000D02*
X100965000Y-52070000D01*
X81915000Y-83820000D02*
X82550000Y-83185000D01*
X82550000Y-83185000D02*
X101600000Y-83185000D01*
X101600000Y-83185000D02*
X102235000Y-82550000D01*
X102235000Y-82550000D02*
X102235000Y-81280000D01*
X55880000Y-52070000D02*
X81915000Y-52070000D01*
X102235000Y-53340000D02*
X102235000Y-78740000D01*
X81915000Y-34290000D02*
X81915000Y-52070000D01*
X54610000Y-78740000D02*
X54610000Y-53340000D01*
X100965000Y-52070000D02*
X102235000Y-53340000D01*
X102235000Y-78740000D02*
X102235000Y-81280000D01*
X55880000Y-52070000D02*
X54610000Y-53340000D01*
X81915000Y-86995000D02*
X81915000Y-83820000D01*
X54610000Y-81280000D02*
X54610000Y-78740000D01*
D15*
X119380000Y-35560000D02*
X117475000Y-37465000D01*
X117475000Y-37465000D02*
X117475000Y-85090000D01*
X117475000Y-85090000D02*
X119380000Y-86995000D01*
X119380000Y-34290000D02*
X119380000Y-35560000D01*
X45085000Y-36195000D02*
X45085000Y-62865000D01*
X45085000Y-64770000D02*
X45085000Y-74295000D01*
X45085000Y-74295000D02*
X45085000Y-85090000D01*
X45085000Y-64135000D02*
X45085000Y-64770000D01*
X88900000Y-65405000D02*
X88265000Y-64770000D01*
X69850000Y-64770000D02*
X88265000Y-64770000D01*
X88900000Y-76200000D02*
X88900000Y-65405000D01*
X45085000Y-62865000D02*
X45085000Y-74295000D01*
X83820000Y-81280000D02*
X83185000Y-80645000D01*
X84455000Y-81280000D02*
X83820000Y-81280000D01*
X88265000Y-76835000D02*
X88900000Y-76200000D01*
X83185000Y-77470000D02*
X83820000Y-76835000D01*
X43180000Y-34290000D02*
X45085000Y-36195000D01*
X83820000Y-76835000D02*
X88265000Y-76835000D01*
X83185000Y-80645000D02*
X83185000Y-77470000D01*
X43180000Y-86995000D02*
X45085000Y-85090000D01*
X46355000Y-36195000D02*
X46355000Y-61595000D01*
X46355000Y-75565000D02*
X46355000Y-85090000D01*
X89535000Y-76894998D02*
X89535000Y-64770000D01*
X89535000Y-64770000D02*
X88900000Y-64135000D01*
X85725000Y-77470000D02*
X88900000Y-77470000D01*
X88900000Y-77470000D02*
X89535000Y-76835000D01*
X89535000Y-76835000D02*
X89535000Y-76894998D01*
X70485000Y-64135000D02*
X69850000Y-63500000D01*
X46355000Y-61595000D02*
X46355000Y-75565000D01*
X70485000Y-64135000D02*
X88900000Y-64135000D01*
X84455000Y-78740000D02*
X85725000Y-77470000D01*
X47625000Y-36195000D02*
X47625000Y-60960000D01*
X47625000Y-85090000D02*
X47625000Y-78740000D01*
X71179998Y-63559998D02*
X69850000Y-62230000D01*
X90170000Y-78105000D02*
X90170000Y-64135000D01*
X90170000Y-64135000D02*
X89594998Y-63559998D01*
X71179998Y-63559998D02*
X89594998Y-63559998D01*
X47625000Y-60960000D02*
X47625000Y-78740000D01*
X90170000Y-78105000D02*
X89535000Y-78740000D01*
X45720000Y-34290000D02*
X47625000Y-36195000D01*
X45720000Y-86995000D02*
X47625000Y-85090000D01*
X121920000Y-85725000D02*
X121920000Y-86995000D01*
X120650000Y-35560000D02*
X121285000Y-35560000D01*
X121285000Y-35560000D02*
X121920000Y-34925000D01*
X121920000Y-34925000D02*
X121920000Y-34290000D01*
X76835000Y-81280000D02*
X77470000Y-80645000D01*
X118745000Y-67945000D02*
X118745000Y-69215000D01*
X118745000Y-69215000D02*
X118110000Y-69850000D01*
X118110000Y-69850000D02*
X118110000Y-82550000D01*
X118745000Y-83185000D02*
X122555000Y-83185000D01*
X122555000Y-83185000D02*
X122555000Y-81280000D01*
X122555000Y-85090000D02*
X121920000Y-85725000D01*
X118110000Y-66040000D02*
X118745000Y-66675000D01*
X118745000Y-66675000D02*
X118745000Y-67945000D01*
X78105000Y-68580000D02*
X77470000Y-69215000D01*
X77470000Y-69215000D02*
X77470000Y-80645000D01*
X118110000Y-82550000D02*
X118745000Y-83185000D01*
X118110000Y-38100000D02*
X118110000Y-66040000D01*
X78105000Y-68580000D02*
X86995000Y-68580000D01*
X74930000Y-81280000D02*
X76835000Y-81280000D01*
X118110000Y-38100000D02*
X120650000Y-35560000D01*
X122555000Y-83185000D02*
X122555000Y-85090000D01*
X76200000Y-78740000D02*
X76835000Y-78105000D01*
X76835000Y-78105000D02*
X76835000Y-68580000D01*
X116840000Y-64770000D02*
X116840000Y-34290000D01*
X116205000Y-65405000D02*
X116205000Y-66675000D01*
X116205000Y-66675000D02*
X116205000Y-67945000D01*
X116205000Y-67945000D02*
X116840000Y-68580000D01*
X116205000Y-74295000D02*
X116205000Y-75565000D01*
X116205000Y-76835000D02*
X116840000Y-77470000D01*
X86360000Y-67945000D02*
X77470000Y-67945000D01*
X77470000Y-67945000D02*
X76835000Y-68580000D01*
X86995000Y-67310000D02*
X86360000Y-67945000D01*
X116205000Y-75565000D02*
X116205000Y-76835000D01*
X116840000Y-86995000D02*
X116840000Y-77470000D01*
X116840000Y-64770000D02*
X116205000Y-65405000D01*
X76200000Y-78740000D02*
X74930000Y-78740000D01*
X116840000Y-73660000D02*
X116205000Y-74295000D01*
X116840000Y-73660000D02*
X116840000Y-68580000D01*
D17*
X78105000Y-34290000D02*
X79375000Y-34290000D01*
D18*
X66040000Y-80010000D02*
X67310000Y-81280000D01*
D19*
X66040000Y-84455000D02*
X78105000Y-84455000D01*
X78105000Y-84455000D02*
X78105000Y-86995000D01*
D16*
X78105000Y-86995000D02*
X76835000Y-86995000D01*
D18*
X113665000Y-80010000D02*
X114935000Y-81280000D01*
D19*
X113665000Y-78740000D02*
X109855000Y-74930000D01*
X109855000Y-74930000D02*
X109855000Y-58420000D01*
X66040000Y-59055000D02*
X66675000Y-58420000D01*
X66675000Y-58420000D02*
X76200000Y-58420000D01*
X76200000Y-58420000D02*
X78105000Y-58420000D01*
X99695000Y-58420000D02*
X99695000Y-56515000D01*
X109855000Y-58420000D02*
X109855000Y-56515000D01*
X66040000Y-80010000D02*
X66040000Y-84455000D01*
D18*
X112395000Y-78740000D02*
X114935000Y-78740000D01*
X112395000Y-78740000D02*
X113665000Y-80010000D01*
X114935000Y-81280000D02*
X114935000Y-78740000D01*
D19*
X78105000Y-49530000D02*
X76835000Y-49530000D01*
D17*
X76835000Y-34290000D02*
X78105000Y-34290000D01*
D18*
X112395000Y-81280000D02*
X114935000Y-81280000D01*
D17*
X67310000Y-81280000D02*
X67310000Y-78740000D01*
X64770000Y-78740000D02*
X64770000Y-81280000D01*
D19*
X78105000Y-58420000D02*
X99695000Y-58420000D01*
D18*
X112395000Y-78740000D02*
X112395000Y-81280000D01*
X64770000Y-78740000D02*
X66040000Y-80010000D01*
D17*
X67310000Y-78740000D02*
X64770000Y-78740000D01*
D19*
X113665000Y-80010000D02*
X113665000Y-78740000D01*
X66040000Y-80010000D02*
X66040000Y-59055000D01*
X76835000Y-49530000D02*
X76200000Y-49530000D01*
X78105000Y-49530000D02*
X78105000Y-34925000D01*
D18*
X78105000Y-34925000D02*
X78105000Y-34290000D01*
D16*
X79375000Y-86995000D02*
X78105000Y-86995000D01*
D17*
X64770000Y-81280000D02*
X67310000Y-81280000D01*
D15*
X36195000Y-34290000D02*
X34925000Y-35560000D01*
X34925000Y-35560000D02*
X34925000Y-38100000D01*
X34925000Y-86360000D02*
X35560000Y-86995000D01*
X35560000Y-86995000D02*
X38100000Y-86995000D01*
X34925000Y-38100000D02*
X34925000Y-86360000D01*
X38100000Y-34290000D02*
X36195000Y-34290000D01*
X57150000Y-38100000D02*
X76200000Y-38100000D01*
M02*
