G04 #@! TF.GenerationSoftware,KiCad,Pcbnew,6.0.4+dfsg-1+b1*
G04 #@! TF.CreationDate,2022-04-23T23:39:37+03:00*
G04 #@! TF.ProjectId,yatabaza-bus,79617461-6261-47a6-912d-6275732e6b69,rev?*
G04 #@! TF.SameCoordinates,Original*
G04 #@! TF.FileFunction,Legend,Bot*
G04 #@! TF.FilePolarity,Positive*
%FSLAX46Y46*%
G04 Gerber Fmt 4.6, Leading zero omitted, Abs format (unit mm)*
G04 Created by KiCad (PCBNEW 6.0.4+dfsg-1+b1) date 2022-04-23 23:39:37*
%MOMM*%
%LPD*%
G01*
G04 APERTURE LIST*
%ADD10R,1.700000X1.700000*%
%ADD11O,1.700000X1.700000*%
%ADD12C,4.500000*%
G04 APERTURE END LIST*
%LPC*%
D10*
X49530000Y-78740000D03*
D11*
X49530000Y-81280000D03*
X52070000Y-78740000D03*
X52070000Y-81280000D03*
X54610000Y-78740000D03*
X54610000Y-81280000D03*
X57150000Y-78740000D03*
X57150000Y-81280000D03*
X59690000Y-78740000D03*
X59690000Y-81280000D03*
D10*
X97155000Y-78740000D03*
D11*
X97155000Y-81280000D03*
X99695000Y-78740000D03*
X99695000Y-81280000D03*
X102235000Y-78740000D03*
X102235000Y-81280000D03*
X104775000Y-78740000D03*
X104775000Y-81280000D03*
X107315000Y-78740000D03*
X107315000Y-81280000D03*
D10*
X72390000Y-81280000D03*
D11*
X74930000Y-81280000D03*
D10*
X72385000Y-78740000D03*
D11*
X74925000Y-78740000D03*
D10*
X64770000Y-78740000D03*
D11*
X64770000Y-81280000D03*
X67310000Y-78740000D03*
X67310000Y-81280000D03*
D10*
X112390000Y-78740000D03*
D11*
X112390000Y-81280000D03*
X114930000Y-78740000D03*
X114930000Y-81280000D03*
D10*
X120010000Y-81280000D03*
D11*
X122550000Y-81280000D03*
D10*
X120010000Y-78740000D03*
D11*
X122550000Y-78740000D03*
D10*
X36830000Y-78740000D03*
D11*
X36830000Y-81280000D03*
X39370000Y-78740000D03*
X39370000Y-81280000D03*
X41910000Y-78740000D03*
X41910000Y-81280000D03*
D10*
X84455000Y-78800000D03*
D11*
X84455000Y-81340000D03*
X86995000Y-78800000D03*
X86995000Y-81340000D03*
X89535000Y-78800000D03*
X89535000Y-81340000D03*
D10*
X54610000Y-38100000D03*
D11*
X57150000Y-38100000D03*
D10*
X102230000Y-38100000D03*
D11*
X104770000Y-38100000D03*
D10*
X45720000Y-34290000D03*
X43180000Y-34290000D03*
X40640000Y-34290000D03*
X38100000Y-34290000D03*
X86995000Y-34290000D03*
X84455000Y-34290000D03*
X81915000Y-34290000D03*
X79375000Y-34290000D03*
X76835000Y-34290000D03*
X74295000Y-34290000D03*
X71755000Y-34290000D03*
X121920000Y-34290000D03*
X119380000Y-34290000D03*
X116840000Y-34290000D03*
X54605000Y-31750000D03*
D11*
X57145000Y-31750000D03*
D10*
X102235000Y-31750000D03*
D11*
X104775000Y-31750000D03*
D10*
X45720000Y-86995000D03*
X43180000Y-86995000D03*
X40640000Y-86995000D03*
X38100000Y-86995000D03*
X86995000Y-86995000D03*
X84455000Y-86995000D03*
X81915000Y-86995000D03*
X79375000Y-86995000D03*
X76835000Y-86995000D03*
X74295000Y-86995000D03*
X71755000Y-86995000D03*
X121920000Y-86995000D03*
X119380000Y-86995000D03*
X116840000Y-86995000D03*
D12*
X50800000Y-72390000D03*
X38100000Y-42545000D03*
X66675000Y-42545000D03*
X121920000Y-42545000D03*
X98425000Y-72390000D03*
X92075000Y-42545000D03*
M02*
