M48
; DRILL file {KiCad 6.0.4+dfsg-1+b1} date Tue 03 May 2022 02:33:05 AM EEST
; FORMAT={-:-/ absolute / metric / decimal}
; #@! TF.CreationDate,2022-05-03T02:33:05+03:00
; #@! TF.GenerationSoftware,Kicad,Pcbnew,6.0.4+dfsg-1+b1
; #@! TF.FileFunction,Plated,1,2,PTH
FMAT,2
METRIC
; #@! TA.AperFunction,Plated,PTH,ViaDrill
T1C0.400
; #@! TA.AperFunction,Plated,PTH,ComponentDrill
T2C0.700
; #@! TA.AperFunction,Plated,PTH,ComponentDrill
T3C0.800
; #@! TA.AperFunction,Plated,PTH,ComponentDrill
T4C1.000
; #@! TA.AperFunction,Plated,PTH,ComponentDrill
T5C1.300
; #@! TA.AperFunction,Plated,PTH,ComponentDrill
T6C3.500
%
G90
G05
T1
X29.98Y-82.685
X29.98Y-83.685
X29.98Y-87.765
X29.98Y-88.765
X30.98Y-82.685
X30.98Y-83.685
X30.98Y-87.765
X30.98Y-88.765
X32.385Y-86.36
X33.655Y-30.48
X40.64Y-35.56
X43.81Y-21.595
X43.81Y-29.85
X55.865Y-28.575
X62.88Y-86.995
X66.69Y-33.02
X71.12Y-85.09
X73.16Y-82.685
X73.16Y-83.685
X73.16Y-87.765
X73.16Y-88.765
X74.16Y-82.685
X74.16Y-83.685
X74.16Y-87.765
X74.16Y-88.765
T2
X34.34Y-43.18
X34.34Y-45.72
X34.34Y-48.26
X34.34Y-50.8
X36.88Y-43.18
X36.88Y-45.72
X36.88Y-48.26
X36.88Y-50.8
X59.64Y-43.18
X59.64Y-45.72
X59.64Y-48.26
X59.64Y-50.8
X62.18Y-43.18
X62.18Y-45.72
X62.18Y-48.26
X62.18Y-50.8
T3
X31.75Y-40.64
X31.75Y-43.18
X31.75Y-45.72
X31.75Y-48.26
X31.75Y-50.8
X39.37Y-48.26
X39.39Y-43.18
X39.39Y-50.8
X39.41Y-45.72
X40.64Y-24.765
X40.64Y-27.265
X41.87Y-48.26
X41.89Y-43.18
X41.89Y-50.8
X41.91Y-45.72
X43.81Y-24.755
X43.81Y-32.375
X44.45Y-38.1
X44.45Y-40.64
X44.45Y-43.18
X44.45Y-45.72
X44.45Y-48.26
X44.45Y-50.8
X44.45Y-53.34
X44.45Y-55.88
X46.35Y-24.755
X46.35Y-32.375
X48.89Y-24.755
X48.89Y-32.375
X51.43Y-24.755
X51.43Y-32.375
X52.07Y-38.1
X52.07Y-40.64
X52.07Y-43.18
X52.07Y-45.72
X52.07Y-48.26
X52.07Y-50.8
X52.07Y-53.34
X52.07Y-55.88
X53.97Y-24.755
X53.97Y-32.375
X54.61Y-38.1
X54.61Y-40.6
X54.63Y-43.18
X54.63Y-45.72
X54.63Y-48.26
X54.63Y-50.8
X56.51Y-24.755
X56.51Y-32.375
X57.13Y-43.18
X57.13Y-45.72
X57.13Y-48.26
X57.13Y-50.8
X59.05Y-24.755
X59.05Y-32.375
X64.77Y-40.64
X64.77Y-43.18
X64.77Y-45.72
X64.77Y-48.26
X64.77Y-50.8
T4
X58.41Y-83.185
X60.95Y-83.185
X63.49Y-83.185
X66.03Y-83.185
T5
X24.765Y-63.065
X24.765Y-75.565
X24.805Y-95.975
X24.805Y-108.475
X29.765Y-63.065
X29.765Y-75.565
X29.805Y-95.975
X29.805Y-108.475
X38.735Y-63.065
X38.735Y-75.565
X38.775Y-95.975
X38.775Y-108.475
X43.735Y-63.065
X43.735Y-75.565
X43.775Y-95.975
X43.775Y-108.475
X52.785Y-63.065
X52.785Y-75.565
X52.785Y-95.975
X52.785Y-108.475
X57.785Y-63.065
X57.785Y-75.565
X57.785Y-95.975
X57.785Y-108.475
X66.715Y-63.065
X66.715Y-75.565
X66.755Y-95.975
X66.755Y-108.475
X71.715Y-63.065
X71.715Y-75.565
X71.755Y-95.975
X71.755Y-108.475
T6
X25.4Y-43.18
X25.4Y-114.935
X34.29Y-57.15
X48.26Y-85.725
X48.26Y-114.935
X62.23Y-57.15
X71.12Y-43.18
X71.12Y-114.935
T0
M30
