G04 #@! TF.GenerationSoftware,KiCad,Pcbnew,6.0.4+dfsg-1+b1*
G04 #@! TF.CreationDate,2022-05-03T02:32:59+03:00*
G04 #@! TF.ProjectId,yatabaza-keyboard,79617461-6261-47a6-912d-6b6579626f61,rev?*
G04 #@! TF.SameCoordinates,Original*
G04 #@! TF.FileFunction,Legend,Bot*
G04 #@! TF.FilePolarity,Positive*
%FSLAX46Y46*%
G04 Gerber Fmt 4.6, Leading zero omitted, Abs format (unit mm)*
G04 Created by KiCad (PCBNEW 6.0.4+dfsg-1+b1) date 2022-05-03 02:32:59*
%MOMM*%
%LPD*%
G01*
G04 APERTURE LIST*
%ADD10C,0.150000*%
%ADD11C,0.120000*%
%ADD12C,1.600000*%
%ADD13R,1.700000X1.700000*%
%ADD14C,7.000000*%
%ADD15C,1.400000*%
%ADD16O,1.400000X1.400000*%
%ADD17O,1.850000X3.048000*%
%ADD18R,1.600000X1.600000*%
%ADD19O,1.600000X1.600000*%
%ADD20O,1.700000X1.700000*%
%ADD21R,1.000000X1.500000*%
G04 APERTURE END LIST*
D10*
X62862857Y-80867380D02*
X63339047Y-80867380D01*
X63339047Y-79867380D01*
X62529523Y-80343571D02*
X62196190Y-80343571D01*
X62053333Y-80867380D02*
X62529523Y-80867380D01*
X62529523Y-79867380D01*
X62053333Y-79867380D01*
X61624761Y-80867380D02*
X61624761Y-79867380D01*
X61386666Y-79867380D01*
X61243809Y-79915000D01*
X61148571Y-80010238D01*
X61100952Y-80105476D01*
X61053333Y-80295952D01*
X61053333Y-80438809D01*
X61100952Y-80629285D01*
X61148571Y-80724523D01*
X61243809Y-80819761D01*
X61386666Y-80867380D01*
X61624761Y-80867380D01*
X65396666Y-89352380D02*
X65872857Y-89352380D01*
X65872857Y-88352380D01*
X64872857Y-88352380D02*
X64682380Y-88352380D01*
X64587142Y-88400000D01*
X64491904Y-88495238D01*
X64444285Y-88685714D01*
X64444285Y-89019047D01*
X64491904Y-89209523D01*
X64587142Y-89304761D01*
X64682380Y-89352380D01*
X64872857Y-89352380D01*
X64968095Y-89304761D01*
X65063333Y-89209523D01*
X65110952Y-89019047D01*
X65110952Y-88685714D01*
X65063333Y-88495238D01*
X64968095Y-88400000D01*
X64872857Y-88352380D01*
X63825238Y-88352380D02*
X63634761Y-88352380D01*
X63539523Y-88400000D01*
X63444285Y-88495238D01*
X63396666Y-88685714D01*
X63396666Y-89019047D01*
X63444285Y-89209523D01*
X63539523Y-89304761D01*
X63634761Y-89352380D01*
X63825238Y-89352380D01*
X63920476Y-89304761D01*
X64015714Y-89209523D01*
X64063333Y-89019047D01*
X64063333Y-88685714D01*
X64015714Y-88495238D01*
X63920476Y-88400000D01*
X63825238Y-88352380D01*
X62968095Y-89352380D02*
X62968095Y-88352380D01*
X62587142Y-88352380D01*
X62491904Y-88400000D01*
X62444285Y-88447619D01*
X62396666Y-88542857D01*
X62396666Y-88685714D01*
X62444285Y-88780952D01*
X62491904Y-88828571D01*
X62587142Y-88876190D01*
X62968095Y-88876190D01*
X61634761Y-88828571D02*
X61491904Y-88876190D01*
X61444285Y-88923809D01*
X61396666Y-89019047D01*
X61396666Y-89161904D01*
X61444285Y-89257142D01*
X61491904Y-89304761D01*
X61587142Y-89352380D01*
X61968095Y-89352380D01*
X61968095Y-88352380D01*
X61634761Y-88352380D01*
X61539523Y-88400000D01*
X61491904Y-88447619D01*
X61444285Y-88542857D01*
X61444285Y-88638095D01*
X61491904Y-88733333D01*
X61539523Y-88780952D01*
X61634761Y-88828571D01*
X61968095Y-88828571D01*
X61015714Y-89066666D02*
X60539523Y-89066666D01*
X61110952Y-89352380D02*
X60777619Y-88352380D01*
X60444285Y-89352380D01*
X59539523Y-89257142D02*
X59587142Y-89304761D01*
X59730000Y-89352380D01*
X59825238Y-89352380D01*
X59968095Y-89304761D01*
X60063333Y-89209523D01*
X60110952Y-89114285D01*
X60158571Y-88923809D01*
X60158571Y-88780952D01*
X60110952Y-88590476D01*
X60063333Y-88495238D01*
X59968095Y-88400000D01*
X59825238Y-88352380D01*
X59730000Y-88352380D01*
X59587142Y-88400000D01*
X59539523Y-88447619D01*
X59110952Y-89352380D02*
X59110952Y-88352380D01*
X58539523Y-89352380D02*
X58968095Y-88780952D01*
X58539523Y-88352380D02*
X59110952Y-88923809D01*
D11*
X65650000Y-82075000D02*
X65650000Y-81745000D01*
X57080000Y-79085000D02*
X67360000Y-79085000D01*
X66410000Y-73085000D02*
X65650000Y-73085000D01*
X65750000Y-79085000D02*
X65750000Y-73085000D01*
X63110000Y-73085000D02*
X63110000Y-79085000D01*
X58030000Y-73085000D02*
X58030000Y-79085000D01*
X67300000Y-84455000D02*
X67300000Y-83185000D01*
X66230000Y-79085000D02*
X66230000Y-73085000D01*
X59680000Y-81745000D02*
X59680000Y-79085000D01*
X64760000Y-81745000D02*
X64760000Y-79085000D01*
X65990000Y-79085000D02*
X65990000Y-73085000D01*
X58790000Y-73085000D02*
X58030000Y-73085000D01*
X63870000Y-79085000D02*
X63870000Y-73085000D01*
X63870000Y-73085000D02*
X63110000Y-73085000D01*
X67360000Y-79085000D02*
X67360000Y-81745000D01*
X60570000Y-82142071D02*
X60570000Y-81745000D01*
X65870000Y-79085000D02*
X65870000Y-73085000D01*
X60570000Y-73085000D02*
X60570000Y-79085000D01*
X66110000Y-79085000D02*
X66110000Y-73085000D01*
X58790000Y-82142071D02*
X58790000Y-81745000D01*
X58790000Y-79085000D02*
X58790000Y-73085000D01*
X63110000Y-82142071D02*
X63110000Y-81745000D01*
X57080000Y-81745000D02*
X57080000Y-79085000D01*
X61330000Y-79085000D02*
X61330000Y-73085000D01*
X66350000Y-79085000D02*
X66350000Y-73085000D01*
X61330000Y-73085000D02*
X60570000Y-73085000D01*
X66030000Y-84455000D02*
X67300000Y-84455000D01*
X66410000Y-79085000D02*
X66410000Y-73085000D01*
X63870000Y-82142071D02*
X63870000Y-81745000D01*
X62220000Y-81745000D02*
X62220000Y-79085000D01*
X61330000Y-82142071D02*
X61330000Y-81745000D01*
X67360000Y-81745000D02*
X57080000Y-81745000D01*
X66410000Y-82075000D02*
X66410000Y-81745000D01*
X65650000Y-73085000D02*
X65650000Y-79085000D01*
X58030000Y-82142071D02*
X58030000Y-81745000D01*
X60830000Y-87995000D02*
X63630000Y-87995000D01*
X63630000Y-85995000D02*
X60830000Y-85995000D01*
X63630000Y-87995000D02*
X63630000Y-85995000D01*
X60830000Y-85995000D02*
X60830000Y-87995000D01*
%LPC*%
D12*
X57130000Y-48260000D03*
X54630000Y-48260000D03*
X57130000Y-45720000D03*
X54630000Y-45720000D03*
X57130000Y-50800000D03*
X54630000Y-50800000D03*
X57130000Y-43180000D03*
X54630000Y-43180000D03*
X39390000Y-43180000D03*
X41890000Y-43180000D03*
X39390000Y-50800000D03*
X41890000Y-50800000D03*
X39410000Y-45720000D03*
X41910000Y-45720000D03*
X39370000Y-48260000D03*
X41870000Y-48260000D03*
X54610000Y-38100000D03*
X54610000Y-40600000D03*
D13*
X30480000Y-25400000D03*
X30480000Y-27940000D03*
X30480000Y-30480000D03*
X30480000Y-33020000D03*
X73660000Y-25400000D03*
X73660000Y-27940000D03*
X73660000Y-30480000D03*
X73660000Y-33020000D03*
D14*
X71120000Y-114935000D03*
X25400000Y-114935000D03*
X71120000Y-43180000D03*
X25400000Y-43180000D03*
D15*
X62180000Y-48260000D03*
D16*
X59640000Y-48260000D03*
D15*
X62180000Y-45720000D03*
D16*
X59640000Y-45720000D03*
D15*
X62180000Y-50800000D03*
D16*
X59640000Y-50800000D03*
D15*
X62180000Y-43180000D03*
D16*
X59640000Y-43180000D03*
D15*
X34340000Y-43180000D03*
D16*
X36880000Y-43180000D03*
D15*
X34340000Y-50800000D03*
D16*
X36880000Y-50800000D03*
D15*
X34340000Y-45720000D03*
D16*
X36880000Y-45720000D03*
D15*
X34340000Y-48260000D03*
D16*
X36880000Y-48260000D03*
D17*
X24765000Y-75565000D03*
X24765000Y-63065000D03*
X29765000Y-63065000D03*
X29765000Y-75565000D03*
X24805000Y-108475000D03*
X24805000Y-95975000D03*
X29805000Y-108475000D03*
X29805000Y-95975000D03*
X38735000Y-75565000D03*
X38735000Y-63065000D03*
X43735000Y-63065000D03*
X43735000Y-75565000D03*
X38775000Y-108475000D03*
X38775000Y-95975000D03*
X43775000Y-108475000D03*
X43775000Y-95975000D03*
X57785000Y-63065000D03*
X57785000Y-75565000D03*
X52785000Y-75565000D03*
X52785000Y-63065000D03*
X57785000Y-108475000D03*
X57785000Y-95975000D03*
X52785000Y-95975000D03*
X52785000Y-108475000D03*
X71715000Y-75565000D03*
X71715000Y-63065000D03*
X66715000Y-75565000D03*
X66715000Y-63065000D03*
X71755000Y-108475000D03*
X71755000Y-95975000D03*
X66755000Y-95975000D03*
X66755000Y-108475000D03*
D18*
X44450000Y-38100000D03*
D19*
X44450000Y-40640000D03*
X44450000Y-43180000D03*
X44450000Y-45720000D03*
X44450000Y-48260000D03*
X44450000Y-50800000D03*
X44450000Y-53340000D03*
X44450000Y-55880000D03*
X52070000Y-55880000D03*
X52070000Y-53340000D03*
X52070000Y-50800000D03*
X52070000Y-48260000D03*
X52070000Y-45720000D03*
X52070000Y-43180000D03*
X52070000Y-40640000D03*
X52070000Y-38100000D03*
D13*
X73660000Y-83185000D03*
X73660000Y-85725000D03*
X73660000Y-88265000D03*
D14*
X34290000Y-57150000D03*
D18*
X31750000Y-40640000D03*
D19*
X31750000Y-43180000D03*
X31750000Y-45720000D03*
X31750000Y-48260000D03*
X31750000Y-50800000D03*
D13*
X30480000Y-83185000D03*
X30480000Y-85725000D03*
X30480000Y-88265000D03*
D18*
X43810000Y-32375000D03*
D19*
X46350000Y-32375000D03*
X48890000Y-32375000D03*
X51430000Y-32375000D03*
X53970000Y-32375000D03*
X56510000Y-32375000D03*
X59050000Y-32375000D03*
X59050000Y-24755000D03*
X56510000Y-24755000D03*
X53970000Y-24755000D03*
X51430000Y-24755000D03*
X48890000Y-24755000D03*
X46350000Y-24755000D03*
X43810000Y-24755000D03*
D14*
X48260000Y-85725000D03*
X62230000Y-57150000D03*
D18*
X64770000Y-40640000D03*
D19*
X64770000Y-43180000D03*
X64770000Y-45720000D03*
X64770000Y-48260000D03*
X64770000Y-50800000D03*
D12*
X40640000Y-24765000D03*
X40640000Y-27265000D03*
D14*
X48260000Y-114935000D03*
D13*
X66030000Y-83185000D03*
D20*
X63490000Y-83185000D03*
X60950000Y-83185000D03*
X58410000Y-83185000D03*
D21*
X61580000Y-86995000D03*
X62880000Y-86995000D03*
M02*
