G04 #@! TF.GenerationSoftware,KiCad,Pcbnew,6.0.4+dfsg-1+b1*
G04 #@! TF.CreationDate,2022-05-03T02:32:59+03:00*
G04 #@! TF.ProjectId,yatabaza-keyboard,79617461-6261-47a6-912d-6b6579626f61,rev?*
G04 #@! TF.SameCoordinates,Original*
G04 #@! TF.FileFunction,Soldermask,Top*
G04 #@! TF.FilePolarity,Negative*
%FSLAX46Y46*%
G04 Gerber Fmt 4.6, Leading zero omitted, Abs format (unit mm)*
G04 Created by KiCad (PCBNEW 6.0.4+dfsg-1+b1) date 2022-05-03 02:32:59*
%MOMM*%
%LPD*%
G01*
G04 APERTURE LIST*
%ADD10C,1.600000*%
%ADD11R,1.000000X1.500000*%
%ADD12R,1.700000X1.700000*%
%ADD13C,7.000000*%
%ADD14C,1.400000*%
%ADD15O,1.400000X1.400000*%
%ADD16O,1.850000X3.048000*%
%ADD17R,1.600000X1.600000*%
%ADD18O,1.600000X1.600000*%
%ADD19O,1.700000X1.700000*%
G04 APERTURE END LIST*
D10*
X57130000Y-48260000D03*
X54630000Y-48260000D03*
X57130000Y-45720000D03*
X54630000Y-45720000D03*
X57130000Y-50800000D03*
X54630000Y-50800000D03*
X57130000Y-43180000D03*
X54630000Y-43180000D03*
X39390000Y-43180000D03*
X41890000Y-43180000D03*
X39390000Y-50800000D03*
X41890000Y-50800000D03*
X39410000Y-45720000D03*
X41910000Y-45720000D03*
X39370000Y-48260000D03*
X41870000Y-48260000D03*
X54610000Y-38100000D03*
X54610000Y-40600000D03*
D11*
X66705000Y-33020000D03*
X65405000Y-33020000D03*
D12*
X30480000Y-25400000D03*
X30480000Y-27940000D03*
X30480000Y-30480000D03*
X30480000Y-33020000D03*
X73660000Y-25400000D03*
X73660000Y-27940000D03*
X73660000Y-30480000D03*
X73660000Y-33020000D03*
D13*
X71120000Y-114935000D03*
X25400000Y-114935000D03*
X71120000Y-43180000D03*
X25400000Y-43180000D03*
D14*
X62180000Y-48260000D03*
D15*
X59640000Y-48260000D03*
D14*
X62180000Y-45720000D03*
D15*
X59640000Y-45720000D03*
D14*
X62180000Y-50800000D03*
D15*
X59640000Y-50800000D03*
D14*
X62180000Y-43180000D03*
D15*
X59640000Y-43180000D03*
D14*
X34340000Y-43180000D03*
D15*
X36880000Y-43180000D03*
D14*
X34340000Y-50800000D03*
D15*
X36880000Y-50800000D03*
D14*
X34340000Y-45720000D03*
D15*
X36880000Y-45720000D03*
D14*
X34340000Y-48260000D03*
D15*
X36880000Y-48260000D03*
D16*
X24765000Y-75565000D03*
X24765000Y-63065000D03*
X29765000Y-63065000D03*
X29765000Y-75565000D03*
X24805000Y-108475000D03*
X24805000Y-95975000D03*
X29805000Y-108475000D03*
X29805000Y-95975000D03*
X38735000Y-75565000D03*
X38735000Y-63065000D03*
X43735000Y-63065000D03*
X43735000Y-75565000D03*
X38775000Y-108475000D03*
X38775000Y-95975000D03*
X43775000Y-108475000D03*
X43775000Y-95975000D03*
X57785000Y-63065000D03*
X57785000Y-75565000D03*
X52785000Y-75565000D03*
X52785000Y-63065000D03*
X57785000Y-108475000D03*
X57785000Y-95975000D03*
X52785000Y-95975000D03*
X52785000Y-108475000D03*
X71715000Y-75565000D03*
X71715000Y-63065000D03*
X66715000Y-75565000D03*
X66715000Y-63065000D03*
X71755000Y-108475000D03*
X71755000Y-95975000D03*
X66755000Y-95975000D03*
X66755000Y-108475000D03*
D17*
X44450000Y-38100000D03*
D18*
X44450000Y-40640000D03*
X44450000Y-43180000D03*
X44450000Y-45720000D03*
X44450000Y-48260000D03*
X44450000Y-50800000D03*
X44450000Y-53340000D03*
X44450000Y-55880000D03*
X52070000Y-55880000D03*
X52070000Y-53340000D03*
X52070000Y-50800000D03*
X52070000Y-48260000D03*
X52070000Y-45720000D03*
X52070000Y-43180000D03*
X52070000Y-40640000D03*
X52070000Y-38100000D03*
D12*
X73660000Y-83185000D03*
X73660000Y-85725000D03*
X73660000Y-88265000D03*
D11*
X46340000Y-28575000D03*
X47640000Y-28575000D03*
D13*
X34290000Y-57150000D03*
D11*
X55865000Y-28575000D03*
X57165000Y-28575000D03*
D17*
X31750000Y-40640000D03*
D18*
X31750000Y-43180000D03*
X31750000Y-45720000D03*
X31750000Y-48260000D03*
X31750000Y-50800000D03*
D12*
X30480000Y-83185000D03*
X30480000Y-85725000D03*
X30480000Y-88265000D03*
D17*
X43810000Y-32375000D03*
D18*
X46350000Y-32375000D03*
X48890000Y-32375000D03*
X51430000Y-32375000D03*
X53970000Y-32375000D03*
X56510000Y-32375000D03*
X59050000Y-32375000D03*
X59050000Y-24755000D03*
X56510000Y-24755000D03*
X53970000Y-24755000D03*
X51430000Y-24755000D03*
X48890000Y-24755000D03*
X46350000Y-24755000D03*
X43810000Y-24755000D03*
D13*
X48260000Y-85725000D03*
X62230000Y-57150000D03*
D17*
X64770000Y-40640000D03*
D18*
X64770000Y-43180000D03*
X64770000Y-45720000D03*
X64770000Y-48260000D03*
X64770000Y-50800000D03*
D10*
X40640000Y-24765000D03*
X40640000Y-27265000D03*
D13*
X48260000Y-114935000D03*
D12*
X66030000Y-83185000D03*
D19*
X63490000Y-83185000D03*
X60950000Y-83185000D03*
X58410000Y-83185000D03*
M02*
