G04 #@! TF.GenerationSoftware,KiCad,Pcbnew,6.0.4+dfsg-1+b1*
G04 #@! TF.CreationDate,2022-05-03T02:32:59+03:00*
G04 #@! TF.ProjectId,yatabaza-keyboard,79617461-6261-47a6-912d-6b6579626f61,rev?*
G04 #@! TF.SameCoordinates,Original*
G04 #@! TF.FileFunction,Legend,Top*
G04 #@! TF.FilePolarity,Positive*
%FSLAX46Y46*%
G04 Gerber Fmt 4.6, Leading zero omitted, Abs format (unit mm)*
G04 Created by KiCad (PCBNEW 6.0.4+dfsg-1+b1) date 2022-05-03 02:32:59*
%MOMM*%
%LPD*%
G01*
G04 APERTURE LIST*
%ADD10C,0.150000*%
%ADD11C,0.120000*%
%ADD12C,1.600000*%
%ADD13R,1.000000X1.500000*%
%ADD14R,1.700000X1.700000*%
%ADD15C,7.000000*%
%ADD16C,1.400000*%
%ADD17O,1.400000X1.400000*%
%ADD18O,1.850000X3.048000*%
%ADD19R,1.600000X1.600000*%
%ADD20O,1.600000X1.600000*%
%ADD21O,1.700000X1.700000*%
G04 APERTURE END LIST*
D10*
X56237142Y-48426666D02*
X56284761Y-48474285D01*
X56332380Y-48617142D01*
X56332380Y-48712380D01*
X56284761Y-48855238D01*
X56189523Y-48950476D01*
X56094285Y-48998095D01*
X55903809Y-49045714D01*
X55760952Y-49045714D01*
X55570476Y-48998095D01*
X55475238Y-48950476D01*
X55380000Y-48855238D01*
X55332380Y-48712380D01*
X55332380Y-48617142D01*
X55380000Y-48474285D01*
X55427619Y-48426666D01*
X56332380Y-47474285D02*
X56332380Y-48045714D01*
X56332380Y-47760000D02*
X55332380Y-47760000D01*
X55475238Y-47855238D01*
X55570476Y-47950476D01*
X55618095Y-48045714D01*
X56237142Y-45886666D02*
X56284761Y-45934285D01*
X56332380Y-46077142D01*
X56332380Y-46172380D01*
X56284761Y-46315238D01*
X56189523Y-46410476D01*
X56094285Y-46458095D01*
X55903809Y-46505714D01*
X55760952Y-46505714D01*
X55570476Y-46458095D01*
X55475238Y-46410476D01*
X55380000Y-46315238D01*
X55332380Y-46172380D01*
X55332380Y-46077142D01*
X55380000Y-45934285D01*
X55427619Y-45886666D01*
X55427619Y-45505714D02*
X55380000Y-45458095D01*
X55332380Y-45362857D01*
X55332380Y-45124761D01*
X55380000Y-45029523D01*
X55427619Y-44981904D01*
X55522857Y-44934285D01*
X55618095Y-44934285D01*
X55760952Y-44981904D01*
X56332380Y-45553333D01*
X56332380Y-44934285D01*
X56237142Y-50966666D02*
X56284761Y-51014285D01*
X56332380Y-51157142D01*
X56332380Y-51252380D01*
X56284761Y-51395238D01*
X56189523Y-51490476D01*
X56094285Y-51538095D01*
X55903809Y-51585714D01*
X55760952Y-51585714D01*
X55570476Y-51538095D01*
X55475238Y-51490476D01*
X55380000Y-51395238D01*
X55332380Y-51252380D01*
X55332380Y-51157142D01*
X55380000Y-51014285D01*
X55427619Y-50966666D01*
X55332380Y-50633333D02*
X55332380Y-50014285D01*
X55713333Y-50347619D01*
X55713333Y-50204761D01*
X55760952Y-50109523D01*
X55808571Y-50061904D01*
X55903809Y-50014285D01*
X56141904Y-50014285D01*
X56237142Y-50061904D01*
X56284761Y-50109523D01*
X56332380Y-50204761D01*
X56332380Y-50490476D01*
X56284761Y-50585714D01*
X56237142Y-50633333D01*
X56237142Y-43346666D02*
X56284761Y-43394285D01*
X56332380Y-43537142D01*
X56332380Y-43632380D01*
X56284761Y-43775238D01*
X56189523Y-43870476D01*
X56094285Y-43918095D01*
X55903809Y-43965714D01*
X55760952Y-43965714D01*
X55570476Y-43918095D01*
X55475238Y-43870476D01*
X55380000Y-43775238D01*
X55332380Y-43632380D01*
X55332380Y-43537142D01*
X55380000Y-43394285D01*
X55427619Y-43346666D01*
X55665714Y-42489523D02*
X56332380Y-42489523D01*
X55284761Y-42727619D02*
X55999047Y-42965714D01*
X55999047Y-42346666D01*
X40997142Y-43346666D02*
X41044761Y-43394285D01*
X41092380Y-43537142D01*
X41092380Y-43632380D01*
X41044761Y-43775238D01*
X40949523Y-43870476D01*
X40854285Y-43918095D01*
X40663809Y-43965714D01*
X40520952Y-43965714D01*
X40330476Y-43918095D01*
X40235238Y-43870476D01*
X40140000Y-43775238D01*
X40092380Y-43632380D01*
X40092380Y-43537142D01*
X40140000Y-43394285D01*
X40187619Y-43346666D01*
X40092380Y-42441904D02*
X40092380Y-42918095D01*
X40568571Y-42965714D01*
X40520952Y-42918095D01*
X40473333Y-42822857D01*
X40473333Y-42584761D01*
X40520952Y-42489523D01*
X40568571Y-42441904D01*
X40663809Y-42394285D01*
X40901904Y-42394285D01*
X40997142Y-42441904D01*
X41044761Y-42489523D01*
X41092380Y-42584761D01*
X41092380Y-42822857D01*
X41044761Y-42918095D01*
X40997142Y-42965714D01*
X40997142Y-50966666D02*
X41044761Y-51014285D01*
X41092380Y-51157142D01*
X41092380Y-51252380D01*
X41044761Y-51395238D01*
X40949523Y-51490476D01*
X40854285Y-51538095D01*
X40663809Y-51585714D01*
X40520952Y-51585714D01*
X40330476Y-51538095D01*
X40235238Y-51490476D01*
X40140000Y-51395238D01*
X40092380Y-51252380D01*
X40092380Y-51157142D01*
X40140000Y-51014285D01*
X40187619Y-50966666D01*
X40092380Y-50109523D02*
X40092380Y-50300000D01*
X40140000Y-50395238D01*
X40187619Y-50442857D01*
X40330476Y-50538095D01*
X40520952Y-50585714D01*
X40901904Y-50585714D01*
X40997142Y-50538095D01*
X41044761Y-50490476D01*
X41092380Y-50395238D01*
X41092380Y-50204761D01*
X41044761Y-50109523D01*
X40997142Y-50061904D01*
X40901904Y-50014285D01*
X40663809Y-50014285D01*
X40568571Y-50061904D01*
X40520952Y-50109523D01*
X40473333Y-50204761D01*
X40473333Y-50395238D01*
X40520952Y-50490476D01*
X40568571Y-50538095D01*
X40663809Y-50585714D01*
X41017142Y-45886666D02*
X41064761Y-45934285D01*
X41112380Y-46077142D01*
X41112380Y-46172380D01*
X41064761Y-46315238D01*
X40969523Y-46410476D01*
X40874285Y-46458095D01*
X40683809Y-46505714D01*
X40540952Y-46505714D01*
X40350476Y-46458095D01*
X40255238Y-46410476D01*
X40160000Y-46315238D01*
X40112380Y-46172380D01*
X40112380Y-46077142D01*
X40160000Y-45934285D01*
X40207619Y-45886666D01*
X40112380Y-45553333D02*
X40112380Y-44886666D01*
X41112380Y-45315238D01*
X40977142Y-48426666D02*
X41024761Y-48474285D01*
X41072380Y-48617142D01*
X41072380Y-48712380D01*
X41024761Y-48855238D01*
X40929523Y-48950476D01*
X40834285Y-48998095D01*
X40643809Y-49045714D01*
X40500952Y-49045714D01*
X40310476Y-48998095D01*
X40215238Y-48950476D01*
X40120000Y-48855238D01*
X40072380Y-48712380D01*
X40072380Y-48617142D01*
X40120000Y-48474285D01*
X40167619Y-48426666D01*
X40500952Y-47855238D02*
X40453333Y-47950476D01*
X40405714Y-47998095D01*
X40310476Y-48045714D01*
X40262857Y-48045714D01*
X40167619Y-47998095D01*
X40120000Y-47950476D01*
X40072380Y-47855238D01*
X40072380Y-47664761D01*
X40120000Y-47569523D01*
X40167619Y-47521904D01*
X40262857Y-47474285D01*
X40310476Y-47474285D01*
X40405714Y-47521904D01*
X40453333Y-47569523D01*
X40500952Y-47664761D01*
X40500952Y-47855238D01*
X40548571Y-47950476D01*
X40596190Y-47998095D01*
X40691428Y-48045714D01*
X40881904Y-48045714D01*
X40977142Y-47998095D01*
X41024761Y-47950476D01*
X41072380Y-47855238D01*
X41072380Y-47664761D01*
X41024761Y-47569523D01*
X40977142Y-47521904D01*
X40881904Y-47474285D01*
X40691428Y-47474285D01*
X40596190Y-47521904D01*
X40548571Y-47569523D01*
X40500952Y-47664761D01*
X54443333Y-39727142D02*
X54395714Y-39774761D01*
X54252857Y-39822380D01*
X54157619Y-39822380D01*
X54014761Y-39774761D01*
X53919523Y-39679523D01*
X53871904Y-39584285D01*
X53824285Y-39393809D01*
X53824285Y-39250952D01*
X53871904Y-39060476D01*
X53919523Y-38965238D01*
X54014761Y-38870000D01*
X54157619Y-38822380D01*
X54252857Y-38822380D01*
X54395714Y-38870000D01*
X54443333Y-38917619D01*
X54919523Y-39822380D02*
X55110000Y-39822380D01*
X55205238Y-39774761D01*
X55252857Y-39727142D01*
X55348095Y-39584285D01*
X55395714Y-39393809D01*
X55395714Y-39012857D01*
X55348095Y-38917619D01*
X55300476Y-38870000D01*
X55205238Y-38822380D01*
X55014761Y-38822380D01*
X54919523Y-38870000D01*
X54871904Y-38917619D01*
X54824285Y-39012857D01*
X54824285Y-39250952D01*
X54871904Y-39346190D01*
X54919523Y-39393809D01*
X55014761Y-39441428D01*
X55205238Y-39441428D01*
X55300476Y-39393809D01*
X55348095Y-39346190D01*
X55395714Y-39250952D01*
X62888333Y-35377380D02*
X62412142Y-35377380D01*
X62412142Y-34377380D01*
X63412142Y-34377380D02*
X63602619Y-34377380D01*
X63697857Y-34425000D01*
X63793095Y-34520238D01*
X63840714Y-34710714D01*
X63840714Y-35044047D01*
X63793095Y-35234523D01*
X63697857Y-35329761D01*
X63602619Y-35377380D01*
X63412142Y-35377380D01*
X63316904Y-35329761D01*
X63221666Y-35234523D01*
X63174047Y-35044047D01*
X63174047Y-34710714D01*
X63221666Y-34520238D01*
X63316904Y-34425000D01*
X63412142Y-34377380D01*
X64459761Y-34377380D02*
X64650238Y-34377380D01*
X64745476Y-34425000D01*
X64840714Y-34520238D01*
X64888333Y-34710714D01*
X64888333Y-35044047D01*
X64840714Y-35234523D01*
X64745476Y-35329761D01*
X64650238Y-35377380D01*
X64459761Y-35377380D01*
X64364523Y-35329761D01*
X64269285Y-35234523D01*
X64221666Y-35044047D01*
X64221666Y-34710714D01*
X64269285Y-34520238D01*
X64364523Y-34425000D01*
X64459761Y-34377380D01*
X65316904Y-35377380D02*
X65316904Y-34377380D01*
X65697857Y-34377380D01*
X65793095Y-34425000D01*
X65840714Y-34472619D01*
X65888333Y-34567857D01*
X65888333Y-34710714D01*
X65840714Y-34805952D01*
X65793095Y-34853571D01*
X65697857Y-34901190D01*
X65316904Y-34901190D01*
X66650238Y-34853571D02*
X66793095Y-34901190D01*
X66840714Y-34948809D01*
X66888333Y-35044047D01*
X66888333Y-35186904D01*
X66840714Y-35282142D01*
X66793095Y-35329761D01*
X66697857Y-35377380D01*
X66316904Y-35377380D01*
X66316904Y-34377380D01*
X66650238Y-34377380D01*
X66745476Y-34425000D01*
X66793095Y-34472619D01*
X66840714Y-34567857D01*
X66840714Y-34663095D01*
X66793095Y-34758333D01*
X66745476Y-34805952D01*
X66650238Y-34853571D01*
X66316904Y-34853571D01*
X67269285Y-35091666D02*
X67745476Y-35091666D01*
X67174047Y-35377380D02*
X67507380Y-34377380D01*
X67840714Y-35377380D01*
X68745476Y-35282142D02*
X68697857Y-35329761D01*
X68555000Y-35377380D01*
X68459761Y-35377380D01*
X68316904Y-35329761D01*
X68221666Y-35234523D01*
X68174047Y-35139285D01*
X68126428Y-34948809D01*
X68126428Y-34805952D01*
X68174047Y-34615476D01*
X68221666Y-34520238D01*
X68316904Y-34425000D01*
X68459761Y-34377380D01*
X68555000Y-34377380D01*
X68697857Y-34425000D01*
X68745476Y-34472619D01*
X69174047Y-35377380D02*
X69174047Y-34377380D01*
X69745476Y-35377380D02*
X69316904Y-34805952D01*
X69745476Y-34377380D02*
X69174047Y-34948809D01*
X33472380Y-32281428D02*
X32472380Y-32281428D01*
X33472380Y-31710000D02*
X32900952Y-32138571D01*
X32472380Y-31710000D02*
X33043809Y-32281428D01*
X32948571Y-30948095D02*
X32996190Y-30805238D01*
X33043809Y-30757619D01*
X33139047Y-30710000D01*
X33281904Y-30710000D01*
X33377142Y-30757619D01*
X33424761Y-30805238D01*
X33472380Y-30900476D01*
X33472380Y-31281428D01*
X32472380Y-31281428D01*
X32472380Y-30948095D01*
X32520000Y-30852857D01*
X32567619Y-30805238D01*
X32662857Y-30757619D01*
X32758095Y-30757619D01*
X32853333Y-30805238D01*
X32900952Y-30852857D01*
X32948571Y-30948095D01*
X32948571Y-31281428D01*
X33472380Y-30281428D02*
X32472380Y-30281428D01*
X32472380Y-30043333D01*
X32520000Y-29900476D01*
X32615238Y-29805238D01*
X32710476Y-29757619D01*
X32900952Y-29710000D01*
X33043809Y-29710000D01*
X33234285Y-29757619D01*
X33329523Y-29805238D01*
X33424761Y-29900476D01*
X33472380Y-30043333D01*
X33472380Y-30281428D01*
X33567619Y-29519523D02*
X33567619Y-28757619D01*
X32472380Y-28329047D02*
X32472380Y-28138571D01*
X32520000Y-28043333D01*
X32615238Y-27948095D01*
X32805714Y-27900476D01*
X33139047Y-27900476D01*
X33329523Y-27948095D01*
X33424761Y-28043333D01*
X33472380Y-28138571D01*
X33472380Y-28329047D01*
X33424761Y-28424285D01*
X33329523Y-28519523D01*
X33139047Y-28567142D01*
X32805714Y-28567142D01*
X32615238Y-28519523D01*
X32520000Y-28424285D01*
X32472380Y-28329047D01*
X32472380Y-27471904D02*
X33281904Y-27471904D01*
X33377142Y-27424285D01*
X33424761Y-27376666D01*
X33472380Y-27281428D01*
X33472380Y-27090952D01*
X33424761Y-26995714D01*
X33377142Y-26948095D01*
X33281904Y-26900476D01*
X32472380Y-26900476D01*
X32472380Y-26567142D02*
X32472380Y-25995714D01*
X33472380Y-26281428D02*
X32472380Y-26281428D01*
X70667619Y-26805238D02*
X71667619Y-26805238D01*
X70667619Y-27376666D02*
X71239047Y-26948095D01*
X71667619Y-27376666D02*
X71096190Y-26805238D01*
X71191428Y-28138571D02*
X71143809Y-28281428D01*
X71096190Y-28329047D01*
X71000952Y-28376666D01*
X70858095Y-28376666D01*
X70762857Y-28329047D01*
X70715238Y-28281428D01*
X70667619Y-28186190D01*
X70667619Y-27805238D01*
X71667619Y-27805238D01*
X71667619Y-28138571D01*
X71620000Y-28233809D01*
X71572380Y-28281428D01*
X71477142Y-28329047D01*
X71381904Y-28329047D01*
X71286666Y-28281428D01*
X71239047Y-28233809D01*
X71191428Y-28138571D01*
X71191428Y-27805238D01*
X70667619Y-28805238D02*
X71667619Y-28805238D01*
X71667619Y-29043333D01*
X71620000Y-29186190D01*
X71524761Y-29281428D01*
X71429523Y-29329047D01*
X71239047Y-29376666D01*
X71096190Y-29376666D01*
X70905714Y-29329047D01*
X70810476Y-29281428D01*
X70715238Y-29186190D01*
X70667619Y-29043333D01*
X70667619Y-28805238D01*
X70572380Y-29567142D02*
X70572380Y-30329047D01*
X70667619Y-30567142D02*
X71667619Y-30567142D01*
X70667619Y-31043333D02*
X71667619Y-31043333D01*
X70667619Y-31614761D01*
X71667619Y-31614761D01*
X61402380Y-48426666D02*
X60926190Y-48760000D01*
X61402380Y-48998095D02*
X60402380Y-48998095D01*
X60402380Y-48617142D01*
X60450000Y-48521904D01*
X60497619Y-48474285D01*
X60592857Y-48426666D01*
X60735714Y-48426666D01*
X60830952Y-48474285D01*
X60878571Y-48521904D01*
X60926190Y-48617142D01*
X60926190Y-48998095D01*
X61402380Y-47474285D02*
X61402380Y-48045714D01*
X61402380Y-47760000D02*
X60402380Y-47760000D01*
X60545238Y-47855238D01*
X60640476Y-47950476D01*
X60688095Y-48045714D01*
X61402380Y-45886666D02*
X60926190Y-46220000D01*
X61402380Y-46458095D02*
X60402380Y-46458095D01*
X60402380Y-46077142D01*
X60450000Y-45981904D01*
X60497619Y-45934285D01*
X60592857Y-45886666D01*
X60735714Y-45886666D01*
X60830952Y-45934285D01*
X60878571Y-45981904D01*
X60926190Y-46077142D01*
X60926190Y-46458095D01*
X60497619Y-45505714D02*
X60450000Y-45458095D01*
X60402380Y-45362857D01*
X60402380Y-45124761D01*
X60450000Y-45029523D01*
X60497619Y-44981904D01*
X60592857Y-44934285D01*
X60688095Y-44934285D01*
X60830952Y-44981904D01*
X61402380Y-45553333D01*
X61402380Y-44934285D01*
X61402380Y-50966666D02*
X60926190Y-51300000D01*
X61402380Y-51538095D02*
X60402380Y-51538095D01*
X60402380Y-51157142D01*
X60450000Y-51061904D01*
X60497619Y-51014285D01*
X60592857Y-50966666D01*
X60735714Y-50966666D01*
X60830952Y-51014285D01*
X60878571Y-51061904D01*
X60926190Y-51157142D01*
X60926190Y-51538095D01*
X60402380Y-50633333D02*
X60402380Y-50014285D01*
X60783333Y-50347619D01*
X60783333Y-50204761D01*
X60830952Y-50109523D01*
X60878571Y-50061904D01*
X60973809Y-50014285D01*
X61211904Y-50014285D01*
X61307142Y-50061904D01*
X61354761Y-50109523D01*
X61402380Y-50204761D01*
X61402380Y-50490476D01*
X61354761Y-50585714D01*
X61307142Y-50633333D01*
X61402380Y-43346666D02*
X60926190Y-43680000D01*
X61402380Y-43918095D02*
X60402380Y-43918095D01*
X60402380Y-43537142D01*
X60450000Y-43441904D01*
X60497619Y-43394285D01*
X60592857Y-43346666D01*
X60735714Y-43346666D01*
X60830952Y-43394285D01*
X60878571Y-43441904D01*
X60926190Y-43537142D01*
X60926190Y-43918095D01*
X60735714Y-42489523D02*
X61402380Y-42489523D01*
X60354761Y-42727619D02*
X61069047Y-42965714D01*
X61069047Y-42346666D01*
X36022380Y-43346666D02*
X35546190Y-43680000D01*
X36022380Y-43918095D02*
X35022380Y-43918095D01*
X35022380Y-43537142D01*
X35070000Y-43441904D01*
X35117619Y-43394285D01*
X35212857Y-43346666D01*
X35355714Y-43346666D01*
X35450952Y-43394285D01*
X35498571Y-43441904D01*
X35546190Y-43537142D01*
X35546190Y-43918095D01*
X35022380Y-42441904D02*
X35022380Y-42918095D01*
X35498571Y-42965714D01*
X35450952Y-42918095D01*
X35403333Y-42822857D01*
X35403333Y-42584761D01*
X35450952Y-42489523D01*
X35498571Y-42441904D01*
X35593809Y-42394285D01*
X35831904Y-42394285D01*
X35927142Y-42441904D01*
X35974761Y-42489523D01*
X36022380Y-42584761D01*
X36022380Y-42822857D01*
X35974761Y-42918095D01*
X35927142Y-42965714D01*
X36022380Y-50966666D02*
X35546190Y-51300000D01*
X36022380Y-51538095D02*
X35022380Y-51538095D01*
X35022380Y-51157142D01*
X35070000Y-51061904D01*
X35117619Y-51014285D01*
X35212857Y-50966666D01*
X35355714Y-50966666D01*
X35450952Y-51014285D01*
X35498571Y-51061904D01*
X35546190Y-51157142D01*
X35546190Y-51538095D01*
X35022380Y-50109523D02*
X35022380Y-50300000D01*
X35070000Y-50395238D01*
X35117619Y-50442857D01*
X35260476Y-50538095D01*
X35450952Y-50585714D01*
X35831904Y-50585714D01*
X35927142Y-50538095D01*
X35974761Y-50490476D01*
X36022380Y-50395238D01*
X36022380Y-50204761D01*
X35974761Y-50109523D01*
X35927142Y-50061904D01*
X35831904Y-50014285D01*
X35593809Y-50014285D01*
X35498571Y-50061904D01*
X35450952Y-50109523D01*
X35403333Y-50204761D01*
X35403333Y-50395238D01*
X35450952Y-50490476D01*
X35498571Y-50538095D01*
X35593809Y-50585714D01*
X36022380Y-45886666D02*
X35546190Y-46220000D01*
X36022380Y-46458095D02*
X35022380Y-46458095D01*
X35022380Y-46077142D01*
X35070000Y-45981904D01*
X35117619Y-45934285D01*
X35212857Y-45886666D01*
X35355714Y-45886666D01*
X35450952Y-45934285D01*
X35498571Y-45981904D01*
X35546190Y-46077142D01*
X35546190Y-46458095D01*
X35022380Y-45553333D02*
X35022380Y-44886666D01*
X36022380Y-45315238D01*
X36022380Y-48426666D02*
X35546190Y-48760000D01*
X36022380Y-48998095D02*
X35022380Y-48998095D01*
X35022380Y-48617142D01*
X35070000Y-48521904D01*
X35117619Y-48474285D01*
X35212857Y-48426666D01*
X35355714Y-48426666D01*
X35450952Y-48474285D01*
X35498571Y-48521904D01*
X35546190Y-48617142D01*
X35546190Y-48998095D01*
X35450952Y-47855238D02*
X35403333Y-47950476D01*
X35355714Y-47998095D01*
X35260476Y-48045714D01*
X35212857Y-48045714D01*
X35117619Y-47998095D01*
X35070000Y-47950476D01*
X35022380Y-47855238D01*
X35022380Y-47664761D01*
X35070000Y-47569523D01*
X35117619Y-47521904D01*
X35212857Y-47474285D01*
X35260476Y-47474285D01*
X35355714Y-47521904D01*
X35403333Y-47569523D01*
X35450952Y-47664761D01*
X35450952Y-47855238D01*
X35498571Y-47950476D01*
X35546190Y-47998095D01*
X35641428Y-48045714D01*
X35831904Y-48045714D01*
X35927142Y-47998095D01*
X35974761Y-47950476D01*
X36022380Y-47855238D01*
X36022380Y-47664761D01*
X35974761Y-47569523D01*
X35927142Y-47521904D01*
X35831904Y-47474285D01*
X35641428Y-47474285D01*
X35546190Y-47521904D01*
X35498571Y-47569523D01*
X35450952Y-47664761D01*
X25971666Y-69619761D02*
X26114523Y-69667380D01*
X26352619Y-69667380D01*
X26447857Y-69619761D01*
X26495476Y-69572142D01*
X26543095Y-69476904D01*
X26543095Y-69381666D01*
X26495476Y-69286428D01*
X26447857Y-69238809D01*
X26352619Y-69191190D01*
X26162142Y-69143571D01*
X26066904Y-69095952D01*
X26019285Y-69048333D01*
X25971666Y-68953095D01*
X25971666Y-68857857D01*
X26019285Y-68762619D01*
X26066904Y-68715000D01*
X26162142Y-68667380D01*
X26400238Y-68667380D01*
X26543095Y-68715000D01*
X26876428Y-68667380D02*
X27114523Y-69667380D01*
X27305000Y-68953095D01*
X27495476Y-69667380D01*
X27733571Y-68667380D01*
X28638333Y-69667380D02*
X28066904Y-69667380D01*
X28352619Y-69667380D02*
X28352619Y-68667380D01*
X28257380Y-68810238D01*
X28162142Y-68905476D01*
X28066904Y-68953095D01*
X24503095Y-70842142D02*
X24455476Y-70889761D01*
X24312619Y-70937380D01*
X24217380Y-70937380D01*
X24074523Y-70889761D01*
X23979285Y-70794523D01*
X23931666Y-70699285D01*
X23884047Y-70508809D01*
X23884047Y-70365952D01*
X23931666Y-70175476D01*
X23979285Y-70080238D01*
X24074523Y-69985000D01*
X24217380Y-69937380D01*
X24312619Y-69937380D01*
X24455476Y-69985000D01*
X24503095Y-70032619D01*
X24693571Y-71032619D02*
X25455476Y-71032619D01*
X25693571Y-70413571D02*
X26026904Y-70413571D01*
X26169761Y-70937380D02*
X25693571Y-70937380D01*
X25693571Y-69937380D01*
X26169761Y-69937380D01*
X26360238Y-71032619D02*
X27122142Y-71032619D01*
X27884047Y-69985000D02*
X27788809Y-69937380D01*
X27645952Y-69937380D01*
X27503095Y-69985000D01*
X27407857Y-70080238D01*
X27360238Y-70175476D01*
X27312619Y-70365952D01*
X27312619Y-70508809D01*
X27360238Y-70699285D01*
X27407857Y-70794523D01*
X27503095Y-70889761D01*
X27645952Y-70937380D01*
X27741190Y-70937380D01*
X27884047Y-70889761D01*
X27931666Y-70842142D01*
X27931666Y-70508809D01*
X27741190Y-70508809D01*
X28312619Y-70270714D02*
X29026904Y-70270714D01*
X28598333Y-69842142D02*
X28312619Y-71127857D01*
X28931666Y-70699285D02*
X28217380Y-70699285D01*
X28645952Y-71127857D02*
X28931666Y-69842142D01*
X29122142Y-71032619D02*
X29884047Y-71032619D01*
X30312619Y-69937380D02*
X30407857Y-69937380D01*
X30503095Y-69985000D01*
X30550714Y-70032619D01*
X30598333Y-70127857D01*
X30645952Y-70318333D01*
X30645952Y-70556428D01*
X30598333Y-70746904D01*
X30550714Y-70842142D01*
X30503095Y-70889761D01*
X30407857Y-70937380D01*
X30312619Y-70937380D01*
X30217380Y-70889761D01*
X30169761Y-70842142D01*
X30122142Y-70746904D01*
X30074523Y-70556428D01*
X30074523Y-70318333D01*
X30122142Y-70127857D01*
X30169761Y-70032619D01*
X30217380Y-69985000D01*
X30312619Y-69937380D01*
X26011666Y-102529761D02*
X26154523Y-102577380D01*
X26392619Y-102577380D01*
X26487857Y-102529761D01*
X26535476Y-102482142D01*
X26583095Y-102386904D01*
X26583095Y-102291666D01*
X26535476Y-102196428D01*
X26487857Y-102148809D01*
X26392619Y-102101190D01*
X26202142Y-102053571D01*
X26106904Y-102005952D01*
X26059285Y-101958333D01*
X26011666Y-101863095D01*
X26011666Y-101767857D01*
X26059285Y-101672619D01*
X26106904Y-101625000D01*
X26202142Y-101577380D01*
X26440238Y-101577380D01*
X26583095Y-101625000D01*
X26916428Y-101577380D02*
X27154523Y-102577380D01*
X27345000Y-101863095D01*
X27535476Y-102577380D01*
X27773571Y-101577380D01*
X28106904Y-101672619D02*
X28154523Y-101625000D01*
X28249761Y-101577380D01*
X28487857Y-101577380D01*
X28583095Y-101625000D01*
X28630714Y-101672619D01*
X28678333Y-101767857D01*
X28678333Y-101863095D01*
X28630714Y-102005952D01*
X28059285Y-102577380D01*
X28678333Y-102577380D01*
X24543095Y-103862142D02*
X24495476Y-103909761D01*
X24352619Y-103957380D01*
X24257380Y-103957380D01*
X24114523Y-103909761D01*
X24019285Y-103814523D01*
X23971666Y-103719285D01*
X23924047Y-103528809D01*
X23924047Y-103385952D01*
X23971666Y-103195476D01*
X24019285Y-103100238D01*
X24114523Y-103005000D01*
X24257380Y-102957380D01*
X24352619Y-102957380D01*
X24495476Y-103005000D01*
X24543095Y-103052619D01*
X24733571Y-104052619D02*
X25495476Y-104052619D01*
X25733571Y-103433571D02*
X26066904Y-103433571D01*
X26209761Y-103957380D02*
X25733571Y-103957380D01*
X25733571Y-102957380D01*
X26209761Y-102957380D01*
X26400238Y-104052619D02*
X27162142Y-104052619D01*
X27924047Y-103005000D02*
X27828809Y-102957380D01*
X27685952Y-102957380D01*
X27543095Y-103005000D01*
X27447857Y-103100238D01*
X27400238Y-103195476D01*
X27352619Y-103385952D01*
X27352619Y-103528809D01*
X27400238Y-103719285D01*
X27447857Y-103814523D01*
X27543095Y-103909761D01*
X27685952Y-103957380D01*
X27781190Y-103957380D01*
X27924047Y-103909761D01*
X27971666Y-103862142D01*
X27971666Y-103528809D01*
X27781190Y-103528809D01*
X28352619Y-103290714D02*
X29066904Y-103290714D01*
X28638333Y-102862142D02*
X28352619Y-104147857D01*
X28971666Y-103719285D02*
X28257380Y-103719285D01*
X28685952Y-104147857D02*
X28971666Y-102862142D01*
X29162142Y-104052619D02*
X29924047Y-104052619D01*
X30685952Y-103957380D02*
X30114523Y-103957380D01*
X30400238Y-103957380D02*
X30400238Y-102957380D01*
X30305000Y-103100238D01*
X30209761Y-103195476D01*
X30114523Y-103243095D01*
X39941666Y-69619761D02*
X40084523Y-69667380D01*
X40322619Y-69667380D01*
X40417857Y-69619761D01*
X40465476Y-69572142D01*
X40513095Y-69476904D01*
X40513095Y-69381666D01*
X40465476Y-69286428D01*
X40417857Y-69238809D01*
X40322619Y-69191190D01*
X40132142Y-69143571D01*
X40036904Y-69095952D01*
X39989285Y-69048333D01*
X39941666Y-68953095D01*
X39941666Y-68857857D01*
X39989285Y-68762619D01*
X40036904Y-68715000D01*
X40132142Y-68667380D01*
X40370238Y-68667380D01*
X40513095Y-68715000D01*
X40846428Y-68667380D02*
X41084523Y-69667380D01*
X41275000Y-68953095D01*
X41465476Y-69667380D01*
X41703571Y-68667380D01*
X41989285Y-68667380D02*
X42608333Y-68667380D01*
X42275000Y-69048333D01*
X42417857Y-69048333D01*
X42513095Y-69095952D01*
X42560714Y-69143571D01*
X42608333Y-69238809D01*
X42608333Y-69476904D01*
X42560714Y-69572142D01*
X42513095Y-69619761D01*
X42417857Y-69667380D01*
X42132142Y-69667380D01*
X42036904Y-69619761D01*
X41989285Y-69572142D01*
X38568333Y-70842142D02*
X38520714Y-70889761D01*
X38377857Y-70937380D01*
X38282619Y-70937380D01*
X38139761Y-70889761D01*
X38044523Y-70794523D01*
X37996904Y-70699285D01*
X37949285Y-70508809D01*
X37949285Y-70365952D01*
X37996904Y-70175476D01*
X38044523Y-70080238D01*
X38139761Y-69985000D01*
X38282619Y-69937380D01*
X38377857Y-69937380D01*
X38520714Y-69985000D01*
X38568333Y-70032619D01*
X38949285Y-70270714D02*
X39663571Y-70270714D01*
X39235000Y-69842142D02*
X38949285Y-71127857D01*
X39568333Y-70699285D02*
X38854047Y-70699285D01*
X39282619Y-71127857D02*
X39568333Y-69842142D01*
X39758809Y-71032619D02*
X40520714Y-71032619D01*
X41092142Y-70413571D02*
X40758809Y-70413571D01*
X40758809Y-70937380D02*
X40758809Y-69937380D01*
X41235000Y-69937380D01*
X41377857Y-71032619D02*
X42139761Y-71032619D01*
X42330238Y-70651666D02*
X42806428Y-70651666D01*
X42235000Y-70937380D02*
X42568333Y-69937380D01*
X42901666Y-70937380D01*
X42996904Y-71032619D02*
X43758809Y-71032619D01*
X44187380Y-69937380D02*
X44282619Y-69937380D01*
X44377857Y-69985000D01*
X44425476Y-70032619D01*
X44473095Y-70127857D01*
X44520714Y-70318333D01*
X44520714Y-70556428D01*
X44473095Y-70746904D01*
X44425476Y-70842142D01*
X44377857Y-70889761D01*
X44282619Y-70937380D01*
X44187380Y-70937380D01*
X44092142Y-70889761D01*
X44044523Y-70842142D01*
X43996904Y-70746904D01*
X43949285Y-70556428D01*
X43949285Y-70318333D01*
X43996904Y-70127857D01*
X44044523Y-70032619D01*
X44092142Y-69985000D01*
X44187380Y-69937380D01*
X39981666Y-102529761D02*
X40124523Y-102577380D01*
X40362619Y-102577380D01*
X40457857Y-102529761D01*
X40505476Y-102482142D01*
X40553095Y-102386904D01*
X40553095Y-102291666D01*
X40505476Y-102196428D01*
X40457857Y-102148809D01*
X40362619Y-102101190D01*
X40172142Y-102053571D01*
X40076904Y-102005952D01*
X40029285Y-101958333D01*
X39981666Y-101863095D01*
X39981666Y-101767857D01*
X40029285Y-101672619D01*
X40076904Y-101625000D01*
X40172142Y-101577380D01*
X40410238Y-101577380D01*
X40553095Y-101625000D01*
X40886428Y-101577380D02*
X41124523Y-102577380D01*
X41315000Y-101863095D01*
X41505476Y-102577380D01*
X41743571Y-101577380D01*
X42553095Y-101910714D02*
X42553095Y-102577380D01*
X42315000Y-101529761D02*
X42076904Y-102244047D01*
X42695952Y-102244047D01*
X38608333Y-103862142D02*
X38560714Y-103909761D01*
X38417857Y-103957380D01*
X38322619Y-103957380D01*
X38179761Y-103909761D01*
X38084523Y-103814523D01*
X38036904Y-103719285D01*
X37989285Y-103528809D01*
X37989285Y-103385952D01*
X38036904Y-103195476D01*
X38084523Y-103100238D01*
X38179761Y-103005000D01*
X38322619Y-102957380D01*
X38417857Y-102957380D01*
X38560714Y-103005000D01*
X38608333Y-103052619D01*
X38989285Y-103290714D02*
X39703571Y-103290714D01*
X39275000Y-102862142D02*
X38989285Y-104147857D01*
X39608333Y-103719285D02*
X38894047Y-103719285D01*
X39322619Y-104147857D02*
X39608333Y-102862142D01*
X39798809Y-104052619D02*
X40560714Y-104052619D01*
X41132142Y-103433571D02*
X40798809Y-103433571D01*
X40798809Y-103957380D02*
X40798809Y-102957380D01*
X41275000Y-102957380D01*
X41417857Y-104052619D02*
X42179761Y-104052619D01*
X42370238Y-103671666D02*
X42846428Y-103671666D01*
X42275000Y-103957380D02*
X42608333Y-102957380D01*
X42941666Y-103957380D01*
X43036904Y-104052619D02*
X43798809Y-104052619D01*
X44560714Y-103957380D02*
X43989285Y-103957380D01*
X44275000Y-103957380D02*
X44275000Y-102957380D01*
X44179761Y-103100238D01*
X44084523Y-103195476D01*
X43989285Y-103243095D01*
X53911666Y-69819761D02*
X54054523Y-69867380D01*
X54292619Y-69867380D01*
X54387857Y-69819761D01*
X54435476Y-69772142D01*
X54483095Y-69676904D01*
X54483095Y-69581666D01*
X54435476Y-69486428D01*
X54387857Y-69438809D01*
X54292619Y-69391190D01*
X54102142Y-69343571D01*
X54006904Y-69295952D01*
X53959285Y-69248333D01*
X53911666Y-69153095D01*
X53911666Y-69057857D01*
X53959285Y-68962619D01*
X54006904Y-68915000D01*
X54102142Y-68867380D01*
X54340238Y-68867380D01*
X54483095Y-68915000D01*
X54816428Y-68867380D02*
X55054523Y-69867380D01*
X55245000Y-69153095D01*
X55435476Y-69867380D01*
X55673571Y-68867380D01*
X56530714Y-68867380D02*
X56054523Y-68867380D01*
X56006904Y-69343571D01*
X56054523Y-69295952D01*
X56149761Y-69248333D01*
X56387857Y-69248333D01*
X56483095Y-69295952D01*
X56530714Y-69343571D01*
X56578333Y-69438809D01*
X56578333Y-69676904D01*
X56530714Y-69772142D01*
X56483095Y-69819761D01*
X56387857Y-69867380D01*
X56149761Y-69867380D01*
X56054523Y-69819761D01*
X56006904Y-69772142D01*
X51506904Y-70937380D02*
X51506904Y-69937380D01*
X51745000Y-69937380D01*
X51887857Y-69985000D01*
X51983095Y-70080238D01*
X52030714Y-70175476D01*
X52078333Y-70365952D01*
X52078333Y-70508809D01*
X52030714Y-70699285D01*
X51983095Y-70794523D01*
X51887857Y-70889761D01*
X51745000Y-70937380D01*
X51506904Y-70937380D01*
X52268809Y-71032619D02*
X53030714Y-71032619D01*
X53602142Y-70413571D02*
X53268809Y-70413571D01*
X53268809Y-70937380D02*
X53268809Y-69937380D01*
X53745000Y-69937380D01*
X54078333Y-70270714D02*
X54792619Y-70270714D01*
X54364047Y-69842142D02*
X54078333Y-71127857D01*
X54697380Y-70699285D02*
X53983095Y-70699285D01*
X54411666Y-71127857D02*
X54697380Y-69842142D01*
X54887857Y-71032619D02*
X55649761Y-71032619D01*
X55840238Y-70651666D02*
X56316428Y-70651666D01*
X55745000Y-70937380D02*
X56078333Y-69937380D01*
X56411666Y-70937380D01*
X56697380Y-70270714D02*
X57411666Y-70270714D01*
X56983095Y-69842142D02*
X56697380Y-71127857D01*
X57316428Y-70699285D02*
X56602142Y-70699285D01*
X57030714Y-71127857D02*
X57316428Y-69842142D01*
X57506904Y-71032619D02*
X58268809Y-71032619D01*
X58697380Y-69937380D02*
X58792619Y-69937380D01*
X58887857Y-69985000D01*
X58935476Y-70032619D01*
X58983095Y-70127857D01*
X59030714Y-70318333D01*
X59030714Y-70556428D01*
X58983095Y-70746904D01*
X58935476Y-70842142D01*
X58887857Y-70889761D01*
X58792619Y-70937380D01*
X58697380Y-70937380D01*
X58602142Y-70889761D01*
X58554523Y-70842142D01*
X58506904Y-70746904D01*
X58459285Y-70556428D01*
X58459285Y-70318333D01*
X58506904Y-70127857D01*
X58554523Y-70032619D01*
X58602142Y-69985000D01*
X58697380Y-69937380D01*
X53911666Y-102729761D02*
X54054523Y-102777380D01*
X54292619Y-102777380D01*
X54387857Y-102729761D01*
X54435476Y-102682142D01*
X54483095Y-102586904D01*
X54483095Y-102491666D01*
X54435476Y-102396428D01*
X54387857Y-102348809D01*
X54292619Y-102301190D01*
X54102142Y-102253571D01*
X54006904Y-102205952D01*
X53959285Y-102158333D01*
X53911666Y-102063095D01*
X53911666Y-101967857D01*
X53959285Y-101872619D01*
X54006904Y-101825000D01*
X54102142Y-101777380D01*
X54340238Y-101777380D01*
X54483095Y-101825000D01*
X54816428Y-101777380D02*
X55054523Y-102777380D01*
X55245000Y-102063095D01*
X55435476Y-102777380D01*
X55673571Y-101777380D01*
X56483095Y-101777380D02*
X56292619Y-101777380D01*
X56197380Y-101825000D01*
X56149761Y-101872619D01*
X56054523Y-102015476D01*
X56006904Y-102205952D01*
X56006904Y-102586904D01*
X56054523Y-102682142D01*
X56102142Y-102729761D01*
X56197380Y-102777380D01*
X56387857Y-102777380D01*
X56483095Y-102729761D01*
X56530714Y-102682142D01*
X56578333Y-102586904D01*
X56578333Y-102348809D01*
X56530714Y-102253571D01*
X56483095Y-102205952D01*
X56387857Y-102158333D01*
X56197380Y-102158333D01*
X56102142Y-102205952D01*
X56054523Y-102253571D01*
X56006904Y-102348809D01*
X51506904Y-103957380D02*
X51506904Y-102957380D01*
X51745000Y-102957380D01*
X51887857Y-103005000D01*
X51983095Y-103100238D01*
X52030714Y-103195476D01*
X52078333Y-103385952D01*
X52078333Y-103528809D01*
X52030714Y-103719285D01*
X51983095Y-103814523D01*
X51887857Y-103909761D01*
X51745000Y-103957380D01*
X51506904Y-103957380D01*
X52268809Y-104052619D02*
X53030714Y-104052619D01*
X53602142Y-103433571D02*
X53268809Y-103433571D01*
X53268809Y-103957380D02*
X53268809Y-102957380D01*
X53745000Y-102957380D01*
X54078333Y-103290714D02*
X54792619Y-103290714D01*
X54364047Y-102862142D02*
X54078333Y-104147857D01*
X54697380Y-103719285D02*
X53983095Y-103719285D01*
X54411666Y-104147857D02*
X54697380Y-102862142D01*
X54887857Y-104052619D02*
X55649761Y-104052619D01*
X55840238Y-103671666D02*
X56316428Y-103671666D01*
X55745000Y-103957380D02*
X56078333Y-102957380D01*
X56411666Y-103957380D01*
X56697380Y-103290714D02*
X57411666Y-103290714D01*
X56983095Y-102862142D02*
X56697380Y-104147857D01*
X57316428Y-103719285D02*
X56602142Y-103719285D01*
X57030714Y-104147857D02*
X57316428Y-102862142D01*
X57506904Y-104052619D02*
X58268809Y-104052619D01*
X59030714Y-103957380D02*
X58459285Y-103957380D01*
X58745000Y-103957380D02*
X58745000Y-102957380D01*
X58649761Y-103100238D01*
X58554523Y-103195476D01*
X58459285Y-103243095D01*
X67841666Y-69819761D02*
X67984523Y-69867380D01*
X68222619Y-69867380D01*
X68317857Y-69819761D01*
X68365476Y-69772142D01*
X68413095Y-69676904D01*
X68413095Y-69581666D01*
X68365476Y-69486428D01*
X68317857Y-69438809D01*
X68222619Y-69391190D01*
X68032142Y-69343571D01*
X67936904Y-69295952D01*
X67889285Y-69248333D01*
X67841666Y-69153095D01*
X67841666Y-69057857D01*
X67889285Y-68962619D01*
X67936904Y-68915000D01*
X68032142Y-68867380D01*
X68270238Y-68867380D01*
X68413095Y-68915000D01*
X68746428Y-68867380D02*
X68984523Y-69867380D01*
X69175000Y-69153095D01*
X69365476Y-69867380D01*
X69603571Y-68867380D01*
X69889285Y-68867380D02*
X70555952Y-68867380D01*
X70127380Y-69867380D01*
X65794047Y-70937380D02*
X65794047Y-69937380D01*
X66032142Y-69937380D01*
X66175000Y-69985000D01*
X66270238Y-70080238D01*
X66317857Y-70175476D01*
X66365476Y-70365952D01*
X66365476Y-70508809D01*
X66317857Y-70699285D01*
X66270238Y-70794523D01*
X66175000Y-70889761D01*
X66032142Y-70937380D01*
X65794047Y-70937380D01*
X66746428Y-70270714D02*
X67460714Y-70270714D01*
X67032142Y-69842142D02*
X66746428Y-71127857D01*
X67365476Y-70699285D02*
X66651190Y-70699285D01*
X67079761Y-71127857D02*
X67365476Y-69842142D01*
X67555952Y-71032619D02*
X68317857Y-71032619D01*
X69079761Y-69985000D02*
X68984523Y-69937380D01*
X68841666Y-69937380D01*
X68698809Y-69985000D01*
X68603571Y-70080238D01*
X68555952Y-70175476D01*
X68508333Y-70365952D01*
X68508333Y-70508809D01*
X68555952Y-70699285D01*
X68603571Y-70794523D01*
X68698809Y-70889761D01*
X68841666Y-70937380D01*
X68936904Y-70937380D01*
X69079761Y-70889761D01*
X69127380Y-70842142D01*
X69127380Y-70508809D01*
X68936904Y-70508809D01*
X69317857Y-71032619D02*
X70079761Y-71032619D01*
X70651190Y-70413571D02*
X70794047Y-70461190D01*
X70841666Y-70508809D01*
X70889285Y-70604047D01*
X70889285Y-70746904D01*
X70841666Y-70842142D01*
X70794047Y-70889761D01*
X70698809Y-70937380D01*
X70317857Y-70937380D01*
X70317857Y-69937380D01*
X70651190Y-69937380D01*
X70746428Y-69985000D01*
X70794047Y-70032619D01*
X70841666Y-70127857D01*
X70841666Y-70223095D01*
X70794047Y-70318333D01*
X70746428Y-70365952D01*
X70651190Y-70413571D01*
X70317857Y-70413571D01*
X71079761Y-71032619D02*
X71841666Y-71032619D01*
X72270238Y-69937380D02*
X72365476Y-69937380D01*
X72460714Y-69985000D01*
X72508333Y-70032619D01*
X72555952Y-70127857D01*
X72603571Y-70318333D01*
X72603571Y-70556428D01*
X72555952Y-70746904D01*
X72508333Y-70842142D01*
X72460714Y-70889761D01*
X72365476Y-70937380D01*
X72270238Y-70937380D01*
X72175000Y-70889761D01*
X72127380Y-70842142D01*
X72079761Y-70746904D01*
X72032142Y-70556428D01*
X72032142Y-70318333D01*
X72079761Y-70127857D01*
X72127380Y-70032619D01*
X72175000Y-69985000D01*
X72270238Y-69937380D01*
X67881666Y-102729761D02*
X68024523Y-102777380D01*
X68262619Y-102777380D01*
X68357857Y-102729761D01*
X68405476Y-102682142D01*
X68453095Y-102586904D01*
X68453095Y-102491666D01*
X68405476Y-102396428D01*
X68357857Y-102348809D01*
X68262619Y-102301190D01*
X68072142Y-102253571D01*
X67976904Y-102205952D01*
X67929285Y-102158333D01*
X67881666Y-102063095D01*
X67881666Y-101967857D01*
X67929285Y-101872619D01*
X67976904Y-101825000D01*
X68072142Y-101777380D01*
X68310238Y-101777380D01*
X68453095Y-101825000D01*
X68786428Y-101777380D02*
X69024523Y-102777380D01*
X69215000Y-102063095D01*
X69405476Y-102777380D01*
X69643571Y-101777380D01*
X70167380Y-102205952D02*
X70072142Y-102158333D01*
X70024523Y-102110714D01*
X69976904Y-102015476D01*
X69976904Y-101967857D01*
X70024523Y-101872619D01*
X70072142Y-101825000D01*
X70167380Y-101777380D01*
X70357857Y-101777380D01*
X70453095Y-101825000D01*
X70500714Y-101872619D01*
X70548333Y-101967857D01*
X70548333Y-102015476D01*
X70500714Y-102110714D01*
X70453095Y-102158333D01*
X70357857Y-102205952D01*
X70167380Y-102205952D01*
X70072142Y-102253571D01*
X70024523Y-102301190D01*
X69976904Y-102396428D01*
X69976904Y-102586904D01*
X70024523Y-102682142D01*
X70072142Y-102729761D01*
X70167380Y-102777380D01*
X70357857Y-102777380D01*
X70453095Y-102729761D01*
X70500714Y-102682142D01*
X70548333Y-102586904D01*
X70548333Y-102396428D01*
X70500714Y-102301190D01*
X70453095Y-102253571D01*
X70357857Y-102205952D01*
X65834047Y-103957380D02*
X65834047Y-102957380D01*
X66072142Y-102957380D01*
X66215000Y-103005000D01*
X66310238Y-103100238D01*
X66357857Y-103195476D01*
X66405476Y-103385952D01*
X66405476Y-103528809D01*
X66357857Y-103719285D01*
X66310238Y-103814523D01*
X66215000Y-103909761D01*
X66072142Y-103957380D01*
X65834047Y-103957380D01*
X66786428Y-103290714D02*
X67500714Y-103290714D01*
X67072142Y-102862142D02*
X66786428Y-104147857D01*
X67405476Y-103719285D02*
X66691190Y-103719285D01*
X67119761Y-104147857D02*
X67405476Y-102862142D01*
X67595952Y-104052619D02*
X68357857Y-104052619D01*
X69119761Y-103005000D02*
X69024523Y-102957380D01*
X68881666Y-102957380D01*
X68738809Y-103005000D01*
X68643571Y-103100238D01*
X68595952Y-103195476D01*
X68548333Y-103385952D01*
X68548333Y-103528809D01*
X68595952Y-103719285D01*
X68643571Y-103814523D01*
X68738809Y-103909761D01*
X68881666Y-103957380D01*
X68976904Y-103957380D01*
X69119761Y-103909761D01*
X69167380Y-103862142D01*
X69167380Y-103528809D01*
X68976904Y-103528809D01*
X69357857Y-104052619D02*
X70119761Y-104052619D01*
X70691190Y-103433571D02*
X70834047Y-103481190D01*
X70881666Y-103528809D01*
X70929285Y-103624047D01*
X70929285Y-103766904D01*
X70881666Y-103862142D01*
X70834047Y-103909761D01*
X70738809Y-103957380D01*
X70357857Y-103957380D01*
X70357857Y-102957380D01*
X70691190Y-102957380D01*
X70786428Y-103005000D01*
X70834047Y-103052619D01*
X70881666Y-103147857D01*
X70881666Y-103243095D01*
X70834047Y-103338333D01*
X70786428Y-103385952D01*
X70691190Y-103433571D01*
X70357857Y-103433571D01*
X71119761Y-104052619D02*
X71881666Y-104052619D01*
X72643571Y-103957380D02*
X72072142Y-103957380D01*
X72357857Y-103957380D02*
X72357857Y-102957380D01*
X72262619Y-103100238D01*
X72167380Y-103195476D01*
X72072142Y-103243095D01*
X47498095Y-46442380D02*
X47498095Y-47251904D01*
X47545714Y-47347142D01*
X47593333Y-47394761D01*
X47688571Y-47442380D01*
X47879047Y-47442380D01*
X47974285Y-47394761D01*
X48021904Y-47347142D01*
X48069523Y-47251904D01*
X48069523Y-46442380D01*
X49069523Y-47442380D02*
X48498095Y-47442380D01*
X48783809Y-47442380D02*
X48783809Y-46442380D01*
X48688571Y-46585238D01*
X48593333Y-46680476D01*
X48498095Y-46728095D01*
X70667619Y-85010714D02*
X70667619Y-84534523D01*
X71667619Y-84534523D01*
X70667619Y-85344047D02*
X71667619Y-85344047D01*
X71667619Y-85582142D01*
X71620000Y-85725000D01*
X71524761Y-85820238D01*
X71429523Y-85867857D01*
X71239047Y-85915476D01*
X71096190Y-85915476D01*
X70905714Y-85867857D01*
X70810476Y-85820238D01*
X70715238Y-85725000D01*
X70667619Y-85582142D01*
X70667619Y-85344047D01*
X71667619Y-86534523D02*
X71667619Y-86725000D01*
X71620000Y-86820238D01*
X71524761Y-86915476D01*
X71334285Y-86963095D01*
X71000952Y-86963095D01*
X70810476Y-86915476D01*
X70715238Y-86820238D01*
X70667619Y-86725000D01*
X70667619Y-86534523D01*
X70715238Y-86439285D01*
X70810476Y-86344047D01*
X71000952Y-86296428D01*
X71334285Y-86296428D01*
X71524761Y-86344047D01*
X71620000Y-86439285D01*
X71667619Y-86534523D01*
X44751904Y-30403571D02*
X44894761Y-30451190D01*
X44942380Y-30498809D01*
X44990000Y-30594047D01*
X44990000Y-30736904D01*
X44942380Y-30832142D01*
X44894761Y-30879761D01*
X44799523Y-30927380D01*
X44418571Y-30927380D01*
X44418571Y-29927380D01*
X44751904Y-29927380D01*
X44847142Y-29975000D01*
X44894761Y-30022619D01*
X44942380Y-30117857D01*
X44942380Y-30213095D01*
X44894761Y-30308333D01*
X44847142Y-30355952D01*
X44751904Y-30403571D01*
X44418571Y-30403571D01*
X45609047Y-30451190D02*
X45609047Y-30927380D01*
X45275714Y-29927380D02*
X45609047Y-30451190D01*
X45942380Y-29927380D01*
X46275714Y-30927380D02*
X46275714Y-29927380D01*
X46656666Y-29927380D01*
X46751904Y-29975000D01*
X46799523Y-30022619D01*
X46847142Y-30117857D01*
X46847142Y-30260714D01*
X46799523Y-30355952D01*
X46751904Y-30403571D01*
X46656666Y-30451190D01*
X46275714Y-30451190D01*
X47228095Y-30641666D02*
X47704285Y-30641666D01*
X47132857Y-30927380D02*
X47466190Y-29927380D01*
X47799523Y-30927380D01*
X48085238Y-30879761D02*
X48228095Y-30927380D01*
X48466190Y-30927380D01*
X48561428Y-30879761D01*
X48609047Y-30832142D01*
X48656666Y-30736904D01*
X48656666Y-30641666D01*
X48609047Y-30546428D01*
X48561428Y-30498809D01*
X48466190Y-30451190D01*
X48275714Y-30403571D01*
X48180476Y-30355952D01*
X48132857Y-30308333D01*
X48085238Y-30213095D01*
X48085238Y-30117857D01*
X48132857Y-30022619D01*
X48180476Y-29975000D01*
X48275714Y-29927380D01*
X48513809Y-29927380D01*
X48656666Y-29975000D01*
X49037619Y-30879761D02*
X49180476Y-30927380D01*
X49418571Y-30927380D01*
X49513809Y-30879761D01*
X49561428Y-30832142D01*
X49609047Y-30736904D01*
X49609047Y-30641666D01*
X49561428Y-30546428D01*
X49513809Y-30498809D01*
X49418571Y-30451190D01*
X49228095Y-30403571D01*
X49132857Y-30355952D01*
X49085238Y-30308333D01*
X49037619Y-30213095D01*
X49037619Y-30117857D01*
X49085238Y-30022619D01*
X49132857Y-29975000D01*
X49228095Y-29927380D01*
X49466190Y-29927380D01*
X49609047Y-29975000D01*
X54276904Y-30403571D02*
X54419761Y-30451190D01*
X54467380Y-30498809D01*
X54515000Y-30594047D01*
X54515000Y-30736904D01*
X54467380Y-30832142D01*
X54419761Y-30879761D01*
X54324523Y-30927380D01*
X53943571Y-30927380D01*
X53943571Y-29927380D01*
X54276904Y-29927380D01*
X54372142Y-29975000D01*
X54419761Y-30022619D01*
X54467380Y-30117857D01*
X54467380Y-30213095D01*
X54419761Y-30308333D01*
X54372142Y-30355952D01*
X54276904Y-30403571D01*
X53943571Y-30403571D01*
X55134047Y-30451190D02*
X55134047Y-30927380D01*
X54800714Y-29927380D02*
X55134047Y-30451190D01*
X55467380Y-29927380D01*
X55800714Y-30927380D02*
X55800714Y-29927380D01*
X56181666Y-29927380D01*
X56276904Y-29975000D01*
X56324523Y-30022619D01*
X56372142Y-30117857D01*
X56372142Y-30260714D01*
X56324523Y-30355952D01*
X56276904Y-30403571D01*
X56181666Y-30451190D01*
X55800714Y-30451190D01*
X56753095Y-30641666D02*
X57229285Y-30641666D01*
X56657857Y-30927380D02*
X56991190Y-29927380D01*
X57324523Y-30927380D01*
X57610238Y-30879761D02*
X57753095Y-30927380D01*
X57991190Y-30927380D01*
X58086428Y-30879761D01*
X58134047Y-30832142D01*
X58181666Y-30736904D01*
X58181666Y-30641666D01*
X58134047Y-30546428D01*
X58086428Y-30498809D01*
X57991190Y-30451190D01*
X57800714Y-30403571D01*
X57705476Y-30355952D01*
X57657857Y-30308333D01*
X57610238Y-30213095D01*
X57610238Y-30117857D01*
X57657857Y-30022619D01*
X57705476Y-29975000D01*
X57800714Y-29927380D01*
X58038809Y-29927380D01*
X58181666Y-29975000D01*
X58562619Y-30879761D02*
X58705476Y-30927380D01*
X58943571Y-30927380D01*
X59038809Y-30879761D01*
X59086428Y-30832142D01*
X59134047Y-30736904D01*
X59134047Y-30641666D01*
X59086428Y-30546428D01*
X59038809Y-30498809D01*
X58943571Y-30451190D01*
X58753095Y-30403571D01*
X58657857Y-30355952D01*
X58610238Y-30308333D01*
X58562619Y-30213095D01*
X58562619Y-30117857D01*
X58610238Y-30022619D01*
X58657857Y-29975000D01*
X58753095Y-29927380D01*
X58991190Y-29927380D01*
X59134047Y-29975000D01*
X29662380Y-47680476D02*
X29186190Y-48013809D01*
X29662380Y-48251904D02*
X28662380Y-48251904D01*
X28662380Y-47870952D01*
X28710000Y-47775714D01*
X28757619Y-47728095D01*
X28852857Y-47680476D01*
X28995714Y-47680476D01*
X29090952Y-47728095D01*
X29138571Y-47775714D01*
X29186190Y-47870952D01*
X29186190Y-48251904D01*
X29662380Y-47251904D02*
X28662380Y-47251904D01*
X29662380Y-46680476D01*
X28662380Y-46680476D01*
X28757619Y-46251904D02*
X28710000Y-46204285D01*
X28662380Y-46109047D01*
X28662380Y-45870952D01*
X28710000Y-45775714D01*
X28757619Y-45728095D01*
X28852857Y-45680476D01*
X28948095Y-45680476D01*
X29090952Y-45728095D01*
X29662380Y-46299523D01*
X29662380Y-45680476D01*
X33472380Y-86153571D02*
X33472380Y-86629761D01*
X32472380Y-86629761D01*
X33472380Y-85820238D02*
X32472380Y-85820238D01*
X32472380Y-85582142D01*
X32520000Y-85439285D01*
X32615238Y-85344047D01*
X32710476Y-85296428D01*
X32900952Y-85248809D01*
X33043809Y-85248809D01*
X33234285Y-85296428D01*
X33329523Y-85344047D01*
X33424761Y-85439285D01*
X33472380Y-85582142D01*
X33472380Y-85820238D01*
X33472380Y-84820238D02*
X32472380Y-84820238D01*
X50887380Y-29336904D02*
X51696904Y-29336904D01*
X51792142Y-29289285D01*
X51839761Y-29241666D01*
X51887380Y-29146428D01*
X51887380Y-28955952D01*
X51839761Y-28860714D01*
X51792142Y-28813095D01*
X51696904Y-28765476D01*
X50887380Y-28765476D01*
X51887380Y-28241666D02*
X51887380Y-28051190D01*
X51839761Y-27955952D01*
X51792142Y-27908333D01*
X51649285Y-27813095D01*
X51458809Y-27765476D01*
X51077857Y-27765476D01*
X50982619Y-27813095D01*
X50935000Y-27860714D01*
X50887380Y-27955952D01*
X50887380Y-28146428D01*
X50935000Y-28241666D01*
X50982619Y-28289285D01*
X51077857Y-28336904D01*
X51315952Y-28336904D01*
X51411190Y-28289285D01*
X51458809Y-28241666D01*
X51506428Y-28146428D01*
X51506428Y-27955952D01*
X51458809Y-27860714D01*
X51411190Y-27813095D01*
X51315952Y-27765476D01*
X67622380Y-47680476D02*
X67146190Y-48013809D01*
X67622380Y-48251904D02*
X66622380Y-48251904D01*
X66622380Y-47870952D01*
X66670000Y-47775714D01*
X66717619Y-47728095D01*
X66812857Y-47680476D01*
X66955714Y-47680476D01*
X67050952Y-47728095D01*
X67098571Y-47775714D01*
X67146190Y-47870952D01*
X67146190Y-48251904D01*
X67622380Y-47251904D02*
X66622380Y-47251904D01*
X67622380Y-46680476D01*
X66622380Y-46680476D01*
X67622380Y-45680476D02*
X67622380Y-46251904D01*
X67622380Y-45966190D02*
X66622380Y-45966190D01*
X66765238Y-46061428D01*
X66860476Y-46156666D01*
X66908095Y-46251904D01*
X39997142Y-26372142D02*
X39949523Y-26419761D01*
X39806666Y-26467380D01*
X39711428Y-26467380D01*
X39568571Y-26419761D01*
X39473333Y-26324523D01*
X39425714Y-26229285D01*
X39378095Y-26038809D01*
X39378095Y-25895952D01*
X39425714Y-25705476D01*
X39473333Y-25610238D01*
X39568571Y-25515000D01*
X39711428Y-25467380D01*
X39806666Y-25467380D01*
X39949523Y-25515000D01*
X39997142Y-25562619D01*
X40949523Y-26467380D02*
X40378095Y-26467380D01*
X40663809Y-26467380D02*
X40663809Y-25467380D01*
X40568571Y-25610238D01*
X40473333Y-25705476D01*
X40378095Y-25753095D01*
X41568571Y-25467380D02*
X41663809Y-25467380D01*
X41759047Y-25515000D01*
X41806666Y-25562619D01*
X41854285Y-25657857D01*
X41901904Y-25848333D01*
X41901904Y-26086428D01*
X41854285Y-26276904D01*
X41806666Y-26372142D01*
X41759047Y-26419761D01*
X41663809Y-26467380D01*
X41568571Y-26467380D01*
X41473333Y-26419761D01*
X41425714Y-26372142D01*
X41378095Y-26276904D01*
X41330476Y-26086428D01*
X41330476Y-25848333D01*
X41378095Y-25657857D01*
X41425714Y-25562619D01*
X41473333Y-25515000D01*
X41568571Y-25467380D01*
D11*
X56509000Y-49180000D02*
X55251000Y-49180000D01*
X56509000Y-47340000D02*
X55251000Y-47340000D01*
X56509000Y-46640000D02*
X55251000Y-46640000D01*
X56509000Y-44800000D02*
X55251000Y-44800000D01*
X56509000Y-51720000D02*
X55251000Y-51720000D01*
X56509000Y-49880000D02*
X55251000Y-49880000D01*
X56509000Y-42260000D02*
X55251000Y-42260000D01*
X56509000Y-44100000D02*
X55251000Y-44100000D01*
X40011000Y-42260000D02*
X41269000Y-42260000D01*
X40011000Y-44100000D02*
X41269000Y-44100000D01*
X40011000Y-49880000D02*
X41269000Y-49880000D01*
X40011000Y-51720000D02*
X41269000Y-51720000D01*
X40031000Y-46640000D02*
X41289000Y-46640000D01*
X40031000Y-44800000D02*
X41289000Y-44800000D01*
X39991000Y-47340000D02*
X41249000Y-47340000D01*
X39991000Y-49180000D02*
X41249000Y-49180000D01*
X55530000Y-38721000D02*
X55530000Y-39979000D01*
X53690000Y-38721000D02*
X53690000Y-39979000D01*
X64655000Y-34020000D02*
X64655000Y-32020000D01*
X67455000Y-34020000D02*
X64655000Y-34020000D01*
X64655000Y-32020000D02*
X67455000Y-32020000D01*
X67455000Y-32020000D02*
X67455000Y-34020000D01*
X31750000Y-24070000D02*
X34350000Y-24070000D01*
X31750000Y-26670000D02*
X31750000Y-24070000D01*
X29150000Y-24070000D02*
X30480000Y-24070000D01*
X29150000Y-26670000D02*
X31750000Y-26670000D01*
X29150000Y-34350000D02*
X34350000Y-34350000D01*
X29150000Y-25400000D02*
X29150000Y-24070000D01*
X34350000Y-24070000D02*
X34350000Y-34350000D01*
X29150000Y-26670000D02*
X29150000Y-34350000D01*
X72390000Y-26670000D02*
X72390000Y-24070000D01*
X74990000Y-25400000D02*
X74990000Y-24070000D01*
X74990000Y-26670000D02*
X74990000Y-34350000D01*
X74990000Y-26670000D02*
X72390000Y-26670000D01*
X74990000Y-24070000D02*
X73660000Y-24070000D01*
X74990000Y-34350000D02*
X69790000Y-34350000D01*
X72390000Y-24070000D02*
X69790000Y-24070000D01*
X69790000Y-24070000D02*
X69790000Y-34350000D01*
X61260000Y-48260000D02*
X60640000Y-48260000D01*
X63100000Y-48260000D02*
G75*
G03*
X63100000Y-48260000I-920000J0D01*
G01*
X61260000Y-45720000D02*
X60640000Y-45720000D01*
X63100000Y-45720000D02*
G75*
G03*
X63100000Y-45720000I-920000J0D01*
G01*
X61260000Y-50800000D02*
X60640000Y-50800000D01*
X63100000Y-50800000D02*
G75*
G03*
X63100000Y-50800000I-920000J0D01*
G01*
X61260000Y-43180000D02*
X60640000Y-43180000D01*
X63100000Y-43180000D02*
G75*
G03*
X63100000Y-43180000I-920000J0D01*
G01*
X35260000Y-43180000D02*
X35880000Y-43180000D01*
X35260000Y-43180000D02*
G75*
G03*
X35260000Y-43180000I-920000J0D01*
G01*
X35260000Y-50800000D02*
X35880000Y-50800000D01*
X35260000Y-50800000D02*
G75*
G03*
X35260000Y-50800000I-920000J0D01*
G01*
X35260000Y-45720000D02*
X35880000Y-45720000D01*
X35260000Y-45720000D02*
G75*
G03*
X35260000Y-45720000I-920000J0D01*
G01*
X35260000Y-48260000D02*
X35880000Y-48260000D01*
X35260000Y-48260000D02*
G75*
G03*
X35260000Y-48260000I-920000J0D01*
G01*
X21115000Y-75465000D02*
X21115000Y-63165000D01*
X25695000Y-63165000D02*
X28835000Y-63165000D01*
X21115000Y-63165000D02*
X23835000Y-63165000D01*
X33415000Y-63165000D02*
X33415000Y-75465000D01*
X30695000Y-63165000D02*
X33415000Y-63165000D01*
X33415000Y-75465000D02*
X30695000Y-75465000D01*
X28835000Y-75465000D02*
X25695000Y-75465000D01*
X23835000Y-75465000D02*
X21115000Y-75465000D01*
X31884050Y-69215000D02*
G75*
G03*
X31884050Y-69215000I-4579050J0D01*
G01*
X28875000Y-108375000D02*
X25735000Y-108375000D01*
X33455000Y-108375000D02*
X30735000Y-108375000D01*
X23875000Y-108375000D02*
X21155000Y-108375000D01*
X30735000Y-96075000D02*
X33455000Y-96075000D01*
X21155000Y-96075000D02*
X23875000Y-96075000D01*
X25735000Y-96075000D02*
X28875000Y-96075000D01*
X21155000Y-108375000D02*
X21155000Y-96075000D01*
X33455000Y-96075000D02*
X33455000Y-108375000D01*
X31924050Y-102125000D02*
G75*
G03*
X31924050Y-102125000I-4579050J0D01*
G01*
X44665000Y-63165000D02*
X47385000Y-63165000D01*
X37805000Y-75465000D02*
X35085000Y-75465000D01*
X47385000Y-63165000D02*
X47385000Y-75465000D01*
X35085000Y-75465000D02*
X35085000Y-63165000D01*
X35085000Y-63165000D02*
X37805000Y-63165000D01*
X47385000Y-75465000D02*
X44665000Y-75465000D01*
X39665000Y-63165000D02*
X42805000Y-63165000D01*
X42805000Y-75465000D02*
X39665000Y-75465000D01*
X45854050Y-69215000D02*
G75*
G03*
X45854050Y-69215000I-4579050J0D01*
G01*
X42845000Y-108375000D02*
X39705000Y-108375000D01*
X44705000Y-96075000D02*
X47425000Y-96075000D01*
X37845000Y-108375000D02*
X35125000Y-108375000D01*
X47425000Y-96075000D02*
X47425000Y-108375000D01*
X47425000Y-108375000D02*
X44705000Y-108375000D01*
X35125000Y-108375000D02*
X35125000Y-96075000D01*
X35125000Y-96075000D02*
X37845000Y-96075000D01*
X39705000Y-96075000D02*
X42845000Y-96075000D01*
X45894050Y-102125000D02*
G75*
G03*
X45894050Y-102125000I-4579050J0D01*
G01*
X53715000Y-63165000D02*
X56855000Y-63165000D01*
X61435000Y-63165000D02*
X61435000Y-75465000D01*
X58715000Y-63165000D02*
X61435000Y-63165000D01*
X51855000Y-75465000D02*
X49135000Y-75465000D01*
X49135000Y-75465000D02*
X49135000Y-63165000D01*
X61435000Y-75465000D02*
X58715000Y-75465000D01*
X49135000Y-63165000D02*
X51855000Y-63165000D01*
X56855000Y-75465000D02*
X53715000Y-75465000D01*
X59824050Y-69415000D02*
G75*
G03*
X59824050Y-69415000I-4579050J0D01*
G01*
X61435000Y-96075000D02*
X61435000Y-108375000D01*
X51855000Y-108375000D02*
X49135000Y-108375000D01*
X53715000Y-96075000D02*
X56855000Y-96075000D01*
X49135000Y-108375000D02*
X49135000Y-96075000D01*
X58715000Y-96075000D02*
X61435000Y-96075000D01*
X49135000Y-96075000D02*
X51855000Y-96075000D01*
X61435000Y-108375000D02*
X58715000Y-108375000D01*
X56855000Y-108375000D02*
X53715000Y-108375000D01*
X59824050Y-102325000D02*
G75*
G03*
X59824050Y-102325000I-4579050J0D01*
G01*
X63065000Y-63165000D02*
X65785000Y-63165000D01*
X65785000Y-75465000D02*
X63065000Y-75465000D01*
X75365000Y-63165000D02*
X75365000Y-75465000D01*
X72645000Y-63165000D02*
X75365000Y-63165000D01*
X70785000Y-75465000D02*
X67645000Y-75465000D01*
X67645000Y-63165000D02*
X70785000Y-63165000D01*
X63065000Y-75465000D02*
X63065000Y-63165000D01*
X75365000Y-75465000D02*
X72645000Y-75465000D01*
X73754050Y-69415000D02*
G75*
G03*
X73754050Y-69415000I-4579050J0D01*
G01*
X67685000Y-96075000D02*
X70825000Y-96075000D01*
X72685000Y-96075000D02*
X75405000Y-96075000D01*
X63105000Y-108375000D02*
X63105000Y-96075000D01*
X70825000Y-108375000D02*
X67685000Y-108375000D01*
X75405000Y-96075000D02*
X75405000Y-108375000D01*
X75405000Y-108375000D02*
X72685000Y-108375000D01*
X65825000Y-108375000D02*
X63105000Y-108375000D01*
X63105000Y-96075000D02*
X65825000Y-96075000D01*
X73794050Y-102325000D02*
G75*
G03*
X73794050Y-102325000I-4579050J0D01*
G01*
X45610000Y-36770000D02*
X45610000Y-57210000D01*
X50910000Y-57210000D02*
X50910000Y-36770000D01*
X47260000Y-36770000D02*
X45610000Y-36770000D01*
X45610000Y-57210000D02*
X50910000Y-57210000D01*
X50910000Y-36770000D02*
X49260000Y-36770000D01*
X47260000Y-36770000D02*
G75*
G03*
X49260000Y-36770000I1000000J0D01*
G01*
X69790000Y-81855000D02*
X69790000Y-89595000D01*
X74990000Y-84455000D02*
X72390000Y-84455000D01*
X74990000Y-89595000D02*
X69790000Y-89595000D01*
X72390000Y-84455000D02*
X72390000Y-81855000D01*
X72390000Y-81855000D02*
X69790000Y-81855000D01*
X74990000Y-84455000D02*
X74990000Y-89595000D01*
X74990000Y-83185000D02*
X74990000Y-81855000D01*
X74990000Y-81855000D02*
X73660000Y-81855000D01*
X45590000Y-29575000D02*
X45590000Y-27575000D01*
X48390000Y-27575000D02*
X48390000Y-29575000D01*
X45590000Y-27575000D02*
X48390000Y-27575000D01*
X48390000Y-29575000D02*
X45590000Y-29575000D01*
X57915000Y-29575000D02*
X55115000Y-29575000D01*
X55115000Y-27575000D02*
X57915000Y-27575000D01*
X55115000Y-29575000D02*
X55115000Y-27575000D01*
X57915000Y-27575000D02*
X57915000Y-29575000D01*
X33150000Y-39200000D02*
X30350000Y-39200000D01*
X33150000Y-52240000D02*
X33150000Y-39200000D01*
X33150000Y-41910000D02*
X30350000Y-41910000D01*
X30350000Y-39200000D02*
X30350000Y-52240000D01*
X30350000Y-52240000D02*
X33150000Y-52240000D01*
X34350000Y-81855000D02*
X34350000Y-89595000D01*
X29150000Y-84455000D02*
X31750000Y-84455000D01*
X29150000Y-83185000D02*
X29150000Y-81855000D01*
X31750000Y-81855000D02*
X34350000Y-81855000D01*
X29150000Y-89595000D02*
X34350000Y-89595000D01*
X29150000Y-84455000D02*
X29150000Y-89595000D01*
X29150000Y-81855000D02*
X30480000Y-81855000D01*
X31750000Y-84455000D02*
X31750000Y-81855000D01*
X60380000Y-25915000D02*
X42480000Y-25915000D01*
X42480000Y-25915000D02*
X42480000Y-27565000D01*
X42480000Y-29565000D02*
X42480000Y-31215000D01*
X60380000Y-31215000D02*
X60380000Y-25915000D01*
X42480000Y-31215000D02*
X60380000Y-31215000D01*
X42480000Y-29565000D02*
G75*
G03*
X42480000Y-27565000I0J1000000D01*
G01*
X63370000Y-52240000D02*
X66170000Y-52240000D01*
X66170000Y-52240000D02*
X66170000Y-39200000D01*
X63370000Y-39200000D02*
X63370000Y-52240000D01*
X66170000Y-39200000D02*
X63370000Y-39200000D01*
X66170000Y-41910000D02*
X63370000Y-41910000D01*
X41560000Y-25386000D02*
X41560000Y-26644000D01*
X39720000Y-25386000D02*
X39720000Y-26644000D01*
%LPC*%
D12*
X57130000Y-48260000D03*
X54630000Y-48260000D03*
X57130000Y-45720000D03*
X54630000Y-45720000D03*
X57130000Y-50800000D03*
X54630000Y-50800000D03*
X57130000Y-43180000D03*
X54630000Y-43180000D03*
X39390000Y-43180000D03*
X41890000Y-43180000D03*
X39390000Y-50800000D03*
X41890000Y-50800000D03*
X39410000Y-45720000D03*
X41910000Y-45720000D03*
X39370000Y-48260000D03*
X41870000Y-48260000D03*
X54610000Y-38100000D03*
X54610000Y-40600000D03*
D13*
X66705000Y-33020000D03*
X65405000Y-33020000D03*
D14*
X30480000Y-25400000D03*
X30480000Y-27940000D03*
X30480000Y-30480000D03*
X30480000Y-33020000D03*
X73660000Y-25400000D03*
X73660000Y-27940000D03*
X73660000Y-30480000D03*
X73660000Y-33020000D03*
D15*
X71120000Y-114935000D03*
X25400000Y-114935000D03*
X71120000Y-43180000D03*
X25400000Y-43180000D03*
D16*
X62180000Y-48260000D03*
D17*
X59640000Y-48260000D03*
D16*
X62180000Y-45720000D03*
D17*
X59640000Y-45720000D03*
D16*
X62180000Y-50800000D03*
D17*
X59640000Y-50800000D03*
D16*
X62180000Y-43180000D03*
D17*
X59640000Y-43180000D03*
D16*
X34340000Y-43180000D03*
D17*
X36880000Y-43180000D03*
D16*
X34340000Y-50800000D03*
D17*
X36880000Y-50800000D03*
D16*
X34340000Y-45720000D03*
D17*
X36880000Y-45720000D03*
D16*
X34340000Y-48260000D03*
D17*
X36880000Y-48260000D03*
D18*
X24765000Y-75565000D03*
X24765000Y-63065000D03*
X29765000Y-63065000D03*
X29765000Y-75565000D03*
X24805000Y-108475000D03*
X24805000Y-95975000D03*
X29805000Y-108475000D03*
X29805000Y-95975000D03*
X38735000Y-75565000D03*
X38735000Y-63065000D03*
X43735000Y-63065000D03*
X43735000Y-75565000D03*
X38775000Y-108475000D03*
X38775000Y-95975000D03*
X43775000Y-108475000D03*
X43775000Y-95975000D03*
X57785000Y-63065000D03*
X57785000Y-75565000D03*
X52785000Y-75565000D03*
X52785000Y-63065000D03*
X57785000Y-108475000D03*
X57785000Y-95975000D03*
X52785000Y-95975000D03*
X52785000Y-108475000D03*
X71715000Y-75565000D03*
X71715000Y-63065000D03*
X66715000Y-75565000D03*
X66715000Y-63065000D03*
X71755000Y-108475000D03*
X71755000Y-95975000D03*
X66755000Y-95975000D03*
X66755000Y-108475000D03*
D19*
X44450000Y-38100000D03*
D20*
X44450000Y-40640000D03*
X44450000Y-43180000D03*
X44450000Y-45720000D03*
X44450000Y-48260000D03*
X44450000Y-50800000D03*
X44450000Y-53340000D03*
X44450000Y-55880000D03*
X52070000Y-55880000D03*
X52070000Y-53340000D03*
X52070000Y-50800000D03*
X52070000Y-48260000D03*
X52070000Y-45720000D03*
X52070000Y-43180000D03*
X52070000Y-40640000D03*
X52070000Y-38100000D03*
D14*
X73660000Y-83185000D03*
X73660000Y-85725000D03*
X73660000Y-88265000D03*
D13*
X46340000Y-28575000D03*
X47640000Y-28575000D03*
D15*
X34290000Y-57150000D03*
D13*
X55865000Y-28575000D03*
X57165000Y-28575000D03*
D19*
X31750000Y-40640000D03*
D20*
X31750000Y-43180000D03*
X31750000Y-45720000D03*
X31750000Y-48260000D03*
X31750000Y-50800000D03*
D14*
X30480000Y-83185000D03*
X30480000Y-85725000D03*
X30480000Y-88265000D03*
D19*
X43810000Y-32375000D03*
D20*
X46350000Y-32375000D03*
X48890000Y-32375000D03*
X51430000Y-32375000D03*
X53970000Y-32375000D03*
X56510000Y-32375000D03*
X59050000Y-32375000D03*
X59050000Y-24755000D03*
X56510000Y-24755000D03*
X53970000Y-24755000D03*
X51430000Y-24755000D03*
X48890000Y-24755000D03*
X46350000Y-24755000D03*
X43810000Y-24755000D03*
D15*
X48260000Y-85725000D03*
X62230000Y-57150000D03*
D19*
X64770000Y-40640000D03*
D20*
X64770000Y-43180000D03*
X64770000Y-45720000D03*
X64770000Y-48260000D03*
X64770000Y-50800000D03*
D12*
X40640000Y-24765000D03*
X40640000Y-27265000D03*
D15*
X48260000Y-114935000D03*
D14*
X66030000Y-83185000D03*
D21*
X63490000Y-83185000D03*
X60950000Y-83185000D03*
X58410000Y-83185000D03*
M02*
