G04 #@! TF.GenerationSoftware,KiCad,Pcbnew,6.0.4+dfsg-1+b1*
G04 #@! TF.CreationDate,2022-05-03T02:32:59+03:00*
G04 #@! TF.ProjectId,yatabaza-keyboard,79617461-6261-47a6-912d-6b6579626f61,rev?*
G04 #@! TF.SameCoordinates,Original*
G04 #@! TF.FileFunction,Copper,L2,Bot*
G04 #@! TF.FilePolarity,Positive*
%FSLAX46Y46*%
G04 Gerber Fmt 4.6, Leading zero omitted, Abs format (unit mm)*
G04 Created by KiCad (PCBNEW 6.0.4+dfsg-1+b1) date 2022-05-03 02:32:59*
%MOMM*%
%LPD*%
G01*
G04 APERTURE LIST*
G04 #@! TA.AperFunction,ComponentPad*
%ADD10C,1.600000*%
G04 #@! TD*
G04 #@! TA.AperFunction,ConnectorPad*
%ADD11R,1.700000X1.700000*%
G04 #@! TD*
G04 #@! TA.AperFunction,ComponentPad*
%ADD12C,7.000000*%
G04 #@! TD*
G04 #@! TA.AperFunction,ComponentPad*
%ADD13C,1.400000*%
G04 #@! TD*
G04 #@! TA.AperFunction,ComponentPad*
%ADD14O,1.400000X1.400000*%
G04 #@! TD*
G04 #@! TA.AperFunction,ComponentPad*
%ADD15O,1.850000X3.048000*%
G04 #@! TD*
G04 #@! TA.AperFunction,ComponentPad*
%ADD16R,1.600000X1.600000*%
G04 #@! TD*
G04 #@! TA.AperFunction,ComponentPad*
%ADD17O,1.600000X1.600000*%
G04 #@! TD*
G04 #@! TA.AperFunction,ComponentPad*
%ADD18R,1.700000X1.700000*%
G04 #@! TD*
G04 #@! TA.AperFunction,ComponentPad*
%ADD19O,1.700000X1.700000*%
G04 #@! TD*
G04 #@! TA.AperFunction,SMDPad,CuDef*
%ADD20R,1.000000X1.500000*%
G04 #@! TD*
G04 #@! TA.AperFunction,ViaPad*
%ADD21C,0.600000*%
G04 #@! TD*
G04 #@! TA.AperFunction,Conductor*
%ADD22C,1.500000*%
G04 #@! TD*
G04 #@! TA.AperFunction,Conductor*
%ADD23C,0.500000*%
G04 #@! TD*
G04 #@! TA.AperFunction,Conductor*
%ADD24C,2.000000*%
G04 #@! TD*
G04 #@! TA.AperFunction,Conductor*
%ADD25C,0.250000*%
G04 #@! TD*
G04 #@! TA.AperFunction,Conductor*
%ADD26C,0.375000*%
G04 #@! TD*
G04 APERTURE END LIST*
D10*
X57130000Y-48260000D03*
X54630000Y-48260000D03*
X57130000Y-45720000D03*
X54630000Y-45720000D03*
X57130000Y-50800000D03*
X54630000Y-50800000D03*
X57130000Y-43180000D03*
X54630000Y-43180000D03*
X39390000Y-43180000D03*
X41890000Y-43180000D03*
X39390000Y-50800000D03*
X41890000Y-50800000D03*
X39410000Y-45720000D03*
X41910000Y-45720000D03*
X39370000Y-48260000D03*
X41870000Y-48260000D03*
X54610000Y-38100000D03*
X54610000Y-40600000D03*
D11*
X30480000Y-25400000D03*
X30480000Y-27940000D03*
X30480000Y-30480000D03*
X30480000Y-33020000D03*
X73660000Y-25400000D03*
X73660000Y-27940000D03*
X73660000Y-30480000D03*
X73660000Y-33020000D03*
D12*
X71120000Y-114935000D03*
X25400000Y-114935000D03*
X71120000Y-43180000D03*
X25400000Y-43180000D03*
D13*
X62180000Y-48260000D03*
D14*
X59640000Y-48260000D03*
D13*
X62180000Y-45720000D03*
D14*
X59640000Y-45720000D03*
D13*
X62180000Y-50800000D03*
D14*
X59640000Y-50800000D03*
D13*
X62180000Y-43180000D03*
D14*
X59640000Y-43180000D03*
D13*
X34340000Y-43180000D03*
D14*
X36880000Y-43180000D03*
D13*
X34340000Y-50800000D03*
D14*
X36880000Y-50800000D03*
D13*
X34340000Y-45720000D03*
D14*
X36880000Y-45720000D03*
D13*
X34340000Y-48260000D03*
D14*
X36880000Y-48260000D03*
D15*
X24765000Y-75565000D03*
X24765000Y-63065000D03*
X29765000Y-63065000D03*
X29765000Y-75565000D03*
X24805000Y-108475000D03*
X24805000Y-95975000D03*
X29805000Y-108475000D03*
X29805000Y-95975000D03*
X38735000Y-75565000D03*
X38735000Y-63065000D03*
X43735000Y-63065000D03*
X43735000Y-75565000D03*
X38775000Y-108475000D03*
X38775000Y-95975000D03*
X43775000Y-108475000D03*
X43775000Y-95975000D03*
X57785000Y-63065000D03*
X57785000Y-75565000D03*
X52785000Y-75565000D03*
X52785000Y-63065000D03*
X57785000Y-108475000D03*
X57785000Y-95975000D03*
X52785000Y-95975000D03*
X52785000Y-108475000D03*
X71715000Y-75565000D03*
X71715000Y-63065000D03*
X66715000Y-75565000D03*
X66715000Y-63065000D03*
X71755000Y-108475000D03*
X71755000Y-95975000D03*
X66755000Y-95975000D03*
X66755000Y-108475000D03*
D16*
X44450000Y-38100000D03*
D17*
X44450000Y-40640000D03*
X44450000Y-43180000D03*
X44450000Y-45720000D03*
X44450000Y-48260000D03*
X44450000Y-50800000D03*
X44450000Y-53340000D03*
X44450000Y-55880000D03*
X52070000Y-55880000D03*
X52070000Y-53340000D03*
X52070000Y-50800000D03*
X52070000Y-48260000D03*
X52070000Y-45720000D03*
X52070000Y-43180000D03*
X52070000Y-40640000D03*
X52070000Y-38100000D03*
D11*
X73660000Y-83185000D03*
X73660000Y-85725000D03*
X73660000Y-88265000D03*
D12*
X34290000Y-57150000D03*
D16*
X31750000Y-40640000D03*
D17*
X31750000Y-43180000D03*
X31750000Y-45720000D03*
X31750000Y-48260000D03*
X31750000Y-50800000D03*
D11*
X30480000Y-83185000D03*
X30480000Y-85725000D03*
X30480000Y-88265000D03*
D16*
X43810000Y-32375000D03*
D17*
X46350000Y-32375000D03*
X48890000Y-32375000D03*
X51430000Y-32375000D03*
X53970000Y-32375000D03*
X56510000Y-32375000D03*
X59050000Y-32375000D03*
X59050000Y-24755000D03*
X56510000Y-24755000D03*
X53970000Y-24755000D03*
X51430000Y-24755000D03*
X48890000Y-24755000D03*
X46350000Y-24755000D03*
X43810000Y-24755000D03*
D12*
X48260000Y-85725000D03*
X62230000Y-57150000D03*
D16*
X64770000Y-40640000D03*
D17*
X64770000Y-43180000D03*
X64770000Y-45720000D03*
X64770000Y-48260000D03*
X64770000Y-50800000D03*
D10*
X40640000Y-24765000D03*
X40640000Y-27265000D03*
D12*
X48260000Y-114935000D03*
D18*
X66030000Y-83185000D03*
D19*
X63490000Y-83185000D03*
X60950000Y-83185000D03*
X58410000Y-83185000D03*
D20*
X61580000Y-86995000D03*
X62880000Y-86995000D03*
D21*
X73160000Y-87765000D03*
X74160000Y-88765000D03*
X30980000Y-88765000D03*
X30980000Y-87765000D03*
X29980000Y-88765000D03*
X29980000Y-87765000D03*
X74160000Y-87765000D03*
X73160000Y-88765000D03*
X40640000Y-35560000D03*
X43810000Y-21595000D03*
X33655000Y-30480000D03*
X66690000Y-33020000D03*
X55865000Y-28575000D03*
X43810000Y-29850000D03*
X71120000Y-85090000D03*
X74160000Y-83685000D03*
X30980000Y-83685000D03*
X29980000Y-82685000D03*
X73160000Y-83685000D03*
X74160000Y-82685000D03*
X30980000Y-82685000D03*
X73160000Y-82685000D03*
X29980000Y-83685000D03*
X32385000Y-86360000D03*
X62880000Y-86995000D03*
D22*
X44450000Y-21590000D02*
X32385000Y-21590000D01*
D23*
X52070000Y-36195000D02*
X52070000Y-38100000D01*
D22*
X73660000Y-24765000D02*
X73660000Y-26670000D01*
D23*
X67945000Y-38735000D02*
X67945000Y-22225000D01*
D22*
X44450000Y-21590000D02*
X67310000Y-21590000D01*
D23*
X66040000Y-40640000D02*
X67945000Y-38735000D01*
D22*
X73660000Y-23495000D02*
X71755000Y-21590000D01*
X32385000Y-21590000D02*
X30480000Y-23495000D01*
D23*
X52070000Y-38100000D02*
X52070000Y-35560000D01*
D22*
X73660000Y-25400000D02*
X73660000Y-23495000D01*
D23*
X64770000Y-40640000D02*
X66040000Y-40640000D01*
D24*
X73660000Y-27940000D02*
X73660000Y-25400000D01*
D23*
X51435000Y-34925000D02*
X41275000Y-34925000D01*
D22*
X30480000Y-23495000D02*
X30480000Y-27940000D01*
X73660000Y-26670000D02*
X73660000Y-27940000D01*
D23*
X41275000Y-34925000D02*
X40640000Y-35560000D01*
D22*
X71755000Y-21590000D02*
X67310000Y-21590000D01*
X73660000Y-25400000D02*
X73660000Y-26670000D01*
D23*
X67945000Y-22225000D02*
X67310000Y-21590000D01*
X52070000Y-35560000D02*
X51435000Y-34925000D01*
D25*
X66675000Y-22860000D02*
X67310000Y-23495000D01*
X67310000Y-32400000D02*
X66690000Y-33020000D01*
X40640000Y-22860000D02*
X66675000Y-22860000D01*
X33655000Y-30480000D02*
X33655000Y-23495000D01*
X38735000Y-22860000D02*
X40640000Y-22860000D01*
X67310000Y-23495000D02*
X67310000Y-32400000D01*
X34290000Y-22860000D02*
X40640000Y-22860000D01*
X33655000Y-23495000D02*
X34290000Y-22860000D01*
X55245000Y-29845000D02*
X55880000Y-29210000D01*
X43810000Y-29850000D02*
X43815000Y-29845000D01*
X55880000Y-28575000D02*
X55865000Y-28575000D01*
X43815000Y-29845000D02*
X55245000Y-29845000D01*
X55880000Y-29210000D02*
X55880000Y-28575000D01*
D26*
X60950000Y-83185000D02*
X60950000Y-84445000D01*
X61595000Y-85090000D02*
X61580000Y-85105000D01*
X61595000Y-85090000D02*
X71120000Y-85090000D01*
X61580000Y-85105000D02*
X61580000Y-86995000D01*
X60950000Y-84445000D02*
X61595000Y-85090000D01*
D24*
X66030000Y-83185000D02*
X73660000Y-83185000D01*
D26*
X72390000Y-85725000D02*
X73660000Y-85725000D01*
X63500000Y-86360000D02*
X71755000Y-86360000D01*
X31750000Y-85725000D02*
X32385000Y-86360000D01*
X71755000Y-86360000D02*
X72390000Y-85725000D01*
X62880000Y-86980000D02*
X63500000Y-86360000D01*
X62880000Y-86995000D02*
X62880000Y-86980000D01*
X30480000Y-85725000D02*
X31750000Y-85725000D01*
G04 #@! TA.AperFunction,Conductor*
G36*
X33169526Y-22868502D02*
G01*
X33216019Y-22922158D01*
X33226123Y-22992432D01*
X33196629Y-23057012D01*
X33190500Y-23063595D01*
X33178865Y-23075230D01*
X33176385Y-23078427D01*
X33168682Y-23087447D01*
X33138414Y-23119679D01*
X33134595Y-23126625D01*
X33134593Y-23126628D01*
X33128652Y-23137434D01*
X33117801Y-23153953D01*
X33105386Y-23169959D01*
X33102241Y-23177228D01*
X33102238Y-23177232D01*
X33087826Y-23210537D01*
X33082609Y-23221187D01*
X33061305Y-23259940D01*
X33059334Y-23267615D01*
X33059334Y-23267616D01*
X33056267Y-23279562D01*
X33049863Y-23298266D01*
X33041819Y-23316855D01*
X33040580Y-23324678D01*
X33040577Y-23324688D01*
X33034901Y-23360524D01*
X33032495Y-23372144D01*
X33021500Y-23414970D01*
X33021500Y-23435224D01*
X33019949Y-23454934D01*
X33016780Y-23474943D01*
X33017526Y-23482835D01*
X33020941Y-23518961D01*
X33021500Y-23530819D01*
X33021500Y-29933331D01*
X33001411Y-30001586D01*
X32930054Y-30112310D01*
X32930050Y-30112319D01*
X32926235Y-30118238D01*
X32923826Y-30124858D01*
X32923825Y-30124859D01*
X32870333Y-30271827D01*
X32864197Y-30288685D01*
X32841463Y-30468640D01*
X32859163Y-30649160D01*
X32916418Y-30821273D01*
X32920065Y-30827295D01*
X32920066Y-30827297D01*
X32930978Y-30845314D01*
X33010380Y-30976424D01*
X33136382Y-31106902D01*
X33288159Y-31206222D01*
X33294763Y-31208678D01*
X33294765Y-31208679D01*
X33451558Y-31266990D01*
X33451560Y-31266990D01*
X33458168Y-31269448D01*
X33541995Y-31280633D01*
X33630980Y-31292507D01*
X33630984Y-31292507D01*
X33637961Y-31293438D01*
X33644972Y-31292800D01*
X33644976Y-31292800D01*
X33787459Y-31279832D01*
X33818600Y-31276998D01*
X33825302Y-31274820D01*
X33825304Y-31274820D01*
X33984409Y-31223124D01*
X33984412Y-31223123D01*
X33991108Y-31220947D01*
X34146912Y-31128069D01*
X34278266Y-31002982D01*
X34378643Y-30851902D01*
X34443055Y-30682338D01*
X34445842Y-30662507D01*
X34467748Y-30506639D01*
X34467748Y-30506636D01*
X34468299Y-30502717D01*
X34468616Y-30480000D01*
X34448397Y-30299745D01*
X34446080Y-30293091D01*
X34391064Y-30135106D01*
X34391062Y-30135103D01*
X34388745Y-30128448D01*
X34307646Y-29998661D01*
X34288500Y-29931892D01*
X34288500Y-29838640D01*
X42996463Y-29838640D01*
X43014163Y-30019160D01*
X43071418Y-30191273D01*
X43075065Y-30197295D01*
X43075066Y-30197297D01*
X43150819Y-30322380D01*
X43165380Y-30346424D01*
X43170269Y-30351487D01*
X43170270Y-30351488D01*
X43190125Y-30372048D01*
X43291382Y-30476902D01*
X43443159Y-30576222D01*
X43449763Y-30578678D01*
X43449765Y-30578679D01*
X43606558Y-30636990D01*
X43606560Y-30636990D01*
X43613168Y-30639448D01*
X43685955Y-30649160D01*
X43785980Y-30662507D01*
X43785984Y-30662507D01*
X43792961Y-30663438D01*
X43799972Y-30662800D01*
X43799976Y-30662800D01*
X43949844Y-30649160D01*
X43973600Y-30646998D01*
X43980302Y-30644820D01*
X43980304Y-30644820D01*
X44139409Y-30593124D01*
X44139412Y-30593123D01*
X44146108Y-30590947D01*
X44301912Y-30498069D01*
X44303141Y-30500131D01*
X44358978Y-30478883D01*
X44368798Y-30478500D01*
X55166233Y-30478500D01*
X55177416Y-30479027D01*
X55184909Y-30480702D01*
X55192835Y-30480453D01*
X55192836Y-30480453D01*
X55252986Y-30478562D01*
X55256945Y-30478500D01*
X55284856Y-30478500D01*
X55288791Y-30478003D01*
X55288856Y-30477995D01*
X55300693Y-30477062D01*
X55332951Y-30476048D01*
X55336970Y-30475922D01*
X55344889Y-30475673D01*
X55364343Y-30470021D01*
X55383700Y-30466013D01*
X55395930Y-30464468D01*
X55395931Y-30464468D01*
X55403797Y-30463474D01*
X55411168Y-30460555D01*
X55411170Y-30460555D01*
X55444912Y-30447196D01*
X55456142Y-30443351D01*
X55490983Y-30433229D01*
X55490984Y-30433229D01*
X55498593Y-30431018D01*
X55505412Y-30426985D01*
X55505417Y-30426983D01*
X55516028Y-30420707D01*
X55533776Y-30412012D01*
X55552617Y-30404552D01*
X55588387Y-30378564D01*
X55598307Y-30372048D01*
X55629535Y-30353580D01*
X55629538Y-30353578D01*
X55636362Y-30349542D01*
X55650683Y-30335221D01*
X55665717Y-30322380D01*
X55675694Y-30315131D01*
X55682107Y-30310472D01*
X55710298Y-30276395D01*
X55718288Y-30267616D01*
X56272247Y-29713657D01*
X56280537Y-29706113D01*
X56287018Y-29702000D01*
X56333659Y-29652332D01*
X56336413Y-29649491D01*
X56356135Y-29629769D01*
X56358612Y-29626576D01*
X56366317Y-29617555D01*
X56391159Y-29591100D01*
X56396586Y-29585321D01*
X56400407Y-29578371D01*
X56406346Y-29567568D01*
X56417202Y-29551041D01*
X56424757Y-29541302D01*
X56424758Y-29541300D01*
X56429614Y-29535040D01*
X56447174Y-29494460D01*
X56452391Y-29483812D01*
X56469875Y-29452009D01*
X56469876Y-29452007D01*
X56473695Y-29445060D01*
X56478733Y-29425437D01*
X56485137Y-29406734D01*
X56490033Y-29395420D01*
X56490033Y-29395419D01*
X56493181Y-29388145D01*
X56494420Y-29380322D01*
X56494423Y-29380312D01*
X56500099Y-29344476D01*
X56502505Y-29332856D01*
X56511528Y-29297711D01*
X56511528Y-29297710D01*
X56513500Y-29290030D01*
X56513500Y-29269776D01*
X56515051Y-29250065D01*
X56516980Y-29237886D01*
X56518220Y-29230057D01*
X56514059Y-29186038D01*
X56513500Y-29174181D01*
X56513500Y-29098043D01*
X56534552Y-29028316D01*
X56584742Y-28952773D01*
X56588643Y-28946902D01*
X56653055Y-28777338D01*
X56654035Y-28770366D01*
X56677748Y-28601639D01*
X56677748Y-28601636D01*
X56678299Y-28597717D01*
X56678616Y-28575000D01*
X56658397Y-28394745D01*
X56656080Y-28388091D01*
X56601064Y-28230106D01*
X56601062Y-28230103D01*
X56598745Y-28223448D01*
X56588662Y-28207312D01*
X56506359Y-28075598D01*
X56502626Y-28069624D01*
X56436976Y-28003514D01*
X56379778Y-27945915D01*
X56379774Y-27945912D01*
X56374815Y-27940918D01*
X56363697Y-27933862D01*
X56315538Y-27903300D01*
X56221666Y-27843727D01*
X56192463Y-27833328D01*
X56057425Y-27785243D01*
X56057420Y-27785242D01*
X56050790Y-27782881D01*
X56043802Y-27782048D01*
X56043799Y-27782047D01*
X55920698Y-27767368D01*
X55870680Y-27761404D01*
X55863677Y-27762140D01*
X55863676Y-27762140D01*
X55697288Y-27779628D01*
X55697286Y-27779629D01*
X55690288Y-27780364D01*
X55518579Y-27838818D01*
X55512575Y-27842512D01*
X55370095Y-27930166D01*
X55370092Y-27930168D01*
X55364088Y-27933862D01*
X55359053Y-27938793D01*
X55359050Y-27938795D01*
X55239525Y-28055843D01*
X55234493Y-28060771D01*
X55136235Y-28213238D01*
X55133826Y-28219858D01*
X55133824Y-28219861D01*
X55076606Y-28377066D01*
X55074197Y-28383685D01*
X55051463Y-28563640D01*
X55069163Y-28744160D01*
X55126418Y-28916273D01*
X55130065Y-28922295D01*
X55130066Y-28922297D01*
X55132347Y-28926063D01*
X55150526Y-28994693D01*
X55128715Y-29062256D01*
X55113668Y-29080428D01*
X55052049Y-29142047D01*
X55019499Y-29174596D01*
X54957187Y-29208621D01*
X54930404Y-29211500D01*
X44349459Y-29211500D01*
X44281945Y-29191885D01*
X44209769Y-29146081D01*
X44166666Y-29118727D01*
X44137463Y-29108328D01*
X44002425Y-29060243D01*
X44002420Y-29060242D01*
X43995790Y-29057881D01*
X43988802Y-29057048D01*
X43988799Y-29057047D01*
X43865698Y-29042368D01*
X43815680Y-29036404D01*
X43808677Y-29037140D01*
X43808676Y-29037140D01*
X43642288Y-29054628D01*
X43642286Y-29054629D01*
X43635288Y-29055364D01*
X43463579Y-29113818D01*
X43457575Y-29117512D01*
X43315095Y-29205166D01*
X43315092Y-29205168D01*
X43309088Y-29208862D01*
X43304053Y-29213793D01*
X43304050Y-29213795D01*
X43184525Y-29330843D01*
X43179493Y-29335771D01*
X43081235Y-29488238D01*
X43078826Y-29494858D01*
X43078824Y-29494861D01*
X43028701Y-29632572D01*
X43019197Y-29658685D01*
X42996463Y-29838640D01*
X34288500Y-29838640D01*
X34288500Y-23809594D01*
X34308502Y-23741473D01*
X34325405Y-23720499D01*
X34515499Y-23530405D01*
X34577811Y-23496379D01*
X34604594Y-23493500D01*
X39774969Y-23493500D01*
X39843090Y-23513502D01*
X39889583Y-23567158D01*
X39899687Y-23637432D01*
X39870193Y-23702012D01*
X39847240Y-23722713D01*
X39800211Y-23755643D01*
X39800208Y-23755645D01*
X39795700Y-23758802D01*
X39633802Y-23920700D01*
X39502477Y-24108251D01*
X39500154Y-24113233D01*
X39500151Y-24113238D01*
X39422067Y-24280692D01*
X39405716Y-24315757D01*
X39404294Y-24321065D01*
X39404293Y-24321067D01*
X39347881Y-24531598D01*
X39346457Y-24536913D01*
X39326502Y-24765000D01*
X39346457Y-24993087D01*
X39347881Y-24998400D01*
X39347881Y-24998402D01*
X39401614Y-25198933D01*
X39405716Y-25214243D01*
X39408039Y-25219224D01*
X39408039Y-25219225D01*
X39500151Y-25416762D01*
X39500154Y-25416767D01*
X39502477Y-25421749D01*
X39505634Y-25426257D01*
X39629529Y-25603197D01*
X39633802Y-25609300D01*
X39795700Y-25771198D01*
X39800208Y-25774355D01*
X39800211Y-25774357D01*
X39878389Y-25829098D01*
X39983251Y-25902523D01*
X39988233Y-25904846D01*
X39988238Y-25904849D01*
X40172363Y-25990707D01*
X40190757Y-25999284D01*
X40196065Y-26000706D01*
X40196067Y-26000707D01*
X40406598Y-26057119D01*
X40406600Y-26057119D01*
X40411913Y-26058543D01*
X40640000Y-26078498D01*
X40868087Y-26058543D01*
X40873400Y-26057119D01*
X40873402Y-26057119D01*
X41083933Y-26000707D01*
X41083935Y-26000706D01*
X41089243Y-25999284D01*
X41107637Y-25990707D01*
X41291762Y-25904849D01*
X41291767Y-25904846D01*
X41296749Y-25902523D01*
X41401611Y-25829098D01*
X41479789Y-25774357D01*
X41479792Y-25774355D01*
X41484300Y-25771198D01*
X41646198Y-25609300D01*
X41650472Y-25603197D01*
X41774366Y-25426257D01*
X41777523Y-25421749D01*
X41779846Y-25416767D01*
X41779849Y-25416762D01*
X41871961Y-25219225D01*
X41871961Y-25219224D01*
X41874284Y-25214243D01*
X41878387Y-25198933D01*
X41932119Y-24998402D01*
X41932119Y-24998400D01*
X41933543Y-24993087D01*
X41953498Y-24765000D01*
X41933543Y-24536913D01*
X41932119Y-24531598D01*
X41875707Y-24321067D01*
X41875706Y-24321065D01*
X41874284Y-24315757D01*
X41857933Y-24280692D01*
X41779849Y-24113238D01*
X41779846Y-24113233D01*
X41777523Y-24108251D01*
X41646198Y-23920700D01*
X41484300Y-23758802D01*
X41479792Y-23755645D01*
X41479789Y-23755643D01*
X41432760Y-23722713D01*
X41388432Y-23667256D01*
X41381123Y-23596636D01*
X41413154Y-23533276D01*
X41474355Y-23497291D01*
X41505031Y-23493500D01*
X42930688Y-23493500D01*
X42998809Y-23513502D01*
X43045302Y-23567158D01*
X43055406Y-23637432D01*
X43025912Y-23702012D01*
X43002959Y-23722713D01*
X42970211Y-23745643D01*
X42970208Y-23745645D01*
X42965700Y-23748802D01*
X42803802Y-23910700D01*
X42800645Y-23915208D01*
X42800643Y-23915211D01*
X42796800Y-23920700D01*
X42672477Y-24098251D01*
X42670154Y-24103233D01*
X42670151Y-24103238D01*
X42587404Y-24280692D01*
X42575716Y-24305757D01*
X42574294Y-24311065D01*
X42574293Y-24311067D01*
X42523168Y-24501866D01*
X42516457Y-24526913D01*
X42496502Y-24755000D01*
X42516457Y-24983087D01*
X42517881Y-24988400D01*
X42517881Y-24988402D01*
X42526038Y-25018842D01*
X42575716Y-25204243D01*
X42578039Y-25209224D01*
X42578039Y-25209225D01*
X42670151Y-25406762D01*
X42670154Y-25406767D01*
X42672477Y-25411749D01*
X42803802Y-25599300D01*
X42965700Y-25761198D01*
X42970208Y-25764355D01*
X42970211Y-25764357D01*
X42979981Y-25771198D01*
X43153251Y-25892523D01*
X43158233Y-25894846D01*
X43158238Y-25894849D01*
X43355775Y-25986961D01*
X43360757Y-25989284D01*
X43366065Y-25990706D01*
X43366067Y-25990707D01*
X43576598Y-26047119D01*
X43576600Y-26047119D01*
X43581913Y-26048543D01*
X43810000Y-26068498D01*
X44038087Y-26048543D01*
X44043400Y-26047119D01*
X44043402Y-26047119D01*
X44253933Y-25990707D01*
X44253935Y-25990706D01*
X44259243Y-25989284D01*
X44264225Y-25986961D01*
X44461762Y-25894849D01*
X44461767Y-25894846D01*
X44466749Y-25892523D01*
X44640019Y-25771198D01*
X44649789Y-25764357D01*
X44649792Y-25764355D01*
X44654300Y-25761198D01*
X44816198Y-25599300D01*
X44947523Y-25411749D01*
X44949846Y-25406767D01*
X44949849Y-25406762D01*
X44965805Y-25372543D01*
X45012722Y-25319258D01*
X45080999Y-25299797D01*
X45148959Y-25320339D01*
X45194195Y-25372543D01*
X45210151Y-25406762D01*
X45210154Y-25406767D01*
X45212477Y-25411749D01*
X45343802Y-25599300D01*
X45505700Y-25761198D01*
X45510208Y-25764355D01*
X45510211Y-25764357D01*
X45519981Y-25771198D01*
X45693251Y-25892523D01*
X45698233Y-25894846D01*
X45698238Y-25894849D01*
X45895775Y-25986961D01*
X45900757Y-25989284D01*
X45906065Y-25990706D01*
X45906067Y-25990707D01*
X46116598Y-26047119D01*
X46116600Y-26047119D01*
X46121913Y-26048543D01*
X46350000Y-26068498D01*
X46578087Y-26048543D01*
X46583400Y-26047119D01*
X46583402Y-26047119D01*
X46793933Y-25990707D01*
X46793935Y-25990706D01*
X46799243Y-25989284D01*
X46804225Y-25986961D01*
X47001762Y-25894849D01*
X47001767Y-25894846D01*
X47006749Y-25892523D01*
X47180019Y-25771198D01*
X47189789Y-25764357D01*
X47189792Y-25764355D01*
X47194300Y-25761198D01*
X47356198Y-25599300D01*
X47487523Y-25411749D01*
X47489846Y-25406767D01*
X47489849Y-25406762D01*
X47505805Y-25372543D01*
X47552722Y-25319258D01*
X47620999Y-25299797D01*
X47688959Y-25320339D01*
X47734195Y-25372543D01*
X47750151Y-25406762D01*
X47750154Y-25406767D01*
X47752477Y-25411749D01*
X47883802Y-25599300D01*
X48045700Y-25761198D01*
X48050208Y-25764355D01*
X48050211Y-25764357D01*
X48059981Y-25771198D01*
X48233251Y-25892523D01*
X48238233Y-25894846D01*
X48238238Y-25894849D01*
X48435775Y-25986961D01*
X48440757Y-25989284D01*
X48446065Y-25990706D01*
X48446067Y-25990707D01*
X48656598Y-26047119D01*
X48656600Y-26047119D01*
X48661913Y-26048543D01*
X48890000Y-26068498D01*
X49118087Y-26048543D01*
X49123400Y-26047119D01*
X49123402Y-26047119D01*
X49333933Y-25990707D01*
X49333935Y-25990706D01*
X49339243Y-25989284D01*
X49344225Y-25986961D01*
X49541762Y-25894849D01*
X49541767Y-25894846D01*
X49546749Y-25892523D01*
X49720019Y-25771198D01*
X49729789Y-25764357D01*
X49729792Y-25764355D01*
X49734300Y-25761198D01*
X49896198Y-25599300D01*
X50027523Y-25411749D01*
X50029846Y-25406767D01*
X50029849Y-25406762D01*
X50045805Y-25372543D01*
X50092722Y-25319258D01*
X50160999Y-25299797D01*
X50228959Y-25320339D01*
X50274195Y-25372543D01*
X50290151Y-25406762D01*
X50290154Y-25406767D01*
X50292477Y-25411749D01*
X50423802Y-25599300D01*
X50585700Y-25761198D01*
X50590208Y-25764355D01*
X50590211Y-25764357D01*
X50599981Y-25771198D01*
X50773251Y-25892523D01*
X50778233Y-25894846D01*
X50778238Y-25894849D01*
X50975775Y-25986961D01*
X50980757Y-25989284D01*
X50986065Y-25990706D01*
X50986067Y-25990707D01*
X51196598Y-26047119D01*
X51196600Y-26047119D01*
X51201913Y-26048543D01*
X51430000Y-26068498D01*
X51658087Y-26048543D01*
X51663400Y-26047119D01*
X51663402Y-26047119D01*
X51873933Y-25990707D01*
X51873935Y-25990706D01*
X51879243Y-25989284D01*
X51884225Y-25986961D01*
X52081762Y-25894849D01*
X52081767Y-25894846D01*
X52086749Y-25892523D01*
X52260019Y-25771198D01*
X52269789Y-25764357D01*
X52269792Y-25764355D01*
X52274300Y-25761198D01*
X52436198Y-25599300D01*
X52567523Y-25411749D01*
X52569846Y-25406767D01*
X52569849Y-25406762D01*
X52585805Y-25372543D01*
X52632722Y-25319258D01*
X52700999Y-25299797D01*
X52768959Y-25320339D01*
X52814195Y-25372543D01*
X52830151Y-25406762D01*
X52830154Y-25406767D01*
X52832477Y-25411749D01*
X52963802Y-25599300D01*
X53125700Y-25761198D01*
X53130208Y-25764355D01*
X53130211Y-25764357D01*
X53139981Y-25771198D01*
X53313251Y-25892523D01*
X53318233Y-25894846D01*
X53318238Y-25894849D01*
X53515775Y-25986961D01*
X53520757Y-25989284D01*
X53526065Y-25990706D01*
X53526067Y-25990707D01*
X53736598Y-26047119D01*
X53736600Y-26047119D01*
X53741913Y-26048543D01*
X53970000Y-26068498D01*
X54198087Y-26048543D01*
X54203400Y-26047119D01*
X54203402Y-26047119D01*
X54413933Y-25990707D01*
X54413935Y-25990706D01*
X54419243Y-25989284D01*
X54424225Y-25986961D01*
X54621762Y-25894849D01*
X54621767Y-25894846D01*
X54626749Y-25892523D01*
X54800019Y-25771198D01*
X54809789Y-25764357D01*
X54809792Y-25764355D01*
X54814300Y-25761198D01*
X54976198Y-25599300D01*
X55107523Y-25411749D01*
X55109846Y-25406767D01*
X55109849Y-25406762D01*
X55125805Y-25372543D01*
X55172722Y-25319258D01*
X55240999Y-25299797D01*
X55308959Y-25320339D01*
X55354195Y-25372543D01*
X55370151Y-25406762D01*
X55370154Y-25406767D01*
X55372477Y-25411749D01*
X55503802Y-25599300D01*
X55665700Y-25761198D01*
X55670208Y-25764355D01*
X55670211Y-25764357D01*
X55679981Y-25771198D01*
X55853251Y-25892523D01*
X55858233Y-25894846D01*
X55858238Y-25894849D01*
X56055775Y-25986961D01*
X56060757Y-25989284D01*
X56066065Y-25990706D01*
X56066067Y-25990707D01*
X56276598Y-26047119D01*
X56276600Y-26047119D01*
X56281913Y-26048543D01*
X56510000Y-26068498D01*
X56738087Y-26048543D01*
X56743400Y-26047119D01*
X56743402Y-26047119D01*
X56953933Y-25990707D01*
X56953935Y-25990706D01*
X56959243Y-25989284D01*
X56964225Y-25986961D01*
X57161762Y-25894849D01*
X57161767Y-25894846D01*
X57166749Y-25892523D01*
X57340019Y-25771198D01*
X57349789Y-25764357D01*
X57349792Y-25764355D01*
X57354300Y-25761198D01*
X57516198Y-25599300D01*
X57647523Y-25411749D01*
X57649846Y-25406767D01*
X57649849Y-25406762D01*
X57665805Y-25372543D01*
X57712722Y-25319258D01*
X57780999Y-25299797D01*
X57848959Y-25320339D01*
X57894195Y-25372543D01*
X57910151Y-25406762D01*
X57910154Y-25406767D01*
X57912477Y-25411749D01*
X58043802Y-25599300D01*
X58205700Y-25761198D01*
X58210208Y-25764355D01*
X58210211Y-25764357D01*
X58219981Y-25771198D01*
X58393251Y-25892523D01*
X58398233Y-25894846D01*
X58398238Y-25894849D01*
X58595775Y-25986961D01*
X58600757Y-25989284D01*
X58606065Y-25990706D01*
X58606067Y-25990707D01*
X58816598Y-26047119D01*
X58816600Y-26047119D01*
X58821913Y-26048543D01*
X59050000Y-26068498D01*
X59278087Y-26048543D01*
X59283400Y-26047119D01*
X59283402Y-26047119D01*
X59493933Y-25990707D01*
X59493935Y-25990706D01*
X59499243Y-25989284D01*
X59504225Y-25986961D01*
X59701762Y-25894849D01*
X59701767Y-25894846D01*
X59706749Y-25892523D01*
X59880019Y-25771198D01*
X59889789Y-25764357D01*
X59889792Y-25764355D01*
X59894300Y-25761198D01*
X60056198Y-25599300D01*
X60187523Y-25411749D01*
X60189846Y-25406767D01*
X60189849Y-25406762D01*
X60281961Y-25209225D01*
X60281961Y-25209224D01*
X60284284Y-25204243D01*
X60333963Y-25018842D01*
X60342119Y-24988402D01*
X60342119Y-24988400D01*
X60343543Y-24983087D01*
X60363498Y-24755000D01*
X60343543Y-24526913D01*
X60336832Y-24501866D01*
X60285707Y-24311067D01*
X60285706Y-24311065D01*
X60284284Y-24305757D01*
X60272596Y-24280692D01*
X60189849Y-24103238D01*
X60189846Y-24103233D01*
X60187523Y-24098251D01*
X60063200Y-23920700D01*
X60059357Y-23915211D01*
X60059355Y-23915208D01*
X60056198Y-23910700D01*
X59894300Y-23748802D01*
X59889792Y-23745645D01*
X59889789Y-23745643D01*
X59857041Y-23722713D01*
X59812713Y-23667256D01*
X59805404Y-23596637D01*
X59837435Y-23533276D01*
X59898636Y-23497291D01*
X59929312Y-23493500D01*
X66360406Y-23493500D01*
X66428527Y-23513502D01*
X66449501Y-23530405D01*
X66639595Y-23720499D01*
X66673621Y-23782811D01*
X66676500Y-23809594D01*
X66676500Y-32085405D01*
X66656498Y-32153526D01*
X66639595Y-32174500D01*
X66628908Y-32185187D01*
X66566596Y-32219213D01*
X66552986Y-32221402D01*
X66544210Y-32222324D01*
X66522288Y-32224628D01*
X66522286Y-32224628D01*
X66515288Y-32225364D01*
X66343579Y-32283818D01*
X66337575Y-32287512D01*
X66195095Y-32375166D01*
X66195092Y-32375168D01*
X66189088Y-32378862D01*
X66184053Y-32383793D01*
X66184050Y-32383795D01*
X66064525Y-32500843D01*
X66059493Y-32505771D01*
X65961235Y-32658238D01*
X65958826Y-32664858D01*
X65958824Y-32664861D01*
X65902746Y-32818933D01*
X65899197Y-32828685D01*
X65876463Y-33008640D01*
X65894163Y-33189160D01*
X65951418Y-33361273D01*
X65955065Y-33367295D01*
X65955066Y-33367297D01*
X66041106Y-33509366D01*
X66045380Y-33516424D01*
X66171382Y-33646902D01*
X66323159Y-33746222D01*
X66329763Y-33748678D01*
X66329765Y-33748679D01*
X66486558Y-33806990D01*
X66486560Y-33806990D01*
X66493168Y-33809448D01*
X66576995Y-33820633D01*
X66665980Y-33832507D01*
X66665984Y-33832507D01*
X66672961Y-33833438D01*
X66679972Y-33832800D01*
X66679976Y-33832800D01*
X66822459Y-33819832D01*
X66853600Y-33816998D01*
X66860302Y-33814820D01*
X66860304Y-33814820D01*
X66920020Y-33795417D01*
X67021565Y-33762423D01*
X67092531Y-33760395D01*
X67153329Y-33797058D01*
X67184655Y-33860770D01*
X67186500Y-33882256D01*
X67186500Y-38368629D01*
X67166498Y-38436750D01*
X67149595Y-38457724D01*
X66120116Y-39487203D01*
X66057804Y-39521229D01*
X65986989Y-39516164D01*
X65941926Y-39487203D01*
X65938642Y-39483919D01*
X65933261Y-39476739D01*
X65816705Y-39389385D01*
X65680316Y-39338255D01*
X65618134Y-39331500D01*
X63921866Y-39331500D01*
X63859684Y-39338255D01*
X63723295Y-39389385D01*
X63606739Y-39476739D01*
X63519385Y-39593295D01*
X63468255Y-39729684D01*
X63461500Y-39791866D01*
X63461500Y-41488134D01*
X63468255Y-41550316D01*
X63519385Y-41686705D01*
X63606739Y-41803261D01*
X63723295Y-41890615D01*
X63859684Y-41941745D01*
X63870474Y-41942917D01*
X63872606Y-41943803D01*
X63875222Y-41944425D01*
X63875121Y-41944848D01*
X63936035Y-41970155D01*
X63976463Y-42028517D01*
X63978922Y-42099471D01*
X63942629Y-42160490D01*
X63933969Y-42167489D01*
X63930207Y-42170646D01*
X63925700Y-42173802D01*
X63763802Y-42335700D01*
X63632477Y-42523251D01*
X63630154Y-42528233D01*
X63630151Y-42528238D01*
X63535716Y-42730757D01*
X63534411Y-42730149D01*
X63496340Y-42781849D01*
X63430017Y-42807182D01*
X63360526Y-42792638D01*
X63309930Y-42742832D01*
X63305851Y-42734841D01*
X63230589Y-42573442D01*
X63109301Y-42400224D01*
X62959776Y-42250699D01*
X62786558Y-42129411D01*
X62781580Y-42127090D01*
X62781577Y-42127088D01*
X62599892Y-42042367D01*
X62599891Y-42042366D01*
X62594910Y-42040044D01*
X62589602Y-42038622D01*
X62589600Y-42038621D01*
X62395970Y-41986738D01*
X62395968Y-41986738D01*
X62390655Y-41985314D01*
X62180000Y-41966884D01*
X61969345Y-41985314D01*
X61964032Y-41986738D01*
X61964030Y-41986738D01*
X61770400Y-42038621D01*
X61770398Y-42038622D01*
X61765090Y-42040044D01*
X61760109Y-42042366D01*
X61760108Y-42042367D01*
X61578423Y-42127088D01*
X61578420Y-42127090D01*
X61573442Y-42129411D01*
X61400224Y-42250699D01*
X61250699Y-42400224D01*
X61129411Y-42573442D01*
X61127090Y-42578420D01*
X61127088Y-42578423D01*
X61050423Y-42742832D01*
X61040044Y-42765090D01*
X61038622Y-42770398D01*
X61038621Y-42770400D01*
X61031707Y-42796204D01*
X60994755Y-42856827D01*
X60930894Y-42887848D01*
X60860400Y-42879420D01*
X60805653Y-42834217D01*
X60788293Y-42796204D01*
X60781379Y-42770400D01*
X60781378Y-42770398D01*
X60779956Y-42765090D01*
X60769577Y-42742832D01*
X60692912Y-42578423D01*
X60692910Y-42578420D01*
X60690589Y-42573442D01*
X60569301Y-42400224D01*
X60419776Y-42250699D01*
X60246558Y-42129411D01*
X60241580Y-42127090D01*
X60241577Y-42127088D01*
X60059892Y-42042367D01*
X60059891Y-42042366D01*
X60054910Y-42040044D01*
X60049602Y-42038622D01*
X60049600Y-42038621D01*
X59855970Y-41986738D01*
X59855968Y-41986738D01*
X59850655Y-41985314D01*
X59640000Y-41966884D01*
X59429345Y-41985314D01*
X59424032Y-41986738D01*
X59424030Y-41986738D01*
X59230400Y-42038621D01*
X59230398Y-42038622D01*
X59225090Y-42040044D01*
X59220109Y-42042366D01*
X59220108Y-42042367D01*
X59038423Y-42127088D01*
X59038420Y-42127090D01*
X59033442Y-42129411D01*
X58860224Y-42250699D01*
X58710699Y-42400224D01*
X58589411Y-42573442D01*
X58587090Y-42578420D01*
X58587088Y-42578423D01*
X58554364Y-42648600D01*
X58507446Y-42701885D01*
X58439169Y-42721346D01*
X58371209Y-42700804D01*
X58325974Y-42648600D01*
X58269849Y-42528238D01*
X58269846Y-42528233D01*
X58267523Y-42523251D01*
X58136198Y-42335700D01*
X57974300Y-42173802D01*
X57969792Y-42170645D01*
X57969789Y-42170643D01*
X57891611Y-42115902D01*
X57786749Y-42042477D01*
X57781767Y-42040154D01*
X57781762Y-42040151D01*
X57584225Y-41948039D01*
X57584224Y-41948039D01*
X57579243Y-41945716D01*
X57573935Y-41944294D01*
X57573933Y-41944293D01*
X57363402Y-41887881D01*
X57363400Y-41887881D01*
X57358087Y-41886457D01*
X57130000Y-41866502D01*
X56901913Y-41886457D01*
X56896600Y-41887881D01*
X56896598Y-41887881D01*
X56686067Y-41944293D01*
X56686065Y-41944294D01*
X56680757Y-41945716D01*
X56675776Y-41948039D01*
X56675775Y-41948039D01*
X56478238Y-42040151D01*
X56478233Y-42040154D01*
X56473251Y-42042477D01*
X56368389Y-42115902D01*
X56290211Y-42170643D01*
X56290208Y-42170645D01*
X56285700Y-42173802D01*
X56123802Y-42335700D01*
X55992477Y-42523251D01*
X55990154Y-42528233D01*
X55990151Y-42528238D01*
X55966750Y-42578423D01*
X55895716Y-42730757D01*
X55894294Y-42736065D01*
X55894293Y-42736067D01*
X55853623Y-42887848D01*
X55836457Y-42951913D01*
X55816502Y-43180000D01*
X55836457Y-43408087D01*
X55837881Y-43413400D01*
X55837881Y-43413402D01*
X55885094Y-43589600D01*
X55895716Y-43629243D01*
X55898039Y-43634224D01*
X55898039Y-43634225D01*
X55990151Y-43831762D01*
X55990154Y-43831767D01*
X55992477Y-43836749D01*
X56123802Y-44024300D01*
X56285700Y-44186198D01*
X56290208Y-44189355D01*
X56290211Y-44189357D01*
X56344591Y-44227434D01*
X56473251Y-44317523D01*
X56478233Y-44319846D01*
X56478238Y-44319849D01*
X56512457Y-44335805D01*
X56565742Y-44382722D01*
X56585203Y-44450999D01*
X56564661Y-44518959D01*
X56512457Y-44564195D01*
X56478238Y-44580151D01*
X56478233Y-44580154D01*
X56473251Y-44582477D01*
X56368389Y-44655902D01*
X56290211Y-44710643D01*
X56290208Y-44710645D01*
X56285700Y-44713802D01*
X56123802Y-44875700D01*
X55992477Y-45063251D01*
X55990154Y-45068233D01*
X55990151Y-45068238D01*
X55966750Y-45118423D01*
X55895716Y-45270757D01*
X55894294Y-45276065D01*
X55894293Y-45276067D01*
X55853623Y-45427848D01*
X55836457Y-45491913D01*
X55816502Y-45720000D01*
X55836457Y-45948087D01*
X55837881Y-45953400D01*
X55837881Y-45953402D01*
X55885094Y-46129600D01*
X55895716Y-46169243D01*
X55898039Y-46174224D01*
X55898039Y-46174225D01*
X55990151Y-46371762D01*
X55990154Y-46371767D01*
X55992477Y-46376749D01*
X56123802Y-46564300D01*
X56285700Y-46726198D01*
X56290208Y-46729355D01*
X56290211Y-46729357D01*
X56344591Y-46767434D01*
X56473251Y-46857523D01*
X56478233Y-46859846D01*
X56478238Y-46859849D01*
X56512457Y-46875805D01*
X56565742Y-46922722D01*
X56585203Y-46990999D01*
X56564661Y-47058959D01*
X56512457Y-47104195D01*
X56478238Y-47120151D01*
X56478233Y-47120154D01*
X56473251Y-47122477D01*
X56368389Y-47195902D01*
X56290211Y-47250643D01*
X56290208Y-47250645D01*
X56285700Y-47253802D01*
X56123802Y-47415700D01*
X55992477Y-47603251D01*
X55990154Y-47608233D01*
X55990151Y-47608238D01*
X55966750Y-47658423D01*
X55895716Y-47810757D01*
X55894294Y-47816065D01*
X55894293Y-47816067D01*
X55853623Y-47967848D01*
X55836457Y-48031913D01*
X55816502Y-48260000D01*
X55836457Y-48488087D01*
X55837881Y-48493400D01*
X55837881Y-48493402D01*
X55885094Y-48669600D01*
X55895716Y-48709243D01*
X55898039Y-48714224D01*
X55898039Y-48714225D01*
X55990151Y-48911762D01*
X55990154Y-48911767D01*
X55992477Y-48916749D01*
X56123802Y-49104300D01*
X56285700Y-49266198D01*
X56290208Y-49269355D01*
X56290211Y-49269357D01*
X56344591Y-49307434D01*
X56473251Y-49397523D01*
X56478233Y-49399846D01*
X56478238Y-49399849D01*
X56512457Y-49415805D01*
X56565742Y-49462722D01*
X56585203Y-49530999D01*
X56564661Y-49598959D01*
X56512457Y-49644195D01*
X56478238Y-49660151D01*
X56478233Y-49660154D01*
X56473251Y-49662477D01*
X56368389Y-49735902D01*
X56290211Y-49790643D01*
X56290208Y-49790645D01*
X56285700Y-49793802D01*
X56123802Y-49955700D01*
X55992477Y-50143251D01*
X55990154Y-50148233D01*
X55990151Y-50148238D01*
X55966750Y-50198423D01*
X55895716Y-50350757D01*
X55894294Y-50356065D01*
X55894293Y-50356067D01*
X55853623Y-50507848D01*
X55836457Y-50571913D01*
X55816502Y-50800000D01*
X55836457Y-51028087D01*
X55837881Y-51033400D01*
X55837881Y-51033402D01*
X55885094Y-51209600D01*
X55895716Y-51249243D01*
X55898039Y-51254224D01*
X55898039Y-51254225D01*
X55990151Y-51451762D01*
X55990154Y-51451767D01*
X55992477Y-51456749D01*
X56123802Y-51644300D01*
X56285700Y-51806198D01*
X56290208Y-51809355D01*
X56290211Y-51809357D01*
X56344591Y-51847434D01*
X56473251Y-51937523D01*
X56478233Y-51939846D01*
X56478238Y-51939849D01*
X56675775Y-52031961D01*
X56680757Y-52034284D01*
X56686065Y-52035706D01*
X56686067Y-52035707D01*
X56896598Y-52092119D01*
X56896600Y-52092119D01*
X56901913Y-52093543D01*
X57130000Y-52113498D01*
X57358087Y-52093543D01*
X57363400Y-52092119D01*
X57363402Y-52092119D01*
X57573933Y-52035707D01*
X57573935Y-52035706D01*
X57579243Y-52034284D01*
X57584225Y-52031961D01*
X57781762Y-51939849D01*
X57781767Y-51939846D01*
X57786749Y-51937523D01*
X57915409Y-51847434D01*
X57969789Y-51809357D01*
X57969792Y-51809355D01*
X57974300Y-51806198D01*
X58136198Y-51644300D01*
X58267523Y-51456749D01*
X58269846Y-51451767D01*
X58269849Y-51451762D01*
X58325974Y-51331400D01*
X58372891Y-51278115D01*
X58441168Y-51258654D01*
X58509128Y-51279196D01*
X58554364Y-51331400D01*
X58589411Y-51406558D01*
X58710699Y-51579776D01*
X58860224Y-51729301D01*
X59033442Y-51850589D01*
X59038420Y-51852910D01*
X59038423Y-51852912D01*
X59213102Y-51934366D01*
X59225090Y-51939956D01*
X59230398Y-51941378D01*
X59230400Y-51941379D01*
X59424030Y-51993262D01*
X59424032Y-51993262D01*
X59429345Y-51994686D01*
X59640000Y-52013116D01*
X59850655Y-51994686D01*
X59855968Y-51993262D01*
X59855970Y-51993262D01*
X60049600Y-51941379D01*
X60049602Y-51941378D01*
X60054910Y-51939956D01*
X60066898Y-51934366D01*
X60241577Y-51852912D01*
X60241580Y-51852910D01*
X60246558Y-51850589D01*
X60419776Y-51729301D01*
X60569301Y-51579776D01*
X60690589Y-51406558D01*
X60766423Y-51243933D01*
X60777633Y-51219892D01*
X60777634Y-51219891D01*
X60779956Y-51214910D01*
X60787338Y-51187362D01*
X60788293Y-51183796D01*
X60825245Y-51123173D01*
X60889106Y-51092152D01*
X60959600Y-51100580D01*
X61014347Y-51145783D01*
X61031707Y-51183796D01*
X61032663Y-51187362D01*
X61040044Y-51214910D01*
X61042366Y-51219891D01*
X61042367Y-51219892D01*
X61053578Y-51243933D01*
X61129411Y-51406558D01*
X61250699Y-51579776D01*
X61400224Y-51729301D01*
X61573442Y-51850589D01*
X61578420Y-51852910D01*
X61578423Y-51852912D01*
X61753102Y-51934366D01*
X61765090Y-51939956D01*
X61770398Y-51941378D01*
X61770400Y-51941379D01*
X61964030Y-51993262D01*
X61964032Y-51993262D01*
X61969345Y-51994686D01*
X62180000Y-52013116D01*
X62390655Y-51994686D01*
X62395968Y-51993262D01*
X62395970Y-51993262D01*
X62589600Y-51941379D01*
X62589602Y-51941378D01*
X62594910Y-51939956D01*
X62606898Y-51934366D01*
X62781577Y-51852912D01*
X62781580Y-51852910D01*
X62786558Y-51850589D01*
X62959776Y-51729301D01*
X63109301Y-51579776D01*
X63230589Y-51406558D01*
X63305845Y-51245171D01*
X63352761Y-51191887D01*
X63421038Y-51172426D01*
X63488998Y-51192968D01*
X63535064Y-51246990D01*
X63535207Y-51247342D01*
X63535716Y-51249243D01*
X63537698Y-51253493D01*
X63537699Y-51253496D01*
X63630151Y-51451762D01*
X63630154Y-51451767D01*
X63632477Y-51456749D01*
X63763802Y-51644300D01*
X63925700Y-51806198D01*
X63930208Y-51809355D01*
X63930211Y-51809357D01*
X63984591Y-51847434D01*
X64113251Y-51937523D01*
X64118233Y-51939846D01*
X64118238Y-51939849D01*
X64315775Y-52031961D01*
X64320757Y-52034284D01*
X64326065Y-52035706D01*
X64326067Y-52035707D01*
X64536598Y-52092119D01*
X64536600Y-52092119D01*
X64541913Y-52093543D01*
X64770000Y-52113498D01*
X64998087Y-52093543D01*
X65003400Y-52092119D01*
X65003402Y-52092119D01*
X65213933Y-52035707D01*
X65213935Y-52035706D01*
X65219243Y-52034284D01*
X65224225Y-52031961D01*
X65421762Y-51939849D01*
X65421767Y-51939846D01*
X65426749Y-51937523D01*
X65555409Y-51847434D01*
X65609789Y-51809357D01*
X65609792Y-51809355D01*
X65614300Y-51806198D01*
X65776198Y-51644300D01*
X65907523Y-51456749D01*
X65909846Y-51451767D01*
X65909849Y-51451762D01*
X66001961Y-51254225D01*
X66001961Y-51254224D01*
X66004284Y-51249243D01*
X66014907Y-51209600D01*
X66062119Y-51033402D01*
X66062119Y-51033400D01*
X66063543Y-51028087D01*
X66083498Y-50800000D01*
X66063543Y-50571913D01*
X66046377Y-50507848D01*
X66005707Y-50356067D01*
X66005706Y-50356065D01*
X66004284Y-50350757D01*
X65933250Y-50198423D01*
X65909849Y-50148238D01*
X65909846Y-50148233D01*
X65907523Y-50143251D01*
X65776198Y-49955700D01*
X65614300Y-49793802D01*
X65609792Y-49790645D01*
X65609789Y-49790643D01*
X65531611Y-49735902D01*
X65426749Y-49662477D01*
X65421767Y-49660154D01*
X65421762Y-49660151D01*
X65387543Y-49644195D01*
X65334258Y-49597278D01*
X65314797Y-49529001D01*
X65335339Y-49461041D01*
X65387543Y-49415805D01*
X65421762Y-49399849D01*
X65421767Y-49399846D01*
X65426749Y-49397523D01*
X65555409Y-49307434D01*
X65609789Y-49269357D01*
X65609792Y-49269355D01*
X65614300Y-49266198D01*
X65776198Y-49104300D01*
X65907523Y-48916749D01*
X65909846Y-48911767D01*
X65909849Y-48911762D01*
X66001961Y-48714225D01*
X66001961Y-48714224D01*
X66004284Y-48709243D01*
X66014907Y-48669600D01*
X66062119Y-48493402D01*
X66062119Y-48493400D01*
X66063543Y-48488087D01*
X66083498Y-48260000D01*
X66063543Y-48031913D01*
X66046377Y-47967848D01*
X66005707Y-47816067D01*
X66005706Y-47816065D01*
X66004284Y-47810757D01*
X65933250Y-47658423D01*
X65909849Y-47608238D01*
X65909846Y-47608233D01*
X65907523Y-47603251D01*
X65776198Y-47415700D01*
X65614300Y-47253802D01*
X65609792Y-47250645D01*
X65609789Y-47250643D01*
X65531611Y-47195902D01*
X65426749Y-47122477D01*
X65421767Y-47120154D01*
X65421762Y-47120151D01*
X65387543Y-47104195D01*
X65334258Y-47057278D01*
X65314797Y-46989001D01*
X65335339Y-46921041D01*
X65387543Y-46875805D01*
X65421762Y-46859849D01*
X65421767Y-46859846D01*
X65426749Y-46857523D01*
X65555409Y-46767434D01*
X65609789Y-46729357D01*
X65609792Y-46729355D01*
X65614300Y-46726198D01*
X65776198Y-46564300D01*
X65907523Y-46376749D01*
X65909846Y-46371767D01*
X65909849Y-46371762D01*
X66001961Y-46174225D01*
X66001961Y-46174224D01*
X66004284Y-46169243D01*
X66014907Y-46129600D01*
X66062119Y-45953402D01*
X66062119Y-45953400D01*
X66063543Y-45948087D01*
X66083498Y-45720000D01*
X66063543Y-45491913D01*
X66046377Y-45427848D01*
X66005707Y-45276067D01*
X66005706Y-45276065D01*
X66004284Y-45270757D01*
X65933250Y-45118423D01*
X65909849Y-45068238D01*
X65909846Y-45068233D01*
X65907523Y-45063251D01*
X65776198Y-44875700D01*
X65614300Y-44713802D01*
X65609792Y-44710645D01*
X65609789Y-44710643D01*
X65531611Y-44655902D01*
X65426749Y-44582477D01*
X65421767Y-44580154D01*
X65421762Y-44580151D01*
X65387543Y-44564195D01*
X65334258Y-44517278D01*
X65314797Y-44449001D01*
X65335339Y-44381041D01*
X65387543Y-44335805D01*
X65421762Y-44319849D01*
X65421767Y-44319846D01*
X65426749Y-44317523D01*
X65555409Y-44227434D01*
X65609789Y-44189357D01*
X65609792Y-44189355D01*
X65614300Y-44186198D01*
X65776198Y-44024300D01*
X65907523Y-43836749D01*
X65909846Y-43831767D01*
X65909849Y-43831762D01*
X66001961Y-43634225D01*
X66001961Y-43634224D01*
X66004284Y-43629243D01*
X66014907Y-43589600D01*
X66062119Y-43413402D01*
X66062119Y-43413400D01*
X66063543Y-43408087D01*
X66083498Y-43180000D01*
X66063543Y-42951913D01*
X66046377Y-42887848D01*
X66005707Y-42736067D01*
X66005706Y-42736065D01*
X66004284Y-42730757D01*
X65933250Y-42578423D01*
X65909849Y-42528238D01*
X65909846Y-42528233D01*
X65907523Y-42523251D01*
X65776198Y-42335700D01*
X65614300Y-42173802D01*
X65609789Y-42170643D01*
X65605576Y-42167108D01*
X65606527Y-42165974D01*
X65566529Y-42115929D01*
X65559224Y-42045310D01*
X65591258Y-41981951D01*
X65652462Y-41945970D01*
X65669517Y-41942918D01*
X65680316Y-41941745D01*
X65816705Y-41890615D01*
X65933261Y-41803261D01*
X66020615Y-41686705D01*
X66071745Y-41550316D01*
X66072598Y-41542464D01*
X66072599Y-41542460D01*
X66077176Y-41500321D01*
X66104418Y-41434759D01*
X66162780Y-41394332D01*
X66177752Y-41390370D01*
X66182338Y-41389454D01*
X66189637Y-41388860D01*
X66196603Y-41386603D01*
X66202560Y-41385413D01*
X66208415Y-41384029D01*
X66215681Y-41383182D01*
X66284327Y-41358265D01*
X66288455Y-41356848D01*
X66350936Y-41336607D01*
X66350938Y-41336606D01*
X66357899Y-41334351D01*
X66364154Y-41330555D01*
X66369628Y-41328049D01*
X66375058Y-41325330D01*
X66381937Y-41322833D01*
X66414846Y-41301257D01*
X66442976Y-41282814D01*
X66446680Y-41280477D01*
X66509107Y-41242595D01*
X66517484Y-41235197D01*
X66517508Y-41235224D01*
X66520499Y-41232572D01*
X66523733Y-41229868D01*
X66529852Y-41225856D01*
X66583111Y-41169635D01*
X66585488Y-41167193D01*
X68433907Y-39318773D01*
X68448319Y-39306387D01*
X68459917Y-39297851D01*
X68459919Y-39297850D01*
X68465818Y-39293508D01*
X68470557Y-39287930D01*
X68470560Y-39287927D01*
X68500041Y-39253225D01*
X68506971Y-39245709D01*
X68512660Y-39240020D01*
X68514918Y-39237166D01*
X68514927Y-39237156D01*
X68530274Y-39217758D01*
X68533062Y-39214358D01*
X68575595Y-39164293D01*
X68575598Y-39164289D01*
X68580333Y-39158715D01*
X68583660Y-39152200D01*
X68587019Y-39147163D01*
X68590192Y-39142025D01*
X68594734Y-39136284D01*
X68625655Y-39070125D01*
X68627561Y-39066225D01*
X68660769Y-39001192D01*
X68662508Y-38994083D01*
X68664604Y-38988449D01*
X68666523Y-38982679D01*
X68669622Y-38976050D01*
X68676140Y-38944717D01*
X68684490Y-38904571D01*
X68685461Y-38900282D01*
X68701473Y-38834844D01*
X68702808Y-38829390D01*
X68703500Y-38818236D01*
X68703535Y-38818238D01*
X68703775Y-38814266D01*
X68704152Y-38810045D01*
X68705641Y-38802885D01*
X68703546Y-38725458D01*
X68703500Y-38722050D01*
X68703500Y-22974500D01*
X68723502Y-22906379D01*
X68777158Y-22859886D01*
X68829500Y-22848500D01*
X71181523Y-22848500D01*
X71249644Y-22868502D01*
X71270618Y-22885405D01*
X72364595Y-23979382D01*
X72398621Y-24041694D01*
X72401500Y-24068477D01*
X72401500Y-24205126D01*
X72381498Y-24273247D01*
X72376339Y-24280673D01*
X72359385Y-24303295D01*
X72308255Y-24439684D01*
X72301500Y-24501866D01*
X72301500Y-24709624D01*
X72286545Y-24769164D01*
X72273169Y-24794109D01*
X72194138Y-25023631D01*
X72193276Y-25028623D01*
X72162942Y-25204243D01*
X72152821Y-25262836D01*
X72151500Y-25291925D01*
X72151500Y-28001001D01*
X72166060Y-28181965D01*
X72167266Y-28186873D01*
X72167266Y-28186876D01*
X72175368Y-28219861D01*
X72223963Y-28417706D01*
X72225938Y-28422358D01*
X72225939Y-28422362D01*
X72291484Y-28576776D01*
X72301500Y-28626008D01*
X72301500Y-28838134D01*
X72308255Y-28900316D01*
X72359385Y-29036705D01*
X72446739Y-29153261D01*
X72563295Y-29240615D01*
X72699684Y-29291745D01*
X72761866Y-29298500D01*
X72966207Y-29298500D01*
X73011361Y-29306869D01*
X73227978Y-29390020D01*
X73227982Y-29390021D01*
X73232702Y-29391833D01*
X73237652Y-29392867D01*
X73237655Y-29392868D01*
X73465369Y-29440440D01*
X73465373Y-29440440D01*
X73470320Y-29441474D01*
X73712817Y-29452486D01*
X73717837Y-29451905D01*
X73717841Y-29451905D01*
X73948929Y-29425167D01*
X73948933Y-29425166D01*
X73953956Y-29424585D01*
X73958820Y-29423209D01*
X73958823Y-29423208D01*
X74182669Y-29359866D01*
X74182668Y-29359866D01*
X74187532Y-29358490D01*
X74192109Y-29356356D01*
X74192119Y-29356352D01*
X74242251Y-29332975D01*
X74312442Y-29322314D01*
X74377255Y-29351294D01*
X74416111Y-29410714D01*
X74421500Y-29447170D01*
X74421500Y-38091377D01*
X74421498Y-38092147D01*
X74421024Y-38169721D01*
X74423491Y-38178352D01*
X74429150Y-38198153D01*
X74432728Y-38214915D01*
X74436920Y-38244187D01*
X74440634Y-38252355D01*
X74440634Y-38252356D01*
X74447548Y-38267562D01*
X74453996Y-38285086D01*
X74461051Y-38309771D01*
X74465843Y-38317365D01*
X74465844Y-38317368D01*
X74476830Y-38334780D01*
X74484969Y-38349863D01*
X74497208Y-38376782D01*
X74503069Y-38383584D01*
X74513970Y-38396235D01*
X74525073Y-38411239D01*
X74538776Y-38432958D01*
X74545501Y-38438897D01*
X74545504Y-38438901D01*
X74560938Y-38452532D01*
X74572982Y-38464724D01*
X74586427Y-38480327D01*
X74586430Y-38480329D01*
X74592287Y-38487127D01*
X74599816Y-38492007D01*
X74599817Y-38492008D01*
X74613835Y-38501094D01*
X74628709Y-38512385D01*
X74641217Y-38523431D01*
X74647951Y-38529378D01*
X74674711Y-38541942D01*
X74689691Y-38550263D01*
X74706983Y-38561471D01*
X74706988Y-38561473D01*
X74714515Y-38566352D01*
X74723108Y-38568922D01*
X74723113Y-38568924D01*
X74739120Y-38573711D01*
X74756564Y-38580372D01*
X74771676Y-38587467D01*
X74771678Y-38587468D01*
X74779800Y-38591281D01*
X74788667Y-38592662D01*
X74788668Y-38592662D01*
X74791353Y-38593080D01*
X74809017Y-38595830D01*
X74825732Y-38599613D01*
X74845466Y-38605515D01*
X74845472Y-38605516D01*
X74854066Y-38608086D01*
X74863037Y-38608141D01*
X74863038Y-38608141D01*
X74873097Y-38608202D01*
X74888506Y-38608296D01*
X74889289Y-38608329D01*
X74890386Y-38608500D01*
X74921377Y-38608500D01*
X74922147Y-38608502D01*
X74995785Y-38608952D01*
X74995786Y-38608952D01*
X74999721Y-38608976D01*
X75001065Y-38608592D01*
X75002410Y-38608500D01*
X75565500Y-38608500D01*
X75633621Y-38628502D01*
X75680114Y-38682158D01*
X75691500Y-38734500D01*
X75691500Y-77470500D01*
X75671498Y-77538621D01*
X75617842Y-77585114D01*
X75565500Y-77596500D01*
X74938623Y-77596500D01*
X74937853Y-77596498D01*
X74937037Y-77596493D01*
X74860279Y-77596024D01*
X74850185Y-77598909D01*
X74831847Y-77604150D01*
X74815085Y-77607728D01*
X74785813Y-77611920D01*
X74777645Y-77615634D01*
X74777644Y-77615634D01*
X74762438Y-77622548D01*
X74744914Y-77628996D01*
X74720229Y-77636051D01*
X74712635Y-77640843D01*
X74712632Y-77640844D01*
X74695220Y-77651830D01*
X74680137Y-77659969D01*
X74653218Y-77672208D01*
X74646416Y-77678069D01*
X74633765Y-77688970D01*
X74618761Y-77700073D01*
X74597042Y-77713776D01*
X74591103Y-77720501D01*
X74591099Y-77720504D01*
X74577468Y-77735938D01*
X74565276Y-77747982D01*
X74549673Y-77761427D01*
X74549671Y-77761430D01*
X74542873Y-77767287D01*
X74537993Y-77774816D01*
X74537992Y-77774817D01*
X74528906Y-77788835D01*
X74517615Y-77803709D01*
X74506569Y-77816217D01*
X74500622Y-77822951D01*
X74494312Y-77836391D01*
X74488058Y-77849711D01*
X74479737Y-77864691D01*
X74468529Y-77881983D01*
X74468527Y-77881988D01*
X74463648Y-77889515D01*
X74461078Y-77898108D01*
X74461076Y-77898113D01*
X74456289Y-77914120D01*
X74449628Y-77931564D01*
X74442533Y-77946676D01*
X74438719Y-77954800D01*
X74437338Y-77963667D01*
X74437338Y-77963668D01*
X74434170Y-77984015D01*
X74430387Y-78000732D01*
X74424485Y-78020466D01*
X74424484Y-78020472D01*
X74421914Y-78029066D01*
X74421859Y-78038037D01*
X74421859Y-78038038D01*
X74421704Y-78063497D01*
X74421671Y-78064289D01*
X74421500Y-78065386D01*
X74421500Y-78096377D01*
X74421498Y-78097147D01*
X74421024Y-78174721D01*
X74421408Y-78176065D01*
X74421500Y-78177410D01*
X74421500Y-81675104D01*
X74401498Y-81743225D01*
X74347842Y-81789718D01*
X74277568Y-81799822D01*
X74254478Y-81794239D01*
X74041158Y-81720787D01*
X74036369Y-81719138D01*
X73928464Y-81700500D01*
X73801074Y-81678496D01*
X73801068Y-81678495D01*
X73797164Y-81677821D01*
X73793203Y-81677641D01*
X73793202Y-81677641D01*
X73769494Y-81676564D01*
X73769475Y-81676564D01*
X73768075Y-81676500D01*
X65968999Y-81676500D01*
X65966491Y-81676702D01*
X65966486Y-81676702D01*
X65793076Y-81690654D01*
X65793071Y-81690655D01*
X65788035Y-81691060D01*
X65783127Y-81692266D01*
X65783124Y-81692266D01*
X65667007Y-81720787D01*
X65552294Y-81748963D01*
X65547642Y-81750938D01*
X65547638Y-81750939D01*
X65393224Y-81816484D01*
X65343992Y-81826500D01*
X65131866Y-81826500D01*
X65069684Y-81833255D01*
X64933295Y-81884385D01*
X64816739Y-81971739D01*
X64729385Y-82088295D01*
X64726233Y-82096703D01*
X64684919Y-82206907D01*
X64642277Y-82263671D01*
X64575716Y-82288371D01*
X64506367Y-82273163D01*
X64473743Y-82247476D01*
X64423151Y-82191875D01*
X64423142Y-82191866D01*
X64419670Y-82188051D01*
X64415619Y-82184852D01*
X64415615Y-82184848D01*
X64248414Y-82052800D01*
X64248410Y-82052798D01*
X64244359Y-82049598D01*
X64048789Y-81941638D01*
X64043920Y-81939914D01*
X64043916Y-81939912D01*
X63843087Y-81868795D01*
X63843083Y-81868794D01*
X63838212Y-81867069D01*
X63833119Y-81866162D01*
X63833116Y-81866161D01*
X63623373Y-81828800D01*
X63623367Y-81828799D01*
X63618284Y-81827894D01*
X63544452Y-81826992D01*
X63400081Y-81825228D01*
X63400079Y-81825228D01*
X63394911Y-81825165D01*
X63174091Y-81858955D01*
X62961756Y-81928357D01*
X62763607Y-82031507D01*
X62759474Y-82034610D01*
X62759471Y-82034612D01*
X62589100Y-82162530D01*
X62584965Y-82165635D01*
X62545525Y-82206907D01*
X62491280Y-82263671D01*
X62430629Y-82327138D01*
X62323201Y-82484621D01*
X62268293Y-82529621D01*
X62197768Y-82537792D01*
X62134021Y-82506538D01*
X62113324Y-82482054D01*
X62032822Y-82357617D01*
X62032820Y-82357614D01*
X62030014Y-82353277D01*
X61879670Y-82188051D01*
X61875619Y-82184852D01*
X61875615Y-82184848D01*
X61708414Y-82052800D01*
X61708410Y-82052798D01*
X61704359Y-82049598D01*
X61508789Y-81941638D01*
X61503920Y-81939914D01*
X61503916Y-81939912D01*
X61303087Y-81868795D01*
X61303083Y-81868794D01*
X61298212Y-81867069D01*
X61293119Y-81866162D01*
X61293116Y-81866161D01*
X61083373Y-81828800D01*
X61083367Y-81828799D01*
X61078284Y-81827894D01*
X61004452Y-81826992D01*
X60860081Y-81825228D01*
X60860079Y-81825228D01*
X60854911Y-81825165D01*
X60634091Y-81858955D01*
X60421756Y-81928357D01*
X60223607Y-82031507D01*
X60219474Y-82034610D01*
X60219471Y-82034612D01*
X60049100Y-82162530D01*
X60044965Y-82165635D01*
X60005525Y-82206907D01*
X59951280Y-82263671D01*
X59890629Y-82327138D01*
X59764743Y-82511680D01*
X59670688Y-82714305D01*
X59610989Y-82929570D01*
X59587251Y-83151695D01*
X59600110Y-83374715D01*
X59601247Y-83379761D01*
X59601248Y-83379767D01*
X59625304Y-83486508D01*
X59649222Y-83592639D01*
X59733266Y-83799616D01*
X59770685Y-83860678D01*
X59847291Y-83985688D01*
X59849987Y-83990088D01*
X59996250Y-84158938D01*
X60168126Y-84301632D01*
X60172583Y-84304236D01*
X60172588Y-84304240D01*
X60191072Y-84315041D01*
X60239796Y-84366679D01*
X60253210Y-84432398D01*
X60249849Y-84481694D01*
X60251154Y-84489171D01*
X60251154Y-84489172D01*
X60260631Y-84543471D01*
X60261593Y-84549993D01*
X60269126Y-84612239D01*
X60271811Y-84619346D01*
X60272726Y-84623069D01*
X60276395Y-84636484D01*
X60277507Y-84640168D01*
X60278812Y-84647643D01*
X60281863Y-84654593D01*
X60281864Y-84654597D01*
X60304013Y-84705053D01*
X60306501Y-84711149D01*
X60316572Y-84737801D01*
X60323935Y-84757285D01*
X60328672Y-84769822D01*
X60332971Y-84776078D01*
X60334749Y-84779478D01*
X60341494Y-84791596D01*
X60343469Y-84794936D01*
X60346524Y-84801895D01*
X60368307Y-84830283D01*
X60384692Y-84851637D01*
X60388563Y-84856964D01*
X60424088Y-84908654D01*
X60469763Y-84949349D01*
X60475019Y-84954312D01*
X60847095Y-85326388D01*
X60881121Y-85388700D01*
X60884000Y-85415483D01*
X60884000Y-85693411D01*
X60863998Y-85761532D01*
X60831433Y-85791900D01*
X60833295Y-85794385D01*
X60716739Y-85881739D01*
X60629385Y-85998295D01*
X60578255Y-86134684D01*
X60571500Y-86196866D01*
X60571500Y-87793134D01*
X60578255Y-87855316D01*
X60629385Y-87991705D01*
X60716739Y-88108261D01*
X60833295Y-88195615D01*
X60969684Y-88246745D01*
X61031866Y-88253500D01*
X62128134Y-88253500D01*
X62190316Y-88246745D01*
X62197715Y-88243971D01*
X62200854Y-88243225D01*
X62259146Y-88243225D01*
X62262285Y-88243971D01*
X62269684Y-88246745D01*
X62331866Y-88253500D01*
X63428134Y-88253500D01*
X63490316Y-88246745D01*
X63626705Y-88195615D01*
X63743261Y-88108261D01*
X63830615Y-87991705D01*
X63881745Y-87855316D01*
X63888500Y-87793134D01*
X63888500Y-87182000D01*
X63908502Y-87113879D01*
X63962158Y-87067386D01*
X64014500Y-87056000D01*
X71726519Y-87056000D01*
X71735089Y-87056292D01*
X71784118Y-87059635D01*
X71784122Y-87059635D01*
X71791694Y-87060151D01*
X71799171Y-87058846D01*
X71799172Y-87058846D01*
X71826619Y-87054055D01*
X71853476Y-87049368D01*
X71859993Y-87048407D01*
X71873902Y-87046723D01*
X71914697Y-87041787D01*
X71914700Y-87041786D01*
X71922239Y-87040874D01*
X71929346Y-87038189D01*
X71933069Y-87037274D01*
X71946484Y-87033605D01*
X71950168Y-87032493D01*
X71957643Y-87031188D01*
X71964593Y-87028137D01*
X71964597Y-87028136D01*
X72015053Y-87005987D01*
X72021149Y-87003499D01*
X72054861Y-86990760D01*
X72072720Y-86984012D01*
X72072722Y-86984011D01*
X72079822Y-86981328D01*
X72086078Y-86977029D01*
X72089478Y-86975251D01*
X72101596Y-86968506D01*
X72104936Y-86966531D01*
X72111895Y-86963476D01*
X72161646Y-86925302D01*
X72166964Y-86921437D01*
X72218654Y-86885912D01*
X72223708Y-86880240D01*
X72229404Y-86875218D01*
X72231651Y-86877766D01*
X72279018Y-86848262D01*
X72350008Y-86849266D01*
X72413629Y-86894083D01*
X72446739Y-86938261D01*
X72563295Y-87025615D01*
X72699684Y-87076745D01*
X72761866Y-87083500D01*
X74295500Y-87083500D01*
X74363621Y-87103502D01*
X74410114Y-87157158D01*
X74421500Y-87209500D01*
X74421500Y-93336377D01*
X74421498Y-93337147D01*
X74421024Y-93414721D01*
X74423491Y-93423352D01*
X74429150Y-93443153D01*
X74432728Y-93459915D01*
X74436920Y-93489187D01*
X74440634Y-93497355D01*
X74440634Y-93497356D01*
X74447548Y-93512562D01*
X74453996Y-93530086D01*
X74461051Y-93554771D01*
X74465843Y-93562365D01*
X74465844Y-93562368D01*
X74476830Y-93579780D01*
X74484969Y-93594863D01*
X74497208Y-93621782D01*
X74503069Y-93628584D01*
X74513970Y-93641235D01*
X74525073Y-93656239D01*
X74538776Y-93677958D01*
X74545501Y-93683897D01*
X74545504Y-93683901D01*
X74560938Y-93697532D01*
X74572982Y-93709724D01*
X74586427Y-93725327D01*
X74586430Y-93725329D01*
X74592287Y-93732127D01*
X74599816Y-93737007D01*
X74599817Y-93737008D01*
X74613835Y-93746094D01*
X74628709Y-93757385D01*
X74641217Y-93768431D01*
X74647951Y-93774378D01*
X74674711Y-93786942D01*
X74689691Y-93795263D01*
X74706983Y-93806471D01*
X74706988Y-93806473D01*
X74714515Y-93811352D01*
X74723108Y-93813922D01*
X74723113Y-93813924D01*
X74739120Y-93818711D01*
X74756564Y-93825372D01*
X74771676Y-93832467D01*
X74771678Y-93832468D01*
X74779800Y-93836281D01*
X74788667Y-93837662D01*
X74788668Y-93837662D01*
X74791353Y-93838080D01*
X74809017Y-93840830D01*
X74825732Y-93844613D01*
X74845466Y-93850515D01*
X74845472Y-93850516D01*
X74854066Y-93853086D01*
X74863037Y-93853141D01*
X74863038Y-93853141D01*
X74873097Y-93853202D01*
X74888506Y-93853296D01*
X74889289Y-93853329D01*
X74890386Y-93853500D01*
X74921377Y-93853500D01*
X74922147Y-93853502D01*
X74995785Y-93853952D01*
X74995786Y-93853952D01*
X74999721Y-93853976D01*
X75001065Y-93853592D01*
X75002410Y-93853500D01*
X75565500Y-93853500D01*
X75633621Y-93873502D01*
X75680114Y-93927158D01*
X75691500Y-93979500D01*
X75691500Y-117847183D01*
X75671498Y-117915304D01*
X75654595Y-117936278D01*
X74121278Y-119469595D01*
X74058966Y-119503621D01*
X74032183Y-119506500D01*
X22487817Y-119506500D01*
X22419696Y-119486498D01*
X22398722Y-119469595D01*
X20865405Y-117936278D01*
X20831379Y-117873966D01*
X20828500Y-117847183D01*
X20828500Y-109133757D01*
X28371500Y-109133757D01*
X28371712Y-109136330D01*
X28371712Y-109136341D01*
X28385478Y-109303779D01*
X28385479Y-109303785D01*
X28385902Y-109308930D01*
X28443327Y-109537551D01*
X28537322Y-109753723D01*
X28665360Y-109951641D01*
X28668839Y-109955464D01*
X28668841Y-109955467D01*
X28693858Y-109982960D01*
X28824005Y-110125989D01*
X28828056Y-110129188D01*
X28828060Y-110129192D01*
X29004939Y-110268883D01*
X29004943Y-110268885D01*
X29008994Y-110272085D01*
X29215361Y-110386005D01*
X29220230Y-110387729D01*
X29220234Y-110387731D01*
X29432689Y-110462965D01*
X29432693Y-110462966D01*
X29437564Y-110464691D01*
X29442657Y-110465598D01*
X29442660Y-110465599D01*
X29664544Y-110505123D01*
X29664550Y-110505124D01*
X29669633Y-110506029D01*
X29760477Y-110507139D01*
X29900170Y-110508846D01*
X29900172Y-110508846D01*
X29905339Y-110508909D01*
X30138349Y-110473253D01*
X30362407Y-110400020D01*
X30571496Y-110291175D01*
X30575629Y-110288072D01*
X30575632Y-110288070D01*
X30755865Y-110152747D01*
X30755868Y-110152745D01*
X30760000Y-110149642D01*
X30922857Y-109979223D01*
X31055693Y-109784492D01*
X31057869Y-109779805D01*
X31152764Y-109575372D01*
X31152766Y-109575367D01*
X31154941Y-109570681D01*
X31217935Y-109343532D01*
X31238500Y-109151102D01*
X31238500Y-109133757D01*
X42341500Y-109133757D01*
X42341712Y-109136330D01*
X42341712Y-109136341D01*
X42355478Y-109303779D01*
X42355479Y-109303785D01*
X42355902Y-109308930D01*
X42413327Y-109537551D01*
X42507322Y-109753723D01*
X42635360Y-109951641D01*
X42638839Y-109955464D01*
X42638841Y-109955467D01*
X42663858Y-109982960D01*
X42794005Y-110125989D01*
X42798056Y-110129188D01*
X42798060Y-110129192D01*
X42974939Y-110268883D01*
X42974943Y-110268885D01*
X42978994Y-110272085D01*
X43185361Y-110386005D01*
X43190230Y-110387729D01*
X43190234Y-110387731D01*
X43402689Y-110462965D01*
X43402693Y-110462966D01*
X43407564Y-110464691D01*
X43412657Y-110465598D01*
X43412660Y-110465599D01*
X43634544Y-110505123D01*
X43634550Y-110505124D01*
X43639633Y-110506029D01*
X43730477Y-110507139D01*
X43870170Y-110508846D01*
X43870172Y-110508846D01*
X43875339Y-110508909D01*
X44108349Y-110473253D01*
X44332407Y-110400020D01*
X44541496Y-110291175D01*
X44545629Y-110288072D01*
X44545632Y-110288070D01*
X44725865Y-110152747D01*
X44725868Y-110152745D01*
X44730000Y-110149642D01*
X44892857Y-109979223D01*
X45025693Y-109784492D01*
X45027869Y-109779805D01*
X45122764Y-109575372D01*
X45122766Y-109575367D01*
X45124941Y-109570681D01*
X45187935Y-109343532D01*
X45208500Y-109151102D01*
X45208500Y-109133757D01*
X51351500Y-109133757D01*
X51351712Y-109136330D01*
X51351712Y-109136341D01*
X51365478Y-109303779D01*
X51365479Y-109303785D01*
X51365902Y-109308930D01*
X51423327Y-109537551D01*
X51517322Y-109753723D01*
X51645360Y-109951641D01*
X51648839Y-109955464D01*
X51648841Y-109955467D01*
X51673858Y-109982960D01*
X51804005Y-110125989D01*
X51808056Y-110129188D01*
X51808060Y-110129192D01*
X51984939Y-110268883D01*
X51984943Y-110268885D01*
X51988994Y-110272085D01*
X52195361Y-110386005D01*
X52200230Y-110387729D01*
X52200234Y-110387731D01*
X52412689Y-110462965D01*
X52412693Y-110462966D01*
X52417564Y-110464691D01*
X52422657Y-110465598D01*
X52422660Y-110465599D01*
X52644544Y-110505123D01*
X52644550Y-110505124D01*
X52649633Y-110506029D01*
X52740477Y-110507139D01*
X52880170Y-110508846D01*
X52880172Y-110508846D01*
X52885339Y-110508909D01*
X53118349Y-110473253D01*
X53342407Y-110400020D01*
X53551496Y-110291175D01*
X53555629Y-110288072D01*
X53555632Y-110288070D01*
X53735865Y-110152747D01*
X53735868Y-110152745D01*
X53740000Y-110149642D01*
X53902857Y-109979223D01*
X54035693Y-109784492D01*
X54037869Y-109779805D01*
X54132764Y-109575372D01*
X54132766Y-109575367D01*
X54134941Y-109570681D01*
X54197935Y-109343532D01*
X54218500Y-109151102D01*
X54218500Y-109133757D01*
X65321500Y-109133757D01*
X65321712Y-109136330D01*
X65321712Y-109136341D01*
X65335478Y-109303779D01*
X65335479Y-109303785D01*
X65335902Y-109308930D01*
X65393327Y-109537551D01*
X65487322Y-109753723D01*
X65615360Y-109951641D01*
X65618839Y-109955464D01*
X65618841Y-109955467D01*
X65643858Y-109982960D01*
X65774005Y-110125989D01*
X65778056Y-110129188D01*
X65778060Y-110129192D01*
X65954939Y-110268883D01*
X65954943Y-110268885D01*
X65958994Y-110272085D01*
X66165361Y-110386005D01*
X66170230Y-110387729D01*
X66170234Y-110387731D01*
X66382689Y-110462965D01*
X66382693Y-110462966D01*
X66387564Y-110464691D01*
X66392657Y-110465598D01*
X66392660Y-110465599D01*
X66614544Y-110505123D01*
X66614550Y-110505124D01*
X66619633Y-110506029D01*
X66710477Y-110507139D01*
X66850170Y-110508846D01*
X66850172Y-110508846D01*
X66855339Y-110508909D01*
X67088349Y-110473253D01*
X67312407Y-110400020D01*
X67521496Y-110291175D01*
X67525629Y-110288072D01*
X67525632Y-110288070D01*
X67705865Y-110152747D01*
X67705868Y-110152745D01*
X67710000Y-110149642D01*
X67872857Y-109979223D01*
X68005693Y-109784492D01*
X68007869Y-109779805D01*
X68102764Y-109575372D01*
X68102766Y-109575367D01*
X68104941Y-109570681D01*
X68167935Y-109343532D01*
X68188500Y-109151102D01*
X68188500Y-107816243D01*
X68186800Y-107795563D01*
X68174522Y-107646221D01*
X68174521Y-107646215D01*
X68174098Y-107641070D01*
X68116673Y-107412449D01*
X68022678Y-107196277D01*
X67894640Y-106998359D01*
X67869543Y-106970777D01*
X67739473Y-106827833D01*
X67739471Y-106827832D01*
X67735995Y-106824011D01*
X67731944Y-106820812D01*
X67731940Y-106820808D01*
X67555061Y-106681117D01*
X67555057Y-106681115D01*
X67551006Y-106677915D01*
X67344639Y-106563995D01*
X67339770Y-106562271D01*
X67339766Y-106562269D01*
X67127311Y-106487035D01*
X67127307Y-106487034D01*
X67122436Y-106485309D01*
X67117343Y-106484402D01*
X67117340Y-106484401D01*
X66895456Y-106444877D01*
X66895450Y-106444876D01*
X66890367Y-106443971D01*
X66799523Y-106442861D01*
X66659830Y-106441154D01*
X66659828Y-106441154D01*
X66654661Y-106441091D01*
X66421651Y-106476747D01*
X66197593Y-106549980D01*
X65988504Y-106658825D01*
X65984371Y-106661928D01*
X65984368Y-106661930D01*
X65804135Y-106797253D01*
X65800000Y-106800358D01*
X65637143Y-106970777D01*
X65504307Y-107165508D01*
X65502133Y-107170192D01*
X65502131Y-107170195D01*
X65487820Y-107201027D01*
X65405059Y-107379319D01*
X65342065Y-107606468D01*
X65321500Y-107798898D01*
X65321500Y-109133757D01*
X54218500Y-109133757D01*
X54218500Y-107816243D01*
X54216800Y-107795563D01*
X54204522Y-107646221D01*
X54204521Y-107646215D01*
X54204098Y-107641070D01*
X54146673Y-107412449D01*
X54052678Y-107196277D01*
X53924640Y-106998359D01*
X53899543Y-106970777D01*
X53769473Y-106827833D01*
X53769471Y-106827832D01*
X53765995Y-106824011D01*
X53761944Y-106820812D01*
X53761940Y-106820808D01*
X53585061Y-106681117D01*
X53585057Y-106681115D01*
X53581006Y-106677915D01*
X53374639Y-106563995D01*
X53369770Y-106562271D01*
X53369766Y-106562269D01*
X53157311Y-106487035D01*
X53157307Y-106487034D01*
X53152436Y-106485309D01*
X53147343Y-106484402D01*
X53147340Y-106484401D01*
X52925456Y-106444877D01*
X52925450Y-106444876D01*
X52920367Y-106443971D01*
X52829523Y-106442861D01*
X52689830Y-106441154D01*
X52689828Y-106441154D01*
X52684661Y-106441091D01*
X52451651Y-106476747D01*
X52227593Y-106549980D01*
X52018504Y-106658825D01*
X52014371Y-106661928D01*
X52014368Y-106661930D01*
X51834135Y-106797253D01*
X51830000Y-106800358D01*
X51667143Y-106970777D01*
X51534307Y-107165508D01*
X51532133Y-107170192D01*
X51532131Y-107170195D01*
X51517820Y-107201027D01*
X51435059Y-107379319D01*
X51372065Y-107606468D01*
X51351500Y-107798898D01*
X51351500Y-109133757D01*
X45208500Y-109133757D01*
X45208500Y-107816243D01*
X45206800Y-107795563D01*
X45194522Y-107646221D01*
X45194521Y-107646215D01*
X45194098Y-107641070D01*
X45136673Y-107412449D01*
X45042678Y-107196277D01*
X44914640Y-106998359D01*
X44889543Y-106970777D01*
X44759473Y-106827833D01*
X44759471Y-106827832D01*
X44755995Y-106824011D01*
X44751944Y-106820812D01*
X44751940Y-106820808D01*
X44575061Y-106681117D01*
X44575057Y-106681115D01*
X44571006Y-106677915D01*
X44364639Y-106563995D01*
X44359770Y-106562271D01*
X44359766Y-106562269D01*
X44147311Y-106487035D01*
X44147307Y-106487034D01*
X44142436Y-106485309D01*
X44137343Y-106484402D01*
X44137340Y-106484401D01*
X43915456Y-106444877D01*
X43915450Y-106444876D01*
X43910367Y-106443971D01*
X43819523Y-106442861D01*
X43679830Y-106441154D01*
X43679828Y-106441154D01*
X43674661Y-106441091D01*
X43441651Y-106476747D01*
X43217593Y-106549980D01*
X43008504Y-106658825D01*
X43004371Y-106661928D01*
X43004368Y-106661930D01*
X42824135Y-106797253D01*
X42820000Y-106800358D01*
X42657143Y-106970777D01*
X42524307Y-107165508D01*
X42522133Y-107170192D01*
X42522131Y-107170195D01*
X42507820Y-107201027D01*
X42425059Y-107379319D01*
X42362065Y-107606468D01*
X42341500Y-107798898D01*
X42341500Y-109133757D01*
X31238500Y-109133757D01*
X31238500Y-107816243D01*
X31236800Y-107795563D01*
X31224522Y-107646221D01*
X31224521Y-107646215D01*
X31224098Y-107641070D01*
X31166673Y-107412449D01*
X31072678Y-107196277D01*
X30944640Y-106998359D01*
X30919543Y-106970777D01*
X30789473Y-106827833D01*
X30789471Y-106827832D01*
X30785995Y-106824011D01*
X30781944Y-106820812D01*
X30781940Y-106820808D01*
X30605061Y-106681117D01*
X30605057Y-106681115D01*
X30601006Y-106677915D01*
X30394639Y-106563995D01*
X30389770Y-106562271D01*
X30389766Y-106562269D01*
X30177311Y-106487035D01*
X30177307Y-106487034D01*
X30172436Y-106485309D01*
X30167343Y-106484402D01*
X30167340Y-106484401D01*
X29945456Y-106444877D01*
X29945450Y-106444876D01*
X29940367Y-106443971D01*
X29849523Y-106442861D01*
X29709830Y-106441154D01*
X29709828Y-106441154D01*
X29704661Y-106441091D01*
X29471651Y-106476747D01*
X29247593Y-106549980D01*
X29038504Y-106658825D01*
X29034371Y-106661928D01*
X29034368Y-106661930D01*
X28854135Y-106797253D01*
X28850000Y-106800358D01*
X28687143Y-106970777D01*
X28554307Y-107165508D01*
X28552133Y-107170192D01*
X28552131Y-107170195D01*
X28537820Y-107201027D01*
X28455059Y-107379319D01*
X28392065Y-107606468D01*
X28371500Y-107798898D01*
X28371500Y-109133757D01*
X20828500Y-109133757D01*
X20828500Y-93979500D01*
X20848502Y-93911379D01*
X20902158Y-93864886D01*
X20954500Y-93853500D01*
X29110109Y-93853500D01*
X29178230Y-93873502D01*
X29224723Y-93927158D01*
X29234827Y-93997432D01*
X29205333Y-94062012D01*
X29168289Y-94091263D01*
X29038504Y-94158825D01*
X29034371Y-94161928D01*
X29034368Y-94161930D01*
X28854135Y-94297253D01*
X28850000Y-94300358D01*
X28687143Y-94470777D01*
X28554307Y-94665508D01*
X28552133Y-94670192D01*
X28552131Y-94670195D01*
X28537820Y-94701027D01*
X28455059Y-94879319D01*
X28392065Y-95106468D01*
X28371500Y-95298898D01*
X28371500Y-96633757D01*
X28371712Y-96636330D01*
X28371712Y-96636341D01*
X28385478Y-96803779D01*
X28385479Y-96803785D01*
X28385902Y-96808930D01*
X28443327Y-97037551D01*
X28537322Y-97253723D01*
X28665360Y-97451641D01*
X28668839Y-97455464D01*
X28668841Y-97455467D01*
X28693858Y-97482960D01*
X28824005Y-97625989D01*
X28828056Y-97629188D01*
X28828060Y-97629192D01*
X29004939Y-97768883D01*
X29004943Y-97768885D01*
X29008994Y-97772085D01*
X29215361Y-97886005D01*
X29220230Y-97887729D01*
X29220234Y-97887731D01*
X29432689Y-97962965D01*
X29432693Y-97962966D01*
X29437564Y-97964691D01*
X29442657Y-97965598D01*
X29442660Y-97965599D01*
X29664544Y-98005123D01*
X29664550Y-98005124D01*
X29669633Y-98006029D01*
X29760477Y-98007139D01*
X29900170Y-98008846D01*
X29900172Y-98008846D01*
X29905339Y-98008909D01*
X30138349Y-97973253D01*
X30362407Y-97900020D01*
X30571496Y-97791175D01*
X30575629Y-97788072D01*
X30575632Y-97788070D01*
X30755865Y-97652747D01*
X30755868Y-97652745D01*
X30760000Y-97649642D01*
X30922857Y-97479223D01*
X31055693Y-97284492D01*
X31057869Y-97279805D01*
X31152764Y-97075372D01*
X31152766Y-97075367D01*
X31154941Y-97070681D01*
X31217935Y-96843532D01*
X31238500Y-96651102D01*
X31238500Y-96633757D01*
X42341500Y-96633757D01*
X42341712Y-96636330D01*
X42341712Y-96636341D01*
X42355478Y-96803779D01*
X42355479Y-96803785D01*
X42355902Y-96808930D01*
X42413327Y-97037551D01*
X42507322Y-97253723D01*
X42635360Y-97451641D01*
X42638839Y-97455464D01*
X42638841Y-97455467D01*
X42663858Y-97482960D01*
X42794005Y-97625989D01*
X42798056Y-97629188D01*
X42798060Y-97629192D01*
X42974939Y-97768883D01*
X42974943Y-97768885D01*
X42978994Y-97772085D01*
X43185361Y-97886005D01*
X43190230Y-97887729D01*
X43190234Y-97887731D01*
X43402689Y-97962965D01*
X43402693Y-97962966D01*
X43407564Y-97964691D01*
X43412657Y-97965598D01*
X43412660Y-97965599D01*
X43634544Y-98005123D01*
X43634550Y-98005124D01*
X43639633Y-98006029D01*
X43730477Y-98007139D01*
X43870170Y-98008846D01*
X43870172Y-98008846D01*
X43875339Y-98008909D01*
X44108349Y-97973253D01*
X44332407Y-97900020D01*
X44541496Y-97791175D01*
X44545629Y-97788072D01*
X44545632Y-97788070D01*
X44725865Y-97652747D01*
X44725868Y-97652745D01*
X44730000Y-97649642D01*
X44892857Y-97479223D01*
X45025693Y-97284492D01*
X45027869Y-97279805D01*
X45122764Y-97075372D01*
X45122766Y-97075367D01*
X45124941Y-97070681D01*
X45187935Y-96843532D01*
X45208500Y-96651102D01*
X45208500Y-96633757D01*
X51351500Y-96633757D01*
X51351712Y-96636330D01*
X51351712Y-96636341D01*
X51365478Y-96803779D01*
X51365479Y-96803785D01*
X51365902Y-96808930D01*
X51423327Y-97037551D01*
X51517322Y-97253723D01*
X51645360Y-97451641D01*
X51648839Y-97455464D01*
X51648841Y-97455467D01*
X51673858Y-97482960D01*
X51804005Y-97625989D01*
X51808056Y-97629188D01*
X51808060Y-97629192D01*
X51984939Y-97768883D01*
X51984943Y-97768885D01*
X51988994Y-97772085D01*
X52195361Y-97886005D01*
X52200230Y-97887729D01*
X52200234Y-97887731D01*
X52412689Y-97962965D01*
X52412693Y-97962966D01*
X52417564Y-97964691D01*
X52422657Y-97965598D01*
X52422660Y-97965599D01*
X52644544Y-98005123D01*
X52644550Y-98005124D01*
X52649633Y-98006029D01*
X52740477Y-98007139D01*
X52880170Y-98008846D01*
X52880172Y-98008846D01*
X52885339Y-98008909D01*
X53118349Y-97973253D01*
X53342407Y-97900020D01*
X53551496Y-97791175D01*
X53555629Y-97788072D01*
X53555632Y-97788070D01*
X53735865Y-97652747D01*
X53735868Y-97652745D01*
X53740000Y-97649642D01*
X53902857Y-97479223D01*
X54035693Y-97284492D01*
X54037869Y-97279805D01*
X54132764Y-97075372D01*
X54132766Y-97075367D01*
X54134941Y-97070681D01*
X54197935Y-96843532D01*
X54218500Y-96651102D01*
X54218500Y-96633757D01*
X65321500Y-96633757D01*
X65321712Y-96636330D01*
X65321712Y-96636341D01*
X65335478Y-96803779D01*
X65335479Y-96803785D01*
X65335902Y-96808930D01*
X65393327Y-97037551D01*
X65487322Y-97253723D01*
X65615360Y-97451641D01*
X65618839Y-97455464D01*
X65618841Y-97455467D01*
X65643858Y-97482960D01*
X65774005Y-97625989D01*
X65778056Y-97629188D01*
X65778060Y-97629192D01*
X65954939Y-97768883D01*
X65954943Y-97768885D01*
X65958994Y-97772085D01*
X66165361Y-97886005D01*
X66170230Y-97887729D01*
X66170234Y-97887731D01*
X66382689Y-97962965D01*
X66382693Y-97962966D01*
X66387564Y-97964691D01*
X66392657Y-97965598D01*
X66392660Y-97965599D01*
X66614544Y-98005123D01*
X66614550Y-98005124D01*
X66619633Y-98006029D01*
X66710477Y-98007139D01*
X66850170Y-98008846D01*
X66850172Y-98008846D01*
X66855339Y-98008909D01*
X67088349Y-97973253D01*
X67312407Y-97900020D01*
X67521496Y-97791175D01*
X67525629Y-97788072D01*
X67525632Y-97788070D01*
X67705865Y-97652747D01*
X67705868Y-97652745D01*
X67710000Y-97649642D01*
X67872857Y-97479223D01*
X68005693Y-97284492D01*
X68007869Y-97279805D01*
X68102764Y-97075372D01*
X68102766Y-97075367D01*
X68104941Y-97070681D01*
X68167935Y-96843532D01*
X68188500Y-96651102D01*
X68188500Y-95316243D01*
X68186800Y-95295563D01*
X68174522Y-95146221D01*
X68174521Y-95146215D01*
X68174098Y-95141070D01*
X68116673Y-94912449D01*
X68022678Y-94696277D01*
X67894640Y-94498359D01*
X67869543Y-94470777D01*
X67739473Y-94327833D01*
X67739471Y-94327832D01*
X67735995Y-94324011D01*
X67731944Y-94320812D01*
X67731940Y-94320808D01*
X67555061Y-94181117D01*
X67555057Y-94181115D01*
X67551006Y-94177915D01*
X67344639Y-94063995D01*
X67339770Y-94062271D01*
X67339766Y-94062269D01*
X67127311Y-93987035D01*
X67127307Y-93987034D01*
X67122436Y-93985309D01*
X67117343Y-93984402D01*
X67117340Y-93984401D01*
X66895456Y-93944877D01*
X66895450Y-93944876D01*
X66890367Y-93943971D01*
X66799523Y-93942861D01*
X66659830Y-93941154D01*
X66659828Y-93941154D01*
X66654661Y-93941091D01*
X66421651Y-93976747D01*
X66197593Y-94049980D01*
X65988504Y-94158825D01*
X65984371Y-94161928D01*
X65984368Y-94161930D01*
X65804135Y-94297253D01*
X65800000Y-94300358D01*
X65637143Y-94470777D01*
X65504307Y-94665508D01*
X65502133Y-94670192D01*
X65502131Y-94670195D01*
X65487820Y-94701027D01*
X65405059Y-94879319D01*
X65342065Y-95106468D01*
X65321500Y-95298898D01*
X65321500Y-96633757D01*
X54218500Y-96633757D01*
X54218500Y-95316243D01*
X54216800Y-95295563D01*
X54204522Y-95146221D01*
X54204521Y-95146215D01*
X54204098Y-95141070D01*
X54146673Y-94912449D01*
X54052678Y-94696277D01*
X53924640Y-94498359D01*
X53899543Y-94470777D01*
X53769473Y-94327833D01*
X53769471Y-94327832D01*
X53765995Y-94324011D01*
X53761944Y-94320812D01*
X53761940Y-94320808D01*
X53585061Y-94181117D01*
X53585057Y-94181115D01*
X53581006Y-94177915D01*
X53374639Y-94063995D01*
X53369770Y-94062271D01*
X53369766Y-94062269D01*
X53157311Y-93987035D01*
X53157307Y-93987034D01*
X53152436Y-93985309D01*
X53147343Y-93984402D01*
X53147340Y-93984401D01*
X52925456Y-93944877D01*
X52925450Y-93944876D01*
X52920367Y-93943971D01*
X52829523Y-93942861D01*
X52689830Y-93941154D01*
X52689828Y-93941154D01*
X52684661Y-93941091D01*
X52451651Y-93976747D01*
X52227593Y-94049980D01*
X52018504Y-94158825D01*
X52014371Y-94161928D01*
X52014368Y-94161930D01*
X51834135Y-94297253D01*
X51830000Y-94300358D01*
X51667143Y-94470777D01*
X51534307Y-94665508D01*
X51532133Y-94670192D01*
X51532131Y-94670195D01*
X51517820Y-94701027D01*
X51435059Y-94879319D01*
X51372065Y-95106468D01*
X51351500Y-95298898D01*
X51351500Y-96633757D01*
X45208500Y-96633757D01*
X45208500Y-95316243D01*
X45206800Y-95295563D01*
X45194522Y-95146221D01*
X45194521Y-95146215D01*
X45194098Y-95141070D01*
X45136673Y-94912449D01*
X45042678Y-94696277D01*
X44914640Y-94498359D01*
X44889543Y-94470777D01*
X44759473Y-94327833D01*
X44759471Y-94327832D01*
X44755995Y-94324011D01*
X44751944Y-94320812D01*
X44751940Y-94320808D01*
X44575061Y-94181117D01*
X44575057Y-94181115D01*
X44571006Y-94177915D01*
X44364639Y-94063995D01*
X44359770Y-94062271D01*
X44359766Y-94062269D01*
X44147311Y-93987035D01*
X44147307Y-93987034D01*
X44142436Y-93985309D01*
X44137343Y-93984402D01*
X44137340Y-93984401D01*
X43915456Y-93944877D01*
X43915450Y-93944876D01*
X43910367Y-93943971D01*
X43819523Y-93942861D01*
X43679830Y-93941154D01*
X43679828Y-93941154D01*
X43674661Y-93941091D01*
X43441651Y-93976747D01*
X43217593Y-94049980D01*
X43008504Y-94158825D01*
X43004371Y-94161928D01*
X43004368Y-94161930D01*
X42824135Y-94297253D01*
X42820000Y-94300358D01*
X42657143Y-94470777D01*
X42524307Y-94665508D01*
X42522133Y-94670192D01*
X42522131Y-94670195D01*
X42507820Y-94701027D01*
X42425059Y-94879319D01*
X42362065Y-95106468D01*
X42341500Y-95298898D01*
X42341500Y-96633757D01*
X31238500Y-96633757D01*
X31238500Y-95316243D01*
X31236800Y-95295563D01*
X31224522Y-95146221D01*
X31224521Y-95146215D01*
X31224098Y-95141070D01*
X31166673Y-94912449D01*
X31072678Y-94696277D01*
X30944640Y-94498359D01*
X30919543Y-94470777D01*
X30789473Y-94327833D01*
X30789471Y-94327832D01*
X30785995Y-94324011D01*
X30781944Y-94320812D01*
X30781940Y-94320808D01*
X30605061Y-94181117D01*
X30605057Y-94181115D01*
X30601006Y-94177915D01*
X30394639Y-94063995D01*
X30389770Y-94062271D01*
X30389766Y-94062269D01*
X30177311Y-93987035D01*
X30177307Y-93987034D01*
X30172436Y-93985309D01*
X30167343Y-93984402D01*
X30167340Y-93984401D01*
X29945456Y-93944877D01*
X29945450Y-93944876D01*
X29940367Y-93943971D01*
X29849523Y-93942861D01*
X29709830Y-93941154D01*
X29709828Y-93941154D01*
X29704661Y-93941091D01*
X29699544Y-93941874D01*
X29650319Y-93949406D01*
X29579957Y-93939938D01*
X29525883Y-93893932D01*
X29505266Y-93825995D01*
X29524652Y-93757696D01*
X29543127Y-93736374D01*
X29542958Y-93736225D01*
X29562532Y-93714062D01*
X29574724Y-93702018D01*
X29590327Y-93688573D01*
X29590329Y-93688570D01*
X29597127Y-93682713D01*
X29611094Y-93661165D01*
X29622385Y-93646291D01*
X29633431Y-93633783D01*
X29633432Y-93633782D01*
X29639378Y-93627049D01*
X29651943Y-93600287D01*
X29660263Y-93585309D01*
X29671471Y-93568017D01*
X29671473Y-93568012D01*
X29676352Y-93560485D01*
X29678922Y-93551892D01*
X29678924Y-93551887D01*
X29683711Y-93535880D01*
X29690372Y-93518436D01*
X29697467Y-93503324D01*
X29697468Y-93503322D01*
X29701281Y-93495200D01*
X29705830Y-93465983D01*
X29709613Y-93449268D01*
X29715515Y-93429534D01*
X29715516Y-93429528D01*
X29718086Y-93420934D01*
X29718296Y-93386494D01*
X29718329Y-93385711D01*
X29718500Y-93384614D01*
X29718500Y-93353623D01*
X29718502Y-93352853D01*
X29718952Y-93279215D01*
X29718952Y-93279214D01*
X29718976Y-93275279D01*
X29718592Y-93273935D01*
X29718500Y-93272590D01*
X29718500Y-87209500D01*
X29738502Y-87141379D01*
X29792158Y-87094886D01*
X29844500Y-87083500D01*
X31378134Y-87083500D01*
X31440316Y-87076745D01*
X31576705Y-87025615D01*
X31677475Y-86950092D01*
X31743981Y-86925244D01*
X31813364Y-86940297D01*
X31843675Y-86963390D01*
X31861483Y-86981830D01*
X31861488Y-86981834D01*
X31866382Y-86986902D01*
X31934058Y-87031188D01*
X32003677Y-87076745D01*
X32018159Y-87086222D01*
X32024763Y-87088678D01*
X32024765Y-87088679D01*
X32181558Y-87146990D01*
X32181560Y-87146990D01*
X32188168Y-87149448D01*
X32271995Y-87160633D01*
X32360980Y-87172507D01*
X32360984Y-87172507D01*
X32367961Y-87173438D01*
X32374972Y-87172800D01*
X32374976Y-87172800D01*
X32517459Y-87159832D01*
X32548600Y-87156998D01*
X32555302Y-87154820D01*
X32555304Y-87154820D01*
X32714409Y-87103124D01*
X32714412Y-87103123D01*
X32721108Y-87100947D01*
X32842191Y-87028767D01*
X32870860Y-87011677D01*
X32870862Y-87011676D01*
X32876912Y-87008069D01*
X33008266Y-86882982D01*
X33108643Y-86731902D01*
X33173055Y-86562338D01*
X33198299Y-86382717D01*
X33198616Y-86360000D01*
X33178397Y-86179745D01*
X33162705Y-86134684D01*
X33121064Y-86015106D01*
X33121062Y-86015103D01*
X33118745Y-86008448D01*
X33112401Y-85998295D01*
X33026359Y-85860598D01*
X33022626Y-85854624D01*
X32962806Y-85794385D01*
X32899778Y-85730915D01*
X32899774Y-85730912D01*
X32894815Y-85725918D01*
X32741666Y-85628727D01*
X32607451Y-85580936D01*
X32560624Y-85551332D01*
X32262296Y-85253004D01*
X32256442Y-85246738D01*
X32224131Y-85209699D01*
X32219135Y-85203972D01*
X32167830Y-85167914D01*
X32162536Y-85163983D01*
X32119175Y-85129983D01*
X32113195Y-85125294D01*
X32106267Y-85122166D01*
X32102978Y-85120174D01*
X32090927Y-85113300D01*
X32087528Y-85111477D01*
X32081311Y-85107108D01*
X32074236Y-85104349D01*
X32074233Y-85104348D01*
X32022889Y-85084330D01*
X32016809Y-85081774D01*
X31966581Y-85059095D01*
X31966578Y-85059094D01*
X31959661Y-85055971D01*
X31952198Y-85054588D01*
X31948539Y-85053441D01*
X31935151Y-85049627D01*
X31933160Y-85049116D01*
X31932980Y-85049009D01*
X31930446Y-85048287D01*
X31924366Y-85045917D01*
X31925010Y-85044264D01*
X31872155Y-85012799D01*
X31840469Y-84949266D01*
X31838500Y-84927076D01*
X31838500Y-84826866D01*
X31831745Y-84764684D01*
X31780615Y-84628295D01*
X31707370Y-84530564D01*
X31682522Y-84464059D01*
X31697575Y-84394676D01*
X31707370Y-84379435D01*
X31716930Y-84366679D01*
X31780615Y-84281705D01*
X31831745Y-84145316D01*
X31838500Y-84083134D01*
X31838500Y-82286866D01*
X31831745Y-82224684D01*
X31780615Y-82088295D01*
X31693261Y-81971739D01*
X31576705Y-81884385D01*
X31440316Y-81833255D01*
X31378134Y-81826500D01*
X29844500Y-81826500D01*
X29776379Y-81806498D01*
X29729886Y-81752842D01*
X29718500Y-81700500D01*
X29718500Y-78113623D01*
X29718502Y-78112853D01*
X29718800Y-78064102D01*
X29718976Y-78035279D01*
X29710850Y-78006847D01*
X29707272Y-77990085D01*
X29704352Y-77969698D01*
X29703080Y-77960813D01*
X29692451Y-77937436D01*
X29686004Y-77919913D01*
X29681416Y-77903862D01*
X29678949Y-77895229D01*
X29674156Y-77887632D01*
X29663170Y-77870220D01*
X29655030Y-77855135D01*
X29652564Y-77849711D01*
X29642792Y-77828218D01*
X29626030Y-77808765D01*
X29614927Y-77793760D01*
X29612788Y-77790371D01*
X29593353Y-77722089D01*
X29613920Y-77654136D01*
X29667960Y-77608091D01*
X29720888Y-77597144D01*
X29728690Y-77597239D01*
X29860170Y-77598846D01*
X29860172Y-77598846D01*
X29865339Y-77598909D01*
X30098349Y-77563253D01*
X30322407Y-77490020D01*
X30531496Y-77381175D01*
X30535629Y-77378072D01*
X30535632Y-77378070D01*
X30715865Y-77242747D01*
X30715868Y-77242745D01*
X30720000Y-77239642D01*
X30882857Y-77069223D01*
X31015693Y-76874492D01*
X31017869Y-76869805D01*
X31112764Y-76665372D01*
X31112766Y-76665367D01*
X31114941Y-76660681D01*
X31177935Y-76433532D01*
X31198500Y-76241102D01*
X31198500Y-76223757D01*
X42301500Y-76223757D01*
X42301712Y-76226330D01*
X42301712Y-76226341D01*
X42315478Y-76393779D01*
X42315479Y-76393785D01*
X42315902Y-76398930D01*
X42373327Y-76627551D01*
X42467322Y-76843723D01*
X42595360Y-77041641D01*
X42598839Y-77045464D01*
X42598841Y-77045467D01*
X42623858Y-77072960D01*
X42754005Y-77215989D01*
X42758056Y-77219188D01*
X42758060Y-77219192D01*
X42934939Y-77358883D01*
X42934943Y-77358885D01*
X42938994Y-77362085D01*
X43145361Y-77476005D01*
X43150230Y-77477729D01*
X43150234Y-77477731D01*
X43362689Y-77552965D01*
X43362693Y-77552966D01*
X43367564Y-77554691D01*
X43372657Y-77555598D01*
X43372660Y-77555599D01*
X43594544Y-77595123D01*
X43594550Y-77595124D01*
X43599633Y-77596029D01*
X43690477Y-77597139D01*
X43830170Y-77598846D01*
X43830172Y-77598846D01*
X43835339Y-77598909D01*
X44068349Y-77563253D01*
X44292407Y-77490020D01*
X44501496Y-77381175D01*
X44505629Y-77378072D01*
X44505632Y-77378070D01*
X44685865Y-77242747D01*
X44685868Y-77242745D01*
X44690000Y-77239642D01*
X44852857Y-77069223D01*
X44985693Y-76874492D01*
X44987869Y-76869805D01*
X45082764Y-76665372D01*
X45082766Y-76665367D01*
X45084941Y-76660681D01*
X45147935Y-76433532D01*
X45168500Y-76241102D01*
X45168500Y-76223757D01*
X51351500Y-76223757D01*
X51351712Y-76226330D01*
X51351712Y-76226341D01*
X51365478Y-76393779D01*
X51365479Y-76393785D01*
X51365902Y-76398930D01*
X51423327Y-76627551D01*
X51517322Y-76843723D01*
X51645360Y-77041641D01*
X51648839Y-77045464D01*
X51648841Y-77045467D01*
X51673858Y-77072960D01*
X51804005Y-77215989D01*
X51808056Y-77219188D01*
X51808060Y-77219192D01*
X51984939Y-77358883D01*
X51984943Y-77358885D01*
X51988994Y-77362085D01*
X52195361Y-77476005D01*
X52200230Y-77477729D01*
X52200234Y-77477731D01*
X52412689Y-77552965D01*
X52412693Y-77552966D01*
X52417564Y-77554691D01*
X52422657Y-77555598D01*
X52422660Y-77555599D01*
X52644544Y-77595123D01*
X52644550Y-77595124D01*
X52649633Y-77596029D01*
X52740477Y-77597139D01*
X52880170Y-77598846D01*
X52880172Y-77598846D01*
X52885339Y-77598909D01*
X53118349Y-77563253D01*
X53342407Y-77490020D01*
X53551496Y-77381175D01*
X53555629Y-77378072D01*
X53555632Y-77378070D01*
X53735865Y-77242747D01*
X53735868Y-77242745D01*
X53740000Y-77239642D01*
X53902857Y-77069223D01*
X54035693Y-76874492D01*
X54037869Y-76869805D01*
X54132764Y-76665372D01*
X54132766Y-76665367D01*
X54134941Y-76660681D01*
X54197935Y-76433532D01*
X54218500Y-76241102D01*
X54218500Y-76223757D01*
X65281500Y-76223757D01*
X65281712Y-76226330D01*
X65281712Y-76226341D01*
X65295478Y-76393779D01*
X65295479Y-76393785D01*
X65295902Y-76398930D01*
X65353327Y-76627551D01*
X65447322Y-76843723D01*
X65575360Y-77041641D01*
X65578839Y-77045464D01*
X65578841Y-77045467D01*
X65603858Y-77072960D01*
X65734005Y-77215989D01*
X65738056Y-77219188D01*
X65738060Y-77219192D01*
X65914939Y-77358883D01*
X65914943Y-77358885D01*
X65918994Y-77362085D01*
X66125361Y-77476005D01*
X66130230Y-77477729D01*
X66130234Y-77477731D01*
X66342689Y-77552965D01*
X66342693Y-77552966D01*
X66347564Y-77554691D01*
X66352657Y-77555598D01*
X66352660Y-77555599D01*
X66574544Y-77595123D01*
X66574550Y-77595124D01*
X66579633Y-77596029D01*
X66670477Y-77597139D01*
X66810170Y-77598846D01*
X66810172Y-77598846D01*
X66815339Y-77598909D01*
X67048349Y-77563253D01*
X67272407Y-77490020D01*
X67481496Y-77381175D01*
X67485629Y-77378072D01*
X67485632Y-77378070D01*
X67665865Y-77242747D01*
X67665868Y-77242745D01*
X67670000Y-77239642D01*
X67832857Y-77069223D01*
X67965693Y-76874492D01*
X67967869Y-76869805D01*
X68062764Y-76665372D01*
X68062766Y-76665367D01*
X68064941Y-76660681D01*
X68127935Y-76433532D01*
X68148500Y-76241102D01*
X68148500Y-74906243D01*
X68146800Y-74885563D01*
X68134522Y-74736221D01*
X68134521Y-74736215D01*
X68134098Y-74731070D01*
X68076673Y-74502449D01*
X67982678Y-74286277D01*
X67854640Y-74088359D01*
X67829543Y-74060777D01*
X67699473Y-73917833D01*
X67699471Y-73917832D01*
X67695995Y-73914011D01*
X67691944Y-73910812D01*
X67691940Y-73910808D01*
X67515061Y-73771117D01*
X67515057Y-73771115D01*
X67511006Y-73767915D01*
X67304639Y-73653995D01*
X67299770Y-73652271D01*
X67299766Y-73652269D01*
X67087311Y-73577035D01*
X67087307Y-73577034D01*
X67082436Y-73575309D01*
X67077343Y-73574402D01*
X67077340Y-73574401D01*
X66855456Y-73534877D01*
X66855450Y-73534876D01*
X66850367Y-73533971D01*
X66759523Y-73532861D01*
X66619830Y-73531154D01*
X66619828Y-73531154D01*
X66614661Y-73531091D01*
X66381651Y-73566747D01*
X66157593Y-73639980D01*
X65948504Y-73748825D01*
X65944371Y-73751928D01*
X65944368Y-73751930D01*
X65764135Y-73887253D01*
X65760000Y-73890358D01*
X65597143Y-74060777D01*
X65464307Y-74255508D01*
X65462133Y-74260192D01*
X65462131Y-74260195D01*
X65447820Y-74291027D01*
X65365059Y-74469319D01*
X65302065Y-74696468D01*
X65281500Y-74888898D01*
X65281500Y-76223757D01*
X54218500Y-76223757D01*
X54218500Y-74906243D01*
X54216800Y-74885563D01*
X54204522Y-74736221D01*
X54204521Y-74736215D01*
X54204098Y-74731070D01*
X54146673Y-74502449D01*
X54052678Y-74286277D01*
X53924640Y-74088359D01*
X53899543Y-74060777D01*
X53769473Y-73917833D01*
X53769471Y-73917832D01*
X53765995Y-73914011D01*
X53761944Y-73910812D01*
X53761940Y-73910808D01*
X53585061Y-73771117D01*
X53585057Y-73771115D01*
X53581006Y-73767915D01*
X53374639Y-73653995D01*
X53369770Y-73652271D01*
X53369766Y-73652269D01*
X53157311Y-73577035D01*
X53157307Y-73577034D01*
X53152436Y-73575309D01*
X53147343Y-73574402D01*
X53147340Y-73574401D01*
X52925456Y-73534877D01*
X52925450Y-73534876D01*
X52920367Y-73533971D01*
X52829523Y-73532861D01*
X52689830Y-73531154D01*
X52689828Y-73531154D01*
X52684661Y-73531091D01*
X52451651Y-73566747D01*
X52227593Y-73639980D01*
X52018504Y-73748825D01*
X52014371Y-73751928D01*
X52014368Y-73751930D01*
X51834135Y-73887253D01*
X51830000Y-73890358D01*
X51667143Y-74060777D01*
X51534307Y-74255508D01*
X51532133Y-74260192D01*
X51532131Y-74260195D01*
X51517820Y-74291027D01*
X51435059Y-74469319D01*
X51372065Y-74696468D01*
X51351500Y-74888898D01*
X51351500Y-76223757D01*
X45168500Y-76223757D01*
X45168500Y-74906243D01*
X45166800Y-74885563D01*
X45154522Y-74736221D01*
X45154521Y-74736215D01*
X45154098Y-74731070D01*
X45096673Y-74502449D01*
X45002678Y-74286277D01*
X44874640Y-74088359D01*
X44849543Y-74060777D01*
X44719473Y-73917833D01*
X44719471Y-73917832D01*
X44715995Y-73914011D01*
X44711944Y-73910812D01*
X44711940Y-73910808D01*
X44535061Y-73771117D01*
X44535057Y-73771115D01*
X44531006Y-73767915D01*
X44324639Y-73653995D01*
X44319770Y-73652271D01*
X44319766Y-73652269D01*
X44107311Y-73577035D01*
X44107307Y-73577034D01*
X44102436Y-73575309D01*
X44097343Y-73574402D01*
X44097340Y-73574401D01*
X43875456Y-73534877D01*
X43875450Y-73534876D01*
X43870367Y-73533971D01*
X43779523Y-73532861D01*
X43639830Y-73531154D01*
X43639828Y-73531154D01*
X43634661Y-73531091D01*
X43401651Y-73566747D01*
X43177593Y-73639980D01*
X42968504Y-73748825D01*
X42964371Y-73751928D01*
X42964368Y-73751930D01*
X42784135Y-73887253D01*
X42780000Y-73890358D01*
X42617143Y-74060777D01*
X42484307Y-74255508D01*
X42482133Y-74260192D01*
X42482131Y-74260195D01*
X42467820Y-74291027D01*
X42385059Y-74469319D01*
X42322065Y-74696468D01*
X42301500Y-74888898D01*
X42301500Y-76223757D01*
X31198500Y-76223757D01*
X31198500Y-74906243D01*
X31196800Y-74885563D01*
X31184522Y-74736221D01*
X31184521Y-74736215D01*
X31184098Y-74731070D01*
X31126673Y-74502449D01*
X31032678Y-74286277D01*
X30904640Y-74088359D01*
X30879543Y-74060777D01*
X30749473Y-73917833D01*
X30749471Y-73917832D01*
X30745995Y-73914011D01*
X30741944Y-73910812D01*
X30741940Y-73910808D01*
X30565061Y-73771117D01*
X30565057Y-73771115D01*
X30561006Y-73767915D01*
X30354639Y-73653995D01*
X30349770Y-73652271D01*
X30349766Y-73652269D01*
X30137311Y-73577035D01*
X30137307Y-73577034D01*
X30132436Y-73575309D01*
X30127343Y-73574402D01*
X30127340Y-73574401D01*
X29905456Y-73534877D01*
X29905450Y-73534876D01*
X29900367Y-73533971D01*
X29809523Y-73532861D01*
X29669830Y-73531154D01*
X29669828Y-73531154D01*
X29664661Y-73531091D01*
X29431651Y-73566747D01*
X29207593Y-73639980D01*
X28998504Y-73748825D01*
X28994371Y-73751928D01*
X28994368Y-73751930D01*
X28814135Y-73887253D01*
X28810000Y-73890358D01*
X28647143Y-74060777D01*
X28514307Y-74255508D01*
X28512133Y-74260192D01*
X28512131Y-74260195D01*
X28497820Y-74291027D01*
X28415059Y-74469319D01*
X28352065Y-74696468D01*
X28331500Y-74888898D01*
X28331500Y-76223757D01*
X28331712Y-76226330D01*
X28331712Y-76226341D01*
X28345478Y-76393779D01*
X28345479Y-76393785D01*
X28345902Y-76398930D01*
X28403327Y-76627551D01*
X28497322Y-76843723D01*
X28625360Y-77041641D01*
X28628839Y-77045464D01*
X28628841Y-77045467D01*
X28653858Y-77072960D01*
X28784005Y-77215989D01*
X28788056Y-77219188D01*
X28788060Y-77219192D01*
X28964942Y-77358885D01*
X28968994Y-77362085D01*
X28973513Y-77364579D01*
X28974978Y-77365553D01*
X29020648Y-77419911D01*
X29029680Y-77490330D01*
X28999206Y-77554454D01*
X28938902Y-77591923D01*
X28905250Y-77596500D01*
X20954500Y-77596500D01*
X20886379Y-77576498D01*
X20839886Y-77522842D01*
X20828500Y-77470500D01*
X20828500Y-63723757D01*
X28331500Y-63723757D01*
X28331712Y-63726330D01*
X28331712Y-63726341D01*
X28345478Y-63893779D01*
X28345479Y-63893785D01*
X28345902Y-63898930D01*
X28403327Y-64127551D01*
X28497322Y-64343723D01*
X28625360Y-64541641D01*
X28628839Y-64545464D01*
X28628841Y-64545467D01*
X28653858Y-64572960D01*
X28784005Y-64715989D01*
X28788056Y-64719188D01*
X28788060Y-64719192D01*
X28964939Y-64858883D01*
X28964943Y-64858885D01*
X28968994Y-64862085D01*
X29175361Y-64976005D01*
X29180230Y-64977729D01*
X29180234Y-64977731D01*
X29392689Y-65052965D01*
X29392693Y-65052966D01*
X29397564Y-65054691D01*
X29402657Y-65055598D01*
X29402660Y-65055599D01*
X29624544Y-65095123D01*
X29624550Y-65095124D01*
X29629633Y-65096029D01*
X29720477Y-65097139D01*
X29860170Y-65098846D01*
X29860172Y-65098846D01*
X29865339Y-65098909D01*
X30098349Y-65063253D01*
X30322407Y-64990020D01*
X30531496Y-64881175D01*
X30535629Y-64878072D01*
X30535632Y-64878070D01*
X30715865Y-64742747D01*
X30715868Y-64742745D01*
X30720000Y-64739642D01*
X30882857Y-64569223D01*
X31015693Y-64374492D01*
X31017869Y-64369805D01*
X31112764Y-64165372D01*
X31112766Y-64165367D01*
X31114941Y-64160681D01*
X31177935Y-63933532D01*
X31198500Y-63741102D01*
X31198500Y-63723757D01*
X42301500Y-63723757D01*
X42301712Y-63726330D01*
X42301712Y-63726341D01*
X42315478Y-63893779D01*
X42315479Y-63893785D01*
X42315902Y-63898930D01*
X42373327Y-64127551D01*
X42467322Y-64343723D01*
X42595360Y-64541641D01*
X42598839Y-64545464D01*
X42598841Y-64545467D01*
X42623858Y-64572960D01*
X42754005Y-64715989D01*
X42758056Y-64719188D01*
X42758060Y-64719192D01*
X42934939Y-64858883D01*
X42934943Y-64858885D01*
X42938994Y-64862085D01*
X43145361Y-64976005D01*
X43150230Y-64977729D01*
X43150234Y-64977731D01*
X43362689Y-65052965D01*
X43362693Y-65052966D01*
X43367564Y-65054691D01*
X43372657Y-65055598D01*
X43372660Y-65055599D01*
X43594544Y-65095123D01*
X43594550Y-65095124D01*
X43599633Y-65096029D01*
X43690477Y-65097139D01*
X43830170Y-65098846D01*
X43830172Y-65098846D01*
X43835339Y-65098909D01*
X44068349Y-65063253D01*
X44292407Y-64990020D01*
X44501496Y-64881175D01*
X44505629Y-64878072D01*
X44505632Y-64878070D01*
X44685865Y-64742747D01*
X44685868Y-64742745D01*
X44690000Y-64739642D01*
X44852857Y-64569223D01*
X44985693Y-64374492D01*
X44987869Y-64369805D01*
X45082764Y-64165372D01*
X45082766Y-64165367D01*
X45084941Y-64160681D01*
X45147935Y-63933532D01*
X45168500Y-63741102D01*
X45168500Y-63723757D01*
X51351500Y-63723757D01*
X51351712Y-63726330D01*
X51351712Y-63726341D01*
X51365478Y-63893779D01*
X51365479Y-63893785D01*
X51365902Y-63898930D01*
X51423327Y-64127551D01*
X51517322Y-64343723D01*
X51645360Y-64541641D01*
X51648839Y-64545464D01*
X51648841Y-64545467D01*
X51673858Y-64572960D01*
X51804005Y-64715989D01*
X51808056Y-64719188D01*
X51808060Y-64719192D01*
X51984939Y-64858883D01*
X51984943Y-64858885D01*
X51988994Y-64862085D01*
X52195361Y-64976005D01*
X52200230Y-64977729D01*
X52200234Y-64977731D01*
X52412689Y-65052965D01*
X52412693Y-65052966D01*
X52417564Y-65054691D01*
X52422657Y-65055598D01*
X52422660Y-65055599D01*
X52644544Y-65095123D01*
X52644550Y-65095124D01*
X52649633Y-65096029D01*
X52740477Y-65097139D01*
X52880170Y-65098846D01*
X52880172Y-65098846D01*
X52885339Y-65098909D01*
X53118349Y-65063253D01*
X53342407Y-64990020D01*
X53551496Y-64881175D01*
X53555629Y-64878072D01*
X53555632Y-64878070D01*
X53735865Y-64742747D01*
X53735868Y-64742745D01*
X53740000Y-64739642D01*
X53902857Y-64569223D01*
X54035693Y-64374492D01*
X54037869Y-64369805D01*
X54132764Y-64165372D01*
X54132766Y-64165367D01*
X54134941Y-64160681D01*
X54197935Y-63933532D01*
X54218500Y-63741102D01*
X54218500Y-63723757D01*
X65281500Y-63723757D01*
X65281712Y-63726330D01*
X65281712Y-63726341D01*
X65295478Y-63893779D01*
X65295479Y-63893785D01*
X65295902Y-63898930D01*
X65353327Y-64127551D01*
X65447322Y-64343723D01*
X65575360Y-64541641D01*
X65578839Y-64545464D01*
X65578841Y-64545467D01*
X65603858Y-64572960D01*
X65734005Y-64715989D01*
X65738056Y-64719188D01*
X65738060Y-64719192D01*
X65914939Y-64858883D01*
X65914943Y-64858885D01*
X65918994Y-64862085D01*
X66125361Y-64976005D01*
X66130230Y-64977729D01*
X66130234Y-64977731D01*
X66342689Y-65052965D01*
X66342693Y-65052966D01*
X66347564Y-65054691D01*
X66352657Y-65055598D01*
X66352660Y-65055599D01*
X66574544Y-65095123D01*
X66574550Y-65095124D01*
X66579633Y-65096029D01*
X66670477Y-65097139D01*
X66810170Y-65098846D01*
X66810172Y-65098846D01*
X66815339Y-65098909D01*
X67048349Y-65063253D01*
X67272407Y-64990020D01*
X67481496Y-64881175D01*
X67485629Y-64878072D01*
X67485632Y-64878070D01*
X67665865Y-64742747D01*
X67665868Y-64742745D01*
X67670000Y-64739642D01*
X67832857Y-64569223D01*
X67965693Y-64374492D01*
X67967869Y-64369805D01*
X68062764Y-64165372D01*
X68062766Y-64165367D01*
X68064941Y-64160681D01*
X68127935Y-63933532D01*
X68148500Y-63741102D01*
X68148500Y-62406243D01*
X68146800Y-62385563D01*
X68134522Y-62236221D01*
X68134521Y-62236215D01*
X68134098Y-62231070D01*
X68076673Y-62002449D01*
X67982678Y-61786277D01*
X67854640Y-61588359D01*
X67829543Y-61560777D01*
X67699473Y-61417833D01*
X67699471Y-61417832D01*
X67695995Y-61414011D01*
X67691944Y-61410812D01*
X67691940Y-61410808D01*
X67515061Y-61271117D01*
X67515057Y-61271115D01*
X67511006Y-61267915D01*
X67304639Y-61153995D01*
X67299770Y-61152271D01*
X67299766Y-61152269D01*
X67087311Y-61077035D01*
X67087307Y-61077034D01*
X67082436Y-61075309D01*
X67077343Y-61074402D01*
X67077340Y-61074401D01*
X66855456Y-61034877D01*
X66855450Y-61034876D01*
X66850367Y-61033971D01*
X66759523Y-61032861D01*
X66619830Y-61031154D01*
X66619828Y-61031154D01*
X66614661Y-61031091D01*
X66381651Y-61066747D01*
X66157593Y-61139980D01*
X65948504Y-61248825D01*
X65944371Y-61251928D01*
X65944368Y-61251930D01*
X65764135Y-61387253D01*
X65760000Y-61390358D01*
X65597143Y-61560777D01*
X65464307Y-61755508D01*
X65462133Y-61760192D01*
X65462131Y-61760195D01*
X65447820Y-61791027D01*
X65365059Y-61969319D01*
X65302065Y-62196468D01*
X65281500Y-62388898D01*
X65281500Y-63723757D01*
X54218500Y-63723757D01*
X54218500Y-62406243D01*
X54216800Y-62385563D01*
X54204522Y-62236221D01*
X54204521Y-62236215D01*
X54204098Y-62231070D01*
X54146673Y-62002449D01*
X54052678Y-61786277D01*
X53924640Y-61588359D01*
X53899543Y-61560777D01*
X53769473Y-61417833D01*
X53769471Y-61417832D01*
X53765995Y-61414011D01*
X53761944Y-61410812D01*
X53761940Y-61410808D01*
X53585061Y-61271117D01*
X53585057Y-61271115D01*
X53581006Y-61267915D01*
X53374639Y-61153995D01*
X53369770Y-61152271D01*
X53369766Y-61152269D01*
X53157311Y-61077035D01*
X53157307Y-61077034D01*
X53152436Y-61075309D01*
X53147343Y-61074402D01*
X53147340Y-61074401D01*
X52925456Y-61034877D01*
X52925450Y-61034876D01*
X52920367Y-61033971D01*
X52829523Y-61032861D01*
X52689830Y-61031154D01*
X52689828Y-61031154D01*
X52684661Y-61031091D01*
X52451651Y-61066747D01*
X52227593Y-61139980D01*
X52018504Y-61248825D01*
X52014371Y-61251928D01*
X52014368Y-61251930D01*
X51834135Y-61387253D01*
X51830000Y-61390358D01*
X51667143Y-61560777D01*
X51534307Y-61755508D01*
X51532133Y-61760192D01*
X51532131Y-61760195D01*
X51517820Y-61791027D01*
X51435059Y-61969319D01*
X51372065Y-62196468D01*
X51351500Y-62388898D01*
X51351500Y-63723757D01*
X45168500Y-63723757D01*
X45168500Y-62406243D01*
X45166800Y-62385563D01*
X45154522Y-62236221D01*
X45154521Y-62236215D01*
X45154098Y-62231070D01*
X45096673Y-62002449D01*
X45002678Y-61786277D01*
X44874640Y-61588359D01*
X44849543Y-61560777D01*
X44719473Y-61417833D01*
X44719471Y-61417832D01*
X44715995Y-61414011D01*
X44711944Y-61410812D01*
X44711940Y-61410808D01*
X44535061Y-61271117D01*
X44535057Y-61271115D01*
X44531006Y-61267915D01*
X44324639Y-61153995D01*
X44319770Y-61152271D01*
X44319766Y-61152269D01*
X44107311Y-61077035D01*
X44107307Y-61077034D01*
X44102436Y-61075309D01*
X44097343Y-61074402D01*
X44097340Y-61074401D01*
X43875456Y-61034877D01*
X43875450Y-61034876D01*
X43870367Y-61033971D01*
X43779523Y-61032861D01*
X43639830Y-61031154D01*
X43639828Y-61031154D01*
X43634661Y-61031091D01*
X43401651Y-61066747D01*
X43177593Y-61139980D01*
X42968504Y-61248825D01*
X42964371Y-61251928D01*
X42964368Y-61251930D01*
X42784135Y-61387253D01*
X42780000Y-61390358D01*
X42617143Y-61560777D01*
X42484307Y-61755508D01*
X42482133Y-61760192D01*
X42482131Y-61760195D01*
X42467820Y-61791027D01*
X42385059Y-61969319D01*
X42322065Y-62196468D01*
X42301500Y-62388898D01*
X42301500Y-63723757D01*
X31198500Y-63723757D01*
X31198500Y-62406243D01*
X31196800Y-62385563D01*
X31184522Y-62236221D01*
X31184521Y-62236215D01*
X31184098Y-62231070D01*
X31126673Y-62002449D01*
X31032678Y-61786277D01*
X30904640Y-61588359D01*
X30879543Y-61560777D01*
X30749473Y-61417833D01*
X30749471Y-61417832D01*
X30745995Y-61414011D01*
X30741944Y-61410812D01*
X30741940Y-61410808D01*
X30565061Y-61271117D01*
X30565057Y-61271115D01*
X30561006Y-61267915D01*
X30354639Y-61153995D01*
X30349770Y-61152271D01*
X30349766Y-61152269D01*
X30137311Y-61077035D01*
X30137307Y-61077034D01*
X30132436Y-61075309D01*
X30127343Y-61074402D01*
X30127340Y-61074401D01*
X29905456Y-61034877D01*
X29905450Y-61034876D01*
X29900367Y-61033971D01*
X29809523Y-61032861D01*
X29669830Y-61031154D01*
X29669828Y-61031154D01*
X29664661Y-61031091D01*
X29431651Y-61066747D01*
X29207593Y-61139980D01*
X28998504Y-61248825D01*
X28994371Y-61251928D01*
X28994368Y-61251930D01*
X28814135Y-61387253D01*
X28810000Y-61390358D01*
X28647143Y-61560777D01*
X28514307Y-61755508D01*
X28512133Y-61760192D01*
X28512131Y-61760195D01*
X28497820Y-61791027D01*
X28415059Y-61969319D01*
X28352065Y-62196468D01*
X28331500Y-62388898D01*
X28331500Y-63723757D01*
X20828500Y-63723757D01*
X20828500Y-55880000D01*
X50756502Y-55880000D01*
X50776457Y-56108087D01*
X50835716Y-56329243D01*
X50838039Y-56334224D01*
X50838039Y-56334225D01*
X50930151Y-56531762D01*
X50930154Y-56531767D01*
X50932477Y-56536749D01*
X51063802Y-56724300D01*
X51225700Y-56886198D01*
X51230208Y-56889355D01*
X51230211Y-56889357D01*
X51308389Y-56944098D01*
X51413251Y-57017523D01*
X51418233Y-57019846D01*
X51418238Y-57019849D01*
X51615775Y-57111961D01*
X51620757Y-57114284D01*
X51626065Y-57115706D01*
X51626067Y-57115707D01*
X51836598Y-57172119D01*
X51836600Y-57172119D01*
X51841913Y-57173543D01*
X52070000Y-57193498D01*
X52298087Y-57173543D01*
X52303400Y-57172119D01*
X52303402Y-57172119D01*
X52513933Y-57115707D01*
X52513935Y-57115706D01*
X52519243Y-57114284D01*
X52524225Y-57111961D01*
X52721762Y-57019849D01*
X52721767Y-57019846D01*
X52726749Y-57017523D01*
X52831611Y-56944098D01*
X52909789Y-56889357D01*
X52909792Y-56889355D01*
X52914300Y-56886198D01*
X53076198Y-56724300D01*
X53207523Y-56536749D01*
X53209846Y-56531767D01*
X53209849Y-56531762D01*
X53301961Y-56334225D01*
X53301961Y-56334224D01*
X53304284Y-56329243D01*
X53363543Y-56108087D01*
X53383498Y-55880000D01*
X53363543Y-55651913D01*
X53304284Y-55430757D01*
X53301961Y-55425775D01*
X53209849Y-55228238D01*
X53209846Y-55228233D01*
X53207523Y-55223251D01*
X53076198Y-55035700D01*
X52914300Y-54873802D01*
X52909792Y-54870645D01*
X52909789Y-54870643D01*
X52831611Y-54815902D01*
X52726749Y-54742477D01*
X52721767Y-54740154D01*
X52721762Y-54740151D01*
X52687543Y-54724195D01*
X52634258Y-54677278D01*
X52614797Y-54609001D01*
X52635339Y-54541041D01*
X52687543Y-54495805D01*
X52721762Y-54479849D01*
X52721767Y-54479846D01*
X52726749Y-54477523D01*
X52831611Y-54404098D01*
X52909789Y-54349357D01*
X52909792Y-54349355D01*
X52914300Y-54346198D01*
X53076198Y-54184300D01*
X53207523Y-53996749D01*
X53209846Y-53991767D01*
X53209849Y-53991762D01*
X53301961Y-53794225D01*
X53301961Y-53794224D01*
X53304284Y-53789243D01*
X53363543Y-53568087D01*
X53383498Y-53340000D01*
X53363543Y-53111913D01*
X53304284Y-52890757D01*
X53301961Y-52885775D01*
X53209849Y-52688238D01*
X53209846Y-52688233D01*
X53207523Y-52683251D01*
X53076198Y-52495700D01*
X52914300Y-52333802D01*
X52909792Y-52330645D01*
X52909789Y-52330643D01*
X52831611Y-52275902D01*
X52726749Y-52202477D01*
X52721767Y-52200154D01*
X52721762Y-52200151D01*
X52687543Y-52184195D01*
X52634258Y-52137278D01*
X52614797Y-52069001D01*
X52635339Y-52001041D01*
X52687543Y-51955805D01*
X52721762Y-51939849D01*
X52721767Y-51939846D01*
X52726749Y-51937523D01*
X52855409Y-51847434D01*
X52909789Y-51809357D01*
X52909792Y-51809355D01*
X52914300Y-51806198D01*
X53076198Y-51644300D01*
X53207523Y-51456749D01*
X53209846Y-51451767D01*
X53209849Y-51451762D01*
X53301961Y-51254225D01*
X53301961Y-51254224D01*
X53304284Y-51249243D01*
X53314907Y-51209600D01*
X53362119Y-51033402D01*
X53362119Y-51033400D01*
X53363543Y-51028087D01*
X53383498Y-50800000D01*
X53363543Y-50571913D01*
X53346377Y-50507848D01*
X53305707Y-50356067D01*
X53305706Y-50356065D01*
X53304284Y-50350757D01*
X53233250Y-50198423D01*
X53209849Y-50148238D01*
X53209846Y-50148233D01*
X53207523Y-50143251D01*
X53076198Y-49955700D01*
X52914300Y-49793802D01*
X52909792Y-49790645D01*
X52909789Y-49790643D01*
X52831611Y-49735902D01*
X52726749Y-49662477D01*
X52721767Y-49660154D01*
X52721762Y-49660151D01*
X52687543Y-49644195D01*
X52634258Y-49597278D01*
X52614797Y-49529001D01*
X52635339Y-49461041D01*
X52687543Y-49415805D01*
X52721762Y-49399849D01*
X52721767Y-49399846D01*
X52726749Y-49397523D01*
X52855409Y-49307434D01*
X52909789Y-49269357D01*
X52909792Y-49269355D01*
X52914300Y-49266198D01*
X53076198Y-49104300D01*
X53207523Y-48916749D01*
X53209846Y-48911767D01*
X53209849Y-48911762D01*
X53301961Y-48714225D01*
X53301961Y-48714224D01*
X53304284Y-48709243D01*
X53314907Y-48669600D01*
X53362119Y-48493402D01*
X53362119Y-48493400D01*
X53363543Y-48488087D01*
X53383498Y-48260000D01*
X53363543Y-48031913D01*
X53346377Y-47967848D01*
X53305707Y-47816067D01*
X53305706Y-47816065D01*
X53304284Y-47810757D01*
X53233250Y-47658423D01*
X53209849Y-47608238D01*
X53209846Y-47608233D01*
X53207523Y-47603251D01*
X53076198Y-47415700D01*
X52914300Y-47253802D01*
X52909792Y-47250645D01*
X52909789Y-47250643D01*
X52831611Y-47195902D01*
X52726749Y-47122477D01*
X52721767Y-47120154D01*
X52721762Y-47120151D01*
X52687543Y-47104195D01*
X52634258Y-47057278D01*
X52614797Y-46989001D01*
X52635339Y-46921041D01*
X52687543Y-46875805D01*
X52721762Y-46859849D01*
X52721767Y-46859846D01*
X52726749Y-46857523D01*
X52855409Y-46767434D01*
X52909789Y-46729357D01*
X52909792Y-46729355D01*
X52914300Y-46726198D01*
X53076198Y-46564300D01*
X53207523Y-46376749D01*
X53209846Y-46371767D01*
X53209849Y-46371762D01*
X53301961Y-46174225D01*
X53301961Y-46174224D01*
X53304284Y-46169243D01*
X53314907Y-46129600D01*
X53362119Y-45953402D01*
X53362119Y-45953400D01*
X53363543Y-45948087D01*
X53383498Y-45720000D01*
X53363543Y-45491913D01*
X53346377Y-45427848D01*
X53305707Y-45276067D01*
X53305706Y-45276065D01*
X53304284Y-45270757D01*
X53233250Y-45118423D01*
X53209849Y-45068238D01*
X53209846Y-45068233D01*
X53207523Y-45063251D01*
X53076198Y-44875700D01*
X52914300Y-44713802D01*
X52909792Y-44710645D01*
X52909789Y-44710643D01*
X52831611Y-44655902D01*
X52726749Y-44582477D01*
X52721767Y-44580154D01*
X52721762Y-44580151D01*
X52687543Y-44564195D01*
X52634258Y-44517278D01*
X52614797Y-44449001D01*
X52635339Y-44381041D01*
X52687543Y-44335805D01*
X52721762Y-44319849D01*
X52721767Y-44319846D01*
X52726749Y-44317523D01*
X52855409Y-44227434D01*
X52909789Y-44189357D01*
X52909792Y-44189355D01*
X52914300Y-44186198D01*
X53076198Y-44024300D01*
X53207523Y-43836749D01*
X53209846Y-43831767D01*
X53209849Y-43831762D01*
X53301961Y-43634225D01*
X53301961Y-43634224D01*
X53304284Y-43629243D01*
X53314907Y-43589600D01*
X53362119Y-43413402D01*
X53362119Y-43413400D01*
X53363543Y-43408087D01*
X53383498Y-43180000D01*
X53363543Y-42951913D01*
X53346377Y-42887848D01*
X53305707Y-42736067D01*
X53305706Y-42736065D01*
X53304284Y-42730757D01*
X53233250Y-42578423D01*
X53209849Y-42528238D01*
X53209846Y-42528233D01*
X53207523Y-42523251D01*
X53076198Y-42335700D01*
X52914300Y-42173802D01*
X52909792Y-42170645D01*
X52909789Y-42170643D01*
X52831611Y-42115902D01*
X52726749Y-42042477D01*
X52721767Y-42040154D01*
X52721762Y-42040151D01*
X52524225Y-41948039D01*
X52524224Y-41948039D01*
X52519243Y-41945716D01*
X52513935Y-41944294D01*
X52513933Y-41944293D01*
X52303402Y-41887881D01*
X52303400Y-41887881D01*
X52298087Y-41886457D01*
X52070000Y-41866502D01*
X51841913Y-41886457D01*
X51836600Y-41887881D01*
X51836598Y-41887881D01*
X51626067Y-41944293D01*
X51626065Y-41944294D01*
X51620757Y-41945716D01*
X51615776Y-41948039D01*
X51615775Y-41948039D01*
X51418238Y-42040151D01*
X51418233Y-42040154D01*
X51413251Y-42042477D01*
X51308389Y-42115902D01*
X51230211Y-42170643D01*
X51230208Y-42170645D01*
X51225700Y-42173802D01*
X51063802Y-42335700D01*
X50932477Y-42523251D01*
X50930154Y-42528233D01*
X50930151Y-42528238D01*
X50906750Y-42578423D01*
X50835716Y-42730757D01*
X50834294Y-42736065D01*
X50834293Y-42736067D01*
X50793623Y-42887848D01*
X50776457Y-42951913D01*
X50756502Y-43180000D01*
X50776457Y-43408087D01*
X50777881Y-43413400D01*
X50777881Y-43413402D01*
X50825094Y-43589600D01*
X50835716Y-43629243D01*
X50838039Y-43634224D01*
X50838039Y-43634225D01*
X50930151Y-43831762D01*
X50930154Y-43831767D01*
X50932477Y-43836749D01*
X51063802Y-44024300D01*
X51225700Y-44186198D01*
X51230208Y-44189355D01*
X51230211Y-44189357D01*
X51284591Y-44227434D01*
X51413251Y-44317523D01*
X51418233Y-44319846D01*
X51418238Y-44319849D01*
X51452457Y-44335805D01*
X51505742Y-44382722D01*
X51525203Y-44450999D01*
X51504661Y-44518959D01*
X51452457Y-44564195D01*
X51418238Y-44580151D01*
X51418233Y-44580154D01*
X51413251Y-44582477D01*
X51308389Y-44655902D01*
X51230211Y-44710643D01*
X51230208Y-44710645D01*
X51225700Y-44713802D01*
X51063802Y-44875700D01*
X50932477Y-45063251D01*
X50930154Y-45068233D01*
X50930151Y-45068238D01*
X50906750Y-45118423D01*
X50835716Y-45270757D01*
X50834294Y-45276065D01*
X50834293Y-45276067D01*
X50793623Y-45427848D01*
X50776457Y-45491913D01*
X50756502Y-45720000D01*
X50776457Y-45948087D01*
X50777881Y-45953400D01*
X50777881Y-45953402D01*
X50825094Y-46129600D01*
X50835716Y-46169243D01*
X50838039Y-46174224D01*
X50838039Y-46174225D01*
X50930151Y-46371762D01*
X50930154Y-46371767D01*
X50932477Y-46376749D01*
X51063802Y-46564300D01*
X51225700Y-46726198D01*
X51230208Y-46729355D01*
X51230211Y-46729357D01*
X51284591Y-46767434D01*
X51413251Y-46857523D01*
X51418233Y-46859846D01*
X51418238Y-46859849D01*
X51452457Y-46875805D01*
X51505742Y-46922722D01*
X51525203Y-46990999D01*
X51504661Y-47058959D01*
X51452457Y-47104195D01*
X51418238Y-47120151D01*
X51418233Y-47120154D01*
X51413251Y-47122477D01*
X51308389Y-47195902D01*
X51230211Y-47250643D01*
X51230208Y-47250645D01*
X51225700Y-47253802D01*
X51063802Y-47415700D01*
X50932477Y-47603251D01*
X50930154Y-47608233D01*
X50930151Y-47608238D01*
X50906750Y-47658423D01*
X50835716Y-47810757D01*
X50834294Y-47816065D01*
X50834293Y-47816067D01*
X50793623Y-47967848D01*
X50776457Y-48031913D01*
X50756502Y-48260000D01*
X50776457Y-48488087D01*
X50777881Y-48493400D01*
X50777881Y-48493402D01*
X50825094Y-48669600D01*
X50835716Y-48709243D01*
X50838039Y-48714224D01*
X50838039Y-48714225D01*
X50930151Y-48911762D01*
X50930154Y-48911767D01*
X50932477Y-48916749D01*
X51063802Y-49104300D01*
X51225700Y-49266198D01*
X51230208Y-49269355D01*
X51230211Y-49269357D01*
X51284591Y-49307434D01*
X51413251Y-49397523D01*
X51418233Y-49399846D01*
X51418238Y-49399849D01*
X51452457Y-49415805D01*
X51505742Y-49462722D01*
X51525203Y-49530999D01*
X51504661Y-49598959D01*
X51452457Y-49644195D01*
X51418238Y-49660151D01*
X51418233Y-49660154D01*
X51413251Y-49662477D01*
X51308389Y-49735902D01*
X51230211Y-49790643D01*
X51230208Y-49790645D01*
X51225700Y-49793802D01*
X51063802Y-49955700D01*
X50932477Y-50143251D01*
X50930154Y-50148233D01*
X50930151Y-50148238D01*
X50906750Y-50198423D01*
X50835716Y-50350757D01*
X50834294Y-50356065D01*
X50834293Y-50356067D01*
X50793623Y-50507848D01*
X50776457Y-50571913D01*
X50756502Y-50800000D01*
X50776457Y-51028087D01*
X50777881Y-51033400D01*
X50777881Y-51033402D01*
X50825094Y-51209600D01*
X50835716Y-51249243D01*
X50838039Y-51254224D01*
X50838039Y-51254225D01*
X50930151Y-51451762D01*
X50930154Y-51451767D01*
X50932477Y-51456749D01*
X51063802Y-51644300D01*
X51225700Y-51806198D01*
X51230208Y-51809355D01*
X51230211Y-51809357D01*
X51284591Y-51847434D01*
X51413251Y-51937523D01*
X51418233Y-51939846D01*
X51418238Y-51939849D01*
X51452457Y-51955805D01*
X51505742Y-52002722D01*
X51525203Y-52070999D01*
X51504661Y-52138959D01*
X51452457Y-52184195D01*
X51418238Y-52200151D01*
X51418233Y-52200154D01*
X51413251Y-52202477D01*
X51308389Y-52275902D01*
X51230211Y-52330643D01*
X51230208Y-52330645D01*
X51225700Y-52333802D01*
X51063802Y-52495700D01*
X50932477Y-52683251D01*
X50930154Y-52688233D01*
X50930151Y-52688238D01*
X50838039Y-52885775D01*
X50835716Y-52890757D01*
X50776457Y-53111913D01*
X50756502Y-53340000D01*
X50776457Y-53568087D01*
X50835716Y-53789243D01*
X50838039Y-53794224D01*
X50838039Y-53794225D01*
X50930151Y-53991762D01*
X50930154Y-53991767D01*
X50932477Y-53996749D01*
X51063802Y-54184300D01*
X51225700Y-54346198D01*
X51230208Y-54349355D01*
X51230211Y-54349357D01*
X51308389Y-54404098D01*
X51413251Y-54477523D01*
X51418233Y-54479846D01*
X51418238Y-54479849D01*
X51452457Y-54495805D01*
X51505742Y-54542722D01*
X51525203Y-54610999D01*
X51504661Y-54678959D01*
X51452457Y-54724195D01*
X51418238Y-54740151D01*
X51418233Y-54740154D01*
X51413251Y-54742477D01*
X51308389Y-54815902D01*
X51230211Y-54870643D01*
X51230208Y-54870645D01*
X51225700Y-54873802D01*
X51063802Y-55035700D01*
X50932477Y-55223251D01*
X50930154Y-55228233D01*
X50930151Y-55228238D01*
X50838039Y-55425775D01*
X50835716Y-55430757D01*
X50776457Y-55651913D01*
X50756502Y-55880000D01*
X20828500Y-55880000D01*
X20828500Y-53340000D01*
X43136502Y-53340000D01*
X43156457Y-53568087D01*
X43215716Y-53789243D01*
X43218039Y-53794224D01*
X43218039Y-53794225D01*
X43310151Y-53991762D01*
X43310154Y-53991767D01*
X43312477Y-53996749D01*
X43443802Y-54184300D01*
X43605700Y-54346198D01*
X43610208Y-54349355D01*
X43610211Y-54349357D01*
X43688389Y-54404098D01*
X43793251Y-54477523D01*
X43798233Y-54479846D01*
X43798238Y-54479849D01*
X43995775Y-54571961D01*
X44000757Y-54574284D01*
X44006065Y-54575706D01*
X44006067Y-54575707D01*
X44216598Y-54632119D01*
X44216600Y-54632119D01*
X44221913Y-54633543D01*
X44450000Y-54653498D01*
X44678087Y-54633543D01*
X44683400Y-54632119D01*
X44683402Y-54632119D01*
X44893933Y-54575707D01*
X44893935Y-54575706D01*
X44899243Y-54574284D01*
X44904225Y-54571961D01*
X45101762Y-54479849D01*
X45101767Y-54479846D01*
X45106749Y-54477523D01*
X45211611Y-54404098D01*
X45289789Y-54349357D01*
X45289792Y-54349355D01*
X45294300Y-54346198D01*
X45456198Y-54184300D01*
X45587523Y-53996749D01*
X45589846Y-53991767D01*
X45589849Y-53991762D01*
X45681961Y-53794225D01*
X45681961Y-53794224D01*
X45684284Y-53789243D01*
X45743543Y-53568087D01*
X45763498Y-53340000D01*
X45743543Y-53111913D01*
X45684284Y-52890757D01*
X45681961Y-52885775D01*
X45589849Y-52688238D01*
X45589846Y-52688233D01*
X45587523Y-52683251D01*
X45456198Y-52495700D01*
X45294300Y-52333802D01*
X45289792Y-52330645D01*
X45289789Y-52330643D01*
X45211611Y-52275902D01*
X45106749Y-52202477D01*
X45101767Y-52200154D01*
X45101762Y-52200151D01*
X45067543Y-52184195D01*
X45014258Y-52137278D01*
X44994797Y-52069001D01*
X45015339Y-52001041D01*
X45067543Y-51955805D01*
X45101762Y-51939849D01*
X45101767Y-51939846D01*
X45106749Y-51937523D01*
X45235409Y-51847434D01*
X45289789Y-51809357D01*
X45289792Y-51809355D01*
X45294300Y-51806198D01*
X45456198Y-51644300D01*
X45587523Y-51456749D01*
X45589846Y-51451767D01*
X45589849Y-51451762D01*
X45681961Y-51254225D01*
X45681961Y-51254224D01*
X45684284Y-51249243D01*
X45694907Y-51209600D01*
X45742119Y-51033402D01*
X45742119Y-51033400D01*
X45743543Y-51028087D01*
X45763498Y-50800000D01*
X45743543Y-50571913D01*
X45726377Y-50507848D01*
X45685707Y-50356067D01*
X45685706Y-50356065D01*
X45684284Y-50350757D01*
X45613250Y-50198423D01*
X45589849Y-50148238D01*
X45589846Y-50148233D01*
X45587523Y-50143251D01*
X45456198Y-49955700D01*
X45294300Y-49793802D01*
X45289792Y-49790645D01*
X45289789Y-49790643D01*
X45211611Y-49735902D01*
X45106749Y-49662477D01*
X45101767Y-49660154D01*
X45101762Y-49660151D01*
X45067543Y-49644195D01*
X45014258Y-49597278D01*
X44994797Y-49529001D01*
X45015339Y-49461041D01*
X45067543Y-49415805D01*
X45101762Y-49399849D01*
X45101767Y-49399846D01*
X45106749Y-49397523D01*
X45235409Y-49307434D01*
X45289789Y-49269357D01*
X45289792Y-49269355D01*
X45294300Y-49266198D01*
X45456198Y-49104300D01*
X45587523Y-48916749D01*
X45589846Y-48911767D01*
X45589849Y-48911762D01*
X45681961Y-48714225D01*
X45681961Y-48714224D01*
X45684284Y-48709243D01*
X45694907Y-48669600D01*
X45742119Y-48493402D01*
X45742119Y-48493400D01*
X45743543Y-48488087D01*
X45763498Y-48260000D01*
X45743543Y-48031913D01*
X45726377Y-47967848D01*
X45685707Y-47816067D01*
X45685706Y-47816065D01*
X45684284Y-47810757D01*
X45613250Y-47658423D01*
X45589849Y-47608238D01*
X45589846Y-47608233D01*
X45587523Y-47603251D01*
X45456198Y-47415700D01*
X45294300Y-47253802D01*
X45289792Y-47250645D01*
X45289789Y-47250643D01*
X45211611Y-47195902D01*
X45106749Y-47122477D01*
X45101767Y-47120154D01*
X45101762Y-47120151D01*
X45067543Y-47104195D01*
X45014258Y-47057278D01*
X44994797Y-46989001D01*
X45015339Y-46921041D01*
X45067543Y-46875805D01*
X45101762Y-46859849D01*
X45101767Y-46859846D01*
X45106749Y-46857523D01*
X45235409Y-46767434D01*
X45289789Y-46729357D01*
X45289792Y-46729355D01*
X45294300Y-46726198D01*
X45456198Y-46564300D01*
X45587523Y-46376749D01*
X45589846Y-46371767D01*
X45589849Y-46371762D01*
X45681961Y-46174225D01*
X45681961Y-46174224D01*
X45684284Y-46169243D01*
X45694907Y-46129600D01*
X45742119Y-45953402D01*
X45742119Y-45953400D01*
X45743543Y-45948087D01*
X45763498Y-45720000D01*
X45743543Y-45491913D01*
X45726377Y-45427848D01*
X45685707Y-45276067D01*
X45685706Y-45276065D01*
X45684284Y-45270757D01*
X45613250Y-45118423D01*
X45589849Y-45068238D01*
X45589846Y-45068233D01*
X45587523Y-45063251D01*
X45456198Y-44875700D01*
X45294300Y-44713802D01*
X45289792Y-44710645D01*
X45289789Y-44710643D01*
X45211611Y-44655902D01*
X45106749Y-44582477D01*
X45101767Y-44580154D01*
X45101762Y-44580151D01*
X45067543Y-44564195D01*
X45014258Y-44517278D01*
X44994797Y-44449001D01*
X45015339Y-44381041D01*
X45067543Y-44335805D01*
X45101762Y-44319849D01*
X45101767Y-44319846D01*
X45106749Y-44317523D01*
X45235409Y-44227434D01*
X45289789Y-44189357D01*
X45289792Y-44189355D01*
X45294300Y-44186198D01*
X45456198Y-44024300D01*
X45587523Y-43836749D01*
X45589846Y-43831767D01*
X45589849Y-43831762D01*
X45681961Y-43634225D01*
X45681961Y-43634224D01*
X45684284Y-43629243D01*
X45694907Y-43589600D01*
X45742119Y-43413402D01*
X45742119Y-43413400D01*
X45743543Y-43408087D01*
X45763498Y-43180000D01*
X45743543Y-42951913D01*
X45726377Y-42887848D01*
X45685707Y-42736067D01*
X45685706Y-42736065D01*
X45684284Y-42730757D01*
X45613250Y-42578423D01*
X45589849Y-42528238D01*
X45589846Y-42528233D01*
X45587523Y-42523251D01*
X45456198Y-42335700D01*
X45294300Y-42173802D01*
X45289792Y-42170645D01*
X45289789Y-42170643D01*
X45211611Y-42115902D01*
X45106749Y-42042477D01*
X45101767Y-42040154D01*
X45101762Y-42040151D01*
X45067543Y-42024195D01*
X45014258Y-41977278D01*
X44994797Y-41909001D01*
X45015339Y-41841041D01*
X45067543Y-41795805D01*
X45101762Y-41779849D01*
X45101767Y-41779846D01*
X45106749Y-41777523D01*
X45248458Y-41678297D01*
X45289789Y-41649357D01*
X45289792Y-41649355D01*
X45294300Y-41646198D01*
X45456198Y-41484300D01*
X45587523Y-41296749D01*
X45589846Y-41291767D01*
X45589849Y-41291762D01*
X45681961Y-41094225D01*
X45681961Y-41094224D01*
X45684284Y-41089243D01*
X45743543Y-40868087D01*
X45763498Y-40640000D01*
X45743543Y-40411913D01*
X45684284Y-40190757D01*
X45681961Y-40185775D01*
X45589849Y-39988238D01*
X45589846Y-39988233D01*
X45587523Y-39983251D01*
X45456198Y-39795700D01*
X45294300Y-39633802D01*
X45289789Y-39630643D01*
X45285576Y-39627108D01*
X45286527Y-39625974D01*
X45246529Y-39575929D01*
X45239224Y-39505310D01*
X45271258Y-39441951D01*
X45332462Y-39405970D01*
X45349517Y-39402918D01*
X45360316Y-39401745D01*
X45496705Y-39350615D01*
X45613261Y-39263261D01*
X45700615Y-39146705D01*
X45751745Y-39010316D01*
X45758500Y-38948134D01*
X45758500Y-37251866D01*
X45751745Y-37189684D01*
X45700615Y-37053295D01*
X45613261Y-36936739D01*
X45496705Y-36849385D01*
X45360316Y-36798255D01*
X45298134Y-36791500D01*
X43601866Y-36791500D01*
X43539684Y-36798255D01*
X43403295Y-36849385D01*
X43286739Y-36936739D01*
X43199385Y-37053295D01*
X43148255Y-37189684D01*
X43141500Y-37251866D01*
X43141500Y-38948134D01*
X43148255Y-39010316D01*
X43199385Y-39146705D01*
X43286739Y-39263261D01*
X43403295Y-39350615D01*
X43539684Y-39401745D01*
X43550474Y-39402917D01*
X43552606Y-39403803D01*
X43555222Y-39404425D01*
X43555121Y-39404848D01*
X43616035Y-39430155D01*
X43656463Y-39488517D01*
X43658922Y-39559471D01*
X43622629Y-39620490D01*
X43613969Y-39627489D01*
X43610207Y-39630646D01*
X43605700Y-39633802D01*
X43443802Y-39795700D01*
X43312477Y-39983251D01*
X43310154Y-39988233D01*
X43310151Y-39988238D01*
X43218039Y-40185775D01*
X43215716Y-40190757D01*
X43156457Y-40411913D01*
X43136502Y-40640000D01*
X43156457Y-40868087D01*
X43215716Y-41089243D01*
X43218039Y-41094224D01*
X43218039Y-41094225D01*
X43310151Y-41291762D01*
X43310154Y-41291767D01*
X43312477Y-41296749D01*
X43443802Y-41484300D01*
X43605700Y-41646198D01*
X43610208Y-41649355D01*
X43610211Y-41649357D01*
X43651542Y-41678297D01*
X43793251Y-41777523D01*
X43798233Y-41779846D01*
X43798238Y-41779849D01*
X43832457Y-41795805D01*
X43885742Y-41842722D01*
X43905203Y-41910999D01*
X43884661Y-41978959D01*
X43832457Y-42024195D01*
X43798238Y-42040151D01*
X43798233Y-42040154D01*
X43793251Y-42042477D01*
X43688389Y-42115902D01*
X43610211Y-42170643D01*
X43610208Y-42170645D01*
X43605700Y-42173802D01*
X43443802Y-42335700D01*
X43312477Y-42523251D01*
X43310154Y-42528233D01*
X43310151Y-42528238D01*
X43286750Y-42578423D01*
X43215716Y-42730757D01*
X43214294Y-42736065D01*
X43214293Y-42736067D01*
X43173623Y-42887848D01*
X43156457Y-42951913D01*
X43136502Y-43180000D01*
X43156457Y-43408087D01*
X43157881Y-43413400D01*
X43157881Y-43413402D01*
X43205094Y-43589600D01*
X43215716Y-43629243D01*
X43218039Y-43634224D01*
X43218039Y-43634225D01*
X43310151Y-43831762D01*
X43310154Y-43831767D01*
X43312477Y-43836749D01*
X43443802Y-44024300D01*
X43605700Y-44186198D01*
X43610208Y-44189355D01*
X43610211Y-44189357D01*
X43664591Y-44227434D01*
X43793251Y-44317523D01*
X43798233Y-44319846D01*
X43798238Y-44319849D01*
X43832457Y-44335805D01*
X43885742Y-44382722D01*
X43905203Y-44450999D01*
X43884661Y-44518959D01*
X43832457Y-44564195D01*
X43798238Y-44580151D01*
X43798233Y-44580154D01*
X43793251Y-44582477D01*
X43688389Y-44655902D01*
X43610211Y-44710643D01*
X43610208Y-44710645D01*
X43605700Y-44713802D01*
X43443802Y-44875700D01*
X43312477Y-45063251D01*
X43310154Y-45068233D01*
X43310151Y-45068238D01*
X43286750Y-45118423D01*
X43215716Y-45270757D01*
X43214294Y-45276065D01*
X43214293Y-45276067D01*
X43173623Y-45427848D01*
X43156457Y-45491913D01*
X43136502Y-45720000D01*
X43156457Y-45948087D01*
X43157881Y-45953400D01*
X43157881Y-45953402D01*
X43205094Y-46129600D01*
X43215716Y-46169243D01*
X43218039Y-46174224D01*
X43218039Y-46174225D01*
X43310151Y-46371762D01*
X43310154Y-46371767D01*
X43312477Y-46376749D01*
X43443802Y-46564300D01*
X43605700Y-46726198D01*
X43610208Y-46729355D01*
X43610211Y-46729357D01*
X43664591Y-46767434D01*
X43793251Y-46857523D01*
X43798233Y-46859846D01*
X43798238Y-46859849D01*
X43832457Y-46875805D01*
X43885742Y-46922722D01*
X43905203Y-46990999D01*
X43884661Y-47058959D01*
X43832457Y-47104195D01*
X43798238Y-47120151D01*
X43798233Y-47120154D01*
X43793251Y-47122477D01*
X43688389Y-47195902D01*
X43610211Y-47250643D01*
X43610208Y-47250645D01*
X43605700Y-47253802D01*
X43443802Y-47415700D01*
X43312477Y-47603251D01*
X43310154Y-47608233D01*
X43310151Y-47608238D01*
X43286750Y-47658423D01*
X43215716Y-47810757D01*
X43214294Y-47816065D01*
X43214293Y-47816067D01*
X43173623Y-47967848D01*
X43156457Y-48031913D01*
X43136502Y-48260000D01*
X43156457Y-48488087D01*
X43157881Y-48493400D01*
X43157881Y-48493402D01*
X43205094Y-48669600D01*
X43215716Y-48709243D01*
X43218039Y-48714224D01*
X43218039Y-48714225D01*
X43310151Y-48911762D01*
X43310154Y-48911767D01*
X43312477Y-48916749D01*
X43443802Y-49104300D01*
X43605700Y-49266198D01*
X43610208Y-49269355D01*
X43610211Y-49269357D01*
X43664591Y-49307434D01*
X43793251Y-49397523D01*
X43798233Y-49399846D01*
X43798238Y-49399849D01*
X43832457Y-49415805D01*
X43885742Y-49462722D01*
X43905203Y-49530999D01*
X43884661Y-49598959D01*
X43832457Y-49644195D01*
X43798238Y-49660151D01*
X43798233Y-49660154D01*
X43793251Y-49662477D01*
X43688389Y-49735902D01*
X43610211Y-49790643D01*
X43610208Y-49790645D01*
X43605700Y-49793802D01*
X43443802Y-49955700D01*
X43312477Y-50143251D01*
X43310154Y-50148233D01*
X43310151Y-50148238D01*
X43286750Y-50198423D01*
X43215716Y-50350757D01*
X43214294Y-50356065D01*
X43214293Y-50356067D01*
X43173623Y-50507848D01*
X43156457Y-50571913D01*
X43136502Y-50800000D01*
X43156457Y-51028087D01*
X43157881Y-51033400D01*
X43157881Y-51033402D01*
X43205094Y-51209600D01*
X43215716Y-51249243D01*
X43218039Y-51254224D01*
X43218039Y-51254225D01*
X43310151Y-51451762D01*
X43310154Y-51451767D01*
X43312477Y-51456749D01*
X43443802Y-51644300D01*
X43605700Y-51806198D01*
X43610208Y-51809355D01*
X43610211Y-51809357D01*
X43664591Y-51847434D01*
X43793251Y-51937523D01*
X43798233Y-51939846D01*
X43798238Y-51939849D01*
X43832457Y-51955805D01*
X43885742Y-52002722D01*
X43905203Y-52070999D01*
X43884661Y-52138959D01*
X43832457Y-52184195D01*
X43798238Y-52200151D01*
X43798233Y-52200154D01*
X43793251Y-52202477D01*
X43688389Y-52275902D01*
X43610211Y-52330643D01*
X43610208Y-52330645D01*
X43605700Y-52333802D01*
X43443802Y-52495700D01*
X43312477Y-52683251D01*
X43310154Y-52688233D01*
X43310151Y-52688238D01*
X43218039Y-52885775D01*
X43215716Y-52890757D01*
X43156457Y-53111913D01*
X43136502Y-53340000D01*
X20828500Y-53340000D01*
X20828500Y-50800000D01*
X30436502Y-50800000D01*
X30456457Y-51028087D01*
X30457881Y-51033400D01*
X30457881Y-51033402D01*
X30505094Y-51209600D01*
X30515716Y-51249243D01*
X30518039Y-51254224D01*
X30518039Y-51254225D01*
X30610151Y-51451762D01*
X30610154Y-51451767D01*
X30612477Y-51456749D01*
X30743802Y-51644300D01*
X30905700Y-51806198D01*
X30910208Y-51809355D01*
X30910211Y-51809357D01*
X30964591Y-51847434D01*
X31093251Y-51937523D01*
X31098233Y-51939846D01*
X31098238Y-51939849D01*
X31295775Y-52031961D01*
X31300757Y-52034284D01*
X31306065Y-52035706D01*
X31306067Y-52035707D01*
X31516598Y-52092119D01*
X31516600Y-52092119D01*
X31521913Y-52093543D01*
X31750000Y-52113498D01*
X31978087Y-52093543D01*
X31983400Y-52092119D01*
X31983402Y-52092119D01*
X32193933Y-52035707D01*
X32193935Y-52035706D01*
X32199243Y-52034284D01*
X32204225Y-52031961D01*
X32401762Y-51939849D01*
X32401767Y-51939846D01*
X32406749Y-51937523D01*
X32535409Y-51847434D01*
X32589789Y-51809357D01*
X32589792Y-51809355D01*
X32594300Y-51806198D01*
X32756198Y-51644300D01*
X32887523Y-51456749D01*
X32889846Y-51451767D01*
X32889849Y-51451762D01*
X32984284Y-51249243D01*
X32985589Y-51249851D01*
X33023660Y-51198151D01*
X33089983Y-51172818D01*
X33159474Y-51187362D01*
X33210070Y-51237168D01*
X33214149Y-51245159D01*
X33289411Y-51406558D01*
X33410699Y-51579776D01*
X33560224Y-51729301D01*
X33733442Y-51850589D01*
X33738420Y-51852910D01*
X33738423Y-51852912D01*
X33913102Y-51934366D01*
X33925090Y-51939956D01*
X33930398Y-51941378D01*
X33930400Y-51941379D01*
X34124030Y-51993262D01*
X34124032Y-51993262D01*
X34129345Y-51994686D01*
X34340000Y-52013116D01*
X34550655Y-51994686D01*
X34555968Y-51993262D01*
X34555970Y-51993262D01*
X34749600Y-51941379D01*
X34749602Y-51941378D01*
X34754910Y-51939956D01*
X34766898Y-51934366D01*
X34941577Y-51852912D01*
X34941580Y-51852910D01*
X34946558Y-51850589D01*
X35119776Y-51729301D01*
X35269301Y-51579776D01*
X35390589Y-51406558D01*
X35466423Y-51243933D01*
X35477633Y-51219892D01*
X35477634Y-51219891D01*
X35479956Y-51214910D01*
X35487338Y-51187362D01*
X35488293Y-51183796D01*
X35525245Y-51123173D01*
X35589106Y-51092152D01*
X35659600Y-51100580D01*
X35714347Y-51145783D01*
X35731707Y-51183796D01*
X35732663Y-51187362D01*
X35740044Y-51214910D01*
X35742366Y-51219891D01*
X35742367Y-51219892D01*
X35753578Y-51243933D01*
X35829411Y-51406558D01*
X35950699Y-51579776D01*
X36100224Y-51729301D01*
X36273442Y-51850589D01*
X36278420Y-51852910D01*
X36278423Y-51852912D01*
X36453102Y-51934366D01*
X36465090Y-51939956D01*
X36470398Y-51941378D01*
X36470400Y-51941379D01*
X36664030Y-51993262D01*
X36664032Y-51993262D01*
X36669345Y-51994686D01*
X36880000Y-52013116D01*
X37090655Y-51994686D01*
X37095968Y-51993262D01*
X37095970Y-51993262D01*
X37289600Y-51941379D01*
X37289602Y-51941378D01*
X37294910Y-51939956D01*
X37306898Y-51934366D01*
X37481577Y-51852912D01*
X37481580Y-51852910D01*
X37486558Y-51850589D01*
X37659776Y-51729301D01*
X37809301Y-51579776D01*
X37930589Y-51406558D01*
X37965636Y-51331400D01*
X38012554Y-51278115D01*
X38080831Y-51258654D01*
X38148791Y-51279196D01*
X38194026Y-51331400D01*
X38250151Y-51451762D01*
X38250154Y-51451767D01*
X38252477Y-51456749D01*
X38383802Y-51644300D01*
X38545700Y-51806198D01*
X38550208Y-51809355D01*
X38550211Y-51809357D01*
X38604591Y-51847434D01*
X38733251Y-51937523D01*
X38738233Y-51939846D01*
X38738238Y-51939849D01*
X38935775Y-52031961D01*
X38940757Y-52034284D01*
X38946065Y-52035706D01*
X38946067Y-52035707D01*
X39156598Y-52092119D01*
X39156600Y-52092119D01*
X39161913Y-52093543D01*
X39390000Y-52113498D01*
X39618087Y-52093543D01*
X39623400Y-52092119D01*
X39623402Y-52092119D01*
X39833933Y-52035707D01*
X39833935Y-52035706D01*
X39839243Y-52034284D01*
X39844225Y-52031961D01*
X40041762Y-51939849D01*
X40041767Y-51939846D01*
X40046749Y-51937523D01*
X40175409Y-51847434D01*
X40229789Y-51809357D01*
X40229792Y-51809355D01*
X40234300Y-51806198D01*
X40396198Y-51644300D01*
X40527523Y-51456749D01*
X40529846Y-51451767D01*
X40529849Y-51451762D01*
X40621961Y-51254225D01*
X40621961Y-51254224D01*
X40624284Y-51249243D01*
X40634907Y-51209600D01*
X40682119Y-51033402D01*
X40682119Y-51033400D01*
X40683543Y-51028087D01*
X40703498Y-50800000D01*
X40683543Y-50571913D01*
X40666377Y-50507848D01*
X40625707Y-50356067D01*
X40625706Y-50356065D01*
X40624284Y-50350757D01*
X40553250Y-50198423D01*
X40529849Y-50148238D01*
X40529846Y-50148233D01*
X40527523Y-50143251D01*
X40396198Y-49955700D01*
X40234300Y-49793802D01*
X40229792Y-49790645D01*
X40229789Y-49790643D01*
X40151611Y-49735902D01*
X40046749Y-49662477D01*
X40041767Y-49660154D01*
X40041762Y-49660151D01*
X39997543Y-49639532D01*
X39944258Y-49592615D01*
X39924797Y-49524338D01*
X39945339Y-49456378D01*
X39997543Y-49411142D01*
X40021762Y-49399849D01*
X40021767Y-49399846D01*
X40026749Y-49397523D01*
X40155409Y-49307434D01*
X40209789Y-49269357D01*
X40209792Y-49269355D01*
X40214300Y-49266198D01*
X40376198Y-49104300D01*
X40507523Y-48916749D01*
X40509846Y-48911767D01*
X40509849Y-48911762D01*
X40601961Y-48714225D01*
X40601961Y-48714224D01*
X40604284Y-48709243D01*
X40614907Y-48669600D01*
X40662119Y-48493402D01*
X40662119Y-48493400D01*
X40663543Y-48488087D01*
X40683498Y-48260000D01*
X40663543Y-48031913D01*
X40646377Y-47967848D01*
X40605707Y-47816067D01*
X40605706Y-47816065D01*
X40604284Y-47810757D01*
X40533250Y-47658423D01*
X40509849Y-47608238D01*
X40509846Y-47608233D01*
X40507523Y-47603251D01*
X40376198Y-47415700D01*
X40214300Y-47253802D01*
X40209792Y-47250645D01*
X40209789Y-47250643D01*
X40131611Y-47195902D01*
X40026749Y-47122477D01*
X40021767Y-47120154D01*
X40021762Y-47120151D01*
X40007543Y-47113521D01*
X39954258Y-47066603D01*
X39934797Y-46998326D01*
X39955339Y-46930366D01*
X40007543Y-46885131D01*
X40061762Y-46859849D01*
X40061767Y-46859846D01*
X40066749Y-46857523D01*
X40195409Y-46767434D01*
X40249789Y-46729357D01*
X40249792Y-46729355D01*
X40254300Y-46726198D01*
X40416198Y-46564300D01*
X40547523Y-46376749D01*
X40549846Y-46371767D01*
X40549849Y-46371762D01*
X40641961Y-46174225D01*
X40641961Y-46174224D01*
X40644284Y-46169243D01*
X40654907Y-46129600D01*
X40702119Y-45953402D01*
X40702119Y-45953400D01*
X40703543Y-45948087D01*
X40723498Y-45720000D01*
X40703543Y-45491913D01*
X40686377Y-45427848D01*
X40645707Y-45276067D01*
X40645706Y-45276065D01*
X40644284Y-45270757D01*
X40573250Y-45118423D01*
X40549849Y-45068238D01*
X40549846Y-45068233D01*
X40547523Y-45063251D01*
X40416198Y-44875700D01*
X40254300Y-44713802D01*
X40249792Y-44710645D01*
X40249789Y-44710643D01*
X40171611Y-44655902D01*
X40066749Y-44582477D01*
X40061767Y-44580154D01*
X40061762Y-44580151D01*
X40017543Y-44559532D01*
X39964258Y-44512615D01*
X39944797Y-44444338D01*
X39965339Y-44376378D01*
X40017543Y-44331142D01*
X40041762Y-44319849D01*
X40041767Y-44319846D01*
X40046749Y-44317523D01*
X40175409Y-44227434D01*
X40229789Y-44189357D01*
X40229792Y-44189355D01*
X40234300Y-44186198D01*
X40396198Y-44024300D01*
X40527523Y-43836749D01*
X40529846Y-43831767D01*
X40529849Y-43831762D01*
X40621961Y-43634225D01*
X40621961Y-43634224D01*
X40624284Y-43629243D01*
X40634907Y-43589600D01*
X40682119Y-43413402D01*
X40682119Y-43413400D01*
X40683543Y-43408087D01*
X40703498Y-43180000D01*
X40683543Y-42951913D01*
X40666377Y-42887848D01*
X40625707Y-42736067D01*
X40625706Y-42736065D01*
X40624284Y-42730757D01*
X40553250Y-42578423D01*
X40529849Y-42528238D01*
X40529846Y-42528233D01*
X40527523Y-42523251D01*
X40396198Y-42335700D01*
X40234300Y-42173802D01*
X40229792Y-42170645D01*
X40229789Y-42170643D01*
X40151611Y-42115902D01*
X40046749Y-42042477D01*
X40041767Y-42040154D01*
X40041762Y-42040151D01*
X39844225Y-41948039D01*
X39844224Y-41948039D01*
X39839243Y-41945716D01*
X39833935Y-41944294D01*
X39833933Y-41944293D01*
X39623402Y-41887881D01*
X39623400Y-41887881D01*
X39618087Y-41886457D01*
X39390000Y-41866502D01*
X39161913Y-41886457D01*
X39156600Y-41887881D01*
X39156598Y-41887881D01*
X38946067Y-41944293D01*
X38946065Y-41944294D01*
X38940757Y-41945716D01*
X38935776Y-41948039D01*
X38935775Y-41948039D01*
X38738238Y-42040151D01*
X38738233Y-42040154D01*
X38733251Y-42042477D01*
X38628389Y-42115902D01*
X38550211Y-42170643D01*
X38550208Y-42170645D01*
X38545700Y-42173802D01*
X38383802Y-42335700D01*
X38252477Y-42523251D01*
X38250154Y-42528233D01*
X38250151Y-42528238D01*
X38194026Y-42648600D01*
X38147109Y-42701885D01*
X38078832Y-42721346D01*
X38010872Y-42700804D01*
X37965636Y-42648600D01*
X37932912Y-42578423D01*
X37932910Y-42578420D01*
X37930589Y-42573442D01*
X37809301Y-42400224D01*
X37659776Y-42250699D01*
X37486558Y-42129411D01*
X37481580Y-42127090D01*
X37481577Y-42127088D01*
X37299892Y-42042367D01*
X37299891Y-42042366D01*
X37294910Y-42040044D01*
X37289602Y-42038622D01*
X37289600Y-42038621D01*
X37095970Y-41986738D01*
X37095968Y-41986738D01*
X37090655Y-41985314D01*
X36880000Y-41966884D01*
X36669345Y-41985314D01*
X36664032Y-41986738D01*
X36664030Y-41986738D01*
X36470400Y-42038621D01*
X36470398Y-42038622D01*
X36465090Y-42040044D01*
X36460109Y-42042366D01*
X36460108Y-42042367D01*
X36278423Y-42127088D01*
X36278420Y-42127090D01*
X36273442Y-42129411D01*
X36100224Y-42250699D01*
X35950699Y-42400224D01*
X35829411Y-42573442D01*
X35827090Y-42578420D01*
X35827088Y-42578423D01*
X35750423Y-42742832D01*
X35740044Y-42765090D01*
X35738622Y-42770398D01*
X35738621Y-42770400D01*
X35731707Y-42796204D01*
X35694755Y-42856827D01*
X35630894Y-42887848D01*
X35560400Y-42879420D01*
X35505653Y-42834217D01*
X35488293Y-42796204D01*
X35481379Y-42770400D01*
X35481378Y-42770398D01*
X35479956Y-42765090D01*
X35469577Y-42742832D01*
X35392912Y-42578423D01*
X35392910Y-42578420D01*
X35390589Y-42573442D01*
X35269301Y-42400224D01*
X35119776Y-42250699D01*
X34946558Y-42129411D01*
X34941580Y-42127090D01*
X34941577Y-42127088D01*
X34759892Y-42042367D01*
X34759891Y-42042366D01*
X34754910Y-42040044D01*
X34749602Y-42038622D01*
X34749600Y-42038621D01*
X34555970Y-41986738D01*
X34555968Y-41986738D01*
X34550655Y-41985314D01*
X34340000Y-41966884D01*
X34129345Y-41985314D01*
X34124032Y-41986738D01*
X34124030Y-41986738D01*
X33930400Y-42038621D01*
X33930398Y-42038622D01*
X33925090Y-42040044D01*
X33920109Y-42042366D01*
X33920108Y-42042367D01*
X33738423Y-42127088D01*
X33738420Y-42127090D01*
X33733442Y-42129411D01*
X33560224Y-42250699D01*
X33410699Y-42400224D01*
X33289411Y-42573442D01*
X33214155Y-42734829D01*
X33167239Y-42788113D01*
X33098962Y-42807574D01*
X33031002Y-42787032D01*
X32984936Y-42733010D01*
X32984793Y-42732658D01*
X32984284Y-42730757D01*
X32913250Y-42578423D01*
X32889849Y-42528238D01*
X32889846Y-42528233D01*
X32887523Y-42523251D01*
X32756198Y-42335700D01*
X32594300Y-42173802D01*
X32589789Y-42170643D01*
X32585576Y-42167108D01*
X32586527Y-42165974D01*
X32546529Y-42115929D01*
X32539224Y-42045310D01*
X32571258Y-41981951D01*
X32632462Y-41945970D01*
X32649517Y-41942918D01*
X32660316Y-41941745D01*
X32796705Y-41890615D01*
X32913261Y-41803261D01*
X33000615Y-41686705D01*
X33051745Y-41550316D01*
X33058500Y-41488134D01*
X33058500Y-39791866D01*
X33051745Y-39729684D01*
X33000615Y-39593295D01*
X32913261Y-39476739D01*
X32796705Y-39389385D01*
X32660316Y-39338255D01*
X32598134Y-39331500D01*
X30901866Y-39331500D01*
X30839684Y-39338255D01*
X30703295Y-39389385D01*
X30586739Y-39476739D01*
X30499385Y-39593295D01*
X30448255Y-39729684D01*
X30441500Y-39791866D01*
X30441500Y-41488134D01*
X30448255Y-41550316D01*
X30499385Y-41686705D01*
X30586739Y-41803261D01*
X30703295Y-41890615D01*
X30839684Y-41941745D01*
X30850474Y-41942917D01*
X30852606Y-41943803D01*
X30855222Y-41944425D01*
X30855121Y-41944848D01*
X30916035Y-41970155D01*
X30956463Y-42028517D01*
X30958922Y-42099471D01*
X30922629Y-42160490D01*
X30913969Y-42167489D01*
X30910207Y-42170646D01*
X30905700Y-42173802D01*
X30743802Y-42335700D01*
X30612477Y-42523251D01*
X30610154Y-42528233D01*
X30610151Y-42528238D01*
X30586750Y-42578423D01*
X30515716Y-42730757D01*
X30514294Y-42736065D01*
X30514293Y-42736067D01*
X30473623Y-42887848D01*
X30456457Y-42951913D01*
X30436502Y-43180000D01*
X30456457Y-43408087D01*
X30457881Y-43413400D01*
X30457881Y-43413402D01*
X30505094Y-43589600D01*
X30515716Y-43629243D01*
X30518039Y-43634224D01*
X30518039Y-43634225D01*
X30610151Y-43831762D01*
X30610154Y-43831767D01*
X30612477Y-43836749D01*
X30743802Y-44024300D01*
X30905700Y-44186198D01*
X30910208Y-44189355D01*
X30910211Y-44189357D01*
X30964591Y-44227434D01*
X31093251Y-44317523D01*
X31098233Y-44319846D01*
X31098238Y-44319849D01*
X31132457Y-44335805D01*
X31185742Y-44382722D01*
X31205203Y-44450999D01*
X31184661Y-44518959D01*
X31132457Y-44564195D01*
X31098238Y-44580151D01*
X31098233Y-44580154D01*
X31093251Y-44582477D01*
X30988389Y-44655902D01*
X30910211Y-44710643D01*
X30910208Y-44710645D01*
X30905700Y-44713802D01*
X30743802Y-44875700D01*
X30612477Y-45063251D01*
X30610154Y-45068233D01*
X30610151Y-45068238D01*
X30586750Y-45118423D01*
X30515716Y-45270757D01*
X30514294Y-45276065D01*
X30514293Y-45276067D01*
X30473623Y-45427848D01*
X30456457Y-45491913D01*
X30436502Y-45720000D01*
X30456457Y-45948087D01*
X30457881Y-45953400D01*
X30457881Y-45953402D01*
X30505094Y-46129600D01*
X30515716Y-46169243D01*
X30518039Y-46174224D01*
X30518039Y-46174225D01*
X30610151Y-46371762D01*
X30610154Y-46371767D01*
X30612477Y-46376749D01*
X30743802Y-46564300D01*
X30905700Y-46726198D01*
X30910208Y-46729355D01*
X30910211Y-46729357D01*
X30964591Y-46767434D01*
X31093251Y-46857523D01*
X31098233Y-46859846D01*
X31098238Y-46859849D01*
X31132457Y-46875805D01*
X31185742Y-46922722D01*
X31205203Y-46990999D01*
X31184661Y-47058959D01*
X31132457Y-47104195D01*
X31098238Y-47120151D01*
X31098233Y-47120154D01*
X31093251Y-47122477D01*
X30988389Y-47195902D01*
X30910211Y-47250643D01*
X30910208Y-47250645D01*
X30905700Y-47253802D01*
X30743802Y-47415700D01*
X30612477Y-47603251D01*
X30610154Y-47608233D01*
X30610151Y-47608238D01*
X30586750Y-47658423D01*
X30515716Y-47810757D01*
X30514294Y-47816065D01*
X30514293Y-47816067D01*
X30473623Y-47967848D01*
X30456457Y-48031913D01*
X30436502Y-48260000D01*
X30456457Y-48488087D01*
X30457881Y-48493400D01*
X30457881Y-48493402D01*
X30505094Y-48669600D01*
X30515716Y-48709243D01*
X30518039Y-48714224D01*
X30518039Y-48714225D01*
X30610151Y-48911762D01*
X30610154Y-48911767D01*
X30612477Y-48916749D01*
X30743802Y-49104300D01*
X30905700Y-49266198D01*
X30910208Y-49269355D01*
X30910211Y-49269357D01*
X30964591Y-49307434D01*
X31093251Y-49397523D01*
X31098233Y-49399846D01*
X31098238Y-49399849D01*
X31132457Y-49415805D01*
X31185742Y-49462722D01*
X31205203Y-49530999D01*
X31184661Y-49598959D01*
X31132457Y-49644195D01*
X31098238Y-49660151D01*
X31098233Y-49660154D01*
X31093251Y-49662477D01*
X30988389Y-49735902D01*
X30910211Y-49790643D01*
X30910208Y-49790645D01*
X30905700Y-49793802D01*
X30743802Y-49955700D01*
X30612477Y-50143251D01*
X30610154Y-50148233D01*
X30610151Y-50148238D01*
X30586750Y-50198423D01*
X30515716Y-50350757D01*
X30514294Y-50356065D01*
X30514293Y-50356067D01*
X30473623Y-50507848D01*
X30456457Y-50571913D01*
X30436502Y-50800000D01*
X20828500Y-50800000D01*
X20828500Y-38734500D01*
X20848502Y-38666379D01*
X20902158Y-38619886D01*
X20954500Y-38608500D01*
X29201377Y-38608500D01*
X29202148Y-38608502D01*
X29279721Y-38608976D01*
X29308152Y-38600850D01*
X29324915Y-38597272D01*
X29325753Y-38597152D01*
X29354187Y-38593080D01*
X29377564Y-38582451D01*
X29395087Y-38576004D01*
X29419771Y-38568949D01*
X29427365Y-38564157D01*
X29427368Y-38564156D01*
X29444780Y-38553170D01*
X29459865Y-38545030D01*
X29462278Y-38543933D01*
X29486782Y-38532792D01*
X29506235Y-38516030D01*
X29521239Y-38504927D01*
X29542958Y-38491224D01*
X29548897Y-38484499D01*
X29548901Y-38484496D01*
X29562532Y-38469062D01*
X29574724Y-38457018D01*
X29590327Y-38443573D01*
X29590329Y-38443570D01*
X29597127Y-38437713D01*
X29611094Y-38416165D01*
X29622385Y-38401291D01*
X29633431Y-38388783D01*
X29633432Y-38388782D01*
X29639378Y-38382049D01*
X29651943Y-38355287D01*
X29660263Y-38340309D01*
X29671471Y-38323017D01*
X29671473Y-38323012D01*
X29676352Y-38315485D01*
X29678922Y-38306892D01*
X29678924Y-38306887D01*
X29683711Y-38290880D01*
X29690372Y-38273436D01*
X29697467Y-38258324D01*
X29697468Y-38258322D01*
X29701281Y-38250200D01*
X29705830Y-38220983D01*
X29709613Y-38204268D01*
X29715515Y-38184534D01*
X29715516Y-38184528D01*
X29718086Y-38175934D01*
X29718296Y-38141494D01*
X29718329Y-38140711D01*
X29718500Y-38139614D01*
X29718500Y-38108623D01*
X29718502Y-38107853D01*
X29718952Y-38034215D01*
X29718952Y-38034214D01*
X29718976Y-38030279D01*
X29718592Y-38028935D01*
X29718500Y-38027590D01*
X29718500Y-35548640D01*
X39826463Y-35548640D01*
X39844163Y-35729160D01*
X39901418Y-35901273D01*
X39905065Y-35907295D01*
X39905066Y-35907297D01*
X39915975Y-35925309D01*
X39995380Y-36056424D01*
X40121382Y-36186902D01*
X40273159Y-36286222D01*
X40279763Y-36288678D01*
X40279765Y-36288679D01*
X40436558Y-36346990D01*
X40436560Y-36346990D01*
X40443168Y-36349448D01*
X40526995Y-36360633D01*
X40615980Y-36372507D01*
X40615984Y-36372507D01*
X40622961Y-36373438D01*
X40629972Y-36372800D01*
X40629976Y-36372800D01*
X40772459Y-36359832D01*
X40803600Y-36356998D01*
X40810302Y-36354820D01*
X40810304Y-36354820D01*
X40969409Y-36303124D01*
X40969412Y-36303123D01*
X40976108Y-36300947D01*
X41131912Y-36208069D01*
X41263266Y-36082982D01*
X41363643Y-35931902D01*
X41366143Y-35925320D01*
X41366149Y-35925309D01*
X41368059Y-35920280D01*
X41396751Y-35875930D01*
X41552276Y-35720405D01*
X41614588Y-35686379D01*
X41641371Y-35683500D01*
X51068629Y-35683500D01*
X51136750Y-35703502D01*
X51157724Y-35720405D01*
X51274595Y-35837276D01*
X51308621Y-35899588D01*
X51311500Y-35926371D01*
X51311500Y-36968133D01*
X51291498Y-37036254D01*
X51257772Y-37071345D01*
X51225700Y-37093802D01*
X51063802Y-37255700D01*
X50932477Y-37443251D01*
X50930154Y-37448233D01*
X50930151Y-37448238D01*
X50848376Y-37623608D01*
X50835716Y-37650757D01*
X50834294Y-37656065D01*
X50834293Y-37656067D01*
X50796617Y-37796674D01*
X50776457Y-37871913D01*
X50756502Y-38100000D01*
X50776457Y-38328087D01*
X50777881Y-38333400D01*
X50777881Y-38333402D01*
X50828800Y-38523431D01*
X50835716Y-38549243D01*
X50838039Y-38554224D01*
X50838039Y-38554225D01*
X50930151Y-38751762D01*
X50930154Y-38751767D01*
X50932477Y-38756749D01*
X51063802Y-38944300D01*
X51225700Y-39106198D01*
X51230208Y-39109355D01*
X51230211Y-39109357D01*
X51268667Y-39136284D01*
X51413251Y-39237523D01*
X51418233Y-39239846D01*
X51418238Y-39239849D01*
X51615578Y-39331869D01*
X51620757Y-39334284D01*
X51626065Y-39335706D01*
X51626067Y-39335707D01*
X51836598Y-39392119D01*
X51836600Y-39392119D01*
X51841913Y-39393543D01*
X52070000Y-39413498D01*
X52298087Y-39393543D01*
X52303400Y-39392119D01*
X52303402Y-39392119D01*
X52513933Y-39335707D01*
X52513935Y-39335706D01*
X52519243Y-39334284D01*
X52524422Y-39331869D01*
X52721762Y-39239849D01*
X52721767Y-39239846D01*
X52726749Y-39237523D01*
X52871333Y-39136284D01*
X52909789Y-39109357D01*
X52909792Y-39109355D01*
X52914300Y-39106198D01*
X53076198Y-38944300D01*
X53207523Y-38756749D01*
X53209846Y-38751767D01*
X53209849Y-38751762D01*
X53225805Y-38717543D01*
X53272722Y-38664258D01*
X53340999Y-38644797D01*
X53408959Y-38665339D01*
X53454195Y-38717543D01*
X53470151Y-38751762D01*
X53470154Y-38751767D01*
X53472477Y-38756749D01*
X53603802Y-38944300D01*
X53765700Y-39106198D01*
X53770208Y-39109355D01*
X53770211Y-39109357D01*
X53808667Y-39136284D01*
X53953251Y-39237523D01*
X53958233Y-39239846D01*
X53958238Y-39239849D01*
X54155578Y-39331869D01*
X54160757Y-39334284D01*
X54166065Y-39335706D01*
X54166067Y-39335707D01*
X54376598Y-39392119D01*
X54376600Y-39392119D01*
X54381913Y-39393543D01*
X54610000Y-39413498D01*
X54838087Y-39393543D01*
X54843400Y-39392119D01*
X54843402Y-39392119D01*
X55053933Y-39335707D01*
X55053935Y-39335706D01*
X55059243Y-39334284D01*
X55064422Y-39331869D01*
X55261762Y-39239849D01*
X55261767Y-39239846D01*
X55266749Y-39237523D01*
X55411333Y-39136284D01*
X55449789Y-39109357D01*
X55449792Y-39109355D01*
X55454300Y-39106198D01*
X55616198Y-38944300D01*
X55747523Y-38756749D01*
X55749846Y-38751767D01*
X55749849Y-38751762D01*
X55841961Y-38554225D01*
X55841961Y-38554224D01*
X55844284Y-38549243D01*
X55851201Y-38523431D01*
X55902119Y-38333402D01*
X55902119Y-38333400D01*
X55903543Y-38328087D01*
X55923498Y-38100000D01*
X55903543Y-37871913D01*
X55883383Y-37796674D01*
X55845707Y-37656067D01*
X55845706Y-37656065D01*
X55844284Y-37650757D01*
X55831624Y-37623608D01*
X55749849Y-37448238D01*
X55749846Y-37448233D01*
X55747523Y-37443251D01*
X55616198Y-37255700D01*
X55454300Y-37093802D01*
X55449792Y-37090645D01*
X55449789Y-37090643D01*
X55343030Y-37015890D01*
X55266749Y-36962477D01*
X55261767Y-36960154D01*
X55261762Y-36960151D01*
X55064225Y-36868039D01*
X55064224Y-36868039D01*
X55059243Y-36865716D01*
X55053935Y-36864294D01*
X55053933Y-36864293D01*
X54843402Y-36807881D01*
X54843400Y-36807881D01*
X54838087Y-36806457D01*
X54610000Y-36786502D01*
X54381913Y-36806457D01*
X54376600Y-36807881D01*
X54376598Y-36807881D01*
X54166067Y-36864293D01*
X54166065Y-36864294D01*
X54160757Y-36865716D01*
X54155776Y-36868039D01*
X54155775Y-36868039D01*
X53958238Y-36960151D01*
X53958233Y-36960154D01*
X53953251Y-36962477D01*
X53876970Y-37015890D01*
X53770211Y-37090643D01*
X53770208Y-37090645D01*
X53765700Y-37093802D01*
X53603802Y-37255700D01*
X53472477Y-37443251D01*
X53470154Y-37448233D01*
X53470151Y-37448238D01*
X53454195Y-37482457D01*
X53407278Y-37535742D01*
X53339001Y-37555203D01*
X53271041Y-37534661D01*
X53225805Y-37482457D01*
X53209849Y-37448238D01*
X53209846Y-37448233D01*
X53207523Y-37443251D01*
X53076198Y-37255700D01*
X52914300Y-37093802D01*
X52882229Y-37071345D01*
X52837901Y-37015890D01*
X52828500Y-36968133D01*
X52828500Y-35627070D01*
X52829933Y-35608120D01*
X52832099Y-35593885D01*
X52832099Y-35593881D01*
X52833199Y-35586651D01*
X52828915Y-35533982D01*
X52828500Y-35523767D01*
X52828500Y-35515707D01*
X52825209Y-35487480D01*
X52824778Y-35483121D01*
X52819454Y-35417662D01*
X52819453Y-35417659D01*
X52818860Y-35410364D01*
X52816604Y-35403400D01*
X52815417Y-35397461D01*
X52814030Y-35391590D01*
X52813182Y-35384319D01*
X52810686Y-35377443D01*
X52810684Y-35377434D01*
X52788275Y-35315702D01*
X52786865Y-35311598D01*
X52764352Y-35242101D01*
X52760556Y-35235846D01*
X52758057Y-35230387D01*
X52755329Y-35224939D01*
X52752833Y-35218063D01*
X52712805Y-35157010D01*
X52710481Y-35153327D01*
X52675500Y-35095680D01*
X52675499Y-35095679D01*
X52672595Y-35090893D01*
X52665198Y-35082517D01*
X52665225Y-35082493D01*
X52662570Y-35079499D01*
X52659868Y-35076268D01*
X52655856Y-35070148D01*
X52599617Y-35016872D01*
X52597175Y-35014494D01*
X52018770Y-34436089D01*
X52006384Y-34421677D01*
X51997851Y-34410082D01*
X51997846Y-34410077D01*
X51993508Y-34404182D01*
X51987930Y-34399443D01*
X51987927Y-34399440D01*
X51953232Y-34369965D01*
X51945716Y-34363035D01*
X51940021Y-34357340D01*
X51923736Y-34344456D01*
X51917749Y-34339719D01*
X51914345Y-34336928D01*
X51864297Y-34294409D01*
X51864295Y-34294408D01*
X51858715Y-34289667D01*
X51852199Y-34286339D01*
X51847150Y-34282972D01*
X51842021Y-34279805D01*
X51836284Y-34275266D01*
X51770125Y-34244345D01*
X51766225Y-34242439D01*
X51701192Y-34209231D01*
X51694084Y-34207492D01*
X51688441Y-34205393D01*
X51682678Y-34203476D01*
X51676050Y-34200378D01*
X51604583Y-34185513D01*
X51600299Y-34184543D01*
X51529390Y-34167192D01*
X51523788Y-34166844D01*
X51523785Y-34166844D01*
X51518236Y-34166500D01*
X51518238Y-34166464D01*
X51514245Y-34166225D01*
X51510053Y-34165851D01*
X51502885Y-34164360D01*
X51439120Y-34166085D01*
X51425479Y-34166454D01*
X51422072Y-34166500D01*
X41342070Y-34166500D01*
X41323120Y-34165067D01*
X41308885Y-34162901D01*
X41308881Y-34162901D01*
X41301651Y-34161801D01*
X41294359Y-34162394D01*
X41294356Y-34162394D01*
X41248982Y-34166085D01*
X41238767Y-34166500D01*
X41230707Y-34166500D01*
X41227073Y-34166924D01*
X41227067Y-34166924D01*
X41214042Y-34168443D01*
X41202480Y-34169791D01*
X41198132Y-34170221D01*
X41176059Y-34172016D01*
X41132662Y-34175546D01*
X41132659Y-34175547D01*
X41125364Y-34176140D01*
X41118400Y-34178396D01*
X41112461Y-34179583D01*
X41106590Y-34180970D01*
X41099319Y-34181818D01*
X41092443Y-34184314D01*
X41092434Y-34184316D01*
X41030702Y-34206725D01*
X41026598Y-34208135D01*
X40957101Y-34230648D01*
X40950846Y-34234444D01*
X40945387Y-34236943D01*
X40939939Y-34239671D01*
X40933063Y-34242167D01*
X40872010Y-34282195D01*
X40868337Y-34284513D01*
X40805893Y-34322405D01*
X40797517Y-34329802D01*
X40797493Y-34329775D01*
X40794499Y-34332430D01*
X40791268Y-34335132D01*
X40785148Y-34339144D01*
X40755951Y-34369965D01*
X40731872Y-34395383D01*
X40729494Y-34397825D01*
X40326231Y-34801088D01*
X40294186Y-34823611D01*
X40293579Y-34823818D01*
X40287577Y-34827511D01*
X40287576Y-34827511D01*
X40145095Y-34915166D01*
X40145092Y-34915168D01*
X40139088Y-34918862D01*
X40134053Y-34923793D01*
X40134050Y-34923795D01*
X40014525Y-35040843D01*
X40009493Y-35045771D01*
X39911235Y-35198238D01*
X39908826Y-35204858D01*
X39908824Y-35204861D01*
X39869228Y-35313650D01*
X39849197Y-35368685D01*
X39826463Y-35548640D01*
X29718500Y-35548640D01*
X29718500Y-33223134D01*
X42501500Y-33223134D01*
X42508255Y-33285316D01*
X42559385Y-33421705D01*
X42646739Y-33538261D01*
X42763295Y-33625615D01*
X42899684Y-33676745D01*
X42961866Y-33683500D01*
X44658134Y-33683500D01*
X44720316Y-33676745D01*
X44856705Y-33625615D01*
X44973261Y-33538261D01*
X45060615Y-33421705D01*
X45111745Y-33285316D01*
X45112917Y-33274526D01*
X45113803Y-33272394D01*
X45114425Y-33269778D01*
X45114848Y-33269879D01*
X45140155Y-33208965D01*
X45198517Y-33168537D01*
X45269471Y-33166078D01*
X45330490Y-33202371D01*
X45337489Y-33211031D01*
X45340643Y-33214789D01*
X45343802Y-33219300D01*
X45505700Y-33381198D01*
X45510208Y-33384355D01*
X45510211Y-33384357D01*
X45551542Y-33413297D01*
X45693251Y-33512523D01*
X45698233Y-33514846D01*
X45698238Y-33514849D01*
X45895775Y-33606961D01*
X45900757Y-33609284D01*
X45906065Y-33610706D01*
X45906067Y-33610707D01*
X46116598Y-33667119D01*
X46116600Y-33667119D01*
X46121913Y-33668543D01*
X46350000Y-33688498D01*
X46578087Y-33668543D01*
X46583400Y-33667119D01*
X46583402Y-33667119D01*
X46793933Y-33610707D01*
X46793935Y-33610706D01*
X46799243Y-33609284D01*
X46804225Y-33606961D01*
X47001762Y-33514849D01*
X47001767Y-33514846D01*
X47006749Y-33512523D01*
X47148458Y-33413297D01*
X47189789Y-33384357D01*
X47189792Y-33384355D01*
X47194300Y-33381198D01*
X47356198Y-33219300D01*
X47377303Y-33189160D01*
X47484366Y-33036257D01*
X47487523Y-33031749D01*
X47489846Y-33026767D01*
X47489849Y-33026762D01*
X47505805Y-32992543D01*
X47552722Y-32939258D01*
X47620999Y-32919797D01*
X47688959Y-32940339D01*
X47734195Y-32992543D01*
X47750151Y-33026762D01*
X47750154Y-33026767D01*
X47752477Y-33031749D01*
X47755634Y-33036257D01*
X47862698Y-33189160D01*
X47883802Y-33219300D01*
X48045700Y-33381198D01*
X48050208Y-33384355D01*
X48050211Y-33384357D01*
X48091542Y-33413297D01*
X48233251Y-33512523D01*
X48238233Y-33514846D01*
X48238238Y-33514849D01*
X48435775Y-33606961D01*
X48440757Y-33609284D01*
X48446065Y-33610706D01*
X48446067Y-33610707D01*
X48656598Y-33667119D01*
X48656600Y-33667119D01*
X48661913Y-33668543D01*
X48890000Y-33688498D01*
X49118087Y-33668543D01*
X49123400Y-33667119D01*
X49123402Y-33667119D01*
X49333933Y-33610707D01*
X49333935Y-33610706D01*
X49339243Y-33609284D01*
X49344225Y-33606961D01*
X49541762Y-33514849D01*
X49541767Y-33514846D01*
X49546749Y-33512523D01*
X49688458Y-33413297D01*
X49729789Y-33384357D01*
X49729792Y-33384355D01*
X49734300Y-33381198D01*
X49896198Y-33219300D01*
X49917303Y-33189160D01*
X50024366Y-33036257D01*
X50027523Y-33031749D01*
X50029846Y-33026767D01*
X50029849Y-33026762D01*
X50045805Y-32992543D01*
X50092722Y-32939258D01*
X50160999Y-32919797D01*
X50228959Y-32940339D01*
X50274195Y-32992543D01*
X50290151Y-33026762D01*
X50290154Y-33026767D01*
X50292477Y-33031749D01*
X50295634Y-33036257D01*
X50402698Y-33189160D01*
X50423802Y-33219300D01*
X50585700Y-33381198D01*
X50590208Y-33384355D01*
X50590211Y-33384357D01*
X50631542Y-33413297D01*
X50773251Y-33512523D01*
X50778233Y-33514846D01*
X50778238Y-33514849D01*
X50975775Y-33606961D01*
X50980757Y-33609284D01*
X50986065Y-33610706D01*
X50986067Y-33610707D01*
X51196598Y-33667119D01*
X51196600Y-33667119D01*
X51201913Y-33668543D01*
X51430000Y-33688498D01*
X51658087Y-33668543D01*
X51663400Y-33667119D01*
X51663402Y-33667119D01*
X51873933Y-33610707D01*
X51873935Y-33610706D01*
X51879243Y-33609284D01*
X51884225Y-33606961D01*
X52081762Y-33514849D01*
X52081767Y-33514846D01*
X52086749Y-33512523D01*
X52228458Y-33413297D01*
X52269789Y-33384357D01*
X52269792Y-33384355D01*
X52274300Y-33381198D01*
X52436198Y-33219300D01*
X52457303Y-33189160D01*
X52564366Y-33036257D01*
X52567523Y-33031749D01*
X52569846Y-33026767D01*
X52569849Y-33026762D01*
X52585805Y-32992543D01*
X52632722Y-32939258D01*
X52700999Y-32919797D01*
X52768959Y-32940339D01*
X52814195Y-32992543D01*
X52830151Y-33026762D01*
X52830154Y-33026767D01*
X52832477Y-33031749D01*
X52835634Y-33036257D01*
X52942698Y-33189160D01*
X52963802Y-33219300D01*
X53125700Y-33381198D01*
X53130208Y-33384355D01*
X53130211Y-33384357D01*
X53171542Y-33413297D01*
X53313251Y-33512523D01*
X53318233Y-33514846D01*
X53318238Y-33514849D01*
X53515775Y-33606961D01*
X53520757Y-33609284D01*
X53526065Y-33610706D01*
X53526067Y-33610707D01*
X53736598Y-33667119D01*
X53736600Y-33667119D01*
X53741913Y-33668543D01*
X53970000Y-33688498D01*
X54198087Y-33668543D01*
X54203400Y-33667119D01*
X54203402Y-33667119D01*
X54413933Y-33610707D01*
X54413935Y-33610706D01*
X54419243Y-33609284D01*
X54424225Y-33606961D01*
X54621762Y-33514849D01*
X54621767Y-33514846D01*
X54626749Y-33512523D01*
X54768458Y-33413297D01*
X54809789Y-33384357D01*
X54809792Y-33384355D01*
X54814300Y-33381198D01*
X54976198Y-33219300D01*
X54997303Y-33189160D01*
X55104366Y-33036257D01*
X55107523Y-33031749D01*
X55109846Y-33026767D01*
X55109849Y-33026762D01*
X55125805Y-32992543D01*
X55172722Y-32939258D01*
X55240999Y-32919797D01*
X55308959Y-32940339D01*
X55354195Y-32992543D01*
X55370151Y-33026762D01*
X55370154Y-33026767D01*
X55372477Y-33031749D01*
X55375634Y-33036257D01*
X55482698Y-33189160D01*
X55503802Y-33219300D01*
X55665700Y-33381198D01*
X55670208Y-33384355D01*
X55670211Y-33384357D01*
X55711542Y-33413297D01*
X55853251Y-33512523D01*
X55858233Y-33514846D01*
X55858238Y-33514849D01*
X56055775Y-33606961D01*
X56060757Y-33609284D01*
X56066065Y-33610706D01*
X56066067Y-33610707D01*
X56276598Y-33667119D01*
X56276600Y-33667119D01*
X56281913Y-33668543D01*
X56510000Y-33688498D01*
X56738087Y-33668543D01*
X56743400Y-33667119D01*
X56743402Y-33667119D01*
X56953933Y-33610707D01*
X56953935Y-33610706D01*
X56959243Y-33609284D01*
X56964225Y-33606961D01*
X57161762Y-33514849D01*
X57161767Y-33514846D01*
X57166749Y-33512523D01*
X57308458Y-33413297D01*
X57349789Y-33384357D01*
X57349792Y-33384355D01*
X57354300Y-33381198D01*
X57516198Y-33219300D01*
X57537303Y-33189160D01*
X57644366Y-33036257D01*
X57647523Y-33031749D01*
X57649846Y-33026767D01*
X57649849Y-33026762D01*
X57741961Y-32829225D01*
X57741961Y-32829224D01*
X57744284Y-32824243D01*
X57803543Y-32603087D01*
X57823498Y-32375000D01*
X57803543Y-32146913D01*
X57744284Y-31925757D01*
X57665805Y-31757457D01*
X57649849Y-31723238D01*
X57649846Y-31723233D01*
X57647523Y-31718251D01*
X57516198Y-31530700D01*
X57354300Y-31368802D01*
X57349792Y-31365645D01*
X57349789Y-31365643D01*
X57224103Y-31277637D01*
X57166749Y-31237477D01*
X57161767Y-31235154D01*
X57161762Y-31235151D01*
X56964225Y-31143039D01*
X56964224Y-31143039D01*
X56959243Y-31140716D01*
X56953935Y-31139294D01*
X56953933Y-31139293D01*
X56743402Y-31082881D01*
X56743400Y-31082881D01*
X56738087Y-31081457D01*
X56510000Y-31061502D01*
X56281913Y-31081457D01*
X56276600Y-31082881D01*
X56276598Y-31082881D01*
X56066067Y-31139293D01*
X56066065Y-31139294D01*
X56060757Y-31140716D01*
X56055776Y-31143039D01*
X56055775Y-31143039D01*
X55858238Y-31235151D01*
X55858233Y-31235154D01*
X55853251Y-31237477D01*
X55795897Y-31277637D01*
X55670211Y-31365643D01*
X55670208Y-31365645D01*
X55665700Y-31368802D01*
X55503802Y-31530700D01*
X55372477Y-31718251D01*
X55370154Y-31723233D01*
X55370151Y-31723238D01*
X55354195Y-31757457D01*
X55307278Y-31810742D01*
X55239001Y-31830203D01*
X55171041Y-31809661D01*
X55125805Y-31757457D01*
X55109849Y-31723238D01*
X55109846Y-31723233D01*
X55107523Y-31718251D01*
X54976198Y-31530700D01*
X54814300Y-31368802D01*
X54809792Y-31365645D01*
X54809789Y-31365643D01*
X54684103Y-31277637D01*
X54626749Y-31237477D01*
X54621767Y-31235154D01*
X54621762Y-31235151D01*
X54424225Y-31143039D01*
X54424224Y-31143039D01*
X54419243Y-31140716D01*
X54413935Y-31139294D01*
X54413933Y-31139293D01*
X54203402Y-31082881D01*
X54203400Y-31082881D01*
X54198087Y-31081457D01*
X53970000Y-31061502D01*
X53741913Y-31081457D01*
X53736600Y-31082881D01*
X53736598Y-31082881D01*
X53526067Y-31139293D01*
X53526065Y-31139294D01*
X53520757Y-31140716D01*
X53515776Y-31143039D01*
X53515775Y-31143039D01*
X53318238Y-31235151D01*
X53318233Y-31235154D01*
X53313251Y-31237477D01*
X53255897Y-31277637D01*
X53130211Y-31365643D01*
X53130208Y-31365645D01*
X53125700Y-31368802D01*
X52963802Y-31530700D01*
X52832477Y-31718251D01*
X52830154Y-31723233D01*
X52830151Y-31723238D01*
X52814195Y-31757457D01*
X52767278Y-31810742D01*
X52699001Y-31830203D01*
X52631041Y-31809661D01*
X52585805Y-31757457D01*
X52569849Y-31723238D01*
X52569846Y-31723233D01*
X52567523Y-31718251D01*
X52436198Y-31530700D01*
X52274300Y-31368802D01*
X52269792Y-31365645D01*
X52269789Y-31365643D01*
X52144103Y-31277637D01*
X52086749Y-31237477D01*
X52081767Y-31235154D01*
X52081762Y-31235151D01*
X51884225Y-31143039D01*
X51884224Y-31143039D01*
X51879243Y-31140716D01*
X51873935Y-31139294D01*
X51873933Y-31139293D01*
X51663402Y-31082881D01*
X51663400Y-31082881D01*
X51658087Y-31081457D01*
X51430000Y-31061502D01*
X51201913Y-31081457D01*
X51196600Y-31082881D01*
X51196598Y-31082881D01*
X50986067Y-31139293D01*
X50986065Y-31139294D01*
X50980757Y-31140716D01*
X50975776Y-31143039D01*
X50975775Y-31143039D01*
X50778238Y-31235151D01*
X50778233Y-31235154D01*
X50773251Y-31237477D01*
X50715897Y-31277637D01*
X50590211Y-31365643D01*
X50590208Y-31365645D01*
X50585700Y-31368802D01*
X50423802Y-31530700D01*
X50292477Y-31718251D01*
X50290154Y-31723233D01*
X50290151Y-31723238D01*
X50274195Y-31757457D01*
X50227278Y-31810742D01*
X50159001Y-31830203D01*
X50091041Y-31809661D01*
X50045805Y-31757457D01*
X50029849Y-31723238D01*
X50029846Y-31723233D01*
X50027523Y-31718251D01*
X49896198Y-31530700D01*
X49734300Y-31368802D01*
X49729792Y-31365645D01*
X49729789Y-31365643D01*
X49604103Y-31277637D01*
X49546749Y-31237477D01*
X49541767Y-31235154D01*
X49541762Y-31235151D01*
X49344225Y-31143039D01*
X49344224Y-31143039D01*
X49339243Y-31140716D01*
X49333935Y-31139294D01*
X49333933Y-31139293D01*
X49123402Y-31082881D01*
X49123400Y-31082881D01*
X49118087Y-31081457D01*
X48890000Y-31061502D01*
X48661913Y-31081457D01*
X48656600Y-31082881D01*
X48656598Y-31082881D01*
X48446067Y-31139293D01*
X48446065Y-31139294D01*
X48440757Y-31140716D01*
X48435776Y-31143039D01*
X48435775Y-31143039D01*
X48238238Y-31235151D01*
X48238233Y-31235154D01*
X48233251Y-31237477D01*
X48175897Y-31277637D01*
X48050211Y-31365643D01*
X48050208Y-31365645D01*
X48045700Y-31368802D01*
X47883802Y-31530700D01*
X47752477Y-31718251D01*
X47750154Y-31723233D01*
X47750151Y-31723238D01*
X47734195Y-31757457D01*
X47687278Y-31810742D01*
X47619001Y-31830203D01*
X47551041Y-31809661D01*
X47505805Y-31757457D01*
X47489849Y-31723238D01*
X47489846Y-31723233D01*
X47487523Y-31718251D01*
X47356198Y-31530700D01*
X47194300Y-31368802D01*
X47189792Y-31365645D01*
X47189789Y-31365643D01*
X47064103Y-31277637D01*
X47006749Y-31237477D01*
X47001767Y-31235154D01*
X47001762Y-31235151D01*
X46804225Y-31143039D01*
X46804224Y-31143039D01*
X46799243Y-31140716D01*
X46793935Y-31139294D01*
X46793933Y-31139293D01*
X46583402Y-31082881D01*
X46583400Y-31082881D01*
X46578087Y-31081457D01*
X46350000Y-31061502D01*
X46121913Y-31081457D01*
X46116600Y-31082881D01*
X46116598Y-31082881D01*
X45906067Y-31139293D01*
X45906065Y-31139294D01*
X45900757Y-31140716D01*
X45895776Y-31143039D01*
X45895775Y-31143039D01*
X45698238Y-31235151D01*
X45698233Y-31235154D01*
X45693251Y-31237477D01*
X45635897Y-31277637D01*
X45510211Y-31365643D01*
X45510208Y-31365645D01*
X45505700Y-31368802D01*
X45343802Y-31530700D01*
X45340643Y-31535211D01*
X45337108Y-31539424D01*
X45335974Y-31538473D01*
X45285929Y-31578471D01*
X45215310Y-31585776D01*
X45151951Y-31553742D01*
X45115970Y-31492538D01*
X45112918Y-31475483D01*
X45111745Y-31464684D01*
X45060615Y-31328295D01*
X44973261Y-31211739D01*
X44856705Y-31124385D01*
X44720316Y-31073255D01*
X44658134Y-31066500D01*
X42961866Y-31066500D01*
X42899684Y-31073255D01*
X42763295Y-31124385D01*
X42646739Y-31211739D01*
X42559385Y-31328295D01*
X42508255Y-31464684D01*
X42501500Y-31526866D01*
X42501500Y-33223134D01*
X29718500Y-33223134D01*
X29718500Y-29424500D01*
X29738502Y-29356379D01*
X29792158Y-29309886D01*
X29844500Y-29298500D01*
X31378134Y-29298500D01*
X31440316Y-29291745D01*
X31576705Y-29240615D01*
X31693261Y-29153261D01*
X31780615Y-29036705D01*
X31831745Y-28900316D01*
X31838500Y-28838134D01*
X31838500Y-27041866D01*
X31831745Y-26979684D01*
X31780615Y-26843295D01*
X31763673Y-26820689D01*
X31738826Y-26754185D01*
X31738500Y-26745126D01*
X31738500Y-26594874D01*
X31758502Y-26526753D01*
X31763661Y-26519327D01*
X31780615Y-26496705D01*
X31831745Y-26360316D01*
X31838500Y-26298134D01*
X31838500Y-24501866D01*
X31831745Y-24439684D01*
X31780615Y-24303295D01*
X31763673Y-24280689D01*
X31738826Y-24214185D01*
X31738500Y-24205126D01*
X31738500Y-24068477D01*
X31758502Y-24000356D01*
X31775405Y-23979382D01*
X32869382Y-22885405D01*
X32931694Y-22851379D01*
X32958477Y-22848500D01*
X33101405Y-22848500D01*
X33169526Y-22868502D01*
G37*
G04 #@! TD.AperFunction*
M02*
