G04 #@! TF.GenerationSoftware,KiCad,Pcbnew,6.0.4+dfsg-1+b1*
G04 #@! TF.CreationDate,2022-04-24T01:25:23+03:00*
G04 #@! TF.ProjectId,yatabaza-power,79617461-6261-47a6-912d-706f7765722e,rev?*
G04 #@! TF.SameCoordinates,Original*
G04 #@! TF.FileFunction,Copper,L1,Top*
G04 #@! TF.FilePolarity,Positive*
%FSLAX46Y46*%
G04 Gerber Fmt 4.6, Leading zero omitted, Abs format (unit mm)*
G04 Created by KiCad (PCBNEW 6.0.4+dfsg-1+b1) date 2022-04-24 01:25:23*
%MOMM*%
%LPD*%
G01*
G04 APERTURE LIST*
G04 Aperture macros list*
%AMRoundRect*
0 Rectangle with rounded corners*
0 $1 Rounding radius*
0 $2 $3 $4 $5 $6 $7 $8 $9 X,Y pos of 4 corners*
0 Add a 4 corners polygon primitive as box body*
4,1,4,$2,$3,$4,$5,$6,$7,$8,$9,$2,$3,0*
0 Add four circle primitives for the rounded corners*
1,1,$1+$1,$2,$3*
1,1,$1+$1,$4,$5*
1,1,$1+$1,$6,$7*
1,1,$1+$1,$8,$9*
0 Add four rect primitives between the rounded corners*
20,1,$1+$1,$2,$3,$4,$5,0*
20,1,$1+$1,$4,$5,$6,$7,0*
20,1,$1+$1,$6,$7,$8,$9,0*
20,1,$1+$1,$8,$9,$2,$3,0*%
G04 Aperture macros list end*
G04 #@! TA.AperFunction,ComponentPad*
%ADD10C,1.600000*%
G04 #@! TD*
G04 #@! TA.AperFunction,ComponentPad*
%ADD11R,1.600000X1.600000*%
G04 #@! TD*
G04 #@! TA.AperFunction,ComponentPad*
%ADD12R,3.500000X3.500000*%
G04 #@! TD*
G04 #@! TA.AperFunction,ComponentPad*
%ADD13RoundRect,0.750000X-1.000000X0.750000X-1.000000X-0.750000X1.000000X-0.750000X1.000000X0.750000X0*%
G04 #@! TD*
G04 #@! TA.AperFunction,ComponentPad*
%ADD14RoundRect,0.875000X-0.875000X0.875000X-0.875000X-0.875000X0.875000X-0.875000X0.875000X0.875000X0*%
G04 #@! TD*
G04 #@! TA.AperFunction,ComponentPad*
%ADD15O,1.600000X1.600000*%
G04 #@! TD*
G04 #@! TA.AperFunction,ComponentPad*
%ADD16R,1.700000X1.700000*%
G04 #@! TD*
G04 #@! TA.AperFunction,ComponentPad*
%ADD17O,1.700000X1.700000*%
G04 #@! TD*
G04 #@! TA.AperFunction,ComponentPad*
%ADD18O,1.300000X1.300000*%
G04 #@! TD*
G04 #@! TA.AperFunction,ComponentPad*
%ADD19C,1.300000*%
G04 #@! TD*
G04 #@! TA.AperFunction,ComponentPad*
%ADD20C,1.400000*%
G04 #@! TD*
G04 #@! TA.AperFunction,ComponentPad*
%ADD21O,1.400000X1.400000*%
G04 #@! TD*
G04 #@! TA.AperFunction,ComponentPad*
%ADD22C,2.000000*%
G04 #@! TD*
G04 #@! TA.AperFunction,ComponentPad*
%ADD23C,3.000000*%
G04 #@! TD*
G04 #@! TA.AperFunction,ComponentPad*
%ADD24R,1.800000X1.800000*%
G04 #@! TD*
G04 #@! TA.AperFunction,ComponentPad*
%ADD25C,1.800000*%
G04 #@! TD*
G04 #@! TA.AperFunction,ComponentPad*
%ADD26R,2.200000X2.200000*%
G04 #@! TD*
G04 #@! TA.AperFunction,ComponentPad*
%ADD27O,2.200000X2.200000*%
G04 #@! TD*
G04 #@! TA.AperFunction,ComponentPad*
%ADD28C,4.500000*%
G04 #@! TD*
G04 #@! TA.AperFunction,ComponentPad*
%ADD29RoundRect,0.250000X1.550000X-0.650000X1.550000X0.650000X-1.550000X0.650000X-1.550000X-0.650000X0*%
G04 #@! TD*
G04 #@! TA.AperFunction,ComponentPad*
%ADD30O,3.600000X1.800000*%
G04 #@! TD*
G04 #@! TA.AperFunction,ComponentPad*
%ADD31RoundRect,0.250000X-1.550000X0.650000X-1.550000X-0.650000X1.550000X-0.650000X1.550000X0.650000X0*%
G04 #@! TD*
G04 #@! TA.AperFunction,Conductor*
%ADD32C,0.750000*%
G04 #@! TD*
G04 #@! TA.AperFunction,Conductor*
%ADD33C,0.500000*%
G04 #@! TD*
G04 APERTURE END LIST*
D10*
X46355000Y-55245000D03*
X46355000Y-52745000D03*
X25400000Y-52705000D03*
X25400000Y-55205000D03*
D11*
X53975000Y-55245000D03*
D10*
X53975000Y-52745000D03*
D11*
X17780000Y-52705000D03*
D10*
X17780000Y-55205000D03*
X37465000Y-55245000D03*
X37465000Y-52745000D03*
X33972500Y-52705000D03*
X33972500Y-55205000D03*
D11*
X41910000Y-55245000D03*
D10*
X41910000Y-52745000D03*
D11*
X29845000Y-52705000D03*
D10*
X29845000Y-55205000D03*
D12*
X49530000Y-22225000D03*
D13*
X49530000Y-16225000D03*
D14*
X44830000Y-19225000D03*
D11*
X49530000Y-60325000D03*
D15*
X49530000Y-52705000D03*
D11*
X22225000Y-52705000D03*
D15*
X22225000Y-60325000D03*
D16*
X59055000Y-65405000D03*
D17*
X59055000Y-62865000D03*
X59055000Y-60325000D03*
X59055000Y-57785000D03*
X59055000Y-55245000D03*
X59055000Y-52705000D03*
D16*
X36195000Y-15875000D03*
D17*
X38735000Y-15875000D03*
D16*
X27305000Y-15875000D03*
D17*
X24765000Y-15875000D03*
X22225000Y-15875000D03*
D18*
X46037500Y-62230000D03*
D19*
X44767500Y-60960000D03*
X46037500Y-59690000D03*
D18*
X26035000Y-62230000D03*
D19*
X24765000Y-60960000D03*
X26035000Y-59690000D03*
D18*
X41275000Y-62230000D03*
D19*
X40005000Y-60960000D03*
X41275000Y-59690000D03*
D18*
X31115000Y-62230000D03*
D19*
X29845000Y-60960000D03*
X31115000Y-59690000D03*
D20*
X53975000Y-62230000D03*
D21*
X53975000Y-59690000D03*
D20*
X17780000Y-59690000D03*
D21*
X17780000Y-62230000D03*
D11*
X27940000Y-21590000D03*
D10*
X30440000Y-21590000D03*
X27940000Y-26035000D03*
X30440000Y-26035000D03*
D22*
X19050000Y-20002500D03*
X19050000Y-26402500D03*
D23*
X56335000Y-28575000D03*
X33835000Y-28575000D03*
D24*
X53975000Y-64770000D03*
D25*
X53975000Y-67310000D03*
D20*
X52120000Y-69215000D03*
D21*
X54660000Y-69215000D03*
D26*
X57150000Y-22225000D03*
D27*
X57150000Y-18415000D03*
D28*
X22225000Y-31115000D03*
X52705000Y-47625000D03*
D29*
X20320000Y-42545000D03*
D30*
X20320000Y-37465000D03*
D31*
X55245000Y-36195000D03*
D30*
X55245000Y-41275000D03*
D16*
X31115000Y-66675000D03*
D17*
X31115000Y-69215000D03*
X33655000Y-66675000D03*
X33655000Y-69215000D03*
X36195000Y-66675000D03*
X36195000Y-69215000D03*
X38735000Y-66675000D03*
X38735000Y-69215000D03*
X41275000Y-66675000D03*
X41275000Y-69215000D03*
D16*
X46355000Y-66675000D03*
D17*
X46355000Y-69215000D03*
X48895000Y-66675000D03*
X48895000Y-69215000D03*
D16*
X36195000Y-19685000D03*
D17*
X38735000Y-19685000D03*
D32*
X31115000Y-69215000D02*
X33655000Y-69215000D01*
X33655000Y-69215000D02*
X33655000Y-66675000D01*
X33655000Y-66675000D02*
X31115000Y-66675000D01*
X34330000Y-52745000D02*
X35560000Y-52745000D01*
X46395000Y-52705000D02*
X49530000Y-52705000D01*
X49570000Y-52745000D02*
X52070000Y-52745000D01*
X35560000Y-52745000D02*
X37465000Y-52745000D01*
X34290000Y-64135000D02*
X35560000Y-64135000D01*
X31115000Y-64770000D02*
X31750000Y-64135000D01*
X31750000Y-64135000D02*
X33655000Y-64135000D01*
X33655000Y-64135000D02*
X34290000Y-64135000D01*
X54610000Y-64135000D02*
X55245000Y-64135000D01*
X56515000Y-64135000D02*
X57150000Y-63500000D01*
X57150000Y-63500000D02*
X57150000Y-62865000D01*
X55245000Y-64135000D02*
X56515000Y-64135000D01*
X52705000Y-64135000D02*
X35560000Y-64135000D01*
X57150000Y-57785000D02*
X57150000Y-55880000D01*
X57150000Y-62865000D02*
X57150000Y-57785000D01*
X57150000Y-53340000D02*
X57150000Y-55880000D01*
X52070000Y-52745000D02*
X52070000Y-52705000D01*
X52070000Y-52705000D02*
X52070000Y-52745000D01*
X52070000Y-52745000D02*
X53975000Y-52745000D01*
X20320000Y-52705000D02*
X22225000Y-52705000D01*
X57150000Y-41910000D02*
X56515000Y-41275000D01*
X56515000Y-41275000D02*
X55325000Y-41275000D01*
X55325000Y-41275000D02*
X55245000Y-41195000D01*
X54015000Y-52705000D02*
X57150000Y-52705000D01*
X57150000Y-52705000D02*
X57150000Y-41910000D01*
X55165000Y-41275000D02*
X53975000Y-41275000D01*
X52705000Y-40640000D02*
X52705000Y-16510000D01*
X52705000Y-16510000D02*
X52070000Y-15875000D01*
X52070000Y-15875000D02*
X49730660Y-15875000D01*
X49730660Y-15875000D02*
X49530000Y-16075660D01*
X53340000Y-41275000D02*
X53975000Y-41275000D01*
X48895000Y-13335000D02*
X49530000Y-13970000D01*
X49530000Y-13970000D02*
X49530000Y-16075660D01*
X25400000Y-13335000D02*
X48895000Y-13335000D01*
X30440000Y-19010000D02*
X29845000Y-18415000D01*
X29845000Y-18415000D02*
X25400000Y-18415000D01*
X25400000Y-18415000D02*
X24765000Y-17780000D01*
X24765000Y-17780000D02*
X24765000Y-15875000D01*
X31115000Y-52705000D02*
X34290000Y-52705000D01*
X30440000Y-51435000D02*
X30440000Y-52110000D01*
X30440000Y-52705000D02*
X30480000Y-52705000D01*
X30480000Y-52705000D02*
X29845000Y-52705000D01*
X30440000Y-42545000D02*
X30480000Y-42545000D01*
X30480000Y-42545000D02*
X30440000Y-42545000D01*
X30440000Y-42545000D02*
X30440000Y-51435000D01*
X31115000Y-66675000D02*
X31115000Y-69215000D01*
X30440000Y-51435000D02*
X30440000Y-52705000D01*
X55245000Y-41195000D02*
X55165000Y-41275000D01*
X25400000Y-52705000D02*
X29845000Y-52705000D01*
X34290000Y-52705000D02*
X34330000Y-52745000D01*
X33655000Y-66675000D02*
X33655000Y-64135000D01*
X49530000Y-52705000D02*
X49570000Y-52745000D01*
X57150000Y-55880000D02*
X57150000Y-52705000D01*
X52705000Y-40640000D02*
X53340000Y-41275000D01*
X29845000Y-52705000D02*
X30480000Y-52705000D01*
X53975000Y-52745000D02*
X54015000Y-52705000D01*
X41910000Y-52745000D02*
X46355000Y-52745000D01*
X59055000Y-57785000D02*
X57150000Y-57785000D01*
X24765000Y-15875000D02*
X24765000Y-13970000D01*
X30440000Y-26035000D02*
X30440000Y-42545000D01*
X30440000Y-26035000D02*
X30440000Y-21590000D01*
X55245000Y-64135000D02*
X52705000Y-64135000D01*
X31115000Y-66675000D02*
X31115000Y-64770000D01*
X17780000Y-52705000D02*
X20320000Y-52705000D01*
X46355000Y-52745000D02*
X46395000Y-52705000D01*
X20320000Y-42545000D02*
X30440000Y-42545000D01*
X22225000Y-52705000D02*
X25400000Y-52705000D01*
X59055000Y-62865000D02*
X57150000Y-62865000D01*
X37465000Y-52745000D02*
X41910000Y-52745000D01*
X29845000Y-52705000D02*
X30480000Y-52705000D01*
X30440000Y-21590000D02*
X30440000Y-19010000D01*
X29845000Y-52705000D02*
X31115000Y-52705000D01*
X24765000Y-13970000D02*
X25400000Y-13335000D01*
X35560000Y-64135000D02*
X35560000Y-52745000D01*
X40640000Y-55245000D02*
X41910000Y-55245000D01*
X41275000Y-59690000D02*
X41275000Y-56515000D01*
X41275000Y-56515000D02*
X41275000Y-55880000D01*
X37465000Y-55245000D02*
X40640000Y-55245000D01*
X41275000Y-55880000D02*
X41910000Y-55245000D01*
X41275000Y-55880000D02*
X40640000Y-55245000D01*
X31115000Y-55205000D02*
X31115000Y-55245000D01*
X31115000Y-55245000D02*
X31115000Y-55205000D01*
X31115000Y-55205000D02*
X34290000Y-55205000D01*
X29845000Y-55205000D02*
X31115000Y-55205000D01*
X31115000Y-59690000D02*
X31115000Y-55205000D01*
X48895000Y-70485000D02*
X48260000Y-71120000D01*
X48260000Y-71120000D02*
X46355000Y-71120000D01*
X16510000Y-71120000D02*
X15875000Y-70485000D01*
X15875000Y-70485000D02*
X15875000Y-45720000D01*
X46355000Y-71120000D02*
X16510000Y-71120000D01*
D33*
X48895000Y-69850000D02*
X48895000Y-69215000D01*
D32*
X15875000Y-38100000D02*
X16510000Y-37465000D01*
X16510000Y-37465000D02*
X18415000Y-37465000D01*
X20240000Y-37465000D02*
X20320000Y-37545000D01*
X18415000Y-37465000D02*
X19050000Y-37465000D01*
X19050000Y-37465000D02*
X20240000Y-37465000D01*
X19050000Y-24765000D02*
X19685000Y-24130000D01*
X19685000Y-24130000D02*
X27940000Y-24130000D01*
X27940000Y-24130000D02*
X27940000Y-21590000D01*
X15875000Y-45720000D02*
X15875000Y-38100000D01*
X46355000Y-66675000D02*
X46355000Y-69215000D01*
X27940000Y-26035000D02*
X27940000Y-24130000D01*
X48895000Y-69215000D02*
X48895000Y-70485000D01*
X19050000Y-26794460D02*
X19050000Y-37465000D01*
X48895000Y-69215000D02*
X48895000Y-66675000D01*
X46355000Y-69215000D02*
X48895000Y-69215000D01*
D33*
X48895000Y-69215000D02*
X52070000Y-69215000D01*
D32*
X15875000Y-46990000D02*
X15875000Y-45720000D01*
X19050000Y-26794460D02*
X19050000Y-24765000D01*
X46355000Y-69215000D02*
X46355000Y-71120000D01*
X48895000Y-66675000D02*
X46355000Y-66675000D01*
X43180000Y-15875000D02*
X44831000Y-17526000D01*
X44831000Y-17526000D02*
X44831000Y-19075400D01*
X38735000Y-15875000D02*
X43180000Y-15875000D01*
X57785000Y-28375000D02*
X57785000Y-22860000D01*
X57785000Y-22860000D02*
X57150000Y-22225000D01*
X57585000Y-28575000D02*
X57785000Y-28375000D01*
D33*
X46990000Y-55245000D02*
X46355000Y-55245000D01*
X53340000Y-60325000D02*
X53975000Y-59690000D01*
X46990000Y-55245000D02*
X46355000Y-55245000D01*
X46990000Y-55245000D02*
X46355000Y-55245000D01*
X49530000Y-60325000D02*
X49530000Y-55245000D01*
X46355000Y-55245000D02*
X48577500Y-55245000D01*
X48577500Y-55245000D02*
X49530000Y-55245000D01*
X49530000Y-55245000D02*
X53975000Y-55245000D01*
X49530000Y-60325000D02*
X53340000Y-60325000D01*
X44767500Y-60960000D02*
X48895000Y-60960000D01*
X48895000Y-60960000D02*
X49530000Y-60325000D01*
X53975000Y-59690000D02*
X53975000Y-55245000D01*
X24765000Y-55205000D02*
X24765000Y-55245000D01*
X24765000Y-55245000D02*
X25400000Y-55205000D01*
X18415000Y-60325000D02*
X22225000Y-60325000D01*
X23177500Y-55245000D02*
X23217500Y-55205000D01*
X22860000Y-60960000D02*
X22225000Y-60325000D01*
X23217500Y-55205000D02*
X25400000Y-55205000D01*
X17780000Y-59690000D02*
X18415000Y-60325000D01*
X22265000Y-55205000D02*
X23217500Y-55205000D01*
X17780000Y-55205000D02*
X17780000Y-59690000D01*
X22225000Y-60325000D02*
X22225000Y-55245000D01*
X17780000Y-55205000D02*
X22265000Y-55205000D01*
X24765000Y-60960000D02*
X22860000Y-60960000D01*
X22225000Y-55245000D02*
X22265000Y-55205000D01*
X53975000Y-68580000D02*
X53975000Y-67310000D01*
X54610000Y-69215000D02*
X53975000Y-68580000D01*
D32*
X32585000Y-15875000D02*
X32385000Y-15875000D01*
X32385000Y-15875000D02*
X36195000Y-15875000D01*
X32585000Y-28575000D02*
X32585000Y-15875000D01*
X27305000Y-15875000D02*
X32385000Y-15875000D01*
X19050000Y-16510000D02*
X19685000Y-15875000D01*
X19685000Y-15875000D02*
X22225000Y-15875000D01*
X19050000Y-20195540D02*
X19050000Y-16510000D01*
D33*
X27305000Y-60960000D02*
X29845000Y-60960000D01*
X26035000Y-59690000D02*
X27305000Y-60960000D01*
X40005000Y-60960000D02*
X42227500Y-60960000D01*
X43497500Y-59690000D02*
X46037500Y-59690000D01*
X42227500Y-60960000D02*
X43497500Y-59690000D01*
M02*
