G04 #@! TF.GenerationSoftware,KiCad,Pcbnew,6.0.4+dfsg-1+b1*
G04 #@! TF.CreationDate,2022-04-24T01:25:24+03:00*
G04 #@! TF.ProjectId,yatabaza-power,79617461-6261-47a6-912d-706f7765722e,rev?*
G04 #@! TF.SameCoordinates,Original*
G04 #@! TF.FileFunction,Soldermask,Bot*
G04 #@! TF.FilePolarity,Negative*
%FSLAX46Y46*%
G04 Gerber Fmt 4.6, Leading zero omitted, Abs format (unit mm)*
G04 Created by KiCad (PCBNEW 6.0.4+dfsg-1+b1) date 2022-04-24 01:25:24*
%MOMM*%
%LPD*%
G01*
G04 APERTURE LIST*
G04 Aperture macros list*
%AMRoundRect*
0 Rectangle with rounded corners*
0 $1 Rounding radius*
0 $2 $3 $4 $5 $6 $7 $8 $9 X,Y pos of 4 corners*
0 Add a 4 corners polygon primitive as box body*
4,1,4,$2,$3,$4,$5,$6,$7,$8,$9,$2,$3,0*
0 Add four circle primitives for the rounded corners*
1,1,$1+$1,$2,$3*
1,1,$1+$1,$4,$5*
1,1,$1+$1,$6,$7*
1,1,$1+$1,$8,$9*
0 Add four rect primitives between the rounded corners*
20,1,$1+$1,$2,$3,$4,$5,0*
20,1,$1+$1,$4,$5,$6,$7,0*
20,1,$1+$1,$6,$7,$8,$9,0*
20,1,$1+$1,$8,$9,$2,$3,0*%
G04 Aperture macros list end*
%ADD10C,1.600000*%
%ADD11R,1.600000X1.600000*%
%ADD12R,3.500000X3.500000*%
%ADD13RoundRect,0.750000X-1.000000X0.750000X-1.000000X-0.750000X1.000000X-0.750000X1.000000X0.750000X0*%
%ADD14RoundRect,0.875000X-0.875000X0.875000X-0.875000X-0.875000X0.875000X-0.875000X0.875000X0.875000X0*%
%ADD15O,1.600000X1.600000*%
%ADD16R,1.700000X1.700000*%
%ADD17O,1.700000X1.700000*%
%ADD18O,1.300000X1.300000*%
%ADD19C,1.300000*%
%ADD20C,1.400000*%
%ADD21O,1.400000X1.400000*%
%ADD22C,2.000000*%
%ADD23C,2.700000*%
%ADD24C,3.000000*%
%ADD25R,1.800000X1.800000*%
%ADD26C,1.800000*%
%ADD27R,2.200000X2.200000*%
%ADD28O,2.200000X2.200000*%
%ADD29C,4.500000*%
%ADD30RoundRect,0.250000X1.550000X-0.650000X1.550000X0.650000X-1.550000X0.650000X-1.550000X-0.650000X0*%
%ADD31O,3.600000X1.800000*%
%ADD32RoundRect,0.250000X-1.550000X0.650000X-1.550000X-0.650000X1.550000X-0.650000X1.550000X0.650000X0*%
G04 APERTURE END LIST*
D10*
X46355000Y-55245000D03*
X46355000Y-52745000D03*
X25400000Y-52705000D03*
X25400000Y-55205000D03*
D11*
X53975000Y-55245000D03*
D10*
X53975000Y-52745000D03*
D11*
X17780000Y-52705000D03*
D10*
X17780000Y-55205000D03*
X37465000Y-55245000D03*
X37465000Y-52745000D03*
X33972500Y-52705000D03*
X33972500Y-55205000D03*
D11*
X41910000Y-55245000D03*
D10*
X41910000Y-52745000D03*
D11*
X29845000Y-52705000D03*
D10*
X29845000Y-55205000D03*
D12*
X49530000Y-22225000D03*
D13*
X49530000Y-16225000D03*
D14*
X44830000Y-19225000D03*
D11*
X49530000Y-60325000D03*
D15*
X49530000Y-52705000D03*
D11*
X22225000Y-52705000D03*
D15*
X22225000Y-60325000D03*
D16*
X59055000Y-65405000D03*
D17*
X59055000Y-62865000D03*
X59055000Y-60325000D03*
X59055000Y-57785000D03*
X59055000Y-55245000D03*
X59055000Y-52705000D03*
D16*
X36195000Y-15875000D03*
D17*
X38735000Y-15875000D03*
D16*
X27305000Y-15875000D03*
D17*
X24765000Y-15875000D03*
X22225000Y-15875000D03*
D18*
X46037500Y-62230000D03*
D19*
X44767500Y-60960000D03*
X46037500Y-59690000D03*
D18*
X26035000Y-62230000D03*
D19*
X24765000Y-60960000D03*
X26035000Y-59690000D03*
D18*
X41275000Y-62230000D03*
D19*
X40005000Y-60960000D03*
X41275000Y-59690000D03*
D18*
X31115000Y-62230000D03*
D19*
X29845000Y-60960000D03*
X31115000Y-59690000D03*
D20*
X53975000Y-62230000D03*
D21*
X53975000Y-59690000D03*
D20*
X17780000Y-59690000D03*
D21*
X17780000Y-62230000D03*
D11*
X27940000Y-21590000D03*
D10*
X30440000Y-21590000D03*
X27940000Y-26035000D03*
X30440000Y-26035000D03*
D22*
X19050000Y-20002500D03*
X19050000Y-26402500D03*
D23*
X45085000Y-28575000D03*
D24*
X56335000Y-28575000D03*
X33835000Y-28575000D03*
D25*
X53975000Y-64770000D03*
D26*
X53975000Y-67310000D03*
D20*
X52120000Y-69215000D03*
D21*
X54660000Y-69215000D03*
D27*
X57150000Y-22225000D03*
D28*
X57150000Y-18415000D03*
D29*
X22225000Y-31115000D03*
X52705000Y-47625000D03*
D30*
X20320000Y-42545000D03*
D31*
X20320000Y-37465000D03*
D32*
X55245000Y-36195000D03*
D31*
X55245000Y-41275000D03*
D16*
X31115000Y-66675000D03*
D17*
X31115000Y-69215000D03*
X33655000Y-66675000D03*
X33655000Y-69215000D03*
X36195000Y-66675000D03*
X36195000Y-69215000D03*
X38735000Y-66675000D03*
X38735000Y-69215000D03*
X41275000Y-66675000D03*
X41275000Y-69215000D03*
D16*
X46355000Y-66675000D03*
D17*
X46355000Y-69215000D03*
X48895000Y-66675000D03*
X48895000Y-69215000D03*
D16*
X36195000Y-19685000D03*
D17*
X38735000Y-19685000D03*
M02*
