G04 #@! TF.GenerationSoftware,KiCad,Pcbnew,6.0.4+dfsg-1+b1*
G04 #@! TF.CreationDate,2022-04-24T01:25:23+03:00*
G04 #@! TF.ProjectId,yatabaza-power,79617461-6261-47a6-912d-706f7765722e,rev?*
G04 #@! TF.SameCoordinates,Original*
G04 #@! TF.FileFunction,Legend,Bot*
G04 #@! TF.FilePolarity,Positive*
%FSLAX46Y46*%
G04 Gerber Fmt 4.6, Leading zero omitted, Abs format (unit mm)*
G04 Created by KiCad (PCBNEW 6.0.4+dfsg-1+b1) date 2022-04-24 01:25:23*
%MOMM*%
%LPD*%
G01*
G04 APERTURE LIST*
G04 Aperture macros list*
%AMRoundRect*
0 Rectangle with rounded corners*
0 $1 Rounding radius*
0 $2 $3 $4 $5 $6 $7 $8 $9 X,Y pos of 4 corners*
0 Add a 4 corners polygon primitive as box body*
4,1,4,$2,$3,$4,$5,$6,$7,$8,$9,$2,$3,0*
0 Add four circle primitives for the rounded corners*
1,1,$1+$1,$2,$3*
1,1,$1+$1,$4,$5*
1,1,$1+$1,$6,$7*
1,1,$1+$1,$8,$9*
0 Add four rect primitives between the rounded corners*
20,1,$1+$1,$2,$3,$4,$5,0*
20,1,$1+$1,$4,$5,$6,$7,0*
20,1,$1+$1,$6,$7,$8,$9,0*
20,1,$1+$1,$8,$9,$2,$3,0*%
G04 Aperture macros list end*
%ADD10C,0.150000*%
%ADD11C,0.120000*%
%ADD12C,1.600000*%
%ADD13R,1.600000X1.600000*%
%ADD14R,3.500000X3.500000*%
%ADD15RoundRect,0.750000X-1.000000X0.750000X-1.000000X-0.750000X1.000000X-0.750000X1.000000X0.750000X0*%
%ADD16RoundRect,0.875000X-0.875000X0.875000X-0.875000X-0.875000X0.875000X-0.875000X0.875000X0.875000X0*%
%ADD17O,1.600000X1.600000*%
%ADD18R,1.700000X1.700000*%
%ADD19O,1.700000X1.700000*%
%ADD20O,1.300000X1.300000*%
%ADD21C,1.300000*%
%ADD22C,1.400000*%
%ADD23O,1.400000X1.400000*%
%ADD24C,2.000000*%
%ADD25C,2.700000*%
%ADD26C,3.000000*%
%ADD27R,1.800000X1.800000*%
%ADD28C,1.800000*%
%ADD29R,2.200000X2.200000*%
%ADD30O,2.200000X2.200000*%
%ADD31C,4.500000*%
%ADD32RoundRect,0.250000X1.550000X-0.650000X1.550000X0.650000X-1.550000X0.650000X-1.550000X-0.650000X0*%
%ADD33O,3.600000X1.800000*%
%ADD34RoundRect,0.250000X-1.550000X0.650000X-1.550000X-0.650000X1.550000X-0.650000X1.550000X0.650000X0*%
G04 APERTURE END LIST*
D10*
X38504523Y-71889880D02*
X38504523Y-70889880D01*
X38123571Y-70889880D01*
X38028333Y-70937500D01*
X37980714Y-70985119D01*
X37933095Y-71080357D01*
X37933095Y-71223214D01*
X37980714Y-71318452D01*
X38028333Y-71366071D01*
X38123571Y-71413690D01*
X38504523Y-71413690D01*
X37314047Y-70889880D02*
X37123571Y-70889880D01*
X37028333Y-70937500D01*
X36933095Y-71032738D01*
X36885476Y-71223214D01*
X36885476Y-71556547D01*
X36933095Y-71747023D01*
X37028333Y-71842261D01*
X37123571Y-71889880D01*
X37314047Y-71889880D01*
X37409285Y-71842261D01*
X37504523Y-71747023D01*
X37552142Y-71556547D01*
X37552142Y-71223214D01*
X37504523Y-71032738D01*
X37409285Y-70937500D01*
X37314047Y-70889880D01*
X36552142Y-70889880D02*
X36314047Y-71889880D01*
X36123571Y-71175595D01*
X35933095Y-71889880D01*
X35695000Y-70889880D01*
X35314047Y-71366071D02*
X34980714Y-71366071D01*
X34837857Y-71889880D02*
X35314047Y-71889880D01*
X35314047Y-70889880D01*
X34837857Y-70889880D01*
X33837857Y-71889880D02*
X34171190Y-71413690D01*
X34409285Y-71889880D02*
X34409285Y-70889880D01*
X34028333Y-70889880D01*
X33933095Y-70937500D01*
X33885476Y-70985119D01*
X33837857Y-71080357D01*
X33837857Y-71223214D01*
X33885476Y-71318452D01*
X33933095Y-71366071D01*
X34028333Y-71413690D01*
X34409285Y-71413690D01*
X48339285Y-71889880D02*
X48339285Y-70889880D01*
X48339285Y-71366071D02*
X47767857Y-71366071D01*
X47767857Y-71889880D02*
X47767857Y-70889880D01*
X47434523Y-70889880D02*
X47101190Y-71889880D01*
X46767857Y-70889880D01*
D11*
X29785000Y-67945000D02*
X29785000Y-70545000D01*
X32385000Y-65345000D02*
X42605000Y-65345000D01*
X42605000Y-65345000D02*
X42605000Y-70545000D01*
X29785000Y-65345000D02*
X29785000Y-66675000D01*
X32385000Y-67945000D02*
X29785000Y-67945000D01*
X29785000Y-70545000D02*
X42605000Y-70545000D01*
X32385000Y-65345000D02*
X32385000Y-67945000D01*
X31115000Y-65345000D02*
X29785000Y-65345000D01*
X45025000Y-65345000D02*
X45025000Y-66675000D01*
X45025000Y-67945000D02*
X45025000Y-70545000D01*
X47625000Y-65345000D02*
X50225000Y-65345000D01*
X45025000Y-70545000D02*
X50225000Y-70545000D01*
X47625000Y-65345000D02*
X47625000Y-67945000D01*
X47625000Y-67945000D02*
X45025000Y-67945000D01*
X46355000Y-65345000D02*
X45025000Y-65345000D01*
X50225000Y-65345000D02*
X50225000Y-70545000D01*
X37465000Y-18355000D02*
X37465000Y-21015000D01*
X37465000Y-18355000D02*
X40065000Y-18355000D01*
X34865000Y-18355000D02*
X34865000Y-19685000D01*
X36195000Y-18355000D02*
X34865000Y-18355000D01*
X40065000Y-18355000D02*
X40065000Y-21015000D01*
X37465000Y-21015000D02*
X40065000Y-21015000D01*
%LPC*%
D12*
X46355000Y-55245000D03*
X46355000Y-52745000D03*
X25400000Y-52705000D03*
X25400000Y-55205000D03*
D13*
X53975000Y-55245000D03*
D12*
X53975000Y-52745000D03*
D13*
X17780000Y-52705000D03*
D12*
X17780000Y-55205000D03*
X37465000Y-55245000D03*
X37465000Y-52745000D03*
X33972500Y-52705000D03*
X33972500Y-55205000D03*
D13*
X41910000Y-55245000D03*
D12*
X41910000Y-52745000D03*
D13*
X29845000Y-52705000D03*
D12*
X29845000Y-55205000D03*
D14*
X49530000Y-22225000D03*
D15*
X49530000Y-16225000D03*
D16*
X44830000Y-19225000D03*
D13*
X49530000Y-60325000D03*
D17*
X49530000Y-52705000D03*
D13*
X22225000Y-52705000D03*
D17*
X22225000Y-60325000D03*
D18*
X59055000Y-65405000D03*
D19*
X59055000Y-62865000D03*
X59055000Y-60325000D03*
X59055000Y-57785000D03*
X59055000Y-55245000D03*
X59055000Y-52705000D03*
D18*
X36195000Y-15875000D03*
D19*
X38735000Y-15875000D03*
D18*
X27305000Y-15875000D03*
D19*
X24765000Y-15875000D03*
X22225000Y-15875000D03*
D20*
X46037500Y-62230000D03*
D21*
X44767500Y-60960000D03*
X46037500Y-59690000D03*
D20*
X26035000Y-62230000D03*
D21*
X24765000Y-60960000D03*
X26035000Y-59690000D03*
D20*
X41275000Y-62230000D03*
D21*
X40005000Y-60960000D03*
X41275000Y-59690000D03*
D20*
X31115000Y-62230000D03*
D21*
X29845000Y-60960000D03*
X31115000Y-59690000D03*
D22*
X53975000Y-62230000D03*
D23*
X53975000Y-59690000D03*
D22*
X17780000Y-59690000D03*
D23*
X17780000Y-62230000D03*
D13*
X27940000Y-21590000D03*
D12*
X30440000Y-21590000D03*
X27940000Y-26035000D03*
X30440000Y-26035000D03*
D24*
X19050000Y-20002500D03*
X19050000Y-26402500D03*
D25*
X45085000Y-28575000D03*
D26*
X56335000Y-28575000D03*
X33835000Y-28575000D03*
D27*
X53975000Y-64770000D03*
D28*
X53975000Y-67310000D03*
D22*
X52120000Y-69215000D03*
D23*
X54660000Y-69215000D03*
D29*
X57150000Y-22225000D03*
D30*
X57150000Y-18415000D03*
D31*
X22225000Y-31115000D03*
X52705000Y-47625000D03*
D32*
X20320000Y-42545000D03*
D33*
X20320000Y-37465000D03*
D34*
X55245000Y-36195000D03*
D33*
X55245000Y-41275000D03*
D18*
X31115000Y-66675000D03*
D19*
X31115000Y-69215000D03*
X33655000Y-66675000D03*
X33655000Y-69215000D03*
X36195000Y-66675000D03*
X36195000Y-69215000D03*
X38735000Y-66675000D03*
X38735000Y-69215000D03*
X41275000Y-66675000D03*
X41275000Y-69215000D03*
D18*
X46355000Y-66675000D03*
D19*
X46355000Y-69215000D03*
X48895000Y-66675000D03*
X48895000Y-69215000D03*
D18*
X36195000Y-19685000D03*
D19*
X38735000Y-19685000D03*
M02*
