M48
; DRILL file {KiCad 6.0.4+dfsg-1+b1} date Sun 24 Apr 2022 01:25:58 AM EEST
; FORMAT={-:-/ absolute / metric / decimal}
; #@! TF.CreationDate,2022-04-24T01:25:58+03:00
; #@! TF.GenerationSoftware,Kicad,Pcbnew,6.0.4+dfsg-1+b1
; #@! TF.FileFunction,Plated,1,2,PTH
FMAT,2
METRIC
; #@! TA.AperFunction,Plated,PTH,ComponentDrill
T1C0.700
; #@! TA.AperFunction,Plated,PTH,ComponentDrill
T2C0.750
; #@! TA.AperFunction,Plated,PTH,ComponentDrill
T3C0.800
; #@! TA.AperFunction,Plated,PTH,ComponentDrill
T4C0.900
; #@! TA.AperFunction,Plated,PTH,ComponentDrill
T5C1.000
; #@! TA.AperFunction,Plated,PTH,ComponentDrill
T6C1.100
; #@! TA.AperFunction,Plated,PTH,ComponentDrill
T7C1.200
; #@! TA.AperFunction,Plated,PTH,ComponentDrill
T8C1.300
; #@! TA.AperFunction,Plated,PTH,ComponentDrill
T9C2.700
%
G90
G05
T1
X17.78Y-59.69
X17.78Y-62.23
X52.12Y-69.215
X53.975Y-59.69
X53.975Y-62.23
X54.66Y-69.215
T2
X24.765Y-60.96
X26.035Y-59.69
X26.035Y-62.23
X29.845Y-60.96
X31.115Y-59.69
X31.115Y-62.23
X40.005Y-60.96
X41.275Y-59.69
X41.275Y-62.23
X44.767Y-60.96
X46.038Y-59.69
X46.038Y-62.23
T3
X17.78Y-52.705
X17.78Y-55.205
X22.225Y-52.705
X22.225Y-60.325
X25.4Y-52.705
X25.4Y-55.205
X27.94Y-21.59
X27.94Y-26.035
X29.845Y-52.705
X29.845Y-55.205
X30.44Y-21.59
X30.44Y-26.035
X33.972Y-52.705
X33.972Y-55.205
X37.465Y-52.745
X37.465Y-55.245
X41.91Y-52.745
X41.91Y-55.245
X46.355Y-52.745
X46.355Y-55.245
X49.53Y-52.705
X49.53Y-60.325
X53.975Y-52.745
X53.975Y-55.245
T4
X53.975Y-64.77
X53.975Y-67.31
T5
X19.05Y-20.002
X19.05Y-26.402
X22.225Y-15.875
X24.765Y-15.875
X27.305Y-15.875
X31.115Y-66.675
X31.115Y-69.215
X33.655Y-66.675
X33.655Y-69.215
X36.195Y-15.875
X36.195Y-19.685
X36.195Y-66.675
X36.195Y-69.215
X38.735Y-15.875
X38.735Y-19.685
X38.735Y-66.675
X38.735Y-69.215
X41.275Y-66.675
X41.275Y-69.215
X46.355Y-66.675
X46.355Y-69.215
X48.895Y-66.675
X48.895Y-69.215
X59.055Y-52.705
X59.055Y-55.245
X59.055Y-57.785
X59.055Y-60.325
X59.055Y-62.865
X59.055Y-65.405
T6
X57.15Y-18.415
X57.15Y-22.225
T7
X20.32Y-37.465
X20.32Y-42.545
X55.245Y-36.195
X55.245Y-41.275
T8
X33.835Y-28.575
X56.335Y-28.575
T9
X22.225Y-31.115
X52.705Y-47.625
T5
X44.83Y-18.225G85X44.83Y-20.225
G05
X50.53Y-16.225G85X48.53Y-16.225
G05
X50.53Y-22.225G85X48.53Y-22.225
G05
T0
M30
