%FSLAX45Y45*%
G04 Gerber Fmt 4.5, Leading zero omitted, Abs format (unit mm)*
G04 Created by KiCad (PCBNEW 6.0.4+dfsg-1+b1) date 2022-04-24 01:26:00*
%MOMM*%
%LPD*%
G01*
G04 APERTURE LIST*
%TA.AperFunction,Profile*%
%ADD10C,0.150000*%
%TD*%
%ADD11C,0.200000*%
%ADD12C,0.270000*%
G04 APERTURE END LIST*
D10*
X6096000Y-7239000D02*
X1460500Y-7239000D01*
X1460500Y-1206500D02*
X5524500Y-1206500D01*
X6096000Y-1778000D02*
X6096000Y-7239000D01*
X1460500Y-7239000D02*
X1460500Y-1206500D01*
X5524500Y-1206500D02*
X6096000Y-1778000D01*
D11*
D12*
X4373500Y-2722500D02*
X4643500Y-2992500D01*
X4643500Y-2722500D02*
X4373500Y-2992500D01*
D11*
X1710619Y-7556976D02*
X1710619Y-7356976D01*
X1758238Y-7356976D01*
X1786809Y-7366500D01*
X1805857Y-7385548D01*
X1815381Y-7404595D01*
X1824905Y-7442690D01*
X1824905Y-7471262D01*
X1815381Y-7509357D01*
X1805857Y-7528405D01*
X1786809Y-7547452D01*
X1758238Y-7556976D01*
X1710619Y-7556976D01*
X1910619Y-7556976D02*
X1910619Y-7423643D01*
X1910619Y-7461738D02*
X1920143Y-7442690D01*
X1929667Y-7433167D01*
X1948714Y-7423643D01*
X1967762Y-7423643D01*
X2034428Y-7556976D02*
X2034428Y-7423643D01*
X2034428Y-7356976D02*
X2024905Y-7366500D01*
X2034428Y-7376024D01*
X2043952Y-7366500D01*
X2034428Y-7356976D01*
X2034428Y-7376024D01*
X2158238Y-7556976D02*
X2139190Y-7547452D01*
X2129667Y-7528405D01*
X2129667Y-7356976D01*
X2263000Y-7556976D02*
X2243952Y-7547452D01*
X2234429Y-7528405D01*
X2234429Y-7356976D01*
X2491571Y-7556976D02*
X2491571Y-7356976D01*
X2558238Y-7499833D01*
X2624905Y-7356976D01*
X2624905Y-7556976D01*
X2805857Y-7556976D02*
X2805857Y-7452214D01*
X2796333Y-7433167D01*
X2777286Y-7423643D01*
X2739190Y-7423643D01*
X2720143Y-7433167D01*
X2805857Y-7547452D02*
X2786810Y-7556976D01*
X2739190Y-7556976D01*
X2720143Y-7547452D01*
X2710619Y-7528405D01*
X2710619Y-7509357D01*
X2720143Y-7490309D01*
X2739190Y-7480786D01*
X2786810Y-7480786D01*
X2805857Y-7471262D01*
X2901095Y-7423643D02*
X2901095Y-7623643D01*
X2901095Y-7433167D02*
X2920143Y-7423643D01*
X2958238Y-7423643D01*
X2977286Y-7433167D01*
X2986809Y-7442690D01*
X2996333Y-7461738D01*
X2996333Y-7518881D01*
X2986809Y-7537928D01*
X2977286Y-7547452D01*
X2958238Y-7556976D01*
X2920143Y-7556976D01*
X2901095Y-7547452D01*
X3082048Y-7537928D02*
X3091571Y-7547452D01*
X3082048Y-7556976D01*
X3072524Y-7547452D01*
X3082048Y-7537928D01*
X3082048Y-7556976D01*
X3082048Y-7433167D02*
X3091571Y-7442690D01*
X3082048Y-7452214D01*
X3072524Y-7442690D01*
X3082048Y-7433167D01*
X3082048Y-7452214D01*
X1253000Y-7786500D02*
X1453000Y-7986500D01*
X1453000Y-7786500D02*
X1253000Y-7986500D01*
X1701095Y-7796024D02*
X1710619Y-7786500D01*
X1729667Y-7776976D01*
X1777286Y-7776976D01*
X1796333Y-7786500D01*
X1805857Y-7796024D01*
X1815381Y-7815071D01*
X1815381Y-7834119D01*
X1805857Y-7862690D01*
X1691571Y-7976976D01*
X1815381Y-7976976D01*
X1901095Y-7957928D02*
X1910619Y-7967452D01*
X1901095Y-7976976D01*
X1891571Y-7967452D01*
X1901095Y-7957928D01*
X1901095Y-7976976D01*
X1977286Y-7776976D02*
X2110619Y-7776976D01*
X2024905Y-7976976D01*
X2224905Y-7776976D02*
X2243952Y-7776976D01*
X2263000Y-7786500D01*
X2272524Y-7796024D01*
X2282048Y-7815071D01*
X2291571Y-7853167D01*
X2291571Y-7900786D01*
X2282048Y-7938881D01*
X2272524Y-7957928D01*
X2263000Y-7967452D01*
X2243952Y-7976976D01*
X2224905Y-7976976D01*
X2205857Y-7967452D01*
X2196333Y-7957928D01*
X2186810Y-7938881D01*
X2177286Y-7900786D01*
X2177286Y-7853167D01*
X2186810Y-7815071D01*
X2196333Y-7796024D01*
X2205857Y-7786500D01*
X2224905Y-7776976D01*
X2415381Y-7776976D02*
X2434429Y-7776976D01*
X2453476Y-7786500D01*
X2463000Y-7796024D01*
X2472524Y-7815071D01*
X2482048Y-7853167D01*
X2482048Y-7900786D01*
X2472524Y-7938881D01*
X2463000Y-7957928D01*
X2453476Y-7967452D01*
X2434429Y-7976976D01*
X2415381Y-7976976D01*
X2396333Y-7967452D01*
X2386810Y-7957928D01*
X2377286Y-7938881D01*
X2367762Y-7900786D01*
X2367762Y-7853167D01*
X2377286Y-7815071D01*
X2386810Y-7796024D01*
X2396333Y-7786500D01*
X2415381Y-7776976D01*
X2567762Y-7976976D02*
X2567762Y-7843643D01*
X2567762Y-7862690D02*
X2577286Y-7853167D01*
X2596333Y-7843643D01*
X2624905Y-7843643D01*
X2643952Y-7853167D01*
X2653476Y-7872214D01*
X2653476Y-7976976D01*
X2653476Y-7872214D02*
X2663000Y-7853167D01*
X2682048Y-7843643D01*
X2710619Y-7843643D01*
X2729667Y-7853167D01*
X2739190Y-7872214D01*
X2739190Y-7976976D01*
X2834428Y-7976976D02*
X2834428Y-7843643D01*
X2834428Y-7862690D02*
X2843952Y-7853167D01*
X2863000Y-7843643D01*
X2891571Y-7843643D01*
X2910619Y-7853167D01*
X2920143Y-7872214D01*
X2920143Y-7976976D01*
X2920143Y-7872214D02*
X2929667Y-7853167D01*
X2948714Y-7843643D01*
X2977286Y-7843643D01*
X2996333Y-7853167D01*
X3005857Y-7872214D01*
X3005857Y-7976976D01*
X3396333Y-7767452D02*
X3224905Y-8024595D01*
X3653476Y-7776976D02*
X3672524Y-7776976D01*
X3691571Y-7786500D01*
X3701095Y-7796024D01*
X3710619Y-7815071D01*
X3720143Y-7853167D01*
X3720143Y-7900786D01*
X3710619Y-7938881D01*
X3701095Y-7957928D01*
X3691571Y-7967452D01*
X3672524Y-7976976D01*
X3653476Y-7976976D01*
X3634428Y-7967452D01*
X3624905Y-7957928D01*
X3615381Y-7938881D01*
X3605857Y-7900786D01*
X3605857Y-7853167D01*
X3615381Y-7815071D01*
X3624905Y-7796024D01*
X3634428Y-7786500D01*
X3653476Y-7776976D01*
X3805857Y-7957928D02*
X3815381Y-7967452D01*
X3805857Y-7976976D01*
X3796333Y-7967452D01*
X3805857Y-7957928D01*
X3805857Y-7976976D01*
X4005857Y-7976976D02*
X3891571Y-7976976D01*
X3948714Y-7976976D02*
X3948714Y-7776976D01*
X3929667Y-7805548D01*
X3910619Y-7824595D01*
X3891571Y-7834119D01*
X4129667Y-7776976D02*
X4148714Y-7776976D01*
X4167762Y-7786500D01*
X4177286Y-7796024D01*
X4186809Y-7815071D01*
X4196333Y-7853167D01*
X4196333Y-7900786D01*
X4186809Y-7938881D01*
X4177286Y-7957928D01*
X4167762Y-7967452D01*
X4148714Y-7976976D01*
X4129667Y-7976976D01*
X4110619Y-7967452D01*
X4101095Y-7957928D01*
X4091571Y-7938881D01*
X4082048Y-7900786D01*
X4082048Y-7853167D01*
X4091571Y-7815071D01*
X4101095Y-7796024D01*
X4110619Y-7786500D01*
X4129667Y-7776976D01*
X4367762Y-7776976D02*
X4329667Y-7776976D01*
X4310619Y-7786500D01*
X4301095Y-7796024D01*
X4282048Y-7824595D01*
X4272524Y-7862690D01*
X4272524Y-7938881D01*
X4282048Y-7957928D01*
X4291571Y-7967452D01*
X4310619Y-7976976D01*
X4348714Y-7976976D01*
X4367762Y-7967452D01*
X4377286Y-7957928D01*
X4386810Y-7938881D01*
X4386810Y-7891262D01*
X4377286Y-7872214D01*
X4367762Y-7862690D01*
X4348714Y-7853167D01*
X4310619Y-7853167D01*
X4291571Y-7862690D01*
X4282048Y-7872214D01*
X4272524Y-7891262D01*
X4453476Y-7776976D02*
X4577286Y-7776976D01*
X4510619Y-7853167D01*
X4539190Y-7853167D01*
X4558238Y-7862690D01*
X4567762Y-7872214D01*
X4577286Y-7891262D01*
X4577286Y-7938881D01*
X4567762Y-7957928D01*
X4558238Y-7967452D01*
X4539190Y-7976976D01*
X4482048Y-7976976D01*
X4463000Y-7967452D01*
X4453476Y-7957928D01*
X4653476Y-7776976D02*
X4653476Y-7815071D01*
X4729667Y-7776976D02*
X4729667Y-7815071D01*
X5024905Y-8053167D02*
X5015381Y-8043643D01*
X4996333Y-8015071D01*
X4986810Y-7996024D01*
X4977286Y-7967452D01*
X4967762Y-7919833D01*
X4967762Y-7881738D01*
X4977286Y-7834119D01*
X4986810Y-7805548D01*
X4996333Y-7786500D01*
X5015381Y-7757928D01*
X5024905Y-7748405D01*
X5205857Y-7976976D02*
X5091571Y-7976976D01*
X5148714Y-7976976D02*
X5148714Y-7776976D01*
X5129667Y-7805548D01*
X5110619Y-7824595D01*
X5091571Y-7834119D01*
X5443952Y-7976976D02*
X5443952Y-7776976D01*
X5529667Y-7976976D02*
X5529667Y-7872214D01*
X5520143Y-7853167D01*
X5501095Y-7843643D01*
X5472524Y-7843643D01*
X5453476Y-7853167D01*
X5443952Y-7862690D01*
X5653476Y-7976976D02*
X5634428Y-7967452D01*
X5624905Y-7957928D01*
X5615381Y-7938881D01*
X5615381Y-7881738D01*
X5624905Y-7862690D01*
X5634428Y-7853167D01*
X5653476Y-7843643D01*
X5682048Y-7843643D01*
X5701095Y-7853167D01*
X5710619Y-7862690D01*
X5720143Y-7881738D01*
X5720143Y-7938881D01*
X5710619Y-7957928D01*
X5701095Y-7967452D01*
X5682048Y-7976976D01*
X5653476Y-7976976D01*
X5834428Y-7976976D02*
X5815381Y-7967452D01*
X5805857Y-7948405D01*
X5805857Y-7776976D01*
X5986809Y-7967452D02*
X5967762Y-7976976D01*
X5929667Y-7976976D01*
X5910619Y-7967452D01*
X5901095Y-7948405D01*
X5901095Y-7872214D01*
X5910619Y-7853167D01*
X5929667Y-7843643D01*
X5967762Y-7843643D01*
X5986809Y-7853167D01*
X5996333Y-7872214D01*
X5996333Y-7891262D01*
X5901095Y-7910309D01*
X6063000Y-8053167D02*
X6072524Y-8043643D01*
X6091571Y-8015071D01*
X6101095Y-7996024D01*
X6110619Y-7967452D01*
X6120143Y-7919833D01*
X6120143Y-7881738D01*
X6110619Y-7834119D01*
X6101095Y-7805548D01*
X6091571Y-7786500D01*
X6072524Y-7757928D01*
X6063000Y-7748405D01*
X6424905Y-8053167D02*
X6415381Y-8043643D01*
X6396333Y-8015071D01*
X6386809Y-7996024D01*
X6377286Y-7967452D01*
X6367762Y-7919833D01*
X6367762Y-7881738D01*
X6377286Y-7834119D01*
X6386809Y-7805548D01*
X6396333Y-7786500D01*
X6415381Y-7757928D01*
X6424905Y-7748405D01*
X6501095Y-7843643D02*
X6501095Y-7976976D01*
X6501095Y-7862690D02*
X6510619Y-7853167D01*
X6529667Y-7843643D01*
X6558238Y-7843643D01*
X6577286Y-7853167D01*
X6586809Y-7872214D01*
X6586809Y-7976976D01*
X6710619Y-7976976D02*
X6691571Y-7967452D01*
X6682048Y-7957928D01*
X6672524Y-7938881D01*
X6672524Y-7881738D01*
X6682048Y-7862690D01*
X6691571Y-7853167D01*
X6710619Y-7843643D01*
X6739190Y-7843643D01*
X6758238Y-7853167D01*
X6767762Y-7862690D01*
X6777286Y-7881738D01*
X6777286Y-7938881D01*
X6767762Y-7957928D01*
X6758238Y-7967452D01*
X6739190Y-7976976D01*
X6710619Y-7976976D01*
X6834428Y-7843643D02*
X6910619Y-7843643D01*
X6863000Y-7776976D02*
X6863000Y-7948405D01*
X6872524Y-7967452D01*
X6891571Y-7976976D01*
X6910619Y-7976976D01*
X7129667Y-7843643D02*
X7129667Y-8043643D01*
X7129667Y-7853167D02*
X7148714Y-7843643D01*
X7186809Y-7843643D01*
X7205857Y-7853167D01*
X7215381Y-7862690D01*
X7224905Y-7881738D01*
X7224905Y-7938881D01*
X7215381Y-7957928D01*
X7205857Y-7967452D01*
X7186809Y-7976976D01*
X7148714Y-7976976D01*
X7129667Y-7967452D01*
X7339190Y-7976976D02*
X7320143Y-7967452D01*
X7310619Y-7948405D01*
X7310619Y-7776976D01*
X7501095Y-7976976D02*
X7501095Y-7872214D01*
X7491571Y-7853167D01*
X7472524Y-7843643D01*
X7434428Y-7843643D01*
X7415381Y-7853167D01*
X7501095Y-7967452D02*
X7482048Y-7976976D01*
X7434428Y-7976976D01*
X7415381Y-7967452D01*
X7405857Y-7948405D01*
X7405857Y-7929357D01*
X7415381Y-7910309D01*
X7434428Y-7900786D01*
X7482048Y-7900786D01*
X7501095Y-7891262D01*
X7567762Y-7843643D02*
X7643952Y-7843643D01*
X7596333Y-7776976D02*
X7596333Y-7948405D01*
X7605857Y-7967452D01*
X7624905Y-7976976D01*
X7643952Y-7976976D01*
X7786809Y-7967452D02*
X7767762Y-7976976D01*
X7729667Y-7976976D01*
X7710619Y-7967452D01*
X7701095Y-7948405D01*
X7701095Y-7872214D01*
X7710619Y-7853167D01*
X7729667Y-7843643D01*
X7767762Y-7843643D01*
X7786809Y-7853167D01*
X7796333Y-7872214D01*
X7796333Y-7891262D01*
X7701095Y-7910309D01*
X7967762Y-7976976D02*
X7967762Y-7776976D01*
X7967762Y-7967452D02*
X7948714Y-7976976D01*
X7910619Y-7976976D01*
X7891571Y-7967452D01*
X7882048Y-7957928D01*
X7872524Y-7938881D01*
X7872524Y-7881738D01*
X7882048Y-7862690D01*
X7891571Y-7853167D01*
X7910619Y-7843643D01*
X7948714Y-7843643D01*
X7967762Y-7853167D01*
X8043952Y-8053167D02*
X8053476Y-8043643D01*
X8072524Y-8015071D01*
X8082048Y-7996024D01*
X8091571Y-7967452D01*
X8101095Y-7919833D01*
X8101095Y-7881738D01*
X8091571Y-7834119D01*
X8082048Y-7805548D01*
X8072524Y-7786500D01*
X8053476Y-7757928D01*
X8043952Y-7748405D01*
M02*
