G04 #@! TF.GenerationSoftware,KiCad,Pcbnew,6.0.4+dfsg-1+b1*
G04 #@! TF.CreationDate,2022-04-24T01:25:23+03:00*
G04 #@! TF.ProjectId,yatabaza-power,79617461-6261-47a6-912d-706f7765722e,rev?*
G04 #@! TF.SameCoordinates,Original*
G04 #@! TF.FileFunction,Legend,Top*
G04 #@! TF.FilePolarity,Positive*
%FSLAX46Y46*%
G04 Gerber Fmt 4.6, Leading zero omitted, Abs format (unit mm)*
G04 Created by KiCad (PCBNEW 6.0.4+dfsg-1+b1) date 2022-04-24 01:25:23*
%MOMM*%
%LPD*%
G01*
G04 APERTURE LIST*
G04 Aperture macros list*
%AMRoundRect*
0 Rectangle with rounded corners*
0 $1 Rounding radius*
0 $2 $3 $4 $5 $6 $7 $8 $9 X,Y pos of 4 corners*
0 Add a 4 corners polygon primitive as box body*
4,1,4,$2,$3,$4,$5,$6,$7,$8,$9,$2,$3,0*
0 Add four circle primitives for the rounded corners*
1,1,$1+$1,$2,$3*
1,1,$1+$1,$4,$5*
1,1,$1+$1,$6,$7*
1,1,$1+$1,$8,$9*
0 Add four rect primitives between the rounded corners*
20,1,$1+$1,$2,$3,$4,$5,0*
20,1,$1+$1,$4,$5,$6,$7,0*
20,1,$1+$1,$6,$7,$8,$9,0*
20,1,$1+$1,$8,$9,$2,$3,0*%
G04 Aperture macros list end*
%ADD10C,0.150000*%
%ADD11C,0.120000*%
%ADD12C,1.600000*%
%ADD13R,1.600000X1.600000*%
%ADD14R,3.500000X3.500000*%
%ADD15RoundRect,0.750000X-1.000000X0.750000X-1.000000X-0.750000X1.000000X-0.750000X1.000000X0.750000X0*%
%ADD16RoundRect,0.875000X-0.875000X0.875000X-0.875000X-0.875000X0.875000X-0.875000X0.875000X0.875000X0*%
%ADD17O,1.600000X1.600000*%
%ADD18R,1.700000X1.700000*%
%ADD19O,1.700000X1.700000*%
%ADD20O,1.300000X1.300000*%
%ADD21C,1.300000*%
%ADD22C,1.400000*%
%ADD23O,1.400000X1.400000*%
%ADD24C,2.000000*%
%ADD25C,2.700000*%
%ADD26C,3.000000*%
%ADD27R,1.800000X1.800000*%
%ADD28C,1.800000*%
%ADD29R,2.200000X2.200000*%
%ADD30O,2.200000X2.200000*%
%ADD31C,4.500000*%
%ADD32RoundRect,0.250000X1.550000X-0.650000X1.550000X0.650000X-1.550000X0.650000X-1.550000X-0.650000X0*%
%ADD33O,3.600000X1.800000*%
%ADD34RoundRect,0.250000X-1.550000X0.650000X-1.550000X-0.650000X1.550000X-0.650000X1.550000X0.650000X0*%
G04 APERTURE END LIST*
D10*
X41833800Y-28575000D02*
X48336200Y-28575000D01*
X48336200Y-25074880D02*
X58084720Y-25074880D01*
X58084720Y-25074880D02*
X58084720Y-32075120D01*
X58084720Y-32075120D02*
X48336200Y-32075120D01*
X48336200Y-32075120D02*
X48336200Y-25074880D01*
X32085280Y-25074880D02*
X41833800Y-25074880D01*
X41833800Y-25074880D02*
X41833800Y-32075120D01*
X41833800Y-32075120D02*
X32085280Y-32075120D01*
X32085280Y-32075120D02*
X32085280Y-25074880D01*
X33086040Y-26075640D02*
X57083960Y-26075640D01*
X57083960Y-26075640D02*
X57083960Y-31074360D01*
X57083960Y-31074360D02*
X33086040Y-31074360D01*
X33086040Y-31074360D02*
X33086040Y-26075640D01*
X44662142Y-54161666D02*
X44709761Y-54209285D01*
X44757380Y-54352142D01*
X44757380Y-54447380D01*
X44709761Y-54590238D01*
X44614523Y-54685476D01*
X44519285Y-54733095D01*
X44328809Y-54780714D01*
X44185952Y-54780714D01*
X43995476Y-54733095D01*
X43900238Y-54685476D01*
X43805000Y-54590238D01*
X43757380Y-54447380D01*
X43757380Y-54352142D01*
X43805000Y-54209285D01*
X43852619Y-54161666D01*
X44757380Y-53209285D02*
X44757380Y-53780714D01*
X44757380Y-53495000D02*
X43757380Y-53495000D01*
X43900238Y-53590238D01*
X43995476Y-53685476D01*
X44043095Y-53780714D01*
X27807142Y-54121666D02*
X27854761Y-54169285D01*
X27902380Y-54312142D01*
X27902380Y-54407380D01*
X27854761Y-54550238D01*
X27759523Y-54645476D01*
X27664285Y-54693095D01*
X27473809Y-54740714D01*
X27330952Y-54740714D01*
X27140476Y-54693095D01*
X27045238Y-54645476D01*
X26950000Y-54550238D01*
X26902380Y-54407380D01*
X26902380Y-54312142D01*
X26950000Y-54169285D01*
X26997619Y-54121666D01*
X26997619Y-53740714D02*
X26950000Y-53693095D01*
X26902380Y-53597857D01*
X26902380Y-53359761D01*
X26950000Y-53264523D01*
X26997619Y-53216904D01*
X27092857Y-53169285D01*
X27188095Y-53169285D01*
X27330952Y-53216904D01*
X27902380Y-53788333D01*
X27902380Y-53169285D01*
X50582142Y-54161666D02*
X50629761Y-54209285D01*
X50677380Y-54352142D01*
X50677380Y-54447380D01*
X50629761Y-54590238D01*
X50534523Y-54685476D01*
X50439285Y-54733095D01*
X50248809Y-54780714D01*
X50105952Y-54780714D01*
X49915476Y-54733095D01*
X49820238Y-54685476D01*
X49725000Y-54590238D01*
X49677380Y-54447380D01*
X49677380Y-54352142D01*
X49725000Y-54209285D01*
X49772619Y-54161666D01*
X49677380Y-53828333D02*
X49677380Y-53209285D01*
X50058333Y-53542619D01*
X50058333Y-53399761D01*
X50105952Y-53304523D01*
X50153571Y-53256904D01*
X50248809Y-53209285D01*
X50486904Y-53209285D01*
X50582142Y-53256904D01*
X50629761Y-53304523D01*
X50677380Y-53399761D01*
X50677380Y-53685476D01*
X50629761Y-53780714D01*
X50582142Y-53828333D01*
X21887142Y-54121666D02*
X21934761Y-54169285D01*
X21982380Y-54312142D01*
X21982380Y-54407380D01*
X21934761Y-54550238D01*
X21839523Y-54645476D01*
X21744285Y-54693095D01*
X21553809Y-54740714D01*
X21410952Y-54740714D01*
X21220476Y-54693095D01*
X21125238Y-54645476D01*
X21030000Y-54550238D01*
X20982380Y-54407380D01*
X20982380Y-54312142D01*
X21030000Y-54169285D01*
X21077619Y-54121666D01*
X21315714Y-53264523D02*
X21982380Y-53264523D01*
X20934761Y-53502619D02*
X21649047Y-53740714D01*
X21649047Y-53121666D01*
X35772142Y-54161666D02*
X35819761Y-54209285D01*
X35867380Y-54352142D01*
X35867380Y-54447380D01*
X35819761Y-54590238D01*
X35724523Y-54685476D01*
X35629285Y-54733095D01*
X35438809Y-54780714D01*
X35295952Y-54780714D01*
X35105476Y-54733095D01*
X35010238Y-54685476D01*
X34915000Y-54590238D01*
X34867380Y-54447380D01*
X34867380Y-54352142D01*
X34915000Y-54209285D01*
X34962619Y-54161666D01*
X34867380Y-53256904D02*
X34867380Y-53733095D01*
X35343571Y-53780714D01*
X35295952Y-53733095D01*
X35248333Y-53637857D01*
X35248333Y-53399761D01*
X35295952Y-53304523D01*
X35343571Y-53256904D01*
X35438809Y-53209285D01*
X35676904Y-53209285D01*
X35772142Y-53256904D01*
X35819761Y-53304523D01*
X35867380Y-53399761D01*
X35867380Y-53637857D01*
X35819761Y-53733095D01*
X35772142Y-53780714D01*
X36379642Y-54121666D02*
X36427261Y-54169285D01*
X36474880Y-54312142D01*
X36474880Y-54407380D01*
X36427261Y-54550238D01*
X36332023Y-54645476D01*
X36236785Y-54693095D01*
X36046309Y-54740714D01*
X35903452Y-54740714D01*
X35712976Y-54693095D01*
X35617738Y-54645476D01*
X35522500Y-54550238D01*
X35474880Y-54407380D01*
X35474880Y-54312142D01*
X35522500Y-54169285D01*
X35570119Y-54121666D01*
X35474880Y-53264523D02*
X35474880Y-53455000D01*
X35522500Y-53550238D01*
X35570119Y-53597857D01*
X35712976Y-53693095D01*
X35903452Y-53740714D01*
X36284404Y-53740714D01*
X36379642Y-53693095D01*
X36427261Y-53645476D01*
X36474880Y-53550238D01*
X36474880Y-53359761D01*
X36427261Y-53264523D01*
X36379642Y-53216904D01*
X36284404Y-53169285D01*
X36046309Y-53169285D01*
X35951071Y-53216904D01*
X35903452Y-53264523D01*
X35855833Y-53359761D01*
X35855833Y-53550238D01*
X35903452Y-53645476D01*
X35951071Y-53693095D01*
X36046309Y-53740714D01*
X38517142Y-54161666D02*
X38564761Y-54209285D01*
X38612380Y-54352142D01*
X38612380Y-54447380D01*
X38564761Y-54590238D01*
X38469523Y-54685476D01*
X38374285Y-54733095D01*
X38183809Y-54780714D01*
X38040952Y-54780714D01*
X37850476Y-54733095D01*
X37755238Y-54685476D01*
X37660000Y-54590238D01*
X37612380Y-54447380D01*
X37612380Y-54352142D01*
X37660000Y-54209285D01*
X37707619Y-54161666D01*
X37612380Y-53828333D02*
X37612380Y-53161666D01*
X38612380Y-53590238D01*
X33952142Y-54121666D02*
X33999761Y-54169285D01*
X34047380Y-54312142D01*
X34047380Y-54407380D01*
X33999761Y-54550238D01*
X33904523Y-54645476D01*
X33809285Y-54693095D01*
X33618809Y-54740714D01*
X33475952Y-54740714D01*
X33285476Y-54693095D01*
X33190238Y-54645476D01*
X33095000Y-54550238D01*
X33047380Y-54407380D01*
X33047380Y-54312142D01*
X33095000Y-54169285D01*
X33142619Y-54121666D01*
X33475952Y-53550238D02*
X33428333Y-53645476D01*
X33380714Y-53693095D01*
X33285476Y-53740714D01*
X33237857Y-53740714D01*
X33142619Y-53693095D01*
X33095000Y-53645476D01*
X33047380Y-53550238D01*
X33047380Y-53359761D01*
X33095000Y-53264523D01*
X33142619Y-53216904D01*
X33237857Y-53169285D01*
X33285476Y-53169285D01*
X33380714Y-53216904D01*
X33428333Y-53264523D01*
X33475952Y-53359761D01*
X33475952Y-53550238D01*
X33523571Y-53645476D01*
X33571190Y-53693095D01*
X33666428Y-53740714D01*
X33856904Y-53740714D01*
X33952142Y-53693095D01*
X33999761Y-53645476D01*
X34047380Y-53550238D01*
X34047380Y-53359761D01*
X33999761Y-53264523D01*
X33952142Y-53216904D01*
X33856904Y-53169285D01*
X33666428Y-53169285D01*
X33571190Y-53216904D01*
X33523571Y-53264523D01*
X33475952Y-53359761D01*
X44137142Y-14989285D02*
X44184761Y-15036904D01*
X44232380Y-15179761D01*
X44232380Y-15275000D01*
X44184761Y-15417857D01*
X44089523Y-15513095D01*
X43994285Y-15560714D01*
X43803809Y-15608333D01*
X43660952Y-15608333D01*
X43470476Y-15560714D01*
X43375238Y-15513095D01*
X43280000Y-15417857D01*
X43232380Y-15275000D01*
X43232380Y-15179761D01*
X43280000Y-15036904D01*
X43327619Y-14989285D01*
X43232380Y-14370238D02*
X43232380Y-14179761D01*
X43280000Y-14084523D01*
X43375238Y-13989285D01*
X43565714Y-13941666D01*
X43899047Y-13941666D01*
X44089523Y-13989285D01*
X44184761Y-14084523D01*
X44232380Y-14179761D01*
X44232380Y-14370238D01*
X44184761Y-14465476D01*
X44089523Y-14560714D01*
X43899047Y-14608333D01*
X43565714Y-14608333D01*
X43375238Y-14560714D01*
X43280000Y-14465476D01*
X43232380Y-14370238D01*
X44232380Y-13513095D02*
X43232380Y-13513095D01*
X44232380Y-12941666D01*
X43232380Y-12941666D01*
X44232380Y-11941666D02*
X44232380Y-12513095D01*
X44232380Y-12227380D02*
X43232380Y-12227380D01*
X43375238Y-12322619D01*
X43470476Y-12417857D01*
X43518095Y-12513095D01*
X51887380Y-57253095D02*
X50887380Y-57253095D01*
X50887380Y-57015000D01*
X50935000Y-56872142D01*
X51030238Y-56776904D01*
X51125476Y-56729285D01*
X51315952Y-56681666D01*
X51458809Y-56681666D01*
X51649285Y-56729285D01*
X51744523Y-56776904D01*
X51839761Y-56872142D01*
X51887380Y-57015000D01*
X51887380Y-57253095D01*
X50982619Y-56300714D02*
X50935000Y-56253095D01*
X50887380Y-56157857D01*
X50887380Y-55919761D01*
X50935000Y-55824523D01*
X50982619Y-55776904D01*
X51077857Y-55729285D01*
X51173095Y-55729285D01*
X51315952Y-55776904D01*
X51887380Y-56348333D01*
X51887380Y-55729285D01*
X48182380Y-60586904D02*
X47182380Y-60586904D01*
X48182380Y-60015476D02*
X47610952Y-60444047D01*
X47182380Y-60015476D02*
X47753809Y-60586904D01*
X20772380Y-57570595D02*
X19772380Y-57570595D01*
X19772380Y-57332500D01*
X19820000Y-57189642D01*
X19915238Y-57094404D01*
X20010476Y-57046785D01*
X20200952Y-56999166D01*
X20343809Y-56999166D01*
X20534285Y-57046785D01*
X20629523Y-57094404D01*
X20724761Y-57189642D01*
X20772380Y-57332500D01*
X20772380Y-57570595D01*
X19772380Y-56665833D02*
X19772380Y-56046785D01*
X20153333Y-56380119D01*
X20153333Y-56237261D01*
X20200952Y-56142023D01*
X20248571Y-56094404D01*
X20343809Y-56046785D01*
X20581904Y-56046785D01*
X20677142Y-56094404D01*
X20724761Y-56142023D01*
X20772380Y-56237261D01*
X20772380Y-56522976D01*
X20724761Y-56618214D01*
X20677142Y-56665833D01*
X24477380Y-52966904D02*
X23477380Y-52966904D01*
X24477380Y-52395476D02*
X23905952Y-52824047D01*
X23477380Y-52395476D02*
X24048809Y-52966904D01*
X58316904Y-68187380D02*
X58316904Y-67187380D01*
X58697857Y-67187380D01*
X58793095Y-67235000D01*
X58840714Y-67282619D01*
X58888333Y-67377857D01*
X58888333Y-67520714D01*
X58840714Y-67615952D01*
X58793095Y-67663571D01*
X58697857Y-67711190D01*
X58316904Y-67711190D01*
X59840714Y-68187380D02*
X59269285Y-68187380D01*
X59555000Y-68187380D02*
X59555000Y-67187380D01*
X59459761Y-67330238D01*
X59364523Y-67425476D01*
X59269285Y-67473095D01*
X36345952Y-13581071D02*
X36488809Y-13628690D01*
X36536428Y-13676309D01*
X36584047Y-13771547D01*
X36584047Y-13914404D01*
X36536428Y-14009642D01*
X36488809Y-14057261D01*
X36393571Y-14104880D01*
X36012619Y-14104880D01*
X36012619Y-13104880D01*
X36345952Y-13104880D01*
X36441190Y-13152500D01*
X36488809Y-13200119D01*
X36536428Y-13295357D01*
X36536428Y-13390595D01*
X36488809Y-13485833D01*
X36441190Y-13533452D01*
X36345952Y-13581071D01*
X36012619Y-13581071D01*
X36965000Y-13819166D02*
X37441190Y-13819166D01*
X36869761Y-14104880D02*
X37203095Y-13104880D01*
X37536428Y-14104880D01*
X37726904Y-13104880D02*
X38298333Y-13104880D01*
X38012619Y-14104880D02*
X38012619Y-13104880D01*
X38488809Y-13104880D02*
X39060238Y-13104880D01*
X38774523Y-14104880D02*
X38774523Y-13104880D01*
X22384047Y-14104880D02*
X22384047Y-13104880D01*
X22765000Y-13104880D01*
X22860238Y-13152500D01*
X22907857Y-13200119D01*
X22955476Y-13295357D01*
X22955476Y-13438214D01*
X22907857Y-13533452D01*
X22860238Y-13581071D01*
X22765000Y-13628690D01*
X22384047Y-13628690D01*
X23288809Y-13104880D02*
X23526904Y-14104880D01*
X23717380Y-13390595D01*
X23907857Y-14104880D01*
X24145952Y-13104880D01*
X25098333Y-14104880D02*
X24765000Y-13628690D01*
X24526904Y-14104880D02*
X24526904Y-13104880D01*
X24907857Y-13104880D01*
X25003095Y-13152500D01*
X25050714Y-13200119D01*
X25098333Y-13295357D01*
X25098333Y-13438214D01*
X25050714Y-13533452D01*
X25003095Y-13581071D01*
X24907857Y-13628690D01*
X24526904Y-13628690D01*
X25479285Y-14057261D02*
X25622142Y-14104880D01*
X25860238Y-14104880D01*
X25955476Y-14057261D01*
X26003095Y-14009642D01*
X26050714Y-13914404D01*
X26050714Y-13819166D01*
X26003095Y-13723928D01*
X25955476Y-13676309D01*
X25860238Y-13628690D01*
X25669761Y-13581071D01*
X25574523Y-13533452D01*
X25526904Y-13485833D01*
X25479285Y-13390595D01*
X25479285Y-13295357D01*
X25526904Y-13200119D01*
X25574523Y-13152500D01*
X25669761Y-13104880D01*
X25907857Y-13104880D01*
X26050714Y-13152500D01*
X26384047Y-13104880D02*
X26622142Y-14104880D01*
X26812619Y-13390595D01*
X27003095Y-14104880D01*
X27241190Y-13104880D01*
X45942261Y-58015119D02*
X45847023Y-57967500D01*
X45751785Y-57872261D01*
X45608928Y-57729404D01*
X45513690Y-57681785D01*
X45418452Y-57681785D01*
X45466071Y-57919880D02*
X45370833Y-57872261D01*
X45275595Y-57777023D01*
X45227976Y-57586547D01*
X45227976Y-57253214D01*
X45275595Y-57062738D01*
X45370833Y-56967500D01*
X45466071Y-56919880D01*
X45656547Y-56919880D01*
X45751785Y-56967500D01*
X45847023Y-57062738D01*
X45894642Y-57253214D01*
X45894642Y-57586547D01*
X45847023Y-57777023D01*
X45751785Y-57872261D01*
X45656547Y-57919880D01*
X45466071Y-57919880D01*
X46847023Y-57919880D02*
X46275595Y-57919880D01*
X46561309Y-57919880D02*
X46561309Y-56919880D01*
X46466071Y-57062738D01*
X46370833Y-57157976D01*
X46275595Y-57205595D01*
X25939761Y-58015119D02*
X25844523Y-57967500D01*
X25749285Y-57872261D01*
X25606428Y-57729404D01*
X25511190Y-57681785D01*
X25415952Y-57681785D01*
X25463571Y-57919880D02*
X25368333Y-57872261D01*
X25273095Y-57777023D01*
X25225476Y-57586547D01*
X25225476Y-57253214D01*
X25273095Y-57062738D01*
X25368333Y-56967500D01*
X25463571Y-56919880D01*
X25654047Y-56919880D01*
X25749285Y-56967500D01*
X25844523Y-57062738D01*
X25892142Y-57253214D01*
X25892142Y-57586547D01*
X25844523Y-57777023D01*
X25749285Y-57872261D01*
X25654047Y-57919880D01*
X25463571Y-57919880D01*
X26273095Y-57015119D02*
X26320714Y-56967500D01*
X26415952Y-56919880D01*
X26654047Y-56919880D01*
X26749285Y-56967500D01*
X26796904Y-57015119D01*
X26844523Y-57110357D01*
X26844523Y-57205595D01*
X26796904Y-57348452D01*
X26225476Y-57919880D01*
X26844523Y-57919880D01*
X41179761Y-58015119D02*
X41084523Y-57967500D01*
X40989285Y-57872261D01*
X40846428Y-57729404D01*
X40751190Y-57681785D01*
X40655952Y-57681785D01*
X40703571Y-57919880D02*
X40608333Y-57872261D01*
X40513095Y-57777023D01*
X40465476Y-57586547D01*
X40465476Y-57253214D01*
X40513095Y-57062738D01*
X40608333Y-56967500D01*
X40703571Y-56919880D01*
X40894047Y-56919880D01*
X40989285Y-56967500D01*
X41084523Y-57062738D01*
X41132142Y-57253214D01*
X41132142Y-57586547D01*
X41084523Y-57777023D01*
X40989285Y-57872261D01*
X40894047Y-57919880D01*
X40703571Y-57919880D01*
X41465476Y-56919880D02*
X42084523Y-56919880D01*
X41751190Y-57300833D01*
X41894047Y-57300833D01*
X41989285Y-57348452D01*
X42036904Y-57396071D01*
X42084523Y-57491309D01*
X42084523Y-57729404D01*
X42036904Y-57824642D01*
X41989285Y-57872261D01*
X41894047Y-57919880D01*
X41608333Y-57919880D01*
X41513095Y-57872261D01*
X41465476Y-57824642D01*
X31019761Y-58015119D02*
X30924523Y-57967500D01*
X30829285Y-57872261D01*
X30686428Y-57729404D01*
X30591190Y-57681785D01*
X30495952Y-57681785D01*
X30543571Y-57919880D02*
X30448333Y-57872261D01*
X30353095Y-57777023D01*
X30305476Y-57586547D01*
X30305476Y-57253214D01*
X30353095Y-57062738D01*
X30448333Y-56967500D01*
X30543571Y-56919880D01*
X30734047Y-56919880D01*
X30829285Y-56967500D01*
X30924523Y-57062738D01*
X30972142Y-57253214D01*
X30972142Y-57586547D01*
X30924523Y-57777023D01*
X30829285Y-57872261D01*
X30734047Y-57919880D01*
X30543571Y-57919880D01*
X31829285Y-57253214D02*
X31829285Y-57919880D01*
X31591190Y-56872261D02*
X31353095Y-57586547D01*
X31972142Y-57586547D01*
X52507380Y-61126666D02*
X52031190Y-61460000D01*
X52507380Y-61698095D02*
X51507380Y-61698095D01*
X51507380Y-61317142D01*
X51555000Y-61221904D01*
X51602619Y-61174285D01*
X51697857Y-61126666D01*
X51840714Y-61126666D01*
X51935952Y-61174285D01*
X51983571Y-61221904D01*
X52031190Y-61317142D01*
X52031190Y-61698095D01*
X52507380Y-60174285D02*
X52507380Y-60745714D01*
X52507380Y-60460000D02*
X51507380Y-60460000D01*
X51650238Y-60555238D01*
X51745476Y-60650476D01*
X51793095Y-60745714D01*
X20152380Y-61126666D02*
X19676190Y-61460000D01*
X20152380Y-61698095D02*
X19152380Y-61698095D01*
X19152380Y-61317142D01*
X19200000Y-61221904D01*
X19247619Y-61174285D01*
X19342857Y-61126666D01*
X19485714Y-61126666D01*
X19580952Y-61174285D01*
X19628571Y-61221904D01*
X19676190Y-61317142D01*
X19676190Y-61698095D01*
X19247619Y-60745714D02*
X19200000Y-60698095D01*
X19152380Y-60602857D01*
X19152380Y-60364761D01*
X19200000Y-60269523D01*
X19247619Y-60221904D01*
X19342857Y-60174285D01*
X19438095Y-60174285D01*
X19580952Y-60221904D01*
X20152380Y-60793333D01*
X20152380Y-60174285D01*
X29023333Y-18197142D02*
X28975714Y-18244761D01*
X28832857Y-18292380D01*
X28737619Y-18292380D01*
X28594761Y-18244761D01*
X28499523Y-18149523D01*
X28451904Y-18054285D01*
X28404285Y-17863809D01*
X28404285Y-17720952D01*
X28451904Y-17530476D01*
X28499523Y-17435238D01*
X28594761Y-17340000D01*
X28737619Y-17292380D01*
X28832857Y-17292380D01*
X28975714Y-17340000D01*
X29023333Y-17387619D01*
X29499523Y-18292380D02*
X29690000Y-18292380D01*
X29785238Y-18244761D01*
X29832857Y-18197142D01*
X29928095Y-18054285D01*
X29975714Y-17863809D01*
X29975714Y-17482857D01*
X29928095Y-17387619D01*
X29880476Y-17340000D01*
X29785238Y-17292380D01*
X29594761Y-17292380D01*
X29499523Y-17340000D01*
X29451904Y-17387619D01*
X29404285Y-17482857D01*
X29404285Y-17720952D01*
X29451904Y-17816190D01*
X29499523Y-17863809D01*
X29594761Y-17911428D01*
X29785238Y-17911428D01*
X29880476Y-17863809D01*
X29928095Y-17816190D01*
X29975714Y-17720952D01*
X28547142Y-24342142D02*
X28499523Y-24389761D01*
X28356666Y-24437380D01*
X28261428Y-24437380D01*
X28118571Y-24389761D01*
X28023333Y-24294523D01*
X27975714Y-24199285D01*
X27928095Y-24008809D01*
X27928095Y-23865952D01*
X27975714Y-23675476D01*
X28023333Y-23580238D01*
X28118571Y-23485000D01*
X28261428Y-23437380D01*
X28356666Y-23437380D01*
X28499523Y-23485000D01*
X28547142Y-23532619D01*
X29499523Y-24437380D02*
X28928095Y-24437380D01*
X29213809Y-24437380D02*
X29213809Y-23437380D01*
X29118571Y-23580238D01*
X29023333Y-23675476D01*
X28928095Y-23723095D01*
X30118571Y-23437380D02*
X30213809Y-23437380D01*
X30309047Y-23485000D01*
X30356666Y-23532619D01*
X30404285Y-23627857D01*
X30451904Y-23818333D01*
X30451904Y-24056428D01*
X30404285Y-24246904D01*
X30356666Y-24342142D01*
X30309047Y-24389761D01*
X30213809Y-24437380D01*
X30118571Y-24437380D01*
X30023333Y-24389761D01*
X29975714Y-24342142D01*
X29928095Y-24246904D01*
X29880476Y-24056428D01*
X29880476Y-23818333D01*
X29928095Y-23627857D01*
X29975714Y-23532619D01*
X30023333Y-23485000D01*
X30118571Y-23437380D01*
X21720833Y-23654880D02*
X21244642Y-23654880D01*
X21244642Y-22654880D01*
X22577976Y-23654880D02*
X22006547Y-23654880D01*
X22292261Y-23654880D02*
X22292261Y-22654880D01*
X22197023Y-22797738D01*
X22101785Y-22892976D01*
X22006547Y-22940595D01*
X44751666Y-24693571D02*
X44418333Y-24693571D01*
X44418333Y-25217380D02*
X44418333Y-24217380D01*
X44894523Y-24217380D01*
X45799285Y-25217380D02*
X45227857Y-25217380D01*
X45513571Y-25217380D02*
X45513571Y-24217380D01*
X45418333Y-24360238D01*
X45323095Y-24455476D01*
X45227857Y-24503095D01*
X43275476Y-31837380D02*
X42799285Y-31837380D01*
X42751666Y-32313571D01*
X42799285Y-32265952D01*
X42894523Y-32218333D01*
X43132619Y-32218333D01*
X43227857Y-32265952D01*
X43275476Y-32313571D01*
X43323095Y-32408809D01*
X43323095Y-32646904D01*
X43275476Y-32742142D01*
X43227857Y-32789761D01*
X43132619Y-32837380D01*
X42894523Y-32837380D01*
X42799285Y-32789761D01*
X42751666Y-32742142D01*
X43942142Y-31837380D02*
X44037380Y-31837380D01*
X44132619Y-31885000D01*
X44180238Y-31932619D01*
X44227857Y-32027857D01*
X44275476Y-32218333D01*
X44275476Y-32456428D01*
X44227857Y-32646904D01*
X44180238Y-32742142D01*
X44132619Y-32789761D01*
X44037380Y-32837380D01*
X43942142Y-32837380D01*
X43846904Y-32789761D01*
X43799285Y-32742142D01*
X43751666Y-32646904D01*
X43704047Y-32456428D01*
X43704047Y-32218333D01*
X43751666Y-32027857D01*
X43799285Y-31932619D01*
X43846904Y-31885000D01*
X43942142Y-31837380D01*
X44894523Y-31837380D02*
X44989761Y-31837380D01*
X45085000Y-31885000D01*
X45132619Y-31932619D01*
X45180238Y-32027857D01*
X45227857Y-32218333D01*
X45227857Y-32456428D01*
X45180238Y-32646904D01*
X45132619Y-32742142D01*
X45085000Y-32789761D01*
X44989761Y-32837380D01*
X44894523Y-32837380D01*
X44799285Y-32789761D01*
X44751666Y-32742142D01*
X44704047Y-32646904D01*
X44656428Y-32456428D01*
X44656428Y-32218333D01*
X44704047Y-32027857D01*
X44751666Y-31932619D01*
X44799285Y-31885000D01*
X44894523Y-31837380D01*
X45656428Y-32837380D02*
X45656428Y-32170714D01*
X45656428Y-32265952D02*
X45704047Y-32218333D01*
X45799285Y-32170714D01*
X45942142Y-32170714D01*
X46037380Y-32218333D01*
X46085000Y-32313571D01*
X46085000Y-32837380D01*
X46085000Y-32313571D02*
X46132619Y-32218333D01*
X46227857Y-32170714D01*
X46370714Y-32170714D01*
X46465952Y-32218333D01*
X46513571Y-32313571D01*
X46513571Y-32837380D01*
X46942142Y-32551666D02*
X47418333Y-32551666D01*
X46846904Y-32837380D02*
X47180238Y-31837380D01*
X47513571Y-32837380D01*
X57387380Y-66778095D02*
X56387380Y-66778095D01*
X56387380Y-66540000D01*
X56435000Y-66397142D01*
X56530238Y-66301904D01*
X56625476Y-66254285D01*
X56815952Y-66206666D01*
X56958809Y-66206666D01*
X57149285Y-66254285D01*
X57244523Y-66301904D01*
X57339761Y-66397142D01*
X57387380Y-66540000D01*
X57387380Y-66778095D01*
X56720714Y-65349523D02*
X57387380Y-65349523D01*
X56339761Y-65587619D02*
X57054047Y-65825714D01*
X57054047Y-65206666D01*
X52687380Y-63341904D02*
X51687380Y-63341904D01*
X52687380Y-62770476D02*
X52115952Y-63199047D01*
X51687380Y-62770476D02*
X52258809Y-63341904D01*
X53223333Y-67747380D02*
X52890000Y-67271190D01*
X52651904Y-67747380D02*
X52651904Y-66747380D01*
X53032857Y-66747380D01*
X53128095Y-66795000D01*
X53175714Y-66842619D01*
X53223333Y-66937857D01*
X53223333Y-67080714D01*
X53175714Y-67175952D01*
X53128095Y-67223571D01*
X53032857Y-67271190D01*
X52651904Y-67271190D01*
X53556666Y-66747380D02*
X54175714Y-66747380D01*
X53842380Y-67128333D01*
X53985238Y-67128333D01*
X54080476Y-67175952D01*
X54128095Y-67223571D01*
X54175714Y-67318809D01*
X54175714Y-67556904D01*
X54128095Y-67652142D01*
X54080476Y-67699761D01*
X53985238Y-67747380D01*
X53699523Y-67747380D01*
X53604285Y-67699761D01*
X53556666Y-67652142D01*
X60142380Y-20903730D02*
X59142380Y-20903730D01*
X59142380Y-20665635D01*
X59190000Y-20522777D01*
X59285238Y-20427539D01*
X59380476Y-20379920D01*
X59570952Y-20332301D01*
X59713809Y-20332301D01*
X59904285Y-20379920D01*
X59999523Y-20427539D01*
X60094761Y-20522777D01*
X60142380Y-20665635D01*
X60142380Y-20903730D01*
X60142380Y-19379920D02*
X60142380Y-19951349D01*
X60142380Y-19665635D02*
X59142380Y-19665635D01*
X59285238Y-19760873D01*
X59380476Y-19856111D01*
X59428095Y-19951349D01*
X58702380Y-20686904D02*
X57702380Y-20686904D01*
X58702380Y-20115476D02*
X58130952Y-20544047D01*
X57702380Y-20115476D02*
X58273809Y-20686904D01*
X58416666Y-20453095D02*
X58416666Y-19976904D01*
X58702380Y-20548333D02*
X57702380Y-20215000D01*
X58702380Y-19881666D01*
X19581904Y-40457380D02*
X19581904Y-39457380D01*
X19962857Y-39457380D01*
X20058095Y-39505000D01*
X20105714Y-39552619D01*
X20153333Y-39647857D01*
X20153333Y-39790714D01*
X20105714Y-39885952D01*
X20058095Y-39933571D01*
X19962857Y-39981190D01*
X19581904Y-39981190D01*
X20629523Y-40457380D02*
X20820000Y-40457380D01*
X20915238Y-40409761D01*
X20962857Y-40362142D01*
X21058095Y-40219285D01*
X21105714Y-40028809D01*
X21105714Y-39647857D01*
X21058095Y-39552619D01*
X21010476Y-39505000D01*
X20915238Y-39457380D01*
X20724761Y-39457380D01*
X20629523Y-39505000D01*
X20581904Y-39552619D01*
X20534285Y-39647857D01*
X20534285Y-39885952D01*
X20581904Y-39981190D01*
X20629523Y-40028809D01*
X20724761Y-40076428D01*
X20915238Y-40076428D01*
X21010476Y-40028809D01*
X21058095Y-39981190D01*
X21105714Y-39885952D01*
X24872380Y-40624047D02*
X24872380Y-41195476D01*
X24872380Y-40909761D02*
X23872380Y-40909761D01*
X24015238Y-41005000D01*
X24110476Y-41100238D01*
X24158095Y-41195476D01*
X23967619Y-40243095D02*
X23920000Y-40195476D01*
X23872380Y-40100238D01*
X23872380Y-39862142D01*
X23920000Y-39766904D01*
X23967619Y-39719285D01*
X24062857Y-39671666D01*
X24158095Y-39671666D01*
X24300952Y-39719285D01*
X24872380Y-40290714D01*
X24872380Y-39671666D01*
X23872380Y-39385952D02*
X24872380Y-39052619D01*
X23872380Y-38719285D01*
X54030714Y-39187380D02*
X54030714Y-38187380D01*
X54411666Y-38187380D01*
X54506904Y-38235000D01*
X54554523Y-38282619D01*
X54602142Y-38377857D01*
X54602142Y-38520714D01*
X54554523Y-38615952D01*
X54506904Y-38663571D01*
X54411666Y-38711190D01*
X54030714Y-38711190D01*
X55554523Y-39187380D02*
X54983095Y-39187380D01*
X55268809Y-39187380D02*
X55268809Y-38187380D01*
X55173571Y-38330238D01*
X55078333Y-38425476D01*
X54983095Y-38473095D01*
X56173571Y-38187380D02*
X56268809Y-38187380D01*
X56364047Y-38235000D01*
X56411666Y-38282619D01*
X56459285Y-38377857D01*
X56506904Y-38568333D01*
X56506904Y-38806428D01*
X56459285Y-38996904D01*
X56411666Y-39092142D01*
X56364047Y-39139761D01*
X56268809Y-39187380D01*
X56173571Y-39187380D01*
X56078333Y-39139761D01*
X56030714Y-39092142D01*
X55983095Y-38996904D01*
X55935476Y-38806428D01*
X55935476Y-38568333D01*
X55983095Y-38377857D01*
X56030714Y-38282619D01*
X56078333Y-38235000D01*
X56173571Y-38187380D01*
X50597380Y-38925476D02*
X50597380Y-39401666D01*
X51073571Y-39449285D01*
X51025952Y-39401666D01*
X50978333Y-39306428D01*
X50978333Y-39068333D01*
X51025952Y-38973095D01*
X51073571Y-38925476D01*
X51168809Y-38877857D01*
X51406904Y-38877857D01*
X51502142Y-38925476D01*
X51549761Y-38973095D01*
X51597380Y-39068333D01*
X51597380Y-39306428D01*
X51549761Y-39401666D01*
X51502142Y-39449285D01*
X50597380Y-38592142D02*
X51597380Y-38258809D01*
X50597380Y-37925476D01*
D11*
X47275000Y-54624000D02*
X47275000Y-53366000D01*
X45435000Y-54624000D02*
X45435000Y-53366000D01*
X24480000Y-53326000D02*
X24480000Y-54584000D01*
X26320000Y-53326000D02*
X26320000Y-54584000D01*
X52797000Y-51674000D02*
X55153000Y-51674000D01*
X51610000Y-52954000D02*
X52935000Y-52954000D01*
X51910000Y-52434000D02*
X52935000Y-52434000D01*
X55015000Y-52274000D02*
X55912000Y-52274000D01*
X51399000Y-53835000D02*
X56551000Y-53835000D01*
X55015000Y-51914000D02*
X55529000Y-51914000D01*
X51396000Y-53915000D02*
X56554000Y-53915000D01*
X55015000Y-53274000D02*
X56455000Y-53274000D01*
X51432000Y-53555000D02*
X52935000Y-53555000D01*
X51593000Y-52994000D02*
X52935000Y-52994000D01*
X52592000Y-51794000D02*
X52935000Y-51794000D01*
X51402000Y-53795000D02*
X56548000Y-53795000D01*
X55015000Y-52754000D02*
X56243000Y-52754000D01*
X52190000Y-52114000D02*
X52935000Y-52114000D01*
X55015000Y-52794000D02*
X56265000Y-52794000D01*
X55015000Y-52194000D02*
X55839000Y-52194000D01*
X51940000Y-52394000D02*
X52935000Y-52394000D01*
X52250000Y-56549775D02*
X52750000Y-56549775D01*
X55015000Y-52234000D02*
X55876000Y-52234000D01*
X55015000Y-53395000D02*
X56486000Y-53395000D01*
X52475000Y-51874000D02*
X52935000Y-51874000D01*
X52038000Y-52274000D02*
X52935000Y-52274000D01*
X51507000Y-53234000D02*
X52935000Y-53234000D01*
X51561000Y-53074000D02*
X52935000Y-53074000D01*
X52877000Y-51634000D02*
X55073000Y-51634000D01*
X51439000Y-53515000D02*
X52935000Y-53515000D01*
X52724000Y-51714000D02*
X52935000Y-51714000D01*
X55015000Y-53154000D02*
X56417000Y-53154000D01*
X55015000Y-51874000D02*
X55475000Y-51874000D01*
X55015000Y-52994000D02*
X56357000Y-52994000D01*
X51397000Y-53875000D02*
X56553000Y-53875000D01*
X55015000Y-52594000D02*
X56150000Y-52594000D01*
X55015000Y-53355000D02*
X56476000Y-53355000D01*
X55015000Y-51754000D02*
X55294000Y-51754000D01*
X51728000Y-52714000D02*
X52935000Y-52714000D01*
X52421000Y-51914000D02*
X52935000Y-51914000D01*
X55015000Y-51834000D02*
X55418000Y-51834000D01*
X55015000Y-52674000D02*
X56199000Y-52674000D01*
X55015000Y-52474000D02*
X56070000Y-52474000D01*
X53457000Y-51434000D02*
X54493000Y-51434000D01*
X53060000Y-51554000D02*
X54890000Y-51554000D01*
X51410000Y-53715000D02*
X52935000Y-53715000D01*
X52074000Y-52234000D02*
X52935000Y-52234000D01*
X55015000Y-53635000D02*
X56531000Y-53635000D01*
X51406000Y-53755000D02*
X52935000Y-53755000D01*
X55015000Y-52714000D02*
X56222000Y-52714000D01*
X55015000Y-53515000D02*
X56511000Y-53515000D01*
X55015000Y-51954000D02*
X55580000Y-51954000D01*
X51800000Y-52594000D02*
X52935000Y-52594000D01*
X55015000Y-51714000D02*
X55226000Y-51714000D01*
X52149000Y-52154000D02*
X52935000Y-52154000D01*
X55015000Y-53435000D02*
X56495000Y-53435000D01*
X55015000Y-53315000D02*
X56466000Y-53315000D01*
X55015000Y-53074000D02*
X56389000Y-53074000D01*
X55015000Y-53675000D02*
X56536000Y-53675000D01*
X51751000Y-52674000D02*
X52935000Y-52674000D01*
X55015000Y-52074000D02*
X55718000Y-52074000D01*
X55015000Y-52354000D02*
X55979000Y-52354000D01*
X55015000Y-51994000D02*
X55628000Y-51994000D01*
X55015000Y-53555000D02*
X56518000Y-53555000D01*
X55015000Y-52914000D02*
X56323000Y-52914000D01*
X52232000Y-52074000D02*
X52935000Y-52074000D01*
X55015000Y-52954000D02*
X56340000Y-52954000D01*
X51971000Y-52354000D02*
X52935000Y-52354000D01*
X52111000Y-52194000D02*
X52935000Y-52194000D01*
X55015000Y-53114000D02*
X56403000Y-53114000D01*
X52370000Y-51954000D02*
X52935000Y-51954000D01*
X51880000Y-52474000D02*
X52935000Y-52474000D01*
X51474000Y-53355000D02*
X52935000Y-53355000D01*
X53298000Y-51474000D02*
X54652000Y-51474000D01*
X52656000Y-51754000D02*
X52935000Y-51754000D01*
X51533000Y-53154000D02*
X52935000Y-53154000D01*
X55015000Y-53034000D02*
X56373000Y-53034000D01*
X55015000Y-53475000D02*
X56503000Y-53475000D01*
X51627000Y-52914000D02*
X52935000Y-52914000D01*
X51826000Y-52554000D02*
X52935000Y-52554000D01*
X55015000Y-52634000D02*
X56175000Y-52634000D01*
X51853000Y-52514000D02*
X52935000Y-52514000D01*
X51547000Y-53114000D02*
X52935000Y-53114000D01*
X55015000Y-52314000D02*
X55946000Y-52314000D01*
X55015000Y-52434000D02*
X56040000Y-52434000D01*
X51395000Y-53955000D02*
X56555000Y-53955000D01*
X53170000Y-51514000D02*
X54780000Y-51514000D01*
X55015000Y-52154000D02*
X55801000Y-52154000D01*
X52004000Y-52314000D02*
X52935000Y-52314000D01*
X51455000Y-53435000D02*
X52935000Y-53435000D01*
X55015000Y-51794000D02*
X55358000Y-51794000D01*
X55015000Y-53194000D02*
X56430000Y-53194000D01*
X51577000Y-53034000D02*
X52935000Y-53034000D01*
X52276000Y-52034000D02*
X52935000Y-52034000D01*
X52500000Y-56799775D02*
X52500000Y-56299775D01*
X53691000Y-51394000D02*
X54259000Y-51394000D01*
X55015000Y-52554000D02*
X56124000Y-52554000D01*
X51484000Y-53315000D02*
X52935000Y-53315000D01*
X52532000Y-51834000D02*
X52935000Y-51834000D01*
X51414000Y-53675000D02*
X52935000Y-53675000D01*
X51707000Y-52754000D02*
X52935000Y-52754000D01*
X55015000Y-53715000D02*
X56540000Y-53715000D01*
X51425000Y-53595000D02*
X52935000Y-53595000D01*
X55015000Y-53595000D02*
X56525000Y-53595000D01*
X51495000Y-53274000D02*
X52935000Y-53274000D01*
X51464000Y-53395000D02*
X52935000Y-53395000D01*
X52964000Y-51594000D02*
X54986000Y-51594000D01*
X51665000Y-52834000D02*
X52935000Y-52834000D01*
X55015000Y-53234000D02*
X56443000Y-53234000D01*
X51685000Y-52794000D02*
X52935000Y-52794000D01*
X51520000Y-53194000D02*
X52935000Y-53194000D01*
X55015000Y-53755000D02*
X56544000Y-53755000D01*
X51395000Y-53995000D02*
X56555000Y-53995000D01*
X51775000Y-52634000D02*
X52935000Y-52634000D01*
X55015000Y-52874000D02*
X56304000Y-52874000D01*
X51419000Y-53635000D02*
X52935000Y-53635000D01*
X51646000Y-52874000D02*
X52935000Y-52874000D01*
X55015000Y-52114000D02*
X55760000Y-52114000D01*
X55015000Y-52834000D02*
X56285000Y-52834000D01*
X55015000Y-52514000D02*
X56097000Y-52514000D01*
X55015000Y-52034000D02*
X55674000Y-52034000D01*
X51447000Y-53475000D02*
X52935000Y-53475000D01*
X52322000Y-51994000D02*
X52935000Y-51994000D01*
X55015000Y-52394000D02*
X56010000Y-52394000D01*
X56595000Y-53995000D02*
G75*
G03*
X56595000Y-53995000I-2620000J0D01*
G01*
X16740000Y-55156000D02*
X15490000Y-55156000D01*
X20248000Y-54716000D02*
X18820000Y-54716000D01*
X16740000Y-56156000D02*
X16397000Y-56156000D01*
X16740000Y-55716000D02*
X15879000Y-55716000D01*
X20359000Y-54035000D02*
X15201000Y-54035000D01*
X16740000Y-54996000D02*
X15415000Y-54996000D01*
X16740000Y-56196000D02*
X16461000Y-56196000D01*
X20336000Y-54315000D02*
X18820000Y-54315000D01*
X16740000Y-54555000D02*
X15269000Y-54555000D01*
X16740000Y-56236000D02*
X16529000Y-56236000D01*
X18585000Y-56436000D02*
X16975000Y-56436000D01*
X19280000Y-56076000D02*
X18820000Y-56076000D01*
X16740000Y-55996000D02*
X16175000Y-55996000D01*
X20356000Y-54115000D02*
X15204000Y-54115000D01*
X16740000Y-54836000D02*
X15352000Y-54836000D01*
X18064000Y-56556000D02*
X17496000Y-56556000D01*
X18878000Y-56316000D02*
X16682000Y-56316000D01*
X16740000Y-54475000D02*
X15252000Y-54475000D01*
X20208000Y-54836000D02*
X18820000Y-54836000D01*
X16740000Y-55756000D02*
X15916000Y-55756000D01*
X16740000Y-55276000D02*
X15556000Y-55276000D01*
X16740000Y-55316000D02*
X15580000Y-55316000D01*
X20360000Y-53955000D02*
X15200000Y-53955000D01*
X19845000Y-55516000D02*
X18820000Y-55516000D01*
X20345000Y-54235000D02*
X18820000Y-54235000D01*
X20358000Y-54075000D02*
X15202000Y-54075000D01*
X16740000Y-54395000D02*
X15237000Y-54395000D01*
X16740000Y-55596000D02*
X15776000Y-55596000D01*
X19902000Y-55436000D02*
X18820000Y-55436000D01*
X16740000Y-54275000D02*
X15219000Y-54275000D01*
X19929000Y-55396000D02*
X18820000Y-55396000D01*
X20330000Y-54355000D02*
X18820000Y-54355000D01*
X19784000Y-55596000D02*
X18820000Y-55596000D01*
X16740000Y-56076000D02*
X16280000Y-56076000D01*
X20271000Y-54635000D02*
X18820000Y-54635000D01*
X20341000Y-54275000D02*
X18820000Y-54275000D01*
X20027000Y-55236000D02*
X18820000Y-55236000D01*
X16740000Y-54916000D02*
X15382000Y-54916000D01*
X20291000Y-54555000D02*
X18820000Y-54555000D01*
X16740000Y-54876000D02*
X15366000Y-54876000D01*
X19479000Y-55916000D02*
X18820000Y-55916000D01*
X16740000Y-55196000D02*
X15512000Y-55196000D01*
X19255000Y-51150225D02*
X19255000Y-51650225D01*
X19163000Y-56156000D02*
X18820000Y-56156000D01*
X20360000Y-53995000D02*
X15200000Y-53995000D01*
X20128000Y-55036000D02*
X18820000Y-55036000D01*
X16740000Y-55836000D02*
X15995000Y-55836000D01*
X16740000Y-54355000D02*
X15230000Y-54355000D01*
X16740000Y-56116000D02*
X16337000Y-56116000D01*
X19031000Y-56236000D02*
X18820000Y-56236000D01*
X16740000Y-55516000D02*
X15715000Y-55516000D01*
X19606000Y-55796000D02*
X18820000Y-55796000D01*
X16740000Y-55236000D02*
X15533000Y-55236000D01*
X16740000Y-54315000D02*
X15224000Y-54315000D01*
X16740000Y-54796000D02*
X15338000Y-54796000D01*
X19751000Y-55636000D02*
X18820000Y-55636000D01*
X19334000Y-56036000D02*
X18820000Y-56036000D01*
X16740000Y-55556000D02*
X15745000Y-55556000D01*
X20194000Y-54876000D02*
X18820000Y-54876000D01*
X19681000Y-55716000D02*
X18820000Y-55716000D01*
X19505000Y-51400225D02*
X19005000Y-51400225D01*
X16740000Y-55396000D02*
X15631000Y-55396000D01*
X16740000Y-55036000D02*
X15432000Y-55036000D01*
X19223000Y-56116000D02*
X18820000Y-56116000D01*
X20316000Y-54435000D02*
X18820000Y-54435000D01*
X16740000Y-54676000D02*
X15300000Y-54676000D01*
X18791000Y-56356000D02*
X16769000Y-56356000D01*
X18298000Y-56516000D02*
X17262000Y-56516000D01*
X19385000Y-55996000D02*
X18820000Y-55996000D01*
X19565000Y-55836000D02*
X18820000Y-55836000D01*
X16740000Y-55476000D02*
X15685000Y-55476000D01*
X19815000Y-55556000D02*
X18820000Y-55556000D01*
X16740000Y-55916000D02*
X16081000Y-55916000D01*
X20070000Y-55156000D02*
X18820000Y-55156000D01*
X16740000Y-55076000D02*
X15451000Y-55076000D01*
X18457000Y-56476000D02*
X17103000Y-56476000D01*
X18958000Y-56276000D02*
X16602000Y-56276000D01*
X20090000Y-55116000D02*
X18820000Y-55116000D01*
X20178000Y-54916000D02*
X18820000Y-54916000D01*
X20281000Y-54595000D02*
X18820000Y-54595000D01*
X16740000Y-54756000D02*
X15325000Y-54756000D01*
X19717000Y-55676000D02*
X18820000Y-55676000D01*
X16740000Y-54515000D02*
X15260000Y-54515000D01*
X20145000Y-54996000D02*
X18820000Y-54996000D01*
X19955000Y-55356000D02*
X18820000Y-55356000D01*
X20004000Y-55276000D02*
X18820000Y-55276000D01*
X16740000Y-56036000D02*
X16226000Y-56036000D01*
X16740000Y-55796000D02*
X15954000Y-55796000D01*
X19875000Y-55476000D02*
X18820000Y-55476000D01*
X19433000Y-55956000D02*
X18820000Y-55956000D01*
X16740000Y-55676000D02*
X15843000Y-55676000D01*
X16740000Y-54635000D02*
X15289000Y-54635000D01*
X20222000Y-54796000D02*
X18820000Y-54796000D01*
X20300000Y-54515000D02*
X18820000Y-54515000D01*
X20323000Y-54395000D02*
X18820000Y-54395000D01*
X18695000Y-56396000D02*
X16865000Y-56396000D01*
X19523000Y-55876000D02*
X18820000Y-55876000D01*
X20109000Y-55076000D02*
X18820000Y-55076000D01*
X20260000Y-54676000D02*
X18820000Y-54676000D01*
X16740000Y-55116000D02*
X15470000Y-55116000D01*
X20308000Y-54475000D02*
X18820000Y-54475000D01*
X20349000Y-54195000D02*
X18820000Y-54195000D01*
X20048000Y-55196000D02*
X18820000Y-55196000D01*
X16740000Y-55356000D02*
X15605000Y-55356000D01*
X20353000Y-54155000D02*
X15207000Y-54155000D01*
X20235000Y-54756000D02*
X18820000Y-54756000D01*
X16740000Y-54195000D02*
X15211000Y-54195000D01*
X16740000Y-54716000D02*
X15312000Y-54716000D01*
X19980000Y-55316000D02*
X18820000Y-55316000D01*
X16740000Y-54956000D02*
X15398000Y-54956000D01*
X19099000Y-56196000D02*
X18820000Y-56196000D01*
X16740000Y-54235000D02*
X15215000Y-54235000D01*
X16740000Y-54595000D02*
X15279000Y-54595000D01*
X16740000Y-54435000D02*
X15244000Y-54435000D01*
X20162000Y-54956000D02*
X18820000Y-54956000D01*
X16740000Y-55436000D02*
X15658000Y-55436000D01*
X19644000Y-55756000D02*
X18820000Y-55756000D01*
X16740000Y-55876000D02*
X16037000Y-55876000D01*
X16740000Y-55636000D02*
X15809000Y-55636000D01*
X16740000Y-55956000D02*
X16127000Y-55956000D01*
X20400000Y-53955000D02*
G75*
G03*
X20400000Y-53955000I-2620000J0D01*
G01*
X36545000Y-54624000D02*
X36545000Y-53366000D01*
X38385000Y-54624000D02*
X38385000Y-53366000D01*
X33052500Y-53326000D02*
X33052500Y-54584000D01*
X34892500Y-53326000D02*
X34892500Y-54584000D01*
X42950000Y-51954000D02*
X43515000Y-51954000D01*
X42950000Y-53555000D02*
X44453000Y-53555000D01*
X39545000Y-52954000D02*
X40870000Y-52954000D01*
X39496000Y-53074000D02*
X40870000Y-53074000D01*
X41233000Y-51474000D02*
X42587000Y-51474000D01*
X39419000Y-53315000D02*
X40870000Y-53315000D01*
X42950000Y-52434000D02*
X43975000Y-52434000D01*
X42950000Y-53395000D02*
X44421000Y-53395000D01*
X42950000Y-53274000D02*
X44390000Y-53274000D01*
X42950000Y-52994000D02*
X44292000Y-52994000D01*
X40410000Y-51874000D02*
X40870000Y-51874000D01*
X42950000Y-52634000D02*
X44110000Y-52634000D01*
X40009000Y-52234000D02*
X40870000Y-52234000D01*
X42950000Y-52234000D02*
X43811000Y-52234000D01*
X40356000Y-51914000D02*
X40870000Y-51914000D01*
X40257000Y-51994000D02*
X40870000Y-51994000D01*
X40812000Y-51634000D02*
X43008000Y-51634000D01*
X41392000Y-51434000D02*
X42428000Y-51434000D01*
X39482000Y-53114000D02*
X40870000Y-53114000D01*
X39374000Y-53515000D02*
X40870000Y-53515000D01*
X42950000Y-52714000D02*
X44157000Y-52714000D01*
X42950000Y-52114000D02*
X43695000Y-52114000D01*
X42950000Y-53435000D02*
X44430000Y-53435000D01*
X42950000Y-53595000D02*
X44460000Y-53595000D01*
X42950000Y-53715000D02*
X44475000Y-53715000D01*
X42950000Y-52914000D02*
X44258000Y-52914000D01*
X40435000Y-56799775D02*
X40435000Y-56299775D01*
X42950000Y-53355000D02*
X44411000Y-53355000D01*
X39332000Y-53875000D02*
X44488000Y-53875000D01*
X42950000Y-51794000D02*
X43293000Y-51794000D01*
X39581000Y-52874000D02*
X40870000Y-52874000D01*
X42950000Y-53315000D02*
X44401000Y-53315000D01*
X39600000Y-52834000D02*
X40870000Y-52834000D01*
X40467000Y-51834000D02*
X40870000Y-51834000D01*
X39337000Y-53795000D02*
X44483000Y-53795000D01*
X40084000Y-52154000D02*
X40870000Y-52154000D01*
X40211000Y-52034000D02*
X40870000Y-52034000D01*
X42950000Y-52754000D02*
X44178000Y-52754000D01*
X42950000Y-53475000D02*
X44438000Y-53475000D01*
X40046000Y-52194000D02*
X40870000Y-52194000D01*
X42950000Y-52154000D02*
X43736000Y-52154000D01*
X42950000Y-53194000D02*
X44365000Y-53194000D01*
X39845000Y-52434000D02*
X40870000Y-52434000D01*
X39382000Y-53475000D02*
X40870000Y-53475000D01*
X39430000Y-53274000D02*
X40870000Y-53274000D01*
X39330000Y-53955000D02*
X44490000Y-53955000D01*
X42950000Y-53635000D02*
X44466000Y-53635000D01*
X42950000Y-52874000D02*
X44239000Y-52874000D01*
X42950000Y-52274000D02*
X43847000Y-52274000D01*
X39442000Y-53234000D02*
X40870000Y-53234000D01*
X42950000Y-52594000D02*
X44085000Y-52594000D01*
X40591000Y-51754000D02*
X40870000Y-51754000D01*
X39334000Y-53835000D02*
X44486000Y-53835000D01*
X39360000Y-53595000D02*
X40870000Y-53595000D01*
X39367000Y-53555000D02*
X40870000Y-53555000D01*
X39620000Y-52794000D02*
X40870000Y-52794000D01*
X39788000Y-52514000D02*
X40870000Y-52514000D01*
X42950000Y-53675000D02*
X44471000Y-53675000D01*
X40125000Y-52114000D02*
X40870000Y-52114000D01*
X39468000Y-53154000D02*
X40870000Y-53154000D01*
X42950000Y-52554000D02*
X44059000Y-52554000D01*
X42950000Y-52794000D02*
X44200000Y-52794000D01*
X42950000Y-53114000D02*
X44338000Y-53114000D01*
X40995000Y-51554000D02*
X42825000Y-51554000D01*
X42950000Y-53234000D02*
X44378000Y-53234000D01*
X39349000Y-53675000D02*
X40870000Y-53675000D01*
X39906000Y-52354000D02*
X40870000Y-52354000D01*
X42950000Y-52474000D02*
X44005000Y-52474000D01*
X42950000Y-51834000D02*
X43353000Y-51834000D01*
X41105000Y-51514000D02*
X42715000Y-51514000D01*
X42950000Y-52074000D02*
X43653000Y-52074000D01*
X39939000Y-52314000D02*
X40870000Y-52314000D01*
X39642000Y-52754000D02*
X40870000Y-52754000D01*
X39331000Y-53915000D02*
X44489000Y-53915000D01*
X39528000Y-52994000D02*
X40870000Y-52994000D01*
X39875000Y-52394000D02*
X40870000Y-52394000D01*
X39399000Y-53395000D02*
X40870000Y-53395000D01*
X42950000Y-51754000D02*
X43229000Y-51754000D01*
X42950000Y-53074000D02*
X44324000Y-53074000D01*
X39330000Y-53995000D02*
X44490000Y-53995000D01*
X39735000Y-52594000D02*
X40870000Y-52594000D01*
X42950000Y-51874000D02*
X43410000Y-51874000D01*
X42950000Y-51914000D02*
X43464000Y-51914000D01*
X42950000Y-52514000D02*
X44032000Y-52514000D01*
X39686000Y-52674000D02*
X40870000Y-52674000D01*
X42950000Y-52394000D02*
X43945000Y-52394000D01*
X40659000Y-51714000D02*
X40870000Y-51714000D01*
X42950000Y-53515000D02*
X44446000Y-53515000D01*
X42950000Y-52034000D02*
X43609000Y-52034000D01*
X39761000Y-52554000D02*
X40870000Y-52554000D01*
X39663000Y-52714000D02*
X40870000Y-52714000D01*
X39390000Y-53435000D02*
X40870000Y-53435000D01*
X42950000Y-53034000D02*
X44308000Y-53034000D01*
X42950000Y-52954000D02*
X44275000Y-52954000D01*
X42950000Y-52674000D02*
X44134000Y-52674000D01*
X42950000Y-51714000D02*
X43161000Y-51714000D01*
X39341000Y-53755000D02*
X40870000Y-53755000D01*
X39562000Y-52914000D02*
X40870000Y-52914000D01*
X42950000Y-52194000D02*
X43774000Y-52194000D01*
X42950000Y-53154000D02*
X44352000Y-53154000D01*
X40305000Y-51954000D02*
X40870000Y-51954000D01*
X40732000Y-51674000D02*
X43088000Y-51674000D01*
X39455000Y-53194000D02*
X40870000Y-53194000D01*
X40167000Y-52074000D02*
X40870000Y-52074000D01*
X39512000Y-53034000D02*
X40870000Y-53034000D01*
X39345000Y-53715000D02*
X40870000Y-53715000D01*
X42950000Y-52354000D02*
X43914000Y-52354000D01*
X42950000Y-52314000D02*
X43881000Y-52314000D01*
X40527000Y-51794000D02*
X40870000Y-51794000D01*
X39409000Y-53355000D02*
X40870000Y-53355000D01*
X39973000Y-52274000D02*
X40870000Y-52274000D01*
X40185000Y-56549775D02*
X40685000Y-56549775D01*
X39710000Y-52634000D02*
X40870000Y-52634000D01*
X42950000Y-53755000D02*
X44479000Y-53755000D01*
X39815000Y-52474000D02*
X40870000Y-52474000D01*
X42950000Y-51994000D02*
X43563000Y-51994000D01*
X41626000Y-51394000D02*
X42194000Y-51394000D01*
X42950000Y-52834000D02*
X44220000Y-52834000D01*
X40899000Y-51594000D02*
X42921000Y-51594000D01*
X39354000Y-53635000D02*
X40870000Y-53635000D01*
X44530000Y-53995000D02*
G75*
G03*
X44530000Y-53995000I-2620000J0D01*
G01*
X31570000Y-51400225D02*
X31070000Y-51400225D01*
X28805000Y-54756000D02*
X27390000Y-54756000D01*
X31544000Y-55916000D02*
X30885000Y-55916000D01*
X28805000Y-55276000D02*
X27621000Y-55276000D01*
X32423000Y-54075000D02*
X27267000Y-54075000D01*
X32356000Y-54555000D02*
X30885000Y-54555000D01*
X32273000Y-54836000D02*
X30885000Y-54836000D01*
X28805000Y-55996000D02*
X28240000Y-55996000D01*
X28805000Y-55036000D02*
X27497000Y-55036000D01*
X28805000Y-54836000D02*
X27417000Y-54836000D01*
X28805000Y-55596000D02*
X27841000Y-55596000D01*
X32210000Y-54996000D02*
X30885000Y-54996000D01*
X28805000Y-55396000D02*
X27696000Y-55396000D01*
X30129000Y-56556000D02*
X29561000Y-56556000D01*
X32381000Y-54435000D02*
X30885000Y-54435000D01*
X32425000Y-53955000D02*
X27265000Y-53955000D01*
X32259000Y-54876000D02*
X30885000Y-54876000D01*
X28805000Y-55356000D02*
X27670000Y-55356000D01*
X30943000Y-56316000D02*
X28747000Y-56316000D01*
X28805000Y-55956000D02*
X28192000Y-55956000D01*
X32410000Y-54235000D02*
X30885000Y-54235000D01*
X28805000Y-54235000D02*
X27280000Y-54235000D01*
X28805000Y-55236000D02*
X27598000Y-55236000D01*
X28805000Y-56156000D02*
X28462000Y-56156000D01*
X28805000Y-56116000D02*
X28402000Y-56116000D01*
X31782000Y-55676000D02*
X30885000Y-55676000D01*
X28805000Y-54916000D02*
X27447000Y-54916000D01*
X28805000Y-54996000D02*
X27480000Y-54996000D01*
X32418000Y-54155000D02*
X27272000Y-54155000D01*
X31880000Y-55556000D02*
X30885000Y-55556000D01*
X32092000Y-55236000D02*
X30885000Y-55236000D01*
X32174000Y-55076000D02*
X30885000Y-55076000D01*
X30363000Y-56516000D02*
X29327000Y-56516000D01*
X28805000Y-55196000D02*
X27577000Y-55196000D01*
X28805000Y-55756000D02*
X27981000Y-55756000D01*
X32287000Y-54796000D02*
X30885000Y-54796000D01*
X32401000Y-54315000D02*
X30885000Y-54315000D01*
X31967000Y-55436000D02*
X30885000Y-55436000D01*
X32135000Y-55156000D02*
X30885000Y-55156000D01*
X31096000Y-56236000D02*
X30885000Y-56236000D01*
X28805000Y-54595000D02*
X27344000Y-54595000D01*
X32406000Y-54275000D02*
X30885000Y-54275000D01*
X32424000Y-54035000D02*
X27266000Y-54035000D01*
X32346000Y-54595000D02*
X30885000Y-54595000D01*
X30650000Y-56436000D02*
X29040000Y-56436000D01*
X31228000Y-56156000D02*
X30885000Y-56156000D01*
X28805000Y-55316000D02*
X27645000Y-55316000D01*
X28805000Y-54796000D02*
X27403000Y-54796000D01*
X28805000Y-56236000D02*
X28594000Y-56236000D01*
X28805000Y-54435000D02*
X27309000Y-54435000D01*
X28805000Y-55676000D02*
X27908000Y-55676000D01*
X32193000Y-55036000D02*
X30885000Y-55036000D01*
X28805000Y-54395000D02*
X27302000Y-54395000D01*
X28805000Y-55116000D02*
X27535000Y-55116000D01*
X31450000Y-55996000D02*
X30885000Y-55996000D01*
X32227000Y-54956000D02*
X30885000Y-54956000D01*
X28805000Y-54676000D02*
X27365000Y-54676000D01*
X31023000Y-56276000D02*
X28667000Y-56276000D01*
X28805000Y-54555000D02*
X27334000Y-54555000D01*
X30856000Y-56356000D02*
X28834000Y-56356000D01*
X28805000Y-54716000D02*
X27377000Y-54716000D01*
X32414000Y-54195000D02*
X30885000Y-54195000D01*
X32045000Y-55316000D02*
X30885000Y-55316000D01*
X31345000Y-56076000D02*
X30885000Y-56076000D01*
X31588000Y-55876000D02*
X30885000Y-55876000D01*
X28805000Y-55076000D02*
X27516000Y-55076000D01*
X28805000Y-55636000D02*
X27874000Y-55636000D01*
X31164000Y-56196000D02*
X30885000Y-56196000D01*
X28805000Y-55436000D02*
X27723000Y-55436000D01*
X32388000Y-54395000D02*
X30885000Y-54395000D01*
X32421000Y-54115000D02*
X27269000Y-54115000D01*
X32155000Y-55116000D02*
X30885000Y-55116000D01*
X31994000Y-55396000D02*
X30885000Y-55396000D01*
X28805000Y-54195000D02*
X27276000Y-54195000D01*
X28805000Y-56196000D02*
X28526000Y-56196000D01*
X32069000Y-55276000D02*
X30885000Y-55276000D01*
X30522000Y-56476000D02*
X29168000Y-56476000D01*
X28805000Y-54635000D02*
X27354000Y-54635000D01*
X28805000Y-54876000D02*
X27431000Y-54876000D01*
X28805000Y-55796000D02*
X28019000Y-55796000D01*
X32113000Y-55196000D02*
X30885000Y-55196000D01*
X31498000Y-55956000D02*
X30885000Y-55956000D01*
X31288000Y-56116000D02*
X30885000Y-56116000D01*
X32373000Y-54475000D02*
X30885000Y-54475000D01*
X31709000Y-55756000D02*
X30885000Y-55756000D01*
X28805000Y-55836000D02*
X28060000Y-55836000D01*
X31940000Y-55476000D02*
X30885000Y-55476000D01*
X32243000Y-54916000D02*
X30885000Y-54916000D01*
X32313000Y-54716000D02*
X30885000Y-54716000D01*
X32425000Y-53995000D02*
X27265000Y-53995000D01*
X31910000Y-55516000D02*
X30885000Y-55516000D01*
X28805000Y-54355000D02*
X27295000Y-54355000D01*
X28805000Y-55476000D02*
X27750000Y-55476000D01*
X28805000Y-55156000D02*
X27555000Y-55156000D01*
X31399000Y-56036000D02*
X30885000Y-56036000D01*
X32020000Y-55356000D02*
X30885000Y-55356000D01*
X28805000Y-54515000D02*
X27325000Y-54515000D01*
X28805000Y-55556000D02*
X27810000Y-55556000D01*
X31849000Y-55596000D02*
X30885000Y-55596000D01*
X31816000Y-55636000D02*
X30885000Y-55636000D01*
X28805000Y-54475000D02*
X27317000Y-54475000D01*
X28805000Y-54956000D02*
X27463000Y-54956000D01*
X32365000Y-54515000D02*
X30885000Y-54515000D01*
X28805000Y-55516000D02*
X27780000Y-55516000D01*
X28805000Y-55876000D02*
X28102000Y-55876000D01*
X32325000Y-54676000D02*
X30885000Y-54676000D01*
X30760000Y-56396000D02*
X28930000Y-56396000D01*
X28805000Y-55916000D02*
X28146000Y-55916000D01*
X31630000Y-55836000D02*
X30885000Y-55836000D01*
X31320000Y-51150225D02*
X31320000Y-51650225D01*
X31671000Y-55796000D02*
X30885000Y-55796000D01*
X31746000Y-55716000D02*
X30885000Y-55716000D01*
X28805000Y-54315000D02*
X27289000Y-54315000D01*
X28805000Y-55716000D02*
X27944000Y-55716000D01*
X32336000Y-54635000D02*
X30885000Y-54635000D01*
X28805000Y-56036000D02*
X28291000Y-56036000D01*
X28805000Y-56076000D02*
X28345000Y-56076000D01*
X32300000Y-54756000D02*
X30885000Y-54756000D01*
X32395000Y-54355000D02*
X30885000Y-54355000D01*
X28805000Y-54275000D02*
X27284000Y-54275000D01*
X32465000Y-53955000D02*
G75*
G03*
X32465000Y-53955000I-2620000J0D01*
G01*
X44930000Y-23125000D02*
X44930000Y-21225000D01*
X54130000Y-23125000D02*
X51530000Y-23125000D01*
X44930000Y-17225000D02*
X44930000Y-8425000D01*
X53280000Y-23325000D02*
X54330000Y-23325000D01*
X47630000Y-23125000D02*
X44930000Y-23125000D01*
X54330000Y-22275000D02*
X54330000Y-23325000D01*
X54130000Y-8425000D02*
X54130000Y-23125000D01*
X44930000Y-8425000D02*
X54130000Y-8425000D01*
X48410000Y-57795000D02*
X50650000Y-57795000D01*
X48410000Y-54395000D02*
X48410000Y-58635000D01*
X48410000Y-58635000D02*
X50650000Y-58635000D01*
X49530000Y-53745000D02*
X49530000Y-54395000D01*
X48410000Y-58035000D02*
X50650000Y-58035000D01*
X48410000Y-57915000D02*
X50650000Y-57915000D01*
X50650000Y-58635000D02*
X50650000Y-54395000D01*
X49530000Y-59285000D02*
X49530000Y-58635000D01*
X50650000Y-54395000D02*
X48410000Y-54395000D01*
X22225000Y-59285000D02*
X22225000Y-58635000D01*
X23345000Y-54995000D02*
X21105000Y-54995000D01*
X23345000Y-55235000D02*
X21105000Y-55235000D01*
X21105000Y-58635000D02*
X23345000Y-58635000D01*
X23345000Y-58635000D02*
X23345000Y-54395000D01*
X21105000Y-54395000D02*
X21105000Y-58635000D01*
X23345000Y-55115000D02*
X21105000Y-55115000D01*
X23345000Y-54395000D02*
X21105000Y-54395000D01*
X22225000Y-53745000D02*
X22225000Y-54395000D01*
X60385000Y-66735000D02*
X59055000Y-66735000D01*
X57725000Y-64135000D02*
X57725000Y-51375000D01*
X60385000Y-64135000D02*
X57725000Y-64135000D01*
X60385000Y-64135000D02*
X60385000Y-51375000D01*
X60385000Y-65405000D02*
X60385000Y-66735000D01*
X60385000Y-51375000D02*
X57725000Y-51375000D01*
X36195000Y-17205000D02*
X34865000Y-17205000D01*
X37465000Y-14545000D02*
X40065000Y-14545000D01*
X40065000Y-17205000D02*
X40065000Y-14545000D01*
X34865000Y-17205000D02*
X34865000Y-15875000D01*
X37465000Y-17205000D02*
X40065000Y-17205000D01*
X37465000Y-17205000D02*
X37465000Y-14545000D01*
X26035000Y-14545000D02*
X20895000Y-14545000D01*
X26035000Y-14545000D02*
X26035000Y-17205000D01*
X27305000Y-14545000D02*
X28635000Y-14545000D01*
X28635000Y-14545000D02*
X28635000Y-15875000D01*
X26035000Y-17205000D02*
X20895000Y-17205000D01*
X20895000Y-14545000D02*
X20895000Y-17205000D01*
X47887500Y-62760000D02*
X47887500Y-59160000D01*
X43437499Y-60960000D02*
G75*
G03*
X47875978Y-62798478I2600001J0D01*
G01*
X47875978Y-59121522D02*
G75*
G03*
X43437500Y-60960000I-1838478J-1838478D01*
G01*
X27885000Y-62760000D02*
X27885000Y-59160000D01*
X27873478Y-59121522D02*
G75*
G03*
X23435000Y-60960000I-1838478J-1838478D01*
G01*
X23434999Y-60960000D02*
G75*
G03*
X27873478Y-62798478I2600001J0D01*
G01*
X43125000Y-62760000D02*
X43125000Y-59160000D01*
X43113478Y-59121522D02*
G75*
G03*
X38675000Y-60960000I-1838478J-1838478D01*
G01*
X38674999Y-60960000D02*
G75*
G03*
X43113478Y-62798478I2600001J0D01*
G01*
X32965000Y-62760000D02*
X32965000Y-59160000D01*
X28514999Y-60960000D02*
G75*
G03*
X32953478Y-62798478I2600001J0D01*
G01*
X32953478Y-59121522D02*
G75*
G03*
X28515000Y-60960000I-1838478J-1838478D01*
G01*
X53975000Y-61310000D02*
X53975000Y-60690000D01*
X54895000Y-62230000D02*
G75*
G03*
X54895000Y-62230000I-920000J0D01*
G01*
X17780000Y-60610000D02*
X17780000Y-61230000D01*
X18700000Y-59690000D02*
G75*
G03*
X18700000Y-59690000I-920000J0D01*
G01*
X31471000Y-20339000D02*
X31471000Y-20550000D01*
X30751000Y-22630000D02*
X30751000Y-23655000D01*
X29590000Y-22630000D02*
X29590000Y-24140000D01*
X31431000Y-22630000D02*
X31431000Y-22909000D01*
X30671000Y-22630000D02*
X30671000Y-23712000D01*
X31471000Y-22630000D02*
X31471000Y-22841000D01*
X30631000Y-19441000D02*
X30631000Y-20550000D01*
X26635225Y-19865000D02*
X26635225Y-20365000D01*
X30751000Y-19525000D02*
X30751000Y-20550000D01*
X30071000Y-22630000D02*
X30071000Y-24018000D01*
X29350000Y-19014000D02*
X29350000Y-24166000D01*
X30791000Y-22630000D02*
X30791000Y-23625000D01*
X30791000Y-19555000D02*
X30791000Y-20550000D01*
X31151000Y-22630000D02*
X31151000Y-23289000D01*
X31391000Y-20207000D02*
X31391000Y-20550000D01*
X29790000Y-22630000D02*
X29790000Y-24101000D01*
X30951000Y-19689000D02*
X30951000Y-20550000D01*
X29991000Y-22630000D02*
X29991000Y-24045000D01*
X26385225Y-20115000D02*
X26885225Y-20115000D01*
X30231000Y-22630000D02*
X30231000Y-23955000D01*
X30191000Y-22630000D02*
X30191000Y-23972000D01*
X29911000Y-19110000D02*
X29911000Y-20550000D01*
X30511000Y-22630000D02*
X30511000Y-23814000D01*
X31591000Y-20579000D02*
X31591000Y-22601000D01*
X29991000Y-19135000D02*
X29991000Y-20550000D01*
X31311000Y-22630000D02*
X31311000Y-23090000D01*
X30391000Y-19300000D02*
X30391000Y-20550000D01*
X31031000Y-22630000D02*
X31031000Y-23416000D01*
X30991000Y-22630000D02*
X30991000Y-23454000D01*
X31631000Y-20675000D02*
X31631000Y-22505000D01*
X30551000Y-19390000D02*
X30551000Y-20550000D01*
X30471000Y-19343000D02*
X30471000Y-20550000D01*
X31311000Y-20090000D02*
X31311000Y-20550000D01*
X31231000Y-19985000D02*
X31231000Y-20550000D01*
X30151000Y-19192000D02*
X30151000Y-20550000D01*
X30671000Y-19468000D02*
X30671000Y-20550000D01*
X29510000Y-22630000D02*
X29510000Y-24151000D01*
X30351000Y-22630000D02*
X30351000Y-23900000D01*
X31391000Y-22630000D02*
X31391000Y-22973000D01*
X29550000Y-22630000D02*
X29550000Y-24146000D01*
X31351000Y-20147000D02*
X31351000Y-20550000D01*
X30311000Y-22630000D02*
X30311000Y-23919000D01*
X30271000Y-22630000D02*
X30271000Y-23938000D01*
X30231000Y-19225000D02*
X30231000Y-20550000D01*
X30271000Y-19242000D02*
X30271000Y-20550000D01*
X30711000Y-22630000D02*
X30711000Y-23685000D01*
X31111000Y-22630000D02*
X31111000Y-23333000D01*
X30911000Y-22630000D02*
X30911000Y-23527000D01*
X31711000Y-20913000D02*
X31711000Y-22267000D01*
X29630000Y-22630000D02*
X29630000Y-24133000D01*
X30991000Y-19726000D02*
X30991000Y-20550000D01*
X31791000Y-21306000D02*
X31791000Y-21874000D01*
X29710000Y-22630000D02*
X29710000Y-24118000D01*
X29230000Y-19010000D02*
X29230000Y-24170000D01*
X29310000Y-19012000D02*
X29310000Y-24168000D01*
X30391000Y-22630000D02*
X30391000Y-23880000D01*
X31191000Y-22630000D02*
X31191000Y-23243000D01*
X30831000Y-22630000D02*
X30831000Y-23594000D01*
X29630000Y-19047000D02*
X29630000Y-20550000D01*
X29710000Y-19062000D02*
X29710000Y-20550000D01*
X31271000Y-20036000D02*
X31271000Y-20550000D01*
X29870000Y-22630000D02*
X29870000Y-24081000D01*
X29390000Y-19017000D02*
X29390000Y-24163000D01*
X31071000Y-22630000D02*
X31071000Y-23375000D01*
X31031000Y-19764000D02*
X31031000Y-20550000D01*
X31231000Y-22630000D02*
X31231000Y-23195000D01*
X29951000Y-22630000D02*
X29951000Y-24058000D01*
X29790000Y-19079000D02*
X29790000Y-20550000D01*
X29510000Y-19029000D02*
X29510000Y-20550000D01*
X30631000Y-22630000D02*
X30631000Y-23739000D01*
X31151000Y-19891000D02*
X31151000Y-20550000D01*
X29470000Y-22630000D02*
X29470000Y-24155000D01*
X30151000Y-22630000D02*
X30151000Y-23988000D01*
X30471000Y-22630000D02*
X30471000Y-23837000D01*
X30031000Y-19148000D02*
X30031000Y-20550000D01*
X30071000Y-19162000D02*
X30071000Y-20550000D01*
X30431000Y-22630000D02*
X30431000Y-23858000D01*
X31111000Y-19847000D02*
X31111000Y-20550000D01*
X30871000Y-22630000D02*
X30871000Y-23561000D01*
X30311000Y-19261000D02*
X30311000Y-20550000D01*
X29870000Y-19099000D02*
X29870000Y-20550000D01*
X29550000Y-19034000D02*
X29550000Y-20550000D01*
X29750000Y-19070000D02*
X29750000Y-20550000D01*
X29670000Y-22630000D02*
X29670000Y-24126000D01*
X30511000Y-19366000D02*
X30511000Y-20550000D01*
X31511000Y-20412000D02*
X31511000Y-22768000D01*
X29830000Y-22630000D02*
X29830000Y-24091000D01*
X29590000Y-19040000D02*
X29590000Y-20550000D01*
X29670000Y-19054000D02*
X29670000Y-20550000D01*
X30871000Y-19619000D02*
X30871000Y-20550000D01*
X30191000Y-19208000D02*
X30191000Y-20550000D01*
X30591000Y-22630000D02*
X30591000Y-23765000D01*
X29190000Y-19010000D02*
X29190000Y-24170000D01*
X30351000Y-19280000D02*
X30351000Y-20550000D01*
X31191000Y-19937000D02*
X31191000Y-20550000D01*
X31071000Y-19805000D02*
X31071000Y-20550000D01*
X29750000Y-22630000D02*
X29750000Y-24110000D01*
X30431000Y-19322000D02*
X30431000Y-20550000D01*
X30951000Y-22630000D02*
X30951000Y-23491000D01*
X31431000Y-20271000D02*
X31431000Y-20550000D01*
X30831000Y-19586000D02*
X30831000Y-20550000D01*
X29430000Y-22630000D02*
X29430000Y-24159000D01*
X29470000Y-19025000D02*
X29470000Y-20550000D01*
X30551000Y-22630000D02*
X30551000Y-23790000D01*
X30031000Y-22630000D02*
X30031000Y-24032000D01*
X30711000Y-19495000D02*
X30711000Y-20550000D01*
X29911000Y-22630000D02*
X29911000Y-24070000D01*
X29270000Y-19011000D02*
X29270000Y-24169000D01*
X31751000Y-21072000D02*
X31751000Y-22108000D01*
X31671000Y-20785000D02*
X31671000Y-22395000D01*
X31351000Y-22630000D02*
X31351000Y-23033000D01*
X30911000Y-19653000D02*
X30911000Y-20550000D01*
X30591000Y-19415000D02*
X30591000Y-20550000D01*
X31271000Y-22630000D02*
X31271000Y-23144000D01*
X30111000Y-19176000D02*
X30111000Y-20550000D01*
X29430000Y-19021000D02*
X29430000Y-20550000D01*
X30111000Y-22630000D02*
X30111000Y-24004000D01*
X31551000Y-20492000D02*
X31551000Y-22688000D01*
X29951000Y-19122000D02*
X29951000Y-20550000D01*
X29830000Y-19089000D02*
X29830000Y-20550000D01*
X31810000Y-21590000D02*
G75*
G03*
X31810000Y-21590000I-2620000J0D01*
G01*
X28561000Y-25115000D02*
X29819000Y-25115000D01*
X28561000Y-26955000D02*
X29819000Y-26955000D01*
X20310000Y-24354870D02*
G75*
G03*
X20310000Y-22050130I-1260000J1152370D01*
G01*
X17790000Y-22050130D02*
G75*
G03*
X17790000Y-24354870I1260000J-1152370D01*
G01*
X19717400Y-23202500D02*
G75*
G03*
X19717400Y-23202500I-667400J0D01*
G01*
X56445000Y-23665000D02*
X56445000Y-26825000D01*
X56445000Y-23665000D02*
X33725000Y-23665000D01*
X56445000Y-30325000D02*
X56445000Y-33485000D01*
X33725000Y-23665000D02*
X33725000Y-26825000D01*
X33725000Y-30325000D02*
X33725000Y-33485000D01*
X56445000Y-33485000D02*
X33725000Y-33485000D01*
X55211000Y-64480000D02*
X55055000Y-64480000D01*
X52895000Y-64480000D02*
X52739000Y-64480000D01*
X55054837Y-67081130D02*
G75*
G03*
X55055000Y-64999039I-1079837J1041130D01*
G01*
X52895000Y-64999039D02*
G75*
G03*
X52895163Y-67081130I1080000J-1040961D01*
G01*
X55053608Y-67712335D02*
G75*
G03*
X55210516Y-64480000I-1078608J1672335D01*
G01*
X52739484Y-64480000D02*
G75*
G03*
X52896392Y-67712335I1235516J-1560000D01*
G01*
X53040000Y-69215000D02*
X53660000Y-69215000D01*
X53040000Y-69215000D02*
G75*
G03*
X53040000Y-69215000I-920000J0D01*
G01*
X57150000Y-20165635D02*
X57150000Y-20825000D01*
X58900635Y-18415000D02*
G75*
G03*
X58900635Y-18415000I-1750635J0D01*
G01*
X17820000Y-36715000D02*
X18170000Y-36715000D01*
X17820000Y-41295000D02*
X17820000Y-41795000D01*
X15470000Y-45585000D02*
X15470000Y-43585000D01*
X17820000Y-43295000D02*
X17820000Y-43795000D01*
X22470000Y-35965000D02*
X22470000Y-36715000D01*
X15860000Y-45195000D02*
X23330000Y-45195000D01*
X18170000Y-38215000D02*
X17820000Y-38215000D01*
X18170000Y-35965000D02*
X22470000Y-35965000D01*
X15860000Y-34815000D02*
X15860000Y-45195000D01*
X16820000Y-38965000D02*
X16820000Y-35965000D01*
X17820000Y-41795000D02*
X18170000Y-41795000D01*
X22470000Y-38215000D02*
X22470000Y-38965000D01*
X18170000Y-44045000D02*
X18170000Y-43295000D01*
X18170000Y-41045000D02*
X22470000Y-41045000D01*
X22470000Y-44045000D02*
X18170000Y-44045000D01*
X18170000Y-41795000D02*
X18170000Y-41045000D01*
X23330000Y-34815000D02*
X15860000Y-34815000D01*
X22470000Y-41045000D02*
X22470000Y-41795000D01*
X16820000Y-44045000D02*
X16820000Y-41045000D01*
X22470000Y-38965000D02*
X18170000Y-38965000D01*
X22470000Y-43295000D02*
X22470000Y-44045000D01*
X17820000Y-36215000D02*
X17820000Y-36715000D01*
X17820000Y-38215000D02*
X17820000Y-38715000D01*
X17820000Y-38715000D02*
X16820000Y-38965000D01*
X18170000Y-38965000D02*
X18170000Y-38215000D01*
X17820000Y-43795000D02*
X16820000Y-44045000D01*
X16720000Y-45585000D02*
X15470000Y-45585000D01*
X18170000Y-43295000D02*
X17820000Y-43295000D01*
X23330000Y-45195000D02*
X23330000Y-34815000D01*
X16820000Y-41045000D02*
X17820000Y-41295000D01*
X18170000Y-36715000D02*
X18170000Y-35965000D01*
X16820000Y-35965000D02*
X17820000Y-36215000D01*
X22469845Y-36715353D02*
G75*
G03*
X22470000Y-38215000I1700155J-749647D01*
G01*
X22469845Y-41795353D02*
G75*
G03*
X22470000Y-43295000I1700155J-749647D01*
G01*
X53095000Y-40525000D02*
X53095000Y-39775000D01*
X53095000Y-34695000D02*
X57395000Y-34695000D01*
X57745000Y-42525000D02*
X57745000Y-42025000D01*
X57745000Y-34945000D02*
X58745000Y-34695000D01*
X52235000Y-43925000D02*
X59705000Y-43925000D01*
X57395000Y-36945000D02*
X57395000Y-37695000D01*
X57395000Y-37695000D02*
X53095000Y-37695000D01*
X57395000Y-42775000D02*
X53095000Y-42775000D01*
X57395000Y-35445000D02*
X57745000Y-35445000D01*
X57395000Y-40525000D02*
X57745000Y-40525000D01*
X58745000Y-39775000D02*
X58745000Y-42775000D01*
X53095000Y-37695000D02*
X53095000Y-36945000D01*
X58745000Y-34695000D02*
X58745000Y-37695000D01*
X52235000Y-33545000D02*
X52235000Y-43925000D01*
X57745000Y-37445000D02*
X57745000Y-36945000D01*
X57745000Y-35445000D02*
X57745000Y-34945000D01*
X57745000Y-36945000D02*
X57395000Y-36945000D01*
X58745000Y-37695000D02*
X57745000Y-37445000D01*
X58745000Y-42775000D02*
X57745000Y-42525000D01*
X57395000Y-34695000D02*
X57395000Y-35445000D01*
X57395000Y-39775000D02*
X57395000Y-40525000D01*
X57395000Y-42025000D02*
X57395000Y-42775000D01*
X53095000Y-42775000D02*
X53095000Y-42025000D01*
X60095000Y-33155000D02*
X60095000Y-35155000D01*
X57745000Y-40525000D02*
X57745000Y-40025000D01*
X57745000Y-40025000D02*
X58745000Y-39775000D01*
X57745000Y-42025000D02*
X57395000Y-42025000D01*
X59705000Y-43925000D02*
X59705000Y-33545000D01*
X59705000Y-33545000D02*
X52235000Y-33545000D01*
X53095000Y-39775000D02*
X57395000Y-39775000D01*
X58845000Y-33155000D02*
X60095000Y-33155000D01*
X53095000Y-35445000D02*
X53095000Y-34695000D01*
X53095155Y-36944647D02*
G75*
G03*
X53095000Y-35445000I-1700155J749647D01*
G01*
X53095155Y-42024647D02*
G75*
G03*
X53095000Y-40525000I-1700155J749647D01*
G01*
%LPC*%
D12*
X46355000Y-55245000D03*
X46355000Y-52745000D03*
X25400000Y-52705000D03*
X25400000Y-55205000D03*
D13*
X53975000Y-55245000D03*
D12*
X53975000Y-52745000D03*
D13*
X17780000Y-52705000D03*
D12*
X17780000Y-55205000D03*
X37465000Y-55245000D03*
X37465000Y-52745000D03*
X33972500Y-52705000D03*
X33972500Y-55205000D03*
D13*
X41910000Y-55245000D03*
D12*
X41910000Y-52745000D03*
D13*
X29845000Y-52705000D03*
D12*
X29845000Y-55205000D03*
D14*
X49530000Y-22225000D03*
D15*
X49530000Y-16225000D03*
D16*
X44830000Y-19225000D03*
D13*
X49530000Y-60325000D03*
D17*
X49530000Y-52705000D03*
D13*
X22225000Y-52705000D03*
D17*
X22225000Y-60325000D03*
D18*
X59055000Y-65405000D03*
D19*
X59055000Y-62865000D03*
X59055000Y-60325000D03*
X59055000Y-57785000D03*
X59055000Y-55245000D03*
X59055000Y-52705000D03*
D18*
X36195000Y-15875000D03*
D19*
X38735000Y-15875000D03*
D18*
X27305000Y-15875000D03*
D19*
X24765000Y-15875000D03*
X22225000Y-15875000D03*
D20*
X46037500Y-62230000D03*
D21*
X44767500Y-60960000D03*
X46037500Y-59690000D03*
D20*
X26035000Y-62230000D03*
D21*
X24765000Y-60960000D03*
X26035000Y-59690000D03*
D20*
X41275000Y-62230000D03*
D21*
X40005000Y-60960000D03*
X41275000Y-59690000D03*
D20*
X31115000Y-62230000D03*
D21*
X29845000Y-60960000D03*
X31115000Y-59690000D03*
D22*
X53975000Y-62230000D03*
D23*
X53975000Y-59690000D03*
D22*
X17780000Y-59690000D03*
D23*
X17780000Y-62230000D03*
D13*
X27940000Y-21590000D03*
D12*
X30440000Y-21590000D03*
X27940000Y-26035000D03*
X30440000Y-26035000D03*
D24*
X19050000Y-20002500D03*
X19050000Y-26402500D03*
D25*
X45085000Y-28575000D03*
D26*
X56335000Y-28575000D03*
X33835000Y-28575000D03*
D27*
X53975000Y-64770000D03*
D28*
X53975000Y-67310000D03*
D22*
X52120000Y-69215000D03*
D23*
X54660000Y-69215000D03*
D29*
X57150000Y-22225000D03*
D30*
X57150000Y-18415000D03*
D31*
X22225000Y-31115000D03*
X52705000Y-47625000D03*
D32*
X20320000Y-42545000D03*
D33*
X20320000Y-37465000D03*
D34*
X55245000Y-36195000D03*
D33*
X55245000Y-41275000D03*
D18*
X31115000Y-66675000D03*
D19*
X31115000Y-69215000D03*
X33655000Y-66675000D03*
X33655000Y-69215000D03*
X36195000Y-66675000D03*
X36195000Y-69215000D03*
X38735000Y-66675000D03*
X38735000Y-69215000D03*
X41275000Y-66675000D03*
X41275000Y-69215000D03*
D18*
X46355000Y-66675000D03*
D19*
X46355000Y-69215000D03*
X48895000Y-66675000D03*
X48895000Y-69215000D03*
D18*
X36195000Y-19685000D03*
D19*
X38735000Y-19685000D03*
M02*
