M48
; DRILL file {KiCad 6.0.4+dfsg-1+b1} date Sun 24 Apr 2022 12:26:15 AM EEST
; FORMAT={-:-/ absolute / metric / decimal}
; #@! TF.CreationDate,2022-04-24T00:26:15+03:00
; #@! TF.GenerationSoftware,Kicad,Pcbnew,6.0.4+dfsg-1+b1
; #@! TF.FileFunction,Plated,1,2,PTH
FMAT,2
METRIC
; #@! TA.AperFunction,Plated,PTH,ComponentDrill
T1C1.000
%
G90
G05
T1
X20.955Y-41.275
X20.955Y-43.815
X31.115Y-60.325
X31.115Y-66.675
X31.115Y-69.215
X33.655Y-60.325
X33.655Y-66.675
X33.655Y-69.215
X36.195Y-19.685
X36.195Y-60.325
X36.195Y-66.675
X36.195Y-69.215
X38.735Y-19.685
X38.735Y-66.675
X38.735Y-69.215
X41.275Y-66.675
X41.275Y-69.215
X46.355Y-66.675
X46.355Y-69.215
X48.895Y-66.675
X48.895Y-69.215
X53.975Y-66.675
X53.975Y-69.215
X54.61Y-47.625
X54.61Y-50.165
X54.61Y-52.705
X56.515Y-66.675
X56.515Y-69.215
X57.15Y-47.625
X57.15Y-50.165
X57.15Y-52.705
T0
M30
