G04 #@! TF.GenerationSoftware,KiCad,Pcbnew,6.0.4+dfsg-1+b1*
G04 #@! TF.CreationDate,2022-04-24T00:25:44+03:00*
G04 #@! TF.ProjectId,yatabaza-amp,79617461-6261-47a6-912d-616d702e6b69,rev?*
G04 #@! TF.SameCoordinates,Original*
G04 #@! TF.FileFunction,Copper,L1,Top*
G04 #@! TF.FilePolarity,Positive*
%FSLAX46Y46*%
G04 Gerber Fmt 4.6, Leading zero omitted, Abs format (unit mm)*
G04 Created by KiCad (PCBNEW 6.0.4+dfsg-1+b1) date 2022-04-24 00:25:44*
%MOMM*%
%LPD*%
G01*
G04 APERTURE LIST*
G04 #@! TA.AperFunction,ComponentPad*
%ADD10R,1.700000X1.700000*%
G04 #@! TD*
G04 #@! TA.AperFunction,ComponentPad*
%ADD11O,1.700000X1.700000*%
G04 #@! TD*
G04 #@! TA.AperFunction,Conductor*
%ADD12C,0.750000*%
G04 #@! TD*
G04 #@! TA.AperFunction,Conductor*
%ADD13C,0.375000*%
G04 #@! TD*
G04 APERTURE END LIST*
D10*
X36195000Y-19685000D03*
D11*
X38735000Y-19685000D03*
D10*
X20955000Y-41275000D03*
D11*
X20955000Y-43815000D03*
D10*
X31115000Y-60325000D03*
D11*
X33655000Y-60325000D03*
X36195000Y-60325000D03*
D10*
X54610000Y-47625000D03*
D11*
X54610000Y-50165000D03*
X54610000Y-52705000D03*
D10*
X57150000Y-47625000D03*
D11*
X57150000Y-50165000D03*
X57150000Y-52705000D03*
D10*
X31115000Y-66675000D03*
D11*
X31115000Y-69215000D03*
X33655000Y-66675000D03*
X33655000Y-69215000D03*
X36195000Y-66675000D03*
X36195000Y-69215000D03*
X38735000Y-66675000D03*
X38735000Y-69215000D03*
X41275000Y-66675000D03*
X41275000Y-69215000D03*
D10*
X46355000Y-66675000D03*
D11*
X46355000Y-69215000D03*
X48895000Y-66675000D03*
X48895000Y-69215000D03*
D10*
X53975000Y-69215000D03*
D11*
X56515000Y-69215000D03*
D10*
X53975000Y-66675000D03*
D11*
X56515000Y-66675000D03*
D12*
X33655000Y-44450000D02*
X33655000Y-60325000D01*
X33655000Y-70485000D02*
X34290000Y-71120000D01*
X34290000Y-71120000D02*
X53340000Y-71120000D01*
X53340000Y-71120000D02*
X53975000Y-70485000D01*
X53975000Y-70485000D02*
X53975000Y-69215000D01*
X33655000Y-44450000D02*
X33020000Y-43815000D01*
X53975000Y-53340000D02*
X54610000Y-52705000D01*
X31115000Y-69215000D02*
X33655000Y-69215000D01*
X33655000Y-66675000D02*
X31115000Y-66675000D01*
X33655000Y-69215000D02*
X33655000Y-66675000D01*
X33655000Y-69215000D02*
X33655000Y-70485000D01*
X20955000Y-43815000D02*
X33020000Y-43815000D01*
X53975000Y-69215000D02*
X53975000Y-66675000D01*
X53975000Y-66675000D02*
X53975000Y-53340000D01*
X31115000Y-66675000D02*
X31115000Y-69215000D01*
X33655000Y-66675000D02*
X33655000Y-60325000D01*
X54610000Y-52705000D02*
X57150000Y-52705000D01*
X20955000Y-41275000D02*
X45720000Y-41275000D01*
X46355000Y-41910000D02*
X45720000Y-41275000D01*
X46355000Y-69215000D02*
X48895000Y-69215000D01*
X46355000Y-66675000D02*
X46355000Y-41910000D01*
X48895000Y-66675000D02*
X46355000Y-66675000D01*
X48895000Y-69215000D02*
X48895000Y-66675000D01*
X46355000Y-66675000D02*
X46355000Y-69215000D01*
D13*
X56515000Y-66040000D02*
X57785000Y-64770000D01*
X57785000Y-64770000D02*
X57785000Y-58420000D01*
X57785000Y-58420000D02*
X59055000Y-57150000D01*
X59055000Y-57150000D02*
X59055000Y-48260000D01*
X59055000Y-48260000D02*
X58420000Y-47625000D01*
X58420000Y-47625000D02*
X57150000Y-47625000D01*
X56515000Y-66675000D02*
X56515000Y-66040000D01*
X57150000Y-69215000D02*
X58420000Y-67945000D01*
X58420000Y-67945000D02*
X58420000Y-59055000D01*
X58420000Y-59055000D02*
X59630002Y-57844998D01*
X59630002Y-57844998D02*
X59630002Y-46990000D01*
X59630002Y-46930002D02*
X59055000Y-46355000D01*
X59055000Y-46355000D02*
X55245000Y-46355000D01*
X55245000Y-46355000D02*
X54610000Y-46990000D01*
X54610000Y-46990000D02*
X54610000Y-47625000D01*
X56515000Y-69215000D02*
X57150000Y-69215000D01*
X59630002Y-46990000D02*
X59630002Y-46930002D01*
M02*
