G04 #@! TF.GenerationSoftware,KiCad,Pcbnew,6.0.4+dfsg-1+b1*
G04 #@! TF.CreationDate,2022-04-24T00:25:44+03:00*
G04 #@! TF.ProjectId,yatabaza-amp,79617461-6261-47a6-912d-616d702e6b69,rev?*
G04 #@! TF.SameCoordinates,Original*
G04 #@! TF.FileFunction,Legend,Bot*
G04 #@! TF.FilePolarity,Positive*
%FSLAX46Y46*%
G04 Gerber Fmt 4.6, Leading zero omitted, Abs format (unit mm)*
G04 Created by KiCad (PCBNEW 6.0.4+dfsg-1+b1) date 2022-04-24 00:25:44*
%MOMM*%
%LPD*%
G01*
G04 APERTURE LIST*
%ADD10C,0.150000*%
%ADD11C,0.120000*%
%ADD12R,1.700000X1.700000*%
%ADD13O,1.700000X1.700000*%
%ADD14R,1.500000X1.000000*%
G04 APERTURE END LIST*
D10*
X38504523Y-71572380D02*
X38504523Y-70572380D01*
X38123571Y-70572380D01*
X38028333Y-70620000D01*
X37980714Y-70667619D01*
X37933095Y-70762857D01*
X37933095Y-70905714D01*
X37980714Y-71000952D01*
X38028333Y-71048571D01*
X38123571Y-71096190D01*
X38504523Y-71096190D01*
X37314047Y-70572380D02*
X37123571Y-70572380D01*
X37028333Y-70620000D01*
X36933095Y-70715238D01*
X36885476Y-70905714D01*
X36885476Y-71239047D01*
X36933095Y-71429523D01*
X37028333Y-71524761D01*
X37123571Y-71572380D01*
X37314047Y-71572380D01*
X37409285Y-71524761D01*
X37504523Y-71429523D01*
X37552142Y-71239047D01*
X37552142Y-70905714D01*
X37504523Y-70715238D01*
X37409285Y-70620000D01*
X37314047Y-70572380D01*
X36552142Y-70572380D02*
X36314047Y-71572380D01*
X36123571Y-70858095D01*
X35933095Y-71572380D01*
X35695000Y-70572380D01*
X35314047Y-71048571D02*
X34980714Y-71048571D01*
X34837857Y-71572380D02*
X35314047Y-71572380D01*
X35314047Y-70572380D01*
X34837857Y-70572380D01*
X33837857Y-71572380D02*
X34171190Y-71096190D01*
X34409285Y-71572380D02*
X34409285Y-70572380D01*
X34028333Y-70572380D01*
X33933095Y-70620000D01*
X33885476Y-70667619D01*
X33837857Y-70762857D01*
X33837857Y-70905714D01*
X33885476Y-71000952D01*
X33933095Y-71048571D01*
X34028333Y-71096190D01*
X34409285Y-71096190D01*
X48339285Y-71572380D02*
X48339285Y-70572380D01*
X48339285Y-71048571D02*
X47767857Y-71048571D01*
X47767857Y-71572380D02*
X47767857Y-70572380D01*
X47434523Y-70572380D02*
X47101190Y-71572380D01*
X46767857Y-70572380D01*
X35559761Y-53157380D02*
X35559761Y-52157380D01*
X35226428Y-52871666D01*
X34893095Y-52157380D01*
X34893095Y-53157380D01*
X34226428Y-52157380D02*
X34035952Y-52157380D01*
X33940714Y-52205000D01*
X33845476Y-52300238D01*
X33797857Y-52490714D01*
X33797857Y-52824047D01*
X33845476Y-53014523D01*
X33940714Y-53109761D01*
X34035952Y-53157380D01*
X34226428Y-53157380D01*
X34321666Y-53109761D01*
X34416904Y-53014523D01*
X34464523Y-52824047D01*
X34464523Y-52490714D01*
X34416904Y-52300238D01*
X34321666Y-52205000D01*
X34226428Y-52157380D01*
X33369285Y-53157380D02*
X33369285Y-52157380D01*
X32797857Y-53157380D01*
X32797857Y-52157380D01*
X32131190Y-52157380D02*
X31940714Y-52157380D01*
X31845476Y-52205000D01*
X31750238Y-52300238D01*
X31702619Y-52490714D01*
X31702619Y-52824047D01*
X31750238Y-53014523D01*
X31845476Y-53109761D01*
X31940714Y-53157380D01*
X32131190Y-53157380D01*
X32226428Y-53109761D01*
X32321666Y-53014523D01*
X32369285Y-52824047D01*
X32369285Y-52490714D01*
X32321666Y-52300238D01*
X32226428Y-52205000D01*
X32131190Y-52157380D01*
X58535476Y-69667380D02*
X59011666Y-69667380D01*
X59011666Y-68667380D01*
X58535476Y-67127380D02*
X58868809Y-66651190D01*
X59106904Y-67127380D02*
X59106904Y-66127380D01*
X58725952Y-66127380D01*
X58630714Y-66175000D01*
X58583095Y-66222619D01*
X58535476Y-66317857D01*
X58535476Y-66460714D01*
X58583095Y-66555952D01*
X58630714Y-66603571D01*
X58725952Y-66651190D01*
X59106904Y-66651190D01*
D11*
X29785000Y-67945000D02*
X29785000Y-70545000D01*
X31115000Y-65345000D02*
X29785000Y-65345000D01*
X32385000Y-65345000D02*
X32385000Y-67945000D01*
X32385000Y-65345000D02*
X42605000Y-65345000D01*
X32385000Y-67945000D02*
X29785000Y-67945000D01*
X29785000Y-65345000D02*
X29785000Y-66675000D01*
X29785000Y-70545000D02*
X42605000Y-70545000D01*
X42605000Y-65345000D02*
X42605000Y-70545000D01*
X47625000Y-65345000D02*
X50225000Y-65345000D01*
X45025000Y-65345000D02*
X45025000Y-66675000D01*
X45025000Y-67945000D02*
X45025000Y-70545000D01*
X45025000Y-70545000D02*
X50225000Y-70545000D01*
X47625000Y-65345000D02*
X47625000Y-67945000D01*
X50225000Y-65345000D02*
X50225000Y-70545000D01*
X47625000Y-67945000D02*
X45025000Y-67945000D01*
X46355000Y-65345000D02*
X45025000Y-65345000D01*
X34655000Y-53845000D02*
X32655000Y-53845000D01*
X34655000Y-56645000D02*
X34655000Y-53845000D01*
X32655000Y-56645000D02*
X34655000Y-56645000D01*
X32655000Y-53845000D02*
X32655000Y-56645000D01*
X55245000Y-67885000D02*
X57845000Y-67885000D01*
X52645000Y-67885000D02*
X52645000Y-69215000D01*
X55245000Y-70545000D02*
X57845000Y-70545000D01*
X55245000Y-67885000D02*
X55245000Y-70545000D01*
X57845000Y-67885000D02*
X57845000Y-70545000D01*
X53975000Y-67885000D02*
X52645000Y-67885000D01*
X53975000Y-65345000D02*
X52645000Y-65345000D01*
X55245000Y-65345000D02*
X55245000Y-68005000D01*
X55245000Y-65345000D02*
X57845000Y-65345000D01*
X52645000Y-65345000D02*
X52645000Y-66675000D01*
X57845000Y-65345000D02*
X57845000Y-68005000D01*
X55245000Y-68005000D02*
X57845000Y-68005000D01*
%LPC*%
D12*
X36195000Y-19685000D03*
D13*
X38735000Y-19685000D03*
D12*
X20955000Y-41275000D03*
D13*
X20955000Y-43815000D03*
D12*
X31115000Y-60325000D03*
D13*
X33655000Y-60325000D03*
X36195000Y-60325000D03*
D12*
X54610000Y-47625000D03*
D13*
X54610000Y-50165000D03*
X54610000Y-52705000D03*
D12*
X57150000Y-47625000D03*
D13*
X57150000Y-50165000D03*
X57150000Y-52705000D03*
D12*
X31115000Y-66675000D03*
D13*
X31115000Y-69215000D03*
X33655000Y-66675000D03*
X33655000Y-69215000D03*
X36195000Y-66675000D03*
X36195000Y-69215000D03*
X38735000Y-66675000D03*
X38735000Y-69215000D03*
X41275000Y-66675000D03*
X41275000Y-69215000D03*
D12*
X46355000Y-66675000D03*
D13*
X46355000Y-69215000D03*
X48895000Y-66675000D03*
X48895000Y-69215000D03*
D14*
X33655000Y-55895000D03*
X33655000Y-54595000D03*
D12*
X53975000Y-69215000D03*
D13*
X56515000Y-69215000D03*
D12*
X53975000Y-66675000D03*
D13*
X56515000Y-66675000D03*
M02*
