G04 #@! TF.GenerationSoftware,KiCad,Pcbnew,6.0.4+dfsg-1+b1*
G04 #@! TF.CreationDate,2022-04-24T01:38:02+03:00*
G04 #@! TF.ProjectId,yatabaza-synth,79617461-6261-47a6-912d-73796e74682e,rev?*
G04 #@! TF.SameCoordinates,Original*
G04 #@! TF.FileFunction,Legend,Top*
G04 #@! TF.FilePolarity,Positive*
%FSLAX46Y46*%
G04 Gerber Fmt 4.6, Leading zero omitted, Abs format (unit mm)*
G04 Created by KiCad (PCBNEW 6.0.4+dfsg-1+b1) date 2022-04-24 01:38:02*
%MOMM*%
%LPD*%
G01*
G04 APERTURE LIST*
%ADD10C,0.150000*%
%ADD11C,0.120000*%
%ADD12C,1.600000*%
%ADD13R,1.600000X1.600000*%
%ADD14C,1.400000*%
%ADD15O,1.400000X1.400000*%
%ADD16O,1.600000X1.600000*%
%ADD17C,1.500000*%
%ADD18R,1.700000X1.700000*%
%ADD19O,1.700000X1.700000*%
G04 APERTURE END LIST*
D10*
X49978333Y-37677142D02*
X49930714Y-37724761D01*
X49787857Y-37772380D01*
X49692619Y-37772380D01*
X49549761Y-37724761D01*
X49454523Y-37629523D01*
X49406904Y-37534285D01*
X49359285Y-37343809D01*
X49359285Y-37200952D01*
X49406904Y-37010476D01*
X49454523Y-36915238D01*
X49549761Y-36820000D01*
X49692619Y-36772380D01*
X49787857Y-36772380D01*
X49930714Y-36820000D01*
X49978333Y-36867619D01*
X50930714Y-37772380D02*
X50359285Y-37772380D01*
X50645000Y-37772380D02*
X50645000Y-36772380D01*
X50549761Y-36915238D01*
X50454523Y-37010476D01*
X50359285Y-37058095D01*
X55058333Y-50377142D02*
X55010714Y-50424761D01*
X54867857Y-50472380D01*
X54772619Y-50472380D01*
X54629761Y-50424761D01*
X54534523Y-50329523D01*
X54486904Y-50234285D01*
X54439285Y-50043809D01*
X54439285Y-49900952D01*
X54486904Y-49710476D01*
X54534523Y-49615238D01*
X54629761Y-49520000D01*
X54772619Y-49472380D01*
X54867857Y-49472380D01*
X55010714Y-49520000D01*
X55058333Y-49567619D01*
X55439285Y-49567619D02*
X55486904Y-49520000D01*
X55582142Y-49472380D01*
X55820238Y-49472380D01*
X55915476Y-49520000D01*
X55963095Y-49567619D01*
X56010714Y-49662857D01*
X56010714Y-49758095D01*
X55963095Y-49900952D01*
X55391666Y-50472380D01*
X56010714Y-50472380D01*
X48708333Y-65444642D02*
X48660714Y-65492261D01*
X48517857Y-65539880D01*
X48422619Y-65539880D01*
X48279761Y-65492261D01*
X48184523Y-65397023D01*
X48136904Y-65301785D01*
X48089285Y-65111309D01*
X48089285Y-64968452D01*
X48136904Y-64777976D01*
X48184523Y-64682738D01*
X48279761Y-64587500D01*
X48422619Y-64539880D01*
X48517857Y-64539880D01*
X48660714Y-64587500D01*
X48708333Y-64635119D01*
X49041666Y-64539880D02*
X49660714Y-64539880D01*
X49327380Y-64920833D01*
X49470238Y-64920833D01*
X49565476Y-64968452D01*
X49613095Y-65016071D01*
X49660714Y-65111309D01*
X49660714Y-65349404D01*
X49613095Y-65444642D01*
X49565476Y-65492261D01*
X49470238Y-65539880D01*
X49184523Y-65539880D01*
X49089285Y-65492261D01*
X49041666Y-65444642D01*
X48708333Y-58202142D02*
X48660714Y-58249761D01*
X48517857Y-58297380D01*
X48422619Y-58297380D01*
X48279761Y-58249761D01*
X48184523Y-58154523D01*
X48136904Y-58059285D01*
X48089285Y-57868809D01*
X48089285Y-57725952D01*
X48136904Y-57535476D01*
X48184523Y-57440238D01*
X48279761Y-57345000D01*
X48422619Y-57297380D01*
X48517857Y-57297380D01*
X48660714Y-57345000D01*
X48708333Y-57392619D01*
X49565476Y-57630714D02*
X49565476Y-58297380D01*
X49327380Y-57249761D02*
X49089285Y-57964047D01*
X49708333Y-57964047D01*
X28408333Y-61489642D02*
X28360714Y-61537261D01*
X28217857Y-61584880D01*
X28122619Y-61584880D01*
X27979761Y-61537261D01*
X27884523Y-61442023D01*
X27836904Y-61346785D01*
X27789285Y-61156309D01*
X27789285Y-61013452D01*
X27836904Y-60822976D01*
X27884523Y-60727738D01*
X27979761Y-60632500D01*
X28122619Y-60584880D01*
X28217857Y-60584880D01*
X28360714Y-60632500D01*
X28408333Y-60680119D01*
X29313095Y-60584880D02*
X28836904Y-60584880D01*
X28789285Y-61061071D01*
X28836904Y-61013452D01*
X28932142Y-60965833D01*
X29170238Y-60965833D01*
X29265476Y-61013452D01*
X29313095Y-61061071D01*
X29360714Y-61156309D01*
X29360714Y-61394404D01*
X29313095Y-61489642D01*
X29265476Y-61537261D01*
X29170238Y-61584880D01*
X28932142Y-61584880D01*
X28836904Y-61537261D01*
X28789285Y-61489642D01*
X30293333Y-24977142D02*
X30245714Y-25024761D01*
X30102857Y-25072380D01*
X30007619Y-25072380D01*
X29864761Y-25024761D01*
X29769523Y-24929523D01*
X29721904Y-24834285D01*
X29674285Y-24643809D01*
X29674285Y-24500952D01*
X29721904Y-24310476D01*
X29769523Y-24215238D01*
X29864761Y-24120000D01*
X30007619Y-24072380D01*
X30102857Y-24072380D01*
X30245714Y-24120000D01*
X30293333Y-24167619D01*
X31150476Y-24072380D02*
X30960000Y-24072380D01*
X30864761Y-24120000D01*
X30817142Y-24167619D01*
X30721904Y-24310476D01*
X30674285Y-24500952D01*
X30674285Y-24881904D01*
X30721904Y-24977142D01*
X30769523Y-25024761D01*
X30864761Y-25072380D01*
X31055238Y-25072380D01*
X31150476Y-25024761D01*
X31198095Y-24977142D01*
X31245714Y-24881904D01*
X31245714Y-24643809D01*
X31198095Y-24548571D01*
X31150476Y-24500952D01*
X31055238Y-24453333D01*
X30864761Y-24453333D01*
X30769523Y-24500952D01*
X30721904Y-24548571D01*
X30674285Y-24643809D01*
X26392142Y-16676666D02*
X26439761Y-16724285D01*
X26487380Y-16867142D01*
X26487380Y-16962380D01*
X26439761Y-17105238D01*
X26344523Y-17200476D01*
X26249285Y-17248095D01*
X26058809Y-17295714D01*
X25915952Y-17295714D01*
X25725476Y-17248095D01*
X25630238Y-17200476D01*
X25535000Y-17105238D01*
X25487380Y-16962380D01*
X25487380Y-16867142D01*
X25535000Y-16724285D01*
X25582619Y-16676666D01*
X25487380Y-16343333D02*
X25487380Y-15676666D01*
X26487380Y-16105238D01*
X55098333Y-41777142D02*
X55050714Y-41824761D01*
X54907857Y-41872380D01*
X54812619Y-41872380D01*
X54669761Y-41824761D01*
X54574523Y-41729523D01*
X54526904Y-41634285D01*
X54479285Y-41443809D01*
X54479285Y-41300952D01*
X54526904Y-41110476D01*
X54574523Y-41015238D01*
X54669761Y-40920000D01*
X54812619Y-40872380D01*
X54907857Y-40872380D01*
X55050714Y-40920000D01*
X55098333Y-40967619D01*
X55669761Y-41300952D02*
X55574523Y-41253333D01*
X55526904Y-41205714D01*
X55479285Y-41110476D01*
X55479285Y-41062857D01*
X55526904Y-40967619D01*
X55574523Y-40920000D01*
X55669761Y-40872380D01*
X55860238Y-40872380D01*
X55955476Y-40920000D01*
X56003095Y-40967619D01*
X56050714Y-41062857D01*
X56050714Y-41110476D01*
X56003095Y-41205714D01*
X55955476Y-41253333D01*
X55860238Y-41300952D01*
X55669761Y-41300952D01*
X55574523Y-41348571D01*
X55526904Y-41396190D01*
X55479285Y-41491428D01*
X55479285Y-41681904D01*
X55526904Y-41777142D01*
X55574523Y-41824761D01*
X55669761Y-41872380D01*
X55860238Y-41872380D01*
X55955476Y-41824761D01*
X56003095Y-41777142D01*
X56050714Y-41681904D01*
X56050714Y-41491428D01*
X56003095Y-41396190D01*
X55955476Y-41348571D01*
X55860238Y-41300952D01*
X16232142Y-21756666D02*
X16279761Y-21804285D01*
X16327380Y-21947142D01*
X16327380Y-22042380D01*
X16279761Y-22185238D01*
X16184523Y-22280476D01*
X16089285Y-22328095D01*
X15898809Y-22375714D01*
X15755952Y-22375714D01*
X15565476Y-22328095D01*
X15470238Y-22280476D01*
X15375000Y-22185238D01*
X15327380Y-22042380D01*
X15327380Y-21947142D01*
X15375000Y-21804285D01*
X15422619Y-21756666D01*
X16327380Y-21280476D02*
X16327380Y-21090000D01*
X16279761Y-20994761D01*
X16232142Y-20947142D01*
X16089285Y-20851904D01*
X15898809Y-20804285D01*
X15517857Y-20804285D01*
X15422619Y-20851904D01*
X15375000Y-20899523D01*
X15327380Y-20994761D01*
X15327380Y-21185238D01*
X15375000Y-21280476D01*
X15422619Y-21328095D01*
X15517857Y-21375714D01*
X15755952Y-21375714D01*
X15851190Y-21328095D01*
X15898809Y-21280476D01*
X15946428Y-21185238D01*
X15946428Y-20994761D01*
X15898809Y-20899523D01*
X15851190Y-20851904D01*
X15755952Y-20804285D01*
X16232142Y-17132857D02*
X16279761Y-17180476D01*
X16327380Y-17323333D01*
X16327380Y-17418571D01*
X16279761Y-17561428D01*
X16184523Y-17656666D01*
X16089285Y-17704285D01*
X15898809Y-17751904D01*
X15755952Y-17751904D01*
X15565476Y-17704285D01*
X15470238Y-17656666D01*
X15375000Y-17561428D01*
X15327380Y-17418571D01*
X15327380Y-17323333D01*
X15375000Y-17180476D01*
X15422619Y-17132857D01*
X16327380Y-16180476D02*
X16327380Y-16751904D01*
X16327380Y-16466190D02*
X15327380Y-16466190D01*
X15470238Y-16561428D01*
X15565476Y-16656666D01*
X15613095Y-16751904D01*
X15327380Y-15561428D02*
X15327380Y-15466190D01*
X15375000Y-15370952D01*
X15422619Y-15323333D01*
X15517857Y-15275714D01*
X15708333Y-15228095D01*
X15946428Y-15228095D01*
X16136904Y-15275714D01*
X16232142Y-15323333D01*
X16279761Y-15370952D01*
X16327380Y-15466190D01*
X16327380Y-15561428D01*
X16279761Y-15656666D01*
X16232142Y-15704285D01*
X16136904Y-15751904D01*
X15946428Y-15799523D01*
X15708333Y-15799523D01*
X15517857Y-15751904D01*
X15422619Y-15704285D01*
X15375000Y-15656666D01*
X15327380Y-15561428D01*
X49312142Y-22252857D02*
X49359761Y-22300476D01*
X49407380Y-22443333D01*
X49407380Y-22538571D01*
X49359761Y-22681428D01*
X49264523Y-22776666D01*
X49169285Y-22824285D01*
X48978809Y-22871904D01*
X48835952Y-22871904D01*
X48645476Y-22824285D01*
X48550238Y-22776666D01*
X48455000Y-22681428D01*
X48407380Y-22538571D01*
X48407380Y-22443333D01*
X48455000Y-22300476D01*
X48502619Y-22252857D01*
X49407380Y-21300476D02*
X49407380Y-21871904D01*
X49407380Y-21586190D02*
X48407380Y-21586190D01*
X48550238Y-21681428D01*
X48645476Y-21776666D01*
X48693095Y-21871904D01*
X49407380Y-20348095D02*
X49407380Y-20919523D01*
X49407380Y-20633809D02*
X48407380Y-20633809D01*
X48550238Y-20729047D01*
X48645476Y-20824285D01*
X48693095Y-20919523D01*
X54649642Y-64460357D02*
X54697261Y-64507976D01*
X54744880Y-64650833D01*
X54744880Y-64746071D01*
X54697261Y-64888928D01*
X54602023Y-64984166D01*
X54506785Y-65031785D01*
X54316309Y-65079404D01*
X54173452Y-65079404D01*
X53982976Y-65031785D01*
X53887738Y-64984166D01*
X53792500Y-64888928D01*
X53744880Y-64746071D01*
X53744880Y-64650833D01*
X53792500Y-64507976D01*
X53840119Y-64460357D01*
X54744880Y-63507976D02*
X54744880Y-64079404D01*
X54744880Y-63793690D02*
X53744880Y-63793690D01*
X53887738Y-63888928D01*
X53982976Y-63984166D01*
X54030595Y-64079404D01*
X53840119Y-63127023D02*
X53792500Y-63079404D01*
X53744880Y-62984166D01*
X53744880Y-62746071D01*
X53792500Y-62650833D01*
X53840119Y-62603214D01*
X53935357Y-62555595D01*
X54030595Y-62555595D01*
X54173452Y-62603214D01*
X54744880Y-63174642D01*
X54744880Y-62555595D01*
X55284642Y-59697857D02*
X55332261Y-59745476D01*
X55379880Y-59888333D01*
X55379880Y-59983571D01*
X55332261Y-60126428D01*
X55237023Y-60221666D01*
X55141785Y-60269285D01*
X54951309Y-60316904D01*
X54808452Y-60316904D01*
X54617976Y-60269285D01*
X54522738Y-60221666D01*
X54427500Y-60126428D01*
X54379880Y-59983571D01*
X54379880Y-59888333D01*
X54427500Y-59745476D01*
X54475119Y-59697857D01*
X55379880Y-58745476D02*
X55379880Y-59316904D01*
X55379880Y-59031190D02*
X54379880Y-59031190D01*
X54522738Y-59126428D01*
X54617976Y-59221666D01*
X54665595Y-59316904D01*
X54379880Y-58412142D02*
X54379880Y-57793095D01*
X54760833Y-58126428D01*
X54760833Y-57983571D01*
X54808452Y-57888333D01*
X54856071Y-57840714D01*
X54951309Y-57793095D01*
X55189404Y-57793095D01*
X55284642Y-57840714D01*
X55332261Y-57888333D01*
X55379880Y-57983571D01*
X55379880Y-58269285D01*
X55332261Y-58364523D01*
X55284642Y-58412142D01*
X27132380Y-23026666D02*
X26656190Y-23360000D01*
X27132380Y-23598095D02*
X26132380Y-23598095D01*
X26132380Y-23217142D01*
X26180000Y-23121904D01*
X26227619Y-23074285D01*
X26322857Y-23026666D01*
X26465714Y-23026666D01*
X26560952Y-23074285D01*
X26608571Y-23121904D01*
X26656190Y-23217142D01*
X26656190Y-23598095D01*
X26132380Y-22121904D02*
X26132380Y-22598095D01*
X26608571Y-22645714D01*
X26560952Y-22598095D01*
X26513333Y-22502857D01*
X26513333Y-22264761D01*
X26560952Y-22169523D01*
X26608571Y-22121904D01*
X26703809Y-22074285D01*
X26941904Y-22074285D01*
X27037142Y-22121904D01*
X27084761Y-22169523D01*
X27132380Y-22264761D01*
X27132380Y-22502857D01*
X27084761Y-22598095D01*
X27037142Y-22645714D01*
X27112380Y-20476666D02*
X26636190Y-20810000D01*
X27112380Y-21048095D02*
X26112380Y-21048095D01*
X26112380Y-20667142D01*
X26160000Y-20571904D01*
X26207619Y-20524285D01*
X26302857Y-20476666D01*
X26445714Y-20476666D01*
X26540952Y-20524285D01*
X26588571Y-20571904D01*
X26636190Y-20667142D01*
X26636190Y-21048095D01*
X26112380Y-19619523D02*
X26112380Y-19810000D01*
X26160000Y-19905238D01*
X26207619Y-19952857D01*
X26350476Y-20048095D01*
X26540952Y-20095714D01*
X26921904Y-20095714D01*
X27017142Y-20048095D01*
X27064761Y-20000476D01*
X27112380Y-19905238D01*
X27112380Y-19714761D01*
X27064761Y-19619523D01*
X27017142Y-19571904D01*
X26921904Y-19524285D01*
X26683809Y-19524285D01*
X26588571Y-19571904D01*
X26540952Y-19619523D01*
X26493333Y-19714761D01*
X26493333Y-19905238D01*
X26540952Y-20000476D01*
X26588571Y-20048095D01*
X26683809Y-20095714D01*
X51903333Y-66492380D02*
X51570000Y-66016190D01*
X51331904Y-66492380D02*
X51331904Y-65492380D01*
X51712857Y-65492380D01*
X51808095Y-65540000D01*
X51855714Y-65587619D01*
X51903333Y-65682857D01*
X51903333Y-65825714D01*
X51855714Y-65920952D01*
X51808095Y-65968571D01*
X51712857Y-66016190D01*
X51331904Y-66016190D01*
X52474761Y-65920952D02*
X52379523Y-65873333D01*
X52331904Y-65825714D01*
X52284285Y-65730476D01*
X52284285Y-65682857D01*
X52331904Y-65587619D01*
X52379523Y-65540000D01*
X52474761Y-65492380D01*
X52665238Y-65492380D01*
X52760476Y-65540000D01*
X52808095Y-65587619D01*
X52855714Y-65682857D01*
X52855714Y-65730476D01*
X52808095Y-65825714D01*
X52760476Y-65873333D01*
X52665238Y-65920952D01*
X52474761Y-65920952D01*
X52379523Y-65968571D01*
X52331904Y-66016190D01*
X52284285Y-66111428D01*
X52284285Y-66301904D01*
X52331904Y-66397142D01*
X52379523Y-66444761D01*
X52474761Y-66492380D01*
X52665238Y-66492380D01*
X52760476Y-66444761D01*
X52808095Y-66397142D01*
X52855714Y-66301904D01*
X52855714Y-66111428D01*
X52808095Y-66016190D01*
X52760476Y-65968571D01*
X52665238Y-65920952D01*
X20828095Y-25062380D02*
X20828095Y-25871904D01*
X20875714Y-25967142D01*
X20923333Y-26014761D01*
X21018571Y-26062380D01*
X21209047Y-26062380D01*
X21304285Y-26014761D01*
X21351904Y-25967142D01*
X21399523Y-25871904D01*
X21399523Y-25062380D01*
X22399523Y-26062380D02*
X21828095Y-26062380D01*
X22113809Y-26062380D02*
X22113809Y-25062380D01*
X22018571Y-25205238D01*
X21923333Y-25300476D01*
X21828095Y-25348095D01*
X36068095Y-27602380D02*
X36068095Y-28411904D01*
X36115714Y-28507142D01*
X36163333Y-28554761D01*
X36258571Y-28602380D01*
X36449047Y-28602380D01*
X36544285Y-28554761D01*
X36591904Y-28507142D01*
X36639523Y-28411904D01*
X36639523Y-27602380D01*
X37068095Y-27697619D02*
X37115714Y-27650000D01*
X37210952Y-27602380D01*
X37449047Y-27602380D01*
X37544285Y-27650000D01*
X37591904Y-27697619D01*
X37639523Y-27792857D01*
X37639523Y-27888095D01*
X37591904Y-28030952D01*
X37020476Y-28602380D01*
X37639523Y-28602380D01*
X28872380Y-19811904D02*
X29681904Y-19811904D01*
X29777142Y-19764285D01*
X29824761Y-19716666D01*
X29872380Y-19621428D01*
X29872380Y-19430952D01*
X29824761Y-19335714D01*
X29777142Y-19288095D01*
X29681904Y-19240476D01*
X28872380Y-19240476D01*
X28872380Y-18859523D02*
X28872380Y-18240476D01*
X29253333Y-18573809D01*
X29253333Y-18430952D01*
X29300952Y-18335714D01*
X29348571Y-18288095D01*
X29443809Y-18240476D01*
X29681904Y-18240476D01*
X29777142Y-18288095D01*
X29824761Y-18335714D01*
X29872380Y-18430952D01*
X29872380Y-18716666D01*
X29824761Y-18811904D01*
X29777142Y-18859523D01*
X51943095Y-37342380D02*
X51943095Y-38151904D01*
X51990714Y-38247142D01*
X52038333Y-38294761D01*
X52133571Y-38342380D01*
X52324047Y-38342380D01*
X52419285Y-38294761D01*
X52466904Y-38247142D01*
X52514523Y-38151904D01*
X52514523Y-37342380D01*
X53419285Y-37675714D02*
X53419285Y-38342380D01*
X53181190Y-37294761D02*
X52943095Y-38009047D01*
X53562142Y-38009047D01*
X46017380Y-46481904D02*
X46826904Y-46481904D01*
X46922142Y-46434285D01*
X46969761Y-46386666D01*
X47017380Y-46291428D01*
X47017380Y-46100952D01*
X46969761Y-46005714D01*
X46922142Y-45958095D01*
X46826904Y-45910476D01*
X46017380Y-45910476D01*
X46017380Y-44958095D02*
X46017380Y-45434285D01*
X46493571Y-45481904D01*
X46445952Y-45434285D01*
X46398333Y-45339047D01*
X46398333Y-45100952D01*
X46445952Y-45005714D01*
X46493571Y-44958095D01*
X46588809Y-44910476D01*
X46826904Y-44910476D01*
X46922142Y-44958095D01*
X46969761Y-45005714D01*
X47017380Y-45100952D01*
X47017380Y-45339047D01*
X46969761Y-45434285D01*
X46922142Y-45481904D01*
X18041190Y-19626190D02*
X18517380Y-19626190D01*
X17517380Y-19959523D02*
X18041190Y-19626190D01*
X17517380Y-19292857D01*
X18517380Y-18435714D02*
X18517380Y-19007142D01*
X18517380Y-18721428D02*
X17517380Y-18721428D01*
X17660238Y-18816666D01*
X17755476Y-18911904D01*
X17803095Y-19007142D01*
X29027380Y-68111666D02*
X28551190Y-68445000D01*
X29027380Y-68683095D02*
X28027380Y-68683095D01*
X28027380Y-68302142D01*
X28075000Y-68206904D01*
X28122619Y-68159285D01*
X28217857Y-68111666D01*
X28360714Y-68111666D01*
X28455952Y-68159285D01*
X28503571Y-68206904D01*
X28551190Y-68302142D01*
X28551190Y-68683095D01*
X29027380Y-67159285D02*
X29027380Y-67730714D01*
X29027380Y-67445000D02*
X28027380Y-67445000D01*
X28170238Y-67540238D01*
X28265476Y-67635476D01*
X28313095Y-67730714D01*
X53792380Y-56681666D02*
X53316190Y-57015000D01*
X53792380Y-57253095D02*
X52792380Y-57253095D01*
X52792380Y-56872142D01*
X52840000Y-56776904D01*
X52887619Y-56729285D01*
X52982857Y-56681666D01*
X53125714Y-56681666D01*
X53220952Y-56729285D01*
X53268571Y-56776904D01*
X53316190Y-56872142D01*
X53316190Y-57253095D01*
X52792380Y-56348333D02*
X52792380Y-55681666D01*
X53792380Y-56110238D01*
D11*
X49516000Y-40290000D02*
X50774000Y-40290000D01*
X49516000Y-38450000D02*
X50774000Y-38450000D01*
X54596000Y-51150000D02*
X55854000Y-51150000D01*
X54596000Y-52990000D02*
X55854000Y-52990000D01*
X46314000Y-54894000D02*
X46314000Y-54326000D01*
X51469775Y-56335000D02*
X51469775Y-55835000D01*
X47794000Y-53570000D02*
X47794000Y-52281000D01*
X48435000Y-57146000D02*
X48435000Y-55650000D01*
X46554000Y-55708000D02*
X46554000Y-53512000D01*
X47154000Y-53570000D02*
X47154000Y-52709000D01*
X46714000Y-53570000D02*
X46714000Y-53227000D01*
X47714000Y-53570000D02*
X47714000Y-52320000D01*
X48275000Y-57111000D02*
X48275000Y-55650000D01*
X46954000Y-53570000D02*
X46954000Y-52911000D01*
X47474000Y-53570000D02*
X47474000Y-52461000D01*
X47914000Y-53570000D02*
X47914000Y-52228000D01*
X47754000Y-53570000D02*
X47754000Y-52300000D01*
X46354000Y-55128000D02*
X46354000Y-54092000D01*
X46754000Y-56053000D02*
X46754000Y-55650000D01*
X48515000Y-57160000D02*
X48515000Y-55650000D01*
X48475000Y-57153000D02*
X48475000Y-55650000D01*
X47314000Y-53570000D02*
X47314000Y-52575000D01*
X48515000Y-53570000D02*
X48515000Y-52060000D01*
X48635000Y-53570000D02*
X48635000Y-52045000D01*
X46714000Y-55993000D02*
X46714000Y-55650000D01*
X48475000Y-53570000D02*
X48475000Y-52067000D01*
X48154000Y-53570000D02*
X48154000Y-52142000D01*
X48074000Y-57052000D02*
X48074000Y-55650000D01*
X46634000Y-53570000D02*
X46634000Y-53359000D01*
X48315000Y-57121000D02*
X48315000Y-55650000D01*
X47994000Y-53570000D02*
X47994000Y-52196000D01*
X46674000Y-55929000D02*
X46674000Y-55650000D01*
X47434000Y-56732000D02*
X47434000Y-55650000D01*
X46994000Y-56353000D02*
X46994000Y-55650000D01*
X47274000Y-53570000D02*
X47274000Y-52606000D01*
X46754000Y-53570000D02*
X46754000Y-53167000D01*
X48275000Y-53570000D02*
X48275000Y-52109000D01*
X48835000Y-57189000D02*
X48835000Y-52031000D01*
X47594000Y-56834000D02*
X47594000Y-55650000D01*
X48355000Y-53570000D02*
X48355000Y-52090000D01*
X47554000Y-56810000D02*
X47554000Y-55650000D01*
X47354000Y-56675000D02*
X47354000Y-55650000D01*
X46834000Y-56164000D02*
X46834000Y-55650000D01*
X48675000Y-53570000D02*
X48675000Y-52041000D01*
X47074000Y-53570000D02*
X47074000Y-52784000D01*
X47394000Y-56705000D02*
X47394000Y-55650000D01*
X47234000Y-56581000D02*
X47234000Y-55650000D01*
X47474000Y-56759000D02*
X47474000Y-55650000D01*
X48114000Y-53570000D02*
X48114000Y-52155000D01*
X46794000Y-53570000D02*
X46794000Y-53110000D01*
X48595000Y-57171000D02*
X48595000Y-55650000D01*
X46474000Y-55525000D02*
X46474000Y-53695000D01*
X46674000Y-53570000D02*
X46674000Y-53291000D01*
X51719775Y-56085000D02*
X51219775Y-56085000D01*
X46394000Y-55287000D02*
X46394000Y-53933000D01*
X48675000Y-57179000D02*
X48675000Y-55650000D01*
X46634000Y-55861000D02*
X46634000Y-55650000D01*
X47634000Y-53570000D02*
X47634000Y-52363000D01*
X48074000Y-53570000D02*
X48074000Y-52168000D01*
X48635000Y-57175000D02*
X48635000Y-55650000D01*
X47194000Y-56547000D02*
X47194000Y-55650000D01*
X46594000Y-55788000D02*
X46594000Y-53432000D01*
X46434000Y-55415000D02*
X46434000Y-53805000D01*
X47874000Y-53570000D02*
X47874000Y-52245000D01*
X46514000Y-55621000D02*
X46514000Y-53599000D01*
X47794000Y-56939000D02*
X47794000Y-55650000D01*
X47354000Y-53570000D02*
X47354000Y-52545000D01*
X47514000Y-53570000D02*
X47514000Y-52435000D01*
X48355000Y-57130000D02*
X48355000Y-55650000D01*
X47274000Y-56614000D02*
X47274000Y-55650000D01*
X46994000Y-53570000D02*
X46994000Y-52867000D01*
X47514000Y-56785000D02*
X47514000Y-55650000D01*
X46954000Y-56309000D02*
X46954000Y-55650000D01*
X48235000Y-53570000D02*
X48235000Y-52119000D01*
X47674000Y-53570000D02*
X47674000Y-52342000D01*
X46874000Y-56215000D02*
X46874000Y-55650000D01*
X47234000Y-53570000D02*
X47234000Y-52639000D01*
X48114000Y-57065000D02*
X48114000Y-55650000D01*
X48315000Y-53570000D02*
X48315000Y-52099000D01*
X47834000Y-53570000D02*
X47834000Y-52262000D01*
X47914000Y-56992000D02*
X47914000Y-55650000D01*
X47034000Y-56395000D02*
X47034000Y-55650000D01*
X47634000Y-56857000D02*
X47634000Y-55650000D01*
X46874000Y-53570000D02*
X46874000Y-53005000D01*
X47834000Y-56958000D02*
X47834000Y-55650000D01*
X47754000Y-56920000D02*
X47754000Y-55650000D01*
X46914000Y-56263000D02*
X46914000Y-55650000D01*
X48755000Y-57186000D02*
X48755000Y-52034000D01*
X47874000Y-56975000D02*
X47874000Y-55650000D01*
X46834000Y-53570000D02*
X46834000Y-53056000D01*
X47674000Y-56878000D02*
X47674000Y-55650000D01*
X47954000Y-53570000D02*
X47954000Y-52212000D01*
X47154000Y-56511000D02*
X47154000Y-55650000D01*
X48395000Y-57138000D02*
X48395000Y-55650000D01*
X48395000Y-53570000D02*
X48395000Y-52082000D01*
X48034000Y-53570000D02*
X48034000Y-52182000D01*
X48915000Y-57190000D02*
X48915000Y-52030000D01*
X47994000Y-57024000D02*
X47994000Y-55650000D01*
X48435000Y-53570000D02*
X48435000Y-52074000D01*
X48715000Y-57183000D02*
X48715000Y-52037000D01*
X48595000Y-53570000D02*
X48595000Y-52049000D01*
X48194000Y-57090000D02*
X48194000Y-55650000D01*
X47034000Y-53570000D02*
X47034000Y-52825000D01*
X48795000Y-57188000D02*
X48795000Y-52032000D01*
X47194000Y-53570000D02*
X47194000Y-52673000D01*
X48034000Y-57038000D02*
X48034000Y-55650000D01*
X48194000Y-53570000D02*
X48194000Y-52130000D01*
X47434000Y-53570000D02*
X47434000Y-52488000D01*
X48875000Y-57190000D02*
X48875000Y-52030000D01*
X47714000Y-56900000D02*
X47714000Y-55650000D01*
X47594000Y-53570000D02*
X47594000Y-52386000D01*
X47114000Y-56474000D02*
X47114000Y-55650000D01*
X48555000Y-57166000D02*
X48555000Y-55650000D01*
X48235000Y-57101000D02*
X48235000Y-55650000D01*
X47394000Y-53570000D02*
X47394000Y-52515000D01*
X47114000Y-53570000D02*
X47114000Y-52746000D01*
X47954000Y-57008000D02*
X47954000Y-55650000D01*
X47314000Y-56645000D02*
X47314000Y-55650000D01*
X47554000Y-53570000D02*
X47554000Y-52410000D01*
X48555000Y-53570000D02*
X48555000Y-52054000D01*
X47074000Y-56436000D02*
X47074000Y-55650000D01*
X46914000Y-53570000D02*
X46914000Y-52957000D01*
X46794000Y-56110000D02*
X46794000Y-55650000D01*
X48154000Y-57078000D02*
X48154000Y-55650000D01*
X51535000Y-54610000D02*
G75*
G03*
X51535000Y-54610000I-2620000J0D01*
G01*
X50716000Y-59769000D02*
X50716000Y-60555000D01*
X51436000Y-61077000D02*
X51436000Y-62113000D01*
X50276000Y-62635000D02*
X50276000Y-63770000D01*
X49996000Y-59266000D02*
X49996000Y-60555000D01*
X49716000Y-62635000D02*
X49716000Y-64037000D01*
X50796000Y-59852000D02*
X50796000Y-60555000D01*
X51036000Y-62635000D02*
X51036000Y-63038000D01*
X49796000Y-59181000D02*
X49796000Y-60555000D01*
X51076000Y-60212000D02*
X51076000Y-60555000D01*
X50036000Y-62635000D02*
X50036000Y-63905000D01*
X49956000Y-59247000D02*
X49956000Y-60555000D01*
X50596000Y-59658000D02*
X50596000Y-60555000D01*
X48995000Y-59017000D02*
X48995000Y-64173000D01*
X49395000Y-59067000D02*
X49395000Y-60555000D01*
X48875000Y-59015000D02*
X48875000Y-64175000D01*
X49836000Y-62635000D02*
X49836000Y-63993000D01*
X51396000Y-60918000D02*
X51396000Y-62272000D01*
X49115000Y-62635000D02*
X49115000Y-64164000D01*
X50916000Y-62635000D02*
X50916000Y-63200000D01*
X50796000Y-62635000D02*
X50796000Y-63338000D01*
X51276000Y-60584000D02*
X51276000Y-62606000D01*
X50996000Y-60095000D02*
X50996000Y-60555000D01*
X50436000Y-62635000D02*
X50436000Y-63660000D01*
X49796000Y-62635000D02*
X49796000Y-64009000D01*
X49395000Y-62635000D02*
X49395000Y-64123000D01*
X49075000Y-59022000D02*
X49075000Y-64168000D01*
X49916000Y-62635000D02*
X49916000Y-63960000D01*
X49515000Y-59094000D02*
X49515000Y-60555000D01*
X50076000Y-62635000D02*
X50076000Y-63885000D01*
X50916000Y-59990000D02*
X50916000Y-60555000D01*
X50956000Y-62635000D02*
X50956000Y-63149000D01*
X49676000Y-59140000D02*
X49676000Y-60555000D01*
X50116000Y-59327000D02*
X50116000Y-60555000D01*
X49355000Y-59059000D02*
X49355000Y-60555000D01*
X50636000Y-59694000D02*
X50636000Y-60555000D01*
X49756000Y-62635000D02*
X49756000Y-64023000D01*
X48955000Y-59016000D02*
X48955000Y-64174000D01*
X50196000Y-62635000D02*
X50196000Y-63819000D01*
X50196000Y-59371000D02*
X50196000Y-60555000D01*
X50236000Y-62635000D02*
X50236000Y-63795000D01*
X50836000Y-59896000D02*
X50836000Y-60555000D01*
X51316000Y-60680000D02*
X51316000Y-62510000D01*
X49596000Y-62635000D02*
X49596000Y-64075000D01*
X50396000Y-62635000D02*
X50396000Y-63690000D01*
X50236000Y-59395000D02*
X50236000Y-60555000D01*
X49275000Y-59045000D02*
X49275000Y-60555000D01*
X49235000Y-62635000D02*
X49235000Y-64151000D01*
X50356000Y-62635000D02*
X50356000Y-63717000D01*
X50076000Y-59305000D02*
X50076000Y-60555000D01*
X49676000Y-62635000D02*
X49676000Y-64050000D01*
X49636000Y-59127000D02*
X49636000Y-60555000D01*
X50516000Y-59591000D02*
X50516000Y-60555000D01*
X51236000Y-60497000D02*
X51236000Y-62693000D01*
X50876000Y-59942000D02*
X50876000Y-60555000D01*
X51156000Y-62635000D02*
X51156000Y-62846000D01*
X50396000Y-59500000D02*
X50396000Y-60555000D01*
X49876000Y-59213000D02*
X49876000Y-60555000D01*
X49555000Y-62635000D02*
X49555000Y-64086000D01*
X49435000Y-62635000D02*
X49435000Y-64115000D01*
X49115000Y-59026000D02*
X49115000Y-60555000D01*
X50676000Y-62635000D02*
X50676000Y-63459000D01*
X50556000Y-59624000D02*
X50556000Y-60555000D01*
X51156000Y-60344000D02*
X51156000Y-60555000D01*
X50636000Y-62635000D02*
X50636000Y-63496000D01*
X49515000Y-62635000D02*
X49515000Y-64096000D01*
X49435000Y-59075000D02*
X49435000Y-60555000D01*
X48915000Y-59015000D02*
X48915000Y-64175000D01*
X50116000Y-62635000D02*
X50116000Y-63863000D01*
X49876000Y-62635000D02*
X49876000Y-63977000D01*
X50156000Y-59348000D02*
X50156000Y-60555000D01*
X49195000Y-62635000D02*
X49195000Y-64156000D01*
X50716000Y-62635000D02*
X50716000Y-63421000D01*
X50876000Y-62635000D02*
X50876000Y-63248000D01*
X50156000Y-62635000D02*
X50156000Y-63842000D01*
X49195000Y-59034000D02*
X49195000Y-60555000D01*
X50676000Y-59731000D02*
X50676000Y-60555000D01*
X49916000Y-59230000D02*
X49916000Y-60555000D01*
X49315000Y-59052000D02*
X49315000Y-60555000D01*
X50276000Y-59420000D02*
X50276000Y-60555000D01*
X50436000Y-59530000D02*
X50436000Y-60555000D01*
X46070225Y-60120000D02*
X46570225Y-60120000D01*
X51356000Y-60790000D02*
X51356000Y-62400000D01*
X49996000Y-62635000D02*
X49996000Y-63924000D01*
X51476000Y-61311000D02*
X51476000Y-61879000D01*
X49716000Y-59153000D02*
X49716000Y-60555000D01*
X50956000Y-60041000D02*
X50956000Y-60555000D01*
X49636000Y-62635000D02*
X49636000Y-64063000D01*
X50316000Y-59446000D02*
X50316000Y-60555000D01*
X51076000Y-62635000D02*
X51076000Y-62978000D01*
X49315000Y-62635000D02*
X49315000Y-64138000D01*
X49035000Y-59019000D02*
X49035000Y-64171000D01*
X50476000Y-59560000D02*
X50476000Y-60555000D01*
X51116000Y-60276000D02*
X51116000Y-60555000D01*
X51036000Y-60152000D02*
X51036000Y-60555000D01*
X50036000Y-59285000D02*
X50036000Y-60555000D01*
X50836000Y-62635000D02*
X50836000Y-63294000D01*
X46320225Y-59870000D02*
X46320225Y-60370000D01*
X50756000Y-59810000D02*
X50756000Y-60555000D01*
X50596000Y-62635000D02*
X50596000Y-63532000D01*
X50996000Y-62635000D02*
X50996000Y-63095000D01*
X49596000Y-59115000D02*
X49596000Y-60555000D01*
X49836000Y-59197000D02*
X49836000Y-60555000D01*
X50516000Y-62635000D02*
X50516000Y-63599000D01*
X49555000Y-59104000D02*
X49555000Y-60555000D01*
X49475000Y-62635000D02*
X49475000Y-64106000D01*
X50316000Y-62635000D02*
X50316000Y-63744000D01*
X51116000Y-62635000D02*
X51116000Y-62914000D01*
X50356000Y-59473000D02*
X50356000Y-60555000D01*
X49756000Y-59167000D02*
X49756000Y-60555000D01*
X49235000Y-59039000D02*
X49235000Y-60555000D01*
X49155000Y-62635000D02*
X49155000Y-64160000D01*
X49475000Y-59084000D02*
X49475000Y-60555000D01*
X50756000Y-62635000D02*
X50756000Y-63380000D01*
X49956000Y-62635000D02*
X49956000Y-63943000D01*
X51196000Y-60417000D02*
X51196000Y-62773000D01*
X49355000Y-62635000D02*
X49355000Y-64131000D01*
X49275000Y-62635000D02*
X49275000Y-64145000D01*
X49155000Y-59030000D02*
X49155000Y-60555000D01*
X50476000Y-62635000D02*
X50476000Y-63630000D01*
X50556000Y-62635000D02*
X50556000Y-63566000D01*
X51495000Y-61595000D02*
G75*
G03*
X51495000Y-61595000I-2620000J0D01*
G01*
X27946000Y-64102500D02*
X29204000Y-64102500D01*
X27946000Y-62262500D02*
X29204000Y-62262500D01*
X29831000Y-25750000D02*
X31089000Y-25750000D01*
X29831000Y-27590000D02*
X31089000Y-27590000D01*
X27020000Y-15861000D02*
X27020000Y-17119000D01*
X28860000Y-15861000D02*
X28860000Y-17119000D01*
X55894000Y-38450000D02*
X54636000Y-38450000D01*
X55894000Y-40290000D02*
X54636000Y-40290000D01*
X16860000Y-22239000D02*
X16860000Y-20981000D01*
X18700000Y-22239000D02*
X18700000Y-20981000D01*
X18700000Y-15861000D02*
X18700000Y-17119000D01*
X16860000Y-15861000D02*
X16860000Y-17119000D01*
X50155000Y-21210000D02*
X51665000Y-21210000D01*
X53745000Y-21170000D02*
X55248000Y-21170000D01*
X50140000Y-21330000D02*
X51665000Y-21330000D01*
X53745000Y-20930000D02*
X55196000Y-20930000D01*
X50505000Y-20249000D02*
X51665000Y-20249000D01*
X50194000Y-21010000D02*
X51665000Y-21010000D01*
X50323000Y-20609000D02*
X51665000Y-20609000D01*
X50144000Y-21290000D02*
X51665000Y-21290000D01*
X50125000Y-21570000D02*
X55285000Y-21570000D01*
X50481000Y-20289000D02*
X51665000Y-20289000D01*
X51386000Y-19369000D02*
X51665000Y-19369000D01*
X50132000Y-21410000D02*
X55278000Y-21410000D01*
X53745000Y-20049000D02*
X54770000Y-20049000D01*
X50841000Y-19809000D02*
X51665000Y-19809000D01*
X50250000Y-20809000D02*
X51665000Y-20809000D01*
X52028000Y-19089000D02*
X53382000Y-19089000D01*
X53745000Y-20289000D02*
X54929000Y-20289000D01*
X53745000Y-20369000D02*
X54973000Y-20369000D01*
X50768000Y-19889000D02*
X51665000Y-19889000D01*
X53745000Y-20569000D02*
X55070000Y-20569000D01*
X53745000Y-19409000D02*
X54088000Y-19409000D01*
X53745000Y-19369000D02*
X54024000Y-19369000D01*
X51205000Y-19489000D02*
X51665000Y-19489000D01*
X53745000Y-21010000D02*
X55216000Y-21010000D01*
X50583000Y-20129000D02*
X51665000Y-20129000D01*
X51151000Y-19529000D02*
X51665000Y-19529000D01*
X50127000Y-21490000D02*
X55283000Y-21490000D01*
X50357000Y-20529000D02*
X51665000Y-20529000D01*
X53745000Y-20970000D02*
X55206000Y-20970000D01*
X53745000Y-20209000D02*
X54880000Y-20209000D01*
X53745000Y-19769000D02*
X54531000Y-19769000D01*
X50277000Y-20729000D02*
X51665000Y-20729000D01*
X53745000Y-19729000D02*
X54490000Y-19729000D01*
X51230000Y-24414775D02*
X51230000Y-23914775D01*
X53745000Y-21090000D02*
X55233000Y-21090000D01*
X50395000Y-20449000D02*
X51665000Y-20449000D01*
X50225000Y-20889000D02*
X51665000Y-20889000D01*
X50263000Y-20769000D02*
X51665000Y-20769000D01*
X53745000Y-19929000D02*
X54676000Y-19929000D01*
X50670000Y-20009000D02*
X51665000Y-20009000D01*
X51790000Y-19169000D02*
X53620000Y-19169000D01*
X51454000Y-19329000D02*
X51665000Y-19329000D01*
X50204000Y-20970000D02*
X51665000Y-20970000D01*
X53745000Y-20649000D02*
X55103000Y-20649000D01*
X53745000Y-19649000D02*
X54404000Y-19649000D01*
X50214000Y-20930000D02*
X51665000Y-20930000D01*
X50169000Y-21130000D02*
X51665000Y-21130000D01*
X53745000Y-19689000D02*
X54448000Y-19689000D01*
X53745000Y-21370000D02*
X55274000Y-21370000D01*
X52187000Y-19049000D02*
X53223000Y-19049000D01*
X50126000Y-21530000D02*
X55284000Y-21530000D01*
X50125000Y-21610000D02*
X55285000Y-21610000D01*
X50962000Y-19689000D02*
X51665000Y-19689000D01*
X50879000Y-19769000D02*
X51665000Y-19769000D01*
X53745000Y-20609000D02*
X55087000Y-20609000D01*
X50162000Y-21170000D02*
X51665000Y-21170000D01*
X53745000Y-19809000D02*
X54569000Y-19809000D01*
X50734000Y-19929000D02*
X51665000Y-19929000D01*
X53745000Y-20009000D02*
X54740000Y-20009000D01*
X53745000Y-20249000D02*
X54905000Y-20249000D01*
X53745000Y-19529000D02*
X54259000Y-19529000D01*
X53745000Y-20769000D02*
X55147000Y-20769000D01*
X51900000Y-19129000D02*
X53510000Y-19129000D01*
X50415000Y-20409000D02*
X51665000Y-20409000D01*
X53745000Y-21330000D02*
X55270000Y-21330000D01*
X53745000Y-20729000D02*
X55133000Y-20729000D01*
X53745000Y-20529000D02*
X55053000Y-20529000D01*
X53745000Y-19449000D02*
X54148000Y-19449000D01*
X50530000Y-20209000D02*
X51665000Y-20209000D01*
X51694000Y-19209000D02*
X53716000Y-19209000D01*
X50980000Y-24164775D02*
X51480000Y-24164775D01*
X53745000Y-21290000D02*
X55266000Y-21290000D01*
X50701000Y-19969000D02*
X51665000Y-19969000D01*
X51052000Y-19609000D02*
X51665000Y-19609000D01*
X53745000Y-19969000D02*
X54709000Y-19969000D01*
X53745000Y-19329000D02*
X53956000Y-19329000D01*
X51006000Y-19649000D02*
X51665000Y-19649000D01*
X50920000Y-19729000D02*
X51665000Y-19729000D01*
X53745000Y-20809000D02*
X55160000Y-20809000D01*
X50291000Y-20689000D02*
X51665000Y-20689000D01*
X53745000Y-20689000D02*
X55119000Y-20689000D01*
X53745000Y-19889000D02*
X54642000Y-19889000D01*
X53745000Y-20129000D02*
X54827000Y-20129000D01*
X50340000Y-20569000D02*
X51665000Y-20569000D01*
X52421000Y-19009000D02*
X52989000Y-19009000D01*
X50458000Y-20329000D02*
X51665000Y-20329000D01*
X51100000Y-19569000D02*
X51665000Y-19569000D01*
X53745000Y-19569000D02*
X54310000Y-19569000D01*
X50376000Y-20489000D02*
X51665000Y-20489000D01*
X50129000Y-21450000D02*
X55281000Y-21450000D01*
X50804000Y-19849000D02*
X51665000Y-19849000D01*
X50556000Y-20169000D02*
X51665000Y-20169000D01*
X50185000Y-21050000D02*
X51665000Y-21050000D01*
X50177000Y-21090000D02*
X51665000Y-21090000D01*
X53745000Y-21130000D02*
X55241000Y-21130000D01*
X50640000Y-20049000D02*
X51665000Y-20049000D01*
X53745000Y-21210000D02*
X55255000Y-21210000D01*
X53745000Y-19609000D02*
X54358000Y-19609000D01*
X53745000Y-20449000D02*
X55015000Y-20449000D01*
X50610000Y-20089000D02*
X51665000Y-20089000D01*
X53745000Y-21250000D02*
X55261000Y-21250000D01*
X53745000Y-20089000D02*
X54800000Y-20089000D01*
X53745000Y-21050000D02*
X55225000Y-21050000D01*
X51322000Y-19409000D02*
X51665000Y-19409000D01*
X50307000Y-20649000D02*
X51665000Y-20649000D01*
X50136000Y-21370000D02*
X51665000Y-21370000D01*
X53745000Y-19489000D02*
X54205000Y-19489000D01*
X50149000Y-21250000D02*
X51665000Y-21250000D01*
X53745000Y-20409000D02*
X54995000Y-20409000D01*
X53745000Y-20489000D02*
X55034000Y-20489000D01*
X53745000Y-19849000D02*
X54606000Y-19849000D01*
X53745000Y-20169000D02*
X54854000Y-20169000D01*
X50237000Y-20849000D02*
X51665000Y-20849000D01*
X50437000Y-20369000D02*
X51665000Y-20369000D01*
X53745000Y-20849000D02*
X55173000Y-20849000D01*
X53745000Y-20889000D02*
X55185000Y-20889000D01*
X53745000Y-20329000D02*
X54952000Y-20329000D01*
X51607000Y-19249000D02*
X53803000Y-19249000D01*
X51262000Y-19449000D02*
X51665000Y-19449000D01*
X51527000Y-19289000D02*
X53883000Y-19289000D01*
X55325000Y-21610000D02*
G75*
G03*
X55325000Y-21610000I-2620000J0D01*
G01*
X59484000Y-64488500D02*
X58825000Y-64488500D01*
X56745000Y-63087500D02*
X55265000Y-63087500D01*
X59168000Y-64728500D02*
X58825000Y-64728500D01*
X58069000Y-65128500D02*
X57501000Y-65128500D01*
X59104000Y-64768500D02*
X58825000Y-64768500D01*
X56745000Y-64328500D02*
X55921000Y-64328500D01*
X56745000Y-63608500D02*
X55437000Y-63608500D01*
X60305000Y-63087500D02*
X58825000Y-63087500D01*
X59260000Y-59722725D02*
X59260000Y-60222725D01*
X56745000Y-64008500D02*
X55663000Y-64008500D01*
X56745000Y-64688500D02*
X56342000Y-64688500D01*
X56745000Y-64768500D02*
X56466000Y-64768500D01*
X56745000Y-62767500D02*
X55216000Y-62767500D01*
X60032000Y-63808500D02*
X58825000Y-63808500D01*
X56745000Y-64728500D02*
X56402000Y-64728500D01*
X60150000Y-63568500D02*
X58825000Y-63568500D01*
X56745000Y-63808500D02*
X55538000Y-63808500D01*
X60341000Y-62887500D02*
X58825000Y-62887500D01*
X56745000Y-63728500D02*
X55495000Y-63728500D01*
X60361000Y-62687500D02*
X55209000Y-62687500D01*
X60114000Y-63648500D02*
X58825000Y-63648500D01*
X56745000Y-63368500D02*
X55343000Y-63368500D01*
X60095000Y-63688500D02*
X58825000Y-63688500D01*
X56745000Y-63007500D02*
X55249000Y-63007500D01*
X59820000Y-64128500D02*
X58825000Y-64128500D01*
X56745000Y-64808500D02*
X56534000Y-64808500D01*
X56745000Y-64248500D02*
X55848000Y-64248500D01*
X60350000Y-62807500D02*
X58825000Y-62807500D01*
X58462000Y-65048500D02*
X57108000Y-65048500D01*
X60354000Y-62767500D02*
X58825000Y-62767500D01*
X59611000Y-64368500D02*
X58825000Y-64368500D01*
X59850000Y-64088500D02*
X58825000Y-64088500D01*
X60296000Y-63127500D02*
X58825000Y-63127500D01*
X56745000Y-63848500D02*
X55561000Y-63848500D01*
X59722000Y-64248500D02*
X58825000Y-64248500D01*
X60213000Y-63408500D02*
X58825000Y-63408500D01*
X56745000Y-64208500D02*
X55814000Y-64208500D01*
X56745000Y-63448500D02*
X55371000Y-63448500D01*
X59438000Y-64528500D02*
X58825000Y-64528500D01*
X59907000Y-64008500D02*
X58825000Y-64008500D01*
X60167000Y-63528500D02*
X58825000Y-63528500D01*
X59789000Y-64168500D02*
X58825000Y-64168500D01*
X60321000Y-63007500D02*
X58825000Y-63007500D01*
X56745000Y-63528500D02*
X55403000Y-63528500D01*
X60365000Y-62527500D02*
X55205000Y-62527500D01*
X60313000Y-63047500D02*
X58825000Y-63047500D01*
X56745000Y-64088500D02*
X55720000Y-64088500D01*
X60364000Y-62607500D02*
X55206000Y-62607500D01*
X56745000Y-63888500D02*
X55585000Y-63888500D01*
X60265000Y-63248500D02*
X58825000Y-63248500D01*
X56745000Y-64448500D02*
X56042000Y-64448500D01*
X56745000Y-64568500D02*
X56180000Y-64568500D01*
X60328000Y-62967500D02*
X58825000Y-62967500D01*
X60365000Y-62567500D02*
X55205000Y-62567500D01*
X60286000Y-63167500D02*
X58825000Y-63167500D01*
X56745000Y-64408500D02*
X56000000Y-64408500D01*
X58590000Y-65008500D02*
X56980000Y-65008500D01*
X56745000Y-63688500D02*
X55475000Y-63688500D01*
X60199000Y-63448500D02*
X58825000Y-63448500D01*
X56745000Y-63928500D02*
X55610000Y-63928500D01*
X56745000Y-63167500D02*
X55284000Y-63167500D01*
X60009000Y-63848500D02*
X58825000Y-63848500D01*
X56745000Y-64048500D02*
X55690000Y-64048500D01*
X56745000Y-63488500D02*
X55387000Y-63488500D01*
X59880000Y-64048500D02*
X58825000Y-64048500D01*
X59686000Y-64288500D02*
X58825000Y-64288500D01*
X60227000Y-63368500D02*
X58825000Y-63368500D01*
X60276000Y-63207500D02*
X58825000Y-63207500D01*
X56745000Y-62887500D02*
X55229000Y-62887500D01*
X56745000Y-64648500D02*
X56285000Y-64648500D01*
X60183000Y-63488500D02*
X58825000Y-63488500D01*
X56745000Y-62967500D02*
X55242000Y-62967500D01*
X59036000Y-64808500D02*
X58825000Y-64808500D01*
X59285000Y-64648500D02*
X58825000Y-64648500D01*
X58963000Y-64848500D02*
X56607000Y-64848500D01*
X56745000Y-63408500D02*
X55357000Y-63408500D01*
X56745000Y-63328500D02*
X55330000Y-63328500D01*
X56745000Y-64168500D02*
X55781000Y-64168500D01*
X59390000Y-64568500D02*
X58825000Y-64568500D01*
X59985000Y-63888500D02*
X58825000Y-63888500D01*
X59528000Y-64448500D02*
X58825000Y-64448500D01*
X59570000Y-64408500D02*
X58825000Y-64408500D01*
X60133000Y-63608500D02*
X58825000Y-63608500D01*
X60075000Y-63728500D02*
X58825000Y-63728500D01*
X56745000Y-62927500D02*
X55235000Y-62927500D01*
X56745000Y-63288500D02*
X55317000Y-63288500D01*
X60053000Y-63768500D02*
X58825000Y-63768500D01*
X58303000Y-65088500D02*
X57267000Y-65088500D01*
X58883000Y-64888500D02*
X56687000Y-64888500D01*
X56745000Y-63968500D02*
X55636000Y-63968500D01*
X60363000Y-62647500D02*
X55207000Y-62647500D01*
X56745000Y-64528500D02*
X56132000Y-64528500D01*
X56745000Y-64288500D02*
X55884000Y-64288500D01*
X60358000Y-62727500D02*
X55212000Y-62727500D01*
X59228000Y-64688500D02*
X58825000Y-64688500D01*
X60240000Y-63328500D02*
X58825000Y-63328500D01*
X59649000Y-64328500D02*
X58825000Y-64328500D01*
X60346000Y-62847500D02*
X58825000Y-62847500D01*
X56745000Y-63047500D02*
X55257000Y-63047500D01*
X59934000Y-63968500D02*
X58825000Y-63968500D01*
X56745000Y-64608500D02*
X56231000Y-64608500D01*
X59339000Y-64608500D02*
X58825000Y-64608500D01*
X56745000Y-63127500D02*
X55274000Y-63127500D01*
X56745000Y-64128500D02*
X55750000Y-64128500D01*
X56745000Y-63648500D02*
X55456000Y-63648500D01*
X58700000Y-64968500D02*
X56870000Y-64968500D01*
X56745000Y-64368500D02*
X55959000Y-64368500D01*
X56745000Y-64488500D02*
X56086000Y-64488500D01*
X56745000Y-62807500D02*
X55220000Y-62807500D01*
X56745000Y-62847500D02*
X55224000Y-62847500D01*
X59756000Y-64208500D02*
X58825000Y-64208500D01*
X56745000Y-63207500D02*
X55294000Y-63207500D01*
X56745000Y-63768500D02*
X55517000Y-63768500D01*
X60335000Y-62927500D02*
X58825000Y-62927500D01*
X60253000Y-63288500D02*
X58825000Y-63288500D01*
X56745000Y-63568500D02*
X55420000Y-63568500D01*
X56745000Y-63248500D02*
X55305000Y-63248500D01*
X58796000Y-64928500D02*
X56774000Y-64928500D01*
X59510000Y-59972725D02*
X59010000Y-59972725D01*
X59960000Y-63928500D02*
X58825000Y-63928500D01*
X60405000Y-62527500D02*
G75*
G03*
X60405000Y-62527500I-2620000J0D01*
G01*
X55517000Y-55611500D02*
X56745000Y-55611500D01*
X55216000Y-56612500D02*
X56745000Y-56612500D01*
X58825000Y-56372500D02*
X60321000Y-56372500D01*
X58825000Y-55411500D02*
X59934000Y-55411500D01*
X55242000Y-56412500D02*
X56745000Y-56412500D01*
X58825000Y-55571500D02*
X60032000Y-55571500D01*
X55371000Y-55931500D02*
X56745000Y-55931500D01*
X58825000Y-56212500D02*
X60286000Y-56212500D01*
X58825000Y-54571500D02*
X59036000Y-54571500D01*
X55317000Y-56091500D02*
X56745000Y-56091500D01*
X55235000Y-56452500D02*
X56745000Y-56452500D01*
X58825000Y-56492500D02*
X60341000Y-56492500D01*
X58825000Y-55171500D02*
X59756000Y-55171500D01*
X56342000Y-54691500D02*
X56745000Y-54691500D01*
X55437000Y-55771500D02*
X56745000Y-55771500D01*
X56285000Y-54731500D02*
X56745000Y-54731500D01*
X56774000Y-54451500D02*
X58796000Y-54451500D01*
X55305000Y-56131500D02*
X56745000Y-56131500D01*
X58825000Y-56572500D02*
X60350000Y-56572500D01*
X55884000Y-55091500D02*
X56745000Y-55091500D01*
X55343000Y-56011500D02*
X56745000Y-56011500D01*
X55205000Y-56812500D02*
X60365000Y-56812500D01*
X58825000Y-56412500D02*
X60328000Y-56412500D01*
X55585000Y-55491500D02*
X56745000Y-55491500D01*
X55475000Y-55691500D02*
X56745000Y-55691500D01*
X56607000Y-54531500D02*
X58963000Y-54531500D01*
X55212000Y-56652500D02*
X60358000Y-56652500D01*
X58825000Y-55691500D02*
X60095000Y-55691500D01*
X58825000Y-55291500D02*
X59850000Y-55291500D01*
X58825000Y-55091500D02*
X59686000Y-55091500D01*
X56132000Y-54851500D02*
X56745000Y-54851500D01*
X55403000Y-55851500D02*
X56745000Y-55851500D01*
X55538000Y-55571500D02*
X56745000Y-55571500D01*
X58825000Y-54771500D02*
X59339000Y-54771500D01*
X56466000Y-54611500D02*
X56745000Y-54611500D01*
X55495000Y-55651500D02*
X56745000Y-55651500D01*
X58825000Y-55891500D02*
X60183000Y-55891500D01*
X58825000Y-55211500D02*
X59789000Y-55211500D01*
X57108000Y-54331500D02*
X58462000Y-54331500D01*
X55249000Y-56372500D02*
X56745000Y-56372500D01*
X56042000Y-54931500D02*
X56745000Y-54931500D01*
X58825000Y-56532500D02*
X60346000Y-56532500D01*
X55720000Y-55291500D02*
X56745000Y-55291500D01*
X58825000Y-56131500D02*
X60265000Y-56131500D01*
X55420000Y-55811500D02*
X56745000Y-55811500D01*
X58825000Y-55731500D02*
X60114000Y-55731500D01*
X58825000Y-56612500D02*
X60354000Y-56612500D01*
X56980000Y-54371500D02*
X58590000Y-54371500D01*
X55610000Y-55451500D02*
X56745000Y-55451500D01*
X58825000Y-55491500D02*
X59985000Y-55491500D01*
X56687000Y-54491500D02*
X58883000Y-54491500D01*
X58825000Y-55611500D02*
X60053000Y-55611500D01*
X58825000Y-55131500D02*
X59722000Y-55131500D01*
X58825000Y-54971500D02*
X59570000Y-54971500D01*
X57501000Y-54251500D02*
X58069000Y-54251500D01*
X55265000Y-56292500D02*
X56745000Y-56292500D01*
X58825000Y-56332500D02*
X60313000Y-56332500D01*
X58825000Y-55811500D02*
X60150000Y-55811500D01*
X58825000Y-55931500D02*
X60199000Y-55931500D01*
X58825000Y-55051500D02*
X59649000Y-55051500D01*
X55209000Y-56692500D02*
X60361000Y-56692500D01*
X56000000Y-54971500D02*
X56745000Y-54971500D01*
X58825000Y-55531500D02*
X60009000Y-55531500D01*
X57267000Y-54291500D02*
X58303000Y-54291500D01*
X56086000Y-54891500D02*
X56745000Y-54891500D01*
X55663000Y-55371500D02*
X56745000Y-55371500D01*
X55959000Y-55011500D02*
X56745000Y-55011500D01*
X58825000Y-55851500D02*
X60167000Y-55851500D01*
X55294000Y-56172500D02*
X56745000Y-56172500D01*
X55848000Y-55131500D02*
X56745000Y-55131500D01*
X55921000Y-55051500D02*
X56745000Y-55051500D01*
X55456000Y-55731500D02*
X56745000Y-55731500D01*
X56402000Y-54651500D02*
X56745000Y-54651500D01*
X55561000Y-55531500D02*
X56745000Y-55531500D01*
X58825000Y-56051500D02*
X60240000Y-56051500D01*
X55224000Y-56532500D02*
X56745000Y-56532500D01*
X58825000Y-55651500D02*
X60075000Y-55651500D01*
X55206000Y-56772500D02*
X60364000Y-56772500D01*
X55636000Y-55411500D02*
X56745000Y-55411500D01*
X55357000Y-55971500D02*
X56745000Y-55971500D01*
X55257000Y-56332500D02*
X56745000Y-56332500D01*
X58825000Y-54811500D02*
X59390000Y-54811500D01*
X58825000Y-55011500D02*
X59611000Y-55011500D01*
X58825000Y-54931500D02*
X59528000Y-54931500D01*
X58825000Y-54851500D02*
X59438000Y-54851500D01*
X58825000Y-55371500D02*
X59907000Y-55371500D01*
X58825000Y-56011500D02*
X60227000Y-56011500D01*
X55220000Y-56572500D02*
X56745000Y-56572500D01*
X58825000Y-55451500D02*
X59960000Y-55451500D01*
X58825000Y-54651500D02*
X59168000Y-54651500D01*
X58825000Y-56452500D02*
X60335000Y-56452500D01*
X55690000Y-55331500D02*
X56745000Y-55331500D01*
X56231000Y-54771500D02*
X56745000Y-54771500D01*
X55274000Y-56252500D02*
X56745000Y-56252500D01*
X58825000Y-54891500D02*
X59484000Y-54891500D01*
X58825000Y-55971500D02*
X60213000Y-55971500D01*
X55207000Y-56732500D02*
X60363000Y-56732500D01*
X58825000Y-56091500D02*
X60253000Y-56091500D01*
X56534000Y-54571500D02*
X56745000Y-54571500D01*
X55229000Y-56492500D02*
X56745000Y-56492500D01*
X58825000Y-56292500D02*
X60305000Y-56292500D01*
X56310000Y-59657275D02*
X56310000Y-59157275D01*
X58825000Y-55251500D02*
X59820000Y-55251500D01*
X58825000Y-56252500D02*
X60296000Y-56252500D01*
X58825000Y-55771500D02*
X60133000Y-55771500D01*
X58825000Y-56172500D02*
X60276000Y-56172500D01*
X55781000Y-55211500D02*
X56745000Y-55211500D01*
X58825000Y-54611500D02*
X59104000Y-54611500D01*
X55814000Y-55171500D02*
X56745000Y-55171500D01*
X55330000Y-56051500D02*
X56745000Y-56051500D01*
X55750000Y-55251500D02*
X56745000Y-55251500D01*
X55205000Y-56852500D02*
X60365000Y-56852500D01*
X56180000Y-54811500D02*
X56745000Y-54811500D01*
X56870000Y-54411500D02*
X58700000Y-54411500D01*
X58825000Y-55331500D02*
X59880000Y-55331500D01*
X55284000Y-56212500D02*
X56745000Y-56212500D01*
X58825000Y-54691500D02*
X59228000Y-54691500D01*
X58825000Y-54731500D02*
X59285000Y-54731500D01*
X55387000Y-55891500D02*
X56745000Y-55891500D01*
X56060000Y-59407275D02*
X56560000Y-59407275D01*
X60405000Y-56852500D02*
G75*
G03*
X60405000Y-56852500I-2620000J0D01*
G01*
X26370000Y-22860000D02*
X26990000Y-22860000D01*
X26370000Y-22860000D02*
G75*
G03*
X26370000Y-22860000I-920000J0D01*
G01*
X26970000Y-20310000D02*
X26350000Y-20310000D01*
X28810000Y-20310000D02*
G75*
G03*
X28810000Y-20310000I-920000J0D01*
G01*
X55595000Y-66040000D02*
X54975000Y-66040000D01*
X57435000Y-66040000D02*
G75*
G03*
X57435000Y-66040000I-920000J0D01*
G01*
X18940000Y-62290000D02*
X24240000Y-62290000D01*
X24240000Y-62290000D02*
X24240000Y-26610000D01*
X20590000Y-26610000D02*
X18940000Y-26610000D01*
X24240000Y-26610000D02*
X22590000Y-26610000D01*
X18940000Y-26610000D02*
X18940000Y-62290000D01*
X20590000Y-26610000D02*
G75*
G03*
X22590000Y-26610000I1000000J0D01*
G01*
X43290000Y-29150000D02*
X37830000Y-29150000D01*
X30370000Y-29150000D02*
X30370000Y-59750000D01*
X43290000Y-59750000D02*
X43290000Y-29150000D01*
X35830000Y-29150000D02*
X30370000Y-29150000D01*
X30370000Y-59750000D02*
X43290000Y-59750000D01*
X35830000Y-29150000D02*
G75*
G03*
X37830000Y-29150000I1000000J0D01*
G01*
X48320000Y-16400000D02*
X30420000Y-16400000D01*
X30420000Y-20050000D02*
X30420000Y-21700000D01*
X48320000Y-21700000D02*
X48320000Y-16400000D01*
X30420000Y-21700000D02*
X48320000Y-21700000D01*
X30420000Y-16400000D02*
X30420000Y-18050000D01*
X30420000Y-20050000D02*
G75*
G03*
X30420000Y-18050000I0J1000000D01*
G01*
X55355000Y-26610000D02*
X50055000Y-26610000D01*
X53705000Y-36890000D02*
X55355000Y-36890000D01*
X50055000Y-36890000D02*
X51705000Y-36890000D01*
X50055000Y-26610000D02*
X50055000Y-36890000D01*
X55355000Y-36890000D02*
X55355000Y-26610000D01*
X53705000Y-36890000D02*
G75*
G03*
X51705000Y-36890000I-1000000J0D01*
G01*
X47565000Y-46720000D02*
X47565000Y-48370000D01*
X47565000Y-48370000D02*
X57845000Y-48370000D01*
X47565000Y-43070000D02*
X47565000Y-44720000D01*
X57845000Y-43070000D02*
X47565000Y-43070000D01*
X57845000Y-48370000D02*
X57845000Y-43070000D01*
X47565000Y-46720000D02*
G75*
G03*
X47565000Y-44720000I0J1000000D01*
G01*
X19065000Y-22275000D02*
X19065000Y-16025000D01*
X24115000Y-22275000D02*
X24115000Y-16025000D01*
X24115000Y-16025000D02*
G75*
G03*
X19065000Y-16025000I-2525000J0D01*
G01*
X19065000Y-22275000D02*
G75*
G03*
X24115000Y-22275000I2525000J0D01*
G01*
X27305000Y-67595000D02*
X27305000Y-68215000D01*
X28225000Y-66675000D02*
G75*
G03*
X28225000Y-66675000I-920000J0D01*
G01*
X53340000Y-59990000D02*
X53340000Y-59370000D01*
X54260000Y-60910000D02*
G75*
G03*
X54260000Y-60910000I-920000J0D01*
G01*
%LPC*%
D12*
X48895000Y-39370000D03*
X51395000Y-39370000D03*
X53975000Y-52070000D03*
X56475000Y-52070000D03*
D13*
X50165000Y-54610000D03*
D12*
X47665000Y-54610000D03*
D13*
X47625000Y-61595000D03*
D12*
X50125000Y-61595000D03*
X27325000Y-63182500D03*
X29825000Y-63182500D03*
X29210000Y-26670000D03*
X31710000Y-26670000D03*
X27940000Y-15240000D03*
X27940000Y-17740000D03*
X56515000Y-39370000D03*
X54015000Y-39370000D03*
X17780000Y-22860000D03*
X17780000Y-20360000D03*
X17780000Y-15240000D03*
X17780000Y-17740000D03*
D13*
X52705000Y-22860000D03*
D12*
X52705000Y-20360000D03*
D13*
X57785000Y-61277500D03*
D12*
X57785000Y-63777500D03*
D13*
X57785000Y-58102500D03*
D12*
X57785000Y-55602500D03*
D14*
X25450000Y-22860000D03*
D15*
X27990000Y-22860000D03*
D14*
X27890000Y-20310000D03*
D15*
X25350000Y-20310000D03*
D14*
X56515000Y-66040000D03*
D15*
X53975000Y-66040000D03*
D13*
X17780000Y-27940000D03*
D16*
X17780000Y-30480000D03*
X17780000Y-33020000D03*
X17780000Y-35560000D03*
X17780000Y-38100000D03*
X17780000Y-40640000D03*
X17780000Y-43180000D03*
X17780000Y-45720000D03*
X17780000Y-48260000D03*
X17780000Y-50800000D03*
X17780000Y-53340000D03*
X17780000Y-55880000D03*
X17780000Y-58420000D03*
X17780000Y-60960000D03*
X25400000Y-60960000D03*
X25400000Y-58420000D03*
X25400000Y-55880000D03*
X25400000Y-53340000D03*
X25400000Y-50800000D03*
X25400000Y-48260000D03*
X25400000Y-45720000D03*
X25400000Y-43180000D03*
X25400000Y-40640000D03*
X25400000Y-38100000D03*
X25400000Y-35560000D03*
X25400000Y-33020000D03*
X25400000Y-30480000D03*
X25400000Y-27940000D03*
D13*
X29210000Y-30480000D03*
D16*
X29210000Y-33020000D03*
X29210000Y-35560000D03*
X29210000Y-38100000D03*
X29210000Y-40640000D03*
X29210000Y-43180000D03*
X29210000Y-45720000D03*
X29210000Y-48260000D03*
X29210000Y-50800000D03*
X29210000Y-53340000D03*
X29210000Y-55880000D03*
X29210000Y-58420000D03*
X44450000Y-58420000D03*
X44450000Y-55880000D03*
X44450000Y-53340000D03*
X44450000Y-50800000D03*
X44450000Y-48260000D03*
X44450000Y-45720000D03*
X44450000Y-43180000D03*
X44450000Y-40640000D03*
X44450000Y-38100000D03*
X44450000Y-35560000D03*
X44450000Y-33020000D03*
X44450000Y-30480000D03*
D13*
X31750000Y-22860000D03*
D16*
X34290000Y-22860000D03*
X36830000Y-22860000D03*
X39370000Y-22860000D03*
X41910000Y-22860000D03*
X44450000Y-22860000D03*
X46990000Y-22860000D03*
X46990000Y-15240000D03*
X44450000Y-15240000D03*
X41910000Y-15240000D03*
X39370000Y-15240000D03*
X36830000Y-15240000D03*
X34290000Y-15240000D03*
X31750000Y-15240000D03*
D13*
X56515000Y-35560000D03*
D16*
X56515000Y-33020000D03*
X56515000Y-30480000D03*
X56515000Y-27940000D03*
X48895000Y-27940000D03*
X48895000Y-30480000D03*
X48895000Y-33020000D03*
X48895000Y-35560000D03*
D13*
X48895000Y-49530000D03*
D16*
X51435000Y-49530000D03*
X53975000Y-49530000D03*
X56515000Y-49530000D03*
X56515000Y-41910000D03*
X53975000Y-41910000D03*
X51435000Y-41910000D03*
X48895000Y-41910000D03*
D17*
X21590000Y-21590000D03*
X21590000Y-16710000D03*
D14*
X27305000Y-66675000D03*
D15*
X27305000Y-69215000D03*
D14*
X53340000Y-60910000D03*
D15*
X53340000Y-58370000D03*
D18*
X31115000Y-66675000D03*
D19*
X31115000Y-69215000D03*
X33655000Y-66675000D03*
X33655000Y-69215000D03*
X36195000Y-66675000D03*
X36195000Y-69215000D03*
X38735000Y-66675000D03*
X38735000Y-69215000D03*
X41275000Y-66675000D03*
X41275000Y-69215000D03*
D18*
X36195000Y-19685000D03*
D19*
X38735000Y-19685000D03*
D18*
X18415000Y-66675000D03*
D19*
X18415000Y-69215000D03*
X20955000Y-66675000D03*
X20955000Y-69215000D03*
X23495000Y-66675000D03*
X23495000Y-69215000D03*
D18*
X53975000Y-69215000D03*
D19*
X56515000Y-69215000D03*
D18*
X36195000Y-26035000D03*
D19*
X38735000Y-26035000D03*
M02*
