M48
; DRILL file {KiCad 6.0.4+dfsg-1+b1} date Sun 24 Apr 2022 01:38:21 AM EEST
; FORMAT={-:-/ absolute / metric / decimal}
; #@! TF.CreationDate,2022-04-24T01:38:21+03:00
; #@! TF.GenerationSoftware,Kicad,Pcbnew,6.0.4+dfsg-1+b1
; #@! TF.FileFunction,Plated,1,2,PTH
FMAT,2
METRIC
; #@! TA.AperFunction,Plated,PTH,ViaDrill
T1C0.400
; #@! TA.AperFunction,Plated,PTH,ComponentDrill
T2C0.700
; #@! TA.AperFunction,Plated,PTH,ComponentDrill
T3C0.800
; #@! TA.AperFunction,Plated,PTH,ComponentDrill
T4C1.000
%
G90
G05
T1
X21.59Y-56.515
X21.59Y-58.42
X21.59Y-60.325
T2
X25.35Y-20.31
X25.45Y-22.86
X27.305Y-66.675
X27.305Y-69.215
X27.89Y-20.31
X27.99Y-22.86
X53.34Y-58.37
X53.34Y-60.91
X53.975Y-66.04
X56.515Y-66.04
T3
X17.78Y-15.24
X17.78Y-17.74
X17.78Y-20.36
X17.78Y-22.86
X17.78Y-27.94
X17.78Y-30.48
X17.78Y-33.02
X17.78Y-35.56
X17.78Y-38.1
X17.78Y-40.64
X17.78Y-43.18
X17.78Y-45.72
X17.78Y-48.26
X17.78Y-50.8
X17.78Y-53.34
X17.78Y-55.88
X17.78Y-58.42
X17.78Y-60.96
X21.59Y-16.71
X21.59Y-21.59
X25.4Y-27.94
X25.4Y-30.48
X25.4Y-33.02
X25.4Y-35.56
X25.4Y-38.1
X25.4Y-40.64
X25.4Y-43.18
X25.4Y-45.72
X25.4Y-48.26
X25.4Y-50.8
X25.4Y-53.34
X25.4Y-55.88
X25.4Y-58.42
X25.4Y-60.96
X27.325Y-63.182
X27.94Y-15.24
X27.94Y-17.74
X29.21Y-26.67
X29.21Y-30.48
X29.21Y-33.02
X29.21Y-35.56
X29.21Y-38.1
X29.21Y-40.64
X29.21Y-43.18
X29.21Y-45.72
X29.21Y-48.26
X29.21Y-50.8
X29.21Y-53.34
X29.21Y-55.88
X29.21Y-58.42
X29.825Y-63.182
X31.71Y-26.67
X31.75Y-15.24
X31.75Y-22.86
X34.29Y-15.24
X34.29Y-22.86
X36.83Y-15.24
X36.83Y-22.86
X39.37Y-15.24
X39.37Y-22.86
X41.91Y-15.24
X41.91Y-22.86
X44.45Y-15.24
X44.45Y-22.86
X44.45Y-30.48
X44.45Y-33.02
X44.45Y-35.56
X44.45Y-38.1
X44.45Y-40.64
X44.45Y-43.18
X44.45Y-45.72
X44.45Y-48.26
X44.45Y-50.8
X44.45Y-53.34
X44.45Y-55.88
X44.45Y-58.42
X46.99Y-15.24
X46.99Y-22.86
X47.625Y-61.595
X47.665Y-54.61
X48.895Y-27.94
X48.895Y-30.48
X48.895Y-33.02
X48.895Y-35.56
X48.895Y-39.37
X48.895Y-41.91
X48.895Y-49.53
X50.125Y-61.595
X50.165Y-54.61
X51.395Y-39.37
X51.435Y-41.91
X51.435Y-49.53
X52.705Y-20.36
X52.705Y-22.86
X53.975Y-41.91
X53.975Y-49.53
X53.975Y-52.07
X54.015Y-39.37
X56.475Y-52.07
X56.515Y-27.94
X56.515Y-30.48
X56.515Y-33.02
X56.515Y-35.56
X56.515Y-39.37
X56.515Y-41.91
X56.515Y-49.53
X57.785Y-55.602
X57.785Y-58.102
X57.785Y-61.277
X57.785Y-63.777
T4
X18.415Y-66.675
X18.415Y-69.215
X20.955Y-66.675
X20.955Y-69.215
X23.495Y-66.675
X23.495Y-69.215
X31.115Y-66.675
X31.115Y-69.215
X33.655Y-66.675
X33.655Y-69.215
X36.195Y-19.685
X36.195Y-26.035
X36.195Y-66.675
X36.195Y-69.215
X38.735Y-19.685
X38.735Y-26.035
X38.735Y-66.675
X38.735Y-69.215
X41.275Y-66.675
X41.275Y-69.215
X53.975Y-69.215
X56.515Y-69.215
T0
M30
