G04 #@! TF.GenerationSoftware,KiCad,Pcbnew,6.0.4+dfsg-1+b1*
G04 #@! TF.CreationDate,2022-04-24T01:38:02+03:00*
G04 #@! TF.ProjectId,yatabaza-synth,79617461-6261-47a6-912d-73796e74682e,rev?*
G04 #@! TF.SameCoordinates,Original*
G04 #@! TF.FileFunction,Copper,L2,Bot*
G04 #@! TF.FilePolarity,Positive*
%FSLAX46Y46*%
G04 Gerber Fmt 4.6, Leading zero omitted, Abs format (unit mm)*
G04 Created by KiCad (PCBNEW 6.0.4+dfsg-1+b1) date 2022-04-24 01:38:02*
%MOMM*%
%LPD*%
G01*
G04 APERTURE LIST*
G04 #@! TA.AperFunction,ComponentPad*
%ADD10C,1.600000*%
G04 #@! TD*
G04 #@! TA.AperFunction,ComponentPad*
%ADD11R,1.600000X1.600000*%
G04 #@! TD*
G04 #@! TA.AperFunction,ComponentPad*
%ADD12C,1.400000*%
G04 #@! TD*
G04 #@! TA.AperFunction,ComponentPad*
%ADD13O,1.400000X1.400000*%
G04 #@! TD*
G04 #@! TA.AperFunction,ComponentPad*
%ADD14O,1.600000X1.600000*%
G04 #@! TD*
G04 #@! TA.AperFunction,ComponentPad*
%ADD15C,1.500000*%
G04 #@! TD*
G04 #@! TA.AperFunction,ComponentPad*
%ADD16R,1.700000X1.700000*%
G04 #@! TD*
G04 #@! TA.AperFunction,ComponentPad*
%ADD17O,1.700000X1.700000*%
G04 #@! TD*
G04 #@! TA.AperFunction,SMDPad,CuDef*
%ADD18R,1.000000X1.500000*%
G04 #@! TD*
G04 #@! TA.AperFunction,ViaPad*
%ADD19C,0.600000*%
G04 #@! TD*
G04 #@! TA.AperFunction,Conductor*
%ADD20C,0.750000*%
G04 #@! TD*
G04 #@! TA.AperFunction,Conductor*
%ADD21C,0.375000*%
G04 #@! TD*
G04 APERTURE END LIST*
D10*
X48895000Y-39370000D03*
X51395000Y-39370000D03*
X53975000Y-52070000D03*
X56475000Y-52070000D03*
D11*
X50165000Y-54610000D03*
D10*
X47665000Y-54610000D03*
D11*
X47625000Y-61595000D03*
D10*
X50125000Y-61595000D03*
X27325000Y-63182500D03*
X29825000Y-63182500D03*
X29210000Y-26670000D03*
X31710000Y-26670000D03*
X27940000Y-15240000D03*
X27940000Y-17740000D03*
X56515000Y-39370000D03*
X54015000Y-39370000D03*
X17780000Y-22860000D03*
X17780000Y-20360000D03*
X17780000Y-15240000D03*
X17780000Y-17740000D03*
D11*
X52705000Y-22860000D03*
D10*
X52705000Y-20360000D03*
D11*
X57785000Y-61277500D03*
D10*
X57785000Y-63777500D03*
D11*
X57785000Y-58102500D03*
D10*
X57785000Y-55602500D03*
D12*
X25450000Y-22860000D03*
D13*
X27990000Y-22860000D03*
D12*
X27890000Y-20310000D03*
D13*
X25350000Y-20310000D03*
D12*
X56515000Y-66040000D03*
D13*
X53975000Y-66040000D03*
D11*
X17780000Y-27940000D03*
D14*
X17780000Y-30480000D03*
X17780000Y-33020000D03*
X17780000Y-35560000D03*
X17780000Y-38100000D03*
X17780000Y-40640000D03*
X17780000Y-43180000D03*
X17780000Y-45720000D03*
X17780000Y-48260000D03*
X17780000Y-50800000D03*
X17780000Y-53340000D03*
X17780000Y-55880000D03*
X17780000Y-58420000D03*
X17780000Y-60960000D03*
X25400000Y-60960000D03*
X25400000Y-58420000D03*
X25400000Y-55880000D03*
X25400000Y-53340000D03*
X25400000Y-50800000D03*
X25400000Y-48260000D03*
X25400000Y-45720000D03*
X25400000Y-43180000D03*
X25400000Y-40640000D03*
X25400000Y-38100000D03*
X25400000Y-35560000D03*
X25400000Y-33020000D03*
X25400000Y-30480000D03*
X25400000Y-27940000D03*
D11*
X29210000Y-30480000D03*
D14*
X29210000Y-33020000D03*
X29210000Y-35560000D03*
X29210000Y-38100000D03*
X29210000Y-40640000D03*
X29210000Y-43180000D03*
X29210000Y-45720000D03*
X29210000Y-48260000D03*
X29210000Y-50800000D03*
X29210000Y-53340000D03*
X29210000Y-55880000D03*
X29210000Y-58420000D03*
X44450000Y-58420000D03*
X44450000Y-55880000D03*
X44450000Y-53340000D03*
X44450000Y-50800000D03*
X44450000Y-48260000D03*
X44450000Y-45720000D03*
X44450000Y-43180000D03*
X44450000Y-40640000D03*
X44450000Y-38100000D03*
X44450000Y-35560000D03*
X44450000Y-33020000D03*
X44450000Y-30480000D03*
D11*
X31750000Y-22860000D03*
D14*
X34290000Y-22860000D03*
X36830000Y-22860000D03*
X39370000Y-22860000D03*
X41910000Y-22860000D03*
X44450000Y-22860000D03*
X46990000Y-22860000D03*
X46990000Y-15240000D03*
X44450000Y-15240000D03*
X41910000Y-15240000D03*
X39370000Y-15240000D03*
X36830000Y-15240000D03*
X34290000Y-15240000D03*
X31750000Y-15240000D03*
D11*
X56515000Y-35560000D03*
D14*
X56515000Y-33020000D03*
X56515000Y-30480000D03*
X56515000Y-27940000D03*
X48895000Y-27940000D03*
X48895000Y-30480000D03*
X48895000Y-33020000D03*
X48895000Y-35560000D03*
D11*
X48895000Y-49530000D03*
D14*
X51435000Y-49530000D03*
X53975000Y-49530000D03*
X56515000Y-49530000D03*
X56515000Y-41910000D03*
X53975000Y-41910000D03*
X51435000Y-41910000D03*
X48895000Y-41910000D03*
D15*
X21590000Y-21590000D03*
X21590000Y-16710000D03*
D12*
X27305000Y-66675000D03*
D13*
X27305000Y-69215000D03*
D12*
X53340000Y-60910000D03*
D13*
X53340000Y-58370000D03*
D16*
X31115000Y-66675000D03*
D17*
X31115000Y-69215000D03*
X33655000Y-66675000D03*
X33655000Y-69215000D03*
X36195000Y-66675000D03*
X36195000Y-69215000D03*
X38735000Y-66675000D03*
X38735000Y-69215000D03*
X41275000Y-66675000D03*
X41275000Y-69215000D03*
D18*
X22890000Y-60325000D03*
X21590000Y-60325000D03*
X20290000Y-60325000D03*
X22890000Y-58420000D03*
X21590000Y-58420000D03*
X20290000Y-58420000D03*
X22890000Y-56515000D03*
X21590000Y-56515000D03*
X20290000Y-56515000D03*
D16*
X36195000Y-19685000D03*
D17*
X38735000Y-19685000D03*
D16*
X18415000Y-66675000D03*
D17*
X18415000Y-69215000D03*
X20955000Y-66675000D03*
X20955000Y-69215000D03*
X23495000Y-66675000D03*
X23495000Y-69215000D03*
D16*
X53975000Y-69215000D03*
D17*
X56515000Y-69215000D03*
D16*
X36195000Y-26035000D03*
D17*
X38735000Y-26035000D03*
D19*
X21590000Y-60325000D03*
X21590000Y-58420000D03*
X21590000Y-56515000D03*
D20*
X41275000Y-69215000D02*
X41275000Y-66675000D01*
X17780000Y-19050000D02*
X17780000Y-20360000D01*
X22860000Y-19050000D02*
X24170000Y-17740000D01*
X24170000Y-17740000D02*
X27940000Y-17740000D01*
X19685000Y-50800000D02*
X20320000Y-51435000D01*
X20320000Y-51435000D02*
X20320000Y-56515000D01*
X27940000Y-17740000D02*
X46315000Y-17740000D01*
X20320000Y-66040000D02*
X20320000Y-60325000D01*
X20955000Y-70485000D02*
X21590000Y-71120000D01*
X21590000Y-71120000D02*
X31115000Y-71120000D01*
X31115000Y-71120000D02*
X33655000Y-71120000D01*
X50165000Y-52070000D02*
X47625000Y-54610000D01*
X16510000Y-50800000D02*
X15875000Y-50165000D01*
X15875000Y-50165000D02*
X15875000Y-24765000D01*
X15875000Y-19685000D02*
X16510000Y-19050000D01*
X16510000Y-19050000D02*
X17780000Y-19050000D01*
X46355000Y-53340000D02*
X46355000Y-31115000D01*
X46355000Y-31115000D02*
X46990000Y-30480000D01*
X52705000Y-39370000D02*
X54015000Y-39370000D01*
X52705000Y-31115000D02*
X52070000Y-30480000D01*
X31710000Y-66080000D02*
X31115000Y-66675000D01*
X31710000Y-63500000D02*
X31710000Y-66080000D01*
X31710000Y-58420000D02*
X31710000Y-60960000D01*
X31750000Y-61555000D02*
X31750000Y-60960000D01*
X31750000Y-60960000D02*
X31710000Y-60960000D01*
X31710000Y-60960000D02*
X31710000Y-63500000D01*
X36195000Y-26670000D02*
X36195000Y-27305000D01*
X15875000Y-24765000D02*
X15875000Y-19685000D01*
X31115000Y-24765000D02*
X31750000Y-25400000D01*
X31750000Y-25400000D02*
X31750000Y-26630000D01*
X31750000Y-26035000D02*
X31710000Y-26670000D01*
X46990000Y-18415000D02*
X46990000Y-20320000D01*
X36830000Y-27940000D02*
X46990000Y-27940000D01*
X46990000Y-27940000D02*
X46990000Y-22860000D01*
X53340000Y-71120000D02*
X53975000Y-70485000D01*
X53975000Y-70485000D02*
X53975000Y-69215000D01*
X31790000Y-61595000D02*
X31750000Y-61555000D01*
X46990000Y-20360000D02*
X46990000Y-20320000D01*
X46990000Y-20320000D02*
X46990000Y-22860000D01*
X20955000Y-66675000D02*
X20320000Y-66040000D01*
X47625000Y-54610000D02*
X47625000Y-61555000D01*
X53975000Y-52070000D02*
X50165000Y-52070000D01*
X31710000Y-26670000D02*
X31710000Y-58420000D01*
X36195000Y-26035000D02*
X36195000Y-27305000D01*
X20955000Y-66675000D02*
X20955000Y-69215000D01*
X17780000Y-19050000D02*
X22860000Y-19050000D01*
X20955000Y-69215000D02*
X20955000Y-70485000D01*
X20320000Y-58420000D02*
X20320000Y-60325000D01*
X48895000Y-30480000D02*
X46990000Y-30480000D01*
X33655000Y-69215000D02*
X31115000Y-69215000D01*
X33655000Y-71120000D02*
X53340000Y-71120000D01*
X36195000Y-27305000D02*
X36830000Y-27940000D01*
X15875000Y-24765000D02*
X31115000Y-24765000D01*
X47665000Y-61595000D02*
X31790000Y-61595000D01*
X33655000Y-66675000D02*
X33655000Y-69215000D01*
X17780000Y-50800000D02*
X16510000Y-50800000D01*
X48895000Y-30480000D02*
X52070000Y-30480000D01*
X52705000Y-39370000D02*
X52705000Y-31115000D01*
X52705000Y-20360000D02*
X46990000Y-20360000D01*
X17780000Y-50800000D02*
X19685000Y-50800000D01*
X29805000Y-63500000D02*
X31710000Y-63500000D01*
X31115000Y-66675000D02*
X33655000Y-66675000D01*
X36195000Y-26035000D02*
X31750000Y-26035000D01*
X53975000Y-69215000D02*
X53975000Y-66040000D01*
X31115000Y-66675000D02*
X31115000Y-69215000D01*
X46315000Y-17740000D02*
X46990000Y-18415000D01*
X51435000Y-39370000D02*
X52705000Y-39370000D01*
X46355000Y-53340000D02*
X47625000Y-54610000D01*
X33655000Y-69215000D02*
X33655000Y-71120000D01*
X20320000Y-56515000D02*
X20320000Y-58420000D01*
X31115000Y-69215000D02*
X31115000Y-71120000D01*
X17780000Y-17740000D02*
X17780000Y-19050000D01*
X46990000Y-30480000D02*
X46990000Y-27940000D01*
X29210000Y-58420000D02*
X31710000Y-58420000D01*
X38735000Y-64135000D02*
X39410000Y-63460000D01*
X39410000Y-63460000D02*
X49252500Y-63460000D01*
X38735000Y-66675000D02*
X38735000Y-64135000D01*
X49252500Y-63460000D02*
X50165000Y-62547500D01*
X50125000Y-58460000D02*
X56515000Y-52070000D01*
X38735000Y-69215000D02*
X38735000Y-66675000D01*
X50165000Y-61635000D02*
X50125000Y-61595000D01*
X56515000Y-52070000D02*
X56515000Y-49530000D01*
X50125000Y-61595000D02*
X50125000Y-58460000D01*
X50165000Y-62547500D02*
X50165000Y-61635000D01*
X23495000Y-63500000D02*
X22860000Y-62865000D01*
X22860000Y-26670000D02*
X23495000Y-26035000D01*
X23495000Y-26035000D02*
X29210000Y-26035000D01*
X29210000Y-26035000D02*
X29210000Y-26670000D01*
X22860000Y-48260000D02*
X22860000Y-26670000D01*
X27305000Y-63500000D02*
X23495000Y-63500000D01*
X22860000Y-56515000D02*
X22860000Y-48260000D01*
X22860000Y-58420000D02*
X22860000Y-60325000D01*
X27305000Y-66675000D02*
X27305000Y-63500000D01*
X29210000Y-26670000D02*
X29210000Y-30480000D01*
X17780000Y-48260000D02*
X22860000Y-48260000D01*
X22860000Y-62865000D02*
X22860000Y-60325000D01*
X22860000Y-56515000D02*
X22860000Y-58420000D01*
D21*
X20320000Y-22860000D02*
X21590000Y-21590000D01*
X26670000Y-21590000D02*
X27940000Y-22860000D01*
X21590000Y-21590000D02*
X26670000Y-21590000D01*
X31750000Y-22860000D02*
X27940000Y-22860000D01*
X17780000Y-22860000D02*
X20320000Y-22860000D01*
X55880000Y-41910000D02*
X55245000Y-41275000D01*
X55245000Y-41275000D02*
X55245000Y-25400000D01*
X55245000Y-25400000D02*
X54610000Y-24765000D01*
X54610000Y-24765000D02*
X53340000Y-24765000D01*
X53340000Y-24765000D02*
X52705000Y-24130000D01*
X52705000Y-24130000D02*
X52705000Y-22860000D01*
X56515000Y-41910000D02*
X55880000Y-41910000D01*
X57785000Y-59690000D02*
X57785000Y-57785000D01*
X54610000Y-59690000D02*
X57785000Y-59690000D01*
X53340000Y-60960000D02*
X54610000Y-59690000D01*
X57785000Y-60960000D02*
X57785000Y-59690000D01*
X56515000Y-64730000D02*
X57785000Y-63460000D01*
X57825000Y-63460000D02*
X59055000Y-62230000D01*
X59055000Y-62230000D02*
X59055000Y-55880000D01*
X59055000Y-55880000D02*
X58460000Y-55285000D01*
X58460000Y-55285000D02*
X57785000Y-55285000D01*
X56515000Y-69215000D02*
X56515000Y-66040000D01*
X56515000Y-66040000D02*
X56515000Y-64730000D01*
X44450000Y-15875000D02*
X43815000Y-16510000D01*
X43815000Y-16510000D02*
X39370000Y-16510000D01*
X34925000Y-16510000D02*
X34290000Y-15875000D01*
X34290000Y-15875000D02*
X34290000Y-15240000D01*
X39370000Y-16510000D02*
X34925000Y-16510000D01*
X33655000Y-20320000D02*
X34290000Y-20955000D01*
X34290000Y-20955000D02*
X34290000Y-21590000D01*
X34290000Y-21590000D02*
X34290000Y-22860000D01*
X36830000Y-21590000D02*
X34290000Y-21590000D01*
X41910000Y-22225000D02*
X41275000Y-21590000D01*
X41275000Y-21590000D02*
X36830000Y-21590000D01*
X36830000Y-22860000D02*
X36830000Y-21590000D01*
X44450000Y-15240000D02*
X44450000Y-15875000D01*
X41910000Y-22860000D02*
X41910000Y-22225000D01*
X27940000Y-20320000D02*
X33655000Y-20320000D01*
X39370000Y-15240000D02*
X39370000Y-16510000D01*
X49530000Y-35560000D02*
X50165000Y-36195000D01*
X51435000Y-41910000D02*
X53975000Y-41910000D01*
X50800000Y-41910000D02*
X50165000Y-41275000D01*
X50165000Y-41275000D02*
X50165000Y-36195000D01*
X48895000Y-35560000D02*
X49530000Y-35560000D01*
X51435000Y-41910000D02*
X50800000Y-41910000D01*
M02*
