%FSLAX45Y45*%
G04 Gerber Fmt 4.5, Leading zero omitted, Abs format (unit mm)*
G04 Created by KiCad (PCBNEW 6.0.4+dfsg-1+b1) date 2022-04-24 01:38:22*
%MOMM*%
%LPD*%
G01*
G04 APERTURE LIST*
%TA.AperFunction,Profile*%
%ADD10C,0.150000*%
%TD*%
%ADD11C,0.200000*%
%ADD12C,0.040000*%
%ADD13C,0.070000*%
%ADD14C,0.080000*%
%ADD15C,0.100000*%
G04 APERTURE END LIST*
D10*
X6096000Y-1778000D02*
X5524500Y-1206500D01*
X1460500Y-7239000D02*
X6096000Y-7239000D01*
X1460500Y-1206500D02*
X1460500Y-7239000D01*
X1460500Y-1206500D02*
X5524500Y-1206500D01*
X6096000Y-1778000D02*
X6096000Y-7239000D01*
D11*
D12*
X2139000Y-5631500D02*
X2179000Y-5671500D01*
X2179000Y-5631500D02*
X2139000Y-5671500D01*
X2139000Y-5822000D02*
X2179000Y-5862000D01*
X2179000Y-5822000D02*
X2139000Y-5862000D01*
X2139000Y-6012500D02*
X2179000Y-6052500D01*
X2179000Y-6012500D02*
X2139000Y-6052500D01*
D13*
X2570000Y-2031000D02*
G75*
G03*
X2570000Y-2031000I-35000J0D01*
G01*
X2580000Y-2286000D02*
G75*
G03*
X2580000Y-2286000I-35000J0D01*
G01*
X2765500Y-6667500D02*
G75*
G03*
X2765500Y-6667500I-35000J0D01*
G01*
X2765500Y-6921500D02*
G75*
G03*
X2765500Y-6921500I-35000J0D01*
G01*
X2824000Y-2031000D02*
G75*
G03*
X2824000Y-2031000I-35000J0D01*
G01*
X2834000Y-2286000D02*
G75*
G03*
X2834000Y-2286000I-35000J0D01*
G01*
X5369000Y-5837000D02*
G75*
G03*
X5369000Y-5837000I-35000J0D01*
G01*
X5369000Y-6091000D02*
G75*
G03*
X5369000Y-6091000I-35000J0D01*
G01*
X5432500Y-6604000D02*
G75*
G03*
X5432500Y-6604000I-35000J0D01*
G01*
X5686500Y-6604000D02*
G75*
G03*
X5686500Y-6604000I-35000J0D01*
G01*
D14*
X1778000Y-1484000D02*
X1778000Y-1564000D01*
X1738000Y-1524000D02*
X1818000Y-1524000D01*
X1778000Y-1734000D02*
X1778000Y-1814000D01*
X1738000Y-1774000D02*
X1818000Y-1774000D01*
X1778000Y-1996000D02*
X1778000Y-2076000D01*
X1738000Y-2036000D02*
X1818000Y-2036000D01*
X1778000Y-2246000D02*
X1778000Y-2326000D01*
X1738000Y-2286000D02*
X1818000Y-2286000D01*
X1778000Y-2754000D02*
X1778000Y-2834000D01*
X1738000Y-2794000D02*
X1818000Y-2794000D01*
X1778000Y-3008000D02*
X1778000Y-3088000D01*
X1738000Y-3048000D02*
X1818000Y-3048000D01*
X1778000Y-3262000D02*
X1778000Y-3342000D01*
X1738000Y-3302000D02*
X1818000Y-3302000D01*
X1778000Y-3516000D02*
X1778000Y-3596000D01*
X1738000Y-3556000D02*
X1818000Y-3556000D01*
X1778000Y-3770000D02*
X1778000Y-3850000D01*
X1738000Y-3810000D02*
X1818000Y-3810000D01*
X1778000Y-4024000D02*
X1778000Y-4104000D01*
X1738000Y-4064000D02*
X1818000Y-4064000D01*
X1778000Y-4278000D02*
X1778000Y-4358000D01*
X1738000Y-4318000D02*
X1818000Y-4318000D01*
X1778000Y-4532000D02*
X1778000Y-4612000D01*
X1738000Y-4572000D02*
X1818000Y-4572000D01*
X1778000Y-4786000D02*
X1778000Y-4866000D01*
X1738000Y-4826000D02*
X1818000Y-4826000D01*
X1778000Y-5040000D02*
X1778000Y-5120000D01*
X1738000Y-5080000D02*
X1818000Y-5080000D01*
X1778000Y-5294000D02*
X1778000Y-5374000D01*
X1738000Y-5334000D02*
X1818000Y-5334000D01*
X1778000Y-5548000D02*
X1778000Y-5628000D01*
X1738000Y-5588000D02*
X1818000Y-5588000D01*
X1778000Y-5802000D02*
X1778000Y-5882000D01*
X1738000Y-5842000D02*
X1818000Y-5842000D01*
X1778000Y-6056000D02*
X1778000Y-6136000D01*
X1738000Y-6096000D02*
X1818000Y-6096000D01*
X2159000Y-1631000D02*
X2159000Y-1711000D01*
X2119000Y-1671000D02*
X2199000Y-1671000D01*
X2159000Y-2119000D02*
X2159000Y-2199000D01*
X2119000Y-2159000D02*
X2199000Y-2159000D01*
X2540000Y-2754000D02*
X2540000Y-2834000D01*
X2500000Y-2794000D02*
X2580000Y-2794000D01*
X2540000Y-3008000D02*
X2540000Y-3088000D01*
X2500000Y-3048000D02*
X2580000Y-3048000D01*
X2540000Y-3262000D02*
X2540000Y-3342000D01*
X2500000Y-3302000D02*
X2580000Y-3302000D01*
X2540000Y-3516000D02*
X2540000Y-3596000D01*
X2500000Y-3556000D02*
X2580000Y-3556000D01*
X2540000Y-3770000D02*
X2540000Y-3850000D01*
X2500000Y-3810000D02*
X2580000Y-3810000D01*
X2540000Y-4024000D02*
X2540000Y-4104000D01*
X2500000Y-4064000D02*
X2580000Y-4064000D01*
X2540000Y-4278000D02*
X2540000Y-4358000D01*
X2500000Y-4318000D02*
X2580000Y-4318000D01*
X2540000Y-4532000D02*
X2540000Y-4612000D01*
X2500000Y-4572000D02*
X2580000Y-4572000D01*
X2540000Y-4786000D02*
X2540000Y-4866000D01*
X2500000Y-4826000D02*
X2580000Y-4826000D01*
X2540000Y-5040000D02*
X2540000Y-5120000D01*
X2500000Y-5080000D02*
X2580000Y-5080000D01*
X2540000Y-5294000D02*
X2540000Y-5374000D01*
X2500000Y-5334000D02*
X2580000Y-5334000D01*
X2540000Y-5548000D02*
X2540000Y-5628000D01*
X2500000Y-5588000D02*
X2580000Y-5588000D01*
X2540000Y-5802000D02*
X2540000Y-5882000D01*
X2500000Y-5842000D02*
X2580000Y-5842000D01*
X2540000Y-6056000D02*
X2540000Y-6136000D01*
X2500000Y-6096000D02*
X2580000Y-6096000D01*
X2732500Y-6278250D02*
X2732500Y-6358250D01*
X2692500Y-6318250D02*
X2772500Y-6318250D01*
X2794000Y-1484000D02*
X2794000Y-1564000D01*
X2754000Y-1524000D02*
X2834000Y-1524000D01*
X2794000Y-1734000D02*
X2794000Y-1814000D01*
X2754000Y-1774000D02*
X2834000Y-1774000D01*
X2921000Y-2627000D02*
X2921000Y-2707000D01*
X2881000Y-2667000D02*
X2961000Y-2667000D01*
X2921000Y-3008000D02*
X2921000Y-3088000D01*
X2881000Y-3048000D02*
X2961000Y-3048000D01*
X2921000Y-3262000D02*
X2921000Y-3342000D01*
X2881000Y-3302000D02*
X2961000Y-3302000D01*
X2921000Y-3516000D02*
X2921000Y-3596000D01*
X2881000Y-3556000D02*
X2961000Y-3556000D01*
X2921000Y-3770000D02*
X2921000Y-3850000D01*
X2881000Y-3810000D02*
X2961000Y-3810000D01*
X2921000Y-4024000D02*
X2921000Y-4104000D01*
X2881000Y-4064000D02*
X2961000Y-4064000D01*
X2921000Y-4278000D02*
X2921000Y-4358000D01*
X2881000Y-4318000D02*
X2961000Y-4318000D01*
X2921000Y-4532000D02*
X2921000Y-4612000D01*
X2881000Y-4572000D02*
X2961000Y-4572000D01*
X2921000Y-4786000D02*
X2921000Y-4866000D01*
X2881000Y-4826000D02*
X2961000Y-4826000D01*
X2921000Y-5040000D02*
X2921000Y-5120000D01*
X2881000Y-5080000D02*
X2961000Y-5080000D01*
X2921000Y-5294000D02*
X2921000Y-5374000D01*
X2881000Y-5334000D02*
X2961000Y-5334000D01*
X2921000Y-5548000D02*
X2921000Y-5628000D01*
X2881000Y-5588000D02*
X2961000Y-5588000D01*
X2921000Y-5802000D02*
X2921000Y-5882000D01*
X2881000Y-5842000D02*
X2961000Y-5842000D01*
X2982500Y-6278250D02*
X2982500Y-6358250D01*
X2942500Y-6318250D02*
X3022500Y-6318250D01*
X3171000Y-2627000D02*
X3171000Y-2707000D01*
X3131000Y-2667000D02*
X3211000Y-2667000D01*
X3175000Y-1484000D02*
X3175000Y-1564000D01*
X3135000Y-1524000D02*
X3215000Y-1524000D01*
X3175000Y-2246000D02*
X3175000Y-2326000D01*
X3135000Y-2286000D02*
X3215000Y-2286000D01*
X3429000Y-1484000D02*
X3429000Y-1564000D01*
X3389000Y-1524000D02*
X3469000Y-1524000D01*
X3429000Y-2246000D02*
X3429000Y-2326000D01*
X3389000Y-2286000D02*
X3469000Y-2286000D01*
X3683000Y-1484000D02*
X3683000Y-1564000D01*
X3643000Y-1524000D02*
X3723000Y-1524000D01*
X3683000Y-2246000D02*
X3683000Y-2326000D01*
X3643000Y-2286000D02*
X3723000Y-2286000D01*
X3937000Y-1484000D02*
X3937000Y-1564000D01*
X3897000Y-1524000D02*
X3977000Y-1524000D01*
X3937000Y-2246000D02*
X3937000Y-2326000D01*
X3897000Y-2286000D02*
X3977000Y-2286000D01*
X4191000Y-1484000D02*
X4191000Y-1564000D01*
X4151000Y-1524000D02*
X4231000Y-1524000D01*
X4191000Y-2246000D02*
X4191000Y-2326000D01*
X4151000Y-2286000D02*
X4231000Y-2286000D01*
X4445000Y-1484000D02*
X4445000Y-1564000D01*
X4405000Y-1524000D02*
X4485000Y-1524000D01*
X4445000Y-2246000D02*
X4445000Y-2326000D01*
X4405000Y-2286000D02*
X4485000Y-2286000D01*
X4445000Y-3008000D02*
X4445000Y-3088000D01*
X4405000Y-3048000D02*
X4485000Y-3048000D01*
X4445000Y-3262000D02*
X4445000Y-3342000D01*
X4405000Y-3302000D02*
X4485000Y-3302000D01*
X4445000Y-3516000D02*
X4445000Y-3596000D01*
X4405000Y-3556000D02*
X4485000Y-3556000D01*
X4445000Y-3770000D02*
X4445000Y-3850000D01*
X4405000Y-3810000D02*
X4485000Y-3810000D01*
X4445000Y-4024000D02*
X4445000Y-4104000D01*
X4405000Y-4064000D02*
X4485000Y-4064000D01*
X4445000Y-4278000D02*
X4445000Y-4358000D01*
X4405000Y-4318000D02*
X4485000Y-4318000D01*
X4445000Y-4532000D02*
X4445000Y-4612000D01*
X4405000Y-4572000D02*
X4485000Y-4572000D01*
X4445000Y-4786000D02*
X4445000Y-4866000D01*
X4405000Y-4826000D02*
X4485000Y-4826000D01*
X4445000Y-5040000D02*
X4445000Y-5120000D01*
X4405000Y-5080000D02*
X4485000Y-5080000D01*
X4445000Y-5294000D02*
X4445000Y-5374000D01*
X4405000Y-5334000D02*
X4485000Y-5334000D01*
X4445000Y-5548000D02*
X4445000Y-5628000D01*
X4405000Y-5588000D02*
X4485000Y-5588000D01*
X4445000Y-5802000D02*
X4445000Y-5882000D01*
X4405000Y-5842000D02*
X4485000Y-5842000D01*
X4699000Y-1484000D02*
X4699000Y-1564000D01*
X4659000Y-1524000D02*
X4739000Y-1524000D01*
X4699000Y-2246000D02*
X4699000Y-2326000D01*
X4659000Y-2286000D02*
X4739000Y-2286000D01*
X4762500Y-6119500D02*
X4762500Y-6199500D01*
X4722500Y-6159500D02*
X4802500Y-6159500D01*
X4766500Y-5421000D02*
X4766500Y-5501000D01*
X4726500Y-5461000D02*
X4806500Y-5461000D01*
X4889500Y-2754000D02*
X4889500Y-2834000D01*
X4849500Y-2794000D02*
X4929500Y-2794000D01*
X4889500Y-3008000D02*
X4889500Y-3088000D01*
X4849500Y-3048000D02*
X4929500Y-3048000D01*
X4889500Y-3262000D02*
X4889500Y-3342000D01*
X4849500Y-3302000D02*
X4929500Y-3302000D01*
X4889500Y-3516000D02*
X4889500Y-3596000D01*
X4849500Y-3556000D02*
X4929500Y-3556000D01*
X4889500Y-3897000D02*
X4889500Y-3977000D01*
X4849500Y-3937000D02*
X4929500Y-3937000D01*
X4889500Y-4151000D02*
X4889500Y-4231000D01*
X4849500Y-4191000D02*
X4929500Y-4191000D01*
X4889500Y-4913000D02*
X4889500Y-4993000D01*
X4849500Y-4953000D02*
X4929500Y-4953000D01*
X5012500Y-6119500D02*
X5012500Y-6199500D01*
X4972500Y-6159500D02*
X5052500Y-6159500D01*
X5016500Y-5421000D02*
X5016500Y-5501000D01*
X4976500Y-5461000D02*
X5056500Y-5461000D01*
X5139500Y-3897000D02*
X5139500Y-3977000D01*
X5099500Y-3937000D02*
X5179500Y-3937000D01*
X5143500Y-4151000D02*
X5143500Y-4231000D01*
X5103500Y-4191000D02*
X5183500Y-4191000D01*
X5143500Y-4913000D02*
X5143500Y-4993000D01*
X5103500Y-4953000D02*
X5183500Y-4953000D01*
X5270500Y-1996000D02*
X5270500Y-2076000D01*
X5230500Y-2036000D02*
X5310500Y-2036000D01*
X5270500Y-2246000D02*
X5270500Y-2326000D01*
X5230500Y-2286000D02*
X5310500Y-2286000D01*
X5397500Y-4151000D02*
X5397500Y-4231000D01*
X5357500Y-4191000D02*
X5437500Y-4191000D01*
X5397500Y-4913000D02*
X5397500Y-4993000D01*
X5357500Y-4953000D02*
X5437500Y-4953000D01*
X5397500Y-5167000D02*
X5397500Y-5247000D01*
X5357500Y-5207000D02*
X5437500Y-5207000D01*
X5401500Y-3897000D02*
X5401500Y-3977000D01*
X5361500Y-3937000D02*
X5441500Y-3937000D01*
X5647500Y-5167000D02*
X5647500Y-5247000D01*
X5607500Y-5207000D02*
X5687500Y-5207000D01*
X5651500Y-2754000D02*
X5651500Y-2834000D01*
X5611500Y-2794000D02*
X5691500Y-2794000D01*
X5651500Y-3008000D02*
X5651500Y-3088000D01*
X5611500Y-3048000D02*
X5691500Y-3048000D01*
X5651500Y-3262000D02*
X5651500Y-3342000D01*
X5611500Y-3302000D02*
X5691500Y-3302000D01*
X5651500Y-3516000D02*
X5651500Y-3596000D01*
X5611500Y-3556000D02*
X5691500Y-3556000D01*
X5651500Y-3897000D02*
X5651500Y-3977000D01*
X5611500Y-3937000D02*
X5691500Y-3937000D01*
X5651500Y-4151000D02*
X5651500Y-4231000D01*
X5611500Y-4191000D02*
X5691500Y-4191000D01*
X5651500Y-4913000D02*
X5651500Y-4993000D01*
X5611500Y-4953000D02*
X5691500Y-4953000D01*
X5778500Y-5520250D02*
X5778500Y-5600250D01*
X5738500Y-5560250D02*
X5818500Y-5560250D01*
X5778500Y-5770250D02*
X5778500Y-5850250D01*
X5738500Y-5810250D02*
X5818500Y-5810250D01*
X5778500Y-6087750D02*
X5778500Y-6167750D01*
X5738500Y-6127750D02*
X5818500Y-6127750D01*
X5778500Y-6337750D02*
X5778500Y-6417750D01*
X5738500Y-6377750D02*
X5818500Y-6377750D01*
D15*
X1876856Y-6702856D02*
X1876856Y-6632144D01*
X1806144Y-6632144D01*
X1806144Y-6702856D01*
X1876856Y-6702856D01*
X1876856Y-6956856D02*
X1876856Y-6886144D01*
X1806144Y-6886144D01*
X1806144Y-6956856D01*
X1876856Y-6956856D01*
X2130856Y-6702856D02*
X2130856Y-6632144D01*
X2060144Y-6632144D01*
X2060144Y-6702856D01*
X2130856Y-6702856D01*
X2130856Y-6956856D02*
X2130856Y-6886144D01*
X2060144Y-6886144D01*
X2060144Y-6956856D01*
X2130856Y-6956856D01*
X2384856Y-6702856D02*
X2384856Y-6632144D01*
X2314144Y-6632144D01*
X2314144Y-6702856D01*
X2384856Y-6702856D01*
X2384856Y-6956856D02*
X2384856Y-6886144D01*
X2314144Y-6886144D01*
X2314144Y-6956856D01*
X2384856Y-6956856D01*
X3146856Y-6702856D02*
X3146856Y-6632144D01*
X3076144Y-6632144D01*
X3076144Y-6702856D01*
X3146856Y-6702856D01*
X3146856Y-6956856D02*
X3146856Y-6886144D01*
X3076144Y-6886144D01*
X3076144Y-6956856D01*
X3146856Y-6956856D01*
X3400856Y-6702856D02*
X3400856Y-6632144D01*
X3330144Y-6632144D01*
X3330144Y-6702856D01*
X3400856Y-6702856D01*
X3400856Y-6956856D02*
X3400856Y-6886144D01*
X3330144Y-6886144D01*
X3330144Y-6956856D01*
X3400856Y-6956856D01*
X3654856Y-2003856D02*
X3654856Y-1933144D01*
X3584144Y-1933144D01*
X3584144Y-2003856D01*
X3654856Y-2003856D01*
X3654856Y-2638856D02*
X3654856Y-2568144D01*
X3584144Y-2568144D01*
X3584144Y-2638856D01*
X3654856Y-2638856D01*
X3654856Y-6702856D02*
X3654856Y-6632144D01*
X3584144Y-6632144D01*
X3584144Y-6702856D01*
X3654856Y-6702856D01*
X3654856Y-6956856D02*
X3654856Y-6886144D01*
X3584144Y-6886144D01*
X3584144Y-6956856D01*
X3654856Y-6956856D01*
X3908856Y-2003856D02*
X3908856Y-1933144D01*
X3838144Y-1933144D01*
X3838144Y-2003856D01*
X3908856Y-2003856D01*
X3908856Y-2638856D02*
X3908856Y-2568144D01*
X3838144Y-2568144D01*
X3838144Y-2638856D01*
X3908856Y-2638856D01*
X3908856Y-6702856D02*
X3908856Y-6632144D01*
X3838144Y-6632144D01*
X3838144Y-6702856D01*
X3908856Y-6702856D01*
X3908856Y-6956856D02*
X3908856Y-6886144D01*
X3838144Y-6886144D01*
X3838144Y-6956856D01*
X3908856Y-6956856D01*
X4162856Y-6702856D02*
X4162856Y-6632144D01*
X4092144Y-6632144D01*
X4092144Y-6702856D01*
X4162856Y-6702856D01*
X4162856Y-6956856D02*
X4162856Y-6886144D01*
X4092144Y-6886144D01*
X4092144Y-6956856D01*
X4162856Y-6956856D01*
X5432856Y-6956856D02*
X5432856Y-6886144D01*
X5362144Y-6886144D01*
X5362144Y-6956856D01*
X5432856Y-6956856D01*
X5686856Y-6956856D02*
X5686856Y-6886144D01*
X5616144Y-6886144D01*
X5616144Y-6956856D01*
X5686856Y-6956856D01*
D11*
X1710619Y-7556976D02*
X1710619Y-7356976D01*
X1758238Y-7356976D01*
X1786809Y-7366500D01*
X1805857Y-7385548D01*
X1815381Y-7404595D01*
X1824905Y-7442690D01*
X1824905Y-7471262D01*
X1815381Y-7509357D01*
X1805857Y-7528405D01*
X1786809Y-7547452D01*
X1758238Y-7556976D01*
X1710619Y-7556976D01*
X1910619Y-7556976D02*
X1910619Y-7423643D01*
X1910619Y-7461738D02*
X1920143Y-7442690D01*
X1929667Y-7433167D01*
X1948714Y-7423643D01*
X1967762Y-7423643D01*
X2034428Y-7556976D02*
X2034428Y-7423643D01*
X2034428Y-7356976D02*
X2024905Y-7366500D01*
X2034428Y-7376024D01*
X2043952Y-7366500D01*
X2034428Y-7356976D01*
X2034428Y-7376024D01*
X2158238Y-7556976D02*
X2139190Y-7547452D01*
X2129667Y-7528405D01*
X2129667Y-7356976D01*
X2263000Y-7556976D02*
X2243952Y-7547452D01*
X2234429Y-7528405D01*
X2234429Y-7356976D01*
X2491571Y-7556976D02*
X2491571Y-7356976D01*
X2558238Y-7499833D01*
X2624905Y-7356976D01*
X2624905Y-7556976D01*
X2805857Y-7556976D02*
X2805857Y-7452214D01*
X2796333Y-7433167D01*
X2777286Y-7423643D01*
X2739190Y-7423643D01*
X2720143Y-7433167D01*
X2805857Y-7547452D02*
X2786810Y-7556976D01*
X2739190Y-7556976D01*
X2720143Y-7547452D01*
X2710619Y-7528405D01*
X2710619Y-7509357D01*
X2720143Y-7490309D01*
X2739190Y-7480786D01*
X2786810Y-7480786D01*
X2805857Y-7471262D01*
X2901095Y-7423643D02*
X2901095Y-7623643D01*
X2901095Y-7433167D02*
X2920143Y-7423643D01*
X2958238Y-7423643D01*
X2977286Y-7433167D01*
X2986809Y-7442690D01*
X2996333Y-7461738D01*
X2996333Y-7518881D01*
X2986809Y-7537928D01*
X2977286Y-7547452D01*
X2958238Y-7556976D01*
X2920143Y-7556976D01*
X2901095Y-7547452D01*
X3082048Y-7537928D02*
X3091571Y-7547452D01*
X3082048Y-7556976D01*
X3072524Y-7547452D01*
X3082048Y-7537928D01*
X3082048Y-7556976D01*
X3082048Y-7433167D02*
X3091571Y-7442690D01*
X3082048Y-7452214D01*
X3072524Y-7442690D01*
X3082048Y-7433167D01*
X3082048Y-7452214D01*
D12*
X1413000Y-7866500D02*
X1453000Y-7906500D01*
X1453000Y-7866500D02*
X1413000Y-7906500D01*
D11*
X1748714Y-7776976D02*
X1767762Y-7776976D01*
X1786809Y-7786500D01*
X1796333Y-7796024D01*
X1805857Y-7815071D01*
X1815381Y-7853167D01*
X1815381Y-7900786D01*
X1805857Y-7938881D01*
X1796333Y-7957928D01*
X1786809Y-7967452D01*
X1767762Y-7976976D01*
X1748714Y-7976976D01*
X1729667Y-7967452D01*
X1720143Y-7957928D01*
X1710619Y-7938881D01*
X1701095Y-7900786D01*
X1701095Y-7853167D01*
X1710619Y-7815071D01*
X1720143Y-7796024D01*
X1729667Y-7786500D01*
X1748714Y-7776976D01*
X1901095Y-7957928D02*
X1910619Y-7967452D01*
X1901095Y-7976976D01*
X1891571Y-7967452D01*
X1901095Y-7957928D01*
X1901095Y-7976976D01*
X2082048Y-7843643D02*
X2082048Y-7976976D01*
X2034428Y-7767452D02*
X1986809Y-7910309D01*
X2110619Y-7910309D01*
X2224905Y-7776976D02*
X2243952Y-7776976D01*
X2263000Y-7786500D01*
X2272524Y-7796024D01*
X2282048Y-7815071D01*
X2291571Y-7853167D01*
X2291571Y-7900786D01*
X2282048Y-7938881D01*
X2272524Y-7957928D01*
X2263000Y-7967452D01*
X2243952Y-7976976D01*
X2224905Y-7976976D01*
X2205857Y-7967452D01*
X2196333Y-7957928D01*
X2186810Y-7938881D01*
X2177286Y-7900786D01*
X2177286Y-7853167D01*
X2186810Y-7815071D01*
X2196333Y-7796024D01*
X2205857Y-7786500D01*
X2224905Y-7776976D01*
X2415381Y-7776976D02*
X2434429Y-7776976D01*
X2453476Y-7786500D01*
X2463000Y-7796024D01*
X2472524Y-7815071D01*
X2482048Y-7853167D01*
X2482048Y-7900786D01*
X2472524Y-7938881D01*
X2463000Y-7957928D01*
X2453476Y-7967452D01*
X2434429Y-7976976D01*
X2415381Y-7976976D01*
X2396333Y-7967452D01*
X2386810Y-7957928D01*
X2377286Y-7938881D01*
X2367762Y-7900786D01*
X2367762Y-7853167D01*
X2377286Y-7815071D01*
X2386810Y-7796024D01*
X2396333Y-7786500D01*
X2415381Y-7776976D01*
X2567762Y-7976976D02*
X2567762Y-7843643D01*
X2567762Y-7862690D02*
X2577286Y-7853167D01*
X2596333Y-7843643D01*
X2624905Y-7843643D01*
X2643952Y-7853167D01*
X2653476Y-7872214D01*
X2653476Y-7976976D01*
X2653476Y-7872214D02*
X2663000Y-7853167D01*
X2682048Y-7843643D01*
X2710619Y-7843643D01*
X2729667Y-7853167D01*
X2739190Y-7872214D01*
X2739190Y-7976976D01*
X2834428Y-7976976D02*
X2834428Y-7843643D01*
X2834428Y-7862690D02*
X2843952Y-7853167D01*
X2863000Y-7843643D01*
X2891571Y-7843643D01*
X2910619Y-7853167D01*
X2920143Y-7872214D01*
X2920143Y-7976976D01*
X2920143Y-7872214D02*
X2929667Y-7853167D01*
X2948714Y-7843643D01*
X2977286Y-7843643D01*
X2996333Y-7853167D01*
X3005857Y-7872214D01*
X3005857Y-7976976D01*
X3396333Y-7767452D02*
X3224905Y-8024595D01*
X3653476Y-7776976D02*
X3672524Y-7776976D01*
X3691571Y-7786500D01*
X3701095Y-7796024D01*
X3710619Y-7815071D01*
X3720143Y-7853167D01*
X3720143Y-7900786D01*
X3710619Y-7938881D01*
X3701095Y-7957928D01*
X3691571Y-7967452D01*
X3672524Y-7976976D01*
X3653476Y-7976976D01*
X3634428Y-7967452D01*
X3624905Y-7957928D01*
X3615381Y-7938881D01*
X3605857Y-7900786D01*
X3605857Y-7853167D01*
X3615381Y-7815071D01*
X3624905Y-7796024D01*
X3634428Y-7786500D01*
X3653476Y-7776976D01*
X3805857Y-7957928D02*
X3815381Y-7967452D01*
X3805857Y-7976976D01*
X3796333Y-7967452D01*
X3805857Y-7957928D01*
X3805857Y-7976976D01*
X3939190Y-7776976D02*
X3958238Y-7776976D01*
X3977286Y-7786500D01*
X3986809Y-7796024D01*
X3996333Y-7815071D01*
X4005857Y-7853167D01*
X4005857Y-7900786D01*
X3996333Y-7938881D01*
X3986809Y-7957928D01*
X3977286Y-7967452D01*
X3958238Y-7976976D01*
X3939190Y-7976976D01*
X3920143Y-7967452D01*
X3910619Y-7957928D01*
X3901095Y-7938881D01*
X3891571Y-7900786D01*
X3891571Y-7853167D01*
X3901095Y-7815071D01*
X3910619Y-7796024D01*
X3920143Y-7786500D01*
X3939190Y-7776976D01*
X4196333Y-7976976D02*
X4082048Y-7976976D01*
X4139190Y-7976976D02*
X4139190Y-7776976D01*
X4120143Y-7805548D01*
X4101095Y-7824595D01*
X4082048Y-7834119D01*
X4377286Y-7776976D02*
X4282048Y-7776976D01*
X4272524Y-7872214D01*
X4282048Y-7862690D01*
X4301095Y-7853167D01*
X4348714Y-7853167D01*
X4367762Y-7862690D01*
X4377286Y-7872214D01*
X4386810Y-7891262D01*
X4386810Y-7938881D01*
X4377286Y-7957928D01*
X4367762Y-7967452D01*
X4348714Y-7976976D01*
X4301095Y-7976976D01*
X4282048Y-7967452D01*
X4272524Y-7957928D01*
X4453476Y-7776976D02*
X4586810Y-7776976D01*
X4501095Y-7976976D01*
X4653476Y-7776976D02*
X4653476Y-7815071D01*
X4729667Y-7776976D02*
X4729667Y-7815071D01*
X5024905Y-8053167D02*
X5015381Y-8043643D01*
X4996333Y-8015071D01*
X4986810Y-7996024D01*
X4977286Y-7967452D01*
X4967762Y-7919833D01*
X4967762Y-7881738D01*
X4977286Y-7834119D01*
X4986810Y-7805548D01*
X4996333Y-7786500D01*
X5015381Y-7757928D01*
X5024905Y-7748405D01*
X5082048Y-7776976D02*
X5205857Y-7776976D01*
X5139190Y-7853167D01*
X5167762Y-7853167D01*
X5186810Y-7862690D01*
X5196333Y-7872214D01*
X5205857Y-7891262D01*
X5205857Y-7938881D01*
X5196333Y-7957928D01*
X5186810Y-7967452D01*
X5167762Y-7976976D01*
X5110619Y-7976976D01*
X5091571Y-7967452D01*
X5082048Y-7957928D01*
X5443952Y-7976976D02*
X5443952Y-7776976D01*
X5529667Y-7976976D02*
X5529667Y-7872214D01*
X5520143Y-7853167D01*
X5501095Y-7843643D01*
X5472524Y-7843643D01*
X5453476Y-7853167D01*
X5443952Y-7862690D01*
X5653476Y-7976976D02*
X5634428Y-7967452D01*
X5624905Y-7957928D01*
X5615381Y-7938881D01*
X5615381Y-7881738D01*
X5624905Y-7862690D01*
X5634428Y-7853167D01*
X5653476Y-7843643D01*
X5682048Y-7843643D01*
X5701095Y-7853167D01*
X5710619Y-7862690D01*
X5720143Y-7881738D01*
X5720143Y-7938881D01*
X5710619Y-7957928D01*
X5701095Y-7967452D01*
X5682048Y-7976976D01*
X5653476Y-7976976D01*
X5834428Y-7976976D02*
X5815381Y-7967452D01*
X5805857Y-7948405D01*
X5805857Y-7776976D01*
X5986809Y-7967452D02*
X5967762Y-7976976D01*
X5929667Y-7976976D01*
X5910619Y-7967452D01*
X5901095Y-7948405D01*
X5901095Y-7872214D01*
X5910619Y-7853167D01*
X5929667Y-7843643D01*
X5967762Y-7843643D01*
X5986809Y-7853167D01*
X5996333Y-7872214D01*
X5996333Y-7891262D01*
X5901095Y-7910309D01*
X6072524Y-7967452D02*
X6091571Y-7976976D01*
X6129667Y-7976976D01*
X6148714Y-7967452D01*
X6158238Y-7948405D01*
X6158238Y-7938881D01*
X6148714Y-7919833D01*
X6129667Y-7910309D01*
X6101095Y-7910309D01*
X6082048Y-7900786D01*
X6072524Y-7881738D01*
X6072524Y-7872214D01*
X6082048Y-7853167D01*
X6101095Y-7843643D01*
X6129667Y-7843643D01*
X6148714Y-7853167D01*
X6224905Y-8053167D02*
X6234428Y-8043643D01*
X6253476Y-8015071D01*
X6263000Y-7996024D01*
X6272524Y-7967452D01*
X6282048Y-7919833D01*
X6282048Y-7881738D01*
X6272524Y-7834119D01*
X6263000Y-7805548D01*
X6253476Y-7786500D01*
X6234428Y-7757928D01*
X6224905Y-7748405D01*
D13*
X1453000Y-8150500D02*
G75*
G03*
X1453000Y-8150500I-35000J0D01*
G01*
D11*
X1748714Y-8040976D02*
X1767762Y-8040976D01*
X1786809Y-8050500D01*
X1796333Y-8060024D01*
X1805857Y-8079071D01*
X1815381Y-8117167D01*
X1815381Y-8164786D01*
X1805857Y-8202881D01*
X1796333Y-8221928D01*
X1786809Y-8231452D01*
X1767762Y-8240976D01*
X1748714Y-8240976D01*
X1729667Y-8231452D01*
X1720143Y-8221928D01*
X1710619Y-8202881D01*
X1701095Y-8164786D01*
X1701095Y-8117167D01*
X1710619Y-8079071D01*
X1720143Y-8060024D01*
X1729667Y-8050500D01*
X1748714Y-8040976D01*
X1901095Y-8221928D02*
X1910619Y-8231452D01*
X1901095Y-8240976D01*
X1891571Y-8231452D01*
X1901095Y-8221928D01*
X1901095Y-8240976D01*
X1977286Y-8040976D02*
X2110619Y-8040976D01*
X2024905Y-8240976D01*
X2224905Y-8040976D02*
X2243952Y-8040976D01*
X2263000Y-8050500D01*
X2272524Y-8060024D01*
X2282048Y-8079071D01*
X2291571Y-8117167D01*
X2291571Y-8164786D01*
X2282048Y-8202881D01*
X2272524Y-8221928D01*
X2263000Y-8231452D01*
X2243952Y-8240976D01*
X2224905Y-8240976D01*
X2205857Y-8231452D01*
X2196333Y-8221928D01*
X2186810Y-8202881D01*
X2177286Y-8164786D01*
X2177286Y-8117167D01*
X2186810Y-8079071D01*
X2196333Y-8060024D01*
X2205857Y-8050500D01*
X2224905Y-8040976D01*
X2415381Y-8040976D02*
X2434429Y-8040976D01*
X2453476Y-8050500D01*
X2463000Y-8060024D01*
X2472524Y-8079071D01*
X2482048Y-8117167D01*
X2482048Y-8164786D01*
X2472524Y-8202881D01*
X2463000Y-8221928D01*
X2453476Y-8231452D01*
X2434429Y-8240976D01*
X2415381Y-8240976D01*
X2396333Y-8231452D01*
X2386810Y-8221928D01*
X2377286Y-8202881D01*
X2367762Y-8164786D01*
X2367762Y-8117167D01*
X2377286Y-8079071D01*
X2386810Y-8060024D01*
X2396333Y-8050500D01*
X2415381Y-8040976D01*
X2567762Y-8240976D02*
X2567762Y-8107643D01*
X2567762Y-8126690D02*
X2577286Y-8117167D01*
X2596333Y-8107643D01*
X2624905Y-8107643D01*
X2643952Y-8117167D01*
X2653476Y-8136214D01*
X2653476Y-8240976D01*
X2653476Y-8136214D02*
X2663000Y-8117167D01*
X2682048Y-8107643D01*
X2710619Y-8107643D01*
X2729667Y-8117167D01*
X2739190Y-8136214D01*
X2739190Y-8240976D01*
X2834428Y-8240976D02*
X2834428Y-8107643D01*
X2834428Y-8126690D02*
X2843952Y-8117167D01*
X2863000Y-8107643D01*
X2891571Y-8107643D01*
X2910619Y-8117167D01*
X2920143Y-8136214D01*
X2920143Y-8240976D01*
X2920143Y-8136214D02*
X2929667Y-8117167D01*
X2948714Y-8107643D01*
X2977286Y-8107643D01*
X2996333Y-8117167D01*
X3005857Y-8136214D01*
X3005857Y-8240976D01*
X3396333Y-8031452D02*
X3224905Y-8288595D01*
X3653476Y-8040976D02*
X3672524Y-8040976D01*
X3691571Y-8050500D01*
X3701095Y-8060024D01*
X3710619Y-8079071D01*
X3720143Y-8117167D01*
X3720143Y-8164786D01*
X3710619Y-8202881D01*
X3701095Y-8221928D01*
X3691571Y-8231452D01*
X3672524Y-8240976D01*
X3653476Y-8240976D01*
X3634428Y-8231452D01*
X3624905Y-8221928D01*
X3615381Y-8202881D01*
X3605857Y-8164786D01*
X3605857Y-8117167D01*
X3615381Y-8079071D01*
X3624905Y-8060024D01*
X3634428Y-8050500D01*
X3653476Y-8040976D01*
X3805857Y-8221928D02*
X3815381Y-8231452D01*
X3805857Y-8240976D01*
X3796333Y-8231452D01*
X3805857Y-8221928D01*
X3805857Y-8240976D01*
X3939190Y-8040976D02*
X3958238Y-8040976D01*
X3977286Y-8050500D01*
X3986809Y-8060024D01*
X3996333Y-8079071D01*
X4005857Y-8117167D01*
X4005857Y-8164786D01*
X3996333Y-8202881D01*
X3986809Y-8221928D01*
X3977286Y-8231452D01*
X3958238Y-8240976D01*
X3939190Y-8240976D01*
X3920143Y-8231452D01*
X3910619Y-8221928D01*
X3901095Y-8202881D01*
X3891571Y-8164786D01*
X3891571Y-8117167D01*
X3901095Y-8079071D01*
X3910619Y-8060024D01*
X3920143Y-8050500D01*
X3939190Y-8040976D01*
X4082048Y-8060024D02*
X4091571Y-8050500D01*
X4110619Y-8040976D01*
X4158238Y-8040976D01*
X4177286Y-8050500D01*
X4186809Y-8060024D01*
X4196333Y-8079071D01*
X4196333Y-8098119D01*
X4186809Y-8126690D01*
X4072524Y-8240976D01*
X4196333Y-8240976D01*
X4263000Y-8040976D02*
X4396333Y-8040976D01*
X4310619Y-8240976D01*
X4558238Y-8040976D02*
X4520143Y-8040976D01*
X4501095Y-8050500D01*
X4491571Y-8060024D01*
X4472524Y-8088595D01*
X4463000Y-8126690D01*
X4463000Y-8202881D01*
X4472524Y-8221928D01*
X4482048Y-8231452D01*
X4501095Y-8240976D01*
X4539190Y-8240976D01*
X4558238Y-8231452D01*
X4567762Y-8221928D01*
X4577286Y-8202881D01*
X4577286Y-8155262D01*
X4567762Y-8136214D01*
X4558238Y-8126690D01*
X4539190Y-8117167D01*
X4501095Y-8117167D01*
X4482048Y-8126690D01*
X4472524Y-8136214D01*
X4463000Y-8155262D01*
X4653476Y-8040976D02*
X4653476Y-8079071D01*
X4729667Y-8040976D02*
X4729667Y-8079071D01*
X5024905Y-8317167D02*
X5015381Y-8307643D01*
X4996333Y-8279071D01*
X4986810Y-8260024D01*
X4977286Y-8231452D01*
X4967762Y-8183833D01*
X4967762Y-8145738D01*
X4977286Y-8098119D01*
X4986810Y-8069548D01*
X4996333Y-8050500D01*
X5015381Y-8021928D01*
X5024905Y-8012405D01*
X5205857Y-8240976D02*
X5091571Y-8240976D01*
X5148714Y-8240976D02*
X5148714Y-8040976D01*
X5129667Y-8069548D01*
X5110619Y-8088595D01*
X5091571Y-8098119D01*
X5329667Y-8040976D02*
X5348714Y-8040976D01*
X5367762Y-8050500D01*
X5377286Y-8060024D01*
X5386810Y-8079071D01*
X5396333Y-8117167D01*
X5396333Y-8164786D01*
X5386810Y-8202881D01*
X5377286Y-8221928D01*
X5367762Y-8231452D01*
X5348714Y-8240976D01*
X5329667Y-8240976D01*
X5310619Y-8231452D01*
X5301095Y-8221928D01*
X5291571Y-8202881D01*
X5282048Y-8164786D01*
X5282048Y-8117167D01*
X5291571Y-8079071D01*
X5301095Y-8060024D01*
X5310619Y-8050500D01*
X5329667Y-8040976D01*
X5634428Y-8240976D02*
X5634428Y-8040976D01*
X5720143Y-8240976D02*
X5720143Y-8136214D01*
X5710619Y-8117167D01*
X5691571Y-8107643D01*
X5663000Y-8107643D01*
X5643952Y-8117167D01*
X5634428Y-8126690D01*
X5843952Y-8240976D02*
X5824905Y-8231452D01*
X5815381Y-8221928D01*
X5805857Y-8202881D01*
X5805857Y-8145738D01*
X5815381Y-8126690D01*
X5824905Y-8117167D01*
X5843952Y-8107643D01*
X5872524Y-8107643D01*
X5891571Y-8117167D01*
X5901095Y-8126690D01*
X5910619Y-8145738D01*
X5910619Y-8202881D01*
X5901095Y-8221928D01*
X5891571Y-8231452D01*
X5872524Y-8240976D01*
X5843952Y-8240976D01*
X6024905Y-8240976D02*
X6005857Y-8231452D01*
X5996333Y-8212405D01*
X5996333Y-8040976D01*
X6177286Y-8231452D02*
X6158238Y-8240976D01*
X6120143Y-8240976D01*
X6101095Y-8231452D01*
X6091571Y-8212405D01*
X6091571Y-8136214D01*
X6101095Y-8117167D01*
X6120143Y-8107643D01*
X6158238Y-8107643D01*
X6177286Y-8117167D01*
X6186809Y-8136214D01*
X6186809Y-8155262D01*
X6091571Y-8174309D01*
X6263000Y-8231452D02*
X6282048Y-8240976D01*
X6320143Y-8240976D01*
X6339190Y-8231452D01*
X6348714Y-8212405D01*
X6348714Y-8202881D01*
X6339190Y-8183833D01*
X6320143Y-8174309D01*
X6291571Y-8174309D01*
X6272524Y-8164786D01*
X6263000Y-8145738D01*
X6263000Y-8136214D01*
X6272524Y-8117167D01*
X6291571Y-8107643D01*
X6320143Y-8107643D01*
X6339190Y-8117167D01*
X6415381Y-8317167D02*
X6424905Y-8307643D01*
X6443952Y-8279071D01*
X6453476Y-8260024D01*
X6463000Y-8231452D01*
X6472524Y-8183833D01*
X6472524Y-8145738D01*
X6463000Y-8098119D01*
X6453476Y-8069548D01*
X6443952Y-8050500D01*
X6424905Y-8021928D01*
X6415381Y-8012405D01*
D14*
X1413000Y-8374500D02*
X1413000Y-8454500D01*
X1373000Y-8414500D02*
X1453000Y-8414500D01*
D11*
X1748714Y-8304976D02*
X1767762Y-8304976D01*
X1786809Y-8314500D01*
X1796333Y-8324024D01*
X1805857Y-8343071D01*
X1815381Y-8381167D01*
X1815381Y-8428786D01*
X1805857Y-8466881D01*
X1796333Y-8485929D01*
X1786809Y-8495452D01*
X1767762Y-8504976D01*
X1748714Y-8504976D01*
X1729667Y-8495452D01*
X1720143Y-8485929D01*
X1710619Y-8466881D01*
X1701095Y-8428786D01*
X1701095Y-8381167D01*
X1710619Y-8343071D01*
X1720143Y-8324024D01*
X1729667Y-8314500D01*
X1748714Y-8304976D01*
X1901095Y-8485929D02*
X1910619Y-8495452D01*
X1901095Y-8504976D01*
X1891571Y-8495452D01*
X1901095Y-8485929D01*
X1901095Y-8504976D01*
X2024905Y-8390690D02*
X2005857Y-8381167D01*
X1996333Y-8371643D01*
X1986809Y-8352595D01*
X1986809Y-8343071D01*
X1996333Y-8324024D01*
X2005857Y-8314500D01*
X2024905Y-8304976D01*
X2063000Y-8304976D01*
X2082048Y-8314500D01*
X2091571Y-8324024D01*
X2101095Y-8343071D01*
X2101095Y-8352595D01*
X2091571Y-8371643D01*
X2082048Y-8381167D01*
X2063000Y-8390690D01*
X2024905Y-8390690D01*
X2005857Y-8400214D01*
X1996333Y-8409738D01*
X1986809Y-8428786D01*
X1986809Y-8466881D01*
X1996333Y-8485929D01*
X2005857Y-8495452D01*
X2024905Y-8504976D01*
X2063000Y-8504976D01*
X2082048Y-8495452D01*
X2091571Y-8485929D01*
X2101095Y-8466881D01*
X2101095Y-8428786D01*
X2091571Y-8409738D01*
X2082048Y-8400214D01*
X2063000Y-8390690D01*
X2224905Y-8304976D02*
X2243952Y-8304976D01*
X2263000Y-8314500D01*
X2272524Y-8324024D01*
X2282048Y-8343071D01*
X2291571Y-8381167D01*
X2291571Y-8428786D01*
X2282048Y-8466881D01*
X2272524Y-8485929D01*
X2263000Y-8495452D01*
X2243952Y-8504976D01*
X2224905Y-8504976D01*
X2205857Y-8495452D01*
X2196333Y-8485929D01*
X2186810Y-8466881D01*
X2177286Y-8428786D01*
X2177286Y-8381167D01*
X2186810Y-8343071D01*
X2196333Y-8324024D01*
X2205857Y-8314500D01*
X2224905Y-8304976D01*
X2415381Y-8304976D02*
X2434429Y-8304976D01*
X2453476Y-8314500D01*
X2463000Y-8324024D01*
X2472524Y-8343071D01*
X2482048Y-8381167D01*
X2482048Y-8428786D01*
X2472524Y-8466881D01*
X2463000Y-8485929D01*
X2453476Y-8495452D01*
X2434429Y-8504976D01*
X2415381Y-8504976D01*
X2396333Y-8495452D01*
X2386810Y-8485929D01*
X2377286Y-8466881D01*
X2367762Y-8428786D01*
X2367762Y-8381167D01*
X2377286Y-8343071D01*
X2386810Y-8324024D01*
X2396333Y-8314500D01*
X2415381Y-8304976D01*
X2567762Y-8504976D02*
X2567762Y-8371643D01*
X2567762Y-8390690D02*
X2577286Y-8381167D01*
X2596333Y-8371643D01*
X2624905Y-8371643D01*
X2643952Y-8381167D01*
X2653476Y-8400214D01*
X2653476Y-8504976D01*
X2653476Y-8400214D02*
X2663000Y-8381167D01*
X2682048Y-8371643D01*
X2710619Y-8371643D01*
X2729667Y-8381167D01*
X2739190Y-8400214D01*
X2739190Y-8504976D01*
X2834428Y-8504976D02*
X2834428Y-8371643D01*
X2834428Y-8390690D02*
X2843952Y-8381167D01*
X2863000Y-8371643D01*
X2891571Y-8371643D01*
X2910619Y-8381167D01*
X2920143Y-8400214D01*
X2920143Y-8504976D01*
X2920143Y-8400214D02*
X2929667Y-8381167D01*
X2948714Y-8371643D01*
X2977286Y-8371643D01*
X2996333Y-8381167D01*
X3005857Y-8400214D01*
X3005857Y-8504976D01*
X3396333Y-8295452D02*
X3224905Y-8552595D01*
X3653476Y-8304976D02*
X3672524Y-8304976D01*
X3691571Y-8314500D01*
X3701095Y-8324024D01*
X3710619Y-8343071D01*
X3720143Y-8381167D01*
X3720143Y-8428786D01*
X3710619Y-8466881D01*
X3701095Y-8485929D01*
X3691571Y-8495452D01*
X3672524Y-8504976D01*
X3653476Y-8504976D01*
X3634428Y-8495452D01*
X3624905Y-8485929D01*
X3615381Y-8466881D01*
X3605857Y-8428786D01*
X3605857Y-8381167D01*
X3615381Y-8343071D01*
X3624905Y-8324024D01*
X3634428Y-8314500D01*
X3653476Y-8304976D01*
X3805857Y-8485929D02*
X3815381Y-8495452D01*
X3805857Y-8504976D01*
X3796333Y-8495452D01*
X3805857Y-8485929D01*
X3805857Y-8504976D01*
X3939190Y-8304976D02*
X3958238Y-8304976D01*
X3977286Y-8314500D01*
X3986809Y-8324024D01*
X3996333Y-8343071D01*
X4005857Y-8381167D01*
X4005857Y-8428786D01*
X3996333Y-8466881D01*
X3986809Y-8485929D01*
X3977286Y-8495452D01*
X3958238Y-8504976D01*
X3939190Y-8504976D01*
X3920143Y-8495452D01*
X3910619Y-8485929D01*
X3901095Y-8466881D01*
X3891571Y-8428786D01*
X3891571Y-8381167D01*
X3901095Y-8343071D01*
X3910619Y-8324024D01*
X3920143Y-8314500D01*
X3939190Y-8304976D01*
X4072524Y-8304976D02*
X4196333Y-8304976D01*
X4129667Y-8381167D01*
X4158238Y-8381167D01*
X4177286Y-8390690D01*
X4186809Y-8400214D01*
X4196333Y-8419262D01*
X4196333Y-8466881D01*
X4186809Y-8485929D01*
X4177286Y-8495452D01*
X4158238Y-8504976D01*
X4101095Y-8504976D01*
X4082048Y-8495452D01*
X4072524Y-8485929D01*
X4386810Y-8504976D02*
X4272524Y-8504976D01*
X4329667Y-8504976D02*
X4329667Y-8304976D01*
X4310619Y-8333548D01*
X4291571Y-8352595D01*
X4272524Y-8362119D01*
X4567762Y-8304976D02*
X4472524Y-8304976D01*
X4463000Y-8400214D01*
X4472524Y-8390690D01*
X4491571Y-8381167D01*
X4539190Y-8381167D01*
X4558238Y-8390690D01*
X4567762Y-8400214D01*
X4577286Y-8419262D01*
X4577286Y-8466881D01*
X4567762Y-8485929D01*
X4558238Y-8495452D01*
X4539190Y-8504976D01*
X4491571Y-8504976D01*
X4472524Y-8495452D01*
X4463000Y-8485929D01*
X4653476Y-8304976D02*
X4653476Y-8343071D01*
X4729667Y-8304976D02*
X4729667Y-8343071D01*
X5024905Y-8581167D02*
X5015381Y-8571643D01*
X4996333Y-8543071D01*
X4986810Y-8524024D01*
X4977286Y-8495452D01*
X4967762Y-8447833D01*
X4967762Y-8409738D01*
X4977286Y-8362119D01*
X4986810Y-8333548D01*
X4996333Y-8314500D01*
X5015381Y-8285928D01*
X5024905Y-8276405D01*
X5205857Y-8504976D02*
X5091571Y-8504976D01*
X5148714Y-8504976D02*
X5148714Y-8304976D01*
X5129667Y-8333548D01*
X5110619Y-8352595D01*
X5091571Y-8362119D01*
X5396333Y-8504976D02*
X5282048Y-8504976D01*
X5339190Y-8504976D02*
X5339190Y-8304976D01*
X5320143Y-8333548D01*
X5301095Y-8352595D01*
X5282048Y-8362119D01*
X5520143Y-8304976D02*
X5539190Y-8304976D01*
X5558238Y-8314500D01*
X5567762Y-8324024D01*
X5577286Y-8343071D01*
X5586810Y-8381167D01*
X5586810Y-8428786D01*
X5577286Y-8466881D01*
X5567762Y-8485929D01*
X5558238Y-8495452D01*
X5539190Y-8504976D01*
X5520143Y-8504976D01*
X5501095Y-8495452D01*
X5491571Y-8485929D01*
X5482048Y-8466881D01*
X5472524Y-8428786D01*
X5472524Y-8381167D01*
X5482048Y-8343071D01*
X5491571Y-8324024D01*
X5501095Y-8314500D01*
X5520143Y-8304976D01*
X5824905Y-8504976D02*
X5824905Y-8304976D01*
X5910619Y-8504976D02*
X5910619Y-8400214D01*
X5901095Y-8381167D01*
X5882048Y-8371643D01*
X5853476Y-8371643D01*
X5834428Y-8381167D01*
X5824905Y-8390690D01*
X6034428Y-8504976D02*
X6015381Y-8495452D01*
X6005857Y-8485929D01*
X5996333Y-8466881D01*
X5996333Y-8409738D01*
X6005857Y-8390690D01*
X6015381Y-8381167D01*
X6034428Y-8371643D01*
X6063000Y-8371643D01*
X6082048Y-8381167D01*
X6091571Y-8390690D01*
X6101095Y-8409738D01*
X6101095Y-8466881D01*
X6091571Y-8485929D01*
X6082048Y-8495452D01*
X6063000Y-8504976D01*
X6034428Y-8504976D01*
X6215381Y-8504976D02*
X6196333Y-8495452D01*
X6186809Y-8476405D01*
X6186809Y-8304976D01*
X6367762Y-8495452D02*
X6348714Y-8504976D01*
X6310619Y-8504976D01*
X6291571Y-8495452D01*
X6282048Y-8476405D01*
X6282048Y-8400214D01*
X6291571Y-8381167D01*
X6310619Y-8371643D01*
X6348714Y-8371643D01*
X6367762Y-8381167D01*
X6377286Y-8400214D01*
X6377286Y-8419262D01*
X6282048Y-8438310D01*
X6453476Y-8495452D02*
X6472524Y-8504976D01*
X6510619Y-8504976D01*
X6529667Y-8495452D01*
X6539190Y-8476405D01*
X6539190Y-8466881D01*
X6529667Y-8447833D01*
X6510619Y-8438310D01*
X6482048Y-8438310D01*
X6463000Y-8428786D01*
X6453476Y-8409738D01*
X6453476Y-8400214D01*
X6463000Y-8381167D01*
X6482048Y-8371643D01*
X6510619Y-8371643D01*
X6529667Y-8381167D01*
X6605857Y-8581167D02*
X6615381Y-8571643D01*
X6634428Y-8543071D01*
X6643952Y-8524024D01*
X6653476Y-8495452D01*
X6663000Y-8447833D01*
X6663000Y-8409738D01*
X6653476Y-8362119D01*
X6643952Y-8333548D01*
X6634428Y-8314500D01*
X6615381Y-8285928D01*
X6605857Y-8276405D01*
D15*
X1438356Y-8713856D02*
X1438356Y-8643144D01*
X1367644Y-8643144D01*
X1367644Y-8713856D01*
X1438356Y-8713856D01*
D11*
X1815381Y-8768976D02*
X1701095Y-8768976D01*
X1758238Y-8768976D02*
X1758238Y-8568976D01*
X1739190Y-8597548D01*
X1720143Y-8616595D01*
X1701095Y-8626119D01*
X1901095Y-8749929D02*
X1910619Y-8759452D01*
X1901095Y-8768976D01*
X1891571Y-8759452D01*
X1901095Y-8749929D01*
X1901095Y-8768976D01*
X2034428Y-8568976D02*
X2053476Y-8568976D01*
X2072524Y-8578500D01*
X2082048Y-8588024D01*
X2091571Y-8607071D01*
X2101095Y-8645167D01*
X2101095Y-8692786D01*
X2091571Y-8730881D01*
X2082048Y-8749929D01*
X2072524Y-8759452D01*
X2053476Y-8768976D01*
X2034428Y-8768976D01*
X2015381Y-8759452D01*
X2005857Y-8749929D01*
X1996333Y-8730881D01*
X1986809Y-8692786D01*
X1986809Y-8645167D01*
X1996333Y-8607071D01*
X2005857Y-8588024D01*
X2015381Y-8578500D01*
X2034428Y-8568976D01*
X2224905Y-8568976D02*
X2243952Y-8568976D01*
X2263000Y-8578500D01*
X2272524Y-8588024D01*
X2282048Y-8607071D01*
X2291571Y-8645167D01*
X2291571Y-8692786D01*
X2282048Y-8730881D01*
X2272524Y-8749929D01*
X2263000Y-8759452D01*
X2243952Y-8768976D01*
X2224905Y-8768976D01*
X2205857Y-8759452D01*
X2196333Y-8749929D01*
X2186810Y-8730881D01*
X2177286Y-8692786D01*
X2177286Y-8645167D01*
X2186810Y-8607071D01*
X2196333Y-8588024D01*
X2205857Y-8578500D01*
X2224905Y-8568976D01*
X2415381Y-8568976D02*
X2434429Y-8568976D01*
X2453476Y-8578500D01*
X2463000Y-8588024D01*
X2472524Y-8607071D01*
X2482048Y-8645167D01*
X2482048Y-8692786D01*
X2472524Y-8730881D01*
X2463000Y-8749929D01*
X2453476Y-8759452D01*
X2434429Y-8768976D01*
X2415381Y-8768976D01*
X2396333Y-8759452D01*
X2386810Y-8749929D01*
X2377286Y-8730881D01*
X2367762Y-8692786D01*
X2367762Y-8645167D01*
X2377286Y-8607071D01*
X2386810Y-8588024D01*
X2396333Y-8578500D01*
X2415381Y-8568976D01*
X2567762Y-8768976D02*
X2567762Y-8635643D01*
X2567762Y-8654690D02*
X2577286Y-8645167D01*
X2596333Y-8635643D01*
X2624905Y-8635643D01*
X2643952Y-8645167D01*
X2653476Y-8664214D01*
X2653476Y-8768976D01*
X2653476Y-8664214D02*
X2663000Y-8645167D01*
X2682048Y-8635643D01*
X2710619Y-8635643D01*
X2729667Y-8645167D01*
X2739190Y-8664214D01*
X2739190Y-8768976D01*
X2834428Y-8768976D02*
X2834428Y-8635643D01*
X2834428Y-8654690D02*
X2843952Y-8645167D01*
X2863000Y-8635643D01*
X2891571Y-8635643D01*
X2910619Y-8645167D01*
X2920143Y-8664214D01*
X2920143Y-8768976D01*
X2920143Y-8664214D02*
X2929667Y-8645167D01*
X2948714Y-8635643D01*
X2977286Y-8635643D01*
X2996333Y-8645167D01*
X3005857Y-8664214D01*
X3005857Y-8768976D01*
X3396333Y-8559452D02*
X3224905Y-8816595D01*
X3653476Y-8568976D02*
X3672524Y-8568976D01*
X3691571Y-8578500D01*
X3701095Y-8588024D01*
X3710619Y-8607071D01*
X3720143Y-8645167D01*
X3720143Y-8692786D01*
X3710619Y-8730881D01*
X3701095Y-8749929D01*
X3691571Y-8759452D01*
X3672524Y-8768976D01*
X3653476Y-8768976D01*
X3634428Y-8759452D01*
X3624905Y-8749929D01*
X3615381Y-8730881D01*
X3605857Y-8692786D01*
X3605857Y-8645167D01*
X3615381Y-8607071D01*
X3624905Y-8588024D01*
X3634428Y-8578500D01*
X3653476Y-8568976D01*
X3805857Y-8749929D02*
X3815381Y-8759452D01*
X3805857Y-8768976D01*
X3796333Y-8759452D01*
X3805857Y-8749929D01*
X3805857Y-8768976D01*
X3939190Y-8568976D02*
X3958238Y-8568976D01*
X3977286Y-8578500D01*
X3986809Y-8588024D01*
X3996333Y-8607071D01*
X4005857Y-8645167D01*
X4005857Y-8692786D01*
X3996333Y-8730881D01*
X3986809Y-8749929D01*
X3977286Y-8759452D01*
X3958238Y-8768976D01*
X3939190Y-8768976D01*
X3920143Y-8759452D01*
X3910619Y-8749929D01*
X3901095Y-8730881D01*
X3891571Y-8692786D01*
X3891571Y-8645167D01*
X3901095Y-8607071D01*
X3910619Y-8588024D01*
X3920143Y-8578500D01*
X3939190Y-8568976D01*
X4072524Y-8568976D02*
X4196333Y-8568976D01*
X4129667Y-8645167D01*
X4158238Y-8645167D01*
X4177286Y-8654690D01*
X4186809Y-8664214D01*
X4196333Y-8683262D01*
X4196333Y-8730881D01*
X4186809Y-8749929D01*
X4177286Y-8759452D01*
X4158238Y-8768976D01*
X4101095Y-8768976D01*
X4082048Y-8759452D01*
X4072524Y-8749929D01*
X4291571Y-8768976D02*
X4329667Y-8768976D01*
X4348714Y-8759452D01*
X4358238Y-8749929D01*
X4377286Y-8721357D01*
X4386810Y-8683262D01*
X4386810Y-8607071D01*
X4377286Y-8588024D01*
X4367762Y-8578500D01*
X4348714Y-8568976D01*
X4310619Y-8568976D01*
X4291571Y-8578500D01*
X4282048Y-8588024D01*
X4272524Y-8607071D01*
X4272524Y-8654690D01*
X4282048Y-8673738D01*
X4291571Y-8683262D01*
X4310619Y-8692786D01*
X4348714Y-8692786D01*
X4367762Y-8683262D01*
X4377286Y-8673738D01*
X4386810Y-8654690D01*
X4558238Y-8635643D02*
X4558238Y-8768976D01*
X4510619Y-8559452D02*
X4463000Y-8702310D01*
X4586810Y-8702310D01*
X4653476Y-8568976D02*
X4653476Y-8607071D01*
X4729667Y-8568976D02*
X4729667Y-8607071D01*
X5024905Y-8845167D02*
X5015381Y-8835643D01*
X4996333Y-8807071D01*
X4986810Y-8788024D01*
X4977286Y-8759452D01*
X4967762Y-8711833D01*
X4967762Y-8673738D01*
X4977286Y-8626119D01*
X4986810Y-8597548D01*
X4996333Y-8578500D01*
X5015381Y-8549929D01*
X5024905Y-8540405D01*
X5091571Y-8588024D02*
X5101095Y-8578500D01*
X5120143Y-8568976D01*
X5167762Y-8568976D01*
X5186810Y-8578500D01*
X5196333Y-8588024D01*
X5205857Y-8607071D01*
X5205857Y-8626119D01*
X5196333Y-8654690D01*
X5082048Y-8768976D01*
X5205857Y-8768976D01*
X5282048Y-8588024D02*
X5291571Y-8578500D01*
X5310619Y-8568976D01*
X5358238Y-8568976D01*
X5377286Y-8578500D01*
X5386810Y-8588024D01*
X5396333Y-8607071D01*
X5396333Y-8626119D01*
X5386810Y-8654690D01*
X5272524Y-8768976D01*
X5396333Y-8768976D01*
X5634428Y-8768976D02*
X5634428Y-8568976D01*
X5720143Y-8768976D02*
X5720143Y-8664214D01*
X5710619Y-8645167D01*
X5691571Y-8635643D01*
X5663000Y-8635643D01*
X5643952Y-8645167D01*
X5634428Y-8654690D01*
X5843952Y-8768976D02*
X5824905Y-8759452D01*
X5815381Y-8749929D01*
X5805857Y-8730881D01*
X5805857Y-8673738D01*
X5815381Y-8654690D01*
X5824905Y-8645167D01*
X5843952Y-8635643D01*
X5872524Y-8635643D01*
X5891571Y-8645167D01*
X5901095Y-8654690D01*
X5910619Y-8673738D01*
X5910619Y-8730881D01*
X5901095Y-8749929D01*
X5891571Y-8759452D01*
X5872524Y-8768976D01*
X5843952Y-8768976D01*
X6024905Y-8768976D02*
X6005857Y-8759452D01*
X5996333Y-8740405D01*
X5996333Y-8568976D01*
X6177286Y-8759452D02*
X6158238Y-8768976D01*
X6120143Y-8768976D01*
X6101095Y-8759452D01*
X6091571Y-8740405D01*
X6091571Y-8664214D01*
X6101095Y-8645167D01*
X6120143Y-8635643D01*
X6158238Y-8635643D01*
X6177286Y-8645167D01*
X6186809Y-8664214D01*
X6186809Y-8683262D01*
X6091571Y-8702310D01*
X6263000Y-8759452D02*
X6282048Y-8768976D01*
X6320143Y-8768976D01*
X6339190Y-8759452D01*
X6348714Y-8740405D01*
X6348714Y-8730881D01*
X6339190Y-8711833D01*
X6320143Y-8702310D01*
X6291571Y-8702310D01*
X6272524Y-8692786D01*
X6263000Y-8673738D01*
X6263000Y-8664214D01*
X6272524Y-8645167D01*
X6291571Y-8635643D01*
X6320143Y-8635643D01*
X6339190Y-8645167D01*
X6415381Y-8845167D02*
X6424905Y-8835643D01*
X6443952Y-8807071D01*
X6453476Y-8788024D01*
X6463000Y-8759452D01*
X6472524Y-8711833D01*
X6472524Y-8673738D01*
X6463000Y-8626119D01*
X6453476Y-8597548D01*
X6443952Y-8578500D01*
X6424905Y-8549929D01*
X6415381Y-8540405D01*
M02*
