G04 #@! TF.GenerationSoftware,KiCad,Pcbnew,6.0.4+dfsg-1+b1*
G04 #@! TF.CreationDate,2022-04-24T01:38:01+03:00*
G04 #@! TF.ProjectId,yatabaza-synth,79617461-6261-47a6-912d-73796e74682e,rev?*
G04 #@! TF.SameCoordinates,Original*
G04 #@! TF.FileFunction,Copper,L1,Top*
G04 #@! TF.FilePolarity,Positive*
%FSLAX46Y46*%
G04 Gerber Fmt 4.6, Leading zero omitted, Abs format (unit mm)*
G04 Created by KiCad (PCBNEW 6.0.4+dfsg-1+b1) date 2022-04-24 01:38:01*
%MOMM*%
%LPD*%
G01*
G04 APERTURE LIST*
G04 #@! TA.AperFunction,ComponentPad*
%ADD10C,1.600000*%
G04 #@! TD*
G04 #@! TA.AperFunction,ComponentPad*
%ADD11R,1.600000X1.600000*%
G04 #@! TD*
G04 #@! TA.AperFunction,ComponentPad*
%ADD12C,1.400000*%
G04 #@! TD*
G04 #@! TA.AperFunction,ComponentPad*
%ADD13O,1.400000X1.400000*%
G04 #@! TD*
G04 #@! TA.AperFunction,ComponentPad*
%ADD14O,1.600000X1.600000*%
G04 #@! TD*
G04 #@! TA.AperFunction,ComponentPad*
%ADD15C,1.500000*%
G04 #@! TD*
G04 #@! TA.AperFunction,ComponentPad*
%ADD16R,1.700000X1.700000*%
G04 #@! TD*
G04 #@! TA.AperFunction,ComponentPad*
%ADD17O,1.700000X1.700000*%
G04 #@! TD*
G04 #@! TA.AperFunction,ViaPad*
%ADD18C,0.600000*%
G04 #@! TD*
G04 #@! TA.AperFunction,Conductor*
%ADD19C,0.750000*%
G04 #@! TD*
G04 #@! TA.AperFunction,Conductor*
%ADD20C,0.375000*%
G04 #@! TD*
G04 #@! TA.AperFunction,Conductor*
%ADD21C,0.250000*%
G04 #@! TD*
G04 APERTURE END LIST*
D10*
X48895000Y-39370000D03*
X51395000Y-39370000D03*
X53975000Y-52070000D03*
X56475000Y-52070000D03*
D11*
X50165000Y-54610000D03*
D10*
X47665000Y-54610000D03*
D11*
X47625000Y-61595000D03*
D10*
X50125000Y-61595000D03*
X27325000Y-63182500D03*
X29825000Y-63182500D03*
X29210000Y-26670000D03*
X31710000Y-26670000D03*
X27940000Y-15240000D03*
X27940000Y-17740000D03*
X56515000Y-39370000D03*
X54015000Y-39370000D03*
X17780000Y-22860000D03*
X17780000Y-20360000D03*
X17780000Y-15240000D03*
X17780000Y-17740000D03*
D11*
X52705000Y-22860000D03*
D10*
X52705000Y-20360000D03*
D11*
X57785000Y-61277500D03*
D10*
X57785000Y-63777500D03*
D11*
X57785000Y-58102500D03*
D10*
X57785000Y-55602500D03*
D12*
X25450000Y-22860000D03*
D13*
X27990000Y-22860000D03*
D12*
X27890000Y-20310000D03*
D13*
X25350000Y-20310000D03*
D12*
X56515000Y-66040000D03*
D13*
X53975000Y-66040000D03*
D11*
X17780000Y-27940000D03*
D14*
X17780000Y-30480000D03*
X17780000Y-33020000D03*
X17780000Y-35560000D03*
X17780000Y-38100000D03*
X17780000Y-40640000D03*
X17780000Y-43180000D03*
X17780000Y-45720000D03*
X17780000Y-48260000D03*
X17780000Y-50800000D03*
X17780000Y-53340000D03*
X17780000Y-55880000D03*
X17780000Y-58420000D03*
X17780000Y-60960000D03*
X25400000Y-60960000D03*
X25400000Y-58420000D03*
X25400000Y-55880000D03*
X25400000Y-53340000D03*
X25400000Y-50800000D03*
X25400000Y-48260000D03*
X25400000Y-45720000D03*
X25400000Y-43180000D03*
X25400000Y-40640000D03*
X25400000Y-38100000D03*
X25400000Y-35560000D03*
X25400000Y-33020000D03*
X25400000Y-30480000D03*
X25400000Y-27940000D03*
D11*
X29210000Y-30480000D03*
D14*
X29210000Y-33020000D03*
X29210000Y-35560000D03*
X29210000Y-38100000D03*
X29210000Y-40640000D03*
X29210000Y-43180000D03*
X29210000Y-45720000D03*
X29210000Y-48260000D03*
X29210000Y-50800000D03*
X29210000Y-53340000D03*
X29210000Y-55880000D03*
X29210000Y-58420000D03*
X44450000Y-58420000D03*
X44450000Y-55880000D03*
X44450000Y-53340000D03*
X44450000Y-50800000D03*
X44450000Y-48260000D03*
X44450000Y-45720000D03*
X44450000Y-43180000D03*
X44450000Y-40640000D03*
X44450000Y-38100000D03*
X44450000Y-35560000D03*
X44450000Y-33020000D03*
X44450000Y-30480000D03*
D11*
X31750000Y-22860000D03*
D14*
X34290000Y-22860000D03*
X36830000Y-22860000D03*
X39370000Y-22860000D03*
X41910000Y-22860000D03*
X44450000Y-22860000D03*
X46990000Y-22860000D03*
X46990000Y-15240000D03*
X44450000Y-15240000D03*
X41910000Y-15240000D03*
X39370000Y-15240000D03*
X36830000Y-15240000D03*
X34290000Y-15240000D03*
X31750000Y-15240000D03*
D11*
X56515000Y-35560000D03*
D14*
X56515000Y-33020000D03*
X56515000Y-30480000D03*
X56515000Y-27940000D03*
X48895000Y-27940000D03*
X48895000Y-30480000D03*
X48895000Y-33020000D03*
X48895000Y-35560000D03*
D11*
X48895000Y-49530000D03*
D14*
X51435000Y-49530000D03*
X53975000Y-49530000D03*
X56515000Y-49530000D03*
X56515000Y-41910000D03*
X53975000Y-41910000D03*
X51435000Y-41910000D03*
X48895000Y-41910000D03*
D15*
X21590000Y-21590000D03*
X21590000Y-16710000D03*
D12*
X27305000Y-66675000D03*
D13*
X27305000Y-69215000D03*
D12*
X53340000Y-60910000D03*
D13*
X53340000Y-58370000D03*
D16*
X31115000Y-66675000D03*
D17*
X31115000Y-69215000D03*
X33655000Y-66675000D03*
X33655000Y-69215000D03*
X36195000Y-66675000D03*
X36195000Y-69215000D03*
X38735000Y-66675000D03*
X38735000Y-69215000D03*
X41275000Y-66675000D03*
X41275000Y-69215000D03*
D16*
X36195000Y-19685000D03*
D17*
X38735000Y-19685000D03*
D16*
X18415000Y-66675000D03*
D17*
X18415000Y-69215000D03*
X20955000Y-66675000D03*
X20955000Y-69215000D03*
X23495000Y-66675000D03*
X23495000Y-69215000D03*
D16*
X53975000Y-69215000D03*
D17*
X56515000Y-69215000D03*
D16*
X36195000Y-26035000D03*
D17*
X38735000Y-26035000D03*
D18*
X21590000Y-60325000D03*
X21590000Y-58420000D03*
X21590000Y-56515000D03*
D19*
X41910000Y-64770000D02*
X50800000Y-64770000D01*
X48895000Y-41910000D02*
X48895000Y-39370000D01*
X46990000Y-43815000D02*
X48895000Y-41910000D01*
X50800000Y-64770000D02*
X51499511Y-64070489D01*
X41275000Y-65405000D02*
X41910000Y-64770000D01*
X51499511Y-64070489D02*
X51499511Y-55944511D01*
X41275000Y-69215000D02*
X41275000Y-65405000D01*
X46990000Y-51435000D02*
X46990000Y-43815000D01*
X51499511Y-55944511D02*
X50165000Y-54610000D01*
X50165000Y-54610000D02*
X46990000Y-51435000D01*
X29845000Y-15240000D02*
X31750000Y-15240000D01*
X29845000Y-26035000D02*
X29210000Y-26670000D01*
X36195000Y-65405000D02*
X35560000Y-64770000D01*
X35560000Y-64770000D02*
X27940000Y-64770000D01*
X27940000Y-64770000D02*
X27305000Y-64135000D01*
X27305000Y-64135000D02*
X27305000Y-63500000D01*
X36195000Y-70485000D02*
X36830000Y-71120000D01*
X59055000Y-71120000D02*
X59690000Y-70485000D01*
X59690000Y-70485000D02*
X59690000Y-39370000D01*
X29845000Y-13970000D02*
X30480000Y-13335000D01*
X30480000Y-13335000D02*
X55245000Y-13335000D01*
X59690000Y-17780000D02*
X59690000Y-39370000D01*
X59690000Y-17780000D02*
X55245000Y-13335000D01*
X36830000Y-71120000D02*
X59055000Y-71120000D01*
X36195000Y-69215000D02*
X36195000Y-70485000D01*
X27940000Y-15240000D02*
X29845000Y-15240000D01*
X29845000Y-15240000D02*
X29845000Y-26035000D01*
X36195000Y-69215000D02*
X36195000Y-66675000D01*
X36195000Y-66675000D02*
X36195000Y-65405000D01*
X29845000Y-15240000D02*
X29845000Y-13970000D01*
X59690000Y-39370000D02*
X56515000Y-39370000D01*
X56515000Y-39370000D02*
X56515000Y-35560000D01*
D20*
X20320000Y-15240000D02*
X21590000Y-16510000D01*
X25400000Y-22860000D02*
X25400000Y-20320000D01*
X21590000Y-16510000D02*
X25400000Y-20320000D01*
X17780000Y-15240000D02*
X20320000Y-15240000D01*
X50165000Y-33020000D02*
X50800000Y-32385000D01*
X50800000Y-25400000D02*
X51435000Y-24765000D01*
X51435000Y-24765000D02*
X52070000Y-24765000D01*
X48895000Y-33020000D02*
X50165000Y-33020000D01*
X52705000Y-24130000D02*
X52070000Y-24765000D01*
X52705000Y-22860000D02*
X52705000Y-24130000D01*
X50800000Y-25400000D02*
X50800000Y-32385000D01*
D21*
X18415000Y-70485000D02*
X19050000Y-71120000D01*
X19050000Y-71120000D02*
X25400000Y-71120000D01*
X26035000Y-69215000D02*
X26035000Y-70485000D01*
X26035000Y-70485000D02*
X25400000Y-71120000D01*
X26035000Y-69215000D02*
X26035000Y-62547500D01*
X27305000Y-53975000D02*
X26670000Y-53340000D01*
X27305000Y-69215000D02*
X26035000Y-69215000D01*
X18415000Y-69215000D02*
X18415000Y-70485000D01*
X27305000Y-61277500D02*
X27305000Y-53975000D01*
X26035000Y-62547500D02*
X27305000Y-61277500D01*
X26670000Y-53340000D02*
X25400000Y-53340000D01*
X17780000Y-55880000D02*
X16510000Y-57150000D01*
X16510000Y-57150000D02*
X16510000Y-66040000D01*
X16510000Y-66040000D02*
X17145000Y-66675000D01*
X17145000Y-66675000D02*
X18415000Y-66675000D01*
X27305000Y-33020000D02*
X26035000Y-31750000D01*
X26035000Y-31750000D02*
X24130000Y-31750000D01*
X24130000Y-31750000D02*
X23495000Y-31115000D01*
X23495000Y-31115000D02*
X23495000Y-26670000D01*
X23495000Y-26670000D02*
X22860000Y-26035000D01*
X22860000Y-26035000D02*
X16510000Y-26035000D01*
X16510000Y-26035000D02*
X15875000Y-26670000D01*
X15875000Y-67310000D02*
X16510000Y-67945000D01*
X16510000Y-67945000D02*
X22225000Y-67945000D01*
X22225000Y-67945000D02*
X23495000Y-69215000D01*
X15875000Y-26670000D02*
X15875000Y-67310000D01*
X29210000Y-33020000D02*
X27305000Y-33020000D01*
X18415000Y-58420000D02*
X19050000Y-59055000D01*
X19050000Y-59055000D02*
X19050000Y-64135000D01*
X19050000Y-64135000D02*
X19685000Y-64770000D01*
X19685000Y-64770000D02*
X22860000Y-64770000D01*
X22860000Y-64770000D02*
X23495000Y-65405000D01*
X23495000Y-65405000D02*
X23495000Y-66675000D01*
D20*
X34290000Y-22860000D02*
X34290000Y-15240000D01*
X51435000Y-49530000D02*
X52705000Y-50800000D01*
X52705000Y-50800000D02*
X52705000Y-57785000D01*
X52705000Y-57785000D02*
X53340000Y-58420000D01*
X48895000Y-49530000D02*
X51435000Y-49530000D01*
D21*
X27305000Y-38100000D02*
X26035000Y-36830000D01*
X26035000Y-36830000D02*
X22860000Y-36830000D01*
X22860000Y-36830000D02*
X22225000Y-36195000D01*
X22225000Y-36195000D02*
X22225000Y-28575000D01*
X22225000Y-28575000D02*
X21590000Y-27940000D01*
X21590000Y-27940000D02*
X17780000Y-27940000D01*
X29210000Y-38100000D02*
X27305000Y-38100000D01*
X27305000Y-40640000D02*
X26035000Y-39370000D01*
X26035000Y-39370000D02*
X22225000Y-39370000D01*
X22225000Y-39370000D02*
X21590000Y-38735000D01*
X21590000Y-38735000D02*
X21590000Y-31115000D01*
X21590000Y-31115000D02*
X20955000Y-30480000D01*
X20955000Y-30480000D02*
X17780000Y-30480000D01*
X29210000Y-40640000D02*
X27305000Y-40640000D01*
X27305000Y-43180000D02*
X26035000Y-41910000D01*
X26035000Y-41910000D02*
X21590000Y-41910000D01*
X21590000Y-41910000D02*
X20955000Y-41275000D01*
X20955000Y-41275000D02*
X20955000Y-33655000D01*
X20320000Y-33020000D02*
X17780000Y-33020000D01*
X20955000Y-33655000D02*
X20320000Y-33020000D01*
X29210000Y-43180000D02*
X27305000Y-43180000D01*
X27305000Y-45720000D02*
X26035000Y-44450000D01*
X26035000Y-44450000D02*
X20955000Y-44450000D01*
X20955000Y-44450000D02*
X20320000Y-43815000D01*
X20320000Y-43815000D02*
X20320000Y-36195000D01*
X20320000Y-36195000D02*
X19685000Y-35560000D01*
X19685000Y-35560000D02*
X17780000Y-35560000D01*
X29210000Y-45720000D02*
X27305000Y-45720000D01*
X22860000Y-33655000D02*
X23495000Y-34290000D01*
X16510000Y-26987500D02*
X16827500Y-26670000D01*
X22860000Y-27305000D02*
X22860000Y-33655000D01*
X27305000Y-35560000D02*
X29210000Y-35560000D01*
X16510000Y-45085000D02*
X16510000Y-26987500D01*
X16827500Y-26670000D02*
X22225000Y-26670000D01*
X22225000Y-26670000D02*
X22860000Y-27305000D01*
X23495000Y-34290000D02*
X26035000Y-34290000D01*
X26035000Y-34290000D02*
X27305000Y-35560000D01*
X17145000Y-45720000D02*
X16510000Y-45085000D01*
X34925000Y-52705000D02*
X34925000Y-47625000D01*
X34925000Y-47625000D02*
X34290000Y-46990000D01*
X34290000Y-46990000D02*
X27305000Y-46990000D01*
X26035000Y-45720000D02*
X27305000Y-46990000D01*
X34290000Y-53340000D02*
X34925000Y-52705000D01*
X29210000Y-53340000D02*
X34290000Y-53340000D01*
X29210000Y-55880000D02*
X34925000Y-55880000D01*
X26035000Y-43180000D02*
X27305000Y-44450000D01*
X34925000Y-55880000D02*
X35560000Y-55245000D01*
X35560000Y-55245000D02*
X35560000Y-45085000D01*
X35560000Y-45085000D02*
X34925000Y-44450000D01*
X27305000Y-44450000D02*
X34925000Y-44450000D01*
X26035000Y-40640000D02*
X27305000Y-41910000D01*
X36195000Y-57785000D02*
X36195000Y-42545000D01*
X36830000Y-58420000D02*
X44450000Y-58420000D01*
X27305000Y-41910000D02*
X35560000Y-41910000D01*
X36195000Y-42545000D02*
X35560000Y-41910000D01*
X36830000Y-58420000D02*
X36195000Y-57785000D01*
X37465000Y-55880000D02*
X44450000Y-55880000D01*
X26035000Y-38100000D02*
X27305000Y-39370000D01*
X36830000Y-55245000D02*
X36830000Y-40005000D01*
X36830000Y-40005000D02*
X36195000Y-39370000D01*
X37465000Y-55880000D02*
X36830000Y-55245000D01*
X27305000Y-39370000D02*
X36195000Y-39370000D01*
X38100000Y-53340000D02*
X44450000Y-53340000D01*
X27305000Y-36830000D02*
X26035000Y-35560000D01*
X37465000Y-52705000D02*
X37465000Y-37465000D01*
X38100000Y-53340000D02*
X37465000Y-52705000D01*
X37465000Y-37465000D02*
X36830000Y-36830000D01*
X27305000Y-36830000D02*
X36830000Y-36830000D01*
X26035000Y-33020000D02*
X27305000Y-34290000D01*
X38100000Y-50165000D02*
X38100000Y-34925000D01*
X38735000Y-50800000D02*
X38100000Y-50165000D01*
X27305000Y-34290000D02*
X37465000Y-34290000D01*
X38100000Y-34925000D02*
X37465000Y-34290000D01*
X38735000Y-50800000D02*
X44450000Y-50800000D01*
X26035000Y-30480000D02*
X27305000Y-31750000D01*
X38735000Y-47625000D02*
X38735000Y-32385000D01*
X27305000Y-31750000D02*
X38100000Y-31750000D01*
X39370000Y-48260000D02*
X38735000Y-47625000D01*
X38735000Y-32385000D02*
X38100000Y-31750000D01*
X39370000Y-48260000D02*
X44450000Y-48260000D01*
X39370000Y-45085000D02*
X39370000Y-29845000D01*
X27305000Y-29210000D02*
X26035000Y-27940000D01*
X27305000Y-29210000D02*
X38735000Y-29210000D01*
X39370000Y-29845000D02*
X38735000Y-29210000D01*
X40005000Y-45720000D02*
X39370000Y-45085000D01*
X44450000Y-45720000D02*
X40005000Y-45720000D01*
X46355000Y-40640000D02*
X46990000Y-40005000D01*
X46990000Y-40005000D02*
X46990000Y-37465000D01*
X46990000Y-37465000D02*
X47625000Y-36830000D01*
X47625000Y-36830000D02*
X52705000Y-36830000D01*
X52705000Y-36830000D02*
X53340000Y-36195000D01*
X53340000Y-36195000D02*
X53340000Y-31115000D01*
X53340000Y-31115000D02*
X53975000Y-30480000D01*
X53975000Y-30480000D02*
X56515000Y-30480000D01*
X44450000Y-40640000D02*
X46355000Y-40640000D01*
X44450000Y-38100000D02*
X45720000Y-38100000D01*
X45720000Y-38100000D02*
X46355000Y-37465000D01*
X52705000Y-33655000D02*
X52705000Y-28575000D01*
X53340000Y-27940000D02*
X56515000Y-27940000D01*
X46355000Y-34925000D02*
X46990000Y-34290000D01*
X46990000Y-34290000D02*
X52070000Y-34290000D01*
X46355000Y-37465000D02*
X46355000Y-34925000D01*
X52070000Y-34290000D02*
X52705000Y-33655000D01*
X52705000Y-28575000D02*
X53340000Y-27940000D01*
X46355000Y-33020000D02*
X46990000Y-32385000D01*
X46990000Y-32385000D02*
X46990000Y-28575000D01*
X46990000Y-28575000D02*
X47625000Y-27940000D01*
X47625000Y-27940000D02*
X48895000Y-27940000D01*
X44450000Y-33020000D02*
X46355000Y-33020000D01*
D20*
X46355000Y-16510000D02*
X46990000Y-15875000D01*
X46990000Y-15875000D02*
X46990000Y-15240000D01*
X41910000Y-16510000D02*
X44450000Y-16510000D01*
X37465000Y-16510000D02*
X36830000Y-15875000D01*
X36830000Y-15875000D02*
X36830000Y-15240000D01*
X44450000Y-16510000D02*
X46355000Y-16510000D01*
X44450000Y-26035000D02*
X44450000Y-30480000D01*
X37465000Y-16510000D02*
X41910000Y-16510000D01*
X41910000Y-15240000D02*
X41910000Y-16510000D01*
X44450000Y-22860000D02*
X44450000Y-26035000D01*
X39370000Y-22860000D02*
X39370000Y-25400000D01*
X44450000Y-22860000D02*
X44450000Y-16510000D01*
X44450000Y-26035000D02*
X38735000Y-26035000D01*
X55245000Y-48260000D02*
X55245000Y-33655000D01*
X55245000Y-33655000D02*
X55880000Y-33020000D01*
X55880000Y-33020000D02*
X56515000Y-33020000D01*
X53975000Y-49530000D02*
X55245000Y-48260000D01*
D21*
X21590000Y-60325000D02*
X24765000Y-60325000D01*
X24765000Y-60325000D02*
X25400000Y-60960000D01*
X25400000Y-58420000D02*
X21590000Y-58420000D01*
X21590000Y-56515000D02*
X24765000Y-56515000D01*
X24765000Y-56515000D02*
X25400000Y-55880000D01*
M02*
