G04 #@! TF.GenerationSoftware,KiCad,Pcbnew,6.0.4+dfsg-1+b1*
G04 #@! TF.CreationDate,2022-04-24T01:38:02+03:00*
G04 #@! TF.ProjectId,yatabaza-synth,79617461-6261-47a6-912d-73796e74682e,rev?*
G04 #@! TF.SameCoordinates,Original*
G04 #@! TF.FileFunction,Legend,Bot*
G04 #@! TF.FilePolarity,Positive*
%FSLAX46Y46*%
G04 Gerber Fmt 4.6, Leading zero omitted, Abs format (unit mm)*
G04 Created by KiCad (PCBNEW 6.0.4+dfsg-1+b1) date 2022-04-24 01:38:02*
%MOMM*%
%LPD*%
G01*
G04 APERTURE LIST*
%ADD10C,0.150000*%
%ADD11C,0.120000*%
%ADD12C,1.600000*%
%ADD13R,1.600000X1.600000*%
%ADD14C,1.400000*%
%ADD15O,1.400000X1.400000*%
%ADD16O,1.600000X1.600000*%
%ADD17C,1.500000*%
%ADD18R,1.700000X1.700000*%
%ADD19O,1.700000X1.700000*%
%ADD20R,1.000000X1.500000*%
G04 APERTURE END LIST*
D10*
X38504523Y-71889880D02*
X38504523Y-70889880D01*
X38123571Y-70889880D01*
X38028333Y-70937500D01*
X37980714Y-70985119D01*
X37933095Y-71080357D01*
X37933095Y-71223214D01*
X37980714Y-71318452D01*
X38028333Y-71366071D01*
X38123571Y-71413690D01*
X38504523Y-71413690D01*
X37314047Y-70889880D02*
X37123571Y-70889880D01*
X37028333Y-70937500D01*
X36933095Y-71032738D01*
X36885476Y-71223214D01*
X36885476Y-71556547D01*
X36933095Y-71747023D01*
X37028333Y-71842261D01*
X37123571Y-71889880D01*
X37314047Y-71889880D01*
X37409285Y-71842261D01*
X37504523Y-71747023D01*
X37552142Y-71556547D01*
X37552142Y-71223214D01*
X37504523Y-71032738D01*
X37409285Y-70937500D01*
X37314047Y-70889880D01*
X36552142Y-70889880D02*
X36314047Y-71889880D01*
X36123571Y-71175595D01*
X35933095Y-71889880D01*
X35695000Y-70889880D01*
X35314047Y-71366071D02*
X34980714Y-71366071D01*
X34837857Y-71889880D02*
X35314047Y-71889880D01*
X35314047Y-70889880D01*
X34837857Y-70889880D01*
X33837857Y-71889880D02*
X34171190Y-71413690D01*
X34409285Y-71889880D02*
X34409285Y-70889880D01*
X34028333Y-70889880D01*
X33933095Y-70937500D01*
X33885476Y-70985119D01*
X33837857Y-71080357D01*
X33837857Y-71223214D01*
X33885476Y-71318452D01*
X33933095Y-71366071D01*
X34028333Y-71413690D01*
X34409285Y-71413690D01*
X24296666Y-59610714D02*
X24296666Y-60086904D01*
X24582380Y-59515476D02*
X23582380Y-59848809D01*
X24582380Y-60182142D01*
X23582380Y-60705952D02*
X23582380Y-60801190D01*
X23630000Y-60896428D01*
X23677619Y-60944047D01*
X23772857Y-60991666D01*
X23963333Y-61039285D01*
X24201428Y-61039285D01*
X24391904Y-60991666D01*
X24487142Y-60944047D01*
X24534761Y-60896428D01*
X24582380Y-60801190D01*
X24582380Y-60705952D01*
X24534761Y-60610714D01*
X24487142Y-60563095D01*
X24391904Y-60515476D01*
X24201428Y-60467857D01*
X23963333Y-60467857D01*
X23772857Y-60515476D01*
X23677619Y-60563095D01*
X23630000Y-60610714D01*
X23582380Y-60705952D01*
X24296666Y-57705714D02*
X24296666Y-58181904D01*
X24582380Y-57610476D02*
X23582380Y-57943809D01*
X24582380Y-58277142D01*
X24582380Y-59134285D02*
X24582380Y-58562857D01*
X24582380Y-58848571D02*
X23582380Y-58848571D01*
X23725238Y-58753333D01*
X23820476Y-58658095D01*
X23868095Y-58562857D01*
X24296666Y-55800714D02*
X24296666Y-56276904D01*
X24582380Y-55705476D02*
X23582380Y-56038809D01*
X24582380Y-56372142D01*
X23677619Y-56657857D02*
X23630000Y-56705476D01*
X23582380Y-56800714D01*
X23582380Y-57038809D01*
X23630000Y-57134047D01*
X23677619Y-57181666D01*
X23772857Y-57229285D01*
X23868095Y-57229285D01*
X24010952Y-57181666D01*
X24582380Y-56610238D01*
X24582380Y-57229285D01*
X21883571Y-71366071D02*
X21740714Y-71413690D01*
X21693095Y-71461309D01*
X21645476Y-71556547D01*
X21645476Y-71699404D01*
X21693095Y-71794642D01*
X21740714Y-71842261D01*
X21835952Y-71889880D01*
X22216904Y-71889880D01*
X22216904Y-70889880D01*
X21883571Y-70889880D01*
X21788333Y-70937500D01*
X21740714Y-70985119D01*
X21693095Y-71080357D01*
X21693095Y-71175595D01*
X21740714Y-71270833D01*
X21788333Y-71318452D01*
X21883571Y-71366071D01*
X22216904Y-71366071D01*
X21216904Y-70889880D02*
X21216904Y-71699404D01*
X21169285Y-71794642D01*
X21121666Y-71842261D01*
X21026428Y-71889880D01*
X20835952Y-71889880D01*
X20740714Y-71842261D01*
X20693095Y-71794642D01*
X20645476Y-71699404D01*
X20645476Y-70889880D01*
X20216904Y-71842261D02*
X20074047Y-71889880D01*
X19835952Y-71889880D01*
X19740714Y-71842261D01*
X19693095Y-71794642D01*
X19645476Y-71699404D01*
X19645476Y-71604166D01*
X19693095Y-71508928D01*
X19740714Y-71461309D01*
X19835952Y-71413690D01*
X20026428Y-71366071D01*
X20121666Y-71318452D01*
X20169285Y-71270833D01*
X20216904Y-71175595D01*
X20216904Y-71080357D01*
X20169285Y-70985119D01*
X20121666Y-70937500D01*
X20026428Y-70889880D01*
X19788333Y-70889880D01*
X19645476Y-70937500D01*
X57268809Y-71604166D02*
X56792619Y-71604166D01*
X57364047Y-71889880D02*
X57030714Y-70889880D01*
X56697380Y-71889880D01*
X56364047Y-70889880D02*
X56364047Y-71699404D01*
X56316428Y-71794642D01*
X56268809Y-71842261D01*
X56173571Y-71889880D01*
X55983095Y-71889880D01*
X55887857Y-71842261D01*
X55840238Y-71794642D01*
X55792619Y-71699404D01*
X55792619Y-70889880D01*
X55316428Y-71889880D02*
X55316428Y-70889880D01*
X55078333Y-70889880D01*
X54935476Y-70937500D01*
X54840238Y-71032738D01*
X54792619Y-71127976D01*
X54745000Y-71318452D01*
X54745000Y-71461309D01*
X54792619Y-71651785D01*
X54840238Y-71747023D01*
X54935476Y-71842261D01*
X55078333Y-71889880D01*
X55316428Y-71889880D01*
X54316428Y-71889880D02*
X54316428Y-70889880D01*
X53649761Y-70889880D02*
X53459285Y-70889880D01*
X53364047Y-70937500D01*
X53268809Y-71032738D01*
X53221190Y-71223214D01*
X53221190Y-71556547D01*
X53268809Y-71747023D01*
X53364047Y-71842261D01*
X53459285Y-71889880D01*
X53649761Y-71889880D01*
X53745000Y-71842261D01*
X53840238Y-71747023D01*
X53887857Y-71556547D01*
X53887857Y-71223214D01*
X53840238Y-71032738D01*
X53745000Y-70937500D01*
X53649761Y-70889880D01*
X37465000Y-29027380D02*
X37465000Y-28027380D01*
X37560238Y-28170238D02*
X37369761Y-28170238D01*
X37226904Y-28217857D01*
X37131666Y-28313095D01*
X37084047Y-28408333D01*
X37084047Y-28598809D01*
X37131666Y-28694047D01*
X37226904Y-28789285D01*
X37369761Y-28836904D01*
X37560238Y-28836904D01*
X37703095Y-28789285D01*
X37798333Y-28694047D01*
X37845952Y-28598809D01*
X37845952Y-28408333D01*
X37798333Y-28313095D01*
X37703095Y-28217857D01*
X37560238Y-28170238D01*
D11*
X31115000Y-65345000D02*
X29785000Y-65345000D01*
X29785000Y-65345000D02*
X29785000Y-66675000D01*
X42605000Y-65345000D02*
X42605000Y-70545000D01*
X32385000Y-65345000D02*
X32385000Y-67945000D01*
X32385000Y-67945000D02*
X29785000Y-67945000D01*
X29785000Y-67945000D02*
X29785000Y-70545000D01*
X29785000Y-70545000D02*
X42605000Y-70545000D01*
X32385000Y-65345000D02*
X42605000Y-65345000D01*
X23640000Y-59325000D02*
X19540000Y-59325000D01*
X19540000Y-59325000D02*
X19540000Y-61325000D01*
X19540000Y-61325000D02*
X23640000Y-61325000D01*
X23640000Y-61325000D02*
X23640000Y-59325000D01*
X19540000Y-59420000D02*
X23640000Y-59420000D01*
X19540000Y-57420000D02*
X19540000Y-59420000D01*
X23640000Y-57420000D02*
X19540000Y-57420000D01*
X23640000Y-59420000D02*
X23640000Y-57420000D01*
X23640000Y-57515000D02*
X23640000Y-55515000D01*
X23640000Y-55515000D02*
X19540000Y-55515000D01*
X19540000Y-57515000D02*
X23640000Y-57515000D01*
X19540000Y-55515000D02*
X19540000Y-57515000D01*
X36195000Y-18355000D02*
X34865000Y-18355000D01*
X37465000Y-18355000D02*
X40065000Y-18355000D01*
X40065000Y-18355000D02*
X40065000Y-21015000D01*
X37465000Y-21015000D02*
X40065000Y-21015000D01*
X37465000Y-18355000D02*
X37465000Y-21015000D01*
X34865000Y-18355000D02*
X34865000Y-19685000D01*
X17085000Y-67945000D02*
X17085000Y-70545000D01*
X24825000Y-65345000D02*
X24825000Y-70545000D01*
X19685000Y-65345000D02*
X19685000Y-67945000D01*
X18415000Y-65345000D02*
X17085000Y-65345000D01*
X17085000Y-70545000D02*
X24825000Y-70545000D01*
X19685000Y-67945000D02*
X17085000Y-67945000D01*
X19685000Y-65345000D02*
X24825000Y-65345000D01*
X17085000Y-65345000D02*
X17085000Y-66675000D01*
X52645000Y-67885000D02*
X52645000Y-69215000D01*
X55245000Y-67885000D02*
X55245000Y-70545000D01*
X53975000Y-67885000D02*
X52645000Y-67885000D01*
X57845000Y-67885000D02*
X57845000Y-70545000D01*
X55245000Y-70545000D02*
X57845000Y-70545000D01*
X55245000Y-67885000D02*
X57845000Y-67885000D01*
X34865000Y-24705000D02*
X34865000Y-26035000D01*
X40065000Y-24705000D02*
X40065000Y-27365000D01*
X37465000Y-24705000D02*
X37465000Y-27365000D01*
X37465000Y-24705000D02*
X40065000Y-24705000D01*
X36195000Y-24705000D02*
X34865000Y-24705000D01*
X37465000Y-27365000D02*
X40065000Y-27365000D01*
%LPC*%
D12*
X48895000Y-39370000D03*
X51395000Y-39370000D03*
X53975000Y-52070000D03*
X56475000Y-52070000D03*
D13*
X50165000Y-54610000D03*
D12*
X47665000Y-54610000D03*
D13*
X47625000Y-61595000D03*
D12*
X50125000Y-61595000D03*
X27325000Y-63182500D03*
X29825000Y-63182500D03*
X29210000Y-26670000D03*
X31710000Y-26670000D03*
X27940000Y-15240000D03*
X27940000Y-17740000D03*
X56515000Y-39370000D03*
X54015000Y-39370000D03*
X17780000Y-22860000D03*
X17780000Y-20360000D03*
X17780000Y-15240000D03*
X17780000Y-17740000D03*
D13*
X52705000Y-22860000D03*
D12*
X52705000Y-20360000D03*
D13*
X57785000Y-61277500D03*
D12*
X57785000Y-63777500D03*
D13*
X57785000Y-58102500D03*
D12*
X57785000Y-55602500D03*
D14*
X25450000Y-22860000D03*
D15*
X27990000Y-22860000D03*
D14*
X27890000Y-20310000D03*
D15*
X25350000Y-20310000D03*
D14*
X56515000Y-66040000D03*
D15*
X53975000Y-66040000D03*
D13*
X17780000Y-27940000D03*
D16*
X17780000Y-30480000D03*
X17780000Y-33020000D03*
X17780000Y-35560000D03*
X17780000Y-38100000D03*
X17780000Y-40640000D03*
X17780000Y-43180000D03*
X17780000Y-45720000D03*
X17780000Y-48260000D03*
X17780000Y-50800000D03*
X17780000Y-53340000D03*
X17780000Y-55880000D03*
X17780000Y-58420000D03*
X17780000Y-60960000D03*
X25400000Y-60960000D03*
X25400000Y-58420000D03*
X25400000Y-55880000D03*
X25400000Y-53340000D03*
X25400000Y-50800000D03*
X25400000Y-48260000D03*
X25400000Y-45720000D03*
X25400000Y-43180000D03*
X25400000Y-40640000D03*
X25400000Y-38100000D03*
X25400000Y-35560000D03*
X25400000Y-33020000D03*
X25400000Y-30480000D03*
X25400000Y-27940000D03*
D13*
X29210000Y-30480000D03*
D16*
X29210000Y-33020000D03*
X29210000Y-35560000D03*
X29210000Y-38100000D03*
X29210000Y-40640000D03*
X29210000Y-43180000D03*
X29210000Y-45720000D03*
X29210000Y-48260000D03*
X29210000Y-50800000D03*
X29210000Y-53340000D03*
X29210000Y-55880000D03*
X29210000Y-58420000D03*
X44450000Y-58420000D03*
X44450000Y-55880000D03*
X44450000Y-53340000D03*
X44450000Y-50800000D03*
X44450000Y-48260000D03*
X44450000Y-45720000D03*
X44450000Y-43180000D03*
X44450000Y-40640000D03*
X44450000Y-38100000D03*
X44450000Y-35560000D03*
X44450000Y-33020000D03*
X44450000Y-30480000D03*
D13*
X31750000Y-22860000D03*
D16*
X34290000Y-22860000D03*
X36830000Y-22860000D03*
X39370000Y-22860000D03*
X41910000Y-22860000D03*
X44450000Y-22860000D03*
X46990000Y-22860000D03*
X46990000Y-15240000D03*
X44450000Y-15240000D03*
X41910000Y-15240000D03*
X39370000Y-15240000D03*
X36830000Y-15240000D03*
X34290000Y-15240000D03*
X31750000Y-15240000D03*
D13*
X56515000Y-35560000D03*
D16*
X56515000Y-33020000D03*
X56515000Y-30480000D03*
X56515000Y-27940000D03*
X48895000Y-27940000D03*
X48895000Y-30480000D03*
X48895000Y-33020000D03*
X48895000Y-35560000D03*
D13*
X48895000Y-49530000D03*
D16*
X51435000Y-49530000D03*
X53975000Y-49530000D03*
X56515000Y-49530000D03*
X56515000Y-41910000D03*
X53975000Y-41910000D03*
X51435000Y-41910000D03*
X48895000Y-41910000D03*
D17*
X21590000Y-21590000D03*
X21590000Y-16710000D03*
D14*
X27305000Y-66675000D03*
D15*
X27305000Y-69215000D03*
D14*
X53340000Y-60910000D03*
D15*
X53340000Y-58370000D03*
D18*
X31115000Y-66675000D03*
D19*
X31115000Y-69215000D03*
X33655000Y-66675000D03*
X33655000Y-69215000D03*
X36195000Y-66675000D03*
X36195000Y-69215000D03*
X38735000Y-66675000D03*
X38735000Y-69215000D03*
X41275000Y-66675000D03*
X41275000Y-69215000D03*
D20*
X22890000Y-60325000D03*
X21590000Y-60325000D03*
X20290000Y-60325000D03*
X22890000Y-58420000D03*
X21590000Y-58420000D03*
X20290000Y-58420000D03*
X22890000Y-56515000D03*
X21590000Y-56515000D03*
X20290000Y-56515000D03*
D18*
X36195000Y-19685000D03*
D19*
X38735000Y-19685000D03*
D18*
X18415000Y-66675000D03*
D19*
X18415000Y-69215000D03*
X20955000Y-66675000D03*
X20955000Y-69215000D03*
X23495000Y-66675000D03*
X23495000Y-69215000D03*
D18*
X53975000Y-69215000D03*
D19*
X56515000Y-69215000D03*
D18*
X36195000Y-26035000D03*
D19*
X38735000Y-26035000D03*
M02*
