  0
SECTION
  2
HEADER
  9
$ANGBASE
  50
0.0
  9
$ANGDIR
  70
  1
  9
$MEASUREMENT
  70
0
  0
ENDSEC
  0
SECTION
  2
TABLES
  0
TABLE
  2
LTYPE
  70
1
  0
LTYPE
  2
CONTINUOUS
  70
0
  3
Solid line
  72
65
  73
0
  40
0.0
  0
ENDTAB
  0
TABLE
  2
STYLE
  70
4
  0
STYLE
  2
KICAD
  70
0
  40
0
  41
1
  42
1
  50
0
  71
0
  3
isocp.shx
  0
STYLE
  2
KICADB
  70
0
  40
0
  41
1
  42
1
  50
0
  71
0
  3
isocp.shx
  0
STYLE
  2
KICADI
  70
0
  40
0
  41
1
  42
1
  50
15
  71
0
  3
isocp.shx
  0
STYLE
  2
KICADBI
  70
0
  40
0
  41
1
  42
1
  50
15
  71
0
  3
isocp.shx
  0
ENDTAB
  0
TABLE
  2
LAYER
  70
30
  0
LAYER
  2
BLACK
  70
0
  62
7
  6
CONTINUOUS
  0
LAYER
  2
GRAY1
  70
0
  62
251
  6
CONTINUOUS
  0
LAYER
  2
GRAY2
  70
0
  62
8
  6
CONTINUOUS
  0
LAYER
  2
GRAY3
  70
0
  62
9
  6
CONTINUOUS
  0
LAYER
  2
WHITE
  70
0
  62
7
  6
CONTINUOUS
  0
LAYER
  2
LYELLOW
  70
0
  62
51
  6
CONTINUOUS
  0
LAYER
  2
BLUE1
  70
0
  62
178
  6
CONTINUOUS
  0
LAYER
  2
GREEN1
  70
0
  62
98
  6
CONTINUOUS
  0
LAYER
  2
CYAN1
  70
0
  62
138
  6
CONTINUOUS
  0
LAYER
  2
RED1
  70
0
  62
18
  6
CONTINUOUS
  0
LAYER
  2
MAGENTA1
  70
0
  62
228
  6
CONTINUOUS
  0
LAYER
  2
BROWN1
  70
0
  62
58
  6
CONTINUOUS
  0
LAYER
  2
BLUE2
  70
0
  62
5
  6
CONTINUOUS
  0
LAYER
  2
GREEN2
  70
0
  62
3
  6
CONTINUOUS
  0
LAYER
  2
CYAN2
  70
0
  62
4
  6
CONTINUOUS
  0
LAYER
  2
RED2
  70
0
  62
1
  6
CONTINUOUS
  0
LAYER
  2
MAGENTA2
  70
0
  62
6
  6
CONTINUOUS
  0
LAYER
  2
BROWN2
  70
0
  62
54
  6
CONTINUOUS
  0
LAYER
  2
BLUE3
  70
0
  62
171
  6
CONTINUOUS
  0
LAYER
  2
GREEN3
  70
0
  62
91
  6
CONTINUOUS
  0
LAYER
  2
CYAN3
  70
0
  62
131
  6
CONTINUOUS
  0
LAYER
  2
RED3
  70
0
  62
11
  6
CONTINUOUS
  0
LAYER
  2
MAGENTA3
  70
0
  62
221
  6
CONTINUOUS
  0
LAYER
  2
YELLOW3
  70
0
  62
2
  6
CONTINUOUS
  0
LAYER
  2
BLUE4
  70
0
  62
5
  6
CONTINUOUS
  0
LAYER
  2
GREEN4
  70
0
  62
3
  6
CONTINUOUS
  0
LAYER
  2
CYAN4
  70
0
  62
4
  6
CONTINUOUS
  0
LAYER
  2
RED4
  70
0
  62
1
  6
CONTINUOUS
  0
LAYER
  2
MAGENTA4
  70
0
  62
6
  6
CONTINUOUS
  0
LAYER
  2
YELLOW4
  70
0
  62
2
  6
CONTINUOUS
  0
ENDTAB
  0
ENDSEC
  0
SECTION
  2
ENTITIES
0
LINE
8
Black
10
55.2483
20
-11.9906
11
55.2515
21
-11.9903
0
LINE
8
Black
10
55.2515
20
-11.9903
11
55.261
21
-11.9928
0
LINE
8
Black
10
55.261
20
-11.9928
11
55.2707
21
-11.9945
0
LINE
8
Black
10
55.2707
20
-11.9945
11
55.2735
21
-11.9962
0
LINE
8
Black
10
55.2735
20
-11.9962
11
55.2767
21
-11.997
0
LINE
8
Black
10
55.2767
20
-11.997
11
55.2847
21
-12.0026
0
LINE
8
Black
10
55.2847
20
-12.0026
11
55.2932
21
-12.0075
0
LINE
8
Black
10
55.2932
20
-12.0075
11
55.2953
21
-12.0101
0
LINE
8
Black
10
55.2953
20
-12.0101
11
55.298
21
-12.012
0
LINE
8
Black
10
55.298
20
-12.012
11
61.013
21
-17.727
0
LINE
8
Black
10
61.013
20
-17.727
11
61.0149
21
-17.7297
0
LINE
8
Black
10
61.0149
20
-17.7297
11
61.0175
21
-17.7318
0
LINE
8
Black
10
61.0175
20
-17.7318
11
61.0223
21
-17.7403
0
LINE
8
Black
10
61.0223
20
-17.7403
11
61.028
21
-17.7483
0
LINE
8
Black
10
61.028
20
-17.7483
11
61.0288
21
-17.7515
0
LINE
8
Black
10
61.0288
20
-17.7515
11
61.0305
21
-17.7543
0
LINE
8
Black
10
61.0305
20
-17.7543
11
61.0322
21
-17.764
0
LINE
8
Black
10
61.0322
20
-17.764
11
61.0347
21
-17.7735
0
LINE
8
Black
10
61.0347
20
-17.7735
11
61.0344
21
-17.7768
0
LINE
8
Black
10
61.0344
20
-17.7768
11
61.035
21
-17.78
0
LINE
8
Black
10
61.035
20
-17.78
11
61.035
21
-72.39
0
LINE
8
Black
10
61.035
20
-72.39
11
61.0339
21
-72.3965
0
LINE
8
Black
10
61.0339
20
-72.3965
11
61.0339
21
-72.403
0
LINE
8
Black
10
61.0339
20
-72.403
11
61.0316
21
-72.4092
0
LINE
8
Black
10
61.0316
20
-72.4092
11
61.0305
21
-72.4157
0
LINE
8
Black
10
61.0305
20
-72.4157
11
61.0272
21
-72.4213
0
LINE
8
Black
10
61.0272
20
-72.4213
11
61.025
21
-72.4275
0
LINE
8
Black
10
61.025
20
-72.4275
11
61.0207
21
-72.4325
0
LINE
8
Black
10
61.0207
20
-72.4325
11
61.0175
21
-72.4382
0
LINE
8
Black
10
61.0175
20
-72.4382
11
61.0124
21
-72.4424
0
LINE
8
Black
10
61.0124
20
-72.4424
11
61.0082
21
-72.4475
0
LINE
8
Black
10
61.0082
20
-72.4475
11
61.0025
21
-72.4507
0
LINE
8
Black
10
61.0025
20
-72.4507
11
60.9975
21
-72.455
0
LINE
8
Black
10
60.9975
20
-72.455
11
60.9913
21
-72.4572
0
LINE
8
Black
10
60.9913
20
-72.4572
11
60.9857
21
-72.4605
0
LINE
8
Black
10
60.9857
20
-72.4605
11
60.9792
21
-72.4616
0
LINE
8
Black
10
60.9792
20
-72.4616
11
60.973
21
-72.4639
0
LINE
8
Black
10
60.973
20
-72.4639
11
60.9665
21
-72.4639
0
LINE
8
Black
10
60.9665
20
-72.4639
11
60.96
21
-72.465
0
LINE
8
Black
10
60.96
20
-72.465
11
14.605
21
-72.465
0
LINE
8
Black
10
14.605
20
-72.465
11
14.5985
21
-72.4639
0
LINE
8
Black
10
14.5985
20
-72.4639
11
14.592
21
-72.4639
0
LINE
8
Black
10
14.592
20
-72.4639
11
14.5858
21
-72.4616
0
LINE
8
Black
10
14.5858
20
-72.4616
11
14.5793
21
-72.4605
0
LINE
8
Black
10
14.5793
20
-72.4605
11
14.5737
21
-72.4572
0
LINE
8
Black
10
14.5737
20
-72.4572
11
14.5675
21
-72.455
0
LINE
8
Black
10
14.5675
20
-72.455
11
14.5625
21
-72.4507
0
LINE
8
Black
10
14.5625
20
-72.4507
11
14.5568
21
-72.4475
0
LINE
8
Black
10
14.5568
20
-72.4475
11
14.5526
21
-72.4424
0
LINE
8
Black
10
14.5526
20
-72.4424
11
14.5475
21
-72.4382
0
LINE
8
Black
10
14.5475
20
-72.4382
11
14.5443
21
-72.4325
0
LINE
8
Black
10
14.5443
20
-72.4325
11
14.54
21
-72.4275
0
LINE
8
Black
10
14.54
20
-72.4275
11
14.5378
21
-72.4213
0
LINE
8
Black
10
14.5378
20
-72.4213
11
14.5345
21
-72.4157
0
LINE
8
Black
10
14.5345
20
-72.4157
11
14.5334
21
-72.4092
0
LINE
8
Black
10
14.5334
20
-72.4092
11
14.5311
21
-72.403
0
LINE
8
Black
10
14.5311
20
-72.403
11
14.5311
21
-72.3965
0
LINE
8
Black
10
14.5311
20
-72.3965
11
14.53
21
-72.39
0
LINE
8
Black
10
14.53
20
-72.39
11
14.53
21
-12.065
0
LINE
8
Black
10
14.53
20
-12.065
11
14.5311
21
-12.0585
0
LINE
8
Black
10
14.5311
20
-12.0585
11
14.5311
21
-12.052
0
LINE
8
Black
10
14.5311
20
-12.052
11
14.5334
21
-12.0458
0
LINE
8
Black
10
14.5334
20
-12.0458
11
14.5345
21
-12.0393
0
LINE
8
Black
10
14.5345
20
-12.0393
11
14.5378
21
-12.0337
0
LINE
8
Black
10
14.5378
20
-12.0337
11
14.54
21
-12.0275
0
LINE
8
Black
10
14.54
20
-12.0275
11
14.5443
21
-12.0225
0
LINE
8
Black
10
14.5443
20
-12.0225
11
14.5475
21
-12.0168
0
LINE
8
Black
10
14.5475
20
-12.0168
11
14.5526
21
-12.0126
0
LINE
8
Black
10
14.5526
20
-12.0126
11
14.5568
21
-12.0075
0
LINE
8
Black
10
14.5568
20
-12.0075
11
14.5625
21
-12.0043
0
LINE
8
Black
10
14.5625
20
-12.0043
11
14.5675
21
-12
0
LINE
8
Black
10
14.5675
20
-12
11
14.5737
21
-11.9978
0
LINE
8
Black
10
14.5737
20
-11.9978
11
14.5793
21
-11.9945
0
LINE
8
Black
10
14.5793
20
-11.9945
11
14.5858
21
-11.9934
0
LINE
8
Black
10
14.5858
20
-11.9934
11
14.592
21
-11.9911
0
LINE
8
Black
10
14.592
20
-11.9911
11
14.5985
21
-11.9911
0
LINE
8
Black
10
14.5985
20
-11.9911
11
14.605
21
-11.99
0
LINE
8
Black
10
14.605
20
-11.99
11
55.245
21
-11.99
0
LINE
8
Black
10
55.245
20
-11.99
11
55.2483
21
-11.9906
0
LINE
8
Black
10
14.68
20
-12.14
11
14.68
21
-72.315
0
LINE
8
Black
10
14.68
20
-72.315
11
60.885
21
-72.315
0
LINE
8
Black
10
60.885
20
-72.315
11
60.885
21
-17.8111
0
LINE
8
Black
10
60.885
20
-17.8111
11
55.2139
21
-12.14
0
LINE
8
Black
10
55.2139
20
-12.14
11
14.68
21
-12.14
  0
ENDSEC
  0
EOF
