G04 #@! TF.GenerationSoftware,KiCad,Pcbnew,6.0.4+dfsg-1+b1*
G04 #@! TF.CreationDate,2022-04-24T01:07:45+03:00*
G04 #@! TF.ProjectId,yatabaza-cpu,79617461-6261-47a6-912d-6370752e6b69,rev?*
G04 #@! TF.SameCoordinates,Original*
G04 #@! TF.FileFunction,Legend,Top*
G04 #@! TF.FilePolarity,Positive*
%FSLAX46Y46*%
G04 Gerber Fmt 4.6, Leading zero omitted, Abs format (unit mm)*
G04 Created by KiCad (PCBNEW 6.0.4+dfsg-1+b1) date 2022-04-24 01:07:45*
%MOMM*%
%LPD*%
G01*
G04 APERTURE LIST*
%ADD10C,0.200000*%
%ADD11C,0.150000*%
%ADD12C,0.120000*%
%ADD13C,1.600000*%
%ADD14C,3.800000*%
%ADD15R,1.700000X1.700000*%
%ADD16O,1.700000X1.700000*%
%ADD17C,1.400000*%
%ADD18O,1.400000X1.400000*%
%ADD19R,1.600000X1.600000*%
%ADD20O,1.600000X1.600000*%
G04 APERTURE END LIST*
D10*
X25400000Y-27305000D02*
X34290000Y-27305000D01*
X14605000Y-42545000D02*
X29845000Y-42545000D01*
X14605000Y-51435000D02*
X14605000Y-42545000D01*
X25400000Y-12065000D02*
X34290000Y-12065000D01*
X23495000Y-12065000D02*
X23495000Y-27305000D01*
X14605000Y-12065000D02*
X23495000Y-12065000D01*
X14605000Y-62865000D02*
X32385000Y-62865000D01*
X14605000Y-27305000D02*
X14605000Y-12065000D01*
X29845000Y-51435000D02*
X14605000Y-51435000D01*
X25400000Y-12065000D02*
X25400000Y-27305000D01*
X34290000Y-27305000D02*
X34290000Y-12065000D01*
X14605000Y-53975000D02*
X14605000Y-62865000D01*
X29845000Y-42545000D02*
X29845000Y-51435000D01*
X32385000Y-53975000D02*
X14605000Y-53975000D01*
X23495000Y-27305000D02*
X14605000Y-27305000D01*
X32385000Y-53975000D02*
X32385000Y-62865000D01*
D11*
X33508333Y-51937142D02*
X33460714Y-51984761D01*
X33317857Y-52032380D01*
X33222619Y-52032380D01*
X33079761Y-51984761D01*
X32984523Y-51889523D01*
X32936904Y-51794285D01*
X32889285Y-51603809D01*
X32889285Y-51460952D01*
X32936904Y-51270476D01*
X32984523Y-51175238D01*
X33079761Y-51080000D01*
X33222619Y-51032380D01*
X33317857Y-51032380D01*
X33460714Y-51080000D01*
X33508333Y-51127619D01*
X34460714Y-52032380D02*
X33889285Y-52032380D01*
X34175000Y-52032380D02*
X34175000Y-51032380D01*
X34079761Y-51175238D01*
X33984523Y-51270476D01*
X33889285Y-51318095D01*
X30313333Y-39727142D02*
X30265714Y-39774761D01*
X30122857Y-39822380D01*
X30027619Y-39822380D01*
X29884761Y-39774761D01*
X29789523Y-39679523D01*
X29741904Y-39584285D01*
X29694285Y-39393809D01*
X29694285Y-39250952D01*
X29741904Y-39060476D01*
X29789523Y-38965238D01*
X29884761Y-38870000D01*
X30027619Y-38822380D01*
X30122857Y-38822380D01*
X30265714Y-38870000D01*
X30313333Y-38917619D01*
X30694285Y-38917619D02*
X30741904Y-38870000D01*
X30837142Y-38822380D01*
X31075238Y-38822380D01*
X31170476Y-38870000D01*
X31218095Y-38917619D01*
X31265714Y-39012857D01*
X31265714Y-39108095D01*
X31218095Y-39250952D01*
X30646666Y-39822380D01*
X31265714Y-39822380D01*
X26733571Y-64269880D02*
X26400238Y-63793690D01*
X26162142Y-64269880D02*
X26162142Y-63269880D01*
X26543095Y-63269880D01*
X26638333Y-63317500D01*
X26685952Y-63365119D01*
X26733571Y-63460357D01*
X26733571Y-63603214D01*
X26685952Y-63698452D01*
X26638333Y-63746071D01*
X26543095Y-63793690D01*
X26162142Y-63793690D01*
X27019285Y-63269880D02*
X27590714Y-63269880D01*
X27305000Y-64269880D02*
X27305000Y-63269880D01*
X28495476Y-64174642D02*
X28447857Y-64222261D01*
X28305000Y-64269880D01*
X28209761Y-64269880D01*
X28066904Y-64222261D01*
X27971666Y-64127023D01*
X27924047Y-64031785D01*
X27876428Y-63841309D01*
X27876428Y-63698452D01*
X27924047Y-63507976D01*
X27971666Y-63412738D01*
X28066904Y-63317500D01*
X28209761Y-63269880D01*
X28305000Y-63269880D01*
X28447857Y-63317500D01*
X28495476Y-63365119D01*
X39172380Y-50916666D02*
X38696190Y-51250000D01*
X39172380Y-51488095D02*
X38172380Y-51488095D01*
X38172380Y-51107142D01*
X38220000Y-51011904D01*
X38267619Y-50964285D01*
X38362857Y-50916666D01*
X38505714Y-50916666D01*
X38600952Y-50964285D01*
X38648571Y-51011904D01*
X38696190Y-51107142D01*
X38696190Y-51488095D01*
X38172380Y-50011904D02*
X38172380Y-50488095D01*
X38648571Y-50535714D01*
X38600952Y-50488095D01*
X38553333Y-50392857D01*
X38553333Y-50154761D01*
X38600952Y-50059523D01*
X38648571Y-50011904D01*
X38743809Y-49964285D01*
X38981904Y-49964285D01*
X39077142Y-50011904D01*
X39124761Y-50059523D01*
X39172380Y-50154761D01*
X39172380Y-50392857D01*
X39124761Y-50488095D01*
X39077142Y-50535714D01*
X30313333Y-34732380D02*
X29980000Y-34256190D01*
X29741904Y-34732380D02*
X29741904Y-33732380D01*
X30122857Y-33732380D01*
X30218095Y-33780000D01*
X30265714Y-33827619D01*
X30313333Y-33922857D01*
X30313333Y-34065714D01*
X30265714Y-34160952D01*
X30218095Y-34208571D01*
X30122857Y-34256190D01*
X29741904Y-34256190D01*
X30789523Y-34732380D02*
X30980000Y-34732380D01*
X31075238Y-34684761D01*
X31122857Y-34637142D01*
X31218095Y-34494285D01*
X31265714Y-34303809D01*
X31265714Y-33922857D01*
X31218095Y-33827619D01*
X31170476Y-33780000D01*
X31075238Y-33732380D01*
X30884761Y-33732380D01*
X30789523Y-33780000D01*
X30741904Y-33827619D01*
X30694285Y-33922857D01*
X30694285Y-34160952D01*
X30741904Y-34256190D01*
X30789523Y-34303809D01*
X30884761Y-34351428D01*
X31075238Y-34351428D01*
X31170476Y-34303809D01*
X31218095Y-34256190D01*
X31265714Y-34160952D01*
X28402380Y-30487857D02*
X27926190Y-30821190D01*
X28402380Y-31059285D02*
X27402380Y-31059285D01*
X27402380Y-30678333D01*
X27450000Y-30583095D01*
X27497619Y-30535476D01*
X27592857Y-30487857D01*
X27735714Y-30487857D01*
X27830952Y-30535476D01*
X27878571Y-30583095D01*
X27926190Y-30678333D01*
X27926190Y-31059285D01*
X28402380Y-29535476D02*
X28402380Y-30106904D01*
X28402380Y-29821190D02*
X27402380Y-29821190D01*
X27545238Y-29916428D01*
X27640476Y-30011666D01*
X27688095Y-30106904D01*
X27402380Y-28916428D02*
X27402380Y-28821190D01*
X27450000Y-28725952D01*
X27497619Y-28678333D01*
X27592857Y-28630714D01*
X27783333Y-28583095D01*
X28021428Y-28583095D01*
X28211904Y-28630714D01*
X28307142Y-28678333D01*
X28354761Y-28725952D01*
X28402380Y-28821190D01*
X28402380Y-28916428D01*
X28354761Y-29011666D01*
X28307142Y-29059285D01*
X28211904Y-29106904D01*
X28021428Y-29154523D01*
X27783333Y-29154523D01*
X27592857Y-29106904D01*
X27497619Y-29059285D01*
X27450000Y-29011666D01*
X27402380Y-28916428D01*
X51308095Y-18712380D02*
X51308095Y-19521904D01*
X51355714Y-19617142D01*
X51403333Y-19664761D01*
X51498571Y-19712380D01*
X51689047Y-19712380D01*
X51784285Y-19664761D01*
X51831904Y-19617142D01*
X51879523Y-19521904D01*
X51879523Y-18712380D01*
X52879523Y-19712380D02*
X52308095Y-19712380D01*
X52593809Y-19712380D02*
X52593809Y-18712380D01*
X52498571Y-18855238D01*
X52403333Y-18950476D01*
X52308095Y-18998095D01*
X36068095Y-47502380D02*
X36068095Y-48311904D01*
X36115714Y-48407142D01*
X36163333Y-48454761D01*
X36258571Y-48502380D01*
X36449047Y-48502380D01*
X36544285Y-48454761D01*
X36591904Y-48407142D01*
X36639523Y-48311904D01*
X36639523Y-47502380D01*
X37068095Y-47597619D02*
X37115714Y-47550000D01*
X37210952Y-47502380D01*
X37449047Y-47502380D01*
X37544285Y-47550000D01*
X37591904Y-47597619D01*
X37639523Y-47692857D01*
X37639523Y-47788095D01*
X37591904Y-47930952D01*
X37020476Y-48502380D01*
X37639523Y-48502380D01*
X28452380Y-36956904D02*
X29261904Y-36956904D01*
X29357142Y-36909285D01*
X29404761Y-36861666D01*
X29452380Y-36766428D01*
X29452380Y-36575952D01*
X29404761Y-36480714D01*
X29357142Y-36433095D01*
X29261904Y-36385476D01*
X28452380Y-36385476D01*
X28452380Y-36004523D02*
X28452380Y-35385476D01*
X28833333Y-35718809D01*
X28833333Y-35575952D01*
X28880952Y-35480714D01*
X28928571Y-35433095D01*
X29023809Y-35385476D01*
X29261904Y-35385476D01*
X29357142Y-35433095D01*
X29404761Y-35480714D01*
X29452380Y-35575952D01*
X29452380Y-35861666D01*
X29404761Y-35956904D01*
X29357142Y-36004523D01*
X18629404Y-30297380D02*
X18629404Y-29297380D01*
X18867500Y-29297380D01*
X19010357Y-29345000D01*
X19105595Y-29440238D01*
X19153214Y-29535476D01*
X19200833Y-29725952D01*
X19200833Y-29868809D01*
X19153214Y-30059285D01*
X19105595Y-30154523D01*
X19010357Y-30249761D01*
X18867500Y-30297380D01*
X18629404Y-30297380D01*
X20153214Y-30297380D02*
X19581785Y-30297380D01*
X19867500Y-30297380D02*
X19867500Y-29297380D01*
X19772261Y-29440238D01*
X19677023Y-29535476D01*
X19581785Y-29583095D01*
X25668095Y-30297380D02*
X25668095Y-29297380D01*
X26239523Y-30297380D02*
X25810952Y-29725952D01*
X26239523Y-29297380D02*
X25668095Y-29868809D01*
D12*
X34304000Y-48610000D02*
X33046000Y-48610000D01*
X34304000Y-50450000D02*
X33046000Y-50450000D01*
X31400000Y-38741000D02*
X31400000Y-39999000D01*
X29560000Y-38741000D02*
X29560000Y-39999000D01*
X25975000Y-71815000D02*
X28635000Y-71815000D01*
X25975000Y-64075000D02*
X27305000Y-64075000D01*
X28635000Y-66675000D02*
X28635000Y-71815000D01*
X25975000Y-66675000D02*
X28635000Y-66675000D01*
X25975000Y-65405000D02*
X25975000Y-64075000D01*
X25975000Y-66675000D02*
X25975000Y-71815000D01*
X26095000Y-49590000D02*
X18355000Y-49590000D01*
X23495000Y-46990000D02*
X26095000Y-46990000D01*
X23495000Y-44390000D02*
X18355000Y-44390000D01*
X26095000Y-44390000D02*
X26095000Y-45720000D01*
X23495000Y-44390000D02*
X23495000Y-46990000D01*
X18355000Y-44390000D02*
X18355000Y-49590000D01*
X26095000Y-46990000D02*
X26095000Y-49590000D01*
X24765000Y-44390000D02*
X26095000Y-44390000D01*
X27245000Y-18415000D02*
X27245000Y-23555000D01*
X29845000Y-15815000D02*
X32445000Y-15815000D01*
X29845000Y-18415000D02*
X29845000Y-15815000D01*
X27245000Y-17145000D02*
X27245000Y-15815000D01*
X27245000Y-23555000D02*
X32445000Y-23555000D01*
X27245000Y-15815000D02*
X28575000Y-15815000D01*
X27245000Y-18415000D02*
X29845000Y-18415000D01*
X32445000Y-15815000D02*
X32445000Y-23555000D01*
X28635000Y-58420000D02*
X28635000Y-61020000D01*
X28635000Y-55820000D02*
X28635000Y-57150000D01*
X28635000Y-61020000D02*
X18355000Y-61020000D01*
X26035000Y-55820000D02*
X18355000Y-55820000D01*
X18355000Y-55820000D02*
X18355000Y-61020000D01*
X26035000Y-55820000D02*
X26035000Y-58420000D01*
X26035000Y-58420000D02*
X28635000Y-58420000D01*
X27305000Y-55820000D02*
X28635000Y-55820000D01*
X19050000Y-15815000D02*
X21650000Y-15815000D01*
X16450000Y-17145000D02*
X16450000Y-15815000D01*
X16450000Y-23555000D02*
X21650000Y-23555000D01*
X19050000Y-18415000D02*
X19050000Y-15815000D01*
X21650000Y-15815000D02*
X21650000Y-23555000D01*
X16450000Y-18415000D02*
X19050000Y-18415000D01*
X16450000Y-15815000D02*
X17780000Y-15815000D01*
X16450000Y-18415000D02*
X16450000Y-23555000D01*
X40640000Y-51100000D02*
X40640000Y-50480000D01*
X41560000Y-52020000D02*
G75*
G03*
X41560000Y-52020000I-920000J0D01*
G01*
X30480000Y-34590000D02*
X30480000Y-33970000D01*
X31400000Y-35510000D02*
G75*
G03*
X31400000Y-35510000I-920000J0D01*
G01*
X27640000Y-29845000D02*
X28260000Y-29845000D01*
X27640000Y-29845000D02*
G75*
G03*
X27640000Y-29845000I-920000J0D01*
G01*
X61020000Y-20200000D02*
X43120000Y-20200000D01*
X45610000Y-71180000D02*
X58530000Y-71180000D01*
X51070000Y-20260000D02*
X45610000Y-20260000D01*
X43120000Y-20200000D02*
X43120000Y-71240000D01*
X58530000Y-71180000D02*
X58530000Y-20260000D01*
X43120000Y-71240000D02*
X61020000Y-71240000D01*
X61020000Y-71240000D02*
X61020000Y-20200000D01*
X58530000Y-20260000D02*
X53070000Y-20260000D01*
X45610000Y-20260000D02*
X45610000Y-71180000D01*
X51070000Y-20260000D02*
G75*
G03*
X53070000Y-20260000I1000000J0D01*
G01*
X37830000Y-47050000D02*
X39480000Y-47050000D01*
X34180000Y-29150000D02*
X34180000Y-47050000D01*
X34180000Y-47050000D02*
X35830000Y-47050000D01*
X39480000Y-47050000D02*
X39480000Y-29150000D01*
X39480000Y-29150000D02*
X34180000Y-29150000D01*
X37830000Y-47050000D02*
G75*
G03*
X35830000Y-47050000I-1000000J0D01*
G01*
X28000000Y-33545000D02*
X17720000Y-33545000D01*
X28000000Y-35195000D02*
X28000000Y-33545000D01*
X17720000Y-38845000D02*
X28000000Y-38845000D01*
X28000000Y-38845000D02*
X28000000Y-37195000D01*
X17720000Y-33545000D02*
X17720000Y-38845000D01*
X28000000Y-35195000D02*
G75*
G03*
X28000000Y-37195000I0J-1000000D01*
G01*
X22916371Y-29845000D02*
X23030000Y-29845000D01*
X22916371Y-29845000D02*
G75*
G03*
X22916371Y-29845000I-1326371J0D01*
G01*
%LPC*%
D13*
X34925000Y-49530000D03*
X32425000Y-49530000D03*
X30480000Y-38120000D03*
X30480000Y-40620000D03*
D14*
X38735000Y-15240000D03*
X38735000Y-60960000D03*
D15*
X27305000Y-65405000D03*
D16*
X27305000Y-67945000D03*
X27305000Y-70485000D03*
D15*
X24765000Y-45720000D03*
D16*
X24765000Y-48260000D03*
X22225000Y-45720000D03*
X22225000Y-48260000D03*
X19685000Y-45720000D03*
X19685000Y-48260000D03*
D15*
X28575000Y-17145000D03*
D16*
X31115000Y-17145000D03*
X28575000Y-19685000D03*
X31115000Y-19685000D03*
X28575000Y-22225000D03*
X31115000Y-22225000D03*
D15*
X27305000Y-57150000D03*
D16*
X27305000Y-59690000D03*
X24765000Y-57150000D03*
X24765000Y-59690000D03*
X22225000Y-57150000D03*
X22225000Y-59690000D03*
X19685000Y-57150000D03*
X19685000Y-59690000D03*
D15*
X17780000Y-17145000D03*
D16*
X20320000Y-17145000D03*
X17780000Y-19685000D03*
X20320000Y-19685000D03*
X17780000Y-22225000D03*
X20320000Y-22225000D03*
D17*
X40640000Y-52020000D03*
D18*
X40640000Y-49480000D03*
D17*
X30480000Y-35510000D03*
D18*
X30480000Y-32970000D03*
D17*
X26720000Y-29845000D03*
D18*
X29260000Y-29845000D03*
D19*
X44450000Y-21590000D03*
D20*
X44450000Y-24130000D03*
X44450000Y-26670000D03*
X44450000Y-29210000D03*
X44450000Y-31750000D03*
X44450000Y-34290000D03*
X44450000Y-36830000D03*
X44450000Y-39370000D03*
X44450000Y-41910000D03*
X44450000Y-44450000D03*
X44450000Y-46990000D03*
X44450000Y-49530000D03*
X44450000Y-52070000D03*
X44450000Y-54610000D03*
X44450000Y-57150000D03*
X44450000Y-59690000D03*
X44450000Y-62230000D03*
X44450000Y-64770000D03*
X44450000Y-67310000D03*
X44450000Y-69850000D03*
X59690000Y-69850000D03*
X59690000Y-67310000D03*
X59690000Y-64770000D03*
X59690000Y-62230000D03*
X59690000Y-59690000D03*
X59690000Y-57150000D03*
X59690000Y-54610000D03*
X59690000Y-52070000D03*
X59690000Y-49530000D03*
X59690000Y-46990000D03*
X59690000Y-44450000D03*
X59690000Y-41910000D03*
X59690000Y-39370000D03*
X59690000Y-36830000D03*
X59690000Y-34290000D03*
X59690000Y-31750000D03*
X59690000Y-29210000D03*
X59690000Y-26670000D03*
X59690000Y-24130000D03*
X59690000Y-21590000D03*
D19*
X40640000Y-45720000D03*
D20*
X40640000Y-43180000D03*
X40640000Y-40640000D03*
X40640000Y-38100000D03*
X40640000Y-35560000D03*
X40640000Y-33020000D03*
X40640000Y-30480000D03*
X33020000Y-30480000D03*
X33020000Y-33020000D03*
X33020000Y-35560000D03*
X33020000Y-38100000D03*
X33020000Y-40640000D03*
X33020000Y-43180000D03*
X33020000Y-45720000D03*
D19*
X26670000Y-32385000D03*
D20*
X24130000Y-32385000D03*
X21590000Y-32385000D03*
X19050000Y-32385000D03*
X19050000Y-40005000D03*
X21590000Y-40005000D03*
X24130000Y-40005000D03*
X26670000Y-40005000D03*
D19*
X24130000Y-29845000D03*
D20*
X21590000Y-29845000D03*
D15*
X18430000Y-66670000D03*
D16*
X18430000Y-69210000D03*
X20970000Y-66670000D03*
X20970000Y-69210000D03*
X23510000Y-66670000D03*
X23510000Y-69210000D03*
D15*
X31115000Y-66675000D03*
D16*
X31115000Y-69215000D03*
X33655000Y-66675000D03*
X33655000Y-69215000D03*
X36195000Y-66675000D03*
X36195000Y-69215000D03*
X38735000Y-66675000D03*
X38735000Y-69215000D03*
X41275000Y-66675000D03*
X41275000Y-69215000D03*
D15*
X36195000Y-19685000D03*
D16*
X38735000Y-19685000D03*
D15*
X55880000Y-35560000D03*
D16*
X55880000Y-38100000D03*
X55880000Y-40640000D03*
X55880000Y-43180000D03*
X55880000Y-45720000D03*
X55880000Y-48260000D03*
D15*
X55880000Y-27940000D03*
D16*
X55880000Y-25400000D03*
X53340000Y-27940000D03*
X53340000Y-25400000D03*
X50800000Y-27940000D03*
X50800000Y-25400000D03*
X48260000Y-27940000D03*
X48260000Y-25400000D03*
D17*
X19050000Y-34925000D03*
D18*
X26670000Y-34925000D03*
D17*
X19050000Y-37465000D03*
D18*
X26670000Y-37465000D03*
D17*
X48895000Y-41910000D03*
D18*
X48895000Y-49530000D03*
D17*
X46990000Y-59690000D03*
D18*
X54610000Y-59690000D03*
D17*
X54610000Y-62230000D03*
D18*
X46990000Y-62230000D03*
D17*
X46990000Y-57150000D03*
D18*
X54610000Y-57150000D03*
D17*
X46990000Y-54610000D03*
D18*
X54610000Y-54610000D03*
M02*
