M48
; DRILL file {KiCad 6.0.4+dfsg-1+b1} date Sun 24 Apr 2022 01:07:42 AM EEST
; FORMAT={-:-/ absolute / metric / decimal}
; #@! TF.CreationDate,2022-04-24T01:07:42+03:00
; #@! TF.GenerationSoftware,Kicad,Pcbnew,6.0.4+dfsg-1+b1
; #@! TF.FileFunction,Plated,1,2,PTH
FMAT,2
METRIC
; #@! TA.AperFunction,Plated,PTH,ComponentDrill
T1C0.700
; #@! TA.AperFunction,Plated,PTH,ComponentDrill
T2C0.800
; #@! TA.AperFunction,Plated,PTH,ComponentDrill
T3C1.000
; #@! TA.AperFunction,Plated,PTH,ComponentDrill
T4C2.200
%
G90
G05
T1
X19.05Y-34.925
X19.05Y-37.465
X26.67Y-34.925
X26.67Y-37.465
X26.72Y-29.845
X29.26Y-29.845
X30.48Y-32.97
X30.48Y-35.51
X40.64Y-49.48
X40.64Y-52.02
X46.99Y-54.61
X46.99Y-57.15
X46.99Y-59.69
X46.99Y-62.23
X48.895Y-41.91
X48.895Y-49.53
X54.61Y-54.61
X54.61Y-57.15
X54.61Y-59.69
X54.61Y-62.23
T2
X19.05Y-32.385
X19.05Y-40.005
X21.59Y-29.845
X21.59Y-32.385
X21.59Y-40.005
X24.13Y-29.845
X24.13Y-32.385
X24.13Y-40.005
X26.67Y-32.385
X26.67Y-40.005
X30.48Y-38.12
X30.48Y-40.62
X32.425Y-49.53
X33.02Y-30.48
X33.02Y-33.02
X33.02Y-35.56
X33.02Y-38.1
X33.02Y-40.64
X33.02Y-43.18
X33.02Y-45.72
X34.925Y-49.53
X40.64Y-30.48
X40.64Y-33.02
X40.64Y-35.56
X40.64Y-38.1
X40.64Y-40.64
X40.64Y-43.18
X40.64Y-45.72
X44.45Y-21.59
X44.45Y-24.13
X44.45Y-26.67
X44.45Y-29.21
X44.45Y-31.75
X44.45Y-34.29
X44.45Y-36.83
X44.45Y-39.37
X44.45Y-41.91
X44.45Y-44.45
X44.45Y-46.99
X44.45Y-49.53
X44.45Y-52.07
X44.45Y-54.61
X44.45Y-57.15
X44.45Y-59.69
X44.45Y-62.23
X44.45Y-64.77
X44.45Y-67.31
X44.45Y-69.85
X59.69Y-21.59
X59.69Y-24.13
X59.69Y-26.67
X59.69Y-29.21
X59.69Y-31.75
X59.69Y-34.29
X59.69Y-36.83
X59.69Y-39.37
X59.69Y-41.91
X59.69Y-44.45
X59.69Y-46.99
X59.69Y-49.53
X59.69Y-52.07
X59.69Y-54.61
X59.69Y-57.15
X59.69Y-59.69
X59.69Y-62.23
X59.69Y-64.77
X59.69Y-67.31
X59.69Y-69.85
T3
X17.78Y-17.145
X17.78Y-19.685
X17.78Y-22.225
X18.43Y-66.67
X18.43Y-69.21
X19.685Y-45.72
X19.685Y-48.26
X19.685Y-57.15
X19.685Y-59.69
X20.32Y-17.145
X20.32Y-19.685
X20.32Y-22.225
X20.97Y-66.67
X20.97Y-69.21
X22.225Y-45.72
X22.225Y-48.26
X22.225Y-57.15
X22.225Y-59.69
X23.51Y-66.67
X23.51Y-69.21
X24.765Y-45.72
X24.765Y-48.26
X24.765Y-57.15
X24.765Y-59.69
X27.305Y-57.15
X27.305Y-59.69
X27.305Y-65.405
X27.305Y-67.945
X27.305Y-70.485
X28.575Y-17.145
X28.575Y-19.685
X28.575Y-22.225
X31.115Y-17.145
X31.115Y-19.685
X31.115Y-22.225
X31.115Y-66.675
X31.115Y-69.215
X33.655Y-66.675
X33.655Y-69.215
X36.195Y-19.685
X36.195Y-66.675
X36.195Y-69.215
X38.735Y-19.685
X38.735Y-66.675
X38.735Y-69.215
X41.275Y-66.675
X41.275Y-69.215
X48.26Y-25.4
X48.26Y-27.94
X50.8Y-25.4
X50.8Y-27.94
X53.34Y-25.4
X53.34Y-27.94
X55.88Y-25.4
X55.88Y-27.94
X55.88Y-35.56
X55.88Y-38.1
X55.88Y-40.64
X55.88Y-43.18
X55.88Y-45.72
X55.88Y-48.26
T4
X38.735Y-15.24
X38.735Y-60.96
T0
M30
