G04 #@! TF.GenerationSoftware,KiCad,Pcbnew,6.0.4+dfsg-1+b1*
G04 #@! TF.CreationDate,2022-04-24T01:07:45+03:00*
G04 #@! TF.ProjectId,yatabaza-cpu,79617461-6261-47a6-912d-6370752e6b69,rev?*
G04 #@! TF.SameCoordinates,Original*
G04 #@! TF.FileFunction,Soldermask,Bot*
G04 #@! TF.FilePolarity,Negative*
%FSLAX46Y46*%
G04 Gerber Fmt 4.6, Leading zero omitted, Abs format (unit mm)*
G04 Created by KiCad (PCBNEW 6.0.4+dfsg-1+b1) date 2022-04-24 01:07:45*
%MOMM*%
%LPD*%
G01*
G04 APERTURE LIST*
%ADD10C,1.600000*%
%ADD11C,3.800000*%
%ADD12R,1.700000X1.700000*%
%ADD13O,1.700000X1.700000*%
%ADD14C,1.400000*%
%ADD15O,1.400000X1.400000*%
%ADD16R,1.600000X1.600000*%
%ADD17O,1.600000X1.600000*%
G04 APERTURE END LIST*
D10*
X34925000Y-49530000D03*
X32425000Y-49530000D03*
X30480000Y-38120000D03*
X30480000Y-40620000D03*
D11*
X38735000Y-15240000D03*
X38735000Y-60960000D03*
D12*
X27305000Y-65405000D03*
D13*
X27305000Y-67945000D03*
X27305000Y-70485000D03*
D12*
X24765000Y-45720000D03*
D13*
X24765000Y-48260000D03*
X22225000Y-45720000D03*
X22225000Y-48260000D03*
X19685000Y-45720000D03*
X19685000Y-48260000D03*
D12*
X28575000Y-17145000D03*
D13*
X31115000Y-17145000D03*
X28575000Y-19685000D03*
X31115000Y-19685000D03*
X28575000Y-22225000D03*
X31115000Y-22225000D03*
D12*
X27305000Y-57150000D03*
D13*
X27305000Y-59690000D03*
X24765000Y-57150000D03*
X24765000Y-59690000D03*
X22225000Y-57150000D03*
X22225000Y-59690000D03*
X19685000Y-57150000D03*
X19685000Y-59690000D03*
D12*
X17780000Y-17145000D03*
D13*
X20320000Y-17145000D03*
X17780000Y-19685000D03*
X20320000Y-19685000D03*
X17780000Y-22225000D03*
X20320000Y-22225000D03*
D14*
X40640000Y-52020000D03*
D15*
X40640000Y-49480000D03*
D14*
X30480000Y-35510000D03*
D15*
X30480000Y-32970000D03*
D14*
X26720000Y-29845000D03*
D15*
X29260000Y-29845000D03*
D16*
X44450000Y-21590000D03*
D17*
X44450000Y-24130000D03*
X44450000Y-26670000D03*
X44450000Y-29210000D03*
X44450000Y-31750000D03*
X44450000Y-34290000D03*
X44450000Y-36830000D03*
X44450000Y-39370000D03*
X44450000Y-41910000D03*
X44450000Y-44450000D03*
X44450000Y-46990000D03*
X44450000Y-49530000D03*
X44450000Y-52070000D03*
X44450000Y-54610000D03*
X44450000Y-57150000D03*
X44450000Y-59690000D03*
X44450000Y-62230000D03*
X44450000Y-64770000D03*
X44450000Y-67310000D03*
X44450000Y-69850000D03*
X59690000Y-69850000D03*
X59690000Y-67310000D03*
X59690000Y-64770000D03*
X59690000Y-62230000D03*
X59690000Y-59690000D03*
X59690000Y-57150000D03*
X59690000Y-54610000D03*
X59690000Y-52070000D03*
X59690000Y-49530000D03*
X59690000Y-46990000D03*
X59690000Y-44450000D03*
X59690000Y-41910000D03*
X59690000Y-39370000D03*
X59690000Y-36830000D03*
X59690000Y-34290000D03*
X59690000Y-31750000D03*
X59690000Y-29210000D03*
X59690000Y-26670000D03*
X59690000Y-24130000D03*
X59690000Y-21590000D03*
D16*
X40640000Y-45720000D03*
D17*
X40640000Y-43180000D03*
X40640000Y-40640000D03*
X40640000Y-38100000D03*
X40640000Y-35560000D03*
X40640000Y-33020000D03*
X40640000Y-30480000D03*
X33020000Y-30480000D03*
X33020000Y-33020000D03*
X33020000Y-35560000D03*
X33020000Y-38100000D03*
X33020000Y-40640000D03*
X33020000Y-43180000D03*
X33020000Y-45720000D03*
D16*
X26670000Y-32385000D03*
D17*
X24130000Y-32385000D03*
X21590000Y-32385000D03*
X19050000Y-32385000D03*
X19050000Y-40005000D03*
X21590000Y-40005000D03*
X24130000Y-40005000D03*
X26670000Y-40005000D03*
D16*
X24130000Y-29845000D03*
D17*
X21590000Y-29845000D03*
D12*
X18430000Y-66670000D03*
D13*
X18430000Y-69210000D03*
X20970000Y-66670000D03*
X20970000Y-69210000D03*
X23510000Y-66670000D03*
X23510000Y-69210000D03*
D12*
X31115000Y-66675000D03*
D13*
X31115000Y-69215000D03*
X33655000Y-66675000D03*
X33655000Y-69215000D03*
X36195000Y-66675000D03*
X36195000Y-69215000D03*
X38735000Y-66675000D03*
X38735000Y-69215000D03*
X41275000Y-66675000D03*
X41275000Y-69215000D03*
D12*
X36195000Y-19685000D03*
D13*
X38735000Y-19685000D03*
D12*
X55880000Y-35560000D03*
D13*
X55880000Y-38100000D03*
X55880000Y-40640000D03*
X55880000Y-43180000D03*
X55880000Y-45720000D03*
X55880000Y-48260000D03*
D12*
X55880000Y-27940000D03*
D13*
X55880000Y-25400000D03*
X53340000Y-27940000D03*
X53340000Y-25400000D03*
X50800000Y-27940000D03*
X50800000Y-25400000D03*
X48260000Y-27940000D03*
X48260000Y-25400000D03*
D14*
X19050000Y-34925000D03*
D15*
X26670000Y-34925000D03*
D14*
X19050000Y-37465000D03*
D15*
X26670000Y-37465000D03*
D14*
X48895000Y-41910000D03*
D15*
X48895000Y-49530000D03*
D14*
X46990000Y-59690000D03*
D15*
X54610000Y-59690000D03*
D14*
X54610000Y-62230000D03*
D15*
X46990000Y-62230000D03*
D14*
X46990000Y-57150000D03*
D15*
X54610000Y-57150000D03*
D14*
X46990000Y-54610000D03*
D15*
X54610000Y-54610000D03*
M02*
