G04 #@! TF.GenerationSoftware,KiCad,Pcbnew,6.0.4+dfsg-1+b1*
G04 #@! TF.CreationDate,2022-04-24T01:07:44+03:00*
G04 #@! TF.ProjectId,yatabaza-cpu,79617461-6261-47a6-912d-6370752e6b69,rev?*
G04 #@! TF.SameCoordinates,Original*
G04 #@! TF.FileFunction,Copper,L1,Top*
G04 #@! TF.FilePolarity,Positive*
%FSLAX46Y46*%
G04 Gerber Fmt 4.6, Leading zero omitted, Abs format (unit mm)*
G04 Created by KiCad (PCBNEW 6.0.4+dfsg-1+b1) date 2022-04-24 01:07:44*
%MOMM*%
%LPD*%
G01*
G04 APERTURE LIST*
G04 #@! TA.AperFunction,ComponentPad*
%ADD10C,1.600000*%
G04 #@! TD*
G04 #@! TA.AperFunction,ComponentPad*
%ADD11C,3.800000*%
G04 #@! TD*
G04 #@! TA.AperFunction,ComponentPad*
%ADD12R,1.700000X1.700000*%
G04 #@! TD*
G04 #@! TA.AperFunction,ComponentPad*
%ADD13O,1.700000X1.700000*%
G04 #@! TD*
G04 #@! TA.AperFunction,ComponentPad*
%ADD14C,1.400000*%
G04 #@! TD*
G04 #@! TA.AperFunction,ComponentPad*
%ADD15O,1.400000X1.400000*%
G04 #@! TD*
G04 #@! TA.AperFunction,ComponentPad*
%ADD16R,1.600000X1.600000*%
G04 #@! TD*
G04 #@! TA.AperFunction,ComponentPad*
%ADD17O,1.600000X1.600000*%
G04 #@! TD*
G04 #@! TA.AperFunction,Conductor*
%ADD18C,0.750000*%
G04 #@! TD*
G04 #@! TA.AperFunction,Conductor*
%ADD19C,0.250000*%
G04 #@! TD*
G04 #@! TA.AperFunction,Conductor*
%ADD20C,0.375000*%
G04 #@! TD*
G04 APERTURE END LIST*
D10*
X34925000Y-49530000D03*
X32425000Y-49530000D03*
X30480000Y-38120000D03*
X30480000Y-40620000D03*
D11*
X38735000Y-15240000D03*
X38735000Y-60960000D03*
D12*
X27305000Y-65405000D03*
D13*
X27305000Y-67945000D03*
X27305000Y-70485000D03*
D12*
X24765000Y-45720000D03*
D13*
X24765000Y-48260000D03*
X22225000Y-45720000D03*
X22225000Y-48260000D03*
X19685000Y-45720000D03*
X19685000Y-48260000D03*
D12*
X28575000Y-17145000D03*
D13*
X31115000Y-17145000D03*
X28575000Y-19685000D03*
X31115000Y-19685000D03*
X28575000Y-22225000D03*
X31115000Y-22225000D03*
D12*
X27305000Y-57150000D03*
D13*
X27305000Y-59690000D03*
X24765000Y-57150000D03*
X24765000Y-59690000D03*
X22225000Y-57150000D03*
X22225000Y-59690000D03*
X19685000Y-57150000D03*
X19685000Y-59690000D03*
D12*
X17780000Y-17145000D03*
D13*
X20320000Y-17145000D03*
X17780000Y-19685000D03*
X20320000Y-19685000D03*
X17780000Y-22225000D03*
X20320000Y-22225000D03*
D14*
X40640000Y-52020000D03*
D15*
X40640000Y-49480000D03*
D14*
X30480000Y-35510000D03*
D15*
X30480000Y-32970000D03*
D14*
X26720000Y-29845000D03*
D15*
X29260000Y-29845000D03*
D16*
X44450000Y-21590000D03*
D17*
X44450000Y-24130000D03*
X44450000Y-26670000D03*
X44450000Y-29210000D03*
X44450000Y-31750000D03*
X44450000Y-34290000D03*
X44450000Y-36830000D03*
X44450000Y-39370000D03*
X44450000Y-41910000D03*
X44450000Y-44450000D03*
X44450000Y-46990000D03*
X44450000Y-49530000D03*
X44450000Y-52070000D03*
X44450000Y-54610000D03*
X44450000Y-57150000D03*
X44450000Y-59690000D03*
X44450000Y-62230000D03*
X44450000Y-64770000D03*
X44450000Y-67310000D03*
X44450000Y-69850000D03*
X59690000Y-69850000D03*
X59690000Y-67310000D03*
X59690000Y-64770000D03*
X59690000Y-62230000D03*
X59690000Y-59690000D03*
X59690000Y-57150000D03*
X59690000Y-54610000D03*
X59690000Y-52070000D03*
X59690000Y-49530000D03*
X59690000Y-46990000D03*
X59690000Y-44450000D03*
X59690000Y-41910000D03*
X59690000Y-39370000D03*
X59690000Y-36830000D03*
X59690000Y-34290000D03*
X59690000Y-31750000D03*
X59690000Y-29210000D03*
X59690000Y-26670000D03*
X59690000Y-24130000D03*
X59690000Y-21590000D03*
D16*
X40640000Y-45720000D03*
D17*
X40640000Y-43180000D03*
X40640000Y-40640000D03*
X40640000Y-38100000D03*
X40640000Y-35560000D03*
X40640000Y-33020000D03*
X40640000Y-30480000D03*
X33020000Y-30480000D03*
X33020000Y-33020000D03*
X33020000Y-35560000D03*
X33020000Y-38100000D03*
X33020000Y-40640000D03*
X33020000Y-43180000D03*
X33020000Y-45720000D03*
D16*
X26670000Y-32385000D03*
D17*
X24130000Y-32385000D03*
X21590000Y-32385000D03*
X19050000Y-32385000D03*
X19050000Y-40005000D03*
X21590000Y-40005000D03*
X24130000Y-40005000D03*
X26670000Y-40005000D03*
D16*
X24130000Y-29845000D03*
D17*
X21590000Y-29845000D03*
D12*
X18430000Y-66670000D03*
D13*
X18430000Y-69210000D03*
X20970000Y-66670000D03*
X20970000Y-69210000D03*
X23510000Y-66670000D03*
X23510000Y-69210000D03*
D12*
X31115000Y-66675000D03*
D13*
X31115000Y-69215000D03*
X33655000Y-66675000D03*
X33655000Y-69215000D03*
X36195000Y-66675000D03*
X36195000Y-69215000D03*
X38735000Y-66675000D03*
X38735000Y-69215000D03*
X41275000Y-66675000D03*
X41275000Y-69215000D03*
D12*
X36195000Y-19685000D03*
D13*
X38735000Y-19685000D03*
D12*
X55880000Y-35560000D03*
D13*
X55880000Y-38100000D03*
X55880000Y-40640000D03*
X55880000Y-43180000D03*
X55880000Y-45720000D03*
X55880000Y-48260000D03*
D12*
X55880000Y-27940000D03*
D13*
X55880000Y-25400000D03*
X53340000Y-27940000D03*
X53340000Y-25400000D03*
X50800000Y-27940000D03*
X50800000Y-25400000D03*
X48260000Y-27940000D03*
X48260000Y-25400000D03*
D14*
X19050000Y-34925000D03*
D15*
X26670000Y-34925000D03*
D14*
X19050000Y-37465000D03*
D15*
X26670000Y-37465000D03*
D14*
X48895000Y-41910000D03*
D15*
X48895000Y-49530000D03*
D14*
X46990000Y-59690000D03*
D15*
X54610000Y-59690000D03*
D14*
X54610000Y-62230000D03*
D15*
X46990000Y-62230000D03*
D14*
X46990000Y-57150000D03*
D15*
X54610000Y-57150000D03*
D14*
X46990000Y-54610000D03*
D15*
X54610000Y-54610000D03*
D18*
X33655000Y-71755000D02*
X31115000Y-71755000D01*
X21590000Y-71755000D02*
X20955000Y-71120000D01*
X20955000Y-71120000D02*
X20955000Y-69215000D01*
X18415000Y-57150000D02*
X17780000Y-57785000D01*
X17780000Y-57785000D02*
X17780000Y-63500000D01*
X17780000Y-63500000D02*
X20955000Y-66675000D01*
X53340000Y-68580000D02*
X53975000Y-67945000D01*
X53975000Y-67945000D02*
X53975000Y-62230000D01*
X27305000Y-71755000D02*
X21590000Y-71755000D01*
X31750000Y-22225000D02*
X40005000Y-30480000D01*
X40005000Y-30480000D02*
X40640000Y-30480000D01*
X45720000Y-71755000D02*
X46355000Y-71120000D01*
X46355000Y-71120000D02*
X46355000Y-68580000D01*
X46355000Y-68580000D02*
X53340000Y-68580000D01*
X45085000Y-67310000D02*
X44450000Y-67310000D01*
X31115000Y-71755000D02*
X27305000Y-71755000D01*
X33655000Y-69215000D02*
X33655000Y-66675000D01*
X31115000Y-69215000D02*
X31115000Y-71755000D01*
X19685000Y-57150000D02*
X22225000Y-57150000D01*
X31115000Y-69215000D02*
X33655000Y-69215000D01*
X20955000Y-69215000D02*
X20955000Y-66675000D01*
X28575000Y-22225000D02*
X31115000Y-22225000D01*
X19685000Y-57150000D02*
X18415000Y-57150000D01*
X33655000Y-71755000D02*
X45720000Y-71755000D01*
X31115000Y-66675000D02*
X31115000Y-69215000D01*
X27305000Y-70485000D02*
X27305000Y-71755000D01*
X33655000Y-69215000D02*
X33655000Y-71755000D01*
X46355000Y-68580000D02*
X45085000Y-67310000D01*
X31115000Y-22225000D02*
X31750000Y-22225000D01*
X33655000Y-66675000D02*
X31115000Y-66675000D01*
X36195000Y-64770000D02*
X43815000Y-64770000D01*
X28575000Y-57150000D02*
X27305000Y-57150000D01*
X17145000Y-25400000D02*
X20320000Y-22225000D01*
X21590000Y-34925000D02*
X19050000Y-34925000D01*
X25400000Y-17145000D02*
X28575000Y-17145000D01*
X29210000Y-37465000D02*
X30480000Y-37465000D01*
X34290000Y-45720000D02*
X34925000Y-46355000D01*
X34925000Y-46355000D02*
X34925000Y-49530000D01*
X26670000Y-45720000D02*
X24765000Y-45720000D01*
X27305000Y-65405000D02*
X27940000Y-64770000D01*
X27940000Y-64770000D02*
X29845000Y-64770000D01*
X29845000Y-64770000D02*
X36195000Y-64770000D01*
X29845000Y-58420000D02*
X28575000Y-57150000D01*
X33020000Y-17145000D02*
X33655000Y-17780000D01*
X33655000Y-17780000D02*
X33655000Y-21590000D01*
X33655000Y-21590000D02*
X34290000Y-22225000D01*
X34290000Y-22225000D02*
X40005000Y-22225000D01*
X40005000Y-22225000D02*
X42545000Y-19685000D01*
X42545000Y-19685000D02*
X55245000Y-19685000D01*
X49530000Y-64770000D02*
X54610000Y-59690000D01*
X55880000Y-20320000D02*
X55245000Y-19685000D01*
X40640000Y-49530000D02*
X34925000Y-49530000D01*
X54610000Y-59690000D02*
X54610000Y-57150000D01*
X24765000Y-48260000D02*
X24765000Y-45720000D01*
X36195000Y-66675000D02*
X36195000Y-69215000D01*
X33020000Y-45720000D02*
X26670000Y-45720000D01*
X54610000Y-57150000D02*
X54610000Y-54610000D01*
X24765000Y-57150000D02*
X27305000Y-57150000D01*
X17145000Y-33020000D02*
X17145000Y-25400000D01*
X29845000Y-64770000D02*
X29845000Y-58420000D01*
X26670000Y-40005000D02*
X26670000Y-45720000D01*
X43815000Y-64770000D02*
X49530000Y-64770000D01*
X36195000Y-66675000D02*
X36195000Y-64770000D01*
X55880000Y-25400000D02*
X55880000Y-20320000D01*
X26670000Y-40005000D02*
X21590000Y-34925000D01*
X26670000Y-40005000D02*
X29210000Y-37465000D01*
X31115000Y-17145000D02*
X33020000Y-17145000D01*
X30480000Y-37465000D02*
X30480000Y-35560000D01*
X33020000Y-45720000D02*
X34290000Y-45720000D01*
X20320000Y-22225000D02*
X25400000Y-17145000D01*
X19050000Y-34925000D02*
X17145000Y-33020000D01*
X28575000Y-17145000D02*
X31115000Y-17145000D01*
D19*
X43815000Y-41910000D02*
X48895000Y-41910000D01*
X32385000Y-29210000D02*
X34290000Y-29210000D01*
X41910000Y-31750000D02*
X36830000Y-31750000D01*
X36830000Y-31750000D02*
X34290000Y-29210000D01*
X43180000Y-30480000D02*
X58420000Y-30480000D01*
X43180000Y-30480000D02*
X41910000Y-31750000D01*
X59690000Y-31750000D02*
X58420000Y-30480000D01*
X26670000Y-34925000D02*
X32385000Y-29210000D01*
X53340000Y-33655000D02*
X59055000Y-33655000D01*
X52705000Y-34290000D02*
X52705000Y-45085000D01*
X52705000Y-45085000D02*
X52070000Y-45720000D01*
X40640000Y-45720000D02*
X52070000Y-45720000D01*
X59690000Y-34290000D02*
X59055000Y-33655000D01*
X53340000Y-33655000D02*
X52705000Y-34290000D01*
X22860000Y-50800000D02*
X22225000Y-50165000D01*
X22225000Y-50165000D02*
X22225000Y-48260000D01*
X22860000Y-50800000D02*
X57785000Y-50800000D01*
X59055000Y-52070000D02*
X57785000Y-50800000D01*
X57150000Y-53340000D02*
X58420000Y-54610000D01*
X21590000Y-53340000D02*
X57150000Y-53340000D01*
X21590000Y-53340000D02*
X20955000Y-52705000D01*
X20955000Y-52705000D02*
X20955000Y-46355000D01*
X20955000Y-46355000D02*
X21590000Y-45720000D01*
X58420000Y-54610000D02*
X59690000Y-54610000D01*
X59055000Y-54610000D02*
X58420000Y-54610000D01*
X53340000Y-36195000D02*
X53340000Y-48895000D01*
X53340000Y-48895000D02*
X53975000Y-49530000D01*
X53975000Y-49530000D02*
X58420000Y-49530000D01*
X58420000Y-49530000D02*
X59055000Y-49530000D01*
X54610000Y-35560000D02*
X53975000Y-35560000D01*
X55880000Y-35560000D02*
X54610000Y-35560000D01*
X53975000Y-35560000D02*
X53340000Y-36195000D01*
X55245000Y-35560000D02*
X54610000Y-35560000D01*
X58420000Y-49530000D02*
X59690000Y-49530000D01*
X55245000Y-38100000D02*
X53975000Y-39370000D01*
X53975000Y-39370000D02*
X53975000Y-46355000D01*
X53975000Y-46355000D02*
X54610000Y-46990000D01*
X54610000Y-46990000D02*
X58420000Y-46990000D01*
X58420000Y-46990000D02*
X59055000Y-46990000D01*
X58420000Y-46990000D02*
X59690000Y-46990000D01*
X57150000Y-40640000D02*
X58420000Y-41910000D01*
X58420000Y-41910000D02*
X59690000Y-41910000D01*
X55880000Y-40640000D02*
X57150000Y-40640000D01*
X57150000Y-43180000D02*
X58420000Y-44450000D01*
X58420000Y-44450000D02*
X59690000Y-44450000D01*
X55880000Y-43180000D02*
X57150000Y-43180000D01*
X53975000Y-21590000D02*
X54610000Y-22225000D01*
X54610000Y-22225000D02*
X54610000Y-26670000D01*
X54610000Y-26670000D02*
X55880000Y-27940000D01*
X44450000Y-21590000D02*
X53975000Y-21590000D01*
X44450000Y-24765000D02*
X46355000Y-26670000D01*
X46355000Y-26670000D02*
X52070000Y-26670000D01*
X52070000Y-26670000D02*
X53340000Y-27940000D01*
X49530000Y-29210000D02*
X50800000Y-27940000D01*
X44450000Y-29210000D02*
X49530000Y-29210000D01*
X45720000Y-27940000D02*
X44450000Y-26670000D01*
X48260000Y-27940000D02*
X45720000Y-27940000D01*
D20*
X38100000Y-40640000D02*
X40640000Y-38100000D01*
X32385000Y-30480000D02*
X31750000Y-31115000D01*
X31750000Y-31115000D02*
X31750000Y-35560000D01*
X32385000Y-40640000D02*
X33020000Y-40640000D01*
X31750000Y-35560000D02*
X31750000Y-40005000D01*
X35560000Y-33020000D02*
X33020000Y-30480000D01*
X33020000Y-30480000D02*
X32385000Y-30480000D01*
X40640000Y-33020000D02*
X35560000Y-33020000D01*
X33020000Y-35560000D02*
X31750000Y-35560000D01*
X33020000Y-40640000D02*
X38100000Y-40640000D01*
X31750000Y-40005000D02*
X32385000Y-40640000D01*
X41275000Y-40640000D02*
X41910000Y-40005000D01*
X41910000Y-40005000D02*
X41910000Y-36195000D01*
X41910000Y-36195000D02*
X41275000Y-35560000D01*
X41275000Y-35560000D02*
X40640000Y-35560000D01*
X34925000Y-34925000D02*
X33020000Y-33020000D01*
X34925000Y-35560000D02*
X34925000Y-34925000D01*
X34925000Y-36195000D02*
X34925000Y-35560000D01*
X40640000Y-40640000D02*
X40640000Y-43180000D01*
X40640000Y-40640000D02*
X41275000Y-40640000D01*
X33020000Y-38100000D02*
X34925000Y-36195000D01*
X34925000Y-35560000D02*
X40640000Y-35560000D01*
X33020000Y-43180000D02*
X40640000Y-43180000D01*
M02*
